note_on channel=0 note=63 velocity=66 time=1343
note_on channel=0 note=63 velocity=0 time=346
control_change channel=0 control=64 value=127 time=367552
control_change channel=0 control=64 value=0 time=71
control_change channel=0 control=64 value=127 time=45358
note_on channel=0 note=65 velocity=40 time=150
note_on channel=0 note=65 velocity=0 time=85
note_on channel=0 note=65 velocity=31 time=138
note_on channel=0 note=65 velocity=0 time=96
note_on channel=0 note=65 velocity=43 time=76
note_on channel=0 note=65 velocity=0 time=68
note_on channel=0 note=65 velocity=34 time=100
note_on channel=0 note=65 velocity=0 time=231
note_on channel=0 note=63 velocity=50 time=9
note_on channel=0 note=63 velocity=0 time=108
note_on channel=0 note=65 velocity=45 time=40
note_on channel=0 note=65 velocity=0 time=171
note_on channel=0 note=65 velocity=39 time=212
note_on channel=0 note=65 velocity=0 time=98
note_on channel=0 note=63 velocity=43 time=38
note_on channel=0 note=63 velocity=0 time=111
note_on channel=0 note=65 velocity=51 time=10
note_on channel=0 note=63 velocity=46 time=121
note_on channel=0 note=65 velocity=0 time=8
note_on channel=0 note=53 velocity=30 time=38
note_on channel=0 note=51 velocity=52 time=34
note_on channel=0 note=63 velocity=0 time=9
note_on channel=0 note=65 velocity=50 time=66
note_on channel=0 note=63 velocity=55 time=100
note_on channel=0 note=65 velocity=0 time=16
note_on channel=0 note=53 velocity=0 time=2
note_on channel=0 note=51 velocity=0 time=19
note_on channel=0 note=65 velocity=39 time=99
note_on channel=0 note=63 velocity=0 time=7
note_on channel=0 note=65 velocity=0 time=131
note_on channel=0 note=63 velocity=48 time=42
note_on channel=0 note=63 velocity=0 time=85
note_on channel=0 note=65 velocity=51 time=29
note_on channel=0 note=65 velocity=0 time=117
note_on channel=0 note=63 velocity=48 time=18
note_on channel=0 note=63 velocity=0 time=64
note_on channel=0 note=65 velocity=47 time=58
note_on channel=0 note=63 velocity=55 time=102
note_on channel=0 note=65 velocity=0 time=30
note_on channel=0 note=75 velocity=39 time=23
note_on channel=0 note=63 velocity=0 time=21
note_on channel=0 note=65 velocity=49 time=94
note_on channel=0 note=75 velocity=0 time=37
note_on channel=0 note=63 velocity=48 time=41
note_on channel=0 note=63 velocity=0 time=60
note_on channel=0 note=65 velocity=0 time=51
note_on channel=0 note=65 velocity=52 time=220
note_on channel=0 note=65 velocity=0 time=133
note_on channel=0 note=61 velocity=39 time=44
note_on channel=0 note=57 velocity=48 time=12
note_on channel=0 note=64 velocity=41 time=27
note_on channel=0 note=64 velocity=0 time=82
note_on channel=0 note=65 velocity=52 time=8
note_on channel=0 note=57 velocity=0 time=6
note_on channel=0 note=70 velocity=56 time=6
note_on channel=0 note=61 velocity=0 time=38
note_on channel=0 note=65 velocity=0 time=98
note_on channel=0 note=61 velocity=50 time=2
note_on channel=0 note=57 velocity=48 time=19
note_on channel=0 note=64 velocity=43 time=16
note_on channel=0 note=64 velocity=0 time=69
note_on channel=0 note=57 velocity=0 time=31
note_on channel=0 note=61 velocity=0 time=15
note_on channel=0 note=65 velocity=48 time=37
note_on channel=0 note=65 velocity=0 time=73
note_on channel=0 note=61 velocity=43 time=53
note_on channel=0 note=57 velocity=29 time=6
note_on channel=0 note=68 velocity=34 time=62
note_on channel=0 note=61 velocity=0 time=13
note_on channel=0 note=57 velocity=0 time=24
note_on channel=0 note=65 velocity=40 time=31
note_on channel=0 note=68 velocity=0 time=21
note_on channel=0 note=70 velocity=0 time=21
note_on channel=0 note=65 velocity=0 time=52
note_on channel=0 note=57 velocity=36 time=20
note_on channel=0 note=61 velocity=39 time=21
note_on channel=0 note=64 velocity=31 time=48
note_on channel=0 note=68 velocity=39 time=11
note_on channel=0 note=65 velocity=45 time=48
note_on channel=0 note=61 velocity=0 time=4
note_on channel=0 note=57 velocity=0 time=15
note_on channel=0 note=64 velocity=0 time=1
note_on channel=0 note=68 velocity=0 time=31
note_on channel=0 note=65 velocity=0 time=47
note_on channel=0 note=61 velocity=43 time=11
note_on channel=0 note=57 velocity=39 time=19
note_on channel=0 note=64 velocity=36 time=22
note_on channel=0 note=70 velocity=43 time=55
note_on channel=0 note=65 velocity=49 time=28
note_on channel=0 note=64 velocity=0 time=7
note_on channel=0 note=61 velocity=0 time=13
note_on channel=0 note=57 velocity=0 time=9
note_on channel=0 note=61 velocity=47 time=73
note_on channel=0 note=57 velocity=49 time=17
note_on channel=0 note=64 velocity=40 time=0
note_on channel=0 note=70 velocity=0 time=8
note_on channel=0 note=65 velocity=0 time=10
note_on channel=0 note=64 velocity=0 time=67
note_on channel=0 note=70 velocity=51 time=6
note_on channel=0 note=57 velocity=0 time=11
note_on channel=0 note=61 velocity=0 time=4
note_on channel=0 note=65 velocity=44 time=9
note_on channel=0 note=68 velocity=43 time=19
note_on channel=0 note=61 velocity=48 time=56
note_on channel=0 note=57 velocity=53 time=8
note_on channel=0 note=68 velocity=0 time=1
note_on channel=0 note=70 velocity=0 time=21
note_on channel=0 note=64 velocity=37 time=1
note_on channel=0 note=65 velocity=0 time=17
note_on channel=0 note=64 velocity=0 time=63
note_on channel=0 note=61 velocity=0 time=5
note_on channel=0 note=70 velocity=42 time=18
note_on channel=0 note=57 velocity=0 time=1
note_on channel=0 note=65 velocity=46 time=3
note_on channel=0 note=68 velocity=35 time=27
note_on channel=0 note=61 velocity=46 time=56
note_on channel=0 note=57 velocity=48 time=1
note_on channel=0 note=68 velocity=0 time=16
note_on channel=0 note=70 velocity=0 time=9
note_on channel=0 note=64 velocity=35 time=1
note_on channel=0 note=65 velocity=0 time=16
note_on channel=0 note=64 velocity=0 time=61
note_on channel=0 note=57 velocity=0 time=7
note_on channel=0 note=61 velocity=0 time=7
note_on channel=0 note=65 velocity=47 time=17
note_on channel=0 note=68 velocity=35 time=18
note_on channel=0 note=70 velocity=36 time=4
note_on channel=0 note=61 velocity=48 time=48
note_on channel=0 note=57 velocity=43 time=12
note_on channel=0 note=70 velocity=0 time=11
note_on channel=0 note=64 velocity=32 time=22
note_on channel=0 note=68 velocity=0 time=1
note_on channel=0 note=65 velocity=0 time=12
note_on channel=0 note=57 velocity=0 time=55
note_on channel=0 note=61 velocity=0 time=15
note_on channel=0 note=64 velocity=0 time=0
note_on channel=0 note=65 velocity=40 time=55
note_on channel=0 note=68 velocity=35 time=18
note_on channel=0 note=61 velocity=39 time=59
note_on channel=0 note=65 velocity=0 time=6
note_on channel=0 note=68 velocity=0 time=22
note_on channel=0 note=61 velocity=0 time=80
note_on channel=0 note=65 velocity=48 time=66
note_on channel=0 note=65 velocity=0 time=90
note_on channel=0 note=64 velocity=32 time=51
note_on channel=0 note=64 velocity=0 time=99
note_on channel=0 note=65 velocity=46 time=15
note_on channel=0 note=61 velocity=46 time=81
note_on channel=0 note=65 velocity=0 time=7
note_on channel=0 note=65 velocity=47 time=140
note_on channel=0 note=61 velocity=0 time=48
note_on channel=0 note=63 velocity=47 time=6
note_on channel=0 note=65 velocity=0 time=18
note_on channel=0 note=63 velocity=0 time=84
note_on channel=0 note=65 velocity=52 time=31
note_on channel=0 note=61 velocity=32 time=29
note_on channel=0 note=65 velocity=0 time=93
note_on channel=0 note=63 velocity=49 time=19
note_on channel=0 note=61 velocity=0 time=38
note_on channel=0 note=68 velocity=49 time=27
note_on channel=0 note=63 velocity=0 time=3
note_on channel=0 note=65 velocity=39 time=40
note_on channel=0 note=61 velocity=48 time=28
note_on channel=0 note=57 velocity=35 time=44
note_on channel=0 note=65 velocity=0 time=30
note_on channel=0 note=63 velocity=45 time=18
note_on channel=0 note=61 velocity=0 time=55
note_on channel=0 note=68 velocity=0 time=0
note_on channel=0 note=70 velocity=56 time=1
note_on channel=0 note=65 velocity=49 time=1
note_on channel=0 note=63 velocity=0 time=9
note_on channel=0 note=57 velocity=0 time=20
note_on channel=0 note=61 velocity=46 time=60
note_on channel=0 note=65 velocity=0 time=12
note_on channel=0 note=57 velocity=37 time=6
note_on channel=0 note=63 velocity=38 time=44
control_change channel=0 control=64 value=0 time=62
note_on channel=0 note=65 velocity=52 time=4
note_on channel=0 note=61 velocity=0 time=17
note_on channel=0 note=63 velocity=0 time=49
note_on channel=0 note=68 velocity=47 time=6
note_on channel=0 note=61 velocity=48 time=44
control_change channel=0 control=64 value=127 time=16
note_on channel=0 note=65 velocity=0 time=23
note_on channel=0 note=63 velocity=47 time=49
note_on channel=0 note=57 velocity=0 time=20
note_on channel=0 note=61 velocity=0 time=42
note_on channel=0 note=66 velocity=46 time=19
note_on channel=0 note=64 velocity=50 time=4
note_on channel=0 note=70 velocity=0 time=10
note_on channel=0 note=63 velocity=0 time=21
note_on channel=0 note=68 velocity=0 time=87
note_on channel=0 note=66 velocity=0 time=36
note_on channel=0 note=70 velocity=53 time=24
note_on channel=0 note=64 velocity=0 time=1
note_on channel=0 note=64 velocity=38 time=96
note_on channel=0 note=56 velocity=55 time=59
note_on channel=0 note=63 velocity=40 time=10
note_on channel=0 note=64 velocity=0 time=3
note_on channel=0 note=61 velocity=25 time=52
note_on channel=0 note=64 velocity=48 time=74
note_on channel=0 note=63 velocity=0 time=26
note_on channel=0 note=61 velocity=0 time=26
note_on channel=0 note=56 velocity=0 time=42
note_on channel=0 note=63 velocity=48 time=62
note_on channel=0 note=61 velocity=47 time=1
note_on channel=0 note=56 velocity=43 time=12
note_on channel=0 note=64 velocity=0 time=3
note_on channel=0 note=70 velocity=0 time=19
note_on channel=0 note=68 velocity=31 time=13
note_on channel=0 note=68 velocity=0 time=59
note_on channel=0 note=61 velocity=0 time=39
note_on channel=0 note=63 velocity=0 time=0
note_on channel=0 note=64 velocity=57 time=10
note_on channel=0 note=56 velocity=0 time=12
note_on channel=0 note=70 velocity=41 time=8
note_on channel=0 note=68 velocity=49 time=19
note_on channel=0 note=66 velocity=31 time=27
note_on channel=0 note=68 velocity=0 time=30
note_on channel=0 note=63 velocity=52 time=12
note_on channel=0 note=70 velocity=0 time=0
note_on channel=0 note=56 velocity=44 time=3
note_on channel=0 note=61 velocity=50 time=1
note_on channel=0 note=66 velocity=0 time=0
note_on channel=0 note=64 velocity=0 time=29
note_on channel=0 note=63 velocity=0 time=81
note_on channel=0 note=70 velocity=42 time=9
note_on channel=0 note=64 velocity=48 time=11
note_on channel=0 note=61 velocity=0 time=1
note_on channel=0 note=66 velocity=45 time=0
note_on channel=0 note=56 velocity=0 time=6
note_on channel=0 note=68 velocity=51 time=2
note_on channel=0 note=61 velocity=53 time=84
note_on channel=0 note=63 velocity=57 time=12
note_on channel=0 note=56 velocity=43 time=4
note_on channel=0 note=70 velocity=0 time=1
note_on channel=0 note=66 velocity=0 time=1
note_on channel=0 note=64 velocity=0 time=10
note_on channel=0 note=68 velocity=0 time=2
note_on channel=0 note=56 velocity=0 time=87
note_on channel=0 note=61 velocity=0 time=3
note_on channel=0 note=66 velocity=46 time=0
note_on channel=0 note=70 velocity=45 time=1
note_on channel=0 note=64 velocity=51 time=1
note_on channel=0 note=63 velocity=0 time=6
note_on channel=0 note=68 velocity=43 time=7
note_on channel=0 note=63 velocity=53 time=74
note_on channel=0 note=56 velocity=43 time=7
note_on channel=0 note=61 velocity=48 time=6
note_on channel=0 note=66 velocity=0 time=20
note_on channel=0 note=68 velocity=0 time=12
note_on channel=0 note=70 velocity=0 time=0
note_on channel=0 note=64 velocity=0 time=9
note_on channel=0 note=63 velocity=0 time=72
note_on channel=0 note=61 velocity=0 time=5
note_on channel=0 note=70 velocity=45 time=1
note_on channel=0 note=66 velocity=39 time=9
note_on channel=0 note=68 velocity=42 time=0
note_on channel=0 note=64 velocity=39 time=20
note_on channel=0 note=56 velocity=0 time=47
note_on channel=0 note=61 velocity=48 time=18
note_on channel=0 note=63 velocity=42 time=1
note_on channel=0 note=64 velocity=0 time=7
note_on channel=0 note=66 velocity=0 time=3
note_on channel=0 note=68 velocity=0 time=23
note_on channel=0 note=70 velocity=0 time=20
note_on channel=0 note=63 velocity=0 time=21
note_on channel=0 note=61 velocity=0 time=2
note_on channel=0 note=70 velocity=53 time=57
note_on channel=0 note=64 velocity=56 time=19
note_on channel=0 note=70 velocity=0 time=47
note_on channel=0 note=61 velocity=46 time=48
note_on channel=0 note=63 velocity=46 time=1
note_on channel=0 note=64 velocity=0 time=28
note_on channel=0 note=56 velocity=34 time=14
note_on channel=0 note=63 velocity=0 time=19
note_on channel=0 note=61 velocity=0 time=8
note_on channel=0 note=64 velocity=48 time=39
note_on channel=0 note=66 velocity=48 time=11
note_on channel=0 note=56 velocity=0 time=3
note_on channel=0 note=70 velocity=38 time=31
note_on channel=0 note=68 velocity=35 time=9
note_on channel=0 note=64 velocity=0 time=57
note_on channel=0 note=61 velocity=53 time=7
note_on channel=0 note=70 velocity=0 time=4
note_on channel=0 note=63 velocity=39 time=4
note_on channel=0 note=56 velocity=45 time=2
note_on channel=0 note=68 velocity=0 time=0
note_on channel=0 note=66 velocity=0 time=20
note_on channel=0 note=56 velocity=0 time=48
note_on channel=0 note=63 velocity=0 time=7
note_on channel=0 note=61 velocity=0 time=15
note_on channel=0 note=64 velocity=57 time=16
note_on channel=0 note=70 velocity=30 time=48
note_on channel=0 note=70 velocity=0 time=44
note_on channel=0 note=61 velocity=47 time=34
note_on channel=0 note=63 velocity=40 time=11
note_on channel=0 note=64 velocity=0 time=28
note_on channel=0 note=56 velocity=33 time=6
note_on channel=0 note=63 velocity=0 time=38
note_on channel=0 note=66 velocity=42 time=3
note_on channel=0 note=61 velocity=0 time=34
note_on channel=0 note=56 velocity=0 time=1
note_on channel=0 note=64 velocity=49 time=24
note_on channel=0 note=66 velocity=0 time=73
note_on channel=0 note=61 velocity=34 time=43
note_on channel=0 note=64 velocity=0 time=25
note_on channel=0 note=63 velocity=34 time=34
note_on channel=0 note=63 velocity=0 time=71
note_on channel=0 note=64 velocity=55 time=22
note_on channel=0 note=61 velocity=0 time=13
note_on channel=0 note=61 velocity=48 time=82
note_on channel=0 note=56 velocity=39 time=24
note_on channel=0 note=63 velocity=40 time=11
note_on channel=0 note=64 velocity=0 time=9
note_on channel=0 note=63 velocity=0 time=63
note_on channel=0 note=64 velocity=57 time=6
note_on channel=0 note=56 velocity=0 time=7
note_on channel=0 note=61 velocity=0 time=6
note_on channel=0 note=61 velocity=53 time=73
note_on channel=0 note=63 velocity=46 time=17
note_on channel=0 note=56 velocity=48 time=6
note_on channel=0 note=64 velocity=0 time=48
note_on channel=0 note=63 velocity=0 time=24
note_on channel=0 note=56 velocity=0 time=11
note_on channel=0 note=61 velocity=0 time=10
note_on channel=0 note=64 velocity=65 time=18
note_on channel=0 note=61 velocity=57 time=52
note_on channel=0 note=63 velocity=46 time=18
note_on channel=0 note=63 velocity=0 time=70
note_on channel=0 note=64 velocity=0 time=8
note_on channel=0 note=61 velocity=0 time=28
note_on channel=0 note=64 velocity=60 time=38
note_on channel=0 note=61 velocity=45 time=77
note_on channel=0 note=63 velocity=49 time=25
note_on channel=0 note=64 velocity=0 time=43
note_on channel=0 note=56 velocity=38 time=25
note_on channel=0 note=63 velocity=0 time=22
note_on channel=0 note=61 velocity=0 time=29
note_on channel=0 note=64 velocity=56 time=12
note_on channel=0 note=56 velocity=0 time=20
note_on channel=0 note=64 velocity=0 time=135
note_on channel=0 note=62 velocity=48 time=70
note_on channel=0 note=60 velocity=47 time=30
note_on channel=0 note=56 velocity=45 time=8
note_on channel=0 note=59 velocity=43 time=8
note_on channel=0 note=59 velocity=0 time=74
note_on channel=0 note=64 velocity=58 time=31
note_on channel=0 note=62 velocity=0 time=34
note_on channel=0 note=56 velocity=0 time=26
note_on channel=0 note=60 velocity=0 time=13
note_on channel=0 note=60 velocity=58 time=79
note_on channel=0 note=62 velocity=50 time=12
note_on channel=0 note=56 velocity=44 time=2
note_on channel=0 note=64 velocity=0 time=12
note_on channel=0 note=62 velocity=0 time=70
note_on channel=0 note=64 velocity=57 time=3
note_on channel=0 note=56 velocity=0 time=7
note_on channel=0 note=60 velocity=0 time=38
note_on channel=0 note=60 velocity=51 time=85
note_on channel=0 note=62 velocity=49 time=26
note_on channel=0 note=56 velocity=42 time=2
note_on channel=0 note=64 velocity=0 time=1
note_on channel=0 note=62 velocity=0 time=75
note_on channel=0 note=64 velocity=57 time=14
note_on channel=0 note=56 velocity=0 time=14
note_on channel=0 note=60 velocity=0 time=13
note_on channel=0 note=60 velocity=48 time=87
note_on channel=0 note=64 velocity=0 time=23
note_on channel=0 note=62 velocity=44 time=9
note_on channel=0 note=56 velocity=34 time=17
note_on channel=0 note=64 velocity=53 time=58
note_on channel=0 note=62 velocity=0 time=2
note_on channel=0 note=56 velocity=0 time=34
note_on channel=0 note=60 velocity=0 time=3
note_on channel=0 note=60 velocity=51 time=85
note_on channel=0 note=64 velocity=0 time=15
note_on channel=0 note=62 velocity=41 time=6
note_on channel=0 note=56 velocity=31 time=27
note_on channel=0 note=64 velocity=51 time=57
note_on channel=0 note=62 velocity=0 time=6
note_on channel=0 note=56 velocity=0 time=11
note_on channel=0 note=60 velocity=0 time=5
note_on channel=0 note=60 velocity=55 time=76
note_on channel=0 note=62 velocity=43 time=10
note_on channel=0 note=64 velocity=0 time=31
note_on channel=0 note=62 velocity=0 time=71
note_on channel=0 note=64 velocity=55 time=11
note_on channel=0 note=60 velocity=0 time=16
note_on channel=0 note=60 velocity=56 time=85
note_on channel=0 note=64 velocity=0 time=38
note_on channel=0 note=56 velocity=41 time=54
note_on channel=0 note=64 velocity=51 time=47
note_on channel=0 note=60 velocity=0 time=15
note_on channel=0 note=56 velocity=0 time=14
note_on channel=0 note=64 velocity=0 time=102
note_on channel=0 note=62 velocity=39 time=35
note_on channel=0 note=56 velocity=35 time=1
note_on channel=0 note=59 velocity=45 time=6
note_on channel=0 note=64 velocity=53 time=101
note_on channel=0 note=62 velocity=0 time=68
control_change channel=0 control=64 value=0 time=4
note_on channel=0 note=56 velocity=0 time=20
note_on channel=0 note=59 velocity=0 time=25
note_on channel=0 note=64 velocity=0 time=36
note_on channel=0 note=59 velocity=41 time=11
note_on channel=0 note=56 velocity=42 time=8
note_on channel=0 note=62 velocity=43 time=2
control_change channel=0 control=64 value=127 time=7
note_on channel=0 note=64 velocity=47 time=70
note_on channel=0 note=62 velocity=0 time=16
note_on channel=0 note=56 velocity=0 time=40
note_on channel=0 note=59 velocity=0 time=28
note_on channel=0 note=59 velocity=47 time=65
note_on channel=0 note=64 velocity=0 time=1
note_on channel=0 note=62 velocity=42 time=2
note_on channel=0 note=56 velocity=38 time=30
note_on channel=0 note=62 velocity=0 time=59
note_on channel=0 note=64 velocity=48 time=3
note_on channel=0 note=56 velocity=0 time=13
note_on channel=0 note=59 velocity=0 time=31
note_on channel=0 note=59 velocity=46 time=95
note_on channel=0 note=64 velocity=0 time=5
note_on channel=0 note=62 velocity=35 time=6
note_on channel=0 note=64 velocity=51 time=81
note_on channel=0 note=62 velocity=0 time=30
note_on channel=0 note=59 velocity=0 time=43
note_on channel=0 note=64 velocity=0 time=75
note_on channel=0 note=59 velocity=35 time=39
note_on channel=0 note=62 velocity=31 time=33
note_on channel=0 note=56 velocity=48 time=1
note_on channel=0 note=64 velocity=47 time=73
note_on channel=0 note=56 velocity=0 time=3
note_on channel=0 note=62 velocity=0 time=5
note_on channel=0 note=59 velocity=0 time=13
note_on channel=0 note=64 velocity=0 time=87
note_on channel=0 note=56 velocity=39 time=112
note_on channel=0 note=59 velocity=28 time=25
note_on channel=0 note=59 velocity=0 time=55
note_on channel=0 note=56 velocity=0 time=9
note_on channel=0 note=64 velocity=47 time=23
note_on channel=0 note=64 velocity=0 time=127
note_on channel=0 note=55 velocity=50 time=82
note_on channel=0 note=59 velocity=33 time=5
note_on channel=0 note=61 velocity=36 time=74
note_on channel=0 note=64 velocity=47 time=21
note_on channel=0 note=61 velocity=0 time=84
note_on channel=0 note=59 velocity=0 time=51
note_on channel=0 note=55 velocity=0 time=7
note_on channel=0 note=64 velocity=0 time=51
note_on channel=0 note=55 velocity=44 time=42
note_on channel=0 note=59 velocity=48 time=1
note_on channel=0 note=61 velocity=46 time=5
note_on channel=0 note=55 velocity=0 time=85
note_on channel=0 note=61 velocity=0 time=6
note_on channel=0 note=59 velocity=0 time=31
note_on channel=0 note=63 velocity=48 time=11
note_on channel=0 note=63 velocity=0 time=94
note_on channel=0 note=55 velocity=39 time=34
note_on channel=0 note=61 velocity=46 time=6
note_on channel=0 note=59 velocity=42 time=20
note_on channel=0 note=61 velocity=0 time=64
note_on channel=0 note=55 velocity=0 time=5
note_on channel=0 note=59 velocity=0 time=9
note_on channel=0 note=64 velocity=61 time=15
note_on channel=0 note=64 velocity=0 time=117
note_on channel=0 note=61 velocity=41 time=4
note_on channel=0 note=55 velocity=32 time=9
note_on channel=0 note=59 velocity=43 time=7
note_on channel=0 note=63 velocity=62 time=78
note_on channel=0 note=61 velocity=0 time=8
note_on channel=0 note=59 velocity=0 time=1
note_on channel=0 note=55 velocity=0 time=7
note_on channel=0 note=63 velocity=0 time=112
note_on channel=0 note=55 velocity=34 time=10
note_on channel=0 note=61 velocity=42 time=1
note_on channel=0 note=59 velocity=48 time=12
note_on channel=0 note=64 velocity=55 time=14
note_on channel=0 note=59 velocity=0 time=61
note_on channel=0 note=55 velocity=0 time=5
note_on channel=0 note=61 velocity=0 time=0
note_on channel=0 note=64 velocity=0 time=74
note_on channel=0 note=61 velocity=50 time=8
note_on channel=0 note=59 velocity=47 time=10
note_on channel=0 note=55 velocity=50 time=1
note_on channel=0 note=61 velocity=0 time=120
note_on channel=0 note=63 velocity=64 time=0
note_on channel=0 note=59 velocity=0 time=9
note_on channel=0 note=55 velocity=0 time=20
note_on channel=0 note=61 velocity=42 time=77
note_on channel=0 note=59 velocity=42 time=16
note_on channel=0 note=63 velocity=0 time=1
note_on channel=0 note=55 velocity=39 time=17
note_on channel=0 note=64 velocity=57 time=44
note_on channel=0 note=61 velocity=0 time=33
note_on channel=0 note=55 velocity=0 time=8
note_on channel=0 note=59 velocity=0 time=11
note_on channel=0 note=64 velocity=0 time=72
note_on channel=0 note=61 velocity=40 time=5
note_on channel=0 note=59 velocity=50 time=14
note_on channel=0 note=55 velocity=41 time=16
note_on channel=0 note=63 velocity=61 time=58
note_on channel=0 note=61 velocity=0 time=25
note_on channel=0 note=55 velocity=0 time=6
note_on channel=0 note=59 velocity=0 time=21
note_on channel=0 note=61 velocity=41 time=69
note_on channel=0 note=63 velocity=0 time=10
note_on channel=0 note=59 velocity=50 time=4
note_on channel=0 note=55 velocity=43 time=4
note_on channel=0 note=64 velocity=52 time=46
note_on channel=0 note=61 velocity=0 time=53
note_on channel=0 note=59 velocity=0 time=26
note_on channel=0 note=55 velocity=0 time=2
note_on channel=0 note=61 velocity=43 time=75
note_on channel=0 note=64 velocity=0 time=4
note_on channel=0 note=55 velocity=31 time=7
note_on channel=0 note=59 velocity=45 time=3
note_on channel=0 note=63 velocity=66 time=101
note_on channel=0 note=61 velocity=0 time=38
note_on channel=0 note=55 velocity=0 time=20
note_on channel=0 note=59 velocity=0 time=16
note_on channel=0 note=63 velocity=0 time=67
note_on channel=0 note=61 velocity=40 time=23
note_on channel=0 note=59 velocity=41 time=8
note_on channel=0 note=64 velocity=60 time=5
note_on channel=0 note=61 velocity=0 time=71
note_on channel=0 note=59 velocity=0 time=1
note_on channel=0 note=64 velocity=0 time=72
note_on channel=0 note=61 velocity=57 time=5
note_on channel=0 note=59 velocity=51 time=5
note_on channel=0 note=55 velocity=44 time=19
note_on channel=0 note=55 velocity=0 time=103
note_on channel=0 note=61 velocity=0 time=2
note_on channel=0 note=63 velocity=64 time=6
note_on channel=0 note=59 velocity=0 time=16
note_on channel=0 note=63 velocity=0 time=115
note_on channel=0 note=61 velocity=55 time=23
note_on channel=0 note=59 velocity=50 time=15
note_on channel=0 note=55 velocity=40 time=2
note_on channel=0 note=61 velocity=0 time=113
note_on channel=0 note=59 velocity=0 time=5
note_on channel=0 note=55 velocity=0 time=16
note_on channel=0 note=64 velocity=65 time=1
note_on channel=0 note=55 velocity=46 time=98
note_on channel=0 note=61 velocity=45 time=18
note_on channel=0 note=59 velocity=44 time=5
note_on channel=0 note=64 velocity=0 time=6
note_on channel=0 note=55 velocity=0 time=98
note_on channel=0 note=59 velocity=0 time=3
note_on channel=0 note=63 velocity=66 time=6
note_on channel=0 note=61 velocity=0 time=3
note_on channel=0 note=61 velocity=41 time=137
note_on channel=0 note=55 velocity=37 time=1
note_on channel=0 note=63 velocity=0 time=1
note_on channel=0 note=59 velocity=49 time=13
note_on channel=0 note=64 velocity=60 time=115
note_on channel=0 note=61 velocity=0 time=7
note_on channel=0 note=55 velocity=0 time=14
note_on channel=0 note=59 velocity=0 time=0
note_on channel=0 note=61 velocity=48 time=109
note_on channel=0 note=64 velocity=0 time=0
note_on channel=0 note=59 velocity=48 time=8
note_on channel=0 note=55 velocity=36 time=17
note_on channel=0 note=55 velocity=0 time=70
note_on channel=0 note=63 velocity=59 time=30
note_on channel=0 note=61 velocity=0 time=5
note_on channel=0 note=59 velocity=0 time=19
note_on channel=0 note=63 velocity=0 time=108
note_on channel=0 note=61 velocity=43 time=30
note_on channel=0 note=55 velocity=34 time=7
note_on channel=0 note=59 velocity=36 time=26
note_on channel=0 note=61 velocity=0 time=74
note_on channel=0 note=55 velocity=0 time=10
note_on channel=0 note=59 velocity=0 time=1
note_on channel=0 note=64 velocity=52 time=29
note_on channel=0 note=55 velocity=32 time=131
note_on channel=0 note=64 velocity=0 time=2
note_on channel=0 note=61 velocity=43 time=10
note_on channel=0 note=59 velocity=44 time=4
note_on channel=0 note=61 velocity=0 time=78
note_on channel=0 note=59 velocity=0 time=14
note_on channel=0 note=55 velocity=0 time=3
note_on channel=0 note=63 velocity=55 time=31
note_on channel=0 note=63 velocity=0 time=136
note_on channel=0 note=61 velocity=39 time=5
note_on channel=0 note=55 velocity=31 time=10
note_on channel=0 note=59 velocity=40 time=9
note_on channel=0 note=61 velocity=0 time=100
note_on channel=0 note=55 velocity=0 time=7
note_on channel=0 note=64 velocity=52 time=0
note_on channel=0 note=59 velocity=0 time=13
note_on channel=0 note=64 velocity=0 time=116
note_on channel=0 note=61 velocity=43 time=19
note_on channel=0 note=59 velocity=42 time=4
note_on channel=0 note=55 velocity=31 time=14
note_on channel=0 note=61 velocity=0 time=78
note_on channel=0 note=66 velocity=57 time=15
note_on channel=0 note=55 velocity=0 time=1
note_on channel=0 note=59 velocity=0 time=21
note_on channel=0 note=66 velocity=0 time=45
note_on channel=0 note=55 velocity=36 time=89
note_on channel=0 note=61 velocity=44 time=3
note_on channel=0 note=59 velocity=43 time=23
note_on channel=0 note=64 velocity=51 time=27
note_on channel=0 note=61 velocity=0 time=60
note_on channel=0 note=59 velocity=0 time=4
note_on channel=0 note=55 velocity=0 time=7
note_on channel=0 note=64 velocity=0 time=71
note_on channel=0 note=63 velocity=57 time=64
note_on channel=0 note=55 velocity=29 time=71
note_on channel=0 note=61 velocity=32 time=42
note_on channel=0 note=63 velocity=0 time=8
note_on channel=0 note=59 velocity=37 time=11
note_on channel=0 note=64 velocity=63 time=119
note_on channel=0 note=55 velocity=0 time=5
note_on channel=0 note=61 velocity=0 time=2
note_on channel=0 note=59 velocity=0 time=10
note_on channel=0 note=64 velocity=0 time=98
note_on channel=0 note=61 velocity=39 time=22
note_on channel=0 note=55 velocity=34 time=6
note_on channel=0 note=59 velocity=43 time=10
note_on channel=0 note=61 velocity=0 time=116
note_on channel=0 note=63 velocity=59 time=14
note_on channel=0 note=55 velocity=0 time=14
note_on channel=0 note=59 velocity=0 time=7
note_on channel=0 note=63 velocity=0 time=100
note_on channel=0 note=55 velocity=36 time=34
note_on channel=0 note=61 velocity=41 time=12
note_on channel=0 note=59 velocity=41 time=24
note_on channel=0 note=64 velocity=58 time=93
note_on channel=0 note=61 velocity=0 time=4
note_on channel=0 note=59 velocity=0 time=4
note_on channel=0 note=55 velocity=0 time=20
note_on channel=0 note=64 velocity=0 time=83
note_on channel=0 note=61 velocity=43 time=54
note_on channel=0 note=55 velocity=31 time=1
note_on channel=0 note=59 velocity=46 time=9
note_on channel=0 note=63 velocity=56 time=103
note_on channel=0 note=55 velocity=0 time=13
note_on channel=0 note=61 velocity=0 time=9
note_on channel=0 note=59 velocity=0 time=23
note_on channel=0 note=63 velocity=0 time=77
note_on channel=0 note=55 velocity=39 time=39
note_on channel=0 note=61 velocity=34 time=10
note_on channel=0 note=64 velocity=56 time=43
note_on channel=0 note=64 velocity=0 time=129
note_on channel=0 note=61 velocity=0 time=1
note_on channel=0 note=55 velocity=0 time=14
note_on channel=0 note=66 velocity=53 time=67
note_on channel=0 note=66 velocity=0 time=134
note_on channel=0 note=55 velocity=34 time=11
note_on channel=0 note=59 velocity=48 time=14
note_on channel=0 note=61 velocity=43 time=1
note_on channel=0 note=61 velocity=0 time=103
note_on channel=0 note=64 velocity=57 time=1
note_on channel=0 note=55 velocity=0 time=13
note_on channel=0 note=59 velocity=0 time=31
note_on channel=0 note=64 velocity=0 time=89
note_on channel=0 note=63 velocity=59 time=37
note_on channel=0 note=63 velocity=0 time=141
note_on channel=0 note=55 velocity=33 time=18
note_on channel=0 note=61 velocity=50 time=1
note_on channel=0 note=59 velocity=48 time=8
note_on channel=0 note=64 velocity=61 time=115
note_on channel=0 note=61 velocity=0 time=31
note_on channel=0 note=55 velocity=0 time=3
note_on channel=0 note=59 velocity=0 time=25
note_on channel=0 note=64 velocity=0 time=76
note_on channel=0 note=59 velocity=42 time=46
note_on channel=0 note=61 velocity=46 time=9
note_on channel=0 note=55 velocity=30 time=25
note_on channel=0 note=61 velocity=0 time=77
note_on channel=0 note=55 velocity=0 time=5
note_on channel=0 note=59 velocity=0 time=37
note_on channel=0 note=63 velocity=33 time=20
note_on channel=0 note=64 velocity=43 time=17
note_on channel=0 note=63 velocity=0 time=63
note_on channel=0 note=64 velocity=0 time=5
note_on channel=0 note=64 velocity=47 time=117
note_on channel=0 note=64 velocity=0 time=128
note_on channel=0 note=61 velocity=45 time=19
note_on channel=0 note=59 velocity=47 time=8
note_on channel=0 note=55 velocity=34 time=3
note_on channel=0 note=55 velocity=0 time=111
note_on channel=0 note=61 velocity=0 time=1
note_on channel=0 note=63 velocity=53 time=25
note_on channel=0 note=59 velocity=0 time=16
note_on channel=0 note=63 velocity=0 time=120
note_on channel=0 note=61 velocity=43 time=58
note_on channel=0 note=59 velocity=50 time=1
note_on channel=0 note=55 velocity=40 time=10
note_on channel=0 note=61 velocity=0 time=126
note_on channel=0 note=55 velocity=0 time=31
note_on channel=0 note=64 velocity=61 time=4
note_on channel=0 note=59 velocity=0 time=4
note_on channel=0 note=64 velocity=0 time=125
note_on channel=0 note=61 velocity=43 time=44
note_on channel=0 note=55 velocity=32 time=10
note_on channel=0 note=59 velocity=43 time=10
note_on channel=0 note=63 velocity=57 time=90
note_on channel=0 note=59 velocity=0 time=17
note_on channel=0 note=55 velocity=0 time=5
note_on channel=0 note=61 velocity=0 time=3
note_on channel=0 note=63 velocity=0 time=90
note_on channel=0 note=61 velocity=40 time=102
note_on channel=0 note=55 velocity=39 time=4
note_on channel=0 note=64 velocity=32 time=1
note_on channel=0 note=59 velocity=43 time=18
note_on channel=0 note=64 velocity=0 time=22
note_on channel=0 note=61 velocity=0 time=133
note_on channel=0 note=64 velocity=56 time=3
note_on channel=0 note=55 velocity=0 time=23
note_on channel=0 note=59 velocity=0 time=6
note_on channel=0 note=64 velocity=0 time=101
note_on channel=0 note=66 velocity=57 time=31
note_on channel=0 note=66 velocity=0 time=156
note_on channel=0 note=64 velocity=63 time=39
note_on channel=0 note=64 velocity=0 time=126
note_on channel=0 note=55 velocity=32 time=3
note_on channel=0 note=61 velocity=46 time=32
note_on channel=0 note=59 velocity=43 time=11
note_on channel=0 note=61 velocity=0 time=125
note_on channel=0 note=63 velocity=57 time=19
note_on channel=0 note=55 velocity=0 time=21
note_on channel=0 note=59 velocity=0 time=7
note_on channel=0 note=63 velocity=0 time=97
note_on channel=0 note=64 velocity=58 time=60
note_on channel=0 note=64 velocity=0 time=119
note_on channel=0 note=61 velocity=48 time=32
note_on channel=0 note=55 velocity=43 time=1
note_on channel=0 note=59 velocity=45 time=17
note_on channel=0 note=61 velocity=0 time=91
note_on channel=0 note=55 velocity=0 time=23
note_on channel=0 note=59 velocity=0 time=6
note_on channel=0 note=63 velocity=52 time=45
note_on channel=0 note=63 velocity=0 time=120
note_on channel=0 note=61 velocity=43 time=44
note_on channel=0 note=59 velocity=45 time=13
note_on channel=0 note=55 velocity=34 time=8
note_on channel=0 note=61 velocity=0 time=81
note_on channel=0 note=55 velocity=0 time=6
note_on channel=0 note=59 velocity=0 time=0
note_on channel=0 note=64 velocity=40 time=20
note_on channel=0 note=64 velocity=0 time=108
note_on channel=0 note=55 velocity=34 time=47
note_on channel=0 note=61 velocity=41 time=2
note_on channel=0 note=59 velocity=40 time=15
note_on channel=0 note=61 velocity=0 time=90
note_on channel=0 note=55 velocity=0 time=3
note_on channel=0 note=63 velocity=48 time=3
note_on channel=0 note=59 velocity=0 time=5
note_on channel=0 note=63 velocity=0 time=104
note_on channel=0 note=61 velocity=42 time=55
note_on channel=0 note=55 velocity=31 time=12
note_on channel=0 note=59 velocity=48 time=4
note_on channel=0 note=62 velocity=33 time=24
note_on channel=0 note=61 velocity=0 time=79
note_on channel=0 note=55 velocity=0 time=12
note_on channel=0 note=59 velocity=0 time=14
note_on channel=0 note=62 velocity=0 time=32
note_on channel=0 note=63 velocity=57 time=3
note_on channel=0 note=55 velocity=36 time=103
note_on channel=0 note=61 velocity=40 time=5
note_on channel=0 note=59 velocity=43 time=18
note_on channel=0 note=63 velocity=0 time=13
note_on channel=0 note=64 velocity=58 time=70
note_on channel=0 note=61 velocity=0 time=6
note_on channel=0 note=55 velocity=0 time=7
note_on channel=0 note=59 velocity=0 time=11
note_on channel=0 note=64 velocity=0 time=86
note_on channel=0 note=61 velocity=46 time=40
note_on channel=0 note=55 velocity=38 time=2
note_on channel=0 note=59 velocity=48 time=16
note_on channel=0 note=63 velocity=59 time=88
note_on channel=0 note=61 velocity=0 time=3
note_on channel=0 note=55 velocity=0 time=5
note_on channel=0 note=59 velocity=0 time=12
note_on channel=0 note=62 velocity=53 time=141
note_on channel=0 note=63 velocity=0 time=4
note_on channel=0 note=61 velocity=46 time=20
note_on channel=0 note=59 velocity=47 time=2
note_on channel=0 note=55 velocity=35 time=1
note_on channel=0 note=62 velocity=0 time=104
note_on channel=0 note=61 velocity=0 time=2
note_on channel=0 note=59 velocity=0 time=22
note_on channel=0 note=55 velocity=0 time=31
note_on channel=0 note=66 velocity=60 time=5
note_on channel=0 note=61 velocity=43 time=135
note_on channel=0 note=55 velocity=47 time=2
note_on channel=0 note=66 velocity=0 time=1
note_on channel=0 note=59 velocity=48 time=17
note_on channel=0 note=61 velocity=0 time=46
note_on channel=0 note=63 velocity=56 time=73
note_on channel=0 note=55 velocity=0 time=1
note_on channel=0 note=59 velocity=0 time=16
note_on channel=0 note=63 velocity=0 time=103
note_on channel=0 note=55 velocity=44 time=22
note_on channel=0 note=59 velocity=42 time=9
note_on channel=0 note=62 velocity=44 time=14
note_on channel=0 note=59 velocity=0 time=72
note_on channel=0 note=55 velocity=0 time=54
note_on channel=0 note=55 velocity=55 time=90
note_on channel=0 note=59 velocity=55 time=3
note_on channel=0 note=62 velocity=0 time=12
note_on channel=0 note=59 velocity=0 time=82
note_on channel=0 note=63 velocity=57 time=78
note_on channel=0 note=55 velocity=0 time=28
note_on channel=0 note=60 velocity=57 time=168
note_on channel=0 note=63 velocity=0 time=92
note_on channel=0 note=55 velocity=51 time=21
note_on channel=0 note=60 velocity=0 time=30
note_on channel=0 note=66 velocity=48 time=104
note_on channel=0 note=55 velocity=0 time=20
note_on channel=0 note=60 velocity=33 time=4
note_on channel=0 note=55 velocity=44 time=93
note_on channel=0 note=60 velocity=0 time=7
note_on channel=0 note=63 velocity=61 time=132
note_on channel=0 note=55 velocity=0 time=70
note_on channel=0 note=66 velocity=0 time=35
note_on channel=0 note=59 velocity=55 time=41
note_on channel=0 note=55 velocity=41 time=22
note_on channel=0 note=63 velocity=0 time=9
note_on channel=0 note=58 velocity=56 time=117
note_on channel=0 note=55 velocity=0 time=93
note_on channel=0 note=58 velocity=0 time=42
note_on channel=0 note=60 velocity=56 time=26
note_on channel=0 note=55 velocity=38 time=1
note_on channel=0 note=58 velocity=64 time=124
note_on channel=0 note=60 velocity=0 time=12
note_on channel=0 note=59 velocity=0 time=4
note_on channel=0 note=66 velocity=55 time=1
note_on channel=0 note=55 velocity=0 time=23
note_on channel=0 note=58 velocity=0 time=87
note_on channel=0 note=59 velocity=45 time=0
note_on channel=0 note=55 velocity=28 time=55
note_on channel=0 note=66 velocity=0 time=3
note_on channel=0 note=63 velocity=48 time=64
note_on channel=0 note=55 velocity=0 time=44
note_on channel=0 note=59 velocity=0 time=57
note_on channel=0 note=56 velocity=57 time=28
note_on channel=0 note=59 velocity=31 time=128
note_on channel=0 note=53 velocity=57 time=30
note_on channel=0 note=56 velocity=0 time=10
note_on channel=0 note=63 velocity=0 time=101
note_on channel=0 note=66 velocity=58 time=38
note_on channel=0 note=56 velocity=51 time=19
note_on channel=0 note=53 velocity=0 time=26
note_on channel=0 note=56 velocity=0 time=64
note_on channel=0 note=59 velocity=0 time=20
note_on channel=0 note=59 velocity=57 time=63
note_on channel=0 note=53 velocity=57 time=16
note_on channel=0 note=66 velocity=0 time=13
note_on channel=0 note=63 velocity=42 time=22
note_on channel=0 note=54 velocity=66 time=95
note_on channel=0 note=53 velocity=0 time=21
note_on channel=0 note=54 velocity=0 time=115
note_on channel=0 note=53 velocity=53 time=41
note_on channel=0 note=66 velocity=61 time=62
note_on channel=0 note=63 velocity=0 time=25
note_on channel=0 note=59 velocity=0 time=77
note_on channel=0 note=53 velocity=0 time=26
note_on channel=0 note=51 velocity=59 time=43
note_on channel=0 note=66 velocity=0 time=23
note_on channel=0 note=59 velocity=47 time=2
note_on channel=0 note=53 velocity=36 time=34
note_on channel=0 note=59 velocity=0 time=37
note_on channel=0 note=59 velocity=55 time=85
note_on channel=0 note=62 velocity=61 time=1
note_on channel=0 note=51 velocity=0 time=14
note_on channel=0 note=49 velocity=79 time=164
note_on channel=0 note=53 velocity=0 time=3
note_on channel=0 note=62 velocity=0 time=31
note_on channel=0 note=59 velocity=0 time=37
note_on channel=0 note=49 velocity=0 time=72
note_on channel=0 note=62 velocity=57 time=5
note_on channel=0 note=59 velocity=57 time=1
note_on channel=0 note=53 velocity=56 time=10
note_on channel=0 note=63 velocity=61 time=118
note_on channel=0 note=62 velocity=0 time=90
note_on channel=0 note=53 velocity=0 time=12
note_on channel=0 note=59 velocity=0 time=18
note_on channel=0 note=49 velocity=49 time=9
note_on channel=0 note=63 velocity=0 time=88
note_on channel=0 note=62 velocity=48 time=62
note_on channel=0 note=53 velocity=47 time=4
note_on channel=0 note=59 velocity=49 time=13
note_on channel=0 note=49 velocity=0 time=7
note_on channel=0 note=67 velocity=43 time=13
control_change channel=0 control=64 value=0 time=37
note_on channel=0 note=48 velocity=61 time=57
control_change channel=0 control=64 value=127 time=25
note_on channel=0 note=67 velocity=0 time=65
note_on channel=0 note=62 velocity=0 time=24
note_on channel=0 note=53 velocity=0 time=11
note_on channel=0 note=59 velocity=0 time=8
note_on channel=0 note=59 velocity=47 time=91
note_on channel=0 note=58 velocity=61 time=5
note_on channel=0 note=48 velocity=0 time=34
note_on channel=0 note=53 velocity=43 time=10
note_on channel=0 note=59 velocity=0 time=28
note_on channel=0 note=53 velocity=0 time=79
note_on channel=0 note=59 velocity=43 time=78
note_on channel=0 note=53 velocity=55 time=26
note_on channel=0 note=62 velocity=49 time=36
note_on channel=0 note=67 velocity=33 time=22
note_on channel=0 note=53 velocity=0 time=152
note_on channel=0 note=59 velocity=0 time=0
note_on channel=0 note=46 velocity=75 time=5
note_on channel=0 note=67 velocity=0 time=4
note_on channel=0 note=62 velocity=0 time=3
note_on channel=0 note=56 velocity=40 time=34
note_on channel=0 note=56 velocity=0 time=66
note_on channel=0 note=46 velocity=0 time=16
note_on channel=0 note=53 velocity=53 time=33
note_on channel=0 note=62 velocity=51 time=26
note_on channel=0 note=59 velocity=31 time=38
note_on channel=0 note=56 velocity=51 time=63
note_on channel=0 note=59 velocity=0 time=1
note_on channel=0 note=58 velocity=0 time=28
note_on channel=0 note=62 velocity=0 time=37
note_on channel=0 note=53 velocity=0 time=1
note_on channel=0 note=59 velocity=56 time=90
note_on channel=0 note=53 velocity=40 time=12
note_on channel=0 note=56 velocity=0 time=58
note_on channel=0 note=47 velocity=65 time=86
note_on channel=0 note=58 velocity=57 time=14
note_on channel=0 note=59 velocity=0 time=3
note_on channel=0 note=53 velocity=0 time=33
note_on channel=0 note=47 velocity=0 time=84
note_on channel=0 note=59 velocity=52 time=48
note_on channel=0 note=62 velocity=57 time=109
note_on channel=0 note=59 velocity=0 time=69
note_on channel=0 note=56 velocity=57 time=24
note_on channel=0 note=49 velocity=64 time=19
note_on channel=0 note=58 velocity=0 time=0
note_on channel=0 note=62 velocity=0 time=39
note_on channel=0 note=53 velocity=57 time=127
note_on channel=0 note=49 velocity=0 time=25
note_on channel=0 note=56 velocity=0 time=1
note_on channel=0 note=58 velocity=50 time=5
note_on channel=0 note=62 velocity=39 time=19
note_on channel=0 note=62 velocity=0 time=80
note_on channel=0 note=59 velocity=48 time=51
note_on channel=0 note=56 velocity=46 time=33
note_on channel=0 note=58 velocity=0 time=6
note_on channel=0 note=53 velocity=0 time=5
note_on channel=0 note=62 velocity=47 time=69
note_on channel=0 note=59 velocity=0 time=61
note_on channel=0 note=54 velocity=22 time=46
note_on channel=0 note=53 velocity=52 time=48
note_on channel=0 note=59 velocity=47 time=65
note_on channel=0 note=62 velocity=0 time=9
control_change channel=0 control=64 value=0 time=17
note_on channel=0 note=56 velocity=0 time=27
note_on channel=0 note=44 velocity=57 time=28
control_change channel=0 control=64 value=127 time=1
note_on channel=0 note=54 velocity=0 time=30
note_on channel=0 note=51 velocity=37 time=4
note_on channel=0 note=62 velocity=49 time=63
note_on channel=0 note=53 velocity=0 time=23
note_on channel=0 note=59 velocity=0 time=28
note_on channel=0 note=53 velocity=60 time=56
note_on channel=0 note=54 velocity=45 time=5
note_on channel=0 note=44 velocity=0 time=22
note_on channel=0 note=51 velocity=0 time=11
note_on channel=0 note=62 velocity=0 time=22
note_on channel=0 note=59 velocity=44 time=19
note_on channel=0 note=62 velocity=48 time=111
note_on channel=0 note=53 velocity=0 time=5
note_on channel=0 note=59 velocity=0 time=78
note_on channel=0 note=58 velocity=53 time=36
note_on channel=0 note=49 velocity=66 time=15
note_on channel=0 note=54 velocity=0 time=4
note_on channel=0 note=62 velocity=0 time=55
note_on channel=0 note=53 velocity=42 time=6
note_on channel=0 note=59 velocity=50 time=116
note_on channel=0 note=49 velocity=0 time=3
note_on channel=0 note=62 velocity=52 time=58
note_on channel=0 note=53 velocity=0 time=8
note_on channel=0 note=58 velocity=0 time=100
note_on channel=0 note=62 velocity=0 time=54
note_on channel=0 note=51 velocity=62 time=30
note_on channel=0 note=50 velocity=57 time=19
note_on channel=0 note=59 velocity=0 time=116
note_on channel=0 note=62 velocity=53 time=1
note_on channel=0 note=50 velocity=0 time=77
note_on channel=0 note=53 velocity=56 time=3
note_on channel=0 note=62 velocity=0 time=54
note_on channel=0 note=59 velocity=46 time=61
note_on channel=0 note=51 velocity=0 time=10
note_on channel=0 note=53 velocity=0 time=70
note_on channel=0 note=62 velocity=52 time=5
note_on channel=0 note=58 velocity=43 time=86
note_on channel=0 note=51 velocity=72 time=1
note_on channel=0 note=59 velocity=0 time=13
note_on channel=0 note=62 velocity=0 time=41
note_on channel=0 note=53 velocity=49 time=5
note_on channel=0 note=51 velocity=0 time=94
note_on channel=0 note=59 velocity=58 time=29
note_on channel=0 note=53 velocity=0 time=40
note_on channel=0 note=58 velocity=0 time=4
note_on channel=0 note=62 velocity=36 time=28
note_on channel=0 note=59 velocity=0 time=100
note_on channel=0 note=53 velocity=52 time=42
note_on channel=0 note=62 velocity=0 time=37
note_on channel=0 note=55 velocity=33 time=17
note_on channel=0 note=55 velocity=0 time=55
note_on channel=0 note=61 velocity=61 time=5
note_on channel=0 note=52 velocity=60 time=6
note_on channel=0 note=59 velocity=32 time=3
note_on channel=0 note=53 velocity=0 time=14
note_on channel=0 note=59 velocity=0 time=64
note_on channel=0 note=62 velocity=41 time=27
note_on channel=0 note=52 velocity=0 time=64
note_on channel=0 note=62 velocity=0 time=8
note_on channel=0 note=53 velocity=56 time=5
note_on channel=0 note=59 velocity=50 time=120
note_on channel=0 note=53 velocity=0 time=19
note_on channel=0 note=61 velocity=0 time=4
note_on channel=0 note=62 velocity=35 time=30
note_on channel=0 note=53 velocity=53 time=85
note_on channel=0 note=62 velocity=0 time=45
note_on channel=0 note=59 velocity=0 time=28
note_on channel=0 note=63 velocity=62 time=93
note_on channel=0 note=55 velocity=44 time=9
note_on channel=0 note=55 velocity=0 time=67
note_on channel=0 note=53 velocity=0 time=131
note_on channel=0 note=61 velocity=48 time=61
note_on channel=0 note=63 velocity=0 time=18
note_on channel=0 note=51 velocity=59 time=11
note_on channel=0 note=61 velocity=0 time=50
note_on channel=0 note=61 velocity=34 time=103
note_on channel=0 note=51 velocity=0 time=30
note_on channel=0 note=53 velocity=39 time=30
note_on channel=0 note=58 velocity=46 time=20
note_on channel=0 note=53 velocity=0 time=54
note_on channel=0 note=61 velocity=0 time=17
note_on channel=0 note=51 velocity=31 time=4
note_on channel=0 note=58 velocity=0 time=163
note_on channel=0 note=53 velocity=33 time=29
note_on channel=0 note=52 velocity=34 time=10
note_on channel=0 note=54 velocity=66 time=52
note_on channel=0 note=63 velocity=57 time=6
note_on channel=0 note=52 velocity=0 time=3
note_on channel=0 note=53 velocity=0 time=3
note_on channel=0 note=51 velocity=0 time=8
note_on channel=0 note=54 velocity=0 time=129
note_on channel=0 note=53 velocity=48 time=11
note_on channel=0 note=51 velocity=56 time=8
note_on channel=0 note=63 velocity=0 time=104
note_on channel=0 note=53 velocity=0 time=6
note_on channel=0 note=55 velocity=58 time=54
note_on channel=0 note=58 velocity=61 time=15
note_on channel=0 note=51 velocity=0 time=73
note_on channel=0 note=55 velocity=0 time=31
note_on channel=0 note=54 velocity=57 time=27
note_on channel=0 note=51 velocity=48 time=41
note_on channel=0 note=58 velocity=0 time=57
note_on channel=0 note=54 velocity=0 time=48
note_on channel=0 note=66 velocity=61 time=25
note_on channel=0 note=51 velocity=0 time=5
note_on channel=0 note=56 velocity=69 time=2
note_on channel=0 note=51 velocity=51 time=103
note_on channel=0 note=56 velocity=0 time=61
note_on channel=0 note=57 velocity=60 time=129
note_on channel=0 note=55 velocity=55 time=140
note_on channel=0 note=57 velocity=0 time=34
note_on channel=0 note=66 velocity=0 time=47
note_on channel=0 note=55 velocity=0 time=69
note_on channel=0 note=57 velocity=49 time=4
note_on channel=0 note=63 velocity=56 time=27
note_on channel=0 note=54 velocity=45 time=105
note_on channel=0 note=51 velocity=0 time=8
note_on channel=0 note=57 velocity=0 time=7
note_on channel=0 note=55 velocity=57 time=9
note_on channel=0 note=54 velocity=0 time=46
note_on channel=0 note=55 velocity=0 time=9
note_on channel=0 note=63 velocity=0 time=36
note_on channel=0 note=58 velocity=59 time=28
note_on channel=0 note=66 velocity=43 time=74
note_on channel=0 note=51 velocity=56 time=54
note_on channel=0 note=58 velocity=0 time=94
note_on channel=0 note=66 velocity=0 time=10
note_on channel=0 note=56 velocity=69 time=13
note_on channel=0 note=66 velocity=47 time=71
note_on channel=0 note=54 velocity=62 time=61
note_on channel=0 note=56 velocity=0 time=1
note_on channel=0 note=66 velocity=0 time=106
note_on channel=0 note=58 velocity=72 time=24
note_on channel=0 note=66 velocity=42 time=32
note_on channel=0 note=58 velocity=0 time=117
note_on channel=0 note=54 velocity=0 time=9
note_on channel=0 note=51 velocity=0 time=1
note_on channel=0 note=56 velocity=62 time=6
note_on channel=0 note=66 velocity=0 time=19
note_on channel=0 note=59 velocity=61 time=119
note_on channel=0 note=56 velocity=0 time=5
note_on channel=0 note=51 velocity=44 time=32
note_on channel=0 note=57 velocity=48 time=140
note_on channel=0 note=59 velocity=0 time=35
note_on channel=0 note=59 velocity=58 time=83
note_on channel=0 note=61 velocity=66 time=18
note_on channel=0 note=57 velocity=0 time=24
note_on channel=0 note=54 velocity=64 time=105
note_on channel=0 note=59 velocity=0 time=4
note_on channel=0 note=51 velocity=0 time=129
note_on channel=0 note=61 velocity=0 time=1
note_on channel=0 note=68 velocity=60 time=28
note_on channel=0 note=58 velocity=59 time=43
note_on channel=0 note=54 velocity=0 time=63
note_on channel=0 note=59 velocity=57 time=37
note_on channel=0 note=51 velocity=55 time=41
note_on channel=0 note=58 velocity=0 time=10
note_on channel=0 note=59 velocity=0 time=94
note_on channel=0 note=54 velocity=61 time=61
note_on channel=0 note=61 velocity=49 time=29
note_on channel=0 note=68 velocity=0 time=53
note_on channel=0 note=61 velocity=0 time=9
note_on channel=0 note=60 velocity=69 time=62
note_on channel=0 note=51 velocity=0 time=2
note_on channel=0 note=54 velocity=0 time=100
note_on channel=0 note=51 velocity=36 time=36
note_on channel=0 note=58 velocity=66 time=17
note_on channel=0 note=60 velocity=0 time=59
note_on channel=0 note=51 velocity=0 time=2
note_on channel=0 note=61 velocity=61 time=67
note_on channel=0 note=60 velocity=63 time=4
note_on channel=0 note=58 velocity=0 time=12
note_on channel=0 note=66 velocity=61 time=141
note_on channel=0 note=51 velocity=59 time=84
note_on channel=0 note=61 velocity=0 time=0
note_on channel=0 note=60 velocity=0 time=28
note_on channel=0 note=68 velocity=25 time=35
note_on channel=0 note=59 velocity=57 time=66
note_on channel=0 note=68 velocity=0 time=31
note_on channel=0 note=66 velocity=0 time=9
note_on channel=0 note=62 velocity=61 time=118
note_on channel=0 note=59 velocity=0 time=10
note_on channel=0 note=54 velocity=64 time=7
note_on channel=0 note=54 velocity=0 time=144
note_on channel=0 note=63 velocity=75 time=12
note_on channel=0 note=62 velocity=0 time=64
note_on channel=0 note=61 velocity=69 time=85
note_on channel=0 note=51 velocity=0 time=80
note_on channel=0 note=63 velocity=0 time=5
note_on channel=0 note=61 velocity=0 time=30
note_on channel=0 note=68 velocity=66 time=36
control_change channel=0 control=64 value=0 time=68
note_on channel=0 note=51 velocity=57 time=31
control_change channel=0 control=64 value=127 time=80
note_on channel=0 note=61 velocity=52 time=42
note_on channel=0 note=54 velocity=57 time=135
note_on channel=0 note=62 velocity=56 time=63
note_on channel=0 note=61 velocity=0 time=2
note_on channel=0 note=68 velocity=0 time=29
note_on channel=0 note=62 velocity=0 time=68
note_on channel=0 note=64 velocity=61 time=11
note_on channel=0 note=51 velocity=0 time=63
note_on channel=0 note=64 velocity=0 time=83
note_on channel=0 note=61 velocity=64 time=12
note_on channel=0 note=54 velocity=0 time=51
note_on channel=0 note=51 velocity=31 time=19
note_on channel=0 note=63 velocity=66 time=19
note_on channel=0 note=61 velocity=0 time=25
note_on channel=0 note=51 velocity=0 time=9
note_on channel=0 note=68 velocity=66 time=105
note_on channel=0 note=54 velocity=48 time=49
note_on channel=0 note=62 velocity=63 time=8
note_on channel=0 note=51 velocity=50 time=11
note_on channel=0 note=63 velocity=0 time=1
note_on channel=0 note=68 velocity=0 time=72
note_on channel=0 note=62 velocity=0 time=28
note_on channel=0 note=65 velocity=75 time=61
note_on channel=0 note=54 velocity=0 time=31
note_on channel=0 note=51 velocity=0 time=36
note_on channel=0 note=63 velocity=75 time=67
note_on channel=0 note=54 velocity=35 time=13
note_on channel=0 note=51 velocity=47 time=4
note_on channel=0 note=65 velocity=0 time=39
note_on channel=0 note=54 velocity=0 time=30
note_on channel=0 note=51 velocity=0 time=1
note_on channel=0 note=63 velocity=0 time=72
note_on channel=0 note=65 velocity=57 time=21
note_on channel=0 note=66 velocity=66 time=175
note_on channel=0 note=65 velocity=0 time=22
note_on channel=0 note=70 velocity=47 time=99
note_on channel=0 note=64 velocity=66 time=60
note_on channel=0 note=58 velocity=62 time=5
note_on channel=0 note=54 velocity=64 time=6
note_on channel=0 note=66 velocity=0 time=11
note_on channel=0 note=67 velocity=75 time=123
note_on channel=0 note=70 velocity=0 time=18
note_on channel=0 note=64 velocity=0 time=13
note_on channel=0 note=54 velocity=0 time=58
note_on channel=0 note=58 velocity=0 time=29
note_on channel=0 note=66 velocity=64 time=18
note_on channel=0 note=67 velocity=0 time=21
note_on channel=0 note=65 velocity=65 time=99
note_on channel=0 note=58 velocity=66 time=12
note_on channel=0 note=54 velocity=55 time=12
note_on channel=0 note=66 velocity=0 time=5
note_on channel=0 note=65 velocity=0 time=94
note_on channel=0 note=66 velocity=53 time=2
note_on channel=0 note=58 velocity=0 time=79
note_on channel=0 note=54 velocity=0 time=11
note_on channel=0 note=70 velocity=52 time=6
note_on channel=0 note=67 velocity=63 time=109
note_on channel=0 note=66 velocity=0 time=4
note_on channel=0 note=70 velocity=0 time=67
note_on channel=0 note=54 velocity=55 time=34
note_on channel=0 note=58 velocity=42 time=6
note_on channel=0 note=63 velocity=79 time=9
note_on channel=0 note=67 velocity=0 time=64
note_on channel=0 note=67 velocity=61 time=96
note_on channel=0 note=63 velocity=0 time=7
note_on channel=0 note=54 velocity=0 time=27
note_on channel=0 note=58 velocity=0 time=4
note_on channel=0 note=68 velocity=66 time=104
note_on channel=0 note=67 velocity=0 time=39
note_on channel=0 note=58 velocity=57 time=116
note_on channel=0 note=65 velocity=69 time=6
note_on channel=0 note=54 velocity=56 time=13
control_change channel=0 control=64 value=0 time=46
note_on channel=0 note=73 velocity=64 time=18
note_on channel=0 note=68 velocity=0 time=15
control_change channel=0 control=64 value=127 time=85
note_on channel=0 note=65 velocity=0 time=17
note_on channel=0 note=69 velocity=60 time=49
note_on channel=0 note=58 velocity=0 time=30
note_on channel=0 note=73 velocity=0 time=19
note_on channel=0 note=54 velocity=0 time=9
note_on channel=0 note=73 velocity=37 time=95
note_on channel=0 note=68 velocity=46 time=42
note_on channel=0 note=69 velocity=0 time=9
note_on channel=0 note=70 velocity=45 time=26
note_on channel=0 note=73 velocity=0 time=8
note_on channel=0 note=68 velocity=0 time=24
note_on channel=0 note=70 velocity=0 time=50
note_on channel=0 note=58 velocity=64 time=42
note_on channel=0 note=64 velocity=69 time=2
note_on channel=0 note=54 velocity=62 time=13
note_on channel=0 note=69 velocity=57 time=116
note_on channel=0 note=64 velocity=0 time=53
note_on channel=0 note=54 velocity=0 time=27
note_on channel=0 note=70 velocity=61 time=43
note_on channel=0 note=58 velocity=0 time=10
note_on channel=0 note=69 velocity=0 time=33
note_on channel=0 note=58 velocity=51 time=94
note_on channel=0 note=65 velocity=69 time=1
note_on channel=0 note=54 velocity=55 time=20
note_on channel=0 note=61 velocity=55 time=8
note_on channel=0 note=70 velocity=0 time=39
note_on channel=0 note=61 velocity=0 time=21
note_on channel=0 note=65 velocity=0 time=25
note_on channel=0 note=71 velocity=75 time=45
note_on channel=0 note=54 velocity=0 time=15
note_on channel=0 note=58 velocity=0 time=21
note_on channel=0 note=70 velocity=57 time=101
note_on channel=0 note=71 velocity=0 time=49
note_on channel=0 note=65 velocity=61 time=8
note_on channel=0 note=58 velocity=24 time=8
note_on channel=0 note=61 velocity=40 time=1
note_on channel=0 note=52 velocity=49 time=18
note_on channel=0 note=53 velocity=48 time=7
note_on channel=0 note=52 velocity=0 time=116
note_on channel=0 note=70 velocity=0 time=7
note_on channel=0 note=71 velocity=78 time=5
note_on channel=0 note=65 velocity=0 time=13
note_on channel=0 note=61 velocity=0 time=10
note_on channel=0 note=53 velocity=0 time=36
note_on channel=0 note=58 velocity=0 time=7
note_on channel=0 note=53 velocity=57 time=75
note_on channel=0 note=65 velocity=66 time=1
note_on channel=0 note=58 velocity=57 time=1
note_on channel=0 note=61 velocity=49 time=12
note_on channel=0 note=71 velocity=0 time=30
note_on channel=0 note=70 velocity=61 time=24
note_on channel=0 note=65 velocity=0 time=27
note_on channel=0 note=61 velocity=0 time=20
note_on channel=0 note=53 velocity=0 time=55
note_on channel=0 note=58 velocity=0 time=4
note_on channel=0 note=75 velocity=66 time=38
note_on channel=0 note=70 velocity=0 time=46
note_on channel=0 note=52 velocity=35 time=83
note_on channel=0 note=69 velocity=69 time=26
note_on channel=0 note=73 velocity=33 time=51
note_on channel=0 note=52 velocity=0 time=1
note_on channel=0 note=75 velocity=0 time=73
note_on channel=0 note=73 velocity=0 time=7
note_on channel=0 note=52 velocity=57 time=2
note_on channel=0 note=65 velocity=57 time=22
note_on channel=0 note=60 velocity=63 time=15
note_on channel=0 note=57 velocity=60 time=10
note_on channel=0 note=69 velocity=0 time=9
note_on channel=0 note=58 velocity=34 time=12
note_on channel=0 note=58 velocity=0 time=60
note_on channel=0 note=70 velocity=70 time=24
note_on channel=0 note=75 velocity=64 time=166
note_on channel=0 note=60 velocity=0 time=43
note_on channel=0 note=70 velocity=0 time=16
note_on channel=0 note=65 velocity=0 time=1
note_on channel=0 note=52 velocity=0 time=17
note_on channel=0 note=57 velocity=0 time=12
note_on channel=0 note=66 velocity=73 time=67
note_on channel=0 note=65 velocity=72 time=25
note_on channel=0 note=52 velocity=52 time=2
note_on channel=0 note=57 velocity=58 time=1
note_on channel=0 note=60 velocity=60 time=13
note_on channel=0 note=75 velocity=0 time=22
control_change channel=0 control=64 value=0 time=6
note_on channel=0 note=66 velocity=0 time=67
control_change channel=0 control=64 value=127 time=1
note_on channel=0 note=75 velocity=44 time=7
note_on channel=0 note=75 velocity=0 time=63
note_on channel=0 note=66 velocity=55 time=8
note_on channel=0 note=65 velocity=0 time=22
note_on channel=0 note=60 velocity=0 time=17
note_on channel=0 note=57 velocity=0 time=6
note_on channel=0 note=52 velocity=0 time=25
note_on channel=0 note=70 velocity=61 time=100
note_on channel=0 note=66 velocity=0 time=12
note_on channel=0 note=75 velocity=66 time=160
note_on channel=0 note=70 velocity=0 time=64
note_on channel=0 note=56 velocity=66 time=73
note_on channel=0 note=65 velocity=69 time=0
note_on channel=0 note=52 velocity=63 time=6
note_on channel=0 note=58 velocity=66 time=2
note_on channel=0 note=66 velocity=68 time=152
note_on channel=0 note=65 velocity=0 time=14
note_on channel=0 note=75 velocity=0 time=26
note_on channel=0 note=70 velocity=61 time=111
note_on channel=0 note=66 velocity=0 time=39
note_on channel=0 note=52 velocity=0 time=50
note_on channel=0 note=58 velocity=0 time=8
note_on channel=0 note=75 velocity=61 time=37
note_on channel=0 note=56 velocity=0 time=40
note_on channel=0 note=70 velocity=0 time=5
note_on channel=0 note=67 velocity=75 time=99
note_on channel=0 note=75 velocity=0 time=14
note_on channel=0 note=62 velocity=75 time=135
note_on channel=0 note=56 velocity=72 time=5
note_on channel=0 note=58 velocity=72 time=2
note_on channel=0 note=52 velocity=57 time=7
note_on channel=0 note=67 velocity=0 time=2
note_on channel=0 note=70 velocity=66 time=84
note_on channel=0 note=75 velocity=73 time=141
note_on channel=0 note=70 velocity=0 time=42
note_on channel=0 note=62 velocity=0 time=27
note_on channel=0 note=58 velocity=0 time=6
note_on channel=0 note=56 velocity=0 time=22
note_on channel=0 note=52 velocity=0 time=30
note_on channel=0 note=67 velocity=75 time=11
note_on channel=0 note=75 velocity=0 time=35
note_on channel=0 note=70 velocity=66 time=102
note_on channel=0 note=67 velocity=0 time=8
note_on channel=0 note=75 velocity=68 time=122
note_on channel=0 note=70 velocity=0 time=50
note_on channel=0 note=67 velocity=69 time=46
note_on channel=0 note=75 velocity=0 time=45
note_on channel=0 note=70 velocity=70 time=79
note_on channel=0 note=67 velocity=0 time=35
note_on channel=0 note=63 velocity=82 time=112
note_on channel=0 note=52 velocity=63 time=8
note_on channel=0 note=56 velocity=51 time=5
note_on channel=0 note=58 velocity=61 time=7
note_on channel=0 note=67 velocity=57 time=31
note_on channel=0 note=70 velocity=0 time=11
note_on channel=0 note=63 velocity=0 time=119
note_on channel=0 note=70 velocity=58 time=7
note_on channel=0 note=58 velocity=0 time=1
note_on channel=0 note=56 velocity=0 time=20
note_on channel=0 note=67 velocity=0 time=17
note_on channel=0 note=52 velocity=0 time=38
note_on channel=0 note=67 velocity=69 time=80
note_on channel=0 note=70 velocity=0 time=31
note_on channel=0 note=52 velocity=57 time=89
note_on channel=0 note=56 velocity=62 time=2
note_on channel=0 note=62 velocity=69 time=5
note_on channel=0 note=58 velocity=64 time=6
note_on channel=0 note=60 velocity=40 time=19
note_on channel=0 note=67 velocity=0 time=54
note_on channel=0 note=60 velocity=0 time=2
note_on channel=0 note=62 velocity=0 time=87
note_on channel=0 note=65 velocity=58 time=19
note_on channel=0 note=58 velocity=0 time=34
note_on channel=0 note=52 velocity=0 time=15
note_on channel=0 note=56 velocity=0 time=3
note_on channel=0 note=56 velocity=50 time=106
note_on channel=0 note=58 velocity=53 time=7
note_on channel=0 note=62 velocity=65 time=4
note_on channel=0 note=52 velocity=46 time=6
note_on channel=0 note=65 velocity=0 time=52
note_on channel=0 note=66 velocity=57 time=38
note_on channel=0 note=62 velocity=0 time=13
note_on channel=0 note=58 velocity=0 time=53
note_on channel=0 note=52 velocity=0 time=6
note_on channel=0 note=56 velocity=0 time=20
note_on channel=0 note=68 velocity=55 time=63
note_on channel=0 note=70 velocity=32 time=114
note_on channel=0 note=66 velocity=0 time=44
note_on channel=0 note=63 velocity=72 time=10
note_on channel=0 note=70 velocity=0 time=33
note_on channel=0 note=52 velocity=39 time=3
note_on channel=0 note=56 velocity=35 time=83
note_on channel=0 note=61 velocity=69 time=6
note_on channel=0 note=58 velocity=57 time=15
note_on channel=0 note=68 velocity=0 time=33
note_on channel=0 note=63 velocity=0 time=15
note_on channel=0 note=70 velocity=66 time=88
note_on channel=0 note=58 velocity=0 time=70
note_on channel=0 note=61 velocity=0 time=0
note_on channel=0 note=52 velocity=0 time=28
note_on channel=0 note=56 velocity=0 time=28
note_on channel=0 note=63 velocity=69 time=12
note_on channel=0 note=70 velocity=0 time=51
note_on channel=0 note=61 velocity=72 time=84
note_on channel=0 note=58 velocity=55 time=6
note_on channel=0 note=52 velocity=53 time=5
note_on channel=0 note=56 velocity=55 time=3
note_on channel=0 note=63 velocity=0 time=13
note_on channel=0 note=70 velocity=46 time=74
note_on channel=0 note=61 velocity=0 time=22
note_on channel=0 note=58 velocity=0 time=43
note_on channel=0 note=56 velocity=0 time=18
note_on channel=0 note=63 velocity=66 time=5
note_on channel=0 note=52 velocity=0 time=15
note_on channel=0 note=70 velocity=0 time=59
note_on channel=0 note=70 velocity=58 time=76
note_on channel=0 note=63 velocity=0 time=43
note_on channel=0 note=52 velocity=47 time=8
note_on channel=0 note=60 velocity=66 time=1
note_on channel=0 note=56 velocity=62 time=1
note_on channel=0 note=58 velocity=61 time=2
note_on channel=0 note=62 velocity=58 time=187
note_on channel=0 note=60 velocity=0 time=13
note_on channel=0 note=70 velocity=0 time=31
note_on channel=0 note=58 velocity=0 time=39
note_on channel=0 note=56 velocity=0 time=30
note_on channel=0 note=52 velocity=0 time=18
note_on channel=0 note=66 velocity=52 time=77
note_on channel=0 note=62 velocity=0 time=19
note_on channel=0 note=70 velocity=66 time=23
note_on channel=0 note=68 velocity=29 time=43
note_on channel=0 note=68 velocity=0 time=52
note_on channel=0 note=61 velocity=79 time=50
note_on channel=0 note=52 velocity=44 time=2
note_on channel=0 note=58 velocity=59 time=9
note_on channel=0 note=56 velocity=56 time=3
note_on channel=0 note=70 velocity=0 time=10
note_on channel=0 note=63 velocity=62 time=141
note_on channel=0 note=66 velocity=0 time=29
note_on channel=0 note=58 velocity=0 time=3
note_on channel=0 note=61 velocity=0 time=2
note_on channel=0 note=56 velocity=0 time=29
note_on channel=0 note=52 velocity=0 time=2
note_on channel=0 note=66 velocity=38 time=71
note_on channel=0 note=70 velocity=66 time=6
note_on channel=0 note=63 velocity=0 time=5
note_on channel=0 note=66 velocity=0 time=65
note_on channel=0 note=63 velocity=62 time=74
note_on channel=0 note=49 velocity=45 time=166
note_on channel=0 note=63 velocity=0 time=11
note_on channel=0 note=58 velocity=79 time=4
note_on channel=0 note=63 velocity=61 time=116
note_on channel=0 note=70 velocity=0 time=5
note_on channel=0 note=66 velocity=55 time=118
note_on channel=0 note=58 velocity=0 time=2
note_on channel=0 note=70 velocity=64 time=17
note_on channel=0 note=49 velocity=0 time=1
note_on channel=0 note=63 velocity=0 time=9
note_on channel=0 note=68 velocity=34 time=25
note_on channel=0 note=68 velocity=0 time=83
note_on channel=0 note=66 velocity=0 time=14
note_on channel=0 note=60 velocity=82 time=54
note_on channel=0 note=49 velocity=72 time=4
note_on channel=0 note=54 velocity=66 time=1
note_on channel=0 note=56 velocity=72 time=4
note_on channel=0 note=60 velocity=0 time=115
note_on channel=0 note=63 velocity=72 time=29
note_on channel=0 note=70 velocity=0 time=8
note_on channel=0 note=56 velocity=0 time=3
note_on channel=0 note=54 velocity=0 time=13
note_on channel=0 note=49 velocity=0 time=10
note_on channel=0 note=66 velocity=63 time=102
note_on channel=0 note=68 velocity=31 time=13
note_on channel=0 note=63 velocity=0 time=5
note_on channel=0 note=68 velocity=0 time=86
note_on channel=0 note=44 velocity=82 time=99
note_on channel=0 note=56 velocity=85 time=1
note_on channel=0 note=66 velocity=0 time=110
note_on channel=0 note=56 velocity=0 time=19
note_on channel=0 note=63 velocity=57 time=35
note_on channel=0 note=44 velocity=0 time=23
note_on channel=0 note=66 velocity=41 time=37
note_on channel=0 note=70 velocity=66 time=74
note_on channel=0 note=66 velocity=0 time=40
note_on channel=0 note=63 velocity=0 time=3
note_on channel=0 note=46 velocity=82 time=149
note_on channel=0 note=58 velocity=82 time=7
note_on channel=0 note=58 velocity=0 time=129
note_on channel=0 note=63 velocity=62 time=33
note_on channel=0 note=70 velocity=0 time=11
note_on channel=0 note=46 velocity=0 time=8
note_on channel=0 note=66 velocity=61 time=120
note_on channel=0 note=63 velocity=0 time=37
note_on channel=0 note=68 velocity=30 time=61
note_on channel=0 note=68 velocity=0 time=80
note_on channel=0 note=63 velocity=69 time=13
note_on channel=0 note=44 velocity=79 time=149
note_on channel=0 note=54 velocity=82 time=5
note_on channel=0 note=63 velocity=0 time=6
note_on channel=0 note=54 velocity=0 time=151
note_on channel=0 note=61 velocity=66 time=10
note_on channel=0 note=44 velocity=0 time=58
note_on channel=0 note=61 velocity=0 time=63
note_on channel=0 note=63 velocity=66 time=24
note_on channel=0 note=66 velocity=0 time=100
note_on channel=0 note=44 velocity=79 time=35
note_on channel=0 note=56 velocity=82 time=7
note_on channel=0 note=46 velocity=46 time=42
note_on channel=0 note=46 velocity=0 time=55
note_on channel=0 note=56 velocity=0 time=7
note_on channel=0 note=61 velocity=75 time=29
note_on channel=0 note=63 velocity=0 time=14
note_on channel=0 note=44 velocity=0 time=42
note_on channel=0 note=63 velocity=61 time=82
note_on channel=0 note=61 velocity=0 time=40
note_on channel=0 note=61 velocity=61 time=93
note_on channel=0 note=63 velocity=0 time=69
note_on channel=0 note=61 velocity=0 time=47
note_on channel=0 note=46 velocity=64 time=24
note_on channel=0 note=53 velocity=79 time=3
note_on channel=0 note=49 velocity=72 time=15
note_on channel=0 note=41 velocity=59 time=3
note_on channel=0 note=43 velocity=61 time=6
control_change channel=0 control=64 value=0 time=23
control_change channel=0 control=64 value=127 time=99
note_on channel=0 note=60 velocity=52 time=5
note_on channel=0 note=62 velocity=57 time=12
note_on channel=0 note=43 velocity=0 time=28
note_on channel=0 note=62 velocity=0 time=21
note_on channel=0 note=60 velocity=0 time=110
note_on channel=0 note=41 velocity=0 time=20
note_on channel=0 note=53 velocity=0 time=15
note_on channel=0 note=64 velocity=58 time=3
note_on channel=0 note=46 velocity=0 time=53
note_on channel=0 note=49 velocity=0 time=30
note_on channel=0 note=72 velocity=60 time=76
note_on channel=0 note=64 velocity=0 time=83
note_on channel=0 note=46 velocity=79 time=55
note_on channel=0 note=56 velocity=85 time=4
note_on channel=0 note=45 velocity=55 time=35
note_on channel=0 note=45 velocity=0 time=56
note_on channel=0 note=72 velocity=0 time=29
note_on channel=0 note=46 velocity=0 time=6
note_on channel=0 note=56 velocity=0 time=15
note_on channel=0 note=60 velocity=66 time=3
note_on channel=0 note=64 velocity=58 time=134
note_on channel=0 note=60 velocity=0 time=32
note_on channel=0 note=56 velocity=79 time=169
note_on channel=0 note=54 velocity=75 time=3
note_on channel=0 note=60 velocity=66 time=1
note_on channel=0 note=51 velocity=66 time=9
note_on channel=0 note=59 velocity=75 time=1
note_on channel=0 note=59 velocity=0 time=47
note_on channel=0 note=64 velocity=0 time=54
note_on channel=0 note=51 velocity=0 time=17
note_on channel=0 note=66 velocity=70 time=10
note_on channel=0 note=60 velocity=0 time=26
note_on channel=0 note=54 velocity=0 time=82
note_on channel=0 note=56 velocity=0 time=15
note_on channel=0 note=68 velocity=68 time=33
note_on channel=0 note=66 velocity=0 time=104
note_on channel=0 note=68 velocity=0 time=46
note_on channel=0 note=63 velocity=85 time=6
note_on channel=0 note=56 velocity=66 time=12
note_on channel=0 note=54 velocity=57 time=14
note_on channel=0 note=54 velocity=0 time=97
note_on channel=0 note=56 velocity=0 time=1
note_on channel=0 note=69 velocity=61 time=33
note_on channel=0 note=67 velocity=72 time=1
note_on channel=0 note=63 velocity=0 time=18
note_on channel=0 note=67 velocity=0 time=136
note_on channel=0 note=70 velocity=70 time=2
note_on channel=0 note=69 velocity=0 time=1
note_on channel=0 note=65 velocity=61 time=106
note_on channel=0 note=55 velocity=61 time=8
note_on channel=0 note=59 velocity=58 time=0
control_change channel=0 control=64 value=0 time=9
note_on channel=0 note=61 velocity=62 time=0
note_on channel=0 note=56 velocity=46 time=26
control_change channel=0 control=64 value=127 time=51
note_on channel=0 note=56 velocity=0 time=13
note_on channel=0 note=73 velocity=75 time=18
note_on channel=0 note=70 velocity=0 time=97
note_on channel=0 note=55 velocity=0 time=47
note_on channel=0 note=65 velocity=0 time=15
note_on channel=0 note=75 velocity=70 time=10
note_on channel=0 note=61 velocity=0 time=50
note_on channel=0 note=59 velocity=0 time=5
note_on channel=0 note=73 velocity=0 time=100
note_on channel=0 note=56 velocity=72 time=8
note_on channel=0 note=66 velocity=82 time=0
note_on channel=0 note=55 velocity=57 time=34
note_on channel=0 note=75 velocity=0 time=7
note_on channel=0 note=55 velocity=0 time=91
note_on channel=0 note=66 velocity=0 time=0
note_on channel=0 note=71 velocity=72 time=25
note_on channel=0 note=56 velocity=0 time=16
note_on channel=0 note=73 velocity=73 time=168
note_on channel=0 note=75 velocity=44 time=10
note_on channel=0 note=71 velocity=0 time=32
note_on channel=0 note=75 velocity=0 time=27
note_on channel=0 note=55 velocity=60 time=79
note_on channel=0 note=59 velocity=57 time=3
note_on channel=0 note=65 velocity=75 time=17
note_on channel=0 note=56 velocity=43 time=31
note_on channel=0 note=75 velocity=64 time=17
note_on channel=0 note=56 velocity=0 time=50
note_on channel=0 note=73 velocity=0 time=59
note_on channel=0 note=65 velocity=0 time=42
note_on channel=0 note=55 velocity=0 time=15
note_on channel=0 note=78 velocity=48 time=33
note_on channel=0 note=71 velocity=65 time=10
note_on channel=0 note=59 velocity=0 time=1
note_on channel=0 note=75 velocity=0 time=80
note_on channel=0 note=71 velocity=0 time=42
note_on channel=0 note=75 velocity=43 time=55
note_on channel=0 note=73 velocity=70 time=2
note_on channel=0 note=75 velocity=0 time=71
note_on channel=0 note=78 velocity=0 time=31
note_on channel=0 note=63 velocity=85 time=33
note_on channel=0 note=52 velocity=65 time=7
note_on channel=0 note=73 velocity=0 time=0
note_on channel=0 note=54 velocity=53 time=22
note_on channel=0 note=53 velocity=53 time=10
note_on channel=0 note=84 velocity=66 time=62
note_on channel=0 note=53 velocity=0 time=2
note_on channel=0 note=54 velocity=0 time=18
note_on channel=0 note=63 velocity=0 time=10
note_on channel=0 note=83 velocity=42 time=14
note_on channel=0 note=52 velocity=0 time=11
note_on channel=0 note=83 velocity=0 time=96
note_on channel=0 note=72 velocity=61 time=6
note_on channel=0 note=84 velocity=0 time=1
note_on channel=0 note=71 velocity=53 time=3
note_on channel=0 note=71 velocity=0 time=95
note_on channel=0 note=75 velocity=64 time=26
note_on channel=0 note=72 velocity=0 time=34
note_on channel=0 note=52 velocity=66 time=84
note_on channel=0 note=57 velocity=60 time=5
note_on channel=0 note=64 velocity=82 time=1
note_on channel=0 note=78 velocity=73 time=69
note_on channel=0 note=64 velocity=0 time=68
note_on channel=0 note=75 velocity=0 time=12
note_on channel=0 note=52 velocity=0 time=28
note_on channel=0 note=57 velocity=0 time=10
note_on channel=0 note=72 velocity=72 time=31
note_on channel=0 note=78 velocity=0 time=16
note_on channel=0 note=67 velocity=78 time=137
note_on channel=0 note=72 velocity=0 time=49
note_on channel=0 note=46 velocity=61 time=77
note_on channel=0 note=58 velocity=89 time=14
note_on channel=0 note=70 velocity=66 time=121
note_on channel=0 note=58 velocity=0 time=11
note_on channel=0 note=67 velocity=0 time=8
note_on channel=0 note=46 velocity=0 time=116
note_on channel=0 note=73 velocity=75 time=24
note_on channel=0 note=70 velocity=0 time=51
note_on channel=0 note=73 velocity=0 time=74
note_on channel=0 note=59 velocity=79 time=57
note_on channel=0 note=47 velocity=65 time=3
note_on channel=0 note=50 velocity=63 time=7
note_on channel=0 note=53 velocity=66 time=4
control_change channel=0 control=64 value=0 time=15
note_on channel=0 note=77 velocity=78 time=3
note_on channel=0 note=54 velocity=49 time=5
note_on channel=0 note=54 velocity=0 time=63
control_change channel=0 control=64 value=127 time=42
note_on channel=0 note=47 velocity=0 time=64
note_on channel=0 note=59 velocity=0 time=1
note_on channel=0 note=67 velocity=63 time=28
note_on channel=0 note=50 velocity=0 time=9
note_on channel=0 note=53 velocity=0 time=24
note_on channel=0 note=77 velocity=0 time=47
note_on channel=0 note=70 velocity=45 time=124
note_on channel=0 note=51 velocity=79 time=18
note_on channel=0 note=63 velocity=85 time=9
note_on channel=0 note=67 velocity=0 time=22
note_on channel=0 note=70 velocity=0 time=35
note_on channel=0 note=63 velocity=0 time=82
note_on channel=0 note=67 velocity=65 time=16
note_on channel=0 note=70 velocity=40 time=7
note_on channel=0 note=51 velocity=0 time=53
note_on channel=0 note=70 velocity=0 time=9
note_on channel=0 note=70 velocity=63 time=77
note_on channel=0 note=67 velocity=0 time=83
note_on channel=0 note=73 velocity=75 time=122
note_on channel=0 note=51 velocity=64 time=5
note_on channel=0 note=47 velocity=72 time=1
note_on channel=0 note=54 velocity=59 time=3
note_on channel=0 note=59 velocity=72 time=4
note_on channel=0 note=70 velocity=0 time=65
note_on channel=0 note=59 velocity=0 time=80
note_on channel=0 note=73 velocity=0 time=22
note_on channel=0 note=54 velocity=0 time=5
note_on channel=0 note=67 velocity=69 time=17
note_on channel=0 note=51 velocity=0 time=19
note_on channel=0 note=47 velocity=0 time=1
note_on channel=0 note=62 velocity=63 time=111
note_on channel=0 note=67 velocity=0 time=32
note_on channel=0 note=44 velocity=82 time=75
note_on channel=0 note=56 velocity=89 time=1
note_on channel=0 note=62 velocity=0 time=41
note_on channel=0 note=56 velocity=0 time=66
note_on channel=0 note=62 velocity=37 time=34
note_on channel=0 note=44 velocity=0 time=62
note_on channel=0 note=64 velocity=39 time=88
note_on channel=0 note=62 velocity=0 time=134
note_on channel=0 note=66 velocity=58 time=1
note_on channel=0 note=48 velocity=48 time=67
note_on channel=0 note=43 velocity=72 time=14
note_on channel=0 note=55 velocity=79 time=3
note_on channel=0 note=64 velocity=0 time=13
note_on channel=0 note=51 velocity=64 time=2
note_on channel=0 note=66 velocity=0 time=130
note_on channel=0 note=43 velocity=0 time=20
note_on channel=0 note=55 velocity=0 time=3
note_on channel=0 note=51 velocity=0 time=4
note_on channel=0 note=68 velocity=61 time=2
note_on channel=0 note=48 velocity=0 time=36
note_on channel=0 note=68 velocity=0 time=76
note_on channel=0 note=66 velocity=49 time=16
note_on channel=0 note=44 velocity=79 time=88
note_on channel=0 note=56 velocity=85 time=3
note_on channel=0 note=46 velocity=44 time=40
note_on channel=0 note=56 velocity=0 time=51
note_on channel=0 note=46 velocity=0 time=5
note_on channel=0 note=66 velocity=0 time=28
note_on channel=0 note=64 velocity=61 time=69
note_on channel=0 note=63 velocity=34 time=8
note_on channel=0 note=44 velocity=0 time=2
note_on channel=0 note=63 velocity=0 time=49
note_on channel=0 note=62 velocity=57 time=77
note_on channel=0 note=64 velocity=0 time=98
control_change channel=0 control=64 value=0 time=25
note_on channel=0 note=39 velocity=84 time=9
note_on channel=0 note=51 velocity=93 time=2
note_on channel=0 note=62 velocity=0 time=46
note_on channel=0 note=59 velocity=65 time=18
control_change channel=0 control=64 value=127 time=16
note_on channel=0 note=51 velocity=0 time=113
note_on channel=0 note=39 velocity=0 time=4
note_on channel=0 note=61 velocity=55 time=35
note_on channel=0 note=59 velocity=0 time=47
note_on channel=0 note=63 velocity=69 time=118
note_on channel=0 note=61 velocity=0 time=157
note_on channel=0 note=54 velocity=82 time=2
note_on channel=0 note=42 velocity=78 time=5
note_on channel=0 note=66 velocity=52 time=91
note_on channel=0 note=54 velocity=0 time=15
note_on channel=0 note=63 velocity=0 time=54
note_on channel=0 note=42 velocity=0 time=13
note_on channel=0 note=70 velocity=70 time=83
note_on channel=0 note=66 velocity=0 time=22
note_on channel=0 note=70 velocity=0 time=67
note_on channel=0 note=44 velocity=61 time=1
note_on channel=0 note=56 velocity=82 time=5
note_on channel=0 note=56 velocity=0 time=180
note_on channel=0 note=67 velocity=72 time=0
note_on channel=0 note=44 velocity=0 time=33
note_on channel=0 note=57 velocity=75 time=150
note_on channel=0 note=45 velocity=72 time=12
note_on channel=0 note=67 velocity=0 time=71
note_on channel=0 note=67 velocity=63 time=122
note_on channel=0 note=57 velocity=0 time=31
note_on channel=0 note=45 velocity=0 time=31
note_on channel=0 note=70 velocity=75 time=94
note_on channel=0 note=67 velocity=0 time=91
note_on channel=0 note=58 velocity=85 time=91
note_on channel=0 note=46 velocity=82 time=1
note_on channel=0 note=58 velocity=0 time=95
note_on channel=0 note=73 velocity=36 time=12
note_on channel=0 note=46 velocity=0 time=68
note_on channel=0 note=75 velocity=73 time=50
note_on channel=0 note=70 velocity=0 time=41
note_on channel=0 note=73 velocity=0 time=91
note_on channel=0 note=67 velocity=78 time=12
note_on channel=0 note=75 velocity=0 time=27
note_on channel=0 note=39 velocity=87 time=126
note_on channel=0 note=51 velocity=98 time=0
note_on channel=0 note=67 velocity=0 time=60
note_on channel=0 note=51 velocity=0 time=72
note_on channel=0 note=39 velocity=0 time=57
note_on channel=0 note=64 velocity=55 time=9
note_on channel=0 note=67 velocity=54 time=176
note_on channel=0 note=64 velocity=0 time=95
note_on channel=0 note=63 velocity=79 time=82
note_on channel=0 note=52 velocity=61 time=9
note_on channel=0 note=67 velocity=0 time=2
note_on channel=0 note=54 velocity=50 time=17
note_on channel=0 note=54 velocity=0 time=52
note_on channel=0 note=63 velocity=0 time=74
note_on channel=0 note=52 velocity=0 time=7
note_on channel=0 note=74 velocity=63 time=28
note_on channel=0 note=72 velocity=63 time=1
note_on channel=0 note=78 velocity=41 time=166
note_on channel=0 note=76 velocity=54 time=10
note_on channel=0 note=72 velocity=0 time=27
note_on channel=0 note=74 velocity=0 time=4
note_on channel=0 note=68 velocity=79 time=30
note_on channel=0 note=78 velocity=0 time=4
note_on channel=0 note=56 velocity=62 time=2
note_on channel=0 note=58 velocity=64 time=5
note_on channel=0 note=58 velocity=0 time=63
note_on channel=0 note=68 velocity=0 time=65
note_on channel=0 note=76 velocity=0 time=6
note_on channel=0 note=72 velocity=75 time=12
note_on channel=0 note=56 velocity=0 time=34
note_on channel=0 note=70 velocity=91 time=143
note_on channel=0 note=58 velocity=82 time=4
note_on channel=0 note=72 velocity=0 time=6
note_on channel=0 note=70 velocity=0 time=132
note_on channel=0 note=76 velocity=54 time=2
note_on channel=0 note=72 velocity=72 time=15
note_on channel=0 note=58 velocity=0 time=46
note_on channel=0 note=78 velocity=75 time=77
note_on channel=0 note=72 velocity=0 time=90
note_on channel=0 note=76 velocity=0 time=9
note_on channel=0 note=80 velocity=48 time=41
note_on channel=0 note=68 velocity=87 time=28
note_on channel=0 note=56 velocity=79 time=5
note_on channel=0 note=80 velocity=0 time=22
note_on channel=0 note=78 velocity=0 time=9
note_on channel=0 note=68 velocity=0 time=69
note_on channel=0 note=84 velocity=75 time=31
note_on channel=0 note=72 velocity=69 time=6
note_on channel=0 note=74 velocity=53 time=29
note_on channel=0 note=56 velocity=0 time=21
note_on channel=0 note=72 velocity=0 time=37
note_on channel=0 note=74 velocity=0 time=3
note_on channel=0 note=72 velocity=56 time=89
note_on channel=0 note=84 velocity=0 time=3
note_on channel=0 note=63 velocity=89 time=146
note_on channel=0 note=51 velocity=75 time=3
note_on channel=0 note=72 velocity=0 time=30
note_on channel=0 note=63 velocity=0 time=113
note_on channel=0 note=72 velocity=66 time=16
note_on channel=0 note=51 velocity=0 time=25
note_on channel=0 note=76 velocity=66 time=115
note_on channel=0 note=72 velocity=0 time=67
control_change channel=0 control=64 value=0 time=86
note_on channel=0 note=53 velocity=65 time=0
note_on channel=0 note=65 velocity=63 time=9
note_on channel=0 note=80 velocity=70 time=47
control_change channel=0 control=64 value=127 time=25
note_on channel=0 note=76 velocity=0 time=25
note_on channel=0 note=65 velocity=0 time=81
note_on channel=0 note=72 velocity=61 time=64
note_on channel=0 note=71 velocity=60 time=2
note_on channel=0 note=53 velocity=0 time=3
note_on channel=0 note=80 velocity=0 time=15
note_on channel=0 note=71 velocity=0 time=93
note_on channel=0 note=72 velocity=0 time=1
note_on channel=0 note=61 velocity=69 time=30
note_on channel=0 note=49 velocity=69 time=12
note_on channel=0 note=61 velocity=0 time=115
note_on channel=0 note=49 velocity=0 time=24
note_on channel=0 note=69 velocity=66 time=6
note_on channel=0 note=51 velocity=82 time=135
note_on channel=0 note=63 velocity=89 time=8
note_on channel=0 note=69 velocity=0 time=70
note_on channel=0 note=63 velocity=0 time=9
note_on channel=0 note=71 velocity=58 time=65
note_on channel=0 note=65 velocity=72 time=4
note_on channel=0 note=51 velocity=0 time=15
note_on channel=0 note=69 velocity=41 time=1
note_on channel=0 note=76 velocity=65 time=0
note_on channel=0 note=71 velocity=0 time=33
note_on channel=0 note=69 velocity=0 time=28
note_on channel=0 note=65 velocity=0 time=101
note_on channel=0 note=46 velocity=79 time=45
note_on channel=0 note=58 velocity=89 time=3
note_on channel=0 note=71 velocity=32 time=44
note_on channel=0 note=76 velocity=0 time=40
note_on channel=0 note=58 velocity=0 time=59
note_on channel=0 note=46 velocity=0 time=14
note_on channel=0 note=69 velocity=60 time=5
note_on channel=0 note=65 velocity=50 time=38
note_on channel=0 note=71 velocity=0 time=45
note_on channel=0 note=69 velocity=0 time=134
note_on channel=0 note=49 velocity=79 time=8
note_on channel=0 note=61 velocity=85 time=2
note_on channel=0 note=65 velocity=0 time=58
note_on channel=0 note=61 velocity=0 time=39
note_on channel=0 note=49 velocity=0 time=86
note_on channel=0 note=70 velocity=68 time=13
note_on channel=0 note=65 velocity=57 time=3
note_on channel=0 note=65 velocity=0 time=60
note_on channel=0 note=60 velocity=69 time=211
note_on channel=0 note=48 velocity=66 time=1
control_change channel=0 control=64 value=0 time=16
note_on channel=0 note=65 velocity=41 time=35
note_on channel=0 note=74 velocity=57 time=0
control_change channel=0 control=64 value=127 time=65
note_on channel=0 note=70 velocity=0 time=7
note_on channel=0 note=60 velocity=0 time=98
note_on channel=0 note=65 velocity=0 time=11
note_on channel=0 note=48 velocity=0 time=51
note_on channel=0 note=68 velocity=55 time=1
note_on channel=0 note=70 velocity=35 time=45
note_on channel=0 note=74 velocity=0 time=17
note_on channel=0 note=70 velocity=0 time=36
note_on channel=0 note=56 velocity=75 time=83
note_on channel=0 note=44 velocity=79 time=1
note_on channel=0 note=68 velocity=0 time=15
note_on channel=0 note=56 velocity=0 time=84
note_on channel=0 note=65 velocity=72 time=21
note_on channel=0 note=44 velocity=0 time=14
note_on channel=0 note=68 velocity=70 time=118
note_on channel=0 note=65 velocity=0 time=63
note_on channel=0 note=48 velocity=66 time=90
note_on channel=0 note=68 velocity=0 time=4
note_on channel=0 note=60 velocity=66 time=3
note_on channel=0 note=49 velocity=46 time=45
note_on channel=0 note=76 velocity=69 time=11
note_on channel=0 note=65 velocity=56 time=16
note_on channel=0 note=74 velocity=52 time=15
note_on channel=0 note=49 velocity=0 time=11
note_on channel=0 note=60 velocity=0 time=24
note_on channel=0 note=65 velocity=0 time=1
note_on channel=0 note=74 velocity=0 time=25
note_on channel=0 note=48 velocity=0 time=11
note_on channel=0 note=76 velocity=0 time=18
note_on channel=0 note=65 velocity=48 time=53
note_on channel=0 note=62 velocity=60 time=162
note_on channel=0 note=65 velocity=0 time=49
note_on channel=0 note=62 velocity=0 time=78
note_on channel=0 note=52 velocity=52 time=25
note_on channel=0 note=40 velocity=53 time=12
note_on channel=0 note=62 velocity=47 time=61
note_on channel=0 note=40 velocity=0 time=119
note_on channel=0 note=52 velocity=0 time=13
note_on channel=0 note=64 velocity=58 time=42
note_on channel=0 note=59 velocity=41 time=24
note_on channel=0 note=59 velocity=0 time=101
note_on channel=0 note=44 velocity=72 time=23
note_on channel=0 note=56 velocity=75 time=3
note_on channel=0 note=56 velocity=0 time=70
note_on channel=0 note=69 velocity=66 time=18
note_on channel=0 note=64 velocity=0 time=9
note_on channel=0 note=59 velocity=44 time=14
note_on channel=0 note=44 velocity=0 time=20
note_on channel=0 note=62 velocity=0 time=3
note_on channel=0 note=59 velocity=0 time=46
note_on channel=0 note=62 velocity=53 time=89
note_on channel=0 note=69 velocity=0 time=23
note_on channel=0 note=48 velocity=75 time=171
note_on channel=0 note=36 velocity=66 time=15
note_on channel=0 note=62 velocity=0 time=5
note_on channel=0 note=59 velocity=60 time=133
note_on channel=0 note=48 velocity=0 time=47
note_on channel=0 note=36 velocity=0 time=1
note_on channel=0 note=62 velocity=60 time=108
note_on channel=0 note=59 velocity=0 time=54
note_on channel=0 note=42 velocity=78 time=107
note_on channel=0 note=54 velocity=79 time=11
note_on channel=0 note=54 velocity=0 time=72
note_on channel=0 note=62 velocity=0 time=20
note_on channel=0 note=65 velocity=57 time=32
note_on channel=0 note=59 velocity=52 time=18
note_on channel=0 note=42 velocity=0 time=11
note_on channel=0 note=65 velocity=0 time=63
note_on channel=0 note=59 velocity=0 time=12
note_on channel=0 note=60 velocity=52 time=120
note_on channel=0 note=59 velocity=65 time=166
note_on channel=0 note=60 velocity=0 time=5
note_on channel=0 note=45 velocity=79 time=74
note_on channel=0 note=33 velocity=69 time=8
control_change channel=0 control=64 value=0 time=28
note_on channel=0 note=60 velocity=63 time=79
control_change channel=0 control=64 value=127 time=22
note_on channel=0 note=59 velocity=0 time=41
note_on channel=0 note=33 velocity=0 time=74
note_on channel=0 note=45 velocity=0 time=12
note_on channel=0 note=55 velocity=51 time=106
note_on channel=0 note=39 velocity=71 time=129
note_on channel=0 note=51 velocity=75 time=7
note_on channel=0 note=55 velocity=0 time=17
note_on channel=0 note=51 velocity=0 time=50
note_on channel=0 note=39 velocity=0 time=84
note_on channel=0 note=63 velocity=50 time=0
note_on channel=0 note=55 velocity=61 time=9
note_on channel=0 note=60 velocity=0 time=1
note_on channel=0 note=64 velocity=58 time=11
note_on channel=0 note=63 velocity=0 time=106
note_on channel=0 note=62 velocity=58 time=38
note_on channel=0 note=64 velocity=0 time=18
note_on channel=0 note=55 velocity=0 time=98
note_on channel=0 note=44 velocity=82 time=46
note_on channel=0 note=32 velocity=84 time=2
note_on channel=0 note=44 velocity=0 time=71
note_on channel=0 note=32 velocity=0 time=76
note_on channel=0 note=62 velocity=0 time=8
note_on channel=0 note=61 velocity=61 time=10
note_on channel=0 note=55 velocity=69 time=158
note_on channel=0 note=61 velocity=0 time=18
note_on channel=0 note=24 velocity=69 time=202
note_on channel=0 note=36 velocity=73 time=3
note_on channel=0 note=55 velocity=0 time=12
control_change channel=0 control=64 value=0 time=77
control_change channel=0 control=64 value=127 time=146
note_on channel=0 note=53 velocity=56 time=16
note_on channel=0 note=24 velocity=0 time=83
note_on channel=0 note=36 velocity=0 time=56
note_on channel=0 note=59 velocity=49 time=45
note_on channel=0 note=53 velocity=0 time=17
note_on channel=0 note=36 velocity=56 time=196
note_on channel=0 note=48 velocity=60 time=5
note_on channel=0 note=59 velocity=0 time=22
note_on channel=0 note=36 velocity=0 time=141
note_on channel=0 note=48 velocity=0 time=3
note_on channel=0 note=69 velocity=66 time=3
note_on channel=0 note=57 velocity=61 time=15
note_on channel=0 note=57 velocity=0 time=136
note_on channel=0 note=55 velocity=72 time=29
note_on channel=0 note=43 velocity=65 time=7
note_on channel=0 note=69 velocity=0 time=41
note_on channel=0 note=55 velocity=0 time=51
note_on channel=0 note=43 velocity=0 time=29
note_on channel=0 note=57 velocity=53 time=55
note_on channel=0 note=59 velocity=49 time=3
note_on channel=0 note=64 velocity=31 time=45
note_on channel=0 note=62 velocity=32 time=43
note_on channel=0 note=59 velocity=0 time=23
note_on channel=0 note=57 velocity=0 time=11
note_on channel=0 note=62 velocity=0 time=27
note_on channel=0 note=48 velocity=58 time=1
note_on channel=0 note=49 velocity=48 time=13
note_on channel=0 note=60 velocity=57 time=1
note_on channel=0 note=64 velocity=0 time=27
note_on channel=0 note=49 velocity=0 time=34
note_on channel=0 note=60 velocity=0 time=43
note_on channel=0 note=64 velocity=53 time=16
note_on channel=0 note=48 velocity=0 time=56
note_on channel=0 note=55 velocity=65 time=146
note_on channel=0 note=43 velocity=56 time=8
note_on channel=0 note=64 velocity=0 time=6
note_on channel=0 note=71 velocity=69 time=125
note_on channel=0 note=55 velocity=0 time=9
note_on channel=0 note=43 velocity=0 time=11
note_on channel=0 note=60 velocity=61 time=5
note_on channel=0 note=60 velocity=0 time=113
note_on channel=0 note=71 velocity=0 time=23
note_on channel=0 note=48 velocity=69 time=2
note_on channel=0 note=60 velocity=55 time=0
note_on channel=0 note=60 velocity=0 time=115
note_on channel=0 note=62 velocity=66 time=33
note_on channel=0 note=59 velocity=57 time=31
note_on channel=0 note=48 velocity=0 time=3
note_on channel=0 note=62 velocity=0 time=133
note_on channel=0 note=59 velocity=0 time=13
note_on channel=0 note=48 velocity=65 time=18
note_on channel=0 note=38 velocity=43 time=45
note_on channel=0 note=36 velocity=42 time=5
note_on channel=0 note=48 velocity=0 time=75
note_on channel=0 note=38 velocity=0 time=13
note_on channel=0 note=36 velocity=0 time=3
note_on channel=0 note=64 velocity=69 time=33
note_on channel=0 note=55 velocity=69 time=3
note_on channel=0 note=57 velocity=35 time=55
note_on channel=0 note=57 velocity=0 time=46
note_on channel=0 note=55 velocity=0 time=7
note_on channel=0 note=64 velocity=0 time=12
note_on channel=0 note=55 velocity=61 time=59
note_on channel=0 note=43 velocity=66 time=6
note_on channel=0 note=55 velocity=0 time=103
note_on channel=0 note=43 velocity=0 time=67
note_on channel=0 note=65 velocity=66 time=23
note_on channel=0 note=62 velocity=63 time=12
note_on channel=0 note=64 velocity=38 time=38
note_on channel=0 note=64 velocity=0 time=51
note_on channel=0 note=62 velocity=0 time=15
note_on channel=0 note=65 velocity=0 time=3
note_on channel=0 note=48 velocity=58 time=79
note_on channel=0 note=36 velocity=53 time=8
note_on channel=0 note=48 velocity=0 time=76
note_on channel=0 note=36 velocity=0 time=33
note_on channel=0 note=53 velocity=57 time=55
note_on channel=0 note=57 velocity=61 time=5
note_on channel=0 note=53 velocity=0 time=90
note_on channel=0 note=57 velocity=0 time=22
note_on channel=0 note=43 velocity=63 time=58
note_on channel=0 note=53 velocity=41 time=11
note_on channel=0 note=55 velocity=41 time=7
note_on channel=0 note=53 velocity=0 time=66
note_on channel=0 note=55 velocity=0 time=8
note_on channel=0 note=43 velocity=0 time=73
note_on channel=0 note=59 velocity=72 time=35
note_on channel=0 note=52 velocity=69 time=1
note_on channel=0 note=52 velocity=0 time=152
note_on channel=0 note=48 velocity=57 time=16
note_on channel=0 note=59 velocity=0 time=20
note_on channel=0 note=48 velocity=0 time=55
note_on channel=0 note=53 velocity=57 time=87
note_on channel=0 note=53 velocity=0 time=161
note_on channel=0 note=48 velocity=52 time=20
note_on channel=0 note=48 velocity=0 time=66
note_on channel=0 note=48 velocity=56 time=54
note_on channel=0 note=48 velocity=0 time=117
note_on channel=0 note=43 velocity=49 time=36
note_on channel=0 note=43 velocity=0 time=90
note_on channel=0 note=45 velocity=44 time=92
note_on channel=0 note=47 velocity=47 time=2
note_on channel=0 note=45 velocity=0 time=59
note_on channel=0 note=47 velocity=0 time=16
note_on channel=0 note=43 velocity=60 time=52
note_on channel=0 note=43 velocity=0 time=90
note_on channel=0 note=41 velocity=51 time=72
note_on channel=0 note=43 velocity=55 time=12
note_on channel=0 note=43 velocity=0 time=53
note_on channel=0 note=41 velocity=0 time=35
note_on channel=0 note=36 velocity=61 time=57
note_on channel=0 note=38 velocity=59 time=19
note_on channel=0 note=38 velocity=0 time=106
note_on channel=0 note=36 velocity=0 time=21
note_on channel=0 note=52 velocity=66 time=1
note_on channel=0 note=43 velocity=57 time=184
note_on channel=0 note=52 velocity=0 time=106
note_on channel=0 note=36 velocity=46 time=28
note_on channel=0 note=43 velocity=0 time=50
note_on channel=0 note=36 velocity=0 time=136
note_on channel=0 note=24 velocity=69 time=2
note_on channel=0 note=24 velocity=0 time=160
note_on channel=0 note=50 velocity=57 time=69
note_on channel=0 note=50 velocity=0 time=144
note_on channel=0 note=50 velocity=31 time=101
note_on channel=0 note=64 velocity=60 time=38
note_on channel=0 note=50 velocity=0 time=20
note_on channel=0 note=64 velocity=0 time=167
note_on channel=0 note=50 velocity=24 time=26
note_on channel=0 note=45 velocity=48 time=7
note_on channel=0 note=55 velocity=38 time=139
note_on channel=0 note=45 velocity=0 time=38
note_on channel=0 note=55 velocity=0 time=83
note_on channel=0 note=55 velocity=49 time=89
note_on channel=0 note=69 velocity=63 time=20
note_on channel=0 note=55 velocity=0 time=41
note_on channel=0 note=50 velocity=0 time=5
note_on channel=0 note=45 velocity=57 time=106
note_on channel=0 note=69 velocity=0 time=13
note_on channel=0 note=47 velocity=39 time=25
note_on channel=0 note=50 velocity=30 time=39
note_on channel=0 note=50 velocity=0 time=77
note_on channel=0 note=60 velocity=58 time=1
note_on channel=0 note=47 velocity=0 time=24
note_on channel=0 note=45 velocity=0 time=1
note_on channel=0 note=60 velocity=0 time=123
note_on channel=0 note=47 velocity=25 time=15
note_on channel=0 note=59 velocity=61 time=29
note_on channel=0 note=47 velocity=0 time=75
note_on channel=0 note=59 velocity=0 time=75
note_on channel=0 note=76 velocity=66 time=7
note_on channel=0 note=76 velocity=0 time=120
note_on channel=0 note=53 velocity=53 time=15
note_on channel=0 note=64 velocity=69 time=192
note_on channel=0 note=64 velocity=0 time=123
note_on channel=0 note=53 velocity=0 time=7
note_on channel=0 note=59 velocity=65 time=23
note_on channel=0 note=59 velocity=0 time=153
note_on channel=0 note=79 velocity=82 time=26
note_on channel=0 note=79 velocity=0 time=97
note_on channel=0 note=60 velocity=61 time=50
note_on channel=0 note=67 velocity=69 time=156
note_on channel=0 note=67 velocity=0 time=100
note_on channel=0 note=64 velocity=39 time=52
note_on channel=0 note=67 velocity=44 time=98
note_on channel=0 note=88 velocity=84 time=74
note_on channel=0 note=60 velocity=0 time=55
note_on channel=0 note=88 velocity=0 time=26
note_on channel=0 note=60 velocity=24 time=74
note_on channel=0 note=64 velocity=0 time=2
note_on channel=0 note=72 velocity=60 time=9
note_on channel=0 note=67 velocity=0 time=17
note_on channel=0 note=74 velocity=69 time=139
note_on channel=0 note=72 velocity=0 time=15
note_on channel=0 note=60 velocity=0 time=4
note_on channel=0 note=67 velocity=46 time=49
note_on channel=0 note=74 velocity=0 time=55
note_on channel=0 note=60 velocity=61 time=89
note_on channel=0 note=67 velocity=0 time=87
note_on channel=0 note=64 velocity=50 time=35
note_on channel=0 note=89 velocity=70 time=46
note_on channel=0 note=88 velocity=56 time=21
note_on channel=0 note=88 velocity=0 time=45
note_on channel=0 note=89 velocity=0 time=14
note_on channel=0 note=72 velocity=54 time=101
note_on channel=0 note=62 velocity=36 time=44
note_on channel=0 note=62 velocity=0 time=89
note_on channel=0 note=64 velocity=0 time=14
note_on channel=0 note=76 velocity=66 time=11
note_on channel=0 note=72 velocity=0 time=5
note_on channel=0 note=67 velocity=50 time=4
note_on channel=0 note=60 velocity=0 time=17
note_on channel=0 note=76 velocity=0 time=77
note_on channel=0 note=60 velocity=57 time=103
note_on channel=0 note=67 velocity=0 time=59
note_on channel=0 note=91 velocity=81 time=61
note_on channel=0 note=91 velocity=0 time=70
note_on channel=0 note=64 velocity=31 time=13
note_on channel=0 note=60 velocity=0 time=40
note_on channel=0 note=72 velocity=48 time=58
note_on channel=0 note=74 velocity=42 time=5
note_on channel=0 note=60 velocity=34 time=18
note_on channel=0 note=74 velocity=0 time=48
note_on channel=0 note=64 velocity=0 time=66
note_on channel=0 note=67 velocity=56 time=12
note_on channel=0 note=77 velocity=57 time=3
note_on channel=0 note=60 velocity=0 time=1
note_on channel=0 note=72 velocity=0 time=17
note_on channel=0 note=77 velocity=0 time=75
note_on channel=0 note=60 velocity=57 time=127
note_on channel=0 note=67 velocity=0 time=54
note_on channel=0 note=96 velocity=77 time=84
note_on channel=0 note=64 velocity=45 time=22
note_on channel=0 note=96 velocity=0 time=60
note_on channel=0 note=60 velocity=0 time=21
note_on channel=0 note=67 velocity=52 time=94
note_on channel=0 note=64 velocity=0 time=44
note_on channel=0 note=64 velocity=52 time=172
note_on channel=0 note=67 velocity=0 time=26
note_on channel=0 note=77 velocity=43 time=31
note_on channel=0 note=64 velocity=0 time=34
note_on channel=0 note=77 velocity=0 time=162
note_on channel=0 note=53 velocity=39 time=103
note_on channel=0 note=89 velocity=61 time=130
note_on channel=0 note=89 velocity=0 time=78
note_on channel=0 note=65 velocity=47 time=127
note_on channel=0 note=65 velocity=0 time=178
note_on channel=0 note=71 velocity=63 time=19
note_on channel=0 note=60 velocity=49 time=29
note_on channel=0 note=71 velocity=0 time=69
note_on channel=0 note=53 velocity=0 time=16
note_on channel=0 note=53 velocity=48 time=93
note_on channel=0 note=60 velocity=0 time=58
note_on channel=0 note=86 velocity=66 time=130
note_on channel=0 note=86 velocity=0 time=62
note_on channel=0 note=65 velocity=48 time=89
note_on channel=0 note=65 velocity=0 time=153
note_on channel=0 note=60 velocity=53 time=17
note_on channel=0 note=53 velocity=0 time=67
note_on channel=0 note=67 velocity=54 time=35
note_on channel=0 note=60 velocity=0 time=50
note_on channel=0 note=67 velocity=0 time=38
note_on channel=0 note=53 velocity=50 time=66
note_on channel=0 note=57 velocity=51 time=179
note_on channel=0 note=53 velocity=0 time=60
note_on channel=0 note=84 velocity=63 time=23
note_on channel=0 note=84 velocity=0 time=51
note_on channel=0 note=57 velocity=0 time=122
note_on channel=0 note=60 velocity=51 time=10
note_on channel=0 note=57 velocity=52 time=174
note_on channel=0 note=60 velocity=0 time=22
note_on channel=0 note=57 velocity=0 time=36
note_on channel=0 note=67 velocity=63 time=75
note_on channel=0 note=67 velocity=0 time=118
note_on channel=0 note=45 velocity=41 time=89
note_on channel=0 note=43 velocity=39 time=3
note_on channel=0 note=45 velocity=0 time=173
note_on channel=0 note=86 velocity=63 time=26
note_on channel=0 note=43 velocity=0 time=48
note_on channel=0 note=86 velocity=0 time=9
note_on channel=0 note=43 velocity=30 time=72
note_on channel=0 note=57 velocity=43 time=90
note_on channel=0 note=55 velocity=39 time=9
note_on channel=0 note=57 velocity=0 time=73
note_on channel=0 note=65 velocity=61 time=110
note_on channel=0 note=55 velocity=0 time=9
note_on channel=0 note=43 velocity=0 time=6
note_on channel=0 note=65 velocity=0 time=91
note_on channel=0 note=50 velocity=44 time=20
note_on channel=0 note=43 velocity=48 time=80
note_on channel=0 note=50 velocity=0 time=15
note_on channel=0 note=84 velocity=57 time=203
note_on channel=0 note=84 velocity=0 time=76
note_on channel=0 note=43 velocity=0 time=13
note_on channel=0 note=50 velocity=51 time=63
note_on channel=0 note=59 velocity=50 time=196
note_on channel=0 note=50 velocity=0 time=104
note_on channel=0 note=59 velocity=0 time=21
note_on channel=0 note=65 velocity=56 time=35
note_on channel=0 note=65 velocity=0 time=87
note_on channel=0 note=43 velocity=57 time=77
note_on channel=0 note=83 velocity=72 time=204
note_on channel=0 note=83 velocity=0 time=91
note_on channel=0 note=50 velocity=55 time=81
note_on channel=0 note=43 velocity=0 time=17
note_on channel=0 note=59 velocity=58 time=153
note_on channel=0 note=50 velocity=0 time=88
note_on channel=0 note=64 velocity=61 time=40
note_on channel=0 note=59 velocity=0 time=7
note_on channel=0 note=64 velocity=0 time=38
note_on channel=0 note=43 velocity=58 time=102
note_on channel=0 note=50 velocity=51 time=177
note_on channel=0 note=81 velocity=78 time=32
note_on channel=0 note=43 velocity=0 time=64
note_on channel=0 note=81 velocity=0 time=10
note_on channel=0 note=50 velocity=0 time=62
note_on channel=0 note=59 velocity=52 time=33
note_on channel=0 note=59 velocity=0 time=161
note_on channel=0 note=50 velocity=48 time=41
note_on channel=0 note=60 velocity=66 time=35
note_on channel=0 note=60 velocity=0 time=90
note_on channel=0 note=50 velocity=0 time=80
note_on channel=0 note=43 velocity=55 time=13
note_on channel=0 note=43 velocity=0 time=229
note_on channel=0 note=76 velocity=65 time=18
note_on channel=0 note=76 velocity=0 time=44
note_on channel=0 note=59 velocity=55 time=168
note_on channel=0 note=59 velocity=0 time=167
note_on channel=0 note=50 velocity=57 time=37
note_on channel=0 note=50 velocity=0 time=96
note_on channel=0 note=59 velocity=65 time=46
note_on channel=0 note=59 velocity=0 time=77
note_on channel=0 note=36 velocity=56 time=130
note_on channel=0 note=81 velocity=82 time=259
note_on channel=0 note=81 velocity=0 time=88
note_on channel=0 note=43 velocity=52 time=149
note_on channel=0 note=36 velocity=0 time=34
note_on channel=0 note=52 velocity=56 time=195
note_on channel=0 note=43 velocity=0 time=72
note_on channel=0 note=52 velocity=0 time=85
note_on channel=0 note=62 velocity=53 time=59
note_on channel=0 note=62 velocity=0 time=99
note_on channel=0 note=36 velocity=49 time=55
note_on channel=0 note=43 velocity=57 time=185
note_on channel=0 note=36 velocity=0 time=83
note_on channel=0 note=76 velocity=72 time=3
note_on channel=0 note=76 velocity=0 time=82
note_on channel=0 note=52 velocity=60 time=59
note_on channel=0 note=43 velocity=0 time=26
note_on channel=0 note=43 velocity=55 time=165
note_on channel=0 note=52 velocity=0 time=8
note_on channel=0 note=60 velocity=65 time=82
note_on channel=0 note=60 velocity=0 time=67
note_on channel=0 note=43 velocity=0 time=82
note_on channel=0 note=36 velocity=48 time=3
note_on channel=0 note=74 velocity=54 time=235
note_on channel=0 note=36 velocity=0 time=20
note_on channel=0 note=43 velocity=32 time=2
note_on channel=0 note=72 velocity=48 time=7
note_on channel=0 note=74 velocity=0 time=59
note_on channel=0 note=72 velocity=0 time=13
note_on channel=0 note=52 velocity=52 time=108
note_on channel=0 note=43 velocity=0 time=47
note_on channel=0 note=52 velocity=0 time=147
note_on channel=0 note=57 velocity=55 time=50
note_on channel=0 note=55 velocity=47 time=16
note_on channel=0 note=57 velocity=0 time=41
note_on channel=0 note=55 velocity=0 time=18
note_on channel=0 note=43 velocity=48 time=39
note_on channel=0 note=36 velocity=42 time=91
note_on channel=0 note=43 velocity=0 time=58
note_on channel=0 note=72 velocity=69 time=147
note_on channel=0 note=36 velocity=0 time=79
note_on channel=0 note=72 velocity=0 time=4
note_on channel=0 note=52 velocity=50 time=128
note_on channel=0 note=52 velocity=0 time=197
note_on channel=0 note=55 velocity=69 time=12
note_on channel=0 note=43 velocity=49 time=53
note_on channel=0 note=55 velocity=0 time=31
note_on channel=0 note=36 velocity=48 time=129
note_on channel=0 note=43 velocity=0 time=33
note_on channel=0 note=67 velocity=72 time=154
note_on channel=0 note=36 velocity=0 time=76
note_on channel=0 note=67 velocity=0 time=15
note_on channel=0 note=52 velocity=57 time=78
note_on channel=0 note=43 velocity=57 time=175
note_on channel=0 note=52 velocity=0 time=7
note_on channel=0 note=52 velocity=69 time=144
note_on channel=0 note=52 velocity=0 time=58
note_on channel=0 note=43 velocity=0 time=69
note_on channel=0 note=52 velocity=56 time=1
note_on channel=0 note=40 velocity=39 time=162
note_on channel=0 note=36 velocity=48 time=12
note_on channel=0 note=52 velocity=0 time=4
note_on channel=0 note=40 velocity=0 time=110
note_on channel=0 note=71 velocity=78 time=36
note_on channel=0 note=71 velocity=0 time=71
note_on channel=0 note=36 velocity=0 time=37
note_on channel=0 note=52 velocity=55 time=67
note_on channel=0 note=43 velocity=57 time=152
note_on channel=0 note=52 velocity=0 time=22
note_on channel=0 note=50 velocity=72 time=122
note_on channel=0 note=43 velocity=0 time=63
note_on channel=0 note=50 velocity=0 time=1
note_on channel=0 note=36 velocity=51 time=37
note_on channel=0 note=43 velocity=60 time=161
note_on channel=0 note=36 velocity=0 time=38
note_on channel=0 note=52 velocity=57 time=140
note_on channel=0 note=71 velocity=75 time=34
note_on channel=0 note=43 velocity=0 time=45
note_on channel=0 note=71 velocity=0 time=30
note_on channel=0 note=52 velocity=0 time=57
note_on channel=0 note=52 velocity=49 time=129
note_on channel=0 note=43 velocity=47 time=148
note_on channel=0 note=52 velocity=0 time=23
note_on channel=0 note=47 velocity=60 time=60
note_on channel=0 note=47 velocity=0 time=50
note_on channel=0 note=36 velocity=48 time=10
note_on channel=0 note=43 velocity=0 time=9
note_on channel=0 note=43 velocity=57 time=155
note_on channel=0 note=52 velocity=52 time=58
note_on channel=0 note=36 velocity=0 time=3
note_on channel=0 note=43 velocity=0 time=115
note_on channel=0 note=52 velocity=0 time=10
note_on channel=0 note=65 velocity=78 time=33
note_on channel=0 note=65 velocity=0 time=81
note_on channel=0 note=52 velocity=52 time=67
note_on channel=0 note=43 velocity=53 time=153
note_on channel=0 note=52 velocity=0 time=23
note_on channel=0 note=45 velocity=66 time=175
note_on channel=0 note=43 velocity=0 time=29
note_on channel=0 note=45 velocity=0 time=53
note_on channel=0 note=36 velocity=49 time=148
note_on channel=0 note=43 velocity=55 time=227
note_on channel=0 note=36 velocity=0 time=20
note_on channel=0 note=52 velocity=61 time=161
note_on channel=0 note=43 velocity=0 time=73
note_on channel=0 note=52 velocity=0 time=114
note_on channel=0 note=36 velocity=66 time=40
note_on channel=0 note=72 velocity=58 time=361
note_on channel=0 note=36 velocity=0 time=78
note_on channel=0 note=36 velocity=55 time=122
note_on channel=0 note=72 velocity=0 time=41
note_on channel=0 note=86 velocity=78 time=191
note_on channel=0 note=86 velocity=0 time=86
note_on channel=0 note=52 velocity=60 time=138
note_on channel=0 note=36 velocity=0 time=228
note_on channel=0 note=52 velocity=0 time=18
note_on channel=0 note=72 velocity=78 time=23
note_on channel=0 note=43 velocity=33 time=21
note_on channel=0 note=72 velocity=0 time=35
note_on channel=0 note=43 velocity=0 time=129
note_on channel=0 note=36 velocity=48 time=34
note_on channel=0 note=36 velocity=0 time=62
note_on channel=0 note=43 velocity=48 time=181
note_on channel=0 note=64 velocity=57 time=10
note_on channel=0 note=62 velocity=53 time=20
note_on channel=0 note=64 velocity=0 time=28
note_on channel=0 note=62 velocity=0 time=26
note_on channel=0 note=52 velocity=55 time=66
note_on channel=0 note=43 velocity=0 time=50
note_on channel=0 note=52 velocity=0 time=146
note_on channel=0 note=43 velocity=51 time=23
note_on channel=0 note=72 velocity=72 time=134
note_on channel=0 note=72 velocity=0 time=39
note_on channel=0 note=52 velocity=55 time=125
note_on channel=0 note=43 velocity=0 time=24
note_on channel=0 note=52 velocity=0 time=187
note_on channel=0 note=36 velocity=43 time=5
note_on channel=0 note=86 velocity=72 time=89
note_on channel=0 note=86 velocity=0 time=38
note_on channel=0 note=52 velocity=48 time=146
note_on channel=0 note=36 velocity=0 time=47
note_on channel=0 note=43 velocity=52 time=130
note_on channel=0 note=52 velocity=0 time=7
note_on channel=0 note=72 velocity=63 time=115
note_on channel=0 note=72 velocity=0 time=54
note_on channel=0 note=52 velocity=39 time=65
note_on channel=0 note=43 velocity=0 time=56
note_on channel=0 note=36 velocity=53 time=75
note_on channel=0 note=52 velocity=0 time=11
note_on channel=0 note=91 velocity=74 time=180
note_on channel=0 note=91 velocity=0 time=84
note_on channel=0 note=52 velocity=53 time=47
note_on channel=0 note=36 velocity=0 time=58
note_on channel=0 note=43 velocity=57 time=105
note_on channel=0 note=52 velocity=0 time=5
note_on channel=0 note=64 velocity=69 time=177
note_on channel=0 note=52 velocity=56 time=14
note_on channel=0 note=43 velocity=0 time=40
note_on channel=0 note=64 velocity=0 time=5
note_on channel=0 note=52 velocity=0 time=116
note_on channel=0 note=36 velocity=47 time=54
note_on channel=0 note=52 velocity=48 time=194
note_on channel=0 note=53 velocity=66 time=64
note_on channel=0 note=36 velocity=0 time=53
note_on channel=0 note=52 velocity=0 time=46
note_on channel=0 note=53 velocity=0 time=1
note_on channel=0 note=43 velocity=52 time=82
note_on channel=0 note=52 velocity=57 time=146
note_on channel=0 note=43 velocity=0 time=60
note_on channel=0 note=76 velocity=65 time=93
note_on channel=0 note=52 velocity=0 time=49
note_on channel=0 note=76 velocity=0 time=4
note_on channel=0 note=36 velocity=48 time=42
note_on channel=0 note=52 velocity=48 time=186
note_on channel=0 note=36 velocity=0 time=48
note_on channel=0 note=52 velocity=0 time=111
note_on channel=0 note=55 velocity=66 time=24
note_on channel=0 note=43 velocity=49 time=72
note_on channel=0 note=55 velocity=0 time=20
note_on channel=0 note=52 velocity=53 time=95
note_on channel=0 note=43 velocity=0 time=24
note_on channel=0 note=52 velocity=0 time=129
note_on channel=0 note=48 velocity=72 time=125
note_on channel=0 note=48 velocity=0 time=102
note_on channel=0 note=36 velocity=46 time=39
note_on channel=0 note=52 velocity=48 time=177
note_on channel=0 note=36 velocity=0 time=105
note_on channel=0 note=52 velocity=0 time=17
note_on channel=0 note=55 velocity=65 time=50
note_on channel=0 note=55 velocity=0 time=88
note_on channel=0 note=52 velocity=56 time=101
note_on channel=0 note=52 velocity=0 time=222
note_on channel=0 note=48 velocity=75 time=66
note_on channel=0 note=48 velocity=0 time=80
note_on channel=0 note=52 velocity=55 time=63
note_on channel=0 note=52 velocity=0 time=219
note_on channel=0 note=36 velocity=43 time=8
note_on channel=0 note=60 velocity=66 time=193
note_on channel=0 note=62 velocity=65 time=3
note_on channel=0 note=36 velocity=0 time=34
note_on channel=0 note=62 velocity=0 time=5
note_on channel=0 note=60 velocity=0 time=46
note_on channel=0 note=52 velocity=47 time=104
note_on channel=0 note=36 velocity=48 time=240
note_on channel=0 note=52 velocity=0 time=16
note_on channel=0 note=52 velocity=58 time=210
note_on channel=0 note=36 velocity=0 time=12
note_on channel=0 note=52 velocity=0 time=118
note_on channel=0 note=36 velocity=51 time=52
note_on channel=0 note=72 velocity=72 time=10
note_on channel=0 note=72 velocity=0 time=118
note_on channel=0 note=36 velocity=0 time=91
note_on channel=0 note=52 velocity=41 time=14
note_on channel=0 note=52 velocity=0 time=134
note_on channel=0 note=36 velocity=47 time=35
note_on channel=0 note=52 velocity=55 time=175
note_on channel=0 note=36 velocity=0 time=37
note_on channel=0 note=52 velocity=0 time=131
note_on channel=0 note=67 velocity=63 time=47
note_on channel=0 note=62 velocity=49 time=13
note_on channel=0 note=64 velocity=48 time=9
note_on channel=0 note=64 velocity=0 time=68
note_on channel=0 note=62 velocity=0 time=63
note_on channel=0 note=67 velocity=0 time=29
note_on channel=0 note=36 velocity=44 time=6
note_on channel=0 note=52 velocity=44 time=138
note_on channel=0 note=36 velocity=0 time=53
note_on channel=0 note=52 velocity=0 time=118
note_on channel=0 note=36 velocity=48 time=33
note_on channel=0 note=52 velocity=49 time=171
note_on channel=0 note=36 velocity=0 time=26
note_on channel=0 note=52 velocity=0 time=114
note_on channel=0 note=36 velocity=49 time=53
note_on channel=0 note=60 velocity=61 time=30
note_on channel=0 note=60 velocity=0 time=134
note_on channel=0 note=36 velocity=0 time=11
note_on channel=0 note=52 velocity=50 time=15
note_on channel=0 note=52 velocity=0 time=130
note_on channel=0 note=36 velocity=42 time=42
note_on channel=0 note=52 velocity=52 time=162
note_on channel=0 note=36 velocity=0 time=9
note_on channel=0 note=52 velocity=0 time=95
note_on channel=0 note=55 velocity=56 time=66
note_on channel=0 note=60 velocity=57 time=1
note_on channel=0 note=36 velocity=44 time=80
note_on channel=0 note=60 velocity=0 time=55
note_on channel=0 note=55 velocity=0 time=3
note_on channel=0 note=52 velocity=47 time=86
note_on channel=0 note=36 velocity=0 time=42
note_on channel=0 note=52 velocity=0 time=70
note_on channel=0 note=36 velocity=33 time=137
note_on channel=0 note=55 velocity=56 time=47
note_on channel=0 note=52 velocity=55 time=3
note_on channel=0 note=36 velocity=0 time=44
note_on channel=0 note=36 velocity=51 time=90
note_on channel=0 note=52 velocity=0 time=42
note_on channel=0 note=55 velocity=0 time=11
note_on channel=0 note=50 velocity=44 time=146
note_on channel=0 note=36 velocity=0 time=30
note_on channel=0 note=52 velocity=41 time=59
note_on channel=0 note=50 velocity=0 time=10
note_on channel=0 note=36 velocity=48 time=159
note_on channel=0 note=52 velocity=0 time=24
note_on channel=0 note=52 velocity=53 time=176
note_on channel=0 note=36 velocity=0 time=3
note_on channel=0 note=52 velocity=0 time=140
note_on channel=0 note=36 velocity=48 time=38
note_on channel=0 note=52 velocity=57 time=124
note_on channel=0 note=52 velocity=0 time=171
note_on channel=0 note=45 velocity=52 time=11
note_on channel=0 note=36 velocity=0 time=29
note_on channel=0 note=45 velocity=0 time=143
note_on channel=0 note=52 velocity=51 time=28
note_on channel=0 note=52 velocity=0 time=154
note_on channel=0 note=36 velocity=42 time=3
note_on channel=0 note=52 velocity=55 time=196
note_on channel=0 note=47 velocity=55 time=101
note_on channel=0 note=52 velocity=0 time=36
note_on channel=0 note=36 velocity=0 time=73
note_on channel=0 note=47 velocity=0 time=62
note_on channel=0 note=52 velocity=53 time=54
note_on channel=0 note=36 velocity=48 time=169
note_on channel=0 note=52 velocity=0 time=27
note_on channel=0 note=52 velocity=56 time=167
note_on channel=0 note=36 velocity=0 time=83
note_on channel=0 note=52 velocity=0 time=20
note_on channel=0 note=52 velocity=38 time=90
note_on channel=0 note=52 velocity=0 time=147
note_on channel=0 note=57 velocity=38 time=64
note_on channel=0 note=59 velocity=34 time=26
note_on channel=0 note=55 velocity=38 time=11
note_on channel=0 note=55 velocity=0 time=70
note_on channel=0 note=59 velocity=0 time=9
note_on channel=0 note=36 velocity=49 time=94
note_on channel=0 note=57 velocity=0 time=2
note_on channel=0 note=52 velocity=32 time=39
note_on channel=0 note=52 velocity=0 time=61
note_on channel=0 note=57 velocity=58 time=64
note_on channel=0 note=36 velocity=0 time=78
note_on channel=0 note=52 velocity=53 time=102
note_on channel=0 note=36 velocity=44 time=7
note_on channel=0 note=57 velocity=0 time=17
note_on channel=0 note=57 velocity=58 time=109
note_on channel=0 note=52 velocity=0 time=7
note_on channel=0 note=64 velocity=60 time=10
note_on channel=0 note=36 velocity=0 time=18
note_on channel=0 note=59 velocity=43 time=3
note_on channel=0 note=59 velocity=0 time=92
note_on channel=0 note=57 velocity=0 time=88
note_on channel=0 note=64 velocity=0 time=5
note_on channel=0 note=52 velocity=56 time=8
note_on channel=0 note=36 velocity=49 time=5
note_on channel=0 note=52 velocity=0 time=146
note_on channel=0 note=57 velocity=55 time=7
note_on channel=0 note=36 velocity=0 time=31
note_on channel=0 note=52 velocity=46 time=147
note_on channel=0 note=57 velocity=0 time=13
note_on channel=0 note=36 velocity=39 time=1
note_on channel=0 note=52 velocity=0 time=97
note_on channel=0 note=69 velocity=57 time=29
note_on channel=0 note=36 velocity=0 time=47
note_on channel=0 note=36 velocity=45 time=126
note_on channel=0 note=69 velocity=0 time=18
note_on channel=0 note=52 velocity=46 time=4
note_on channel=0 note=52 velocity=0 time=66
note_on channel=0 note=64 velocity=52 time=56
note_on channel=0 note=36 velocity=0 time=4
note_on channel=0 note=64 velocity=0 time=123
note_on channel=0 note=76 velocity=42 time=56
note_on channel=0 note=76 velocity=0 time=176
note_on channel=0 note=57 velocity=43 time=53
note_on channel=0 note=64 velocity=48 time=4
note_on channel=0 note=64 velocity=0 time=87
note_on channel=0 note=57 velocity=0 time=90
note_on channel=0 note=64 velocity=52 time=21
note_on channel=0 note=52 velocity=48 time=131
note_on channel=0 note=59 velocity=55 time=15
note_on channel=0 note=64 velocity=0 time=18
note_on channel=0 note=57 velocity=43 time=37
note_on channel=0 note=76 velocity=54 time=86
note_on channel=0 note=52 velocity=0 time=51
note_on channel=0 note=59 velocity=0 time=5
note_on channel=0 note=57 velocity=0 time=40
note_on channel=0 note=64 velocity=45 time=107
note_on channel=0 note=76 velocity=0 time=5
note_on channel=0 note=65 velocity=44 time=12
note_on channel=0 note=59 velocity=49 time=6
note_on channel=0 note=57 velocity=53 time=17
note_on channel=0 note=52 velocity=48 time=3
note_on channel=0 note=59 velocity=0 time=37
note_on channel=0 note=65 velocity=0 time=12
note_on channel=0 note=57 velocity=0 time=20
note_on channel=0 note=64 velocity=0 time=23
note_on channel=0 note=52 velocity=0 time=37
note_on channel=0 note=64 velocity=61 time=107
note_on channel=0 note=69 velocity=32 time=29
note_on channel=0 note=69 velocity=0 time=76
note_on channel=0 note=64 velocity=0 time=71
note_on channel=0 note=69 velocity=51 time=10
note_on channel=0 note=40 velocity=51 time=33
note_on channel=0 note=64 velocity=53 time=179
note_on channel=0 note=76 velocity=46 time=71
note_on channel=0 note=69 velocity=0 time=3
note_on channel=0 note=76 velocity=0 time=88
note_on channel=0 note=64 velocity=0 time=18
note_on channel=0 note=52 velocity=57 time=35
note_on channel=0 note=64 velocity=56 time=171
note_on channel=0 note=40 velocity=0 time=19
note_on channel=0 note=52 velocity=0 time=57
note_on channel=0 note=69 velocity=49 time=97
note_on channel=0 note=64 velocity=0 time=1
note_on channel=0 note=52 velocity=43 time=133
note_on channel=0 note=76 velocity=52 time=0
note_on channel=0 note=69 velocity=0 time=99
note_on channel=0 note=65 velocity=61 time=69
note_on channel=0 note=76 velocity=0 time=131
note_on channel=0 note=65 velocity=0 time=42
note_on channel=0 note=55 velocity=23 time=11
note_on channel=0 note=60 velocity=50 time=14
note_on channel=0 note=59 velocity=52 time=1
note_on channel=0 note=65 velocity=56 time=137
note_on channel=0 note=59 velocity=0 time=2
note_on channel=0 note=60 velocity=0 time=20
note_on channel=0 note=79 velocity=49 time=50
note_on channel=0 note=52 velocity=0 time=76
note_on channel=0 note=65 velocity=0 time=1
note_on channel=0 note=55 velocity=0 time=66
note_on channel=0 note=52 velocity=39 time=78
note_on channel=0 note=60 velocity=48 time=5
note_on channel=0 note=55 velocity=35 time=11
note_on channel=0 note=79 velocity=0 time=48
note_on channel=0 note=60 velocity=0 time=58
note_on channel=0 note=67 velocity=43 time=3
note_on channel=0 note=52 velocity=0 time=101
note_on channel=0 note=71 velocity=46 time=43
note_on channel=0 note=67 velocity=0 time=20
note_on channel=0 note=62 velocity=51 time=22
note_on channel=0 note=57 velocity=55 time=12
note_on channel=0 note=52 velocity=22 time=81
note_on channel=0 note=62 velocity=0 time=47
note_on channel=0 note=67 velocity=57 time=36
note_on channel=0 note=71 velocity=0 time=25
note_on channel=0 note=57 velocity=0 time=11
note_on channel=0 note=79 velocity=48 time=0
note_on channel=0 note=52 velocity=0 time=2
note_on channel=0 note=55 velocity=0 time=85
note_on channel=0 note=67 velocity=0 time=17
note_on channel=0 note=59 velocity=53 time=52
note_on channel=0 note=52 velocity=48 time=3
note_on channel=0 note=55 velocity=41 time=20
note_on channel=0 note=57 velocity=40 time=27
note_on channel=0 note=79 velocity=0 time=64
note_on channel=0 note=59 velocity=0 time=41
note_on channel=0 note=69 velocity=54 time=3
note_on channel=0 note=52 velocity=0 time=57
note_on channel=0 note=57 velocity=0 time=18
note_on channel=0 note=55 velocity=0 time=47
note_on channel=0 note=72 velocity=36 time=64
note_on channel=0 note=69 velocity=0 time=1
note_on channel=0 note=62 velocity=56 time=21
note_on channel=0 note=55 velocity=53 time=11
note_on channel=0 note=57 velocity=43 time=10
note_on channel=0 note=52 velocity=44 time=4
note_on channel=0 note=72 velocity=0 time=73
note_on channel=0 note=62 velocity=0 time=21
note_on channel=0 note=57 velocity=0 time=52
note_on channel=0 note=69 velocity=48 time=6
note_on channel=0 note=55 velocity=0 time=23
note_on channel=0 note=52 velocity=0 time=19
note_on channel=0 note=69 velocity=0 time=131
note_on channel=0 note=72 velocity=46 time=50
note_on channel=0 note=69 velocity=43 time=111
note_on channel=0 note=69 velocity=0 time=128
note_on channel=0 note=40 velocity=51 time=3
note_on channel=0 note=69 velocity=60 time=136
note_on channel=0 note=72 velocity=0 time=85
note_on channel=0 note=72 velocity=48 time=49
note_on channel=0 note=69 velocity=0 time=78
note_on channel=0 note=52 velocity=69 time=90
note_on channel=0 note=72 velocity=0 time=159
note_on channel=0 note=79 velocity=54 time=23
note_on channel=0 note=69 velocity=58 time=14
note_on channel=0 note=40 velocity=0 time=10
note_on channel=0 note=52 velocity=0 time=77
note_on channel=0 note=72 velocity=57 time=50
note_on channel=0 note=69 velocity=0 time=7
note_on channel=0 note=79 velocity=0 time=49
note_on channel=0 note=69 velocity=56 time=73
note_on channel=0 note=52 velocity=57 time=60
note_on channel=0 note=69 velocity=0 time=91
note_on channel=0 note=79 velocity=54 time=35
note_on channel=0 note=69 velocity=45 time=48
note_on channel=0 note=72 velocity=0 time=25
note_on channel=0 note=59 velocity=51 time=94
note_on channel=0 note=69 velocity=0 time=25
note_on channel=0 note=79 velocity=0 time=38
note_on channel=0 note=69 velocity=57 time=81
note_on channel=0 note=69 velocity=0 time=137
note_on channel=0 note=64 velocity=63 time=46
note_on channel=0 note=52 velocity=0 time=60
note_on channel=0 note=59 velocity=0 time=34
note_on channel=0 note=69 velocity=61 time=50
note_on channel=0 note=64 velocity=0 time=47
note_on channel=0 note=72 velocity=57 time=81
note_on channel=0 note=69 velocity=0 time=4
note_on channel=0 note=69 velocity=51 time=90
note_on channel=0 note=69 velocity=0 time=107
note_on channel=0 note=65 velocity=56 time=2
note_on channel=0 note=72 velocity=0 time=35
note_on channel=0 note=72 velocity=60 time=153
note_on channel=0 note=84 velocity=48 time=33
note_on channel=0 note=72 velocity=0 time=86
note_on channel=0 note=65 velocity=0 time=20
note_on channel=0 note=65 velocity=37 time=117
note_on channel=0 note=67 velocity=60 time=12
note_on channel=0 note=60 velocity=35 time=1
note_on channel=0 note=84 velocity=0 time=8
note_on channel=0 note=72 velocity=61 time=136
note_on channel=0 note=72 velocity=0 time=167
note_on channel=0 note=67 velocity=0 time=1
note_on channel=0 note=77 velocity=48 time=7
note_on channel=0 note=71 velocity=72 time=69
note_on channel=0 note=67 velocity=58 time=11
note_on channel=0 note=62 velocity=36 time=65
note_on channel=0 note=71 velocity=0 time=0
note_on channel=0 note=67 velocity=0 time=37
note_on channel=0 note=65 velocity=0 time=33
note_on channel=0 note=60 velocity=0 time=16
note_on channel=0 note=62 velocity=0 time=11
note_on channel=0 note=74 velocity=54 time=26
note_on channel=0 note=77 velocity=0 time=3
note_on channel=0 note=84 velocity=52 time=13
note_on channel=0 note=74 velocity=0 time=78
note_on channel=0 note=74 velocity=49 time=103
note_on channel=0 note=84 velocity=0 time=7
note_on channel=0 note=74 velocity=0 time=174
note_on channel=0 note=80 velocity=31 time=22
note_on channel=0 note=52 velocity=31 time=55
note_on channel=0 note=74 velocity=39 time=50
note_on channel=0 note=88 velocity=53 time=24
note_on channel=0 note=80 velocity=0 time=75
note_on channel=0 note=84 velocity=32 time=156
note_on channel=0 note=84 velocity=0 time=81
note_on channel=0 note=67 velocity=56 time=4
note_on channel=0 note=88 velocity=0 time=5
note_on channel=0 note=65 velocity=44 time=11
note_on channel=0 note=59 velocity=49 time=48
note_on channel=0 note=65 velocity=0 time=28
note_on channel=0 note=74 velocity=0 time=10
note_on channel=0 note=74 velocity=61 time=90
note_on channel=0 note=67 velocity=0 time=26
note_on channel=0 note=52 velocity=0 time=96
note_on channel=0 note=59 velocity=0 time=0
note_on channel=0 note=81 velocity=57 time=37
note_on channel=0 note=74 velocity=0 time=35
note_on channel=0 note=59 velocity=55 time=42
note_on channel=0 note=67 velocity=60 time=7
note_on channel=0 note=52 velocity=53 time=15
note_on channel=0 note=52 velocity=0 time=137
note_on channel=0 note=74 velocity=63 time=13
note_on channel=0 note=59 velocity=0 time=7
note_on channel=0 note=67 velocity=0 time=46
note_on channel=0 note=81 velocity=0 time=1
note_on channel=0 note=71 velocity=69 time=220
note_on channel=0 note=74 velocity=0 time=39
note_on channel=0 note=77 velocity=52 time=153
note_on channel=0 note=71 velocity=0 time=66
note_on channel=0 note=65 velocity=38 time=51
note_on channel=0 note=77 velocity=0 time=94
note_on channel=0 note=40 velocity=80 time=20
note_on channel=0 note=65 velocity=0 time=118
note_on channel=0 note=71 velocity=46 time=66
note_on channel=0 note=65 velocity=57 time=26
note_on channel=0 note=71 velocity=0 time=47
note_on channel=0 note=71 velocity=57 time=74
note_on channel=0 note=65 velocity=0 time=35
note_on channel=0 note=77 velocity=46 time=70
note_on channel=0 note=65 velocity=44 time=14
note_on channel=0 note=47 velocity=21 time=1
note_on channel=0 note=53 velocity=51 time=3
note_on channel=0 note=52 velocity=57 time=13
note_on channel=0 note=65 velocity=0 time=90
note_on channel=0 note=77 velocity=0 time=5
note_on channel=0 note=40 velocity=0 time=10
note_on channel=0 note=52 velocity=0 time=1
note_on channel=0 note=53 velocity=0 time=45
note_on channel=0 note=47 velocity=0 time=15
note_on channel=0 note=65 velocity=44 time=33
note_on channel=0 note=71 velocity=0 time=9
note_on channel=0 note=65 velocity=0 time=157
note_on channel=0 note=71 velocity=49 time=0
note_on channel=0 note=65 velocity=48 time=170
note_on channel=0 note=53 velocity=36 time=9
note_on channel=0 note=52 velocity=43 time=11
note_on channel=0 note=53 velocity=0 time=60
note_on channel=0 note=77 velocity=57 time=53
note_on channel=0 note=65 velocity=0 time=32
note_on channel=0 note=71 velocity=0 time=1
note_on channel=0 note=65 velocity=58 time=127
note_on channel=0 note=77 velocity=0 time=53
note_on channel=0 note=65 velocity=0 time=94
note_on channel=0 note=59 velocity=53 time=14
note_on channel=0 note=71 velocity=40 time=27
note_on channel=0 note=65 velocity=60 time=158
note_on channel=0 note=77 velocity=54 time=69
note_on channel=0 note=59 velocity=0 time=16
note_on channel=0 note=52 velocity=0 time=6
note_on channel=0 note=65 velocity=0 time=42
note_on channel=0 note=71 velocity=0 time=30
note_on channel=0 note=59 velocity=48 time=23
note_on channel=0 note=64 velocity=65 time=3
note_on channel=0 note=52 velocity=56 time=7
note_on channel=0 note=77 velocity=0 time=83
note_on channel=0 note=65 velocity=60 time=49
note_on channel=0 note=64 velocity=0 time=30
note_on channel=0 note=71 velocity=45 time=14
note_on channel=0 note=59 velocity=0 time=36
note_on channel=0 note=52 velocity=0 time=19
note_on channel=0 note=65 velocity=0 time=33
note_on channel=0 note=64 velocity=60 time=105
note_on channel=0 note=64 velocity=0 time=129
note_on channel=0 note=52 velocity=58 time=48
note_on channel=0 note=59 velocity=58 time=3
note_on channel=0 note=62 velocity=58 time=1
note_on channel=0 note=64 velocity=49 time=63
note_on channel=0 note=77 velocity=56 time=8
note_on channel=0 note=76 velocity=51 time=31
note_on channel=0 note=62 velocity=0 time=41
note_on channel=0 note=64 velocity=0 time=28
note_on channel=0 note=76 velocity=0 time=4
note_on channel=0 note=71 velocity=0 time=35
note_on channel=0 note=71 velocity=47 time=61
note_on channel=0 note=52 velocity=0 time=6
note_on channel=0 note=59 velocity=0 time=3
note_on channel=0 note=64 velocity=52 time=7
note_on channel=0 note=65 velocity=44 time=12
note_on channel=0 note=77 velocity=0 time=15
note_on channel=0 note=65 velocity=0 time=51
note_on channel=0 note=64 velocity=0 time=32
note_on channel=0 note=64 velocity=60 time=59
note_on channel=0 note=59 velocity=53 time=8
note_on channel=0 note=52 velocity=55 time=1
note_on channel=0 note=64 velocity=0 time=106
note_on channel=0 note=65 velocity=60 time=41
note_on channel=0 note=77 velocity=57 time=4
note_on channel=0 note=71 velocity=0 time=17
note_on channel=0 note=52 velocity=0 time=49
note_on channel=0 note=59 velocity=0 time=16
note_on channel=0 note=65 velocity=0 time=25
note_on channel=0 note=71 velocity=54 time=86
note_on channel=0 note=65 velocity=52 time=18
note_on channel=0 note=77 velocity=0 time=0
note_on channel=0 note=65 velocity=0 time=72
note_on channel=0 note=64 velocity=63 time=120
note_on channel=0 note=64 velocity=0 time=141
note_on channel=0 note=52 velocity=58 time=21
note_on channel=0 note=59 velocity=60 time=2
note_on channel=0 note=60 velocity=57 time=12
note_on channel=0 note=64 velocity=46 time=147
note_on channel=0 note=77 velocity=51 time=35
note_on channel=0 note=64 velocity=0 time=47
note_on channel=0 note=60 velocity=0 time=46
note_on channel=0 note=71 velocity=0 time=29
note_on channel=0 note=59 velocity=0 time=36
note_on channel=0 note=52 velocity=0 time=19
note_on channel=0 note=65 velocity=57 time=6
note_on channel=0 note=71 velocity=44 time=49
note_on channel=0 note=77 velocity=0 time=1
note_on channel=0 note=71 velocity=0 time=80
note_on channel=0 note=65 velocity=0 time=6
note_on channel=0 note=65 velocity=56 time=77
note_on channel=0 note=71 velocity=53 time=14
note_on channel=0 note=65 velocity=0 time=160
note_on channel=0 note=57 velocity=58 time=21
note_on channel=0 note=52 velocity=56 time=2
note_on channel=0 note=62 velocity=66 time=3
note_on channel=0 note=77 velocity=54 time=146
note_on channel=0 note=67 velocity=57 time=20
note_on channel=0 note=71 velocity=0 time=30
note_on channel=0 note=62 velocity=0 time=38
note_on channel=0 note=67 velocity=0 time=39
note_on channel=0 note=57 velocity=0 time=33
note_on channel=0 note=52 velocity=0 time=17
note_on channel=0 note=71 velocity=45 time=19
note_on channel=0 note=67 velocity=65 time=12
note_on channel=0 note=77 velocity=0 time=16
note_on channel=0 note=67 velocity=0 time=148
note_on channel=0 note=57 velocity=43 time=6
note_on channel=0 note=60 velocity=66 time=15
note_on channel=0 note=52 velocity=58 time=2
note_on channel=0 note=71 velocity=0 time=69
note_on channel=0 note=67 velocity=66 time=72
note_on channel=0 note=81 velocity=52 time=29
note_on channel=0 note=79 velocity=51 time=9
note_on channel=0 note=60 velocity=0 time=54
note_on channel=0 note=79 velocity=0 time=1
note_on channel=0 note=67 velocity=0 time=45
note_on channel=0 note=60 velocity=55 time=56
note_on channel=0 note=64 velocity=66 time=13
note_on channel=0 note=81 velocity=0 time=67
note_on channel=0 note=52 velocity=0 time=104
note_on channel=0 note=69 velocity=69 time=5
note_on channel=0 note=64 velocity=0 time=22
note_on channel=0 note=60 velocity=0 time=98
note_on channel=0 note=74 velocity=54 time=43
note_on channel=0 note=57 velocity=0 time=16
note_on channel=0 note=69 velocity=0 time=36
note_on channel=0 note=65 velocity=53 time=125
note_on channel=0 note=57 velocity=39 time=12
note_on channel=0 note=52 velocity=57 time=1
note_on channel=0 note=60 velocity=58 time=4
note_on channel=0 note=74 velocity=0 time=67
note_on channel=0 note=71 velocity=72 time=88
note_on channel=0 note=83 velocity=72 time=1
note_on channel=0 note=65 velocity=0 time=24
note_on channel=0 note=60 velocity=0 time=161
note_on channel=0 note=71 velocity=0 time=11
note_on channel=0 note=67 velocity=53 time=38
note_on channel=0 note=60 velocity=39 time=13
note_on channel=0 note=83 velocity=0 time=124
note_on channel=0 note=71 velocity=63 time=8
note_on channel=0 note=67 velocity=0 time=25
note_on channel=0 note=52 velocity=0 time=80
note_on channel=0 note=60 velocity=0 time=14
note_on channel=0 note=76 velocity=39 time=28
note_on channel=0 note=71 velocity=0 time=2
note_on channel=0 note=67 velocity=63 time=27
note_on channel=0 note=52 velocity=60 time=3
note_on channel=0 note=60 velocity=50 time=0
note_on channel=0 note=67 velocity=0 time=148
note_on channel=0 note=71 velocity=72 time=30
note_on channel=0 note=60 velocity=0 time=26
note_on channel=0 note=57 velocity=0 time=21
note_on channel=0 note=76 velocity=0 time=22
note_on channel=0 note=52 velocity=0 time=38
note_on channel=0 note=67 velocity=69 time=91
note_on channel=0 note=71 velocity=0 time=60
note_on channel=0 note=67 velocity=0 time=92
note_on channel=0 note=69 velocity=57 time=64
note_on channel=0 note=71 velocity=47 time=29
note_on channel=0 note=81 velocity=69 time=16
note_on channel=0 note=69 velocity=0 time=49
note_on channel=0 note=71 velocity=0 time=3
note_on channel=0 note=40 velocity=61 time=70
note_on channel=0 note=69 velocity=57 time=129
note_on channel=0 note=71 velocity=63 time=10
note_on channel=0 note=81 velocity=0 time=9
note_on channel=0 note=71 velocity=0 time=36
note_on channel=0 note=69 velocity=0 time=95
note_on channel=0 note=52 velocity=79 time=21
note_on channel=0 note=40 velocity=0 time=113
note_on channel=0 note=52 velocity=0 time=64
note_on channel=0 note=76 velocity=61 time=10
note_on channel=0 note=88 velocity=77 time=2
note_on channel=0 note=86 velocity=48 time=34
note_on channel=0 note=76 velocity=0 time=64
note_on channel=0 note=86 velocity=0 time=11
note_on channel=0 note=76 velocity=58 time=84
note_on channel=0 note=81 velocity=49 time=16
note_on channel=0 note=88 velocity=0 time=2
note_on channel=0 note=81 velocity=0 time=58
note_on channel=0 note=76 velocity=0 time=62
note_on channel=0 note=81 velocity=52 time=20
note_on channel=0 note=76 velocity=57 time=96
note_on channel=0 note=76 velocity=0 time=108
note_on channel=0 note=89 velocity=59 time=13
note_on channel=0 note=81 velocity=0 time=36
note_on channel=0 note=89 velocity=0 time=93
note_on channel=0 note=52 velocity=60 time=52
note_on channel=0 note=64 velocity=69 time=13
note_on channel=0 note=59 velocity=61 time=6
note_on channel=0 note=91 velocity=77 time=6
note_on channel=0 note=81 velocity=56 time=28
note_on channel=0 note=81 velocity=0 time=51
note_on channel=0 note=81 velocity=58 time=133
note_on channel=0 note=79 velocity=61 time=2
note_on channel=0 note=64 velocity=0 time=20
note_on channel=0 note=81 velocity=0 time=106
note_on channel=0 note=79 velocity=0 time=4
note_on channel=0 note=84 velocity=50 time=5
note_on channel=0 note=52 velocity=0 time=5
note_on channel=0 note=59 velocity=0 time=40
note_on channel=0 note=79 velocity=61 time=14
note_on channel=0 note=91 velocity=0 time=8
note_on channel=0 note=59 velocity=48 time=125
note_on channel=0 note=67 velocity=63 time=6
note_on channel=0 note=52 velocity=47 time=23
note_on channel=0 note=65 velocity=50 time=4
note_on channel=0 note=79 velocity=0 time=3
note_on channel=0 note=84 velocity=0 time=60
note_on channel=0 note=65 velocity=0 time=6
note_on channel=0 note=91 velocity=74 time=2
note_on channel=0 note=79 velocity=49 time=31
note_on channel=0 note=67 velocity=0 time=34
note_on channel=0 note=91 velocity=0 time=62
note_on channel=0 note=59 velocity=0 time=93
note_on channel=0 note=79 velocity=0 time=36
note_on channel=0 note=52 velocity=0 time=8
note_on channel=0 note=74 velocity=69 time=2
note_on channel=0 note=64 velocity=53 time=192
note_on channel=0 note=59 velocity=48 time=20
note_on channel=0 note=52 velocity=48 time=5
note_on channel=0 note=74 velocity=0 time=3
note_on channel=0 note=81 velocity=49 time=42
note_on channel=0 note=64 velocity=0 time=46
note_on channel=0 note=71 velocity=57 time=74
note_on channel=0 note=52 velocity=0 time=2
note_on channel=0 note=59 velocity=0 time=1
note_on channel=0 note=59 velocity=57 time=104
note_on channel=0 note=52 velocity=57 time=4
note_on channel=0 note=64 velocity=69 time=1
note_on channel=0 note=81 velocity=0 time=7
note_on channel=0 note=71 velocity=0 time=57
note_on channel=0 note=64 velocity=0 time=84
note_on channel=0 note=71 velocity=65 time=46
note_on channel=0 note=59 velocity=0 time=39
note_on channel=0 note=52 velocity=0 time=82
note_on channel=0 note=67 velocity=63 time=15
note_on channel=0 note=71 velocity=0 time=2
note_on channel=0 note=67 velocity=0 time=157
note_on channel=0 note=76 velocity=61 time=26
note_on channel=0 note=64 velocity=39 time=55
note_on channel=0 note=64 velocity=0 time=83
note_on channel=0 note=52 velocity=72 time=46
note_on channel=0 note=40 velocity=64 time=4
note_on channel=0 note=76 velocity=0 time=49
note_on channel=0 note=64 velocity=66 time=98
note_on channel=0 note=40 velocity=0 time=46
note_on channel=0 note=52 velocity=0 time=57
note_on channel=0 note=64 velocity=0 time=60
note_on channel=0 note=69 velocity=56 time=6
note_on channel=0 note=76 velocity=69 time=210
note_on channel=0 note=64 velocity=61 time=4
note_on channel=0 note=69 velocity=0 time=79
note_on channel=0 note=64 velocity=0 time=37
note_on channel=0 note=64 velocity=52 time=109
note_on channel=0 note=69 velocity=44 time=0
note_on channel=0 note=76 velocity=0 time=19
note_on channel=0 note=64 velocity=0 time=122
note_on channel=0 note=52 velocity=46 time=50
note_on channel=0 note=59 velocity=55 time=4
note_on channel=0 note=69 velocity=0 time=92
note_on channel=0 note=64 velocity=75 time=58
note_on channel=0 note=69 velocity=37 time=47
note_on channel=0 note=52 velocity=0 time=39
note_on channel=0 note=59 velocity=0 time=17
note_on channel=0 note=69 velocity=0 time=29
note_on channel=0 note=64 velocity=0 time=12
note_on channel=0 note=69 velocity=53 time=17
note_on channel=0 note=59 velocity=66 time=153
note_on channel=0 note=52 velocity=61 time=16
note_on channel=0 note=76 velocity=66 time=85
note_on channel=0 note=59 velocity=0 time=39
note_on channel=0 note=69 velocity=0 time=18
note_on channel=0 note=52 velocity=0 time=37
note_on channel=0 note=76 velocity=0 time=32
note_on channel=0 note=64 velocity=66 time=25
note_on channel=0 note=64 velocity=0 time=148
note_on channel=0 note=60 velocity=60 time=27
note_on channel=0 note=60 velocity=0 time=99
note_on channel=0 note=71 velocity=72 time=100
note_on channel=0 note=59 velocity=56 time=10
note_on channel=0 note=59 velocity=0 time=83
note_on channel=0 note=71 velocity=0 time=59
note_on channel=0 note=71 velocity=63 time=85
note_on channel=0 note=40 velocity=52 time=13
note_on channel=0 note=52 velocity=51 time=0
note_on channel=0 note=50 velocity=52 time=6
note_on channel=0 note=69 velocity=41 time=29
note_on channel=0 note=69 velocity=0 time=61
note_on channel=0 note=50 velocity=0 time=49
note_on channel=0 note=71 velocity=0 time=69
note_on channel=0 note=59 velocity=61 time=16
note_on channel=0 note=59 velocity=0 time=134
note_on channel=0 note=59 velocity=53 time=54
note_on channel=0 note=52 velocity=0 time=9
note_on channel=0 note=40 velocity=0 time=60
note_on channel=0 note=59 velocity=0 time=68
note_on channel=0 note=52 velocity=61 time=47
note_on channel=0 note=47 velocity=65 time=2
note_on channel=0 note=40 velocity=48 time=10
note_on channel=0 note=69 velocity=58 time=92
note_on channel=0 note=67 velocity=57 time=27
note_on channel=0 note=52 velocity=0 time=21
note_on channel=0 note=67 velocity=0 time=50
note_on channel=0 note=69 velocity=0 time=16
note_on channel=0 note=47 velocity=0 time=17
note_on channel=0 note=55 velocity=47 time=27
note_on channel=0 note=57 velocity=48 time=18
note_on channel=0 note=40 velocity=0 time=18
note_on channel=0 note=57 velocity=0 time=50
note_on channel=0 note=55 velocity=0 time=57
note_on channel=0 note=53 velocity=57 time=37
note_on channel=0 note=53 velocity=0 time=97
note_on channel=0 note=57 velocity=63 time=92
note_on channel=0 note=57 velocity=0 time=162
note_on channel=0 note=64 velocity=63 time=43
note_on channel=0 note=52 velocity=39 time=44
note_on channel=0 note=52 velocity=0 time=68
note_on channel=0 note=64 velocity=0 time=95
note_on channel=0 note=40 velocity=66 time=1
note_on channel=0 note=28 velocity=69 time=2
note_on channel=0 note=28 velocity=0 time=107
note_on channel=0 note=40 velocity=0 time=3
note_on channel=0 note=52 velocity=58 time=85
note_on channel=0 note=57 velocity=57 time=121
note_on channel=0 note=52 velocity=0 time=15
note_on channel=0 note=57 velocity=0 time=133
note_on channel=0 note=65 velocity=60 time=43
note_on channel=0 note=67 velocity=57 time=4
note_on channel=0 note=65 velocity=0 time=80
note_on channel=0 note=67 velocity=0 time=13
note_on channel=0 note=40 velocity=64 time=54
note_on channel=0 note=52 velocity=57 time=21
note_on channel=0 note=50 velocity=66 time=8
note_on channel=0 note=50 velocity=0 time=105
note_on channel=0 note=81 velocity=75 time=31
note_on channel=0 note=40 velocity=0 time=45
note_on channel=0 note=52 velocity=0 time=23
note_on channel=0 note=69 velocity=72 time=84
note_on channel=0 note=81 velocity=0 time=18
note_on channel=0 note=67 velocity=56 time=15
note_on channel=0 note=67 velocity=0 time=51
note_on channel=0 note=74 velocity=51 time=49
note_on channel=0 note=52 velocity=46 time=12
note_on channel=0 note=69 velocity=0 time=3
note_on channel=0 note=52 velocity=0 time=74
note_on channel=0 note=69 velocity=66 time=73
note_on channel=0 note=83 velocity=45 time=120
note_on channel=0 note=69 velocity=0 time=5
note_on channel=0 note=81 velocity=51 time=1
note_on channel=0 note=74 velocity=0 time=5
note_on channel=0 note=59 velocity=61 time=24
note_on channel=0 note=52 velocity=61 time=11
note_on channel=0 note=83 velocity=0 time=8
note_on channel=0 note=81 velocity=0 time=11
note_on channel=0 note=86 velocity=82 time=124
note_on channel=0 note=84 velocity=46 time=38
note_on channel=0 note=64 velocity=72 time=93
note_on channel=0 note=84 velocity=0 time=58
note_on channel=0 note=86 velocity=0 time=39
note_on channel=0 note=74 velocity=69 time=28
note_on channel=0 note=64 velocity=0 time=43
note_on channel=0 note=59 velocity=0 time=61
note_on channel=0 note=74 velocity=0 time=7
note_on channel=0 note=52 velocity=0 time=7
note_on channel=0 note=79 velocity=63 time=11
note_on channel=0 note=79 velocity=0 time=121
note_on channel=0 note=89 velocity=74 time=72
note_on channel=0 note=89 velocity=0 time=101
note_on channel=0 note=67 velocity=57 time=64
note_on channel=0 note=59 velocity=52 time=6
note_on channel=0 note=52 velocity=57 time=11
note_on channel=0 note=95 velocity=67 time=133
note_on channel=0 note=67 velocity=0 time=36
note_on channel=0 note=52 velocity=0 time=36
note_on channel=0 note=83 velocity=40 time=1
note_on channel=0 note=95 velocity=0 time=20
note_on channel=0 note=84 velocity=38 time=18
note_on channel=0 note=59 velocity=0 time=4
note_on channel=0 note=84 velocity=0 time=49
note_on channel=0 note=83 velocity=0 time=5
note_on channel=0 note=59 velocity=44 time=44
note_on channel=0 note=67 velocity=50 time=1
note_on channel=0 note=52 velocity=42 time=13
note_on channel=0 note=83 velocity=49 time=24
note_on channel=0 note=67 velocity=0 time=69
note_on channel=0 note=59 velocity=0 time=16
note_on channel=0 note=52 velocity=0 time=55
note_on channel=0 note=83 velocity=0 time=9
note_on channel=0 note=95 velocity=84 time=129
note_on channel=0 note=95 velocity=0 time=122
note_on channel=0 note=67 velocity=53 time=54
note_on channel=0 note=52 velocity=52 time=2
note_on channel=0 note=59 velocity=47 time=5
note_on channel=0 note=83 velocity=65 time=81
note_on channel=0 note=67 velocity=0 time=19
note_on channel=0 note=83 velocity=0 time=41
note_on channel=0 note=59 velocity=0 time=26
note_on channel=0 note=52 velocity=0 time=17
note_on channel=0 note=76 velocity=46 time=33
note_on channel=0 note=77 velocity=39 time=29
note_on channel=0 note=76 velocity=0 time=47
note_on channel=0 note=77 velocity=0 time=6
note_on channel=0 note=64 velocity=57 time=59
note_on channel=0 note=52 velocity=42 time=14
note_on channel=0 note=59 velocity=46 time=3
note_on channel=0 note=50 velocity=49 time=15
note_on channel=0 note=50 velocity=0 time=63
note_on channel=0 note=64 velocity=0 time=32
note_on channel=0 note=86 velocity=69 time=34
note_on channel=0 note=76 velocity=66 time=7
note_on channel=0 note=52 velocity=0 time=31
note_on channel=0 note=59 velocity=0 time=40
note_on channel=0 note=86 velocity=0 time=14
note_on channel=0 note=76 velocity=0 time=44
note_on channel=0 note=79 velocity=51 time=95
note_on channel=0 note=72 velocity=49 time=149
note_on channel=0 note=79 velocity=0 time=1
note_on channel=0 note=74 velocity=38 time=2
note_on channel=0 note=74 velocity=0 time=76
note_on channel=0 note=64 velocity=47 time=26
note_on channel=0 note=59 velocity=35 time=6
note_on channel=0 note=72 velocity=0 time=1
note_on channel=0 note=52 velocity=30 time=15
note_on channel=0 note=71 velocity=58 time=101
note_on channel=0 note=64 velocity=0 time=15
note_on channel=0 note=52 velocity=0 time=15
note_on channel=0 note=59 velocity=0 time=45
note_on channel=0 note=52 velocity=48 time=70
note_on channel=0 note=71 velocity=0 time=13
note_on channel=0 note=65 velocity=45 time=1
note_on channel=0 note=59 velocity=39 time=9
note_on channel=0 note=65 velocity=0 time=121
note_on channel=0 note=84 velocity=82 time=4
note_on channel=0 note=72 velocity=45 time=32
note_on channel=0 note=74 velocity=48 time=12
note_on channel=0 note=52 velocity=0 time=8
note_on channel=0 note=84 velocity=0 time=42
note_on channel=0 note=74 velocity=0 time=21
note_on channel=0 note=67 velocity=69 time=19
note_on channel=0 note=52 velocity=42 time=23
note_on channel=0 note=72 velocity=0 time=16
note_on channel=0 note=53 velocity=34 time=15
note_on channel=0 note=67 velocity=0 time=48
note_on channel=0 note=71 velocity=72 time=22
note_on channel=0 note=53 velocity=0 time=4
note_on channel=0 note=52 velocity=0 time=49
note_on channel=0 note=62 velocity=79 time=100
note_on channel=0 note=52 velocity=53 time=7
note_on channel=0 note=71 velocity=0 time=26
note_on channel=0 note=62 velocity=0 time=70
note_on channel=0 note=59 velocity=0 time=64
note_on channel=0 note=64 velocity=75 time=32
note_on channel=0 note=52 velocity=0 time=4
note_on channel=0 note=62 velocity=48 time=5
note_on channel=0 note=74 velocity=57 time=36
note_on channel=0 note=62 velocity=0 time=31
note_on channel=0 note=64 velocity=0 time=30
note_on channel=0 note=37 velocity=75 time=135
note_on channel=0 note=49 velocity=75 time=2
note_on channel=0 note=64 velocity=63 time=8
note_on channel=0 note=74 velocity=0 time=55
note_on channel=0 note=49 velocity=0 time=13
note_on channel=0 note=64 velocity=0 time=6
note_on channel=0 note=37 velocity=0 time=69
note_on channel=0 note=65 velocity=53 time=53
note_on channel=0 note=62 velocity=63 time=21
note_on channel=0 note=65 velocity=0 time=49
note_on channel=0 note=65 velocity=54 time=86
note_on channel=0 note=62 velocity=0 time=68
note_on channel=0 note=43 velocity=82 time=70
note_on channel=0 note=31 velocity=80 time=13
note_on channel=0 note=65 velocity=0 time=32
control_change channel=0 control=64 value=0 time=10
note_on channel=0 note=72 velocity=57 time=74
control_change channel=0 control=64 value=127 time=20
note_on channel=0 note=71 velocity=54 time=4
note_on channel=0 note=71 velocity=0 time=52
note_on channel=0 note=31 velocity=0 time=16
note_on channel=0 note=59 velocity=65 time=15
note_on channel=0 note=72 velocity=0 time=1
note_on channel=0 note=43 velocity=0 time=14
note_on channel=0 note=59 velocity=0 time=227
note_on channel=0 note=37 velocity=84 time=5
note_on channel=0 note=49 velocity=82 time=2
note_on channel=0 note=49 velocity=0 time=70
note_on channel=0 note=37 velocity=0 time=89
note_on channel=0 note=52 velocity=65 time=49
note_on channel=0 note=48 velocity=47 time=155
note_on channel=0 note=50 velocity=55 time=20
note_on channel=0 note=52 velocity=0 time=34
control_change channel=0 control=64 value=0 time=55
note_on channel=0 note=48 velocity=0 time=11
note_on channel=0 note=39 velocity=84 time=6
note_on channel=0 note=50 velocity=0 time=1
note_on channel=0 note=27 velocity=84 time=2
control_change channel=0 control=64 value=127 time=94
note_on channel=0 note=39 velocity=0 time=42
note_on channel=0 note=50 velocity=53 time=8
note_on channel=0 note=27 velocity=0 time=73
note_on channel=0 note=52 velocity=58 time=71
note_on channel=0 note=50 velocity=0 time=60
note_on channel=0 note=54 velocity=37 time=74
note_on channel=0 note=52 velocity=0 time=2
note_on channel=0 note=41 velocity=83 time=29
note_on channel=0 note=29 velocity=73 time=3
note_on channel=0 note=54 velocity=0 time=15
note_on channel=0 note=60 velocity=56 time=151
note_on channel=0 note=41 velocity=0 time=2
note_on channel=0 note=29 velocity=0 time=58
note_on channel=0 note=58 velocity=61 time=63
note_on channel=0 note=60 velocity=0 time=2
note_on channel=0 note=58 velocity=0 time=35
note_on channel=0 note=57 velocity=60 time=7
note_on channel=0 note=48 velocity=63 time=13
note_on channel=0 note=48 velocity=0 time=137
control_change channel=0 control=64 value=0 time=22
note_on channel=0 note=25 velocity=84 time=0
note_on channel=0 note=37 velocity=87 time=4
note_on channel=0 note=57 velocity=0 time=12
note_on channel=0 note=48 velocity=69 time=103
control_change channel=0 control=64 value=127 time=2
note_on channel=0 note=37 velocity=0 time=112
note_on channel=0 note=25 velocity=0 time=14
note_on channel=0 note=48 velocity=0 time=4
note_on channel=0 note=56 velocity=52 time=26
note_on channel=0 note=60 velocity=57 time=134
note_on channel=0 note=56 velocity=0 time=39
note_on channel=0 note=60 velocity=0 time=10
note_on channel=0 note=24 velocity=76 time=26
note_on channel=0 note=36 velocity=86 time=2
note_on channel=0 note=64 velocity=60 time=177
note_on channel=0 note=24 velocity=0 time=23
note_on channel=0 note=36 velocity=0 time=35
note_on channel=0 note=68 velocity=70 time=81
note_on channel=0 note=64 velocity=0 time=59
control_change channel=0 control=64 value=0 time=68
control_change channel=0 control=64 value=127 time=45
note_on channel=0 note=32 velocity=78 time=12
note_on channel=0 note=44 velocity=89 time=3
note_on channel=0 note=42 velocity=48 time=31
note_on channel=0 note=68 velocity=0 time=20
note_on channel=0 note=42 velocity=0 time=33
note_on channel=0 note=62 velocity=57 time=106
note_on channel=0 note=64 velocity=60 time=10
note_on channel=0 note=32 velocity=0 time=17
note_on channel=0 note=44 velocity=0 time=1
note_on channel=0 note=64 velocity=0 time=30
note_on channel=0 note=62 velocity=0 time=39
note_on channel=0 note=68 velocity=64 time=53
control_change channel=0 control=64 value=0 time=147
note_on channel=0 note=31 velocity=73 time=1
note_on channel=0 note=43 velocity=85 time=1
note_on channel=0 note=71 velocity=51 time=1
note_on channel=0 note=68 velocity=0 time=11
note_on channel=0 note=71 velocity=0 time=37
control_change channel=0 control=64 value=127 time=45
note_on channel=0 note=77 velocity=58 time=73
note_on channel=0 note=77 velocity=0 time=49
note_on channel=0 note=31 velocity=0 time=12
note_on channel=0 note=84 velocity=57 time=9
note_on channel=0 note=83 velocity=63 time=5
note_on channel=0 note=43 velocity=0 time=24
note_on channel=0 note=37 velocity=82 time=190
note_on channel=0 note=49 velocity=89 time=1
note_on channel=0 note=83 velocity=0 time=27
note_on channel=0 note=84 velocity=0 time=7
note_on channel=0 note=39 velocity=45 time=1
note_on channel=0 note=39 velocity=0 time=64
note_on channel=0 note=49 velocity=0 time=39
note_on channel=0 note=37 velocity=0 time=18
note_on channel=0 note=72 velocity=72 time=42
note_on channel=0 note=78 velocity=73 time=163
note_on channel=0 note=72 velocity=0 time=31
note_on channel=0 note=78 velocity=0 time=106
note_on channel=0 note=48 velocity=89 time=18
note_on channel=0 note=36 velocity=69 time=4
control_change channel=0 control=64 value=0 time=21
note_on channel=0 note=93 velocity=67 time=72
note_on channel=0 note=91 velocity=61 time=4
control_change channel=0 control=64 value=127 time=20
note_on channel=0 note=36 velocity=0 time=81
note_on channel=0 note=93 velocity=0 time=14
note_on channel=0 note=48 velocity=0 time=5
note_on channel=0 note=81 velocity=75 time=5
note_on channel=0 note=91 velocity=0 time=15
note_on channel=0 note=81 velocity=0 time=126
note_on channel=0 note=76 velocity=78 time=4
note_on channel=0 note=76 velocity=0 time=128
note_on channel=0 note=54 velocity=85 time=36
note_on channel=0 note=42 velocity=78 time=5
note_on channel=0 note=80 velocity=70 time=35
note_on channel=0 note=81 velocity=72 time=26
note_on channel=0 note=80 velocity=0 time=11
note_on channel=0 note=54 velocity=0 time=57
note_on channel=0 note=81 velocity=0 time=14
note_on channel=0 note=42 velocity=0 time=43
note_on channel=0 note=84 velocity=66 time=47
note_on channel=0 note=84 velocity=0 time=76
note_on channel=0 note=84 velocity=46 time=97
control_change channel=0 control=64 value=0 time=144
note_on channel=0 note=55 velocity=79 time=12
note_on channel=0 note=43 velocity=79 time=5
control_change channel=0 control=64 value=127 time=63
note_on channel=0 note=76 velocity=65 time=3
note_on channel=0 note=77 velocity=65 time=1
note_on channel=0 note=84 velocity=0 time=37
note_on channel=0 note=77 velocity=0 time=117
note_on channel=0 note=76 velocity=0 time=10
note_on channel=0 note=82 velocity=64 time=1
note_on channel=0 note=43 velocity=0 time=7
note_on channel=0 note=55 velocity=0 time=12
note_on channel=0 note=83 velocity=37 time=68
note_on channel=0 note=82 velocity=0 time=43
note_on channel=0 note=85 velocity=68 time=58
note_on channel=0 note=83 velocity=0 time=33
note_on channel=0 note=85 velocity=0 time=48
note_on channel=0 note=56 velocity=82 time=58
note_on channel=0 note=46 velocity=56 time=11
note_on channel=0 note=44 velocity=75 time=1
note_on channel=0 note=45 velocity=60 time=24
note_on channel=0 note=44 velocity=0 time=2
note_on channel=0 note=95 velocity=84 time=76
note_on channel=0 note=46 velocity=0 time=17
note_on channel=0 note=56 velocity=0 time=37
note_on channel=0 note=45 velocity=0 time=13
note_on channel=0 note=83 velocity=75 time=73
note_on channel=0 note=95 velocity=0 time=10
note_on channel=0 note=79 velocity=72 time=135
note_on channel=0 note=83 velocity=0 time=44
control_change channel=0 control=64 value=0 time=83
note_on channel=0 note=47 velocity=75 time=27
note_on channel=0 note=59 velocity=82 time=2
note_on channel=0 note=79 velocity=0 time=11
control_change channel=0 control=64 value=127 time=80
note_on channel=0 note=80 velocity=66 time=15
note_on channel=0 note=81 velocity=63 time=61
note_on channel=0 note=80 velocity=0 time=35
note_on channel=0 note=47 velocity=0 time=17
note_on channel=0 note=81 velocity=0 time=33
note_on channel=0 note=59 velocity=0 time=2
note_on channel=0 note=86 velocity=66 time=86
note_on channel=0 note=61 velocity=79 time=170
note_on channel=0 note=49 velocity=75 time=5
note_on channel=0 note=86 velocity=0 time=6
note_on channel=0 note=61 velocity=0 time=99
note_on channel=0 note=72 velocity=61 time=45
note_on channel=0 note=49 velocity=0 time=18
note_on channel=0 note=72 velocity=0 time=100
note_on channel=0 note=65 velocity=65 time=26
note_on channel=0 note=67 velocity=57 time=178
note_on channel=0 note=65 velocity=0 time=19
note_on channel=0 note=67 velocity=0 time=39
note_on channel=0 note=50 velocity=66 time=74
note_on channel=0 note=62 velocity=72 time=12
note_on channel=0 note=72 velocity=54 time=95
note_on channel=0 note=62 velocity=0 time=77
note_on channel=0 note=72 velocity=0 time=29
note_on channel=0 note=50 velocity=0 time=1
note_on channel=0 note=74 velocity=58 time=156
note_on channel=0 note=72 velocity=69 time=8
note_on channel=0 note=72 velocity=0 time=102
note_on channel=0 note=74 velocity=0 time=2
note_on channel=0 note=67 velocity=72 time=89
note_on channel=0 note=69 velocity=57 time=27
note_on channel=0 note=69 velocity=0 time=59
note_on channel=0 note=67 velocity=0 time=40
note_on channel=0 note=46 velocity=75 time=37
note_on channel=0 note=58 velocity=79 time=8
control_change channel=0 control=64 value=0 time=49
control_change channel=0 control=64 value=127 time=29
note_on channel=0 note=73 velocity=58 time=12
note_on channel=0 note=58 velocity=0 time=46
note_on channel=0 note=46 velocity=0 time=91
note_on channel=0 note=73 velocity=0 time=28
note_on channel=0 note=83 velocity=75 time=29
note_on channel=0 note=83 velocity=0 time=89
note_on channel=0 note=45 velocity=79 time=68
note_on channel=0 note=57 velocity=79 time=6
note_on channel=0 note=57 velocity=0 time=129
note_on channel=0 note=45 velocity=0 time=30
note_on channel=0 note=74 velocity=84 time=0
note_on channel=0 note=77 velocity=46 time=161
note_on channel=0 note=74 velocity=0 time=6
note_on channel=0 note=76 velocity=52 time=10
note_on channel=0 note=76 velocity=0 time=60
note_on channel=0 note=77 velocity=0 time=8
note_on channel=0 note=82 velocity=68 time=93
note_on channel=0 note=44 velocity=64 time=8
note_on channel=0 note=56 velocity=85 time=18
note_on channel=0 note=56 velocity=0 time=104
note_on channel=0 note=82 velocity=0 time=77
note_on channel=0 note=44 velocity=0 time=12
note_on channel=0 note=74 velocity=75 time=37
note_on channel=0 note=74 velocity=0 time=170
note_on channel=0 note=76 velocity=51 time=60
note_on channel=0 note=77 velocity=53 time=0
note_on channel=0 note=53 velocity=72 time=24
note_on channel=0 note=41 velocity=69 time=4
note_on channel=0 note=76 velocity=0 time=29
note_on channel=0 note=80 velocity=33 time=9
control_change channel=0 control=64 value=0 time=20
note_on channel=0 note=80 velocity=0 time=63
note_on channel=0 note=86 velocity=48 time=8
control_change channel=0 control=64 value=127 time=42
note_on channel=0 note=77 velocity=0 time=65
note_on channel=0 note=41 velocity=0 time=89
note_on channel=0 note=86 velocity=0 time=6
note_on channel=0 note=74 velocity=63 time=4
note_on channel=0 note=53 velocity=0 time=20
note_on channel=0 note=44 velocity=66 time=166
note_on channel=0 note=56 velocity=72 time=12
note_on channel=0 note=74 velocity=0 time=4
note_on channel=0 note=56 velocity=0 time=53
note_on channel=0 note=44 velocity=0 time=101
note_on channel=0 note=69 velocity=50 time=13
note_on channel=0 note=71 velocity=56 time=9
note_on channel=0 note=73 velocity=66 time=141
note_on channel=0 note=71 velocity=0 time=28
note_on channel=0 note=69 velocity=0 time=8
note_on channel=0 note=39 velocity=54 time=48
control_change channel=0 control=64 value=0 time=1
note_on channel=0 note=51 velocity=69 time=12
control_change channel=0 control=64 value=127 time=72
note_on channel=0 note=75 velocity=58 time=22
note_on channel=0 note=51 velocity=0 time=74
note_on channel=0 note=73 velocity=0 time=20
note_on channel=0 note=39 velocity=0 time=7
note_on channel=0 note=65 velocity=58 time=30
note_on channel=0 note=75 velocity=0 time=20
note_on channel=0 note=41 velocity=47 time=59
note_on channel=0 note=53 velocity=35 time=29
control_change channel=0 control=64 value=0 time=19
note_on channel=0 note=65 velocity=0 time=53
note_on channel=0 note=74 velocity=57 time=18
control_change channel=0 control=64 value=127 time=38
note_on channel=0 note=53 velocity=0 time=32
note_on channel=0 note=41 velocity=0 time=9
note_on channel=0 note=42 velocity=61 time=144
control_change channel=0 control=64 value=0 time=8
note_on channel=0 note=54 velocity=69 time=8
note_on channel=0 note=75 velocity=57 time=28
control_change channel=0 control=64 value=127 time=20
note_on channel=0 note=74 velocity=0 time=35
note_on channel=0 note=54 velocity=0 time=10
note_on channel=0 note=42 velocity=0 time=92
note_on channel=0 note=65 velocity=54 time=79
note_on channel=0 note=75 velocity=0 time=58
note_on channel=0 note=50 velocity=61 time=111
note_on channel=0 note=38 velocity=59 time=10
control_change channel=0 control=64 value=0 time=4
note_on channel=0 note=65 velocity=0 time=15
note_on channel=0 note=70 velocity=61 time=33
control_change channel=0 control=64 value=127 time=83
note_on channel=0 note=50 velocity=0 time=109
note_on channel=0 note=38 velocity=0 time=16
note_on channel=0 note=65 velocity=53 time=2
note_on channel=0 note=40 velocity=55 time=154
note_on channel=0 note=52 velocity=56 time=0
note_on channel=0 note=71 velocity=54 time=2
note_on channel=0 note=70 velocity=0 time=49
note_on channel=0 note=65 velocity=0 time=1
note_on channel=0 note=52 velocity=0 time=65
note_on channel=0 note=40 velocity=0 time=46
note_on channel=0 note=74 velocity=61 time=30
note_on channel=0 note=71 velocity=0 time=32
note_on channel=0 note=65 velocity=35 time=8
control_change channel=0 control=64 value=0 time=43
note_on channel=0 note=42 velocity=63 time=23
note_on channel=0 note=54 velocity=56 time=17
note_on channel=0 note=65 velocity=0 time=52
note_on channel=0 note=54 velocity=0 time=4
control_change channel=0 control=64 value=127 time=3
note_on channel=0 note=70 velocity=56 time=35
note_on channel=0 note=42 velocity=0 time=58
note_on channel=0 note=74 velocity=0 time=18
note_on channel=0 note=70 velocity=0 time=101
note_on channel=0 note=65 velocity=58 time=2
note_on channel=0 note=49 velocity=48 time=72
note_on channel=0 note=37 velocity=51 time=9
note_on channel=0 note=63 velocity=57 time=96
note_on channel=0 note=65 velocity=0 time=21
note_on channel=0 note=49 velocity=0 time=15
note_on channel=0 note=37 velocity=0 time=52
note_on channel=0 note=38 velocity=51 time=126
note_on channel=0 note=50 velocity=55 time=9
note_on channel=0 note=63 velocity=0 time=8
note_on channel=0 note=66 velocity=51 time=1
control_change channel=0 control=64 value=0 time=15
control_change channel=0 control=64 value=127 time=128
note_on channel=0 note=50 velocity=0 time=46
note_on channel=0 note=38 velocity=0 time=10
note_on channel=0 note=67 velocity=48 time=80
note_on channel=0 note=39 velocity=53 time=93
note_on channel=0 note=66 velocity=0 time=8
note_on channel=0 note=51 velocity=43 time=21
note_on channel=0 note=69 velocity=57 time=95
note_on channel=0 note=51 velocity=0 time=3
note_on channel=0 note=67 velocity=0 time=7
note_on channel=0 note=39 velocity=0 time=53
note_on channel=0 note=40 velocity=34 time=130
note_on channel=0 note=52 velocity=32 time=0
note_on channel=0 note=66 velocity=58 time=2
note_on channel=0 note=69 velocity=0 time=13
control_change channel=0 control=64 value=0 time=82
control_change channel=0 control=64 value=127 time=96
note_on channel=0 note=66 velocity=0 time=7
note_on channel=0 note=67 velocity=61 time=6
note_on channel=0 note=40 velocity=0 time=16
note_on channel=0 note=52 velocity=0 time=59
note_on channel=0 note=67 velocity=0 time=59
note_on channel=0 note=68 velocity=57 time=52
note_on channel=0 note=68 velocity=0 time=149
note_on channel=0 note=69 velocity=63 time=3
note_on channel=0 note=48 velocity=53 time=23
note_on channel=0 note=51 velocity=59 time=8
note_on channel=0 note=59 velocity=58 time=2
note_on channel=0 note=56 velocity=50 time=34
note_on channel=0 note=56 velocity=0 time=62
control_change channel=0 control=64 value=0 time=7
note_on channel=0 note=69 velocity=0 time=31
note_on channel=0 note=70 velocity=60 time=12
note_on channel=0 note=59 velocity=0 time=27
control_change channel=0 control=64 value=127 time=19
note_on channel=0 note=48 velocity=0 time=63
note_on channel=0 note=51 velocity=0 time=35
note_on channel=0 note=70 velocity=0 time=20
note_on channel=0 note=71 velocity=66 time=0
note_on channel=0 note=48 velocity=57 time=51
note_on channel=0 note=60 velocity=61 time=2
note_on channel=0 note=51 velocity=57 time=10
note_on channel=0 note=56 velocity=57 time=3
control_change channel=0 control=64 value=0 time=27
note_on channel=0 note=60 velocity=0 time=0
note_on channel=0 note=56 velocity=0 time=47
note_on channel=0 note=71 velocity=0 time=24
note_on channel=0 note=48 velocity=0 time=15
control_change channel=0 control=64 value=127 time=7
note_on channel=0 note=51 velocity=0 time=24
note_on channel=0 note=72 velocity=54 time=5
note_on channel=0 note=73 velocity=53 time=155
note_on channel=0 note=72 velocity=0 time=139
note_on channel=0 note=37 velocity=78 time=15
note_on channel=0 note=49 velocity=69 time=0
note_on channel=0 note=75 velocity=56 time=55
note_on channel=0 note=49 velocity=0 time=29
note_on channel=0 note=73 velocity=0 time=14
note_on channel=0 note=37 velocity=0 time=88
note_on channel=0 note=68 velocity=66 time=14
note_on channel=0 note=75 velocity=0 time=44
note_on channel=0 note=68 velocity=0 time=101
note_on channel=0 note=67 velocity=57 time=55
note_on channel=0 note=50 velocity=60 time=17
note_on channel=0 note=36 velocity=51 time=14
note_on channel=0 note=38 velocity=55 time=4
note_on channel=0 note=44 velocity=52 time=0
control_change channel=0 control=64 value=0 time=22
note_on channel=0 note=40 velocity=48 time=0
control_change channel=0 control=64 value=127 time=117
note_on channel=0 note=40 velocity=0 time=29
note_on channel=0 note=36 velocity=0 time=5
note_on channel=0 note=38 velocity=0 time=1
note_on channel=0 note=44 velocity=0 time=20
note_on channel=0 note=72 velocity=56 time=0
note_on channel=0 note=50 velocity=0 time=25
note_on channel=0 note=67 velocity=0 time=20
note_on channel=0 note=74 velocity=35 time=217
note_on channel=0 note=60 velocity=61 time=1
note_on channel=0 note=48 velocity=57 time=2
note_on channel=0 note=56 velocity=41 time=7
note_on channel=0 note=73 velocity=35 time=10
note_on channel=0 note=75 velocity=51 time=8
note_on channel=0 note=49 velocity=35 time=23
note_on channel=0 note=76 velocity=46 time=4
note_on channel=0 note=49 velocity=0 time=55
note_on channel=0 note=68 velocity=48 time=31
note_on channel=0 note=75 velocity=0 time=9
note_on channel=0 note=73 velocity=0 time=4
note_on channel=0 note=76 velocity=0 time=4
note_on channel=0 note=56 velocity=0 time=5
note_on channel=0 note=60 velocity=0 time=0
note_on channel=0 note=48 velocity=0 time=6
note_on channel=0 note=74 velocity=0 time=23
note_on channel=0 note=72 velocity=0 time=31
note_on channel=0 note=68 velocity=0 time=76
note_on channel=0 note=48 velocity=56 time=37
note_on channel=0 note=52 velocity=53 time=12
note_on channel=0 note=56 velocity=55 time=5
note_on channel=0 note=62 velocity=44 time=3
note_on channel=0 note=64 velocity=57 time=7
control_change channel=0 control=64 value=0 time=50
note_on channel=0 note=64 velocity=0 time=48
note_on channel=0 note=69 velocity=60 time=17
note_on channel=0 note=62 velocity=0 time=51
control_change channel=0 control=64 value=127 time=9
note_on channel=0 note=48 velocity=0 time=23
note_on channel=0 note=70 velocity=66 time=43
note_on channel=0 note=69 velocity=0 time=23
note_on channel=0 note=56 velocity=0 time=28
note_on channel=0 note=52 velocity=0 time=15
note_on channel=0 note=64 velocity=44 time=64
note_on channel=0 note=56 velocity=53 time=26
note_on channel=0 note=52 velocity=50 time=2
note_on channel=0 note=71 velocity=63 time=7
note_on channel=0 note=48 velocity=51 time=1
note_on channel=0 note=70 velocity=0 time=8
note_on channel=0 note=50 velocity=41 time=27
note_on channel=0 note=64 velocity=0 time=52
note_on channel=0 note=50 velocity=0 time=11
note_on channel=0 note=56 velocity=0 time=45
note_on channel=0 note=71 velocity=0 time=2
note_on channel=0 note=73 velocity=61 time=17
note_on channel=0 note=48 velocity=0 time=23
note_on channel=0 note=52 velocity=0 time=18
note_on channel=0 note=60 velocity=57 time=136
note_on channel=0 note=75 velocity=57 time=8
note_on channel=0 note=48 velocity=43 time=4
note_on channel=0 note=56 velocity=57 time=17
note_on channel=0 note=52 velocity=45 time=3
control_change channel=0 control=64 value=0 time=26
note_on channel=0 note=73 velocity=0 time=52
control_change channel=0 control=64 value=127 time=70
note_on channel=0 note=72 velocity=57 time=8
note_on channel=0 note=56 velocity=0 time=33
note_on channel=0 note=75 velocity=0 time=1
note_on channel=0 note=60 velocity=0 time=6
note_on channel=0 note=48 velocity=0 time=5
note_on channel=0 note=52 velocity=0 time=70
note_on channel=0 note=72 velocity=0 time=26
note_on channel=0 note=73 velocity=57 time=12
note_on channel=0 note=56 velocity=34 time=28
note_on channel=0 note=52 velocity=49 time=23
note_on channel=0 note=62 velocity=58 time=8
note_on channel=0 note=48 velocity=40 time=1
note_on channel=0 note=62 velocity=0 time=134
note_on channel=0 note=73 velocity=0 time=10
note_on channel=0 note=74 velocity=53 time=6
note_on channel=0 note=56 velocity=0 time=5
note_on channel=0 note=48 velocity=0 time=15
note_on channel=0 note=52 velocity=0 time=44
note_on channel=0 note=74 velocity=0 time=89
note_on channel=0 note=62 velocity=65 time=13
note_on channel=0 note=48 velocity=58 time=9
note_on channel=0 note=56 velocity=55 time=1
note_on channel=0 note=52 velocity=45 time=18
note_on channel=0 note=62 velocity=0 time=65
note_on channel=0 note=56 velocity=0 time=18
note_on channel=0 note=74 velocity=60 time=42
note_on channel=0 note=52 velocity=0 time=8
note_on channel=0 note=48 velocity=0 time=38
note_on channel=0 note=75 velocity=64 time=103
note_on channel=0 note=74 velocity=0 time=19
note_on channel=0 note=54 velocity=35 time=9
note_on channel=0 note=51 velocity=36 time=109
note_on channel=0 note=59 velocity=56 time=22
note_on channel=0 note=76 velocity=61 time=2
note_on channel=0 note=75 velocity=0 time=6
note_on channel=0 note=47 velocity=51 time=7
note_on channel=0 note=59 velocity=0 time=49
control_change channel=0 control=64 value=0 time=33
note_on channel=0 note=77 velocity=60 time=67
note_on channel=0 note=47 velocity=0 time=17
note_on channel=0 note=76 velocity=0 time=3
control_change channel=0 control=64 value=127 time=26
note_on channel=0 note=51 velocity=0 time=23
note_on channel=0 note=54 velocity=0 time=17
note_on channel=0 note=51 velocity=52 time=65
note_on channel=0 note=54 velocity=53 time=1
note_on channel=0 note=47 velocity=41 time=4
note_on channel=0 note=60 velocity=63 time=2
note_on channel=0 note=78 velocity=44 time=22
note_on channel=0 note=60 velocity=0 time=106
note_on channel=0 note=54 velocity=0 time=65
note_on channel=0 note=47 velocity=0 time=15
note_on channel=0 note=80 velocity=57 time=2
note_on channel=0 note=51 velocity=0 time=9
note_on channel=0 note=77 velocity=0 time=13
note_on channel=0 note=78 velocity=0 time=73
note_on channel=0 note=73 velocity=68 time=26
note_on channel=0 note=80 velocity=0 time=98
note_on channel=0 note=62 velocity=56 time=36
note_on channel=0 note=73 velocity=0 time=10
note_on channel=0 note=47 velocity=57 time=7
note_on channel=0 note=51 velocity=64 time=8
note_on channel=0 note=54 velocity=57 time=2
note_on channel=0 note=48 velocity=48 time=21
note_on channel=0 note=48 velocity=0 time=73
note_on channel=0 note=74 velocity=65 time=40
note_on channel=0 note=62 velocity=0 time=30
note_on channel=0 note=47 velocity=0 time=1
note_on channel=0 note=51 velocity=0 time=79
note_on channel=0 note=54 velocity=0 time=1
note_on channel=0 note=75 velocity=61 time=50
note_on channel=0 note=74 velocity=0 time=28
note_on channel=0 note=49 velocity=25 time=194
note_on channel=0 note=61 velocity=51 time=9
note_on channel=0 note=80 velocity=48 time=7
note_on channel=0 note=75 velocity=0 time=15
note_on channel=0 note=61 velocity=0 time=112
note_on channel=0 note=49 velocity=0 time=101
note_on channel=0 note=73 velocity=60 time=7
note_on channel=0 note=73 velocity=0 time=164
note_on channel=0 note=48 velocity=56 time=37
note_on channel=0 note=60 velocity=63 time=10
note_on channel=0 note=52 velocity=52 time=9
note_on channel=0 note=55 velocity=57 time=2
control_change channel=0 control=64 value=0 time=45
note_on channel=0 note=74 velocity=52 time=84
note_on channel=0 note=60 velocity=0 time=20
control_change channel=0 control=64 value=127 time=11
note_on channel=0 note=48 velocity=0 time=3
note_on channel=0 note=55 velocity=0 time=58
note_on channel=0 note=52 velocity=0 time=4
note_on channel=0 note=75 velocity=64 time=13
note_on channel=0 note=80 velocity=0 time=30
note_on channel=0 note=74 velocity=0 time=18
note_on channel=0 note=49 velocity=51 time=53
note_on channel=0 note=61 velocity=69 time=44
note_on channel=0 note=75 velocity=0 time=93
note_on channel=0 note=80 velocity=43 time=16
note_on channel=0 note=61 velocity=0 time=19
note_on channel=0 note=49 velocity=0 time=71
note_on channel=0 note=70 velocity=60 time=102
note_on channel=0 note=70 velocity=0 time=170
note_on channel=0 note=55 velocity=58 time=31
note_on channel=0 note=52 velocity=45 time=4
note_on channel=0 note=62 velocity=61 time=2
note_on channel=0 note=82 velocity=33 time=3
note_on channel=0 note=47 velocity=47 time=4
note_on channel=0 note=48 velocity=56 time=11
note_on channel=0 note=49 velocity=34 time=24
control_change channel=0 control=64 value=0 time=1
note_on channel=0 note=49 velocity=0 time=73
note_on channel=0 note=80 velocity=0 time=1
control_change channel=0 control=64 value=127 time=43
note_on channel=0 note=80 velocity=31 time=47
note_on channel=0 note=71 velocity=61 time=23
note_on channel=0 note=47 velocity=0 time=35
note_on channel=0 note=62 velocity=0 time=1
note_on channel=0 note=55 velocity=0 time=85
note_on channel=0 note=52 velocity=0 time=10
note_on channel=0 note=48 velocity=0 time=36
note_on channel=0 note=75 velocity=63 time=8
note_on channel=0 note=80 velocity=0 time=10
note_on channel=0 note=82 velocity=0 time=13
note_on channel=0 note=71 velocity=0 time=2
note_on channel=0 note=82 velocity=63 time=157
note_on channel=0 note=62 velocity=55 time=4
note_on channel=0 note=48 velocity=41 time=14
note_on channel=0 note=52 velocity=56 time=1
note_on channel=0 note=55 velocity=57 time=1
note_on channel=0 note=75 velocity=0 time=27
note_on channel=0 note=62 velocity=0 time=108
note_on channel=0 note=55 velocity=0 time=29
note_on channel=0 note=68 velocity=63 time=9
note_on channel=0 note=52 velocity=0 time=12
note_on channel=0 note=82 velocity=0 time=0
note_on channel=0 note=68 velocity=0 time=126
note_on channel=0 note=56 velocity=56 time=11
note_on channel=0 note=54 velocity=48 time=6
note_on channel=0 note=53 velocity=47 time=47
note_on channel=0 note=48 velocity=0 time=20
note_on channel=0 note=53 velocity=0 time=57
note_on channel=0 note=54 velocity=0 time=3
note_on channel=0 note=69 velocity=60 time=40
note_on channel=0 note=56 velocity=0 time=8
note_on channel=0 note=69 velocity=0 time=156
note_on channel=0 note=51 velocity=59 time=13
note_on channel=0 note=70 velocity=43 time=6
note_on channel=0 note=61 velocity=49 time=14
note_on channel=0 note=63 velocity=66 time=3
note_on channel=0 note=61 velocity=0 time=70
note_on channel=0 note=63 velocity=0 time=21
note_on channel=0 note=78 velocity=63 time=80
note_on channel=0 note=70 velocity=0 time=8
note_on channel=0 note=51 velocity=0 time=9
note_on channel=0 note=54 velocity=39 time=174
note_on channel=0 note=58 velocity=57 time=13
note_on channel=0 note=68 velocity=60 time=15
note_on channel=0 note=51 velocity=42 time=12
note_on channel=0 note=50 velocity=51 time=4
note_on channel=0 note=51 velocity=0 time=79
note_on channel=0 note=50 velocity=0 time=32
note_on channel=0 note=58 velocity=0 time=11
note_on channel=0 note=78 velocity=0 time=5
note_on channel=0 note=68 velocity=0 time=3
note_on channel=0 note=54 velocity=0 time=32
note_on channel=0 note=67 velocity=51 time=59
note_on channel=0 note=50 velocity=17 time=200
note_on channel=0 note=62 velocity=58 time=7
note_on channel=0 note=54 velocity=55 time=9
note_on channel=0 note=58 velocity=61 time=9
note_on channel=0 note=67 velocity=0 time=44
control_change channel=0 control=64 value=0 time=26
note_on channel=0 note=67 velocity=51 time=68
control_change channel=0 control=64 value=127 time=52
note_on channel=0 note=62 velocity=0 time=25
note_on channel=0 note=58 velocity=0 time=67
note_on channel=0 note=68 velocity=53 time=29
note_on channel=0 note=54 velocity=0 time=4
note_on channel=0 note=67 velocity=0 time=1
note_on channel=0 note=68 velocity=0 time=127
note_on channel=0 note=69 velocity=60 time=45
note_on channel=0 note=64 velocity=48 time=24
note_on channel=0 note=58 velocity=52 time=11
note_on channel=0 note=54 velocity=53 time=11
note_on channel=0 note=50 velocity=0 time=56
note_on channel=0 note=69 velocity=0 time=35
note_on channel=0 note=70 velocity=56 time=8
note_on channel=0 note=58 velocity=0 time=32
note_on channel=0 note=54 velocity=0 time=25
note_on channel=0 note=64 velocity=0 time=5
note_on channel=0 note=70 velocity=0 time=16
note_on channel=0 note=71 velocity=66 time=66
note_on channel=0 note=71 velocity=0 time=136
note_on channel=0 note=72 velocity=53 time=29
note_on channel=0 note=56 velocity=57 time=114
note_on channel=0 note=65 velocity=42 time=8
note_on channel=0 note=52 velocity=44 time=9
note_on channel=0 note=59 velocity=53 time=8
note_on channel=0 note=64 velocity=41 time=8
note_on channel=0 note=65 velocity=0 time=50
note_on channel=0 note=73 velocity=48 time=4
note_on channel=0 note=64 velocity=0 time=5
note_on channel=0 note=72 velocity=0 time=61
note_on channel=0 note=59 velocity=0 time=3
note_on channel=0 note=52 velocity=0 time=37
note_on channel=0 note=56 velocity=0 time=19
note_on channel=0 note=75 velocity=56 time=53
note_on channel=0 note=73 velocity=0 time=44
note_on channel=0 note=73 velocity=49 time=81
note_on channel=0 note=75 velocity=0 time=129
note_on channel=0 note=48 velocity=38 time=35
note_on channel=0 note=56 velocity=64 time=11
note_on channel=0 note=62 velocity=57 time=2
note_on channel=0 note=72 velocity=51 time=35
control_change channel=0 control=64 value=0 time=15
note_on channel=0 note=73 velocity=0 time=121
control_change channel=0 control=64 value=127 time=9
note_on channel=0 note=48 velocity=0 time=64
note_on channel=0 note=71 velocity=56 time=14
note_on channel=0 note=62 velocity=0 time=19
note_on channel=0 note=72 velocity=0 time=16
note_on channel=0 note=56 velocity=0 time=56
note_on channel=0 note=72 velocity=47 time=34
note_on channel=0 note=71 velocity=0 time=12
note_on channel=0 note=56 velocity=53 time=56
note_on channel=0 note=64 velocity=48 time=20
note_on channel=0 note=48 velocity=41 time=24
note_on channel=0 note=54 velocity=52 time=38
note_on channel=0 note=64 velocity=0 time=45
note_on channel=0 note=73 velocity=61 time=12
note_on channel=0 note=48 velocity=0 time=31
note_on channel=0 note=72 velocity=0 time=11
note_on channel=0 note=56 velocity=0 time=34
note_on channel=0 note=54 velocity=0 time=3
note_on channel=0 note=75 velocity=57 time=102
note_on channel=0 note=73 velocity=0 time=85
note_on channel=0 note=68 velocity=58 time=88
note_on channel=0 note=46 velocity=61 time=8
note_on channel=0 note=58 velocity=61 time=35
note_on channel=0 note=68 velocity=0 time=32
note_on channel=0 note=75 velocity=0 time=29
note_on channel=0 note=58 velocity=0 time=47
note_on channel=0 note=80 velocity=53 time=67
note_on channel=0 note=78 velocity=34 time=70
note_on channel=0 note=46 velocity=0 time=32
note_on channel=0 note=78 velocity=0 time=20
note_on channel=0 note=68 velocity=56 time=69
note_on channel=0 note=68 velocity=0 time=95
note_on channel=0 note=54 velocity=51 time=20
note_on channel=0 note=60 velocity=66 time=1
note_on channel=0 note=51 velocity=57 time=1
control_change channel=0 control=64 value=0 time=4
note_on channel=0 note=46 velocity=33 time=95
note_on channel=0 note=47 velocity=31 time=10
control_change channel=0 control=64 value=127 time=24
note_on channel=0 note=46 velocity=0 time=40
note_on channel=0 note=47 velocity=0 time=2
note_on channel=0 note=60 velocity=0 time=12
note_on channel=0 note=69 velocity=58 time=0
note_on channel=0 note=80 velocity=0 time=90
note_on channel=0 note=51 velocity=0 time=20
note_on channel=0 note=54 velocity=0 time=24
note_on channel=0 note=73 velocity=58 time=7
note_on channel=0 note=69 velocity=0 time=31
note_on channel=0 note=75 velocity=35 time=26
note_on channel=0 note=75 velocity=0 time=48
note_on channel=0 note=80 velocity=48 time=63
note_on channel=0 note=61 velocity=75 time=3
note_on channel=0 note=49 velocity=55 time=17
note_on channel=0 note=73 velocity=0 time=17
note_on channel=0 note=51 velocity=34 time=29
note_on channel=0 note=49 velocity=0 time=54
note_on channel=0 note=61 velocity=0 time=12
note_on channel=0 note=51 velocity=0 time=16
note_on channel=0 note=70 velocity=63 time=40
note_on channel=0 note=80 velocity=0 time=27
note_on channel=0 note=75 velocity=28 time=20
note_on channel=0 note=70 velocity=0 time=79
note_on channel=0 note=71 velocity=50 time=51
note_on channel=0 note=75 velocity=0 time=22
note_on channel=0 note=48 velocity=53 time=31
note_on channel=0 note=52 velocity=43 time=6
note_on channel=0 note=62 velocity=56 time=12
note_on channel=0 note=56 velocity=46 time=6
control_change channel=0 control=64 value=0 time=33
note_on channel=0 note=71 velocity=0 time=15
note_on channel=0 note=62 velocity=0 time=111
control_change channel=0 control=64 value=127 time=4
note_on channel=0 note=71 velocity=51 time=4
note_on channel=0 note=48 velocity=0 time=14
note_on channel=0 note=52 velocity=0 time=23
note_on channel=0 note=50 velocity=55 time=83
note_on channel=0 note=54 velocity=51 time=29
note_on channel=0 note=73 velocity=66 time=17
note_on channel=0 note=54 velocity=0 time=46
note_on channel=0 note=71 velocity=0 time=36
note_on channel=0 note=54 velocity=49 time=22
note_on channel=0 note=64 velocity=58 time=2
note_on channel=0 note=73 velocity=0 time=150
note_on channel=0 note=83 velocity=61 time=0
note_on channel=0 note=64 velocity=0 time=44
note_on channel=0 note=56 velocity=0 time=9
note_on channel=0 note=54 velocity=0 time=12
note_on channel=0 note=72 velocity=63 time=122
note_on channel=0 note=83 velocity=0 time=59
note_on channel=0 note=65 velocity=40 time=42
note_on channel=0 note=72 velocity=0 time=70
note_on channel=0 note=54 velocity=57 time=9
note_on channel=0 note=56 velocity=57 time=3
note_on channel=0 note=65 velocity=0 time=99
note_on channel=0 note=50 velocity=0 time=29
note_on channel=0 note=72 velocity=56 time=49
note_on channel=0 note=71 velocity=57 time=4
note_on channel=0 note=56 velocity=0 time=5
note_on channel=0 note=54 velocity=0 time=15
note_on channel=0 note=75 velocity=60 time=136
note_on channel=0 note=71 velocity=0 time=3
note_on channel=0 note=72 velocity=0 time=21
note_on channel=0 note=51 velocity=57 time=113
note_on channel=0 note=60 velocity=65 time=3
note_on channel=0 note=54 velocity=64 time=8
note_on channel=0 note=47 velocity=55 time=17
note_on channel=0 note=75 velocity=0 time=38
note_on channel=0 note=72 velocity=63 time=77
note_on channel=0 note=60 velocity=0 time=13
note_on channel=0 note=77 velocity=54 time=2
note_on channel=0 note=54 velocity=0 time=62
note_on channel=0 note=47 velocity=0 time=14
note_on channel=0 note=51 velocity=0 time=9
note_on channel=0 note=72 velocity=0 time=98
note_on channel=0 note=81 velocity=60 time=35
note_on channel=0 note=72 velocity=31 time=19
note_on channel=0 note=77 velocity=0 time=14
note_on channel=0 note=72 velocity=0 time=75
note_on channel=0 note=81 velocity=0 time=14
note_on channel=0 note=51 velocity=57 time=9
note_on channel=0 note=54 velocity=50 time=10
note_on channel=0 note=47 velocity=56 time=14
note_on channel=0 note=48 velocity=47 time=6
note_on channel=0 note=74 velocity=72 time=94
note_on channel=0 note=84 velocity=82 time=1
note_on channel=0 note=48 velocity=0 time=68
note_on channel=0 note=47 velocity=0 time=26
note_on channel=0 note=54 velocity=0 time=7
note_on channel=0 note=51 velocity=0 time=45
note_on channel=0 note=62 velocity=57 time=53
note_on channel=0 note=84 velocity=0 time=7
note_on channel=0 note=51 velocity=43 time=13
note_on channel=0 note=54 velocity=41 time=8
note_on channel=0 note=47 velocity=39 time=18
note_on channel=0 note=54 velocity=0 time=58
note_on channel=0 note=74 velocity=0 time=11
note_on channel=0 note=62 velocity=0 time=75
note_on channel=0 note=73 velocity=52 time=8
note_on channel=0 note=51 velocity=0 time=4
note_on channel=0 note=47 velocity=0 time=8
note_on channel=0 note=62 velocity=47 time=124
note_on channel=0 note=47 velocity=57 time=1
note_on channel=0 note=51 velocity=42 time=6
note_on channel=0 note=54 velocity=47 time=0
note_on channel=0 note=73 velocity=0 time=121
note_on channel=0 note=62 velocity=0 time=31
note_on channel=0 note=71 velocity=58 time=34
note_on channel=0 note=81 velocity=63 time=1
note_on channel=0 note=51 velocity=0 time=28
note_on channel=0 note=54 velocity=0 time=10
note_on channel=0 note=47 velocity=0 time=16
note_on channel=0 note=47 velocity=48 time=124
note_on channel=0 note=62 velocity=53 time=2
note_on channel=0 note=60 velocity=53 time=26
note_on channel=0 note=71 velocity=0 time=22
note_on channel=0 note=60 velocity=0 time=64
note_on channel=0 note=62 velocity=0 time=21
note_on channel=0 note=81 velocity=0 time=17
note_on channel=0 note=51 velocity=50 time=53
note_on channel=0 note=54 velocity=43 time=4
note_on channel=0 note=54 velocity=0 time=110
note_on channel=0 note=51 velocity=0 time=25
note_on channel=0 note=59 velocity=52 time=3
note_on channel=0 note=75 velocity=73 time=124
note_on channel=0 note=71 velocity=69 time=1
note_on channel=0 note=59 velocity=0 time=43
note_on channel=0 note=51 velocity=46 time=3
note_on channel=0 note=51 velocity=0 time=57
note_on channel=0 note=71 velocity=0 time=21
note_on channel=0 note=54 velocity=55 time=56
note_on channel=0 note=51 velocity=49 time=35
note_on channel=0 note=75 velocity=0 time=43
note_on channel=0 note=78 velocity=32 time=12
note_on channel=0 note=75 velocity=38 time=93
note_on channel=0 note=68 velocity=66 time=5
note_on channel=0 note=80 velocity=55 time=54
note_on channel=0 note=75 velocity=0 time=22
note_on channel=0 note=62 velocity=42 time=22
note_on channel=0 note=51 velocity=0 time=5
note_on channel=0 note=68 velocity=0 time=47
note_on channel=0 note=51 velocity=61 time=26
note_on channel=0 note=78 velocity=0 time=6
note_on channel=0 note=54 velocity=0 time=49
note_on channel=0 note=62 velocity=0 time=27
note_on channel=0 note=51 velocity=0 time=94
note_on channel=0 note=54 velocity=66 time=11
note_on channel=0 note=80 velocity=0 time=34
note_on channel=0 note=51 velocity=59 time=92
note_on channel=0 note=54 velocity=0 time=38
note_on channel=0 note=73 velocity=70 time=35
note_on channel=0 note=67 velocity=57 time=11
control_change channel=0 control=64 value=0 time=12
control_change channel=0 control=64 value=127 time=88
note_on channel=0 note=67 velocity=0 time=123
note_on channel=0 note=48 velocity=23 time=22
note_on channel=0 note=54 velocity=56 time=48
note_on channel=0 note=48 velocity=0 time=65
note_on channel=0 note=73 velocity=0 time=3
note_on channel=0 note=47 velocity=0 time=3
note_on channel=0 note=51 velocity=0 time=17
note_on channel=0 note=73 velocity=53 time=76
note_on channel=0 note=66 velocity=66 time=12
note_on channel=0 note=51 velocity=45 time=7
note_on channel=0 note=73 velocity=0 time=170
note_on channel=0 note=66 velocity=0 time=3
note_on channel=0 note=51 velocity=0 time=42
note_on channel=0 note=61 velocity=61 time=7
note_on channel=0 note=54 velocity=0 time=51
note_on channel=0 note=61 velocity=0 time=93
note_on channel=0 note=64 velocity=58 time=18
note_on channel=0 note=70 velocity=63 time=7
note_on channel=0 note=64 velocity=0 time=136
note_on channel=0 note=62 velocity=51 time=36
note_on channel=0 note=54 velocity=48 time=46
note_on channel=0 note=54 velocity=0 time=80
note_on channel=0 note=70 velocity=0 time=4
note_on channel=0 note=62 velocity=0 time=43
note_on channel=0 note=73 velocity=68 time=37
note_on channel=0 note=61 velocity=57 time=29
note_on channel=0 note=61 velocity=0 time=81
note_on channel=0 note=52 velocity=57 time=50
note_on channel=0 note=63 velocity=46 time=191
note_on channel=0 note=70 velocity=37 time=5
note_on channel=0 note=64 velocity=42 time=31
note_on channel=0 note=73 velocity=0 time=12
note_on channel=0 note=63 velocity=0 time=34
note_on channel=0 note=64 velocity=0 time=16
note_on channel=0 note=70 velocity=0 time=25
note_on channel=0 note=58 velocity=57 time=8
note_on channel=0 note=70 velocity=63 time=181
note_on channel=0 note=58 velocity=0 time=12
note_on channel=0 note=62 velocity=47 time=4
note_on channel=0 note=64 velocity=43 time=9
note_on channel=0 note=64 velocity=0 time=72
note_on channel=0 note=62 velocity=0 time=6
note_on channel=0 note=62 velocity=41 time=84
note_on channel=0 note=64 velocity=37 time=13
note_on channel=0 note=70 velocity=0 time=10
note_on channel=0 note=64 velocity=0 time=53
note_on channel=0 note=56 velocity=35 time=6
note_on channel=0 note=62 velocity=0 time=60
note_on channel=0 note=61 velocity=59 time=30
note_on channel=0 note=73 velocity=51 time=2
note_on channel=0 note=56 velocity=0 time=19
note_on channel=0 note=52 velocity=0 time=30
note_on channel=0 note=58 velocity=57 time=86
note_on channel=0 note=61 velocity=0 time=16
note_on channel=0 note=73 velocity=0 time=11
note_on channel=0 note=56 velocity=51 time=134
note_on channel=0 note=58 velocity=0 time=42
note_on channel=0 note=60 velocity=57 time=138
note_on channel=0 note=56 velocity=0 time=8
note_on channel=0 note=66 velocity=42 time=41
note_on channel=0 note=60 velocity=0 time=76
note_on channel=0 note=56 velocity=56 time=48
note_on channel=0 note=66 velocity=0 time=23
note_on channel=0 note=58 velocity=48 time=120
note_on channel=0 note=56 velocity=0 time=31
note_on channel=0 note=58 velocity=0 time=38
note_on channel=0 note=68 velocity=57 time=54
note_on channel=0 note=58 velocity=69 time=2
note_on channel=0 note=58 velocity=0 time=111
note_on channel=0 note=52 velocity=55 time=43
note_on channel=0 note=68 velocity=0 time=61
note_on channel=0 note=56 velocity=51 time=56
note_on channel=0 note=52 velocity=0 time=93
note_on channel=0 note=56 velocity=0 time=68
note_on channel=0 note=59 velocity=55 time=13
note_on channel=0 note=63 velocity=36 time=77
note_on channel=0 note=63 velocity=0 time=70
note_on channel=0 note=59 velocity=0 time=13
note_on channel=0 note=56 velocity=38 time=52
note_on channel=0 note=56 velocity=0 time=67
note_on channel=0 note=59 velocity=44 time=54
note_on channel=0 note=66 velocity=52 time=2
note_on channel=0 note=59 velocity=0 time=104
note_on channel=0 note=57 velocity=43 time=68
note_on channel=0 note=66 velocity=0 time=12
note_on channel=0 note=47 velocity=31 time=60
note_on channel=0 note=57 velocity=0 time=79
note_on channel=0 note=51 velocity=55 time=22
note_on channel=0 note=63 velocity=56 time=29
note_on channel=0 note=47 velocity=0 time=3
note_on channel=0 note=56 velocity=57 time=10
note_on channel=0 note=51 velocity=0 time=15
note_on channel=0 note=56 velocity=0 time=114
note_on channel=0 note=63 velocity=0 time=41
note_on channel=0 note=51 velocity=57 time=3
note_on channel=0 note=57 velocity=52 time=205
note_on channel=0 note=51 velocity=0 time=6
note_on channel=0 note=63 velocity=57 time=11
note_on channel=0 note=57 velocity=0 time=70
note_on channel=0 note=63 velocity=0 time=81
note_on channel=0 note=54 velocity=49 time=7
note_on channel=0 note=54 velocity=0 time=108
note_on channel=0 note=66 velocity=55 time=60
note_on channel=0 note=56 velocity=49 time=24
note_on channel=0 note=56 velocity=0 time=70
note_on channel=0 note=66 velocity=0 time=3
note_on channel=0 note=51 velocity=49 time=23
note_on channel=0 note=51 velocity=0 time=63
note_on channel=0 note=54 velocity=57 time=116
note_on channel=0 note=54 velocity=0 time=130
note_on channel=0 note=55 velocity=41 time=4
note_on channel=0 note=55 velocity=0 time=70
note_on channel=0 note=51 velocity=55 time=28
note_on channel=0 note=55 velocity=51 time=136
note_on channel=0 note=51 velocity=0 time=26
note_on channel=0 note=61 velocity=56 time=16
note_on channel=0 note=55 velocity=0 time=71
note_on channel=0 note=54 velocity=52 time=71
note_on channel=0 note=61 velocity=0 time=28
note_on channel=0 note=54 velocity=0 time=86
note_on channel=0 note=63 velocity=49 time=44
note_on channel=0 note=54 velocity=48 time=40
note_on channel=0 note=54 velocity=0 time=57
note_on channel=0 note=51 velocity=53 time=30
note_on channel=0 note=63 velocity=0 time=64
note_on channel=0 note=51 velocity=0 time=22
note_on channel=0 note=61 velocity=57 time=95
note_on channel=0 note=55 velocity=57 time=7
note_on channel=0 note=55 velocity=0 time=98
note_on channel=0 note=54 velocity=53 time=22
note_on channel=0 note=54 velocity=0 time=105
note_on channel=0 note=63 velocity=52 time=25
note_on channel=0 note=61 velocity=0 time=61
note_on channel=0 note=55 velocity=50 time=48
note_on channel=0 note=63 velocity=0 time=23
note_on channel=0 note=55 velocity=0 time=105
note_on channel=0 note=56 velocity=55 time=0
note_on channel=0 note=51 velocity=52 time=38
note_on channel=0 note=66 velocity=35 time=10
note_on channel=0 note=56 velocity=0 time=70
note_on channel=0 note=66 velocity=0 time=14
note_on channel=0 note=54 velocity=52 time=60
note_on channel=0 note=51 velocity=0 time=61
note_on channel=0 note=58 velocity=59 time=53
note_on channel=0 note=54 velocity=0 time=37
note_on channel=0 note=56 velocity=57 time=87
note_on channel=0 note=58 velocity=0 time=0
note_on channel=0 note=56 velocity=0 time=88
note_on channel=0 note=51 velocity=49 time=75
note_on channel=0 note=60 velocity=48 time=8
note_on channel=0 note=60 velocity=0 time=158
note_on channel=0 note=54 velocity=56 time=51
note_on channel=0 note=66 velocity=60 time=127
note_on channel=0 note=51 velocity=0 time=6
note_on channel=0 note=60 velocity=52 time=8
note_on channel=0 note=60 velocity=0 time=71
note_on channel=0 note=54 velocity=0 time=8
note_on channel=0 note=58 velocity=57 time=48
note_on channel=0 note=66 velocity=0 time=21
note_on channel=0 note=58 velocity=0 time=53
note_on channel=0 note=61 velocity=61 time=80
note_on channel=0 note=70 velocity=45 time=6
note_on channel=0 note=61 velocity=0 time=73
note_on channel=0 note=60 velocity=39 time=24
note_on channel=0 note=70 velocity=0 time=40
note_on channel=0 note=60 velocity=0 time=45
note_on channel=0 note=54 velocity=59 time=38
note_on channel=0 note=54 velocity=0 time=140
note_on channel=0 note=63 velocity=56 time=12
note_on channel=0 note=63 velocity=0 time=75
note_on channel=0 note=61 velocity=55 time=43
note_on channel=0 note=61 velocity=0 time=90
note_on channel=0 note=70 velocity=60 time=63
note_on channel=0 note=63 velocity=61 time=1
note_on channel=0 note=60 velocity=52 time=95
note_on channel=0 note=63 velocity=0 time=16
note_on channel=0 note=70 velocity=0 time=74
note_on channel=0 note=60 velocity=0 time=27
note_on channel=0 note=63 velocity=49 time=21
note_on channel=0 note=73 velocity=55 time=15
note_on channel=0 note=58 velocity=47 time=61
note_on channel=0 note=63 velocity=0 time=14
note_on channel=0 note=73 velocity=0 time=84
note_on channel=0 note=58 velocity=0 time=68
note_on channel=0 note=65 velocity=66 time=3
note_on channel=0 note=65 velocity=0 time=133
note_on channel=0 note=63 velocity=64 time=8
note_on channel=0 note=63 velocity=0 time=110
note_on channel=0 note=75 velocity=63 time=54
note_on channel=0 note=66 velocity=56 time=39
note_on channel=0 note=66 velocity=0 time=57
note_on channel=0 note=54 velocity=61 time=66
note_on channel=0 note=75 velocity=0 time=65
note_on channel=0 note=65 velocity=63 time=80
note_on channel=0 note=75 velocity=34 time=32
note_on channel=0 note=73 velocity=51 time=22
note_on channel=0 note=63 velocity=53 time=56
note_on channel=0 note=75 velocity=0 time=3
note_on channel=0 note=65 velocity=0 time=8
control_change channel=0 control=64 value=0 time=88
note_on channel=0 note=65 velocity=56 time=40
note_on channel=0 note=63 velocity=0 time=28
note_on channel=0 note=75 velocity=57 time=4
control_change channel=0 control=64 value=127 time=29
note_on channel=0 note=61 velocity=56 time=23
note_on channel=0 note=65 velocity=0 time=19
note_on channel=0 note=73 velocity=0 time=52
note_on channel=0 note=75 velocity=0 time=42
note_on channel=0 note=66 velocity=70 time=47
note_on channel=0 note=78 velocity=57 time=3
note_on channel=0 note=61 velocity=0 time=61
note_on channel=0 note=66 velocity=0 time=46
note_on channel=0 note=63 velocity=57 time=23
note_on channel=0 note=78 velocity=0 time=15
note_on channel=0 note=63 velocity=0 time=49
note_on channel=0 note=68 velocity=68 time=60
note_on channel=0 note=78 velocity=39 time=54
note_on channel=0 note=61 velocity=48 time=40
note_on channel=0 note=68 velocity=0 time=2
note_on channel=0 note=78 velocity=0 time=35
note_on channel=0 note=65 velocity=57 time=18
note_on channel=0 note=61 velocity=0 time=63
note_on channel=0 note=65 velocity=0 time=39
note_on channel=0 note=66 velocity=70 time=27
note_on channel=0 note=78 velocity=48 time=28
note_on channel=0 note=78 velocity=0 time=61
note_on channel=0 note=66 velocity=0 time=4
note_on channel=0 note=61 velocity=57 time=4
note_on channel=0 note=54 velocity=0 time=25
note_on channel=0 note=65 velocity=57 time=103
note_on channel=0 note=75 velocity=64 time=11
note_on channel=0 note=61 velocity=0 time=22
note_on channel=0 note=65 velocity=0 time=66
note_on channel=0 note=66 velocity=60 time=20
note_on channel=0 note=75 velocity=0 time=63
note_on channel=0 note=66 velocity=0 time=45
note_on channel=0 note=80 velocity=66 time=54
note_on channel=0 note=68 velocity=68 time=17
note_on channel=0 note=61 velocity=50 time=5
note_on channel=0 note=68 velocity=0 time=51
note_on channel=0 note=80 velocity=0 time=37
note_on channel=0 note=65 velocity=50 time=45
note_on channel=0 note=65 velocity=0 time=64
note_on channel=0 note=61 velocity=0 time=7
note_on channel=0 note=66 velocity=61 time=16
note_on channel=0 note=54 velocity=36 time=16
note_on channel=0 note=75 velocity=53 time=2
note_on channel=0 note=54 velocity=0 time=92
note_on channel=0 note=66 velocity=0 time=3
note_on channel=0 note=61 velocity=56 time=9
note_on channel=0 note=75 velocity=0 time=44
note_on channel=0 note=66 velocity=55 time=58
note_on channel=0 note=61 velocity=0 time=61
note_on channel=0 note=66 velocity=0 time=33
note_on channel=0 note=71 velocity=42 time=39
note_on channel=0 note=71 velocity=0 time=62
note_on channel=0 note=54 velocity=61 time=38
note_on channel=0 note=65 velocity=56 time=82
note_on channel=0 note=78 velocity=55 time=54
note_on channel=0 note=65 velocity=0 time=4
note_on channel=0 note=68 velocity=70 time=1
note_on channel=0 note=68 velocity=0 time=102
note_on channel=0 note=78 velocity=0 time=4
note_on channel=0 note=61 velocity=62 time=12
note_on channel=0 note=54 velocity=0 time=54
note_on channel=0 note=66 velocity=68 time=71
note_on channel=0 note=75 velocity=51 time=17
note_on channel=0 note=61 velocity=0 time=14
note_on channel=0 note=65 velocity=58 time=47
note_on channel=0 note=75 velocity=0 time=13
note_on channel=0 note=66 velocity=0 time=28
note_on channel=0 note=65 velocity=0 time=38
note_on channel=0 note=54 velocity=52 time=56
note_on channel=0 note=65 velocity=57 time=26
note_on channel=0 note=77 velocity=44 time=46
note_on channel=0 note=76 velocity=46 time=3
note_on channel=0 note=65 velocity=0 time=45
note_on channel=0 note=76 velocity=0 time=28
note_on channel=0 note=77 velocity=0 time=9
note_on channel=0 note=61 velocity=57 time=27
note_on channel=0 note=54 velocity=0 time=150
note_on channel=0 note=61 velocity=0 time=8
note_on channel=0 note=68 velocity=61 time=11
note_on channel=0 note=77 velocity=41 time=11
note_on channel=0 note=68 velocity=0 time=35
note_on channel=0 note=56 velocity=32 time=1
note_on channel=0 note=65 velocity=60 time=35
note_on channel=0 note=77 velocity=0 time=7
note_on channel=0 note=54 velocity=36 time=47
note_on channel=0 note=65 velocity=0 time=54
note_on channel=0 note=75 velocity=57 time=38
note_on channel=0 note=56 velocity=0 time=14
note_on channel=0 note=66 velocity=56 time=1
note_on channel=0 note=54 velocity=0 time=7
note_on channel=0 note=61 velocity=57 time=34
note_on channel=0 note=66 velocity=0 time=32
note_on channel=0 note=75 velocity=0 time=34
note_on channel=0 note=75 velocity=47 time=105
note_on channel=0 note=65 velocity=57 time=8
note_on channel=0 note=61 velocity=0 time=31
note_on channel=0 note=54 velocity=51 time=71
note_on channel=0 note=65 velocity=0 time=23
note_on channel=0 note=75 velocity=0 time=64
note_on channel=0 note=61 velocity=50 time=39
note_on channel=0 note=54 velocity=0 time=61
note_on channel=0 note=73 velocity=55 time=41
note_on channel=0 note=63 velocity=62 time=14
note_on channel=0 note=61 velocity=0 time=36
note_on channel=0 note=63 velocity=0 time=59
note_on channel=0 note=54 velocity=52 time=27
note_on channel=0 note=73 velocity=0 time=16
note_on channel=0 note=65 velocity=65 time=107
note_on channel=0 note=76 velocity=53 time=23
note_on channel=0 note=65 velocity=0 time=91
note_on channel=0 note=76 velocity=0 time=36
note_on channel=0 note=54 velocity=0 time=24
note_on channel=0 note=61 velocity=45 time=2
note_on channel=0 note=61 velocity=0 time=137
note_on channel=0 note=63 velocity=57 time=19
note_on channel=0 note=63 velocity=0 time=79
note_on channel=0 note=54 velocity=45 time=89
note_on channel=0 note=54 velocity=0 time=99
note_on channel=0 note=61 velocity=56 time=18
note_on channel=0 note=61 velocity=0 time=99
note_on channel=0 note=60 velocity=41 time=144
note_on channel=0 note=63 velocity=62 time=64
note_on channel=0 note=60 velocity=0 time=1
note_on channel=0 note=75 velocity=42 time=18
note_on channel=0 note=63 velocity=0 time=55
note_on channel=0 note=75 velocity=0 time=14
note_on channel=0 note=54 velocity=49 time=28
note_on channel=0 note=65 velocity=51 time=161
note_on channel=0 note=54 velocity=0 time=28
note_on channel=0 note=77 velocity=39 time=19
note_on channel=0 note=76 velocity=39 time=6
note_on channel=0 note=65 velocity=0 time=51
note_on channel=0 note=77 velocity=0 time=8
note_on channel=0 note=61 velocity=53 time=9
note_on channel=0 note=76 velocity=0 time=2
note_on channel=0 note=61 velocity=0 time=146
note_on channel=0 note=63 velocity=69 time=12
note_on channel=0 note=75 velocity=40 time=18
note_on channel=0 note=63 velocity=0 time=39
note_on channel=0 note=54 velocity=53 time=3
note_on channel=0 note=75 velocity=0 time=24
note_on channel=0 note=54 velocity=0 time=128
note_on channel=0 note=58 velocity=62 time=49
note_on channel=0 note=70 velocity=35 time=27
note_on channel=0 note=58 velocity=0 time=67
note_on channel=0 note=70 velocity=0 time=14
note_on channel=0 note=54 velocity=57 time=17
note_on channel=0 note=63 velocity=64 time=125
note_on channel=0 note=75 velocity=61 time=5
note_on channel=0 note=54 velocity=0 time=4
note_on channel=0 note=75 velocity=0 time=46
note_on channel=0 note=63 velocity=0 time=36
note_on channel=0 note=42 velocity=47 time=38
note_on channel=0 note=58 velocity=61 time=160
note_on channel=0 note=70 velocity=55 time=8
note_on channel=0 note=42 velocity=0 time=6
note_on channel=0 note=58 velocity=0 time=92
note_on channel=0 note=70 velocity=0 time=2
note_on channel=0 note=54 velocity=59 time=29
note_on channel=0 note=54 velocity=0 time=98
note_on channel=0 note=75 velocity=64 time=48
note_on channel=0 note=63 velocity=66 time=1
note_on channel=0 note=75 velocity=0 time=46
note_on channel=0 note=63 velocity=0 time=5
note_on channel=0 note=54 velocity=52 time=80
note_on channel=0 note=54 velocity=0 time=131
note_on channel=0 note=58 velocity=61 time=16
note_on channel=0 note=70 velocity=48 time=7
note_on channel=0 note=58 velocity=0 time=35
note_on channel=0 note=70 velocity=0 time=44
note_on channel=0 note=54 velocity=64 time=48
note_on channel=0 note=54 velocity=0 time=96
note_on channel=0 note=63 velocity=57 time=56
note_on channel=0 note=75 velocity=52 time=6
note_on channel=0 note=75 velocity=0 time=73
note_on channel=0 note=63 velocity=0 time=3
note_on channel=0 note=51 velocity=57 time=54
note_on channel=0 note=61 velocity=64 time=127
note_on channel=0 note=61 velocity=0 time=47
control_change channel=0 control=64 value=0 time=64
note_on channel=0 note=61 velocity=55 time=55
note_on channel=0 note=61 velocity=0 time=117
note_on channel=0 note=65 velocity=48 time=10
note_on channel=0 note=77 velocity=44 time=14
control_change channel=0 control=64 value=127 time=44
note_on channel=0 note=65 velocity=0 time=25
note_on channel=0 note=77 velocity=0 time=1
note_on channel=0 note=58 velocity=55 time=64
note_on channel=0 note=63 velocity=64 time=112
note_on channel=0 note=51 velocity=0 time=11
note_on channel=0 note=58 velocity=0 time=21
note_on channel=0 note=63 velocity=0 time=57
note_on channel=0 note=51 velocity=45 time=35
note_on channel=0 note=63 velocity=62 time=29
note_on channel=0 note=65 velocity=63 time=112
note_on channel=0 note=63 velocity=0 time=3
note_on channel=0 note=77 velocity=41 time=44
note_on channel=0 note=76 velocity=39 time=14
note_on channel=0 note=65 velocity=0 time=40
note_on channel=0 note=77 velocity=0 time=15
note_on channel=0 note=51 velocity=0 time=7
note_on channel=0 note=58 velocity=57 time=0
note_on channel=0 note=76 velocity=0 time=8
note_on channel=0 note=63 velocity=51 time=110
note_on channel=0 note=68 velocity=73 time=20
note_on channel=0 note=80 velocity=55 time=14
note_on channel=0 note=63 velocity=0 time=12
note_on channel=0 note=58 velocity=0 time=32
note_on channel=0 note=80 velocity=0 time=23
note_on channel=0 note=68 velocity=0 time=22
note_on channel=0 note=58 velocity=39 time=70
note_on channel=0 note=65 velocity=60 time=10
note_on channel=0 note=58 velocity=0 time=72
note_on channel=0 note=65 velocity=0 time=24
note_on channel=0 note=65 velocity=60 time=41
note_on channel=0 note=77 velocity=38 time=30
note_on channel=0 note=76 velocity=40 time=12
note_on channel=0 note=65 velocity=0 time=29
note_on channel=0 note=77 velocity=0 time=31
note_on channel=0 note=63 velocity=69 time=16
note_on channel=0 note=76 velocity=0 time=0
note_on channel=0 note=63 velocity=0 time=133
note_on channel=0 note=80 velocity=61 time=30
note_on channel=0 note=68 velocity=68 time=4
note_on channel=0 note=80 velocity=0 time=73
note_on channel=0 note=68 velocity=0 time=7
note_on channel=0 note=51 velocity=64 time=9
note_on channel=0 note=64 velocity=55 time=158
note_on channel=0 note=76 velocity=51 time=1
note_on channel=0 note=65 velocity=54 time=1
note_on channel=0 note=64 velocity=0 time=54
note_on channel=0 note=65 velocity=0 time=3
note_on channel=0 note=51 velocity=0 time=16
note_on channel=0 note=76 velocity=0 time=38
note_on channel=0 note=63 velocity=62 time=3
note_on channel=0 note=63 velocity=0 time=92
note_on channel=0 note=82 velocity=66 time=72
note_on channel=0 note=70 velocity=64 time=1
note_on channel=0 note=58 velocity=36 time=25
note_on channel=0 note=70 velocity=0 time=32
note_on channel=0 note=82 velocity=0 time=3
note_on channel=0 note=65 velocity=54 time=66
note_on channel=0 note=58 velocity=0 time=42
note_on channel=0 note=65 velocity=0 time=76
note_on channel=0 note=68 velocity=63 time=13
note_on channel=0 note=80 velocity=53 time=4
note_on channel=0 note=68 velocity=0 time=58
note_on channel=0 note=80 velocity=0 time=10
note_on channel=0 note=58 velocity=62 time=29
note_on channel=0 note=65 velocity=61 time=132
note_on channel=0 note=58 velocity=0 time=30
note_on channel=0 note=76 velocity=56 time=8
note_on channel=0 note=63 velocity=61 time=50
note_on channel=0 note=76 velocity=0 time=9
note_on channel=0 note=65 velocity=0 time=7
note_on channel=0 note=63 velocity=0 time=115
note_on channel=0 note=68 velocity=75 time=53
note_on channel=0 note=58 velocity=47 time=1
note_on channel=0 note=80 velocity=64 time=2
note_on channel=0 note=68 velocity=0 time=82
note_on channel=0 note=80 velocity=0 time=40
note_on channel=0 note=65 velocity=63 time=25
note_on channel=0 note=58 velocity=0 time=83
note_on channel=0 note=65 velocity=0 time=27
note_on channel=0 note=70 velocity=75 time=7
note_on channel=0 note=82 velocity=61 time=7
note_on channel=0 note=82 velocity=0 time=64
note_on channel=0 note=70 velocity=0 time=33
note_on channel=0 note=68 velocity=63 time=28
note_on channel=0 note=68 velocity=0 time=70
note_on channel=0 note=65 velocity=63 time=56
note_on channel=0 note=77 velocity=39 time=37
note_on channel=0 note=76 velocity=40 time=13
note_on channel=0 note=65 velocity=0 time=45
note_on channel=0 note=76 velocity=0 time=30
note_on channel=0 note=77 velocity=0 time=17
note_on channel=0 note=68 velocity=63 time=8
note_on channel=0 note=68 velocity=0 time=36
note_on channel=0 note=67 velocity=52 time=11
note_on channel=0 note=67 velocity=0 time=52
note_on channel=0 note=70 velocity=75 time=36
note_on channel=0 note=82 velocity=57 time=8
note_on channel=0 note=70 velocity=0 time=85
note_on channel=0 note=82 velocity=0 time=42
note_on channel=0 note=68 velocity=73 time=24
note_on channel=0 note=68 velocity=0 time=118
note_on channel=0 note=72 velocity=69 time=14
note_on channel=0 note=84 velocity=54 time=15
note_on channel=0 note=84 velocity=0 time=55
note_on channel=0 note=72 velocity=0 time=13
note_on channel=0 note=68 velocity=63 time=41
note_on channel=0 note=68 velocity=0 time=131
note_on channel=0 note=82 velocity=57 time=34
note_on channel=0 note=70 velocity=68 time=3
note_on channel=0 note=70 velocity=0 time=88
note_on channel=0 note=56 velocity=56 time=28
note_on channel=0 note=82 velocity=0 time=7
note_on channel=0 note=58 velocity=36 time=47
note_on channel=0 note=58 velocity=0 time=85
note_on channel=0 note=72 velocity=72 time=10
note_on channel=0 note=84 velocity=58 time=8
note_on channel=0 note=72 velocity=0 time=52
note_on channel=0 note=84 velocity=0 time=2
note_on channel=0 note=64 velocity=72 time=111
note_on channel=0 note=64 velocity=0 time=123
note_on channel=0 note=68 velocity=63 time=25
note_on channel=0 note=80 velocity=56 time=4
note_on channel=0 note=80 velocity=0 time=59
note_on channel=0 note=68 velocity=0 time=35
note_on channel=0 note=61 velocity=57 time=21
note_on channel=0 note=56 velocity=0 time=122
note_on channel=0 note=61 velocity=0 time=16
note_on channel=0 note=63 velocity=62 time=13
note_on channel=0 note=75 velocity=52 time=15
note_on channel=0 note=63 velocity=0 time=32
note_on channel=0 note=75 velocity=0 time=26
note_on channel=0 note=63 velocity=57 time=58
note_on channel=0 note=63 velocity=0 time=105
note_on channel=0 note=64 velocity=61 time=39
note_on channel=0 note=65 velocity=53 time=26
note_on channel=0 note=77 velocity=45 time=3
note_on channel=0 note=76 velocity=49 time=4
note_on channel=0 note=64 velocity=0 time=51
note_on channel=0 note=65 velocity=0 time=2
note_on channel=0 note=76 velocity=0 time=5
note_on channel=0 note=77 velocity=0 time=5
note_on channel=0 note=51 velocity=62 time=41
note_on channel=0 note=68 velocity=82 time=156
note_on channel=0 note=80 velocity=66 time=4
note_on channel=0 note=51 velocity=0 time=41
note_on channel=0 note=63 velocity=66 time=36
note_on channel=0 note=80 velocity=0 time=0
note_on channel=0 note=68 velocity=0 time=2
note_on channel=0 note=63 velocity=0 time=133
note_on channel=0 note=66 velocity=75 time=18
note_on channel=0 note=78 velocity=56 time=18
note_on channel=0 note=66 velocity=0 time=76
note_on channel=0 note=78 velocity=0 time=44
note_on channel=0 note=56 velocity=62 time=8
control_change channel=0 control=64 value=0 time=19
note_on channel=0 note=58 velocity=46 time=17
control_change channel=0 control=64 value=127 time=52
note_on channel=0 note=58 velocity=0 time=12
note_on channel=0 note=56 velocity=0 time=74
note_on channel=0 note=70 velocity=68 time=5
note_on channel=0 note=82 velocity=58 time=4
note_on channel=0 note=70 velocity=0 time=35
note_on channel=0 note=82 velocity=0 time=29
note_on channel=0 note=70 velocity=75 time=75
control_change channel=0 control=64 value=0 time=83
note_on channel=0 note=70 velocity=0 time=16
control_change channel=0 control=64 value=127 time=23
note_on channel=0 note=77 velocity=72 time=50
note_on channel=0 note=89 velocity=70 time=4
control_change channel=0 control=64 value=0 time=3
note_on channel=0 note=89 velocity=0 time=69
note_on channel=0 note=77 velocity=0 time=8
note_on channel=0 note=66 velocity=64 time=42
control_change channel=0 control=64 value=127 time=112
note_on channel=0 note=66 velocity=0 time=32
note_on channel=0 note=87 velocity=59 time=61
note_on channel=0 note=73 velocity=52 time=41
note_on channel=0 note=87 velocity=0 time=14
note_on channel=0 note=73 velocity=0 time=54
note_on channel=0 note=64 velocity=34 time=122
note_on channel=0 note=64 velocity=0 time=159
note_on channel=0 note=66 velocity=55 time=14
note_on channel=0 note=78 velocity=48 time=8
note_on channel=0 note=52 velocity=51 time=3
note_on channel=0 note=66 velocity=0 time=88
note_on channel=0 note=78 velocity=0 time=6
note_on channel=0 note=52 velocity=0 time=37
note_on channel=0 note=64 velocity=53 time=58
note_on channel=0 note=52 velocity=36 time=4
note_on channel=0 note=64 velocity=0 time=63
note_on channel=0 note=52 velocity=0 time=1
note_on channel=0 note=69 velocity=63 time=44
note_on channel=0 note=81 velocity=61 time=9
note_on channel=0 note=69 velocity=0 time=87
note_on channel=0 note=81 velocity=0 time=10
note_on channel=0 note=56 velocity=61 time=22
note_on channel=0 note=56 velocity=0 time=146
note_on channel=0 note=78 velocity=63 time=26
note_on channel=0 note=66 velocity=68 time=8
note_on channel=0 note=68 velocity=37 time=35
note_on channel=0 note=78 velocity=0 time=2
note_on channel=0 note=66 velocity=0 time=9
note_on channel=0 note=68 velocity=0 time=37
note_on channel=0 note=64 velocity=38 time=86
note_on channel=0 note=56 velocity=26 time=60
note_on channel=0 note=64 velocity=0 time=59
note_on channel=0 note=53 velocity=51 time=13
note_on channel=0 note=56 velocity=0 time=58
note_on channel=0 note=64 velocity=50 time=111
note_on channel=0 note=53 velocity=0 time=23
note_on channel=0 note=74 velocity=48 time=23
note_on channel=0 note=74 velocity=0 time=83
note_on channel=0 note=64 velocity=0 time=177
note_on channel=0 note=77 velocity=69 time=7
note_on channel=0 note=67 velocity=48 time=24
note_on channel=0 note=69 velocity=53 time=9
note_on channel=0 note=67 velocity=0 time=53
note_on channel=0 note=69 velocity=0 time=6
note_on channel=0 note=77 velocity=0 time=20
note_on channel=0 note=53 velocity=55 time=37
note_on channel=0 note=64 velocity=56 time=134
note_on channel=0 note=63 velocity=62 time=128
note_on channel=0 note=64 velocity=0 time=7
note_on channel=0 note=70 velocity=48 time=24
note_on channel=0 note=70 velocity=0 time=56
note_on channel=0 note=63 velocity=0 time=22
note_on channel=0 note=58 velocity=51 time=27
note_on channel=0 note=53 velocity=0 time=63
note_on channel=0 note=58 velocity=0 time=66
note_on channel=0 note=74 velocity=66 time=59
note_on channel=0 note=62 velocity=31 time=33
note_on channel=0 note=62 velocity=0 time=44
note_on channel=0 note=74 velocity=0 time=26
note_on channel=0 note=64 velocity=42 time=141
note_on channel=0 note=53 velocity=44 time=38
note_on channel=0 note=55 velocity=47 time=13
note_on channel=0 note=64 velocity=0 time=23
note_on channel=0 note=55 velocity=0 time=54
note_on channel=0 note=66 velocity=44 time=66
note_on channel=0 note=53 velocity=0 time=9
note_on channel=0 note=58 velocity=47 time=14
note_on channel=0 note=66 velocity=0 time=65
note_on channel=0 note=58 velocity=0 time=43
note_on channel=0 note=54 velocity=51 time=86
note_on channel=0 note=42 velocity=53 time=90
note_on channel=0 note=54 velocity=0 time=32
note_on channel=0 note=42 velocity=0 time=22
note_on channel=0 note=74 velocity=78 time=49
note_on channel=0 note=74 velocity=0 time=84
note_on channel=0 note=52 velocity=52 time=313
note_on channel=0 note=40 velocity=42 time=125
note_on channel=0 note=52 velocity=0 time=16
note_on channel=0 note=40 velocity=0 time=93
note_on channel=0 note=56 velocity=50 time=49
note_on channel=0 note=68 velocity=58 time=4
note_on channel=0 note=56 velocity=0 time=50
note_on channel=0 note=68 velocity=0 time=99
note_on channel=0 note=56 velocity=39 time=29
note_on channel=0 note=58 velocity=38 time=36
note_on channel=0 note=56 velocity=0 time=39
note_on channel=0 note=58 velocity=0 time=9
note_on channel=0 note=46 velocity=38 time=70
note_on channel=0 note=61 velocity=35 time=62
note_on channel=0 note=72 velocity=35 time=2
note_on channel=0 note=46 velocity=0 time=24
note_on channel=0 note=61 velocity=0 time=23
note_on channel=0 note=72 velocity=0 time=10
note_on channel=0 note=58 velocity=57 time=66
note_on channel=0 note=58 velocity=0 time=58
note_on channel=0 note=49 velocity=59 time=151
note_on channel=0 note=49 velocity=0 time=152
note_on channel=0 note=60 velocity=57 time=10
note_on channel=0 note=60 velocity=0 time=109
note_on channel=0 note=61 velocity=61 time=3
note_on channel=0 note=61 velocity=0 time=99
note_on channel=0 note=68 velocity=64 time=30
note_on channel=0 note=68 velocity=0 time=151
note_on channel=0 note=60 velocity=52 time=222
note_on channel=0 note=48 velocity=58 time=4
note_on channel=0 note=50 velocity=57 time=7
note_on channel=0 note=60 velocity=0 time=108
note_on channel=0 note=50 velocity=0 time=30
note_on channel=0 note=76 velocity=63 time=5
note_on channel=0 note=64 velocity=61 time=3
note_on channel=0 note=48 velocity=0 time=1
note_on channel=0 note=64 velocity=0 time=97
note_on channel=0 note=48 velocity=50 time=36
note_on channel=0 note=62 velocity=51 time=10
note_on channel=0 note=76 velocity=0 time=0
note_on channel=0 note=62 velocity=0 time=107
note_on channel=0 note=48 velocity=0 time=29
note_on channel=0 note=66 velocity=70 time=38
note_on channel=0 note=66 velocity=0 time=77
note_on channel=0 note=48 velocity=55 time=43
note_on channel=0 note=62 velocity=36 time=30
note_on channel=0 note=62 velocity=0 time=52
note_on channel=0 note=48 velocity=0 time=50
note_on channel=0 note=65 velocity=44 time=49
note_on channel=0 note=65 velocity=0 time=71
note_on channel=0 note=55 velocity=55 time=7
note_on channel=0 note=77 velocity=66 time=134
note_on channel=0 note=55 velocity=0 time=36
note_on channel=0 note=49 velocity=53 time=78
note_on channel=0 note=61 velocity=52 time=21
note_on channel=0 note=77 velocity=0 time=14
note_on channel=0 note=49 velocity=0 time=110
note_on channel=0 note=61 velocity=0 time=0
note_on channel=0 note=68 velocity=66 time=14
note_on channel=0 note=68 velocity=0 time=123
note_on channel=0 note=50 velocity=51 time=27
note_on channel=0 note=62 velocity=53 time=7
note_on channel=0 note=56 velocity=48 time=25
control_change channel=0 control=64 value=0 time=95
note_on channel=0 note=69 velocity=65 time=34
note_on channel=0 note=81 velocity=54 time=26
control_change channel=0 control=64 value=127 time=39
note_on channel=0 note=62 velocity=0 time=42
note_on channel=0 note=50 velocity=0 time=36
note_on channel=0 note=56 velocity=0 time=35
note_on channel=0 note=69 velocity=0 time=28
note_on channel=0 note=50 velocity=41 time=24
note_on channel=0 note=64 velocity=53 time=44
note_on channel=0 note=56 velocity=46 time=22
note_on channel=0 note=81 velocity=0 time=80
note_on channel=0 note=64 velocity=0 time=4
note_on channel=0 note=69 velocity=53 time=107
note_on channel=0 note=56 velocity=0 time=4
note_on channel=0 note=50 velocity=0 time=31
note_on channel=0 note=69 velocity=0 time=120
note_on channel=0 note=81 velocity=63 time=50
note_on channel=0 note=52 velocity=58 time=132
note_on channel=0 note=65 velocity=56 time=27
note_on channel=0 note=56 velocity=57 time=3
note_on channel=0 note=64 velocity=57 time=1
note_on channel=0 note=53 velocity=43 time=16
note_on channel=0 note=81 velocity=0 time=39
note_on channel=0 note=65 velocity=0 time=38
note_on channel=0 note=53 velocity=0 time=60
note_on channel=0 note=69 velocity=72 time=0
note_on channel=0 note=64 velocity=0 time=23
note_on channel=0 note=56 velocity=0 time=48
note_on channel=0 note=69 velocity=0 time=4
note_on channel=0 note=52 velocity=0 time=20
note_on channel=0 note=65 velocity=66 time=54
note_on channel=0 note=52 velocity=56 time=5
note_on channel=0 note=56 velocity=62 time=3
note_on channel=0 note=81 velocity=36 time=4
note_on channel=0 note=59 velocity=58 time=2
note_on channel=0 note=81 velocity=0 time=104
note_on channel=0 note=65 velocity=0 time=15
note_on channel=0 note=52 velocity=0 time=10
note_on channel=0 note=56 velocity=0 time=31
note_on channel=0 note=59 velocity=0 time=4
note_on channel=0 note=70 velocity=75 time=32
note_on channel=0 note=56 velocity=52 time=42
note_on channel=0 note=67 velocity=72 time=11
note_on channel=0 note=53 velocity=46 time=4
note_on channel=0 note=52 velocity=66 time=3
note_on channel=0 note=70 velocity=0 time=33
note_on channel=0 note=52 velocity=0 time=71
note_on channel=0 note=67 velocity=0 time=17
note_on channel=0 note=53 velocity=0 time=2
note_on channel=0 note=56 velocity=0 time=25
note_on channel=0 note=70 velocity=73 time=28
note_on channel=0 note=71 velocity=82 time=92
note_on channel=0 note=70 velocity=0 time=5
note_on channel=0 note=59 velocity=60 time=23
note_on channel=0 note=65 velocity=48 time=6
note_on channel=0 note=58 velocity=44 time=10
note_on channel=0 note=65 velocity=0 time=60
note_on channel=0 note=58 velocity=0 time=5
note_on channel=0 note=71 velocity=0 time=141
note_on channel=0 note=84 velocity=69 time=29
note_on channel=0 note=66 velocity=70 time=143
note_on channel=0 note=63 velocity=66 time=7
note_on channel=0 note=72 velocity=69 time=10
note_on channel=0 note=71 velocity=66 time=1
note_on channel=0 note=84 velocity=0 time=23
note_on channel=0 note=72 velocity=0 time=81
note_on channel=0 note=71 velocity=0 time=1
note_on channel=0 note=66 velocity=0 time=53
note_on channel=0 note=73 velocity=87 time=8
note_on channel=0 note=63 velocity=0 time=16
note_on channel=0 note=59 velocity=0 time=10
note_on channel=0 note=73 velocity=0 time=84
note_on channel=0 note=86 velocity=57 time=45
note_on channel=0 note=56 velocity=35 time=24
note_on channel=0 note=56 velocity=0 time=49
note_on channel=0 note=57 velocity=38 time=15
note_on channel=0 note=63 velocity=59 time=151
note_on channel=0 note=61 velocity=66 time=2
note_on channel=0 note=71 velocity=66 time=13
note_on channel=0 note=74 velocity=75 time=14
control_change channel=0 control=64 value=0 time=43
note_on channel=0 note=86 velocity=0 time=65
control_change channel=0 control=64 value=127 time=46
note_on channel=0 note=82 velocity=36 time=73
note_on channel=0 note=74 velocity=0 time=66
note_on channel=0 note=86 velocity=60 time=1
note_on channel=0 note=82 velocity=0 time=17
note_on channel=0 note=57 velocity=0 time=55
note_on channel=0 note=71 velocity=0 time=18
note_on channel=0 note=63 velocity=0 time=40
note_on channel=0 note=61 velocity=0 time=4
note_on channel=0 note=74 velocity=63 time=77
note_on channel=0 note=86 velocity=0 time=19
note_on channel=0 note=74 velocity=0 time=141
note_on channel=0 note=71 velocity=75 time=13
note_on channel=0 note=59 velocity=63 time=4
note_on channel=0 note=64 velocity=60 time=11
note_on channel=0 note=65 velocity=60 time=2
note_on channel=0 note=63 velocity=35 time=33
note_on channel=0 note=62 velocity=47 time=3
note_on channel=0 note=62 velocity=0 time=67
note_on channel=0 note=63 velocity=0 time=3
note_on channel=0 note=74 velocity=78 time=9
note_on channel=0 note=64 velocity=0 time=33
note_on channel=0 note=65 velocity=0 time=5
note_on channel=0 note=71 velocity=0 time=5
note_on channel=0 note=59 velocity=0 time=31
note_on channel=0 note=74 velocity=0 time=62
note_on channel=0 note=86 velocity=66 time=8
note_on channel=0 note=59 velocity=46 time=136
note_on channel=0 note=72 velocity=72 time=2
note_on channel=0 note=86 velocity=0 time=2
note_on channel=0 note=66 velocity=79 time=12
note_on channel=0 note=63 velocity=75 time=5
note_on channel=0 note=59 velocity=0 time=87
note_on channel=0 note=75 velocity=79 time=19
note_on channel=0 note=72 velocity=0 time=53
note_on channel=0 note=63 velocity=0 time=6
note_on channel=0 note=66 velocity=0 time=7
note_on channel=0 note=75 velocity=0 time=32
note_on channel=0 note=88 velocity=70 time=26
note_on channel=0 note=62 velocity=31 time=153
note_on channel=0 note=76 velocity=72 time=28
note_on channel=0 note=74 velocity=78 time=1
note_on channel=0 note=66 velocity=73 time=2
note_on channel=0 note=63 velocity=50 time=21
note_on channel=0 note=70 velocity=64 time=4
note_on channel=0 note=88 velocity=0 time=26
note_on channel=0 note=63 velocity=0 time=36
note_on channel=0 note=74 velocity=0 time=76
note_on channel=0 note=76 velocity=0 time=27
note_on channel=0 note=62 velocity=0 time=1
note_on channel=0 note=88 velocity=74 time=9
note_on channel=0 note=70 velocity=0 time=13
note_on channel=0 note=66 velocity=0 time=31
note_on channel=0 note=62 velocity=47 time=103
note_on channel=0 note=74 velocity=84 time=18
note_on channel=0 note=70 velocity=79 time=6
note_on channel=0 note=66 velocity=68 time=10
note_on channel=0 note=63 velocity=39 time=24
note_on channel=0 note=74 velocity=0 time=43
note_on channel=0 note=88 velocity=0 time=14
note_on channel=0 note=63 velocity=0 time=43
note_on channel=0 note=70 velocity=0 time=2
note_on channel=0 note=62 velocity=0 time=5
note_on channel=0 note=66 velocity=0 time=19
note_on channel=0 note=77 velocity=78 time=9
note_on channel=0 note=77 velocity=0 time=110
note_on channel=0 note=91 velocity=74 time=54
note_on channel=0 note=91 velocity=0 time=119
note_on channel=0 note=43 velocity=66 time=17
note_on channel=0 note=55 velocity=57 time=11
note_on channel=0 note=53 velocity=63 time=11
note_on channel=0 note=47 velocity=35 time=20
note_on channel=0 note=47 velocity=0 time=47
note_on channel=0 note=53 velocity=0 time=12
note_on channel=0 note=65 velocity=75 time=101
note_on channel=0 note=55 velocity=0 time=56
note_on channel=0 note=65 velocity=0 time=47
note_on channel=0 note=55 velocity=63 time=46
note_on channel=0 note=46 velocity=66 time=8
note_on channel=0 note=51 velocity=75 time=5
note_on channel=0 note=55 velocity=0 time=86
note_on channel=0 note=51 velocity=0 time=64
note_on channel=0 note=43 velocity=0 time=2
note_on channel=0 note=77 velocity=82 time=15
note_on channel=0 note=46 velocity=0 time=33
note_on channel=0 note=77 velocity=0 time=60
note_on channel=0 note=63 velocity=64 time=126
note_on channel=0 note=63 velocity=0 time=66
note_on channel=0 note=34 velocity=71 time=125
note_on channel=0 note=46 velocity=75 time=7
note_on channel=0 note=46 velocity=0 time=90
note_on channel=0 note=34 velocity=0 time=53
note_on channel=0 note=62 velocity=48 time=53
note_on channel=0 note=64 velocity=39 time=6
note_on channel=0 note=64 velocity=0 time=65
note_on channel=0 note=62 velocity=0 time=23
note_on channel=0 note=77 velocity=65 time=77
note_on channel=0 note=77 velocity=0 time=136
note_on channel=0 note=45 velocity=85 time=55
note_on channel=0 note=33 velocity=73 time=2
note_on channel=0 note=64 velocity=56 time=47
note_on channel=0 note=64 velocity=0 time=46
note_on channel=0 note=33 velocity=0 time=121
note_on channel=0 note=45 velocity=0 time=8
note_on channel=0 note=59 velocity=55 time=33
note_on channel=0 note=59 velocity=0 time=126
note_on channel=0 note=69 velocity=63 time=77
note_on channel=0 note=39 velocity=78 time=61
note_on channel=0 note=51 velocity=72 time=5
note_on channel=0 note=69 velocity=0 time=30
note_on channel=0 note=51 velocity=0 time=59
note_on channel=0 note=39 velocity=0 time=67
note_on channel=0 note=67 velocity=58 time=82
note_on channel=0 note=67 velocity=0 time=70
note_on channel=0 note=59 velocity=48 time=69
note_on channel=0 note=60 velocity=39 time=27
note_on channel=0 note=60 velocity=0 time=61
note_on channel=0 note=31 velocity=69 time=72
note_on channel=0 note=43 velocity=72 time=5
note_on channel=0 note=59 velocity=0 time=45
note_on channel=0 note=43 velocity=0 time=81
note_on channel=0 note=62 velocity=56 time=42
note_on channel=0 note=31 velocity=0 time=12
note_on channel=0 note=67 velocity=58 time=155
note_on channel=0 note=37 velocity=71 time=36
note_on channel=0 note=49 velocity=79 time=4
note_on channel=0 note=62 velocity=0 time=14
note_on channel=0 note=36 velocity=41 time=41
note_on channel=0 note=67 velocity=0 time=37
note_on channel=0 note=49 velocity=0 time=4
note_on channel=0 note=37 velocity=0 time=21
note_on channel=0 note=36 velocity=0 time=10
note_on channel=0 note=55 velocity=61 time=28
note_on channel=0 note=55 velocity=0 time=142
note_on channel=0 note=48 velocity=57 time=30
note_on channel=0 note=25 velocity=82 time=104
note_on channel=0 note=37 velocity=84 time=2
note_on channel=0 note=37 velocity=0 time=127
note_on channel=0 note=48 velocity=0 time=30
note_on channel=0 note=25 velocity=0 time=40
note_on channel=0 note=51 velocity=62 time=4
note_on channel=0 note=51 velocity=0 time=173
control_change channel=0 control=64 value=0 time=28
note_on channel=0 note=38 velocity=80 time=6
note_on channel=0 note=26 velocity=56 time=15
note_on channel=0 note=28 velocity=57 time=17
note_on channel=0 note=28 velocity=0 time=43
control_change channel=0 control=64 value=127 time=37
note_on channel=0 note=69 velocity=56 time=60
note_on channel=0 note=38 velocity=0 time=63
note_on channel=0 note=59 velocity=69 time=14
note_on channel=0 note=69 velocity=0 time=11
note_on channel=0 note=26 velocity=0 time=25
note_on channel=0 note=59 velocity=0 time=88
note_on channel=0 note=52 velocity=57 time=50
note_on channel=0 note=34 velocity=87 time=35
note_on channel=0 note=34 velocity=0 time=162
note_on channel=0 note=51 velocity=46 time=78
note_on channel=0 note=51 velocity=0 time=58
note_on channel=0 note=53 velocity=53 time=25
note_on channel=0 note=33 velocity=90 time=134
note_on channel=0 note=52 velocity=0 time=2
note_on channel=0 note=21 velocity=49 time=10
control_change channel=0 control=64 value=0 time=3
note_on channel=0 note=53 velocity=0 time=7
control_change channel=0 control=64 value=127 time=89
note_on channel=0 note=21 velocity=0 time=118
note_on channel=0 note=57 velocity=51 time=20
note_on channel=0 note=33 velocity=0 time=36
note_on channel=0 note=57 velocity=0 time=84
note_on channel=0 note=60 velocity=46 time=14
note_on channel=0 note=60 velocity=0 time=55
note_on channel=0 note=43 velocity=57 time=66
note_on channel=0 note=45 velocity=56 time=15
note_on channel=0 note=45 velocity=0 time=49
note_on channel=0 note=43 velocity=0 time=36
note_on channel=0 note=56 velocity=44 time=104
note_on channel=0 note=56 velocity=0 time=64
note_on channel=0 note=43 velocity=57 time=5
note_on channel=0 note=57 velocity=66 time=131
note_on channel=0 note=43 velocity=0 time=15
note_on channel=0 note=57 velocity=0 time=103
note_on channel=0 note=43 velocity=75 time=46
note_on channel=0 note=71 velocity=28 time=87
note_on channel=0 note=43 velocity=0 time=21
note_on channel=0 note=71 velocity=0 time=66
note_on channel=0 note=62 velocity=48 time=131
note_on channel=0 note=62 velocity=0 time=64
note_on channel=0 note=59 velocity=58 time=55
note_on channel=0 note=60 velocity=55 time=6
note_on channel=0 note=60 velocity=0 time=51
note_on channel=0 note=59 velocity=0 time=18
note_on channel=0 note=50 velocity=44 time=13
note_on channel=0 note=71 velocity=66 time=73
note_on channel=0 note=71 velocity=0 time=136
note_on channel=0 note=60 velocity=63 time=33
note_on channel=0 note=60 velocity=0 time=95
note_on channel=0 note=53 velocity=25 time=23
note_on channel=0 note=68 velocity=68 time=50
note_on channel=0 note=68 velocity=0 time=90
note_on channel=0 note=69 velocity=61 time=50
note_on channel=0 note=57 velocity=42 time=56
note_on channel=0 note=69 velocity=0 time=55
note_on channel=0 note=50 velocity=0 time=10
note_on channel=0 note=53 velocity=0 time=52
note_on channel=0 note=64 velocity=79 time=6
note_on channel=0 note=57 velocity=0 time=40
note_on channel=0 note=64 velocity=0 time=81
note_on channel=0 note=81 velocity=57 time=5
note_on channel=0 note=80 velocity=57 time=171
note_on channel=0 note=81 velocity=0 time=17
note_on channel=0 note=67 velocity=65 time=115
note_on channel=0 note=80 velocity=0 time=2
note_on channel=0 note=81 velocity=46 time=1
note_on channel=0 note=81 velocity=0 time=57
note_on channel=0 note=66 velocity=36 time=108
note_on channel=0 note=67 velocity=0 time=18
note_on channel=0 note=68 velocity=66 time=3
note_on channel=0 note=66 velocity=0 time=61
note_on channel=0 note=68 velocity=0 time=64
note_on channel=0 note=83 velocity=52 time=62
note_on channel=0 note=83 velocity=0 time=80
note_on channel=0 note=95 velocity=63 time=31
note_on channel=0 note=95 velocity=0 time=104
note_on channel=0 note=81 velocity=69 time=28
note_on channel=0 note=81 velocity=0 time=86
note_on channel=0 note=80 velocity=66 time=16
note_on channel=0 note=80 velocity=0 time=169
note_on channel=0 note=81 velocity=57 time=33
note_on channel=0 note=79 velocity=52 time=11
note_on channel=0 note=81 velocity=0 time=57
note_on channel=0 note=79 velocity=0 time=6
note_on channel=0 note=91 velocity=61 time=38
note_on channel=0 note=91 velocity=0 time=97
note_on channel=0 note=71 velocity=72 time=34
note_on channel=0 note=64 velocity=34 time=19
note_on channel=0 note=64 velocity=0 time=53
note_on channel=0 note=71 velocity=0 time=77
note_on channel=0 note=68 velocity=75 time=18
note_on channel=0 note=66 velocity=43 time=22
note_on channel=0 note=66 velocity=0 time=57
note_on channel=0 note=68 velocity=0 time=35
note_on channel=0 note=84 velocity=69 time=103
note_on channel=0 note=84 velocity=0 time=149
note_on channel=0 note=74 velocity=75 time=40
note_on channel=0 note=74 velocity=0 time=86
note_on channel=0 note=59 velocity=35 time=84
note_on channel=0 note=63 velocity=61 time=32
note_on channel=0 note=89 velocity=84 time=22
note_on channel=0 note=89 velocity=0 time=103
note_on channel=0 note=63 velocity=0 time=50
note_on channel=0 note=77 velocity=60 time=18
note_on channel=0 note=66 velocity=60 time=53
note_on channel=0 note=63 velocity=46 time=26
note_on channel=0 note=77 velocity=0 time=6
note_on channel=0 note=66 velocity=0 time=74
note_on channel=0 note=63 velocity=0 time=14
note_on channel=0 note=71 velocity=33 time=2
note_on channel=0 note=59 velocity=0 time=6
note_on channel=0 note=71 velocity=0 time=61
note_on channel=0 note=73 velocity=60 time=63
note_on channel=0 note=73 velocity=0 time=109
note_on channel=0 note=83 velocity=72 time=116
note_on channel=0 note=71 velocity=42 time=25
note_on channel=0 note=71 velocity=0 time=59
note_on channel=0 note=52 velocity=55 time=64
note_on channel=0 note=58 velocity=75 time=5
note_on channel=0 note=55 velocity=65 time=11
note_on channel=0 note=71 velocity=65 time=69
note_on channel=0 note=83 velocity=0 time=3
note_on channel=0 note=58 velocity=0 time=125
note_on channel=0 note=71 velocity=0 time=14
note_on channel=0 note=55 velocity=0 time=43
note_on channel=0 note=65 velocity=56 time=2
note_on channel=0 note=65 velocity=0 time=129
note_on channel=0 note=58 velocity=66 time=15
note_on channel=0 note=62 velocity=63 time=3
note_on channel=0 note=55 velocity=61 time=1
note_on channel=0 note=62 velocity=0 time=49
note_on channel=0 note=58 velocity=0 time=69
note_on channel=0 note=55 velocity=0 time=17
note_on channel=0 note=52 velocity=0 time=21
note_on channel=0 note=83 velocity=78 time=51
note_on channel=0 note=83 velocity=0 time=127
note_on channel=0 note=72 velocity=54 time=29
note_on channel=0 note=71 velocity=63 time=17
note_on channel=0 note=72 velocity=0 time=56
note_on channel=0 note=71 velocity=0 time=47
control_change channel=0 control=64 value=0 time=2
note_on channel=0 note=52 velocity=58 time=62
note_on channel=0 note=55 velocity=53 time=2
note_on channel=0 note=48 velocity=60 time=2
note_on channel=0 note=60 velocity=75 time=11
note_on channel=0 note=86 velocity=78 time=27
control_change channel=0 control=64 value=127 time=26
note_on channel=0 note=86 velocity=0 time=124
note_on channel=0 note=60 velocity=0 time=24
note_on channel=0 note=76 velocity=51 time=28
note_on channel=0 note=74 velocity=57 time=6
note_on channel=0 note=74 velocity=0 time=48
note_on channel=0 note=55 velocity=0 time=6
note_on channel=0 note=76 velocity=0 time=20
note_on channel=0 note=52 velocity=0 time=36
note_on channel=0 note=69 velocity=43 time=38
note_on channel=0 note=62 velocity=55 time=31
note_on channel=0 note=64 velocity=61 time=2
note_on channel=0 note=52 velocity=49 time=1
note_on channel=0 note=55 velocity=57 time=6
note_on channel=0 note=69 velocity=0 time=34
note_on channel=0 note=62 velocity=0 time=48
note_on channel=0 note=64 velocity=0 time=0
note_on channel=0 note=55 velocity=0 time=104
note_on channel=0 note=77 velocity=82 time=16
note_on channel=0 note=52 velocity=0 time=21
note_on channel=0 note=48 velocity=0 time=57
note_on channel=0 note=77 velocity=0 time=102
note_on channel=0 note=69 velocity=56 time=16
note_on channel=0 note=67 velocity=57 time=4
note_on channel=0 note=67 velocity=0 time=46
note_on channel=0 note=69 velocity=0 time=44
note_on channel=0 note=62 velocity=55 time=74
note_on channel=0 note=62 velocity=0 time=124
note_on channel=0 note=36 velocity=80 time=40
note_on channel=0 note=69 velocity=69 time=22
note_on channel=0 note=57 velocity=50 time=78
note_on channel=0 note=69 velocity=0 time=34
note_on channel=0 note=55 velocity=53 time=152
note_on channel=0 note=53 velocity=49 time=7
note_on channel=0 note=57 velocity=0 time=3
note_on channel=0 note=55 velocity=0 time=92
note_on channel=0 note=53 velocity=0 time=4
note_on channel=0 note=43 velocity=66 time=19
note_on channel=0 note=48 velocity=79 time=0
note_on channel=0 note=48 velocity=0 time=132
note_on channel=0 note=67 velocity=75 time=33
note_on channel=0 note=57 velocity=66 time=11
note_on channel=0 note=43 velocity=0 time=38
note_on channel=0 note=67 velocity=0 time=31
note_on channel=0 note=57 velocity=0 time=89
note_on channel=0 note=52 velocity=69 time=24
note_on channel=0 note=36 velocity=0 time=42
note_on channel=0 note=52 velocity=0 time=175
note_on channel=0 note=59 velocity=58 time=4
note_on channel=0 note=24 velocity=76 time=146
note_on channel=0 note=36 velocity=80 time=1
note_on channel=0 note=59 velocity=0 time=17
note_on channel=0 note=24 velocity=0 time=173
note_on channel=0 note=36 velocity=0 time=36
note_on channel=0 note=64 velocity=57 time=31
note_on channel=0 note=68 velocity=41 time=21
note_on channel=0 note=64 velocity=0 time=118
note_on channel=0 note=68 velocity=0 time=93
note_on channel=0 note=77 velocity=58 time=42
note_on channel=0 note=65 velocity=60 time=192
note_on channel=0 note=77 velocity=0 time=1
note_on channel=0 note=48 velocity=34 time=17
note_on channel=0 note=65 velocity=0 time=134
note_on channel=0 note=54 velocity=64 time=58
note_on channel=0 note=51 velocity=48 time=14
note_on channel=0 note=52 velocity=66 time=0
note_on channel=0 note=55 velocity=57 time=14
note_on channel=0 note=51 velocity=0 time=59
note_on channel=0 note=55 velocity=0 time=6
note_on channel=0 note=54 velocity=0 time=18
note_on channel=0 note=65 velocity=63 time=19
note_on channel=0 note=48 velocity=0 time=1
note_on channel=0 note=52 velocity=0 time=16
note_on channel=0 note=70 velocity=58 time=98
note_on channel=0 note=49 velocity=48 time=39
note_on channel=0 note=65 velocity=0 time=9
note_on channel=0 note=56 velocity=82 time=7
note_on channel=0 note=48 velocity=32 time=33
note_on channel=0 note=49 velocity=0 time=63
note_on channel=0 note=48 velocity=0 time=9
note_on channel=0 note=75 velocity=68 time=23
note_on channel=0 note=56 velocity=0 time=9
note_on channel=0 note=70 velocity=0 time=0
note_on channel=0 note=65 velocity=61 time=11
note_on channel=0 note=65 velocity=0 time=66
note_on channel=0 note=46 velocity=61 time=88
note_on channel=0 note=75 velocity=0 time=10
note_on channel=0 note=58 velocity=69 time=3
note_on channel=0 note=44 velocity=43 time=18
note_on channel=0 note=45 velocity=42 time=33
note_on channel=0 note=44 velocity=0 time=35
note_on channel=0 note=58 velocity=0 time=33
note_on channel=0 note=45 velocity=0 time=3
note_on channel=0 note=66 velocity=82 time=17
note_on channel=0 note=46 velocity=0 time=45
note_on channel=0 note=66 velocity=0 time=94
note_on channel=0 note=46 velocity=48 time=7
note_on channel=0 note=58 velocity=66 time=43
control_change channel=0 control=64 value=0 time=39
control_change channel=0 control=64 value=127 time=86
note_on channel=0 note=68 velocity=73 time=31
note_on channel=0 note=58 velocity=0 time=8
note_on channel=0 note=82 velocity=57 time=22
note_on channel=0 note=70 velocity=39 time=14
note_on channel=0 note=46 velocity=0 time=53
note_on channel=0 note=70 velocity=0 time=0
note_on channel=0 note=68 velocity=0 time=98
note_on channel=0 note=61 velocity=72 time=74
note_on channel=0 note=63 velocity=82 time=15
note_on channel=0 note=82 velocity=0 time=8
note_on channel=0 note=63 velocity=0 time=38
note_on channel=0 note=61 velocity=0 time=6
note_on channel=0 note=68 velocity=73 time=57
note_on channel=0 note=75 velocity=66 time=105
note_on channel=0 note=68 velocity=0 time=37
note_on channel=0 note=82 velocity=60 time=105
note_on channel=0 note=58 velocity=72 time=34
note_on channel=0 note=75 velocity=0 time=1
note_on channel=0 note=68 velocity=66 time=19
note_on channel=0 note=70 velocity=82 time=0
note_on channel=0 note=82 velocity=0 time=36
note_on channel=0 note=70 velocity=0 time=115
note_on channel=0 note=88 velocity=61 time=15
note_on channel=0 note=68 velocity=0 time=4
note_on channel=0 note=76 velocity=61 time=2
note_on channel=0 note=77 velocity=72 time=3
note_on channel=0 note=58 velocity=0 time=51
note_on channel=0 note=76 velocity=0 time=80
note_on channel=0 note=77 velocity=0 time=15
note_on channel=0 note=88 velocity=0 time=2
note_on channel=0 note=69 velocity=34 time=49
note_on channel=0 note=58 velocity=64 time=9
control_change channel=0 control=64 value=0 time=4
note_on channel=0 note=65 velocity=57 time=6
note_on channel=0 note=62 velocity=56 time=5
note_on channel=0 note=85 velocity=31 time=31
control_change channel=0 control=64 value=127 time=46
note_on channel=0 note=85 velocity=0 time=8
note_on channel=0 note=77 velocity=72 time=50
note_on channel=0 note=69 velocity=0 time=47
note_on channel=0 note=58 velocity=0 time=3
note_on channel=0 note=80 velocity=75 time=57
note_on channel=0 note=62 velocity=0 time=5
note_on channel=0 note=65 velocity=0 time=18
note_on channel=0 note=77 velocity=0 time=41
note_on channel=0 note=58 velocity=69 time=86
note_on channel=0 note=70 velocity=82 time=2
note_on channel=0 note=80 velocity=0 time=78
note_on channel=0 note=85 velocity=48 time=11
note_on channel=0 note=77 velocity=82 time=42
note_on channel=0 note=70 velocity=0 time=7
note_on channel=0 note=82 velocity=52 time=17
note_on channel=0 note=58 velocity=0 time=34
note_on channel=0 note=83 velocity=46 time=2
note_on channel=0 note=82 velocity=0 time=25
note_on channel=0 note=77 velocity=0 time=21
note_on channel=0 note=83 velocity=0 time=22
note_on channel=0 note=89 velocity=51 time=31
note_on channel=0 note=77 velocity=61 time=14
note_on channel=0 note=88 velocity=45 time=25
note_on channel=0 note=85 velocity=0 time=21
note_on channel=0 note=88 velocity=0 time=46
note_on channel=0 note=77 velocity=0 time=10
control_change channel=0 control=64 value=0 time=16
note_on channel=0 note=89 velocity=0 time=1
note_on channel=0 note=60 velocity=69 time=30
note_on channel=0 note=67 velocity=69 time=3
note_on channel=0 note=72 velocity=82 time=1
note_on channel=0 note=61 velocity=33 time=8
note_on channel=0 note=64 velocity=66 time=1
control_change channel=0 control=64 value=127 time=55
note_on channel=0 note=79 velocity=72 time=51
note_on channel=0 note=61 velocity=0 time=14
note_on channel=0 note=81 velocity=37 time=29
note_on channel=0 note=81 velocity=0 time=45
note_on channel=0 note=60 velocity=0 time=19
note_on channel=0 note=72 velocity=0 time=3
note_on channel=0 note=64 velocity=0 time=45
note_on channel=0 note=87 velocity=46 time=7
note_on channel=0 note=67 velocity=0 time=2
note_on channel=0 note=84 velocity=44 time=14
note_on channel=0 note=79 velocity=0 time=12
note_on channel=0 note=85 velocity=36 time=13
note_on channel=0 note=85 velocity=0 time=79
note_on channel=0 note=61 velocity=75 time=49
note_on channel=0 note=73 velocity=91 time=6
note_on channel=0 note=63 velocity=52 time=36
note_on channel=0 note=87 velocity=0 time=5
note_on channel=0 note=84 velocity=0 time=16
note_on channel=0 note=62 velocity=31 time=17
note_on channel=0 note=90 velocity=54 time=13
note_on channel=0 note=63 velocity=0 time=1
note_on channel=0 note=73 velocity=0 time=15
note_on channel=0 note=62 velocity=0 time=23
note_on channel=0 note=61 velocity=0 time=65
note_on channel=0 note=90 velocity=0 time=2
note_on channel=0 note=83 velocity=63 time=14
note_on channel=0 note=83 velocity=0 time=86
note_on channel=0 note=74 velocity=69 time=24
note_on channel=0 note=74 velocity=0 time=128
note_on channel=0 note=59 velocity=39 time=30
note_on channel=0 note=66 velocity=70 time=7
note_on channel=0 note=71 velocity=75 time=1
control_change channel=0 control=64 value=0 time=1
note_on channel=0 note=63 velocity=69 time=12
note_on channel=0 note=71 velocity=0 time=69
note_on channel=0 note=91 velocity=84 time=12
control_change channel=0 control=64 value=127 time=8
note_on channel=0 note=79 velocity=69 time=1
note_on channel=0 note=79 velocity=0 time=54
note_on channel=0 note=66 velocity=0 time=24
note_on channel=0 note=63 velocity=0 time=31
note_on channel=0 note=59 velocity=0 time=18
note_on channel=0 note=91 velocity=0 time=28
note_on channel=0 note=79 velocity=52 time=10
note_on channel=0 note=79 velocity=0 time=101
note_on channel=0 note=72 velocity=69 time=20
note_on channel=0 note=74 velocity=57 time=121
note_on channel=0 note=72 velocity=0 time=11
note_on channel=0 note=74 velocity=0 time=90
note_on channel=0 note=79 velocity=44 time=7
note_on channel=0 note=50 velocity=33 time=21
note_on channel=0 note=62 velocity=79 time=10
note_on channel=0 note=57 velocity=66 time=4
note_on channel=0 note=54 velocity=75 time=2
note_on channel=0 note=79 velocity=0 time=32
note_on channel=0 note=88 velocity=81 time=101
note_on channel=0 note=62 velocity=0 time=34
note_on channel=0 note=76 velocity=57 time=1
note_on channel=0 note=77 velocity=57 time=0
note_on channel=0 note=57 velocity=0 time=51
note_on channel=0 note=54 velocity=0 time=16
note_on channel=0 note=50 velocity=0 time=36
note_on channel=0 note=76 velocity=0 time=28
note_on channel=0 note=88 velocity=0 time=8
note_on channel=0 note=82 velocity=48 time=4
note_on channel=0 note=77 velocity=0 time=11
note_on channel=0 note=82 velocity=0 time=88
note_on channel=0 note=82 velocity=60 time=102
note_on channel=0 note=54 velocity=42 time=5
note_on channel=0 note=57 velocity=52 time=11
control_change channel=0 control=64 value=0 time=2
note_on channel=0 note=50 velocity=63 time=2
note_on channel=0 note=65 velocity=56 time=1
note_on channel=0 note=76 velocity=39 time=56
note_on channel=0 note=74 velocity=37 time=2
control_change channel=0 control=64 value=127 time=35
note_on channel=0 note=74 velocity=0 time=15
note_on channel=0 note=88 velocity=70 time=7
note_on channel=0 note=76 velocity=0 time=1
note_on channel=0 note=82 velocity=0 time=18
note_on channel=0 note=65 velocity=0 time=68
note_on channel=0 note=76 velocity=40 time=21
note_on channel=0 note=50 velocity=0 time=16
note_on channel=0 note=88 velocity=0 time=74
note_on channel=0 note=57 velocity=0 time=28
note_on channel=0 note=54 velocity=0 time=16
note_on channel=0 note=49 velocity=64 time=103
note_on channel=0 note=82 velocity=37 time=8
note_on channel=0 note=61 velocity=79 time=24
note_on channel=0 note=76 velocity=0 time=1
note_on channel=0 note=82 velocity=0 time=41
note_on channel=0 note=61 velocity=0 time=103
note_on channel=0 note=76 velocity=66 time=2
note_on channel=0 note=79 velocity=54 time=9
note_on channel=0 note=82 velocity=55 time=19
note_on channel=0 note=49 velocity=0 time=42
note_on channel=0 note=76 velocity=0 time=52
note_on channel=0 note=76 velocity=53 time=94
note_on channel=0 note=62 velocity=69 time=4
note_on channel=0 note=54 velocity=52 time=2
note_on channel=0 note=79 velocity=0 time=0
note_on channel=0 note=57 velocity=60 time=12
note_on channel=0 note=48 velocity=45 time=12
note_on channel=0 note=50 velocity=58 time=5
note_on channel=0 note=82 velocity=0 time=7
note_on channel=0 note=48 velocity=0 time=39
note_on channel=0 note=62 velocity=0 time=10
note_on channel=0 note=71 velocity=65 time=63
note_on channel=0 note=50 velocity=0 time=13
note_on channel=0 note=57 velocity=0 time=16
note_on channel=0 note=54 velocity=0 time=13
note_on channel=0 note=76 velocity=0 time=10
note_on channel=0 note=49 velocity=64 time=90
note_on channel=0 note=61 velocity=69 time=21
note_on channel=0 note=71 velocity=0 time=24
note_on channel=0 note=48 velocity=37 time=11
note_on channel=0 note=48 velocity=0 time=52
note_on channel=0 note=61 velocity=0 time=33
note_on channel=0 note=49 velocity=0 time=17
note_on channel=0 note=83 velocity=78 time=16
note_on channel=0 note=72 velocity=61 time=8
note_on channel=0 note=71 velocity=46 time=22
note_on channel=0 note=72 velocity=0 time=75
note_on channel=0 note=71 velocity=0 time=14
note_on channel=0 note=56 velocity=55 time=11
note_on channel=0 note=48 velocity=61 time=6
control_change channel=0 control=64 value=0 time=12
note_on channel=0 note=60 velocity=57 time=7
note_on channel=0 note=62 velocity=56 time=0
note_on channel=0 note=49 velocity=34 time=5
note_on channel=0 note=53 velocity=51 time=16
control_change channel=0 control=64 value=127 time=71
note_on channel=0 note=72 velocity=61 time=18
note_on channel=0 note=60 velocity=0 time=45
note_on channel=0 note=62 velocity=0 time=41
note_on channel=0 note=53 velocity=0 time=15
note_on channel=0 note=72 velocity=0 time=20
note_on channel=0 note=49 velocity=0 time=17
note_on channel=0 note=76 velocity=57 time=19
note_on channel=0 note=56 velocity=0 time=15
note_on channel=0 note=72 velocity=42 time=33
note_on channel=0 note=56 velocity=57 time=52
note_on channel=0 note=62 velocity=61 time=3
note_on channel=0 note=54 velocity=62 time=6
note_on channel=0 note=72 velocity=0 time=2
note_on channel=0 note=48 velocity=0 time=86
note_on channel=0 note=62 velocity=0 time=4
note_on channel=0 note=78 velocity=70 time=1
note_on channel=0 note=72 velocity=52 time=13
note_on channel=0 note=83 velocity=0 time=0
note_on channel=0 note=54 velocity=0 time=66
note_on channel=0 note=72 velocity=0 time=4
note_on channel=0 note=76 velocity=0 time=6
note_on channel=0 note=56 velocity=0 time=7
note_on channel=0 note=72 velocity=65 time=53
note_on channel=0 note=83 velocity=75 time=7
note_on channel=0 note=78 velocity=0 time=31
note_on channel=0 note=72 velocity=0 time=72
note_on channel=0 note=63 velocity=72 time=59
note_on channel=0 note=51 velocity=55 time=36
note_on channel=0 note=51 velocity=0 time=47
note_on channel=0 note=78 velocity=43 time=5
note_on channel=0 note=63 velocity=0 time=4
note_on channel=0 note=72 velocity=69 time=40
note_on channel=0 note=78 velocity=0 time=12
note_on channel=0 note=83 velocity=0 time=24
note_on channel=0 note=71 velocity=65 time=94
note_on channel=0 note=72 velocity=0 time=58
control_change channel=0 control=64 value=0 time=91
note_on channel=0 note=64 velocity=75 time=6
note_on channel=0 note=52 velocity=63 time=1
note_on channel=0 note=58 velocity=69 time=7
note_on channel=0 note=56 velocity=69 time=1
note_on channel=0 note=73 velocity=70 time=15
note_on channel=0 note=71 velocity=0 time=101
control_change channel=0 control=64 value=127 time=13
note_on channel=0 note=64 velocity=0 time=56
note_on channel=0 note=79 velocity=72 time=11
note_on channel=0 note=67 velocity=69 time=1
note_on channel=0 note=52 velocity=0 time=29
note_on channel=0 note=73 velocity=0 time=6
note_on channel=0 note=67 velocity=0 time=53
note_on channel=0 note=58 velocity=0 time=13
note_on channel=0 note=56 velocity=0 time=10
note_on channel=0 note=79 velocity=0 time=48
note_on channel=0 note=54 velocity=66 time=13
note_on channel=0 note=66 velocity=79 time=15
note_on channel=0 note=53 velocity=47 time=21
note_on channel=0 note=65 velocity=38 time=28
note_on channel=0 note=52 velocity=34 time=6
note_on channel=0 note=65 velocity=0 time=44
note_on channel=0 note=52 velocity=0 time=6
note_on channel=0 note=66 velocity=0 time=1
note_on channel=0 note=53 velocity=0 time=12
note_on channel=0 note=54 velocity=0 time=26
note_on channel=0 note=71 velocity=60 time=14
note_on channel=0 note=67 velocity=65 time=15
note_on channel=0 note=73 velocity=39 time=14
note_on channel=0 note=73 velocity=0 time=68
note_on channel=0 note=67 velocity=0 time=17
note_on channel=0 note=71 velocity=0 time=11
note_on channel=0 note=72 velocity=65 time=59
note_on channel=0 note=67 velocity=58 time=5
note_on channel=0 note=69 velocity=49 time=24
note_on channel=0 note=69 velocity=0 time=70
control_change channel=0 control=64 value=0 time=5
note_on channel=0 note=67 velocity=0 time=2
note_on channel=0 note=57 velocity=46 time=12
note_on channel=0 note=72 velocity=0 time=16
note_on channel=0 note=53 velocity=65 time=10
note_on channel=0 note=65 velocity=78 time=1
note_on channel=0 note=60 velocity=66 time=10
note_on channel=0 note=81 velocity=78 time=43
note_on channel=0 note=73 velocity=46 time=7
note_on channel=0 note=71 velocity=66 time=14
control_change channel=0 control=64 value=127 time=17
note_on channel=0 note=73 velocity=0 time=34
note_on channel=0 note=71 velocity=0 time=37
note_on channel=0 note=65 velocity=0 time=6
note_on channel=0 note=53 velocity=0 time=24
note_on channel=0 note=57 velocity=0 time=24
note_on channel=0 note=60 velocity=0 time=24
note_on channel=0 note=72 velocity=61 time=20
note_on channel=0 note=54 velocity=50 time=22
note_on channel=0 note=81 velocity=0 time=66
note_on channel=0 note=54 velocity=0 time=39
note_on channel=0 note=72 velocity=0 time=53
note_on channel=0 note=76 velocity=19 time=41
note_on channel=0 note=72 velocity=32 time=4
note_on channel=0 note=54 velocity=50 time=15
note_on channel=0 note=66 velocity=82 time=7
note_on channel=0 note=58 velocity=64 time=18
note_on channel=0 note=72 velocity=0 time=31
note_on channel=0 note=56 velocity=45 time=1
note_on channel=0 note=76 velocity=0 time=43
note_on channel=0 note=56 velocity=0 time=19
note_on channel=0 note=72 velocity=60 time=12
note_on channel=0 note=76 velocity=40 time=7
note_on channel=0 note=54 velocity=0 time=52
note_on channel=0 note=66 velocity=0 time=0
note_on channel=0 note=72 velocity=0 time=21
note_on channel=0 note=58 velocity=0 time=8
note_on channel=0 note=76 velocity=0 time=18
note_on channel=0 note=83 velocity=63 time=35
note_on channel=0 note=76 velocity=46 time=1
note_on channel=0 note=72 velocity=58 time=6
note_on channel=0 note=72 velocity=0 time=96
note_on channel=0 note=76 velocity=0 time=4
note_on channel=0 note=72 velocity=69 time=76
note_on channel=0 note=79 velocity=47 time=43
note_on channel=0 note=54 velocity=62 time=12
note_on channel=0 note=66 velocity=68 time=5
note_on channel=0 note=61 velocity=46 time=1
note_on channel=0 note=56 velocity=50 time=24
note_on channel=0 note=79 velocity=0 time=21
note_on channel=0 note=72 velocity=0 time=6
note_on channel=0 note=83 velocity=0 time=18
note_on channel=0 note=56 velocity=0 time=33
note_on channel=0 note=83 velocity=72 time=12
note_on channel=0 note=72 velocity=72 time=3
note_on channel=0 note=66 velocity=0 time=79
note_on channel=0 note=61 velocity=0 time=4
note_on channel=0 note=72 velocity=0 time=28
note_on channel=0 note=54 velocity=0 time=5
note_on channel=0 note=83 velocity=0 time=9
note_on channel=0 note=72 velocity=75 time=39
note_on channel=0 note=83 velocity=51 time=6
note_on channel=0 note=77 velocity=50 time=13
note_on channel=0 note=75 velocity=41 time=45
note_on channel=0 note=77 velocity=0 time=45
note_on channel=0 note=75 velocity=0 time=12
note_on channel=0 note=72 velocity=0 time=11
note_on channel=0 note=83 velocity=0 time=5
note_on channel=0 note=75 velocity=64 time=46
note_on channel=0 note=72 velocity=66 time=6
note_on channel=0 note=68 velocity=85 time=1
note_on channel=0 note=54 velocity=66 time=1
note_on channel=0 note=77 velocity=48 time=9
control_change channel=0 control=64 value=0 time=5
note_on channel=0 note=61 velocity=57 time=0
note_on channel=0 note=59 velocity=56 time=6
note_on channel=0 note=56 velocity=55 time=6
control_change channel=0 control=64 value=127 time=22
note_on channel=0 note=54 velocity=0 time=8
note_on channel=0 note=77 velocity=0 time=14
note_on channel=0 note=72 velocity=0 time=53
note_on channel=0 note=72 velocity=65 time=62
note_on channel=0 note=59 velocity=0 time=4
note_on channel=0 note=61 velocity=0 time=12
note_on channel=0 note=56 velocity=0 time=3
note_on channel=0 note=77 velocity=54 time=1
note_on channel=0 note=68 velocity=0 time=6
note_on channel=0 note=83 velocity=60 time=12
note_on channel=0 note=77 velocity=0 time=65
note_on channel=0 note=72 velocity=0 time=7
note_on channel=0 note=75 velocity=0 time=10
note_on channel=0 note=63 velocity=38 time=32
note_on channel=0 note=83 velocity=0 time=20
note_on channel=0 note=63 velocity=0 time=38
control_change channel=0 control=64 value=0 time=46
note_on channel=0 note=74 velocity=65 time=3
note_on channel=0 note=84 velocity=75 time=5
note_on channel=0 note=69 velocity=78 time=6
note_on channel=0 note=62 velocity=66 time=8
note_on channel=0 note=55 velocity=58 time=5
note_on channel=0 note=57 velocity=60 time=3
note_on channel=0 note=59 velocity=49 time=1
note_on channel=0 note=60 velocity=60 time=7
note_on channel=0 note=63 velocity=39 time=13
note_on channel=0 note=74 velocity=0 time=13
note_on channel=0 note=63 velocity=0 time=33
control_change channel=0 control=64 value=127 time=15
note_on channel=0 note=59 velocity=0 time=7
note_on channel=0 note=55 velocity=0 time=75
note_on channel=0 note=57 velocity=0 time=47
note_on channel=0 note=74 velocity=72 time=3
note_on channel=0 note=69 velocity=0 time=9
note_on channel=0 note=84 velocity=0 time=23
note_on channel=0 note=62 velocity=0 time=15
note_on channel=0 note=60 velocity=0 time=5
note_on channel=0 note=75 velocity=66 time=103
note_on channel=0 note=74 velocity=0 time=72
note_on channel=0 note=74 velocity=63 time=71
note_on channel=0 note=75 velocity=0 time=108
note_on channel=0 note=58 velocity=79 time=20
note_on channel=0 note=70 velocity=85 time=1
note_on channel=0 note=74 velocity=0 time=10
note_on channel=0 note=84 velocity=42 time=72
note_on channel=0 note=70 velocity=0 time=37
note_on channel=0 note=74 velocity=75 time=33
note_on channel=0 note=84 velocity=0 time=1
note_on channel=0 note=58 velocity=0 time=74
note_on channel=0 note=74 velocity=0 time=167
note_on channel=0 note=57 velocity=66 time=63
control_change channel=0 control=64 value=0 time=7
note_on channel=0 note=69 velocity=66 time=1
note_on channel=0 note=65 velocity=60 time=6
note_on channel=0 note=61 velocity=61 time=1
note_on channel=0 note=67 velocity=54 time=18
note_on channel=0 note=64 velocity=47 time=5
note_on channel=0 note=58 velocity=42 time=1
note_on channel=0 note=84 velocity=72 time=11
note_on channel=0 note=72 velocity=63 time=7
note_on channel=0 note=67 velocity=0 time=26
note_on channel=0 note=58 velocity=0 time=18
note_on channel=0 note=64 velocity=0 time=0
control_change channel=0 control=64 value=127 time=16
note_on channel=0 note=72 velocity=0 time=2
note_on channel=0 note=65 velocity=0 time=98
note_on channel=0 note=69 velocity=0 time=0
note_on channel=0 note=72 velocity=66 time=39
note_on channel=0 note=61 velocity=0 time=22
note_on channel=0 note=84 velocity=0 time=5
note_on channel=0 note=57 velocity=0 time=22
note_on channel=0 note=72 velocity=0 time=95
note_on channel=0 note=57 velocity=50 time=8
note_on channel=0 note=65 velocity=65 time=2
note_on channel=0 note=61 velocity=69 time=12
note_on channel=0 note=71 velocity=46 time=28
note_on channel=0 note=58 velocity=36 time=20
note_on channel=0 note=65 velocity=0 time=33
note_on channel=0 note=57 velocity=0 time=3
note_on channel=0 note=71 velocity=0 time=4
note_on channel=0 note=58 velocity=0 time=45
note_on channel=0 note=61 velocity=0 time=1
note_on channel=0 note=73 velocity=64 time=15
note_on channel=0 note=71 velocity=61 time=8
note_on channel=0 note=74 velocity=39 time=53
note_on channel=0 note=71 velocity=0 time=8
note_on channel=0 note=73 velocity=0 time=34
note_on channel=0 note=69 velocity=65 time=46
note_on channel=0 note=79 velocity=56 time=25
note_on channel=0 note=69 velocity=0 time=66
note_on channel=0 note=74 velocity=0 time=14
note_on channel=0 note=74 velocity=66 time=56
note_on channel=0 note=69 velocity=53 time=35
note_on channel=0 note=67 velocity=47 time=5
note_on channel=0 note=64 velocity=75 time=17
note_on channel=0 note=60 velocity=65 time=6
note_on channel=0 note=57 velocity=58 time=4
note_on channel=0 note=53 velocity=55 time=3
note_on channel=0 note=76 velocity=39 time=8
note_on channel=0 note=52 velocity=48 time=2
control_change channel=0 control=64 value=0 time=1
note_on channel=0 note=79 velocity=0 time=7
note_on channel=0 note=54 velocity=44 time=3
note_on channel=0 note=67 velocity=0 time=31
note_on channel=0 note=52 velocity=0 time=15
note_on channel=0 note=69 velocity=0 time=6
note_on channel=0 note=54 velocity=0 time=6
note_on channel=0 note=76 velocity=0 time=37
control_change channel=0 control=64 value=127 time=21
note_on channel=0 note=69 velocity=41 time=42
note_on channel=0 note=67 velocity=48 time=2
note_on channel=0 note=67 velocity=0 time=77
note_on channel=0 note=69 velocity=0 time=1
note_on channel=0 note=64 velocity=0 time=53
note_on channel=0 note=73 velocity=70 time=18
note_on channel=0 note=60 velocity=0 time=76
note_on channel=0 note=53 velocity=0 time=46
note_on channel=0 note=57 velocity=0 time=13
note_on channel=0 note=74 velocity=0 time=47
note_on channel=0 note=65 velocity=69 time=18
note_on channel=0 note=57 velocity=60 time=8
note_on channel=0 note=53 velocity=57 time=2
note_on channel=0 note=60 velocity=66 time=4
note_on channel=0 note=73 velocity=0 time=40
note_on channel=0 note=54 velocity=35 time=17
note_on channel=0 note=65 velocity=0 time=10
note_on channel=0 note=53 velocity=0 time=56
note_on channel=0 note=60 velocity=0 time=9
note_on channel=0 note=57 velocity=0 time=19
note_on channel=0 note=79 velocity=60 time=13
note_on channel=0 note=67 velocity=66 time=18
note_on channel=0 note=54 velocity=0 time=12
note_on channel=0 note=74 velocity=39 time=33
note_on channel=0 note=67 velocity=0 time=51
note_on channel=0 note=74 velocity=0 time=4
note_on channel=0 note=67 velocity=53 time=73
note_on channel=0 note=73 velocity=63 time=1
note_on channel=0 note=74 velocity=47 time=9
note_on channel=0 note=79 velocity=0 time=39
note_on channel=0 note=67 velocity=0 time=23
note_on channel=0 note=74 velocity=0 time=11
note_on channel=0 note=67 velocity=58 time=94
note_on channel=0 note=74 velocity=45 time=7
note_on channel=0 note=79 velocity=46 time=14
note_on channel=0 note=67 velocity=0 time=48
note_on channel=0 note=74 velocity=0 time=1
note_on channel=0 note=79 velocity=0 time=13
note_on channel=0 note=73 velocity=0 time=26
note_on channel=0 note=64 velocity=61 time=58
note_on channel=0 note=73 velocity=73 time=0
note_on channel=0 note=54 velocity=56 time=3
note_on channel=0 note=50 velocity=55 time=1
note_on channel=0 note=79 velocity=60 time=6
note_on channel=0 note=58 velocity=56 time=1
note_on channel=0 note=67 velocity=63 time=7
note_on channel=0 note=51 velocity=38 time=51
note_on channel=0 note=67 velocity=0 time=31
note_on channel=0 note=73 velocity=0 time=28
note_on channel=0 note=51 velocity=0 time=3
note_on channel=0 note=79 velocity=0 time=4
note_on channel=0 note=64 velocity=0 time=39
note_on channel=0 note=73 velocity=63 time=15
note_on channel=0 note=67 velocity=57 time=7
note_on channel=0 note=79 velocity=65 time=1
note_on channel=0 note=50 velocity=0 time=31
note_on channel=0 note=54 velocity=0 time=25
note_on channel=0 note=58 velocity=0 time=10
note_on channel=0 note=67 velocity=0 time=19
note_on channel=0 note=79 velocity=0 time=21
note_on channel=0 note=73 velocity=0 time=10
note_on channel=0 note=73 velocity=66 time=39
note_on channel=0 note=79 velocity=75 time=5
note_on channel=0 note=67 velocity=54 time=5
note_on channel=0 note=67 velocity=0 time=71
note_on channel=0 note=73 velocity=0 time=47
note_on channel=0 note=79 velocity=0 time=4
note_on channel=0 note=67 velocity=60 time=30
note_on channel=0 note=55 velocity=66 time=8
note_on channel=0 note=65 velocity=63 time=14
note_on channel=0 note=81 velocity=69 time=6
note_on channel=0 note=79 velocity=65 time=12
note_on channel=0 note=63 velocity=57 time=1
note_on channel=0 note=69 velocity=69 time=0
note_on channel=0 note=56 velocity=51 time=9
note_on channel=0 note=73 velocity=41 time=7
note_on channel=0 note=57 velocity=36 time=4
note_on channel=0 note=63 velocity=0 time=20
note_on channel=0 note=65 velocity=0 time=13
note_on channel=0 note=56 velocity=0 time=2
note_on channel=0 note=69 velocity=0 time=8
note_on channel=0 note=57 velocity=0 time=15
note_on channel=0 note=73 velocity=0 time=3
note_on channel=0 note=79 velocity=0 time=9
note_on channel=0 note=81 velocity=0 time=18
note_on channel=0 note=67 velocity=0 time=36
note_on channel=0 note=71 velocity=69 time=14
note_on channel=0 note=73 velocity=61 time=0
note_on channel=0 note=81 velocity=69 time=1
note_on channel=0 note=55 velocity=0 time=4
note_on channel=0 note=69 velocity=54 time=5
note_on channel=0 note=69 velocity=0 time=67
note_on channel=0 note=71 velocity=0 time=2
note_on channel=0 note=73 velocity=0 time=24
note_on channel=0 note=81 velocity=0 time=23
control_change channel=0 control=64 value=0 time=63
note_on channel=0 note=57 velocity=69 time=29
note_on channel=0 note=64 velocity=69 time=1
note_on channel=0 note=69 velocity=75 time=1
note_on channel=0 note=74 velocity=43 time=5
note_on channel=0 note=61 velocity=66 time=5
note_on channel=0 note=83 velocity=43 time=15
note_on channel=0 note=71 velocity=46 time=3
note_on channel=0 note=81 velocity=54 time=10
note_on channel=0 note=58 velocity=37 time=22
control_change channel=0 control=64 value=127 time=5
note_on channel=0 note=74 velocity=0 time=12
note_on channel=0 note=81 velocity=0 time=17
note_on channel=0 note=71 velocity=0 time=4
note_on channel=0 note=58 velocity=0 time=37
note_on channel=0 note=57 velocity=0 time=15
note_on channel=0 note=69 velocity=0 time=2
note_on channel=0 note=72 velocity=60 time=8
note_on channel=0 note=64 velocity=0 time=30
note_on channel=0 note=72 velocity=0 time=34
note_on channel=0 note=61 velocity=0 time=14
note_on channel=0 note=72 velocity=69 time=57
note_on channel=0 note=76 velocity=56 time=22
note_on channel=0 note=72 velocity=0 time=68
note_on channel=0 note=83 velocity=0 time=15
note_on channel=0 note=76 velocity=0 time=46
note_on channel=0 note=59 velocity=25 time=26
note_on channel=0 note=71 velocity=78 time=14
note_on channel=0 note=66 velocity=82 time=2
note_on channel=0 note=84 velocity=82 time=18
note_on channel=0 note=63 velocity=69 time=5
note_on channel=0 note=77 velocity=61 time=3
note_on channel=0 note=72 velocity=63 time=12
note_on channel=0 note=74 velocity=36 time=38
note_on channel=0 note=71 velocity=0 time=10
note_on channel=0 note=77 velocity=0 time=17
note_on channel=0 note=74 velocity=0 time=19
note_on channel=0 note=72 velocity=0 time=8
note_on channel=0 note=66 velocity=0 time=22
note_on channel=0 note=59 velocity=0 time=1
note_on channel=0 note=63 velocity=0 time=13
note_on channel=0 note=84 velocity=0 time=84
note_on channel=0 note=74 velocity=72 time=26
note_on channel=0 note=74 velocity=0 time=106
note_on channel=0 note=79 velocity=51 time=98
note_on channel=0 note=74 velocity=53 time=26
note_on channel=0 note=74 velocity=0 time=61
note_on channel=0 note=79 velocity=0 time=26
note_on channel=0 note=51 velocity=61 time=45
note_on channel=0 note=54 velocity=75 time=2
note_on channel=0 note=60 velocity=82 time=3
note_on channel=0 note=47 velocity=63 time=2
control_change channel=0 control=64 value=0 time=2
note_on channel=0 note=86 velocity=63 time=14
note_on channel=0 note=74 velocity=57 time=2
note_on channel=0 note=88 velocity=59 time=2
note_on channel=0 note=79 velocity=57 time=5
note_on channel=0 note=76 velocity=53 time=17
note_on channel=0 note=88 velocity=0 time=24
note_on channel=0 note=76 velocity=0 time=33
control_change channel=0 control=64 value=127 time=55
note_on channel=0 note=74 velocity=0 time=8
note_on channel=0 note=79 velocity=0 time=28
note_on channel=0 note=74 velocity=57 time=66
note_on channel=0 note=79 velocity=30 time=6
control_change channel=0 control=64 value=0 time=12
note_on channel=0 note=86 velocity=0 time=6
note_on channel=0 note=47 velocity=0 time=22
note_on channel=0 note=79 velocity=0 time=39
control_change channel=0 control=64 value=127 time=12
note_on channel=0 note=51 velocity=0 time=9
note_on channel=0 note=54 velocity=0 time=14
note_on channel=0 note=60 velocity=0 time=2
note_on channel=0 note=74 velocity=0 time=177
note_on channel=0 note=83 velocity=78 time=50
note_on channel=0 note=72 velocity=65 time=7
note_on channel=0 note=71 velocity=66 time=130
note_on channel=0 note=60 velocity=63 time=4
note_on channel=0 note=68 velocity=73 time=0
note_on channel=0 note=72 velocity=0 time=0
note_on channel=0 note=69 velocity=75 time=5
note_on channel=0 note=66 velocity=70 time=3
note_on channel=0 note=61 velocity=45 time=14
note_on channel=0 note=69 velocity=0 time=29
note_on channel=0 note=61 velocity=0 time=73
note_on channel=0 note=71 velocity=0 time=37
note_on channel=0 note=72 velocity=52 time=12
note_on channel=0 note=66 velocity=0 time=6
note_on channel=0 note=83 velocity=0 time=4
note_on channel=0 note=68 velocity=0 time=1
note_on channel=0 note=60 velocity=0 time=37
note_on channel=0 note=77 velocity=21 time=57
note_on channel=0 note=72 velocity=0 time=69
note_on channel=0 note=65 velocity=78 time=97
note_on channel=0 note=53 velocity=69 time=3
note_on channel=0 note=58 velocity=66 time=5
note_on channel=0 note=62 velocity=65 time=18
note_on channel=0 note=72 velocity=50 time=10
note_on channel=0 note=84 velocity=60 time=15
note_on channel=0 note=83 velocity=58 time=7
note_on channel=0 note=77 velocity=0 time=19
note_on channel=0 note=72 velocity=0 time=16
note_on channel=0 note=59 velocity=42 time=13
note_on channel=0 note=58 velocity=0 time=33
note_on channel=0 note=59 velocity=0 time=39
note_on channel=0 note=84 velocity=0 time=26
note_on channel=0 note=83 velocity=0 time=1
note_on channel=0 note=62 velocity=0 time=13
note_on channel=0 note=72 velocity=72 time=0
note_on channel=0 note=65 velocity=0 time=8
note_on channel=0 note=72 velocity=0 time=116
note_on channel=0 note=74 velocity=60 time=9
note_on channel=0 note=71 velocity=57 time=185
note_on channel=0 note=69 velocity=61 time=25
note_on channel=0 note=67 velocity=60 time=1
note_on channel=0 note=62 velocity=58 time=11
note_on channel=0 note=58 velocity=62 time=4
note_on channel=0 note=71 velocity=0 time=44
note_on channel=0 note=74 velocity=0 time=29
note_on channel=0 note=69 velocity=0 time=35
note_on channel=0 note=67 velocity=0 time=61
note_on channel=0 note=86 velocity=75 time=10
note_on channel=0 note=74 velocity=63 time=6
note_on channel=0 note=79 velocity=32 time=60
note_on channel=0 note=62 velocity=0 time=23
note_on channel=0 note=58 velocity=0 time=21
note_on channel=0 note=74 velocity=0 time=29
note_on channel=0 note=79 velocity=0 time=22
note_on channel=0 note=69 velocity=44 time=27
note_on channel=0 note=62 velocity=49 time=5
note_on channel=0 note=58 velocity=59 time=10
note_on channel=0 note=86 velocity=0 time=26
note_on channel=0 note=74 velocity=72 time=104
note_on channel=0 note=69 velocity=0 time=28
note_on channel=0 note=62 velocity=0 time=35
note_on channel=0 note=62 velocity=47 time=90
note_on channel=0 note=79 velocity=38 time=1
note_on channel=0 note=65 velocity=69 time=8
note_on channel=0 note=74 velocity=0 time=5
note_on channel=0 note=67 velocity=52 time=5
note_on channel=0 note=67 velocity=0 time=57
note_on channel=0 note=74 velocity=75 time=78
note_on channel=0 note=65 velocity=0 time=17
note_on channel=0 note=86 velocity=57 time=20
note_on channel=0 note=53 velocity=0 time=14
note_on channel=0 note=62 velocity=0 time=4
note_on channel=0 note=58 velocity=0 time=29
note_on channel=0 note=74 velocity=0 time=16
note_on channel=0 note=62 velocity=53 time=26
note_on channel=0 note=79 velocity=0 time=1
note_on channel=0 note=58 velocity=61 time=7
note_on channel=0 note=53 velocity=49 time=4
note_on channel=0 note=61 velocity=49 time=15
note_on channel=0 note=79 velocity=57 time=58
note_on channel=0 note=74 velocity=69 time=1
note_on channel=0 note=61 velocity=0 time=6
note_on channel=0 note=76 velocity=47 time=19
note_on channel=0 note=62 velocity=0 time=66
note_on channel=0 note=76 velocity=0 time=3
note_on channel=0 note=58 velocity=0 time=10
note_on channel=0 note=69 velocity=72 time=47
note_on channel=0 note=58 velocity=57 time=1
note_on channel=0 note=74 velocity=0 time=1
note_on channel=0 note=62 velocity=60 time=4
note_on channel=0 note=55 velocity=32 time=6
note_on channel=0 note=67 velocity=69 time=2
note_on channel=0 note=67 velocity=0 time=39
note_on channel=0 note=86 velocity=0 time=13
note_on channel=0 note=79 velocity=0 time=14
note_on channel=0 note=79 velocity=66 time=60
note_on channel=0 note=74 velocity=75 time=5
note_on channel=0 note=86 velocity=61 time=7
note_on channel=0 note=69 velocity=0 time=12
note_on channel=0 note=62 velocity=0 time=56
note_on channel=0 note=53 velocity=0 time=17
note_on channel=0 note=74 velocity=0 time=16
note_on channel=0 note=55 velocity=0 time=16
note_on channel=0 note=86 velocity=0 time=19
note_on channel=0 note=62 velocity=58 time=3
note_on channel=0 note=79 velocity=0 time=8
note_on channel=0 note=63 velocity=42 time=14
note_on channel=0 note=63 velocity=0 time=66
note_on channel=0 note=79 velocity=61 time=13
note_on channel=0 note=74 velocity=78 time=11
note_on channel=0 note=86 velocity=66 time=2
note_on channel=0 note=74 velocity=0 time=74
note_on channel=0 note=79 velocity=0 time=15
note_on channel=0 note=86 velocity=0 time=11
note_on channel=0 note=71 velocity=82 time=24
note_on channel=0 note=69 velocity=66 time=20
note_on channel=0 note=58 velocity=0 time=31
note_on channel=0 note=69 velocity=0 time=10
note_on channel=0 note=62 velocity=0 time=11
note_on channel=0 note=79 velocity=60 time=10
note_on channel=0 note=86 velocity=61 time=1
note_on channel=0 note=74 velocity=75 time=9
note_on channel=0 note=71 velocity=0 time=46
note_on channel=0 note=74 velocity=0 time=44
note_on channel=0 note=79 velocity=0 time=13
note_on channel=0 note=86 velocity=0 time=33
note_on channel=0 note=62 velocity=56 time=20
note_on channel=0 note=70 velocity=48 time=10
note_on channel=0 note=86 velocity=78 time=19
note_on channel=0 note=79 velocity=57 time=5
note_on channel=0 note=74 velocity=54 time=8
note_on channel=0 note=76 velocity=57 time=13
note_on channel=0 note=70 velocity=0 time=14
note_on channel=0 note=76 velocity=0 time=35
note_on channel=0 note=74 velocity=0 time=25
note_on channel=0 note=79 velocity=0 time=22
note_on channel=0 note=79 velocity=60 time=70
note_on channel=0 note=76 velocity=66 time=3
note_on channel=0 note=70 velocity=28 time=4
note_on channel=0 note=64 velocity=24 time=22
note_on channel=0 note=70 velocity=0 time=79
note_on channel=0 note=76 velocity=0 time=2
note_on channel=0 note=79 velocity=0 time=2
note_on channel=0 note=74 velocity=75 time=54
note_on channel=0 note=70 velocity=68 time=5
note_on channel=0 note=86 velocity=0 time=1
note_on channel=0 note=68 velocity=63 time=34
note_on channel=0 note=89 velocity=84 time=100
note_on channel=0 note=77 velocity=66 time=16
note_on channel=0 note=83 velocity=65 time=1
note_on channel=0 note=74 velocity=0 time=2
note_on channel=0 note=79 velocity=61 time=14
note_on channel=0 note=64 velocity=0 time=8
note_on channel=0 note=62 velocity=0 time=10
note_on channel=0 note=79 velocity=0 time=26
note_on channel=0 note=70 velocity=0 time=57
note_on channel=0 note=70 velocity=52 time=44
note_on channel=0 note=64 velocity=60 time=8
note_on channel=0 note=76 velocity=65 time=17
note_on channel=0 note=77 velocity=0 time=21
note_on channel=0 note=83 velocity=0 time=26
note_on channel=0 note=76 velocity=0 time=8
note_on channel=0 note=89 velocity=0 time=27
note_on channel=0 note=89 velocity=70 time=59
note_on channel=0 note=79 velocity=69 time=12
note_on channel=0 note=83 velocity=61 time=0
note_on channel=0 note=68 velocity=0 time=46
note_on channel=0 note=70 velocity=0 time=48
note_on channel=0 note=79 velocity=0 time=56
note_on channel=0 note=77 velocity=82 time=8
note_on channel=0 note=70 velocity=66 time=3
note_on channel=0 note=83 velocity=0 time=5
note_on channel=0 note=89 velocity=0 time=35
note_on channel=0 note=68 velocity=60 time=5
note_on channel=0 note=77 velocity=0 time=75
note_on channel=0 note=84 velocity=66 time=64
note_on channel=0 note=93 velocity=74 time=1
note_on channel=0 note=91 velocity=81 time=1
note_on channel=0 note=81 velocity=82 time=1
note_on channel=0 note=86 velocity=69 time=11
note_on channel=0 note=70 velocity=0 time=15
note_on channel=0 note=64 velocity=0 time=16
note_on channel=0 note=86 velocity=0 time=6
note_on channel=0 note=68 velocity=0 time=9
note_on channel=0 note=61 velocity=52 time=107
note_on channel=0 note=93 velocity=0 time=7
note_on channel=0 note=72 velocity=66 time=3
note_on channel=0 note=66 velocity=58 time=1
note_on channel=0 note=71 velocity=69 time=1
note_on channel=0 note=62 velocity=60 time=5
note_on channel=0 note=81 velocity=0 time=3
note_on channel=0 note=68 velocity=40 time=1
note_on channel=0 note=84 velocity=0 time=21
note_on channel=0 note=61 velocity=0 time=13
note_on channel=0 note=91 velocity=0 time=22
note_on channel=0 note=68 velocity=0 time=3
note_on channel=0 note=72 velocity=0 time=5
note_on channel=0 note=83 velocity=82 time=84
note_on channel=0 note=86 velocity=61 time=6
note_on channel=0 note=93 velocity=74 time=4
note_on channel=0 note=66 velocity=0 time=4
note_on channel=0 note=68 velocity=40 time=2
note_on channel=0 note=71 velocity=0 time=1
note_on channel=0 note=88 velocity=58 time=6
note_on channel=0 note=68 velocity=0 time=61
note_on channel=0 note=66 velocity=79 time=76
note_on channel=0 note=88 velocity=0 time=6
note_on channel=0 note=83 velocity=0 time=9
note_on channel=0 note=68 velocity=55 time=11
note_on channel=0 note=63 velocity=36 time=21
note_on channel=0 note=86 velocity=0 time=5
note_on channel=0 note=93 velocity=0 time=19
note_on channel=0 note=63 velocity=0 time=84
note_on channel=0 note=74 velocity=78 time=19
note_on channel=0 note=63 velocity=31 time=126
note_on channel=0 note=74 velocity=0 time=20
note_on channel=0 note=96 velocity=87 time=14
note_on channel=0 note=89 velocity=77 time=5
note_on channel=0 note=84 velocity=87 time=1
note_on channel=0 note=63 velocity=0 time=2
note_on channel=0 note=68 velocity=0 time=13
note_on channel=0 note=95 velocity=54 time=9
note_on channel=0 note=88 velocity=46 time=9
note_on channel=0 note=66 velocity=0 time=3
note_on channel=0 note=62 velocity=0 time=4
note_on channel=0 note=95 velocity=0 time=45
note_on channel=0 note=88 velocity=0 time=14
note_on channel=0 note=95 velocity=22 time=118
note_on channel=0 note=84 velocity=0 time=5
note_on channel=0 note=45 velocity=65 time=1
note_on channel=0 note=95 velocity=0 time=97
note_on channel=0 note=96 velocity=0 time=1
note_on channel=0 note=89 velocity=0 time=41
note_on channel=0 note=51 velocity=46 time=96
note_on channel=0 note=57 velocity=93 time=26
note_on channel=0 note=89 velocity=37 time=2
note_on channel=0 note=52 velocity=63 time=23
note_on channel=0 note=50 velocity=49 time=3
note_on channel=0 note=52 velocity=0 time=39
note_on channel=0 note=89 velocity=0 time=4
note_on channel=0 note=50 velocity=0 time=20
note_on channel=0 note=95 velocity=91 time=124
note_on channel=0 note=83 velocity=87 time=1
note_on channel=0 note=93 velocity=61 time=19
note_on channel=0 note=88 velocity=59 time=4
note_on channel=0 note=86 velocity=57 time=4
note_on channel=0 note=93 velocity=0 time=31
note_on channel=0 note=88 velocity=0 time=5
note_on channel=0 note=57 velocity=0 time=10
note_on channel=0 note=86 velocity=0 time=3
note_on channel=0 note=95 velocity=0 time=48
note_on channel=0 note=51 velocity=0 time=31
note_on channel=0 note=45 velocity=0 time=32
note_on channel=0 note=83 velocity=0 time=29
note_on channel=0 note=45 velocity=55 time=74
note_on channel=0 note=52 velocity=57 time=145
note_on channel=0 note=67 velocity=84 time=147
note_on channel=0 note=79 velocity=78 time=3
note_on channel=0 note=60 velocity=52 time=10
note_on channel=0 note=59 velocity=50 time=1
note_on channel=0 note=72 velocity=66 time=1
note_on channel=0 note=45 velocity=0 time=21
note_on channel=0 note=77 velocity=41 time=11
note_on channel=0 note=59 velocity=0 time=18
note_on channel=0 note=60 velocity=0 time=0
note_on channel=0 note=77 velocity=0 time=39
note_on channel=0 note=59 velocity=57 time=65
note_on channel=0 note=79 velocity=0 time=32
note_on channel=0 note=72 velocity=0 time=22
note_on channel=0 note=67 velocity=0 time=20
note_on channel=0 note=52 velocity=0 time=7
note_on channel=0 note=45 velocity=31 time=39
note_on channel=0 note=47 velocity=31 time=20
note_on channel=0 note=76 velocity=75 time=54
note_on channel=0 note=69 velocity=69 time=4
note_on channel=0 note=59 velocity=0 time=9
note_on channel=0 note=64 velocity=57 time=10
note_on channel=0 note=65 velocity=46 time=22
note_on channel=0 note=65 velocity=0 time=68
note_on channel=0 note=52 velocity=58 time=12
note_on channel=0 note=76 velocity=0 time=23
note_on channel=0 note=47 velocity=0 time=23
note_on channel=0 note=64 velocity=0 time=3
note_on channel=0 note=69 velocity=0 time=0
note_on channel=0 note=45 velocity=0 time=23
note_on channel=0 note=59 velocity=63 time=2
note_on channel=0 note=52 velocity=0 time=116
note_on channel=0 note=59 velocity=0 time=11
note_on channel=0 note=65 velocity=72 time=6
note_on channel=0 note=60 velocity=75 time=7
note_on channel=0 note=72 velocity=75 time=1
note_on channel=0 note=48 velocity=28 time=21
note_on channel=0 note=71 velocity=54 time=5
note_on channel=0 note=45 velocity=55 time=32
note_on channel=0 note=71 velocity=0 time=24
note_on channel=0 note=60 velocity=0 time=8
note_on channel=0 note=47 velocity=35 time=11
note_on channel=0 note=48 velocity=0 time=5
note_on channel=0 note=72 velocity=0 time=4
note_on channel=0 note=65 velocity=0 time=33
note_on channel=0 note=57 velocity=63 time=54
note_on channel=0 note=47 velocity=0 time=9
note_on channel=0 note=52 velocity=57 time=125
note_on channel=0 note=57 velocity=0 time=6
note_on channel=0 note=62 velocity=65 time=11
note_on channel=0 note=69 velocity=82 time=1
note_on channel=0 note=59 velocity=72 time=4
note_on channel=0 note=64 velocity=79 time=5
note_on channel=0 note=64 velocity=0 time=34
note_on channel=0 note=45 velocity=0 time=3
note_on channel=0 note=59 velocity=0 time=50
note_on channel=0 note=69 velocity=0 time=8
note_on channel=0 note=62 velocity=0 time=28
note_on channel=0 note=55 velocity=61 time=52
note_on channel=0 note=52 velocity=0 time=67
note_on channel=0 note=47 velocity=39 time=88
note_on channel=0 note=45 velocity=56 time=7
note_on channel=0 note=55 velocity=0 time=1
note_on channel=0 note=60 velocity=82 time=49
note_on channel=0 note=55 velocity=75 time=1
note_on channel=0 note=67 velocity=82 time=4
note_on channel=0 note=65 velocity=69 time=12
note_on channel=0 note=57 velocity=66 time=2
note_on channel=0 note=60 velocity=0 time=28
note_on channel=0 note=57 velocity=0 time=9
note_on channel=0 note=65 velocity=0 time=1
note_on channel=0 note=55 velocity=0 time=13
note_on channel=0 note=67 velocity=0 time=10
note_on channel=0 note=55 velocity=51 time=127
note_on channel=0 note=45 velocity=0 time=41
note_on channel=0 note=52 velocity=56 time=74
note_on channel=0 note=47 velocity=0 time=8
note_on channel=0 note=55 velocity=0 time=22
note_on channel=0 note=45 velocity=60 time=152
note_on channel=0 note=52 velocity=0 time=94
note_on channel=0 note=59 velocity=65 time=61
note_on channel=0 note=67 velocity=69 time=0
note_on channel=0 note=67 velocity=0 time=86
note_on channel=0 note=59 velocity=0 time=4
note_on channel=0 note=55 velocity=53 time=37
note_on channel=0 note=52 velocity=57 time=112
note_on channel=0 note=55 velocity=0 time=23
note_on channel=0 note=45 velocity=0 time=20
note_on channel=0 note=45 velocity=56 time=171
note_on channel=0 note=52 velocity=0 time=75
note_on channel=0 note=55 velocity=55 time=94
note_on channel=0 note=52 velocity=55 time=117
note_on channel=0 note=55 velocity=0 time=11
note_on channel=0 note=45 velocity=0 time=46
note_on channel=0 note=74 velocity=75 time=10
note_on channel=0 note=84 velocity=75 time=5
note_on channel=0 note=74 velocity=0 time=76
note_on channel=0 note=84 velocity=0 time=5
note_on channel=0 note=55 velocity=58 time=95
note_on channel=0 note=52 velocity=0 time=18
note_on channel=0 note=55 velocity=0 time=135
note_on channel=0 note=52 velocity=44 time=26
note_on channel=0 note=55 velocity=63 time=115
note_on channel=0 note=52 velocity=0 time=73
note_on channel=0 note=55 velocity=0 time=43
note_on channel=0 note=71 velocity=66 time=28
note_on channel=0 note=67 velocity=54 time=8
note_on channel=0 note=67 velocity=0 time=108
note_on channel=0 note=55 velocity=55 time=26
note_on channel=0 note=71 velocity=0 time=8
note_on channel=0 note=67 velocity=57 time=89
note_on channel=0 note=76 velocity=69 time=14
note_on channel=0 note=67 velocity=0 time=74
note_on channel=0 note=76 velocity=0 time=83
note_on channel=0 note=65 velocity=54 time=13
note_on channel=0 note=57 velocity=30 time=64
note_on channel=0 note=57 velocity=0 time=89
note_on channel=0 note=65 velocity=0 time=9
note_on channel=0 note=62 velocity=39 time=34
note_on channel=0 note=83 velocity=78 time=1
note_on channel=0 note=72 velocity=63 time=6
note_on channel=0 note=55 velocity=0 time=63
note_on channel=0 note=72 velocity=0 time=15
note_on channel=0 note=83 velocity=0 time=21
note_on channel=0 note=62 velocity=0 time=2
note_on channel=0 note=55 velocity=39 time=4
note_on channel=0 note=59 velocity=57 time=30
note_on channel=0 note=62 velocity=53 time=124
note_on channel=0 note=67 velocity=56 time=29
note_on channel=0 note=55 velocity=0 time=68
note_on channel=0 note=59 velocity=0 time=6
note_on channel=0 note=67 velocity=0 time=23
note_on channel=0 note=71 velocity=54 time=21
note_on channel=0 note=77 velocity=57 time=5
note_on channel=0 note=62 velocity=0 time=45
note_on channel=0 note=55 velocity=42 time=10
note_on channel=0 note=71 velocity=0 time=37
note_on channel=0 note=59 velocity=31 time=5
note_on channel=0 note=77 velocity=0 time=72
note_on channel=0 note=67 velocity=60 time=14
note_on channel=0 note=59 velocity=0 time=38
note_on channel=0 note=55 velocity=0 time=80
note_on channel=0 note=67 velocity=0 time=33
note_on channel=0 note=62 velocity=57 time=9
note_on channel=0 note=84 velocity=63 time=21
note_on channel=0 note=73 velocity=75 time=5
note_on channel=0 note=73 velocity=0 time=43
note_on channel=0 note=84 velocity=0 time=11
note_on channel=0 note=59 velocity=52 time=57
note_on channel=0 note=55 velocity=60 time=36
note_on channel=0 note=62 velocity=0 time=5
note_on channel=0 note=62 velocity=57 time=146
note_on channel=0 note=55 velocity=0 time=36
note_on channel=0 note=67 velocity=63 time=97
note_on channel=0 note=59 velocity=0 time=60
note_on channel=0 note=77 velocity=65 time=17
note_on channel=0 note=71 velocity=66 time=5
note_on channel=0 note=62 velocity=0 time=10
note_on channel=0 note=55 velocity=22 time=22
note_on channel=0 note=71 velocity=0 time=14
note_on channel=0 note=67 velocity=0 time=36
note_on channel=0 note=59 velocity=47 time=23
note_on channel=0 note=77 velocity=0 time=5
note_on channel=0 note=55 velocity=0 time=7
note_on channel=0 note=62 velocity=43 time=0
note_on channel=0 note=55 velocity=57 time=129
note_on channel=0 note=84 velocity=69 time=47
note_on channel=0 note=62 velocity=0 time=5
note_on channel=0 note=76 velocity=78 time=0
note_on channel=0 note=59 velocity=0 time=23
note_on channel=0 note=86 velocity=43 time=6
note_on channel=0 note=84 velocity=0 time=43
note_on channel=0 note=86 velocity=0 time=13
note_on channel=0 note=76 velocity=0 time=25
note_on channel=0 note=67 velocity=66 time=28
note_on channel=0 note=62 velocity=57 time=110
note_on channel=0 note=67 velocity=0 time=18
note_on channel=0 note=76 velocity=87 time=53
note_on channel=0 note=69 velocity=75 time=7
note_on channel=0 note=59 velocity=55 time=30
note_on channel=0 note=55 velocity=0 time=1
note_on channel=0 note=69 velocity=0 time=15
note_on channel=0 note=76 velocity=0 time=33
note_on channel=0 note=62 velocity=0 time=47
note_on channel=0 note=55 velocity=65 time=63
note_on channel=0 note=59 velocity=0 time=66
note_on channel=0 note=75 velocity=82 time=44
note_on channel=0 note=59 velocity=42 time=22
note_on channel=0 note=86 velocity=43 time=17
note_on channel=0 note=62 velocity=50 time=3
note_on channel=0 note=85 velocity=38 time=3
note_on channel=0 note=75 velocity=0 time=45
note_on channel=0 note=85 velocity=0 time=3
note_on channel=0 note=86 velocity=0 time=5
note_on channel=0 note=59 velocity=0 time=29
note_on channel=0 note=67 velocity=60 time=37
note_on channel=0 note=62 velocity=0 time=52
note_on channel=0 note=62 velocity=53 time=76
note_on channel=0 note=67 velocity=0 time=31
note_on channel=0 note=55 velocity=0 time=1
note_on channel=0 note=79 velocity=65 time=0
note_on channel=0 note=59 velocity=43 time=10
note_on channel=0 note=71 velocity=57 time=10
note_on channel=0 note=72 velocity=53 time=0
note_on channel=0 note=71 velocity=0 time=40
note_on channel=0 note=72 velocity=0 time=12
note_on channel=0 note=79 velocity=0 time=53
note_on channel=0 note=55 velocity=63 time=51
note_on channel=0 note=62 velocity=0 time=3
note_on channel=0 note=59 velocity=0 time=47
note_on channel=0 note=59 velocity=50 time=85
note_on channel=0 note=87 velocity=49 time=40
note_on channel=0 note=78 velocity=61 time=2
note_on channel=0 note=62 velocity=58 time=12
note_on channel=0 note=88 velocity=43 time=9
note_on channel=0 note=89 velocity=44 time=21
note_on channel=0 note=78 velocity=0 time=14
note_on channel=0 note=55 velocity=0 time=6
note_on channel=0 note=87 velocity=0 time=47
note_on channel=0 note=89 velocity=0 time=10
note_on channel=0 note=88 velocity=0 time=9
note_on channel=0 note=59 velocity=0 time=41
note_on channel=0 note=67 velocity=61 time=6
note_on channel=0 note=62 velocity=0 time=43
note_on channel=0 note=62 velocity=51 time=77
note_on channel=0 note=87 velocity=64 time=12
note_on channel=0 note=79 velocity=61 time=4
note_on channel=0 note=59 velocity=56 time=15
note_on channel=0 note=67 velocity=0 time=14
note_on channel=0 note=79 velocity=0 time=54
note_on channel=0 note=87 velocity=0 time=94
note_on channel=0 note=67 velocity=58 time=20
note_on channel=0 note=59 velocity=0 time=50
note_on channel=0 note=62 velocity=0 time=17
note_on channel=0 note=55 velocity=52 time=25
note_on channel=0 note=85 velocity=63 time=41
note_on channel=0 note=75 velocity=63 time=47
note_on channel=0 note=67 velocity=0 time=4
note_on channel=0 note=59 velocity=57 time=16
note_on channel=0 note=85 velocity=0 time=3
note_on channel=0 note=75 velocity=0 time=19
note_on channel=0 note=62 velocity=55 time=62
note_on channel=0 note=55 velocity=0 time=8
note_on channel=0 note=59 velocity=0 time=68
note_on channel=0 note=65 velocity=56 time=13
note_on channel=0 note=62 velocity=0 time=90
note_on channel=0 note=76 velocity=72 time=40
note_on channel=0 note=55 velocity=56 time=1
note_on channel=0 note=65 velocity=0 time=0
note_on channel=0 note=88 velocity=81 time=2
note_on channel=0 note=86 velocity=65 time=18
note_on channel=0 note=76 velocity=0 time=35
note_on channel=0 note=86 velocity=0 time=10
note_on channel=0 note=88 velocity=0 time=15
note_on channel=0 note=64 velocity=58 time=114
note_on channel=0 note=64 velocity=0 time=131
note_on channel=0 note=59 velocity=53 time=8
note_on channel=0 note=84 velocity=60 time=10
note_on channel=0 note=96 velocity=58 time=15
note_on channel=0 note=95 velocity=54 time=28
note_on channel=0 note=55 velocity=0 time=24
note_on channel=0 note=84 velocity=0 time=20
note_on channel=0 note=95 velocity=0 time=5
note_on channel=0 note=96 velocity=0 time=11
note_on channel=0 note=62 velocity=51 time=28
note_on channel=0 note=59 velocity=0 time=52
note_on channel=0 note=64 velocity=61 time=28
note_on channel=0 note=62 velocity=0 time=37
note_on channel=0 note=55 velocity=48 time=3
note_on channel=0 note=64 velocity=0 time=139
note_on channel=0 note=58 velocity=61 time=44
note_on channel=0 note=62 velocity=60 time=186
note_on channel=0 note=58 velocity=0 time=73
note_on channel=0 note=88 velocity=74 time=65
note_on channel=0 note=76 velocity=69 time=5
note_on channel=0 note=62 velocity=0 time=63
note_on channel=0 note=88 velocity=0 time=8
note_on channel=0 note=76 velocity=0 time=32
note_on channel=0 note=67 velocity=43 time=24
note_on channel=0 note=62 velocity=51 time=114
note_on channel=0 note=67 velocity=0 time=19
note_on channel=0 note=58 velocity=64 time=90
note_on channel=0 note=55 velocity=0 time=39
note_on channel=0 note=62 velocity=0 time=20
note_on channel=0 note=66 velocity=70 time=20
note_on channel=0 note=78 velocity=61 time=6
note_on channel=0 note=78 velocity=0 time=47
note_on channel=0 note=58 velocity=0 time=3
note_on channel=0 note=66 velocity=0 time=33
note_on channel=0 note=62 velocity=52 time=114
note_on channel=0 note=56 velocity=62 time=132
note_on channel=0 note=62 velocity=0 time=9
note_on channel=0 note=69 velocity=69 time=51
note_on channel=0 note=79 velocity=69 time=11
note_on channel=0 note=79 velocity=0 time=45
note_on channel=0 note=69 velocity=0 time=24
note_on channel=0 note=56 velocity=0 time=6
note_on channel=0 note=60 velocity=43 time=107
note_on channel=0 note=56 velocity=62 time=94
note_on channel=0 note=60 velocity=0 time=9
note_on channel=0 note=51 velocity=82 time=164
note_on channel=0 note=61 velocity=61 time=10
note_on channel=0 note=62 velocity=57 time=9
note_on channel=0 note=60 velocity=48 time=14
note_on channel=0 note=51 velocity=0 time=2
note_on channel=0 note=61 velocity=0 time=11
note_on channel=0 note=56 velocity=0 time=8
note_on channel=0 note=52 velocity=37 time=8
note_on channel=0 note=53 velocity=23 time=62
note_on channel=0 note=62 velocity=0 time=3
note_on channel=0 note=60 velocity=0 time=15
note_on channel=0 note=52 velocity=0 time=70
note_on channel=0 note=56 velocity=57 time=3
note_on channel=0 note=53 velocity=0 time=100
note_on channel=0 note=57 velocity=66 time=69
note_on channel=0 note=56 velocity=0 time=17
note_on channel=0 note=57 velocity=0 time=99
note_on channel=0 note=56 velocity=53 time=9
note_on channel=0 note=56 velocity=0 time=39
note_on channel=0 note=62 velocity=69 time=38
note_on channel=0 note=62 velocity=0 time=110
note_on channel=0 note=41 velocity=43 time=68
note_on channel=0 note=43 velocity=55 time=5
note_on channel=0 note=46 velocity=33 time=40
note_on channel=0 note=46 velocity=0 time=75
note_on channel=0 note=55 velocity=50 time=22
note_on channel=0 note=53 velocity=51 time=9
note_on channel=0 note=41 velocity=0 time=52
note_on channel=0 note=43 velocity=0 time=12
note_on channel=0 note=53 velocity=0 time=6
note_on channel=0 note=55 velocity=0 time=30
note_on channel=0 note=62 velocity=57 time=23
note_on channel=0 note=62 velocity=0 time=104
note_on channel=0 note=63 velocity=48 time=2
note_on channel=0 note=63 velocity=0 time=58
note_on channel=0 note=64 velocity=65 time=72
note_on channel=0 note=63 velocity=43 time=51
note_on channel=0 note=64 velocity=0 time=76
note_on channel=0 note=63 velocity=0 time=9
note_on channel=0 note=64 velocity=57 time=65
note_on channel=0 note=68 velocity=66 time=100
note_on channel=0 note=64 velocity=0 time=136
note_on channel=0 note=79 velocity=58 time=17
note_on channel=0 note=68 velocity=0 time=3
note_on channel=0 note=71 velocity=65 time=0
note_on channel=0 note=69 velocity=56 time=3
note_on channel=0 note=67 velocity=46 time=10
note_on channel=0 note=70 velocity=31 time=13
note_on channel=0 note=69 velocity=0 time=22
note_on channel=0 note=67 velocity=0 time=32
note_on channel=0 note=70 velocity=0 time=9
note_on channel=0 note=78 velocity=56 time=82
note_on channel=0 note=79 velocity=0 time=5
note_on channel=0 note=75 velocity=29 time=45
note_on channel=0 note=71 velocity=0 time=49
note_on channel=0 note=75 velocity=0 time=6
note_on channel=0 note=81 velocity=69 time=8
note_on channel=0 note=78 velocity=0 time=59
note_on channel=0 note=81 velocity=0 time=44
note_on channel=0 note=85 velocity=61 time=67
note_on channel=0 note=75 velocity=24 time=113
note_on channel=0 note=85 velocity=0 time=9
note_on channel=0 note=83 velocity=54 time=1
note_on channel=0 note=83 velocity=0 time=84
note_on channel=0 note=75 velocity=0 time=44
note_on channel=0 note=80 velocity=60 time=2
note_on channel=0 note=86 velocity=51 time=75
note_on channel=0 note=80 velocity=0 time=15
note_on channel=0 note=86 velocity=0 time=127
note_on channel=0 note=79 velocity=48 time=56
note_on channel=0 note=79 velocity=0 time=137
note_on channel=0 note=78 velocity=58 time=3
note_on channel=0 note=90 velocity=42 time=47
note_on channel=0 note=78 velocity=0 time=9
note_on channel=0 note=80 velocity=43 time=86
note_on channel=0 note=90 velocity=0 time=100
note_on channel=0 note=69 velocity=35 time=3
note_on channel=0 note=76 velocity=45 time=25
note_on channel=0 note=69 velocity=0 time=20
note_on channel=0 note=80 velocity=0 time=30
note_on channel=0 note=67 velocity=44 time=40
note_on channel=0 note=68 velocity=33 time=20
note_on channel=0 note=76 velocity=0 time=50
note_on channel=0 note=92 velocity=51 time=24
note_on channel=0 note=75 velocity=51 time=27
note_on channel=0 note=68 velocity=0 time=6
note_on channel=0 note=92 velocity=0 time=30
note_on channel=0 note=67 velocity=0 time=10
note_on channel=0 note=76 velocity=53 time=86
note_on channel=0 note=75 velocity=0 time=2
note_on channel=0 note=80 velocity=41 time=8
note_on channel=0 note=67 velocity=30 time=54
note_on channel=0 note=80 velocity=0 time=33
note_on channel=0 note=76 velocity=0 time=3
note_on channel=0 note=92 velocity=47 time=23
note_on channel=0 note=67 velocity=0 time=40
note_on channel=0 note=73 velocity=55 time=8
note_on channel=0 note=92 velocity=0 time=2
note_on channel=0 note=80 velocity=41 time=30
note_on channel=0 note=73 velocity=0 time=36
note_on channel=0 note=80 velocity=0 time=23
note_on channel=0 note=67 velocity=32 time=23
note_on channel=0 note=76 velocity=46 time=33
note_on channel=0 note=76 velocity=0 time=62
note_on channel=0 note=73 velocity=61 time=29
note_on channel=0 note=67 velocity=0 time=7
note_on channel=0 note=77 velocity=35 time=8
note_on channel=0 note=73 velocity=0 time=43
note_on channel=0 note=77 velocity=0 time=53
note_on channel=0 note=78 velocity=46 time=14
note_on channel=0 note=76 velocity=54 time=58
note_on channel=0 note=78 velocity=0 time=24
note_on channel=0 note=76 velocity=0 time=38
note_on channel=0 note=73 velocity=52 time=50
note_on channel=0 note=82 velocity=52 time=24
note_on channel=0 note=73 velocity=0 time=23
note_on channel=0 note=82 velocity=0 time=43
note_on channel=0 note=74 velocity=48 time=100
note_on channel=0 note=73 velocity=49 time=38
note_on channel=0 note=74 velocity=0 time=21
note_on channel=0 note=73 velocity=0 time=56
note_on channel=0 note=70 velocity=60 time=37
note_on channel=0 note=70 velocity=0 time=46
note_on channel=0 note=73 velocity=40 time=43
note_on channel=0 note=78 velocity=55 time=26
note_on channel=0 note=73 velocity=0 time=50
note_on channel=0 note=80 velocity=55 time=89
note_on channel=0 note=78 velocity=0 time=96
note_on channel=0 note=80 velocity=0 time=31
note_on channel=0 note=70 velocity=39 time=104
note_on channel=0 note=80 velocity=55 time=69
note_on channel=0 note=70 velocity=0 time=6
note_on channel=0 note=80 velocity=0 time=83
note_on channel=0 note=77 velocity=56 time=18
note_on channel=0 note=77 velocity=0 time=67
note_on channel=0 note=73 velocity=48 time=48
note_on channel=0 note=77 velocity=48 time=50
note_on channel=0 note=73 velocity=0 time=3
note_on channel=0 note=77 velocity=0 time=157
note_on channel=0 note=79 velocity=35 time=64
note_on channel=0 note=74 velocity=39 time=36
note_on channel=0 note=79 velocity=0 time=41
note_on channel=0 note=74 velocity=0 time=39
note_on channel=0 note=82 velocity=44 time=107
note_on channel=0 note=82 velocity=0 time=63
note_on channel=0 note=66 velocity=53 time=117
note_on channel=0 note=66 velocity=0 time=154
note_on channel=0 note=69 velocity=48 time=14
note_on channel=0 note=71 velocity=40 time=42
note_on channel=0 note=69 velocity=0 time=56
note_on channel=0 note=70 velocity=53 time=3
note_on channel=0 note=71 velocity=0 time=8
note_on channel=0 note=70 velocity=0 time=134
note_on channel=0 note=75 velocity=49 time=9
note_on channel=0 note=67 velocity=48 time=57
note_on channel=0 note=67 velocity=0 time=87
note_on channel=0 note=66 velocity=58 time=23
note_on channel=0 note=75 velocity=0 time=5
note_on channel=0 note=66 velocity=0 time=65
note_on channel=0 note=63 velocity=50 time=23
note_on channel=0 note=78 velocity=40 time=72
note_on channel=0 note=63 velocity=0 time=50
note_on channel=0 note=66 velocity=52 time=7
note_on channel=0 note=78 velocity=0 time=11
note_on channel=0 note=66 velocity=0 time=88
note_on channel=0 note=78 velocity=31 time=35
note_on channel=0 note=59 velocity=36 time=50
note_on channel=0 note=67 velocity=57 time=1
note_on channel=0 note=78 velocity=0 time=9
note_on channel=0 note=59 velocity=0 time=41
note_on channel=0 note=67 velocity=0 time=87
note_on channel=0 note=70 velocity=46 time=69
note_on channel=0 note=73 velocity=63 time=25
note_on channel=0 note=70 velocity=0 time=45
note_on channel=0 note=65 velocity=40 time=112
note_on channel=0 note=73 velocity=0 time=34
note_on channel=0 note=65 velocity=0 time=97
note_on channel=0 note=66 velocity=63 time=30
note_on channel=0 note=66 velocity=0 time=53
note_on channel=0 note=61 velocity=48 time=74
note_on channel=0 note=67 velocity=52 time=94
note_on channel=0 note=70 velocity=48 time=91
note_on channel=0 note=67 velocity=0 time=27
note_on channel=0 note=61 velocity=0 time=20
note_on channel=0 note=58 velocity=43 time=40
note_on channel=0 note=78 velocity=43 time=14
note_on channel=0 note=70 velocity=0 time=35
note_on channel=0 note=58 velocity=0 time=125
note_on channel=0 note=66 velocity=57 time=48
note_on channel=0 note=66 velocity=0 time=68
note_on channel=0 note=78 velocity=0 time=23
note_on channel=0 note=66 velocity=61 time=59
note_on channel=0 note=66 velocity=0 time=84
note_on channel=0 note=78 velocity=56 time=21
note_on channel=0 note=54 velocity=51 time=86
note_on channel=0 note=63 velocity=42 time=36
control_change channel=0 control=64 value=0 time=14
note_on channel=0 note=65 velocity=45 time=18
control_change channel=0 control=64 value=127 time=34
note_on channel=0 note=65 velocity=0 time=83
note_on channel=0 note=78 velocity=0 time=23
note_on channel=0 note=70 velocity=49 time=4
note_on channel=0 note=63 velocity=0 time=15
note_on channel=0 note=54 velocity=0 time=92
note_on channel=0 note=70 velocity=0 time=34
note_on channel=0 note=78 velocity=60 time=7
note_on channel=0 note=54 velocity=26 time=66
note_on channel=0 note=61 velocity=53 time=37
note_on channel=0 note=54 velocity=0 time=72
note_on channel=0 note=66 velocity=60 time=29
note_on channel=0 note=61 velocity=0 time=10
note_on channel=0 note=78 velocity=0 time=9
note_on channel=0 note=66 velocity=0 time=60
note_on channel=0 note=70 velocity=58 time=74
note_on channel=0 note=78 velocity=60 time=145
note_on channel=0 note=54 velocity=49 time=28
note_on channel=0 note=70 velocity=0 time=0
note_on channel=0 note=78 velocity=0 time=133
note_on channel=0 note=68 velocity=57 time=26
note_on channel=0 note=68 velocity=0 time=47
note_on channel=0 note=66 velocity=32 time=48
note_on channel=0 note=66 velocity=0 time=118
note_on channel=0 note=61 velocity=47 time=12
note_on channel=0 note=73 velocity=47 time=5
note_on channel=0 note=54 velocity=0 time=3
note_on channel=0 note=61 velocity=0 time=153
note_on channel=0 note=78 velocity=44 time=2
note_on channel=0 note=73 velocity=0 time=11
note_on channel=0 note=70 velocity=58 time=138
note_on channel=0 note=78 velocity=0 time=39
note_on channel=0 note=70 velocity=0 time=12
note_on channel=0 note=68 velocity=58 time=32
note_on channel=0 note=68 velocity=0 time=72
note_on channel=0 note=72 velocity=57 time=63
note_on channel=0 note=72 velocity=0 time=123
note_on channel=0 note=73 velocity=52 time=9
note_on channel=0 note=70 velocity=22 time=118
note_on channel=0 note=73 velocity=0 time=29
note_on channel=0 note=78 velocity=44 time=4
note_on channel=0 note=70 velocity=0 time=49
note_on channel=0 note=73 velocity=41 time=81
note_on channel=0 note=66 velocity=41 time=80
note_on channel=0 note=78 velocity=0 time=22
note_on channel=0 note=73 velocity=0 time=70
note_on channel=0 note=72 velocity=53 time=24
note_on channel=0 note=66 velocity=0 time=64
note_on channel=0 note=73 velocity=56 time=60
note_on channel=0 note=72 velocity=0 time=11
note_on channel=0 note=75 velocity=39 time=11
note_on channel=0 note=73 velocity=0 time=119
note_on channel=0 note=78 velocity=43 time=3
note_on channel=0 note=70 velocity=45 time=30
note_on channel=0 note=75 velocity=0 time=34
note_on channel=0 note=78 velocity=0 time=56
note_on channel=0 note=70 velocity=0 time=14
note_on channel=0 note=66 velocity=39 time=76
note_on channel=0 note=70 velocity=53 time=0
note_on channel=0 note=66 velocity=0 time=76
note_on channel=0 note=70 velocity=0 time=43
note_on channel=0 note=78 velocity=47 time=32
note_on channel=0 note=68 velocity=60 time=31
note_on channel=0 note=78 velocity=0 time=67
note_on channel=0 note=68 velocity=0 time=11
note_on channel=0 note=70 velocity=41 time=6
note_on channel=0 note=70 velocity=0 time=82
note_on channel=0 note=73 velocity=52 time=58
note_on channel=0 note=80 velocity=53 time=3
note_on channel=0 note=80 velocity=0 time=133
note_on channel=0 note=73 velocity=0 time=47
note_on channel=0 note=68 velocity=52 time=4
note_on channel=0 note=66 velocity=43 time=69
note_on channel=0 note=68 velocity=0 time=15
note_on channel=0 note=66 velocity=0 time=65
note_on channel=0 note=73 velocity=57 time=77
note_on channel=0 note=63 velocity=45 time=9
note_on channel=0 note=63 velocity=0 time=87
note_on channel=0 note=73 velocity=0 time=43
note_on channel=0 note=68 velocity=51 time=8
note_on channel=0 note=68 velocity=0 time=48
note_on channel=0 note=61 velocity=47 time=40
note_on channel=0 note=63 velocity=48 time=108
note_on channel=0 note=61 velocity=0 time=22
note_on channel=0 note=66 velocity=51 time=27
note_on channel=0 note=66 velocity=0 time=73
note_on channel=0 note=63 velocity=0 time=8
note_on channel=0 note=75 velocity=56 time=64
note_on channel=0 note=65 velocity=53 time=113
note_on channel=0 note=56 velocity=41 time=89
note_on channel=0 note=75 velocity=0 time=9
note_on channel=0 note=65 velocity=0 time=42
note_on channel=0 note=56 velocity=0 time=35
note_on channel=0 note=61 velocity=51 time=1
note_on channel=0 note=65 velocity=48 time=26
note_on channel=0 note=70 velocity=57 time=75
note_on channel=0 note=65 velocity=0 time=3
note_on channel=0 note=63 velocity=46 time=30
note_on channel=0 note=61 velocity=0 time=25
note_on channel=0 note=70 velocity=0 time=107
note_on channel=0 note=75 velocity=46 time=11
note_on channel=0 note=63 velocity=0 time=30
note_on channel=0 note=66 velocity=43 time=64
note_on channel=0 note=75 velocity=0 time=9
note_on channel=0 note=61 velocity=46 time=45
note_on channel=0 note=66 velocity=0 time=9
note_on channel=0 note=61 velocity=0 time=92
note_on channel=0 note=63 velocity=48 time=23
note_on channel=0 note=65 velocity=56 time=53
note_on channel=0 note=63 velocity=0 time=76
note_on channel=0 note=61 velocity=49 time=20
note_on channel=0 note=65 velocity=0 time=41
note_on channel=0 note=70 velocity=52 time=4
note_on channel=0 note=61 velocity=0 time=42
note_on channel=0 note=63 velocity=46 time=104
note_on channel=0 note=70 velocity=0 time=5
note_on channel=0 note=65 velocity=56 time=7
note_on channel=0 note=63 velocity=0 time=49
note_on channel=0 note=61 velocity=51 time=17
note_on channel=0 note=65 velocity=0 time=1
note_on channel=0 note=61 velocity=0 time=107
note_on channel=0 note=63 velocity=57 time=20
note_on channel=0 note=66 velocity=55 time=161
note_on channel=0 note=63 velocity=0 time=30
note_on channel=0 note=51 velocity=51 time=33
note_on channel=0 note=66 velocity=0 time=79
note_on channel=0 note=61 velocity=48 time=65
note_on channel=0 note=63 velocity=56 time=107
note_on channel=0 note=61 velocity=0 time=13
note_on channel=0 note=51 velocity=0 time=47
note_on channel=0 note=66 velocity=52 time=102
note_on channel=0 note=56 velocity=49 time=1
note_on channel=0 note=63 velocity=0 time=7
note_on channel=0 note=56 velocity=0 time=94
note_on channel=0 note=63 velocity=42 time=10
note_on channel=0 note=66 velocity=0 time=33
note_on channel=0 note=61 velocity=57 time=29
note_on channel=0 note=61 velocity=0 time=74
note_on channel=0 note=63 velocity=0 time=12
note_on channel=0 note=51 velocity=46 time=18
note_on channel=0 note=61 velocity=53 time=127
note_on channel=0 note=51 velocity=0 time=68
note_on channel=0 note=61 velocity=0 time=72
note_on channel=0 note=66 velocity=55 time=3
note_on channel=0 note=60 velocity=57 time=38
note_on channel=0 note=51 velocity=34 time=24
note_on channel=0 note=66 velocity=0 time=25
note_on channel=0 note=51 velocity=0 time=61
note_on channel=0 note=60 velocity=0 time=14
note_on channel=0 note=63 velocity=64 time=24
note_on channel=0 note=56 velocity=57 time=117
note_on channel=0 note=61 velocity=61 time=130
note_on channel=0 note=63 velocity=0 time=59
note_on channel=0 note=56 velocity=0 time=26
note_on channel=0 note=66 velocity=48 time=35
note_on channel=0 note=61 velocity=0 time=13
note_on channel=0 note=63 velocity=46 time=127
note_on channel=0 note=60 velocity=57 time=19
note_on channel=0 note=66 velocity=0 time=94
note_on channel=0 note=63 velocity=0 time=7
note_on channel=0 note=60 velocity=0 time=83
note_on channel=0 note=61 velocity=61 time=5
note_on channel=0 note=56 velocity=64 time=141
note_on channel=0 note=61 velocity=0 time=3
note_on channel=0 note=63 velocity=53 time=2
note_on channel=0 note=58 velocity=72 time=192
note_on channel=0 note=56 velocity=0 time=10
note_on channel=0 note=51 velocity=57 time=134
note_on channel=0 note=58 velocity=0 time=1
note_on channel=0 note=63 velocity=0 time=29
note_on channel=0 note=66 velocity=39 time=18
note_on channel=0 note=63 velocity=57 time=132
note_on channel=0 note=66 velocity=0 time=67
note_on channel=0 note=51 velocity=0 time=51
note_on channel=0 note=60 velocity=57 time=19
note_on channel=0 note=63 velocity=0 time=56
note_on channel=0 note=60 velocity=0 time=81
note_on channel=0 note=61 velocity=75 time=5
note_on channel=0 note=61 velocity=0 time=127
note_on channel=0 note=56 velocity=69 time=7
note_on channel=0 note=63 velocity=46 time=39
note_on channel=0 note=56 velocity=0 time=116
note_on channel=0 note=58 velocity=66 time=39
note_on channel=0 note=60 velocity=66 time=122
note_on channel=0 note=58 velocity=0 time=20
note_on channel=0 note=63 velocity=0 time=85
note_on channel=0 note=60 velocity=0 time=89
note_on channel=0 note=61 velocity=55 time=8
note_on channel=0 note=66 velocity=31 time=100
note_on channel=0 note=61 velocity=0 time=30
note_on channel=0 note=51 velocity=50 time=33
note_on channel=0 note=63 velocity=53 time=67
note_on channel=0 note=66 velocity=0 time=78
note_on channel=0 note=51 velocity=0 time=39
note_on channel=0 note=58 velocity=66 time=42
note_on channel=0 note=60 velocity=72 time=111
note_on channel=0 note=58 velocity=0 time=21
note_on channel=0 note=63 velocity=0 time=96
note_on channel=0 note=61 velocity=75 time=39
note_on channel=0 note=60 velocity=0 time=1
note_on channel=0 note=61 velocity=0 time=121
note_on channel=0 note=60 velocity=75 time=14
note_on channel=0 note=58 velocity=69 time=135
note_on channel=0 note=60 velocity=0 time=19
note_on channel=0 note=60 velocity=57 time=172
note_on channel=0 note=58 velocity=0 time=9
note_on channel=0 note=58 velocity=82 time=127
note_on channel=0 note=60 velocity=0 time=63
note_on channel=0 note=56 velocity=61 time=119
note_on channel=0 note=58 velocity=0 time=5
note_on channel=0 note=56 velocity=0 time=144
note_on channel=0 note=58 velocity=57 time=91
note_on channel=0 note=58 velocity=0 time=138
note_on channel=0 note=51 velocity=57 time=14
note_on channel=0 note=56 velocity=69 time=190
note_on channel=0 note=51 velocity=0 time=86
note_on channel=0 note=58 velocity=75 time=60
note_on channel=0 note=56 velocity=0 time=34
note_on channel=0 note=58 velocity=0 time=115
note_on channel=0 note=60 velocity=63 time=5
note_on channel=0 note=56 velocity=57 time=183
note_on channel=0 note=60 velocity=0 time=6
note_on channel=0 note=58 velocity=57 time=24
note_on channel=0 note=58 velocity=0 time=58
note_on channel=0 note=51 velocity=45 time=101
note_on channel=0 note=58 velocity=69 time=12
note_on channel=0 note=56 velocity=0 time=26
note_on channel=0 note=51 velocity=0 time=14
note_on channel=0 note=51 velocity=53 time=89
note_on channel=0 note=58 velocity=0 time=43
note_on channel=0 note=58 velocity=64 time=113
note_on channel=0 note=51 velocity=0 time=68
note_on channel=0 note=56 velocity=56 time=53
note_on channel=0 note=58 velocity=0 time=13
note_on channel=0 note=58 velocity=64 time=126
note_on channel=0 note=60 velocity=37 time=38
note_on channel=0 note=56 velocity=0 time=32
note_on channel=0 note=58 velocity=0 time=32
note_on channel=0 note=58 velocity=40 time=100
note_on channel=0 note=51 velocity=48 time=10
note_on channel=0 note=60 velocity=0 time=31
note_on channel=0 note=58 velocity=0 time=21
note_on channel=0 note=58 velocity=59 time=96
note_on channel=0 note=51 velocity=0 time=16
note_on channel=0 note=58 velocity=0 time=136
note_on channel=0 note=39 velocity=71 time=42
note_on channel=0 note=58 velocity=52 time=4
note_on channel=0 note=58 velocity=0 time=117
note_on channel=0 note=58 velocity=62 time=64
note_on channel=0 note=58 velocity=0 time=178
note_on channel=0 note=51 velocity=64 time=26
note_on channel=0 note=39 velocity=0 time=36
note_on channel=0 note=51 velocity=0 time=87
note_on channel=0 note=58 velocity=61 time=6
note_on channel=0 note=58 velocity=0 time=106
note_on channel=0 note=39 velocity=44 time=18
note_on channel=0 note=39 velocity=0 time=60
note_on channel=0 note=56 velocity=61 time=35
note_on channel=0 note=56 velocity=0 time=113
note_on channel=0 note=56 velocity=59 time=64
note_on channel=0 note=68 velocity=36 time=69
note_on channel=0 note=56 velocity=0 time=11
note_on channel=0 note=58 velocity=49 time=110
note_on channel=0 note=58 velocity=0 time=49
note_on channel=0 note=51 velocity=37 time=21
note_on channel=0 note=56 velocity=52 time=45
note_on channel=0 note=51 velocity=0 time=46
note_on channel=0 note=56 velocity=0 time=61
note_on channel=0 note=60 velocity=60 time=35
note_on channel=0 note=68 velocity=0 time=0
note_on channel=0 note=63 velocity=47 time=136
note_on channel=0 note=60 velocity=0 time=8
note_on channel=0 note=58 velocity=39 time=27
note_on channel=0 note=58 velocity=0 time=86
note_on channel=0 note=66 velocity=55 time=29
note_on channel=0 note=63 velocity=0 time=64
note_on channel=0 note=63 velocity=53 time=74
note_on channel=0 note=66 velocity=0 time=14
note_on channel=0 note=60 velocity=50 time=17
note_on channel=0 note=63 velocity=0 time=89
note_on channel=0 note=60 velocity=0 time=36
note_on channel=0 note=58 velocity=62 time=21
note_on channel=0 note=58 velocity=0 time=112
note_on channel=0 note=63 velocity=61 time=22
note_on channel=0 note=66 velocity=63 time=103
note_on channel=0 note=66 velocity=0 time=112
note_on channel=0 note=63 velocity=0 time=104
note_on channel=0 note=58 velocity=56 time=29
note_on channel=0 note=58 velocity=0 time=104
note_on channel=0 note=66 velocity=57 time=22
note_on channel=0 note=70 velocity=58 time=128
note_on channel=0 note=66 velocity=0 time=41
note_on channel=0 note=63 velocity=35 time=102
note_on channel=0 note=63 velocity=0 time=65
note_on channel=0 note=73 velocity=58 time=95
note_on channel=0 note=75 velocity=51 time=116
note_on channel=0 note=70 velocity=0 time=1
note_on channel=0 note=73 velocity=0 time=56
note_on channel=0 note=66 velocity=47 time=61
note_on channel=0 note=63 velocity=51 time=95
note_on channel=0 note=75 velocity=0 time=0
note_on channel=0 note=66 velocity=0 time=33
note_on channel=0 note=70 velocity=32 time=79
note_on channel=0 note=61 velocity=51 time=11
note_on channel=0 note=63 velocity=0 time=56
note_on channel=0 note=70 velocity=0 time=18
note_on channel=0 note=66 velocity=58 time=8
note_on channel=0 note=61 velocity=0 time=127
note_on channel=0 note=63 velocity=42 time=2
note_on channel=0 note=66 velocity=0 time=15
note_on channel=0 note=70 velocity=63 time=7
note_on channel=0 note=63 velocity=0 time=86
note_on channel=0 note=75 velocity=56 time=35
note_on channel=0 note=65 velocity=56 time=22
note_on channel=0 note=70 velocity=0 time=10
note_on channel=0 note=75 velocity=0 time=32
note_on channel=0 note=65 velocity=0 time=80
note_on channel=0 note=66 velocity=55 time=36
note_on channel=0 note=63 velocity=52 time=16
note_on channel=0 note=70 velocity=49 time=18
note_on channel=0 note=66 velocity=0 time=38
note_on channel=0 note=70 velocity=0 time=24
note_on channel=0 note=61 velocity=56 time=26
note_on channel=0 note=75 velocity=52 time=28
note_on channel=0 note=63 velocity=0 time=8
note_on channel=0 note=66 velocity=63 time=77
note_on channel=0 note=61 velocity=0 time=17
note_on channel=0 note=75 velocity=0 time=28
note_on channel=0 note=65 velocity=57 time=52
note_on channel=0 note=66 velocity=0 time=61
note_on channel=0 note=61 velocity=55 time=31
note_on channel=0 note=75 velocity=66 time=1
note_on channel=0 note=65 velocity=0 time=36
note_on channel=0 note=63 velocity=57 time=21
note_on channel=0 note=61 velocity=0 time=65
note_on channel=0 note=66 velocity=68 time=7
note_on channel=0 note=75 velocity=0 time=23
note_on channel=0 note=70 velocity=52 time=7
note_on channel=0 note=65 velocity=57 time=8
note_on channel=0 note=63 velocity=0 time=28
note_on channel=0 note=70 velocity=0 time=11
note_on channel=0 note=61 velocity=48 time=13
note_on channel=0 note=75 velocity=48 time=26
note_on channel=0 note=65 velocity=0 time=33
note_on channel=0 note=66 velocity=0 time=1
note_on channel=0 note=63 velocity=50 time=39
note_on channel=0 note=61 velocity=0 time=23
note_on channel=0 note=70 velocity=48 time=4
note_on channel=0 note=65 velocity=44 time=30
note_on channel=0 note=75 velocity=0 time=14
note_on channel=0 note=66 velocity=61 time=21
note_on channel=0 note=61 velocity=55 time=11
note_on channel=0 note=63 velocity=0 time=19
note_on channel=0 note=70 velocity=0 time=12
note_on channel=0 note=75 velocity=55 time=12
note_on channel=0 note=65 velocity=0 time=39
note_on channel=0 note=66 velocity=0 time=8
note_on channel=0 note=63 velocity=56 time=7
note_on channel=0 note=61 velocity=0 time=29
note_on channel=0 note=70 velocity=43 time=12
note_on channel=0 note=75 velocity=0 time=55
note_on channel=0 note=65 velocity=39 time=11
note_on channel=0 note=66 velocity=56 time=2
note_on channel=0 note=61 velocity=49 time=17
note_on channel=0 note=63 velocity=0 time=24
note_on channel=0 note=75 velocity=63 time=12
note_on channel=0 note=70 velocity=0 time=2
note_on channel=0 note=66 velocity=0 time=52
note_on channel=0 note=65 velocity=0 time=2
note_on channel=0 note=63 velocity=61 time=1
note_on channel=0 note=70 velocity=41 time=46
note_on channel=0 note=61 velocity=0 time=2
note_on channel=0 note=66 velocity=60 time=29
note_on channel=0 note=75 velocity=0 time=15
note_on channel=0 note=70 velocity=0 time=58
note_on channel=0 note=75 velocity=63 time=7
note_on channel=0 note=65 velocity=44 time=2
note_on channel=0 note=61 velocity=42 time=12
note_on channel=0 note=63 velocity=0 time=5
note_on channel=0 note=66 velocity=0 time=36
note_on channel=0 note=61 velocity=0 time=20
note_on channel=0 note=70 velocity=46 time=25
note_on channel=0 note=63 velocity=49 time=1
note_on channel=0 note=66 velocity=48 time=53
note_on channel=0 note=75 velocity=0 time=11
note_on channel=0 note=65 velocity=0 time=14
note_on channel=0 note=61 velocity=62 time=42
note_on channel=0 note=66 velocity=0 time=0
note_on channel=0 note=63 velocity=0 time=23
note_on channel=0 note=63 velocity=57 time=110
note_on channel=0 note=61 velocity=0 time=33
note_on channel=0 note=63 velocity=0 time=71
note_on channel=0 note=58 velocity=57 time=27
note_on channel=0 note=63 velocity=55 time=56
note_on channel=0 note=70 velocity=0 time=52
note_on channel=0 note=58 velocity=0 time=50
note_on channel=0 note=63 velocity=0 time=6
note_on channel=0 note=70 velocity=51 time=18
note_on channel=0 note=44 velocity=50 time=69
note_on channel=0 note=46 velocity=44 time=10
note_on channel=0 note=61 velocity=48 time=23
note_on channel=0 note=70 velocity=0 time=33
note_on channel=0 note=46 velocity=0 time=6
note_on channel=0 note=44 velocity=0 time=11
note_on channel=0 note=61 velocity=0 time=6
note_on channel=0 note=58 velocity=62 time=28
note_on channel=0 note=58 velocity=0 time=72
note_on channel=0 note=46 velocity=46 time=18
note_on channel=0 note=46 velocity=0 time=47
note_on channel=0 note=58 velocity=57 time=24
note_on channel=0 note=58 velocity=0 time=115
note_on channel=0 note=54 velocity=56 time=6
note_on channel=0 note=54 velocity=0 time=120
note_on channel=0 note=58 velocity=49 time=47
note_on channel=0 note=54 velocity=61 time=122
note_on channel=0 note=68 velocity=48 time=5
note_on channel=0 note=58 velocity=0 time=49
note_on channel=0 note=54 velocity=0 time=57
note_on channel=0 note=58 velocity=61 time=41
note_on channel=0 note=68 velocity=0 time=36
note_on channel=0 note=68 velocity=48 time=115
note_on channel=0 note=58 velocity=0 time=1
note_on channel=0 note=66 velocity=17 time=26
note_on channel=0 note=58 velocity=48 time=64
note_on channel=0 note=66 velocity=0 time=45
note_on channel=0 note=68 velocity=0 time=34
note_on channel=0 note=66 velocity=43 time=41
note_on channel=0 note=63 velocity=34 time=12
note_on channel=0 note=58 velocity=0 time=28
note_on channel=0 note=68 velocity=40 time=11
note_on channel=0 note=63 velocity=0 time=39
note_on channel=0 note=49 velocity=62 time=121
note_on channel=0 note=49 velocity=0 time=231
note_on channel=0 note=68 velocity=0 time=9
note_on channel=0 note=58 velocity=49 time=5
note_on channel=0 note=37 velocity=54 time=3
note_on channel=0 note=58 velocity=0 time=103
note_on channel=0 note=37 velocity=0 time=75
note_on channel=0 note=68 velocity=42 time=7
note_on channel=0 note=58 velocity=52 time=37
note_on channel=0 note=58 velocity=0 time=114
note_on channel=0 note=58 velocity=57 time=85
note_on channel=0 note=68 velocity=0 time=62
note_on channel=0 note=68 velocity=47 time=86
note_on channel=0 note=58 velocity=0 time=7
note_on channel=0 note=58 velocity=57 time=108
note_on channel=0 note=51 velocity=64 time=40
note_on channel=0 note=68 velocity=0 time=26
note_on channel=0 note=58 velocity=0 time=38
note_on channel=0 note=58 velocity=61 time=84
note_on channel=0 note=51 velocity=0 time=14
note_on channel=0 note=68 velocity=60 time=105
note_on channel=0 note=58 velocity=0 time=6
note_on channel=0 note=58 velocity=59 time=66
note_on channel=0 note=58 velocity=0 time=107
note_on channel=0 note=58 velocity=62 time=61
note_on channel=0 note=68 velocity=0 time=52
note_on channel=0 note=63 velocity=37 time=10
note_on channel=0 note=58 velocity=0 time=58
note_on channel=0 note=68 velocity=49 time=27
note_on channel=0 note=63 velocity=0 time=6
note_on channel=0 note=58 velocity=35 time=74
note_on channel=0 note=68 velocity=0 time=63
note_on channel=0 note=66 velocity=0 time=32
note_on channel=0 note=68 velocity=48 time=48
note_on channel=0 note=66 velocity=35 time=19
note_on channel=0 note=58 velocity=0 time=7
note_on channel=0 note=58 velocity=57 time=112
note_on channel=0 note=68 velocity=0 time=35
note_on channel=0 note=63 velocity=38 time=5
note_on channel=0 note=39 velocity=82 time=68
note_on channel=0 note=63 velocity=0 time=17
note_on channel=0 note=58 velocity=0 time=26
note_on channel=0 note=39 velocity=0 time=64
note_on channel=0 note=58 velocity=62 time=67
note_on channel=0 note=66 velocity=0 time=9
note_on channel=0 note=68 velocity=51 time=46
note_on channel=0 note=58 velocity=0 time=36
note_on channel=0 note=66 velocity=34 time=58
note_on channel=0 note=58 velocity=57 time=31
note_on channel=0 note=68 velocity=0 time=5
note_on channel=0 note=51 velocity=62 time=84
note_on channel=0 note=58 velocity=0 time=9
note_on channel=0 note=51 velocity=0 time=66
note_on channel=0 note=66 velocity=0 time=56
note_on channel=0 note=58 velocity=64 time=32
note_on channel=0 note=68 velocity=60 time=68
note_on channel=0 note=58 velocity=0 time=4
note_on channel=0 note=68 velocity=0 time=101
note_on channel=0 note=58 velocity=27 time=68
note_on channel=0 note=58 velocity=0 time=136
note_on channel=0 note=66 velocity=39 time=44
note_on channel=0 note=64 velocity=36 time=44
note_on channel=0 note=66 velocity=0 time=9
note_on channel=0 note=75 velocity=28 time=10
note_on channel=0 note=64 velocity=0 time=31
note_on channel=0 note=75 velocity=0 time=63
note_on channel=0 note=77 velocity=31 time=44
note_on channel=0 note=63 velocity=62 time=27
note_on channel=0 note=77 velocity=0 time=27
note_on channel=0 note=63 velocity=0 time=119
note_on channel=0 note=58 velocity=57 time=1
note_on channel=0 note=70 velocity=70 time=116
note_on channel=0 note=58 velocity=0 time=7
note_on channel=0 note=78 velocity=37 time=57
note_on channel=0 note=70 velocity=0 time=35
note_on channel=0 note=82 velocity=61 time=24
note_on channel=0 note=70 velocity=55 time=87
note_on channel=0 note=82 velocity=0 time=35
note_on channel=0 note=78 velocity=0 time=57
note_on channel=0 note=70 velocity=0 time=12
note_on channel=0 note=82 velocity=61 time=1
note_on channel=0 note=58 velocity=38 time=8
note_on channel=0 note=82 velocity=0 time=34
note_on channel=0 note=70 velocity=42 time=23
note_on channel=0 note=66 velocity=60 time=129
note_on channel=0 note=70 velocity=0 time=1
note_on channel=0 note=58 velocity=0 time=88
note_on channel=0 note=75 velocity=66 time=4
note_on channel=0 note=87 velocity=64 time=107
note_on channel=0 note=75 velocity=0 time=10
note_on channel=0 note=61 velocity=39 time=25
note_on channel=0 note=73 velocity=66 time=45
note_on channel=0 note=87 velocity=0 time=31
note_on channel=0 note=66 velocity=0 time=6
note_on channel=0 note=61 velocity=0 time=90
note_on channel=0 note=78 velocity=73 time=23
note_on channel=0 note=73 velocity=0 time=1
note_on channel=0 note=90 velocity=50 time=2
note_on channel=0 note=66 velocity=49 time=39
note_on channel=0 note=90 velocity=0 time=18
note_on channel=0 note=78 velocity=0 time=72
note_on channel=0 note=87 velocity=32 time=62
note_on channel=0 note=90 velocity=49 time=2
note_on channel=0 note=58 velocity=48 time=31
note_on channel=0 note=66 velocity=0 time=4
note_on channel=0 note=78 velocity=56 time=9
note_on channel=0 note=87 velocity=0 time=69
note_on channel=0 note=78 velocity=0 time=34
note_on channel=0 note=90 velocity=0 time=16
note_on channel=0 note=73 velocity=53 time=8
note_on channel=0 note=73 velocity=0 time=134
note_on channel=0 note=80 velocity=52 time=34
note_on channel=0 note=66 velocity=52 time=12
note_on channel=0 note=58 velocity=0 time=65
note_on channel=0 note=80 velocity=0 time=55
note_on channel=0 note=73 velocity=66 time=28
note_on channel=0 note=94 velocity=51 time=57
note_on channel=0 note=66 velocity=0 time=6
note_on channel=0 note=80 velocity=73 time=51
note_on channel=0 note=73 velocity=0 time=2
note_on channel=0 note=80 velocity=0 time=84
note_on channel=0 note=66 velocity=49 time=2
note_on channel=0 note=94 velocity=0 time=57
note_on channel=0 note=58 velocity=61 time=63
note_on channel=0 note=66 velocity=0 time=60
note_on channel=0 note=82 velocity=37 time=9
note_on channel=0 note=66 velocity=58 time=137
note_on channel=0 note=82 velocity=0 time=10
note_on channel=0 note=73 velocity=61 time=14
note_on channel=0 note=58 velocity=0 time=16
note_on channel=0 note=66 velocity=0 time=60
note_on channel=0 note=90 velocity=35 time=66
note_on channel=0 note=73 velocity=0 time=7
note_on channel=0 note=80 velocity=57 time=2
note_on channel=0 note=78 velocity=56 time=30
note_on channel=0 note=87 velocity=42 time=24
note_on channel=0 note=66 velocity=51 time=10
note_on channel=0 note=78 velocity=0 time=12
note_on channel=0 note=90 velocity=0 time=18
note_on channel=0 note=80 velocity=0 time=14
note_on channel=0 note=87 velocity=0 time=0
note_on channel=0 note=87 velocity=39 time=93
note_on channel=0 note=66 velocity=0 time=109
note_on channel=0 note=58 velocity=46 time=5
note_on channel=0 note=87 velocity=0 time=37
note_on channel=0 note=73 velocity=43 time=112
note_on channel=0 note=66 velocity=55 time=5
note_on channel=0 note=58 velocity=0 time=22
note_on channel=0 note=75 velocity=66 time=59
note_on channel=0 note=66 velocity=0 time=6
note_on channel=0 note=73 velocity=0 time=32
note_on channel=0 note=85 velocity=43 time=6
note_on channel=0 note=75 velocity=0 time=90
note_on channel=0 note=66 velocity=63 time=22
note_on channel=0 note=85 velocity=0 time=46
note_on channel=0 note=78 velocity=51 time=158
note_on channel=0 note=78 velocity=0 time=72
note_on channel=0 note=58 velocity=57 time=5
note_on channel=0 note=90 velocity=30 time=5
note_on channel=0 note=66 velocity=0 time=16
note_on channel=0 note=90 velocity=0 time=58
note_on channel=0 note=61 velocity=34 time=40
note_on channel=0 note=87 velocity=52 time=51
note_on channel=0 note=78 velocity=73 time=5
note_on channel=0 note=58 velocity=0 time=9
note_on channel=0 note=87 velocity=0 time=33
note_on channel=0 note=78 velocity=0 time=72
note_on channel=0 note=61 velocity=0 time=13
note_on channel=0 note=73 velocity=64 time=9
note_on channel=0 note=66 velocity=53 time=19
note_on channel=0 note=73 velocity=0 time=109
note_on channel=0 note=73 velocity=63 time=67
note_on channel=0 note=58 velocity=57 time=28
note_on channel=0 note=82 velocity=39 time=3
note_on channel=0 note=80 velocity=41 time=5
note_on channel=0 note=66 velocity=0 time=26
note_on channel=0 note=80 velocity=0 time=40
note_on channel=0 note=73 velocity=0 time=11
note_on channel=0 note=58 velocity=0 time=58
note_on channel=0 note=66 velocity=60 time=24
note_on channel=0 note=73 velocity=58 time=26
note_on channel=0 note=80 velocity=55 time=19
note_on channel=0 note=73 velocity=0 time=44
note_on channel=0 note=82 velocity=0 time=9
note_on channel=0 note=73 velocity=70 time=103
note_on channel=0 note=80 velocity=0 time=40
note_on channel=0 note=70 velocity=39 time=4
note_on channel=0 note=73 velocity=0 time=49
note_on channel=0 note=70 velocity=0 time=3
note_on channel=0 note=66 velocity=0 time=3
note_on channel=0 note=66 velocity=56 time=105
note_on channel=0 note=58 velocity=59 time=94
note_on channel=0 note=66 velocity=0 time=41
note_on channel=0 note=58 velocity=0 time=30
note_on channel=0 note=73 velocity=46 time=36
note_on channel=0 note=66 velocity=39 time=51
note_on channel=0 note=66 velocity=0 time=75
note_on channel=0 note=78 velocity=70 time=21
note_on channel=0 note=73 velocity=0 time=20
note_on channel=0 note=66 velocity=60 time=80
note_on channel=0 note=73 velocity=40 time=7
note_on channel=0 note=78 velocity=0 time=114
note_on channel=0 note=66 velocity=0 time=15
note_on channel=0 note=66 velocity=63 time=77
note_on channel=0 note=44 velocity=31 time=2
note_on channel=0 note=73 velocity=0 time=69
note_on channel=0 note=44 velocity=0 time=24
note_on channel=0 note=66 velocity=0 time=41
note_on channel=0 note=64 velocity=43 time=41
note_on channel=0 note=62 velocity=48 time=25
note_on channel=0 note=64 velocity=0 time=60
note_on channel=0 note=62 velocity=0 time=98
note_on channel=0 note=70 velocity=57 time=10
note_on channel=0 note=52 velocity=75 time=189
note_on channel=0 note=40 velocity=69 time=9
note_on channel=0 note=70 velocity=0 time=78
note_on channel=0 note=64 velocity=65 time=115
note_on channel=0 note=64 velocity=0 time=170
note_on channel=0 note=77 velocity=49 time=16
note_on channel=0 note=40 velocity=0 time=7
note_on channel=0 note=76 velocity=47 time=23
note_on channel=0 note=52 velocity=0 time=39
note_on channel=0 note=76 velocity=0 time=40
note_on channel=0 note=77 velocity=0 time=109
note_on channel=0 note=67 velocity=48 time=17
note_on channel=0 note=65 velocity=44 time=1
note_on channel=0 note=77 velocity=44 time=38
note_on channel=0 note=67 velocity=0 time=21
note_on channel=0 note=65 velocity=0 time=9
note_on channel=0 note=77 velocity=0 time=76
note_on channel=0 note=77 velocity=60 time=60
note_on channel=0 note=77 velocity=0 time=96
note_on channel=0 note=80 velocity=60 time=11
note_on channel=0 note=80 velocity=0 time=42
note_on channel=0 note=86 velocity=63 time=4
note_on channel=0 note=64 velocity=32 time=20
note_on channel=0 note=64 velocity=0 time=129
note_on channel=0 note=77 velocity=60 time=29
note_on channel=0 note=76 velocity=66 time=8
note_on channel=0 note=86 velocity=0 time=47
note_on channel=0 note=77 velocity=0 time=27
note_on channel=0 note=81 velocity=35 time=19
note_on channel=0 note=76 velocity=0 time=13
note_on channel=0 note=64 velocity=56 time=41
note_on channel=0 note=74 velocity=57 time=25
note_on channel=0 note=81 velocity=0 time=2
note_on channel=0 note=67 velocity=41 time=41
note_on channel=0 note=67 velocity=0 time=80
note_on channel=0 note=83 velocity=63 time=34
note_on channel=0 note=95 velocity=65 time=4
note_on channel=0 note=93 velocity=70 time=14
note_on channel=0 note=74 velocity=0 time=35
note_on channel=0 note=83 velocity=0 time=41
note_on channel=0 note=71 velocity=60 time=90
note_on channel=0 note=76 velocity=58 time=32
note_on channel=0 note=93 velocity=0 time=14
note_on channel=0 note=95 velocity=0 time=13
note_on channel=0 note=83 velocity=69 time=86
note_on channel=0 note=76 velocity=0 time=21
note_on channel=0 note=88 velocity=48 time=88
note_on channel=0 note=71 velocity=0 time=10
note_on channel=0 note=83 velocity=0 time=19
note_on channel=0 note=76 velocity=63 time=24
note_on channel=0 note=71 velocity=45 time=3
note_on channel=0 note=76 velocity=0 time=89
note_on channel=0 note=64 velocity=0 time=34
note_on channel=0 note=95 velocity=58 time=36
note_on channel=0 note=83 velocity=48 time=13
note_on channel=0 note=88 velocity=0 time=58
note_on channel=0 note=83 velocity=0 time=3
note_on channel=0 note=71 velocity=0 time=2
note_on channel=0 note=83 velocity=60 time=70
note_on channel=0 note=95 velocity=0 time=6
note_on channel=0 note=84 velocity=47 time=142
note_on channel=0 note=83 velocity=0 time=20
note_on channel=0 note=84 velocity=0 time=47
note_on channel=0 note=78 velocity=82 time=66
note_on channel=0 note=66 velocity=73 time=1
note_on channel=0 note=94 velocity=48 time=116
note_on channel=0 note=78 velocity=0 time=55
note_on channel=0 note=82 velocity=58 time=68
note_on channel=0 note=80 velocity=70 time=17
note_on channel=0 note=94 velocity=0 time=0
note_on channel=0 note=66 velocity=0 time=43
note_on channel=0 note=82 velocity=0 time=20
note_on channel=0 note=80 velocity=0 time=45
note_on channel=0 note=66 velocity=55 time=20
note_on channel=0 note=73 velocity=61 time=12
note_on channel=0 note=73 velocity=0 time=52
note_on channel=0 note=80 velocity=39 time=6
note_on channel=0 note=80 velocity=0 time=58
note_on channel=0 note=66 velocity=0 time=29
note_on channel=0 note=85 velocity=48 time=56
note_on channel=0 note=82 velocity=61 time=2
note_on channel=0 note=51 velocity=72 time=148
note_on channel=0 note=63 velocity=61 time=2
note_on channel=0 note=63 velocity=0 time=73
note_on channel=0 note=82 velocity=0 time=0
note_on channel=0 note=85 velocity=0 time=9
note_on channel=0 note=87 velocity=57 time=6
note_on channel=0 note=51 velocity=0 time=70
note_on channel=0 note=75 velocity=63 time=33
note_on channel=0 note=75 velocity=0 time=74
note_on channel=0 note=87 velocity=0 time=21
note_on channel=0 note=80 velocity=60 time=43
note_on channel=0 note=75 velocity=48 time=10
note_on channel=0 note=75 velocity=0 time=57
note_on channel=0 note=80 velocity=0 time=116
note_on channel=0 note=50 velocity=75 time=1
note_on channel=0 note=62 velocity=72 time=5
control_change channel=0 control=64 value=0 time=59
note_on channel=0 note=93 velocity=59 time=61
control_change channel=0 control=64 value=127 time=6
note_on channel=0 note=91 velocity=51 time=22
note_on channel=0 note=81 velocity=46 time=20
note_on channel=0 note=91 velocity=0 time=32
note_on channel=0 note=81 velocity=0 time=38
note_on channel=0 note=93 velocity=0 time=98
note_on channel=0 note=50 velocity=0 time=16
note_on channel=0 note=81 velocity=52 time=4
note_on channel=0 note=62 velocity=0 time=51
note_on channel=0 note=81 velocity=0 time=72
note_on channel=0 note=86 velocity=53 time=61
note_on channel=0 note=87 velocity=40 time=14
note_on channel=0 note=86 velocity=0 time=66
note_on channel=0 note=87 velocity=0 time=1
note_on channel=0 note=83 velocity=61 time=84
note_on channel=0 note=95 velocity=58 time=16
note_on channel=0 note=83 velocity=0 time=60
note_on channel=0 note=95 velocity=0 time=82
note_on channel=0 note=62 velocity=65 time=28
note_on channel=0 note=74 velocity=69 time=3
note_on channel=0 note=100 velocity=77 time=89
note_on channel=0 note=100 velocity=0 time=150
note_on channel=0 note=88 velocity=81 time=20
note_on channel=0 note=88 velocity=0 time=109
note_on channel=0 note=83 velocity=56 time=45
note_on channel=0 note=74 velocity=0 time=15
note_on channel=0 note=83 velocity=0 time=92
note_on channel=0 note=74 velocity=82 time=80
note_on channel=0 note=69 velocity=60 time=12
note_on channel=0 note=98 velocity=74 time=42
note_on channel=0 note=67 velocity=36 time=7
note_on channel=0 note=74 velocity=0 time=90
note_on channel=0 note=98 velocity=0 time=36
note_on channel=0 note=88 velocity=56 time=12
note_on channel=0 note=86 velocity=69 time=1
note_on channel=0 note=67 velocity=0 time=11
note_on channel=0 note=88 velocity=0 time=32
note_on channel=0 note=86 velocity=0 time=4
note_on channel=0 note=62 velocity=0 time=15
note_on channel=0 note=69 velocity=0 time=3
note_on channel=0 note=79 velocity=60 time=58
note_on channel=0 note=81 velocity=56 time=142
note_on channel=0 note=79 velocity=0 time=55
note_on channel=0 note=62 velocity=57 time=95
note_on channel=0 note=69 velocity=65 time=0
note_on channel=0 note=71 velocity=78 time=2
note_on channel=0 note=67 velocity=58 time=10
note_on channel=0 note=81 velocity=0 time=13
note_on channel=0 note=86 velocity=63 time=115
note_on channel=0 note=84 velocity=61 time=4
note_on channel=0 note=71 velocity=0 time=35
note_on channel=0 note=67 velocity=0 time=16
note_on channel=0 note=69 velocity=0 time=10
note_on channel=0 note=74 velocity=38 time=19
note_on channel=0 note=84 velocity=0 time=9
note_on channel=0 note=86 velocity=0 time=6
note_on channel=0 note=62 velocity=0 time=38
note_on channel=0 note=76 velocity=51 time=190
note_on channel=0 note=74 velocity=0 time=47
note_on channel=0 note=76 velocity=0 time=48
control_change channel=0 control=64 value=0 time=16
note_on channel=0 note=64 velocity=58 time=21
note_on channel=0 note=59 velocity=66 time=4
note_on channel=0 note=71 velocity=75 time=1
note_on channel=0 note=67 velocity=63 time=16
note_on channel=0 note=84 velocity=82 time=15
note_on channel=0 note=72 velocity=72 time=11
control_change channel=0 control=64 value=127 time=20
note_on channel=0 note=72 velocity=0 time=80
note_on channel=0 note=71 velocity=0 time=101
note_on channel=0 note=84 velocity=0 time=20
note_on channel=0 note=72 velocity=66 time=8
note_on channel=0 note=67 velocity=0 time=21
note_on channel=0 note=64 velocity=0 time=63
note_on channel=0 note=71 velocity=54 time=47
note_on channel=0 note=59 velocity=0 time=3
note_on channel=0 note=71 velocity=0 time=73
note_on channel=0 note=67 velocity=66 time=9
note_on channel=0 note=72 velocity=0 time=7
note_on channel=0 note=59 velocity=52 time=4
note_on channel=0 note=64 velocity=63 time=8
note_on channel=0 note=67 velocity=0 time=83
note_on channel=0 note=59 velocity=0 time=16
note_on channel=0 note=64 velocity=0 time=17
note_on channel=0 note=74 velocity=63 time=28
note_on channel=0 note=69 velocity=42 time=40
note_on channel=0 note=69 velocity=0 time=61
note_on channel=0 note=74 velocity=0 time=9
note_on channel=0 note=83 velocity=72 time=49
note_on channel=0 note=81 velocity=63 time=14
note_on channel=0 note=81 velocity=0 time=46
note_on channel=0 note=83 velocity=0 time=27
note_on channel=0 note=53 velocity=49 time=51
note_on channel=0 note=65 velocity=78 time=6
control_change channel=0 control=64 value=0 time=8
note_on channel=0 note=62 velocity=75 time=12
note_on channel=0 note=55 velocity=53 time=2
note_on channel=0 note=69 velocity=61 time=18
control_change channel=0 control=64 value=127 time=54
note_on channel=0 note=71 velocity=54 time=83
note_on channel=0 note=62 velocity=0 time=14
note_on channel=0 note=69 velocity=0 time=30
note_on channel=0 note=55 velocity=0 time=60
note_on channel=0 note=65 velocity=0 time=17
note_on channel=0 note=53 velocity=0 time=23
note_on channel=0 note=65 velocity=69 time=48
note_on channel=0 note=62 velocity=65 time=3
note_on channel=0 note=59 velocity=51 time=2
note_on channel=0 note=53 velocity=50 time=17
note_on channel=0 note=71 velocity=0 time=17
note_on channel=0 note=53 velocity=0 time=107
note_on channel=0 note=65 velocity=0 time=4
note_on channel=0 note=71 velocity=72 time=10
note_on channel=0 note=81 velocity=84 time=3
note_on channel=0 note=62 velocity=0 time=60
note_on channel=0 note=71 velocity=0 time=11
note_on channel=0 note=59 velocity=0 time=25
note_on channel=0 note=81 velocity=0 time=20
note_on channel=0 note=53 velocity=63 time=44
note_on channel=0 note=62 velocity=49 time=7
note_on channel=0 note=69 velocity=63 time=5
note_on channel=0 note=67 velocity=66 time=2
note_on channel=0 note=59 velocity=46 time=10
note_on channel=0 note=55 velocity=44 time=20
note_on channel=0 note=67 velocity=0 time=113
note_on channel=0 note=69 velocity=0 time=0
note_on channel=0 note=77 velocity=69 time=23
note_on channel=0 note=72 velocity=66 time=8
note_on channel=0 note=55 velocity=0 time=13
note_on channel=0 note=62 velocity=0 time=25
note_on channel=0 note=59 velocity=0 time=11
note_on channel=0 note=53 velocity=0 time=27
note_on channel=0 note=77 velocity=0 time=13
note_on channel=0 note=65 velocity=69 time=26
note_on channel=0 note=62 velocity=48 time=8
note_on channel=0 note=59 velocity=44 time=15
note_on channel=0 note=72 velocity=0 time=13
note_on channel=0 note=53 velocity=37 time=24
note_on channel=0 note=65 velocity=0 time=26
note_on channel=0 note=62 velocity=0 time=78
note_on channel=0 note=53 velocity=0 time=3
note_on channel=0 note=71 velocity=48 time=21
note_on channel=0 note=59 velocity=0 time=5
note_on channel=0 note=67 velocity=51 time=43
note_on channel=0 note=62 velocity=36 time=79
note_on channel=0 note=71 velocity=0 time=45
note_on channel=0 note=67 velocity=0 time=5
note_on channel=0 note=53 velocity=51 time=21
note_on channel=0 note=62 velocity=0 time=17
note_on channel=0 note=71 velocity=39 time=62
note_on channel=0 note=67 velocity=46 time=17
note_on channel=0 note=59 velocity=57 time=31
note_on channel=0 note=71 velocity=0 time=32
note_on channel=0 note=67 velocity=0 time=2
note_on channel=0 note=65 velocity=37 time=49
note_on channel=0 note=62 velocity=26 time=2
note_on channel=0 note=53 velocity=0 time=30
note_on channel=0 note=65 velocity=0 time=68
note_on channel=0 note=71 velocity=66 time=1
note_on channel=0 note=67 velocity=72 time=1
note_on channel=0 note=62 velocity=0 time=20
note_on channel=0 note=59 velocity=0 time=45
note_on channel=0 note=53 velocity=55 time=33
note_on channel=0 note=67 velocity=0 time=1
note_on channel=0 note=62 velocity=47 time=19
note_on channel=0 note=59 velocity=47 time=1
note_on channel=0 note=65 velocity=60 time=7
note_on channel=0 note=71 velocity=0 time=19
note_on channel=0 note=65 velocity=0 time=111
note_on channel=0 note=88 velocity=91 time=41
note_on channel=0 note=79 velocity=65 time=22
note_on channel=0 note=62 velocity=0 time=28
note_on channel=0 note=55 velocity=31 time=14
note_on channel=0 note=79 velocity=0 time=5
note_on channel=0 note=88 velocity=0 time=0
note_on channel=0 note=67 velocity=78 time=52
note_on channel=0 note=77 velocity=22 time=58
note_on channel=0 note=76 velocity=38 time=13
note_on channel=0 note=79 velocity=52 time=12
note_on channel=0 note=67 velocity=0 time=20
note_on channel=0 note=76 velocity=0 time=20
note_on channel=0 note=62 velocity=56 time=8
note_on channel=0 note=79 velocity=0 time=15
note_on channel=0 note=77 velocity=0 time=20
note_on channel=0 note=79 velocity=69 time=39
note_on channel=0 note=81 velocity=66 time=25
note_on channel=0 note=77 velocity=43 time=12
note_on channel=0 note=65 velocity=52 time=31
note_on channel=0 note=59 velocity=0 time=14
note_on channel=0 note=79 velocity=0 time=12
note_on channel=0 note=64 velocity=43 time=8
note_on channel=0 note=81 velocity=0 time=15
note_on channel=0 note=77 velocity=0 time=1
note_on channel=0 note=64 velocity=0 time=39
note_on channel=0 note=62 velocity=0 time=3
note_on channel=0 note=84 velocity=84 time=14
note_on channel=0 note=81 velocity=69 time=10
note_on channel=0 note=65 velocity=0 time=1
note_on channel=0 note=59 velocity=41 time=7
note_on channel=0 note=83 velocity=63 time=5
note_on channel=0 note=83 velocity=0 time=43
note_on channel=0 note=81 velocity=0 time=9
note_on channel=0 note=84 velocity=0 time=27
note_on channel=0 note=83 velocity=78 time=57
note_on channel=0 note=93 velocity=81 time=1
note_on channel=0 note=91 velocity=53 time=33
note_on channel=0 note=91 velocity=0 time=50
note_on channel=0 note=83 velocity=0 time=1
note_on channel=0 note=93 velocity=0 time=23
note_on channel=0 note=69 velocity=65 time=38
note_on channel=0 note=62 velocity=58 time=13
note_on channel=0 note=81 velocity=72 time=5
note_on channel=0 note=84 velocity=63 time=13
note_on channel=0 note=84 velocity=0 time=39
note_on channel=0 note=81 velocity=0 time=35
note_on channel=0 note=84 velocity=61 time=55
note_on channel=0 note=69 velocity=0 time=14
note_on channel=0 note=81 velocity=49 time=32
note_on channel=0 note=55 velocity=0 time=44
note_on channel=0 note=53 velocity=0 time=36
note_on channel=0 note=81 velocity=0 time=34
note_on channel=0 note=53 velocity=30 time=22
note_on channel=0 note=84 velocity=0 time=3
note_on channel=0 note=65 velocity=58 time=12
note_on channel=0 note=55 velocity=39 time=5
note_on channel=0 note=64 velocity=52 time=21
note_on channel=0 note=64 velocity=0 time=51
note_on channel=0 note=98 velocity=91 time=4
note_on channel=0 note=88 velocity=84 time=3
note_on channel=0 note=53 velocity=0 time=62
note_on channel=0 note=65 velocity=0 time=4
note_on channel=0 note=62 velocity=0 time=4
note_on channel=0 note=88 velocity=0 time=22
note_on channel=0 note=98 velocity=0 time=1
note_on channel=0 note=62 velocity=44 time=81
note_on channel=0 note=77 velocity=66 time=90
note_on channel=0 note=67 velocity=75 time=157
note_on channel=0 note=77 velocity=0 time=3
note_on channel=0 note=67 velocity=0 time=117
note_on channel=0 note=62 velocity=0 time=4
note_on channel=0 note=81 velocity=82 time=14
note_on channel=0 note=69 velocity=57 time=17
note_on channel=0 note=71 velocity=69 time=8
note_on channel=0 note=55 velocity=0 time=24
note_on channel=0 note=71 velocity=0 time=12
note_on channel=0 note=69 velocity=0 time=22
note_on channel=0 note=81 velocity=0 time=25
note_on channel=0 note=53 velocity=66 time=40
note_on channel=0 note=55 velocity=35 time=26
note_on channel=0 note=77 velocity=82 time=98
note_on channel=0 note=55 velocity=0 time=3
note_on channel=0 note=74 velocity=60 time=16
note_on channel=0 note=76 velocity=57 time=9
note_on channel=0 note=59 velocity=0 time=17
note_on channel=0 note=76 velocity=0 time=34
note_on channel=0 note=64 velocity=61 time=39
note_on channel=0 note=77 velocity=0 time=19
note_on channel=0 note=74 velocity=0 time=5
note_on channel=0 note=59 velocity=55 time=114
note_on channel=0 note=64 velocity=0 time=15
note_on channel=0 note=58 velocity=38 time=3
note_on channel=0 note=71 velocity=63 time=17
note_on channel=0 note=67 velocity=52 time=9
note_on channel=0 note=58 velocity=0 time=66
note_on channel=0 note=71 velocity=0 time=31
note_on channel=0 note=67 velocity=0 time=11
note_on channel=0 note=62 velocity=55 time=6
note_on channel=0 note=53 velocity=0 time=12
note_on channel=0 note=59 velocity=0 time=55
note_on channel=0 note=59 velocity=52 time=74
note_on channel=0 note=71 velocity=27 time=4
note_on channel=0 note=67 velocity=50 time=19
note_on channel=0 note=62 velocity=0 time=30
note_on channel=0 note=67 velocity=0 time=41
note_on channel=0 note=53 velocity=49 time=2
note_on channel=0 note=59 velocity=0 time=42
note_on channel=0 note=71 velocity=0 time=41
note_on channel=0 note=59 velocity=47 time=58
note_on channel=0 note=62 velocity=50 time=81
note_on channel=0 note=67 velocity=84 time=28
note_on channel=0 note=77 velocity=84 time=7
note_on channel=0 note=67 velocity=0 time=65
note_on channel=0 note=77 velocity=0 time=21
note_on channel=0 note=65 velocity=58 time=64
note_on channel=0 note=62 velocity=0 time=7
note_on channel=0 note=59 velocity=0 time=68
note_on channel=0 note=62 velocity=49 time=62
note_on channel=0 note=65 velocity=0 time=36
note_on channel=0 note=53 velocity=0 time=8
note_on channel=0 note=59 velocity=55 time=63
note_on channel=0 note=62 velocity=0 time=142
note_on channel=0 note=53 velocity=66 time=13
note_on channel=0 note=59 velocity=0 time=32
note_on channel=0 note=59 velocity=50 time=94
note_on channel=0 note=62 velocity=69 time=26
note_on channel=0 note=53 velocity=0 time=90
note_on channel=0 note=65 velocity=66 time=8
note_on channel=0 note=59 velocity=0 time=75
note_on channel=0 note=62 velocity=0 time=35
note_on channel=0 note=65 velocity=0 time=32
note_on channel=0 note=77 velocity=72 time=10
note_on channel=0 note=89 velocity=84 time=0
note_on channel=0 note=59 velocity=48 time=1
note_on channel=0 note=79 velocity=72 time=17
note_on channel=0 note=85 velocity=41 time=11
note_on channel=0 note=79 velocity=0 time=26
note_on channel=0 note=85 velocity=0 time=31
note_on channel=0 note=89 velocity=0 time=1
note_on channel=0 note=62 velocity=32 time=2
note_on channel=0 note=77 velocity=0 time=26
note_on channel=0 note=53 velocity=60 time=17
note_on channel=0 note=62 velocity=0 time=46
note_on channel=0 note=55 velocity=38 time=17
note_on channel=0 note=59 velocity=0 time=5
note_on channel=0 note=62 velocity=52 time=55
note_on channel=0 note=59 velocity=39 time=3
note_on channel=0 note=55 velocity=0 time=23
note_on channel=0 note=65 velocity=63 time=16
note_on channel=0 note=59 velocity=0 time=46
note_on channel=0 note=62 velocity=0 time=54
note_on channel=0 note=59 velocity=52 time=23
note_on channel=0 note=65 velocity=0 time=20
note_on channel=0 note=72 velocity=84 time=2
note_on channel=0 note=69 velocity=66 time=5
note_on channel=0 note=62 velocity=56 time=29
note_on channel=0 note=53 velocity=0 time=15
note_on channel=0 note=69 velocity=0 time=13
note_on channel=0 note=72 velocity=0 time=29
note_on channel=0 note=59 velocity=0 time=29
note_on channel=0 note=67 velocity=75 time=42
note_on channel=0 note=71 velocity=69 time=5
note_on channel=0 note=53 velocity=58 time=24
note_on channel=0 note=67 velocity=0 time=30
note_on channel=0 note=55 velocity=47 time=11
note_on channel=0 note=62 velocity=0 time=10
note_on channel=0 note=71 velocity=0 time=9
note_on channel=0 note=81 velocity=72 time=64
note_on channel=0 note=74 velocity=75 time=1
note_on channel=0 note=71 velocity=65 time=11
note_on channel=0 note=59 velocity=19 time=23
note_on channel=0 note=62 velocity=32 time=1
note_on channel=0 note=71 velocity=0 time=14
note_on channel=0 note=74 velocity=0 time=0
note_on channel=0 note=81 velocity=0 time=1
note_on channel=0 note=55 velocity=0 time=53
note_on channel=0 note=65 velocity=54 time=17
note_on channel=0 note=62 velocity=0 time=1
note_on channel=0 note=71 velocity=72 time=17
note_on channel=0 note=81 velocity=65 time=2
note_on channel=0 note=74 velocity=63 time=5
note_on channel=0 note=81 velocity=0 time=33
note_on channel=0 note=74 velocity=0 time=7
note_on channel=0 note=59 velocity=0 time=8
note_on channel=0 note=71 velocity=0 time=16
note_on channel=0 note=62 velocity=63 time=65
note_on channel=0 note=71 velocity=82 time=8
note_on channel=0 note=67 velocity=82 time=8
note_on channel=0 note=65 velocity=0 time=7
note_on channel=0 note=59 velocity=44 time=5
note_on channel=0 note=67 velocity=0 time=23
note_on channel=0 note=53 velocity=0 time=8
note_on channel=0 note=71 velocity=0 time=33
note_on channel=0 note=74 velocity=87 time=63
note_on channel=0 note=71 velocity=72 time=4
note_on channel=0 note=65 velocity=66 time=10
note_on channel=0 note=81 velocity=78 time=4
note_on channel=0 note=71 velocity=0 time=17
note_on channel=0 note=53 velocity=47 time=25
note_on channel=0 note=62 velocity=0 time=18
note_on channel=0 note=59 velocity=0 time=3
note_on channel=0 note=74 velocity=0 time=9
note_on channel=0 note=81 velocity=0 time=19
note_on channel=0 note=65 velocity=0 time=30
note_on channel=0 note=86 velocity=78 time=32
note_on channel=0 note=79 velocity=84 time=1
note_on channel=0 note=76 velocity=69 time=12
note_on channel=0 note=77 velocity=54 time=9
note_on channel=0 note=84 velocity=40 time=22
note_on channel=0 note=59 velocity=47 time=5
note_on channel=0 note=76 velocity=0 time=1
note_on channel=0 note=79 velocity=0 time=7
note_on channel=0 note=86 velocity=0 time=1
note_on channel=0 note=77 velocity=0 time=20
note_on channel=0 note=84 velocity=0 time=17
note_on channel=0 note=77 velocity=69 time=44
note_on channel=0 note=74 velocity=61 time=11
note_on channel=0 note=72 velocity=78 time=1
note_on channel=0 note=76 velocity=50 time=8
note_on channel=0 note=83 velocity=52 time=4
note_on channel=0 note=65 velocity=60 time=14
note_on channel=0 note=62 velocity=34 time=2
note_on channel=0 note=72 velocity=0 time=3
note_on channel=0 note=74 velocity=0 time=12
note_on channel=0 note=77 velocity=0 time=0
note_on channel=0 note=53 velocity=0 time=3
note_on channel=0 note=76 velocity=0 time=20
note_on channel=0 note=83 velocity=0 time=0
note_on channel=0 note=59 velocity=0 time=16
note_on channel=0 note=62 velocity=0 time=6
note_on channel=0 note=65 velocity=0 time=38
note_on channel=0 note=81 velocity=82 time=13
note_on channel=0 note=77 velocity=60 time=3
note_on channel=0 note=88 velocity=77 time=4
note_on channel=0 note=59 velocity=44 time=16
note_on channel=0 note=62 velocity=49 time=0
note_on channel=0 note=77 velocity=0 time=28
note_on channel=0 note=88 velocity=0 time=41
note_on channel=0 note=53 velocity=53 time=5
note_on channel=0 note=81 velocity=0 time=2
note_on channel=0 note=91 velocity=81 time=57
note_on channel=0 note=86 velocity=78 time=2
note_on channel=0 note=83 velocity=78 time=7
note_on channel=0 note=62 velocity=0 time=7
note_on channel=0 note=84 velocity=43 time=23
note_on channel=0 note=83 velocity=0 time=14
note_on channel=0 note=86 velocity=0 time=21
note_on channel=0 note=91 velocity=0 time=10
note_on channel=0 note=84 velocity=0 time=13
note_on channel=0 note=89 velocity=84 time=48
note_on channel=0 note=62 velocity=41 time=8
note_on channel=0 note=86 velocity=63 time=2
note_on channel=0 note=95 velocity=49 time=11
note_on channel=0 note=96 velocity=43 time=5
note_on channel=0 note=67 velocity=43 time=34
note_on channel=0 note=65 velocity=48 time=1
note_on channel=0 note=95 velocity=0 time=11
note_on channel=0 note=86 velocity=0 time=7
note_on channel=0 note=89 velocity=0 time=0
note_on channel=0 note=96 velocity=0 time=16
note_on channel=0 note=67 velocity=0 time=27
note_on channel=0 note=65 velocity=0 time=9
note_on channel=0 note=62 velocity=0 time=2
note_on channel=0 note=100 velocity=84 time=36
note_on channel=0 note=93 velocity=87 time=5
note_on channel=0 note=89 velocity=67 time=5
note_on channel=0 note=98 velocity=77 time=5
note_on channel=0 note=53 velocity=0 time=6
note_on channel=0 note=98 velocity=0 time=26
note_on channel=0 note=65 velocity=54 time=20
note_on channel=0 note=93 velocity=0 time=8
note_on channel=0 note=89 velocity=0 time=5
note_on channel=0 note=100 velocity=0 time=0
note_on channel=0 note=59 velocity=0 time=4
note_on channel=0 note=62 velocity=60 time=62
note_on channel=0 note=65 velocity=0 time=89
note_on channel=0 note=59 velocity=56 time=21
note_on channel=0 note=53 velocity=63 time=78
note_on channel=0 note=62 velocity=0 time=25
note_on channel=0 note=79 velocity=82 time=189
note_on channel=0 note=69 velocity=61 time=5
note_on channel=0 note=65 velocity=63 time=11
note_on channel=0 note=67 velocity=42 time=15
note_on channel=0 note=79 velocity=0 time=13
note_on channel=0 note=59 velocity=0 time=7
note_on channel=0 note=69 velocity=0 time=1
note_on channel=0 note=67 velocity=0 time=34
note_on channel=0 note=62 velocity=55 time=101
note_on channel=0 note=61 velocity=31 time=31
note_on channel=0 note=65 velocity=0 time=6
note_on channel=0 note=53 velocity=0 time=21
note_on channel=0 note=59 velocity=60 time=8
note_on channel=0 note=61 velocity=0 time=15
note_on channel=0 note=65 velocity=66 time=152
note_on channel=0 note=74 velocity=69 time=0
note_on channel=0 note=71 velocity=58 time=4
note_on channel=0 note=67 velocity=60 time=2
note_on channel=0 note=69 velocity=60 time=3
note_on channel=0 note=53 velocity=63 time=5
note_on channel=0 note=62 velocity=0 time=19
note_on channel=0 note=74 velocity=0 time=5
note_on channel=0 note=67 velocity=0 time=12
note_on channel=0 note=69 velocity=0 time=4
note_on channel=0 note=65 velocity=0 time=4
note_on channel=0 note=71 velocity=0 time=26
note_on channel=0 note=59 velocity=0 time=5
note_on channel=0 note=62 velocity=57 time=91
note_on channel=0 note=64 velocity=58 time=27
note_on channel=0 note=64 velocity=0 time=42
note_on channel=0 note=59 velocity=50 time=3
note_on channel=0 note=60 velocity=49 time=12
note_on channel=0 note=62 velocity=0 time=45
note_on channel=0 note=60 velocity=0 time=9
note_on channel=0 note=57 velocity=37 time=27
note_on channel=0 note=71 velocity=78 time=8
note_on channel=0 note=76 velocity=75 time=1
note_on channel=0 note=67 velocity=78 time=3
note_on channel=0 note=59 velocity=0 time=29
note_on channel=0 note=67 velocity=0 time=5
note_on channel=0 note=76 velocity=0 time=3
note_on channel=0 note=57 velocity=0 time=21
note_on channel=0 note=60 velocity=69 time=3
note_on channel=0 note=71 velocity=0 time=1
note_on channel=0 note=53 velocity=0 time=45
note_on channel=0 note=50 velocity=63 time=105
note_on channel=0 note=60 velocity=0 time=33
note_on channel=0 note=62 velocity=58 time=196
note_on channel=0 note=57 velocity=33 time=4
control_change channel=0 control=64 value=0 time=1
note_on channel=0 note=60 velocity=66 time=1
note_on channel=0 note=81 velocity=87 time=12
note_on channel=0 note=93 velocity=87 time=1
note_on channel=0 note=86 velocity=78 time=9
note_on channel=0 note=91 velocity=81 time=2
note_on channel=0 note=86 velocity=0 time=37
control_change channel=0 control=64 value=127 time=12
note_on channel=0 note=57 velocity=0 time=3
note_on channel=0 note=86 velocity=46 time=65
note_on channel=0 note=60 velocity=0 time=9
note_on channel=0 note=57 velocity=44 time=17
note_on channel=0 note=62 velocity=0 time=12
note_on channel=0 note=50 velocity=0 time=51
note_on channel=0 note=93 velocity=0 time=4
note_on channel=0 note=91 velocity=0 time=34
note_on channel=0 note=86 velocity=0 time=13
note_on channel=0 note=81 velocity=0 time=71
note_on channel=0 note=64 velocity=69 time=1
note_on channel=0 note=57 velocity=0 time=26
note_on channel=0 note=61 velocity=43 time=152
note_on channel=0 note=55 velocity=56 time=2
note_on channel=0 note=64 velocity=0 time=37
note_on channel=0 note=59 velocity=41 time=36
note_on channel=0 note=61 velocity=0 time=12
note_on channel=0 note=61 velocity=46 time=97
note_on channel=0 note=64 velocity=65 time=52
note_on channel=0 note=61 velocity=0 time=9
note_on channel=0 note=72 velocity=60 time=15
note_on channel=0 note=84 velocity=60 time=5
note_on channel=0 note=74 velocity=58 time=10
note_on channel=0 note=83 velocity=66 time=1
note_on channel=0 note=59 velocity=0 time=11
note_on channel=0 note=83 velocity=0 time=26
note_on channel=0 note=74 velocity=0 time=30
note_on channel=0 note=78 velocity=38 time=47
note_on channel=0 note=84 velocity=0 time=10
note_on channel=0 note=59 velocity=41 time=18
note_on channel=0 note=72 velocity=0 time=15
note_on channel=0 note=64 velocity=0 time=4
note_on channel=0 note=78 velocity=0 time=4
note_on channel=0 note=62 velocity=55 time=58
note_on channel=0 note=65 velocity=48 time=159
note_on channel=0 note=64 velocity=58 time=7
note_on channel=0 note=59 velocity=0 time=42
note_on channel=0 note=65 velocity=0 time=14
note_on channel=0 note=62 velocity=0 time=1
note_on channel=0 note=79 velocity=78 time=56
note_on channel=0 note=69 velocity=72 time=2
note_on channel=0 note=59 velocity=57 time=1
note_on channel=0 note=62 velocity=60 time=2
note_on channel=0 note=72 velocity=61 time=2
note_on channel=0 note=64 velocity=0 time=7
note_on channel=0 note=55 velocity=0 time=5
note_on channel=0 note=74 velocity=61 time=1
note_on channel=0 note=74 velocity=0 time=42
note_on channel=0 note=72 velocity=0 time=1
note_on channel=0 note=69 velocity=0 time=8
note_on channel=0 note=79 velocity=0 time=32
note_on channel=0 note=55 velocity=57 time=43
note_on channel=0 note=65 velocity=57 time=15
note_on channel=0 note=59 velocity=0 time=16
note_on channel=0 note=62 velocity=0 time=1
note_on channel=0 note=74 velocity=72 time=46
note_on channel=0 note=84 velocity=82 time=6
note_on channel=0 note=77 velocity=69 time=1
note_on channel=0 note=59 velocity=47 time=34
note_on channel=0 note=65 velocity=0 time=0
note_on channel=0 note=74 velocity=0 time=19
note_on channel=0 note=77 velocity=0 time=0
note_on channel=0 note=84 velocity=0 time=15
note_on channel=0 note=62 velocity=45 time=20
note_on channel=0 note=55 velocity=0 time=42
note_on channel=0 note=83 velocity=75 time=9
note_on channel=0 note=77 velocity=60 time=5
note_on channel=0 note=72 velocity=72 time=1
note_on channel=0 note=76 velocity=72 time=10
note_on channel=0 note=72 velocity=0 time=35
note_on channel=0 note=76 velocity=0 time=2
note_on channel=0 note=83 velocity=0 time=4
note_on channel=0 note=67 velocity=44 time=10
note_on channel=0 note=77 velocity=0 time=18
note_on channel=0 note=59 velocity=0 time=4
note_on channel=0 note=65 velocity=44 time=2
note_on channel=0 note=62 velocity=0 time=43
note_on channel=0 note=74 velocity=87 time=14
note_on channel=0 note=71 velocity=82 time=4
note_on channel=0 note=81 velocity=65 time=4
note_on channel=0 note=65 velocity=0 time=8
note_on channel=0 note=67 velocity=0 time=11
note_on channel=0 note=79 velocity=44 time=14
note_on channel=0 note=71 velocity=0 time=13
note_on channel=0 note=62 velocity=51 time=6
note_on channel=0 note=74 velocity=0 time=21
note_on channel=0 note=81 velocity=0 time=20
note_on channel=0 note=79 velocity=0 time=1
note_on channel=0 note=84 velocity=75 time=57
note_on channel=0 note=77 velocity=65 time=3
note_on channel=0 note=76 velocity=63 time=3
note_on channel=0 note=79 velocity=63 time=0
note_on channel=0 note=83 velocity=63 time=2
note_on channel=0 note=74 velocity=50 time=6
note_on channel=0 note=77 velocity=0 time=28
note_on channel=0 note=83 velocity=0 time=6
note_on channel=0 note=59 velocity=34 time=3
note_on channel=0 note=76 velocity=0 time=1
note_on channel=0 note=79 velocity=0 time=5
note_on channel=0 note=74 velocity=0 time=9
note_on channel=0 note=65 velocity=46 time=4
note_on channel=0 note=55 velocity=47 time=11
note_on channel=0 note=84 velocity=0 time=3
note_on channel=0 note=62 velocity=0 time=38
note_on channel=0 note=83 velocity=66 time=23
note_on channel=0 note=79 velocity=65 time=6
note_on channel=0 note=88 velocity=67 time=0
note_on channel=0 note=89 velocity=61 time=10
note_on channel=0 note=88 velocity=0 time=41
note_on channel=0 note=89 velocity=0 time=0
note_on channel=0 note=79 velocity=0 time=4
note_on channel=0 note=83 velocity=0 time=18
note_on channel=0 note=65 velocity=0 time=12
note_on channel=0 note=62 velocity=40 time=11
note_on channel=0 note=79 velocity=84 time=37
note_on channel=0 note=76 velocity=84 time=5
note_on channel=0 note=84 velocity=65 time=9
note_on channel=0 note=86 velocity=46 time=17
note_on channel=0 note=55 velocity=0 time=10
note_on channel=0 note=84 velocity=0 time=20
note_on channel=0 note=59 velocity=0 time=20
note_on channel=0 note=79 velocity=0 time=9
note_on channel=0 note=76 velocity=0 time=3
note_on channel=0 note=64 velocity=60 time=1
note_on channel=0 note=86 velocity=0 time=3
note_on channel=0 note=55 velocity=56 time=25
note_on channel=0 note=62 velocity=0 time=25
note_on channel=0 note=79 velocity=72 time=4
note_on channel=0 note=83 velocity=78 time=1
note_on channel=0 note=88 velocity=84 time=1
note_on channel=0 note=59 velocity=55 time=40
note_on channel=0 note=83 velocity=0 time=14
note_on channel=0 note=79 velocity=0 time=8
note_on channel=0 note=64 velocity=0 time=6
note_on channel=0 note=88 velocity=0 time=13
note_on channel=0 note=62 velocity=43 time=5
note_on channel=0 note=55 velocity=0 time=56
note_on channel=0 note=88 velocity=87 time=2
note_on channel=0 note=93 velocity=84 time=4
note_on channel=0 note=84 velocity=82 time=5
note_on channel=0 note=84 velocity=0 time=35
note_on channel=0 note=93 velocity=0 time=21
note_on channel=0 note=55 velocity=63 time=8
note_on channel=0 note=59 velocity=0 time=0
note_on channel=0 note=65 velocity=54 time=0
note_on channel=0 note=88 velocity=0 time=8
note_on channel=0 note=62 velocity=0 time=65
note_on channel=0 note=65 velocity=0 time=2
note_on channel=0 note=91 velocity=84 time=1
note_on channel=0 note=86 velocity=87 time=1
note_on channel=0 note=83 velocity=82 time=7
note_on channel=0 note=59 velocity=52 time=2
note_on channel=0 note=83 velocity=0 time=42
note_on channel=0 note=91 velocity=0 time=30
note_on channel=0 note=86 velocity=0 time=4
note_on channel=0 note=62 velocity=33 time=16
note_on channel=0 note=67 velocity=65 time=50
note_on channel=0 note=86 velocity=78 time=0
note_on channel=0 note=83 velocity=78 time=8
note_on channel=0 note=93 velocity=57 time=7
note_on channel=0 note=91 velocity=63 time=4
note_on channel=0 note=91 velocity=0 time=37
note_on channel=0 note=93 velocity=0 time=9
note_on channel=0 note=83 velocity=0 time=7
note_on channel=0 note=86 velocity=0 time=3
note_on channel=0 note=62 velocity=0 time=33
note_on channel=0 note=67 velocity=0 time=35
note_on channel=0 note=93 velocity=74 time=23
note_on channel=0 note=98 velocity=81 time=3
note_on channel=0 note=89 velocity=81 time=2
note_on channel=0 note=100 velocity=63 time=14
note_on channel=0 note=62 velocity=50 time=16
note_on channel=0 note=89 velocity=0 time=6
note_on channel=0 note=93 velocity=0 time=1
note_on channel=0 note=55 velocity=0 time=12
note_on channel=0 note=100 velocity=0 time=3
note_on channel=0 note=98 velocity=0 time=13
note_on channel=0 note=101 velocity=91 time=86
note_on channel=0 note=96 velocity=84 time=3
note_on channel=0 note=91 velocity=81 time=3
note_on channel=0 note=95 velocity=58 time=20
note_on channel=0 note=55 velocity=56 time=10
note_on channel=0 note=96 velocity=0 time=14
note_on channel=0 note=91 velocity=0 time=8
note_on channel=0 note=95 velocity=0 time=12
note_on channel=0 note=57 velocity=39 time=8
note_on channel=0 note=101 velocity=0 time=7
note_on channel=0 note=96 velocity=87 time=134
note_on channel=0 note=101 velocity=84 time=0
note_on channel=0 note=91 velocity=81 time=4
note_on channel=0 note=69 velocity=69 time=8
note_on channel=0 note=62 velocity=0 time=20
note_on channel=0 note=101 velocity=0 time=0
note_on channel=0 note=91 velocity=0 time=17
note_on channel=0 note=59 velocity=0 time=11
note_on channel=0 note=96 velocity=0 time=16
note_on channel=0 note=57 velocity=0 time=7
note_on channel=0 note=69 velocity=0 time=75
note_on channel=0 note=62 velocity=50 time=43
note_on channel=0 note=55 velocity=0 time=74
note_on channel=0 note=82 velocity=87 time=5
note_on channel=0 note=86 velocity=75 time=16
note_on channel=0 note=76 velocity=63 time=1
note_on channel=0 note=77 velocity=57 time=16
note_on channel=0 note=59 velocity=39 time=9
note_on channel=0 note=86 velocity=0 time=11
note_on channel=0 note=76 velocity=0 time=7
note_on channel=0 note=82 velocity=0 time=3
note_on channel=0 note=77 velocity=0 time=22
note_on channel=0 note=55 velocity=39 time=10
note_on channel=0 note=62 velocity=0 time=72
note_on channel=0 note=74 velocity=91 time=99
note_on channel=0 note=77 velocity=84 time=1
note_on channel=0 note=69 velocity=84 time=2
note_on channel=0 note=64 velocity=66 time=8
note_on channel=0 note=79 velocity=65 time=7
note_on channel=0 note=71 velocity=57 time=12
note_on channel=0 note=59 velocity=0 time=23
note_on channel=0 note=74 velocity=0 time=0
note_on channel=0 note=79 velocity=0 time=8
note_on channel=0 note=69 velocity=0 time=1
note_on channel=0 note=71 velocity=0 time=14
note_on channel=0 note=77 velocity=0 time=6
note_on channel=0 note=62 velocity=58 time=68
note_on channel=0 note=64 velocity=0 time=12
note_on channel=0 note=55 velocity=0 time=19
note_on channel=0 note=59 velocity=39 time=165
note_on channel=0 note=55 velocity=52 time=1
note_on channel=0 note=62 velocity=0 time=33
note_on channel=0 note=65 velocity=49 time=171
note_on channel=0 note=76 velocity=78 time=113
note_on channel=0 note=59 velocity=0 time=1
note_on channel=0 note=83 velocity=84 time=0
note_on channel=0 note=71 velocity=57 time=12
note_on channel=0 note=72 velocity=49 time=18
note_on channel=0 note=71 velocity=0 time=28
note_on channel=0 note=83 velocity=0 time=5
note_on channel=0 note=65 velocity=0 time=11
note_on channel=0 note=76 velocity=0 time=5
note_on channel=0 note=62 velocity=56 time=3
note_on channel=0 note=72 velocity=0 time=14
note_on channel=0 note=55 velocity=0 time=17
note_on channel=0 note=59 velocity=48 time=138
note_on channel=0 note=62 velocity=0 time=63
note_on channel=0 note=55 velocity=49 time=24
note_on channel=0 note=59 velocity=0 time=119
note_on channel=0 note=65 velocity=42 time=6
note_on channel=0 note=67 velocity=58 time=121
note_on channel=0 note=77 velocity=60 time=5
note_on channel=0 note=65 velocity=0 time=1
note_on channel=0 note=72 velocity=60 time=1
note_on channel=0 note=62 velocity=45 time=1
note_on channel=0 note=67 velocity=0 time=43
note_on channel=0 note=77 velocity=0 time=21
note_on channel=0 note=72 velocity=0 time=3
note_on channel=0 note=59 velocity=45 time=86
note_on channel=0 note=62 velocity=0 time=15
note_on channel=0 note=55 velocity=0 time=35
note_on channel=0 note=64 velocity=49 time=27
note_on channel=0 note=59 velocity=0 time=48
note_on channel=0 note=62 velocity=48 time=70
note_on channel=0 note=64 velocity=0 time=47
note_on channel=0 note=59 velocity=48 time=44
note_on channel=0 note=65 velocity=56 time=75
note_on channel=0 note=62 velocity=0 time=1
note_on channel=0 note=69 velocity=54 time=5
note_on channel=0 note=76 velocity=54 time=0
note_on channel=0 note=55 velocity=44 time=10
note_on channel=0 note=59 velocity=0 time=5
note_on channel=0 note=76 velocity=0 time=39
note_on channel=0 note=65 velocity=0 time=8
note_on channel=0 note=69 velocity=0 time=33
note_on channel=0 note=55 velocity=0 time=77
note_on channel=0 note=64 velocity=49 time=17
note_on channel=0 note=55 velocity=31 time=85
note_on channel=0 note=60 velocity=52 time=49
note_on channel=0 note=64 velocity=0 time=20
note_on channel=0 note=55 velocity=0 time=13
note_on channel=0 note=59 velocity=34 time=143
note_on channel=0 note=64 velocity=47 time=27
note_on channel=0 note=60 velocity=0 time=1
note_on channel=0 note=65 velocity=61 time=13
note_on channel=0 note=74 velocity=57 time=13
note_on channel=0 note=67 velocity=54 time=4
note_on channel=0 note=65 velocity=0 time=25
note_on channel=0 note=59 velocity=0 time=4
note_on channel=0 note=74 velocity=0 time=64
note_on channel=0 note=64 velocity=0 time=41
note_on channel=0 note=55 velocity=50 time=13
note_on channel=0 note=57 velocity=31 time=21
note_on channel=0 note=67 velocity=0 time=5
note_on channel=0 note=57 velocity=0 time=117
note_on channel=0 note=64 velocity=43 time=36
note_on channel=0 note=64 velocity=0 time=102
note_on channel=0 note=60 velocity=36 time=71
note_on channel=0 note=55 velocity=0 time=19
note_on channel=0 note=59 velocity=39 time=8
note_on channel=0 note=64 velocity=52 time=47
note_on channel=0 note=67 velocity=57 time=5
note_on channel=0 note=60 velocity=0 time=15
note_on channel=0 note=74 velocity=48 time=6
note_on channel=0 note=64 velocity=0 time=48
note_on channel=0 note=62 velocity=43 time=2
note_on channel=0 note=74 velocity=0 time=11
note_on channel=0 note=59 velocity=0 time=3
note_on channel=0 note=67 velocity=0 time=46
note_on channel=0 note=55 velocity=30 time=12
note_on channel=0 note=59 velocity=45 time=80
note_on channel=0 note=62 velocity=0 time=6
note_on channel=0 note=55 velocity=0 time=9
note_on channel=0 note=62 velocity=40 time=165
note_on channel=0 note=55 velocity=37 time=117
note_on channel=0 note=62 velocity=0 time=12
note_on channel=0 note=65 velocity=48 time=83
note_on channel=0 note=64 velocity=47 time=9
note_on channel=0 note=72 velocity=48 time=5
note_on channel=0 note=59 velocity=0 time=18
note_on channel=0 note=72 velocity=0 time=57
note_on channel=0 note=64 velocity=0 time=18
note_on channel=0 note=62 velocity=36 time=28
note_on channel=0 note=55 velocity=0 time=4
note_on channel=0 note=65 velocity=0 time=28
note_on channel=0 note=59 velocity=40 time=86
note_on channel=0 note=62 velocity=0 time=24
note_on channel=0 note=55 velocity=36 time=10
note_on channel=0 note=59 velocity=0 time=158
note_on channel=0 note=55 velocity=0 time=18
note_on channel=0 note=55 velocity=31 time=123
note_on channel=0 note=55 velocity=0 time=138
note_on channel=0 note=60 velocity=39 time=20
note_on channel=0 note=62 velocity=35 time=4
note_on channel=0 note=64 velocity=36 time=6
note_on channel=0 note=71 velocity=44 time=3
note_on channel=0 note=71 velocity=0 time=127
note_on channel=0 note=60 velocity=0 time=8
note_on channel=0 note=62 velocity=0 time=4
note_on channel=0 note=55 velocity=44 time=7
note_on channel=0 note=64 velocity=0 time=6
note_on channel=0 note=55 velocity=0 time=150
note_on channel=0 note=60 velocity=36 time=39
note_on channel=0 note=60 velocity=0 time=129
note_on channel=0 note=52 velocity=45 time=43
note_on channel=0 note=55 velocity=31 time=31
note_on channel=0 note=55 velocity=0 time=104
note_on channel=0 note=60 velocity=45 time=13
note_on channel=0 note=52 velocity=0 time=92
note_on channel=0 note=57 velocity=44 time=166
note_on channel=0 note=62 velocity=36 time=22
note_on channel=0 note=69 velocity=51 time=27
note_on channel=0 note=62 velocity=0 time=160
note_on channel=0 note=57 velocity=0 time=29
note_on channel=0 note=69 velocity=0 time=181
note_on channel=0 note=57 velocity=44 time=122
note_on channel=0 note=60 velocity=0 time=89
note_on channel=0 note=48 velocity=48 time=107
note_on channel=0 note=57 velocity=0 time=8
note_on channel=0 note=60 velocity=49 time=184
note_on channel=0 note=62 velocity=47 time=5
note_on channel=0 note=48 velocity=0 time=7
note_on channel=0 note=69 velocity=41 time=46
note_on channel=0 note=60 velocity=0 time=103
note_on channel=0 note=62 velocity=0 time=14
note_on channel=0 note=69 velocity=0 time=2
note_on channel=0 note=55 velocity=48 time=81
note_on channel=0 note=59 velocity=49 time=184
note_on channel=0 note=62 velocity=47 time=21
note_on channel=0 note=55 velocity=0 time=23
note_on channel=0 note=59 velocity=0 time=119
note_on channel=0 note=48 velocity=48 time=16
note_on channel=0 note=62 velocity=0 time=10
note_on channel=0 note=57 velocity=44 time=10
note_on channel=0 note=57 velocity=0 time=92
note_on channel=0 note=59 velocity=48 time=40
note_on channel=0 note=69 velocity=44 time=22
note_on channel=0 note=62 velocity=34 time=20
note_on channel=0 note=48 velocity=0 time=2
note_on channel=0 note=55 velocity=44 time=36
note_on channel=0 note=59 velocity=0 time=49
note_on channel=0 note=62 velocity=0 time=6
note_on channel=0 note=69 velocity=0 time=21
note_on channel=0 note=55 velocity=0 time=58
note_on channel=0 note=57 velocity=50 time=21
note_on channel=0 note=57 velocity=0 time=120
note_on channel=0 note=55 velocity=50 time=17
note_on channel=0 note=59 velocity=50 time=86
note_on channel=0 note=55 velocity=0 time=123
note_on channel=0 note=57 velocity=50 time=14
note_on channel=0 note=59 velocity=0 time=31
note_on channel=0 note=48 velocity=43 time=52
note_on channel=0 note=57 velocity=0 time=44
note_on channel=0 note=59 velocity=41 time=30
note_on channel=0 note=60 velocity=35 time=48
note_on channel=0 note=60 velocity=0 time=59
note_on channel=0 note=59 velocity=0 time=28
note_on channel=0 note=57 velocity=52 time=5
note_on channel=0 note=48 velocity=0 time=63
note_on channel=0 note=57 velocity=0 time=43
note_on channel=0 note=48 velocity=27 time=23
note_on channel=0 note=59 velocity=49 time=10
note_on channel=0 note=60 velocity=39 time=27
note_on channel=0 note=55 velocity=35 time=13
note_on channel=0 note=48 velocity=0 time=38
note_on channel=0 note=59 velocity=0 time=64
note_on channel=0 note=60 velocity=0 time=2
note_on channel=0 note=57 velocity=47 time=5
note_on channel=0 note=55 velocity=0 time=92
note_on channel=0 note=57 velocity=0 time=5
note_on channel=0 note=60 velocity=38 time=37
note_on channel=0 note=59 velocity=47 time=19
note_on channel=0 note=67 velocity=47 time=0
note_on channel=0 note=67 velocity=0 time=69
note_on channel=0 note=59 velocity=0 time=9
note_on channel=0 note=55 velocity=39 time=7
note_on channel=0 note=60 velocity=0 time=29
note_on channel=0 note=57 velocity=36 time=11
note_on channel=0 note=57 velocity=0 time=74
note_on channel=0 note=55 velocity=0 time=20
note_on channel=0 note=60 velocity=48 time=12
note_on channel=0 note=59 velocity=49 time=7
note_on channel=0 note=67 velocity=46 time=13
note_on channel=0 note=67 velocity=0 time=68
note_on channel=0 note=59 velocity=0 time=2
note_on channel=0 note=55 velocity=38 time=24
note_on channel=0 note=57 velocity=43 time=7
note_on channel=0 note=60 velocity=0 time=17
note_on channel=0 note=57 velocity=0 time=82
note_on channel=0 note=55 velocity=0 time=34
note_on channel=0 note=67 velocity=51 time=6
note_on channel=0 note=59 velocity=50 time=8
note_on channel=0 note=60 velocity=41 time=15
note_on channel=0 note=60 velocity=0 time=94
note_on channel=0 note=59 velocity=0 time=2
note_on channel=0 note=55 velocity=38 time=8
note_on channel=0 note=57 velocity=47 time=0
note_on channel=0 note=67 velocity=0 time=15
note_on channel=0 note=57 velocity=0 time=71
note_on channel=0 note=55 velocity=0 time=44
note_on channel=0 note=67 velocity=42 time=14
note_on channel=0 note=60 velocity=47 time=10
note_on channel=0 note=59 velocity=51 time=8
note_on channel=0 note=59 velocity=0 time=84
note_on channel=0 note=55 velocity=38 time=5
note_on channel=0 note=67 velocity=0 time=10
note_on channel=0 note=60 velocity=0 time=3
note_on channel=0 note=57 velocity=33 time=30
note_on channel=0 note=57 velocity=0 time=74
note_on channel=0 note=55 velocity=0 time=13
note_on channel=0 note=60 velocity=43 time=24
note_on channel=0 note=59 velocity=44 time=17
note_on channel=0 note=59 velocity=0 time=88
note_on channel=0 note=55 velocity=36 time=4
note_on channel=0 note=57 velocity=43 time=30
note_on channel=0 note=60 velocity=0 time=4
note_on channel=0 note=57 velocity=0 time=78
note_on channel=0 note=55 velocity=0 time=24
note_on channel=0 note=60 velocity=46 time=22
note_on channel=0 note=59 velocity=48 time=11
note_on channel=0 note=55 velocity=33 time=107
note_on channel=0 note=59 velocity=0 time=2
note_on channel=0 note=57 velocity=44 time=12
note_on channel=0 note=60 velocity=0 time=15
note_on channel=0 note=57 velocity=0 time=68
note_on channel=0 note=55 velocity=0 time=33
note_on channel=0 note=60 velocity=42 time=33
note_on channel=0 note=59 velocity=42 time=21
note_on channel=0 note=57 velocity=46 time=68
note_on channel=0 note=55 velocity=34 time=2
note_on channel=0 note=59 velocity=0 time=15
note_on channel=0 note=60 velocity=0 time=38
note_on channel=0 note=55 velocity=0 time=67
note_on channel=0 note=57 velocity=0 time=1
note_on channel=0 note=60 velocity=37 time=65
note_on channel=0 note=59 velocity=44 time=6
note_on channel=0 note=59 velocity=0 time=96
note_on channel=0 note=55 velocity=31 time=3
note_on channel=0 note=57 velocity=39 time=6
note_on channel=0 note=60 velocity=0 time=20
note_on channel=0 note=57 velocity=0 time=79
note_on channel=0 note=55 velocity=0 time=34
note_on channel=0 note=59 velocity=44 time=47
note_on channel=0 note=60 velocity=36 time=8
note_on channel=0 note=59 velocity=0 time=72
note_on channel=0 note=60 velocity=0 time=12
note_on channel=0 note=55 velocity=32 time=1
note_on channel=0 note=57 velocity=39 time=4
note_on channel=0 note=55 velocity=0 time=114
note_on channel=0 note=59 velocity=47 time=52
note_on channel=0 note=57 velocity=0 time=9
note_on channel=0 note=60 velocity=31 time=62
note_on channel=0 note=64 velocity=48 time=98
note_on channel=0 note=59 velocity=0 time=14
note_on channel=0 note=60 velocity=0 time=16
note_on channel=0 note=62 velocity=48 time=134
note_on channel=0 note=60 velocity=50 time=91
note_on channel=0 note=64 velocity=0 time=5
note_on channel=0 note=59 velocity=22 time=97
note_on channel=0 note=57 velocity=45 time=49
note_on channel=0 note=55 velocity=48 time=136
note_on channel=0 note=52 velocity=50 time=55
note_on channel=0 note=57 velocity=0 time=3
note_on channel=0 note=60 velocity=0 time=64
note_on channel=0 note=55 velocity=0 time=44
note_on channel=0 note=50 velocity=41 time=7
note_on channel=0 note=48 velocity=57 time=134
note_on channel=0 note=52 velocity=0 time=41
note_on channel=0 note=59 velocity=0 time=10
note_on channel=0 note=50 velocity=0 time=24
note_on channel=0 note=62 velocity=0 time=138
note_on channel=0 note=60 velocity=45 time=142
note_on channel=0 note=60 velocity=0 time=142
note_on channel=0 note=55 velocity=46 time=28
note_on channel=0 note=57 velocity=27 time=59
note_on channel=0 note=57 velocity=0 time=79
note_on channel=0 note=67 velocity=61 time=17
note_on channel=0 note=55 velocity=0 time=3
note_on channel=0 note=59 velocity=60 time=4
note_on channel=0 note=48 velocity=0 time=7
note_on channel=0 note=60 velocity=31 time=47
note_on channel=0 note=60 velocity=0 time=56
note_on channel=0 note=59 velocity=0 time=51
note_on channel=0 note=67 velocity=0 time=6
note_on channel=0 note=57 velocity=45 time=22
note_on channel=0 note=55 velocity=41 time=17
note_on channel=0 note=57 velocity=0 time=79
note_on channel=0 note=55 velocity=0 time=26
note_on channel=0 note=67 velocity=57 time=51
note_on channel=0 note=67 velocity=0 time=127
note_on channel=0 note=69 velocity=61 time=108
note_on channel=0 note=59 velocity=52 time=9
note_on channel=0 note=59 velocity=0 time=101
note_on channel=0 note=69 velocity=0 time=42
note_on channel=0 note=57 velocity=55 time=23
note_on channel=0 note=55 velocity=44 time=39
note_on channel=0 note=57 velocity=0 time=122
note_on channel=0 note=59 velocity=53 time=9
note_on channel=0 note=55 velocity=0 time=3
note_on channel=0 note=59 velocity=0 time=127
note_on channel=0 note=55 velocity=48 time=1
note_on channel=0 note=57 velocity=45 time=27
note_on channel=0 note=57 velocity=0 time=64
note_on channel=0 note=60 velocity=56 time=13
note_on channel=0 note=55 velocity=0 time=34
note_on channel=0 note=59 velocity=36 time=3
note_on channel=0 note=59 velocity=0 time=86
note_on channel=0 note=60 velocity=0 time=6
note_on channel=0 note=55 velocity=45 time=3
note_on channel=0 note=57 velocity=49 time=13
note_on channel=0 note=57 velocity=0 time=82
note_on channel=0 note=60 velocity=44 time=44
note_on channel=0 note=55 velocity=0 time=4
note_on channel=0 note=59 velocity=43 time=0
note_on channel=0 note=69 velocity=46 time=36
note_on channel=0 note=59 velocity=0 time=72
note_on channel=0 note=69 velocity=0 time=0
note_on channel=0 note=55 velocity=42 time=2
note_on channel=0 note=60 velocity=0 time=6
note_on channel=0 note=57 velocity=48 time=1
note_on channel=0 note=57 velocity=0 time=104
note_on channel=0 note=55 velocity=0 time=40
note_on channel=0 note=59 velocity=48 time=15
note_on channel=0 note=60 velocity=60 time=1
note_on channel=0 note=55 velocity=43 time=90
note_on channel=0 note=59 velocity=0 time=2
note_on channel=0 note=60 velocity=0 time=19
note_on channel=0 note=57 velocity=44 time=5
note_on channel=0 note=57 velocity=0 time=87
note_on channel=0 note=55 velocity=0 time=39
note_on channel=0 note=60 velocity=57 time=2
note_on channel=0 note=59 velocity=48 time=18
note_on channel=0 note=59 velocity=0 time=73
note_on channel=0 note=55 velocity=45 time=15
note_on channel=0 note=57 velocity=56 time=5
note_on channel=0 note=60 velocity=0 time=10
note_on channel=0 note=57 velocity=0 time=93
note_on channel=0 note=55 velocity=0 time=25
note_on channel=0 note=60 velocity=57 time=3
note_on channel=0 note=59 velocity=47 time=17
note_on channel=0 note=59 velocity=0 time=78
note_on channel=0 note=55 velocity=43 time=3
note_on channel=0 note=60 velocity=0 time=24
note_on channel=0 note=57 velocity=47 time=3
note_on channel=0 note=57 velocity=0 time=81
note_on channel=0 note=55 velocity=0 time=32
note_on channel=0 note=60 velocity=57 time=22
note_on channel=0 note=59 velocity=48 time=4
note_on channel=0 note=55 velocity=40 time=76
note_on channel=0 note=59 velocity=0 time=16
note_on channel=0 note=60 velocity=0 time=16
note_on channel=0 note=57 velocity=47 time=6
note_on channel=0 note=57 velocity=0 time=81
note_on channel=0 note=55 velocity=0 time=37
note_on channel=0 note=60 velocity=52 time=22
note_on channel=0 note=59 velocity=49 time=3
note_on channel=0 note=59 velocity=0 time=86
note_on channel=0 note=55 velocity=33 time=26
note_on channel=0 note=57 velocity=47 time=3
note_on channel=0 note=60 velocity=0 time=5
note_on channel=0 note=57 velocity=0 time=96
note_on channel=0 note=55 velocity=0 time=19
note_on channel=0 note=59 velocity=47 time=23
note_on channel=0 note=60 velocity=48 time=5
note_on channel=0 note=57 velocity=52 time=115
note_on channel=0 note=55 velocity=46 time=7
note_on channel=0 note=59 velocity=0 time=7
note_on channel=0 note=60 velocity=0 time=26
note_on channel=0 note=57 velocity=0 time=100
note_on channel=0 note=59 velocity=65 time=11
note_on channel=0 note=55 velocity=0 time=27
note_on channel=0 note=57 velocity=58 time=114
note_on channel=0 note=55 velocity=47 time=9
note_on channel=0 note=59 velocity=0 time=41
note_on channel=0 note=60 velocity=55 time=24
note_on channel=0 note=57 velocity=0 time=92
note_on channel=0 note=65 velocity=60 time=94
note_on channel=0 note=60 velocity=0 time=7
note_on channel=0 note=55 velocity=0 time=11
note_on channel=0 note=65 velocity=0 time=444
note_on channel=0 note=67 velocity=66 time=73
note_on channel=0 note=67 velocity=0 time=239
note_on channel=0 note=57 velocity=35 time=18
note_on channel=0 note=55 velocity=43 time=21
note_on channel=0 note=57 velocity=0 time=114
note_on channel=0 note=55 velocity=0 time=52
note_on channel=0 note=59 velocity=32 time=35
note_on channel=0 note=59 velocity=0 time=81
note_on channel=0 note=55 velocity=29 time=68
note_on channel=0 note=55 velocity=0 time=122
note_on channel=0 note=60 velocity=34 time=0
note_on channel=0 note=59 velocity=39 time=5
note_on channel=0 note=59 velocity=0 time=97
note_on channel=0 note=55 velocity=41 time=3
note_on channel=0 note=60 velocity=0 time=2
note_on channel=0 note=55 velocity=0 time=117
note_on channel=0 note=60 velocity=41 time=20
note_on channel=0 note=59 velocity=45 time=23
note_on channel=0 note=60 velocity=0 time=88
note_on channel=0 note=59 velocity=0 time=6
note_on channel=0 note=55 velocity=37 time=5
note_on channel=0 note=57 velocity=39 time=14
note_on channel=0 note=57 velocity=0 time=95
note_on channel=0 note=60 velocity=47 time=18
note_on channel=0 note=55 velocity=0 time=8
note_on channel=0 note=59 velocity=48 time=13
note_on channel=0 note=57 velocity=56 time=87
note_on channel=0 note=59 velocity=0 time=5
note_on channel=0 note=55 velocity=34 time=23
note_on channel=0 note=60 velocity=0 time=9
note_on channel=0 note=55 velocity=0 time=76
note_on channel=0 note=60 velocity=50 time=21
note_on channel=0 note=57 velocity=0 time=5
note_on channel=0 note=59 velocity=57 time=5
note_on channel=0 note=55 velocity=44 time=57
note_on channel=0 note=59 velocity=0 time=50
note_on channel=0 note=60 velocity=0 time=35
note_on channel=0 note=60 velocity=53 time=87
note_on channel=0 note=59 velocity=56 time=9
note_on channel=0 note=55 velocity=0 time=8
note_on channel=0 note=57 velocity=53 time=83
note_on channel=0 note=59 velocity=0 time=9
note_on channel=0 note=55 velocity=32 time=29
note_on channel=0 note=60 velocity=0 time=9
note_on channel=0 note=57 velocity=0 time=97
note_on channel=0 note=60 velocity=48 time=42
note_on channel=0 note=59 velocity=57 time=16
note_on channel=0 note=55 velocity=0 time=49
note_on channel=0 note=59 velocity=0 time=84
note_on channel=0 note=60 velocity=0 time=24
note_on channel=0 note=64 velocity=51 time=3
note_on channel=0 note=62 velocity=48 time=127
note_on channel=0 note=60 velocity=55 time=28
note_on channel=0 note=64 velocity=0 time=31
note_on channel=0 note=59 velocity=41 time=40
note_on channel=0 note=62 velocity=0 time=10
note_on channel=0 note=57 velocity=48 time=75
note_on channel=0 note=60 velocity=0 time=46
note_on channel=0 note=59 velocity=0 time=28
note_on channel=0 note=55 velocity=52 time=30
note_on channel=0 note=52 velocity=50 time=63
note_on channel=0 note=57 velocity=0 time=30
note_on channel=0 note=50 velocity=53 time=91
note_on channel=0 note=55 velocity=0 time=15
note_on channel=0 note=48 velocity=69 time=94
note_on channel=0 note=52 velocity=0 time=38
note_on channel=0 note=50 velocity=0 time=26
note_on channel=0 note=59 velocity=61 time=86
note_on channel=0 note=48 velocity=0 time=41
note_on channel=0 note=59 velocity=0 time=151
note_on channel=0 note=57 velocity=48 time=56
note_on channel=0 note=55 velocity=42 time=41
note_on channel=0 note=48 velocity=33 time=52
note_on channel=0 note=57 velocity=0 time=20
note_on channel=0 note=48 velocity=0 time=35
note_on channel=0 note=48 velocity=60 time=72
note_on channel=0 note=55 velocity=0 time=22
note_on channel=0 note=59 velocity=65 time=185
note_on channel=0 note=60 velocity=43 time=44
note_on channel=0 note=60 velocity=0 time=62
note_on channel=0 note=60 velocity=66 time=62
note_on channel=0 note=67 velocity=65 time=19
note_on channel=0 note=59 velocity=0 time=26
note_on channel=0 note=55 velocity=69 time=130
note_on channel=0 note=57 velocity=69 time=7
note_on channel=0 note=60 velocity=0 time=37
note_on channel=0 note=57 velocity=0 time=101
note_on channel=0 note=67 velocity=0 time=40
note_on channel=0 note=59 velocity=72 time=21
note_on channel=0 note=55 velocity=0 time=13
note_on channel=0 note=59 velocity=0 time=139
note_on channel=0 note=69 velocity=61 time=10
note_on channel=0 note=60 velocity=32 time=27
note_on channel=0 note=48 velocity=0 time=38
note_on channel=0 note=60 velocity=0 time=3
note_on channel=0 note=59 velocity=61 time=117
note_on channel=0 note=69 velocity=0 time=15
note_on channel=0 note=59 velocity=0 time=154
note_on channel=0 note=57 velocity=47 time=4
note_on channel=0 note=55 velocity=48 time=15
note_on channel=0 note=60 velocity=43 time=32
note_on channel=0 note=57 velocity=0 time=74
note_on channel=0 note=59 velocity=48 time=33
note_on channel=0 note=55 velocity=0 time=20
note_on channel=0 note=60 velocity=0 time=22
note_on channel=0 note=55 velocity=47 time=79
note_on channel=0 note=59 velocity=0 time=9
note_on channel=0 note=57 velocity=48 time=13
note_on channel=0 note=60 velocity=39 time=20
note_on channel=0 note=57 velocity=0 time=76
note_on channel=0 note=59 velocity=56 time=33
note_on channel=0 note=55 velocity=0 time=6
note_on channel=0 note=60 velocity=0 time=23
note_on channel=0 note=59 velocity=0 time=86
note_on channel=0 note=55 velocity=47 time=16
note_on channel=0 note=57 velocity=50 time=3
note_on channel=0 note=60 velocity=40 time=49
note_on channel=0 note=59 velocity=57 time=48
note_on channel=0 note=57 velocity=0 time=2
note_on channel=0 note=55 velocity=0 time=40
note_on channel=0 note=60 velocity=0 time=39
note_on channel=0 note=55 velocity=48 time=54
note_on channel=0 note=59 velocity=0 time=9
note_on channel=0 note=57 velocity=51 time=24
note_on channel=0 note=60 velocity=47 time=27
note_on channel=0 note=59 velocity=55 time=24
note_on channel=0 note=57 velocity=0 time=20
note_on channel=0 note=55 velocity=0 time=66
note_on channel=0 note=60 velocity=0 time=54
note_on channel=0 note=55 velocity=51 time=23
note_on channel=0 note=59 velocity=0 time=3
note_on channel=0 note=57 velocity=52 time=13
note_on channel=0 note=59 velocity=53 time=73
note_on channel=0 note=57 velocity=0 time=45
note_on channel=0 note=55 velocity=0 time=14
note_on channel=0 note=55 velocity=50 time=84
note_on channel=0 note=57 velocity=42 time=29
note_on channel=0 note=59 velocity=0 time=1
note_on channel=0 note=57 velocity=0 time=64
note_on channel=0 note=60 velocity=53 time=5
note_on channel=0 note=59 velocity=43 time=56
note_on channel=0 note=55 velocity=0 time=2
note_on channel=0 note=60 velocity=0 time=91
note_on channel=0 note=57 velocity=56 time=5
note_on channel=0 note=55 velocity=39 time=3
note_on channel=0 note=59 velocity=0 time=39
note_on channel=0 note=57 velocity=0 time=91
note_on channel=0 note=59 velocity=58 time=6
note_on channel=0 note=55 velocity=0 time=10
note_on channel=0 note=55 velocity=49 time=90
note_on channel=0 note=57 velocity=52 time=0
note_on channel=0 note=59 velocity=0 time=65
note_on channel=0 note=60 velocity=45 time=11
note_on channel=0 note=69 velocity=72 time=57
note_on channel=0 note=57 velocity=0 time=5
note_on channel=0 note=60 velocity=0 time=40
note_on channel=0 note=55 velocity=0 time=27
note_on channel=0 note=65 velocity=49 time=118
note_on channel=0 note=69 velocity=0 time=34
note_on channel=0 note=65 velocity=0 time=143
note_on channel=0 note=60 velocity=22 time=81
note_on channel=0 note=59 velocity=60 time=17
note_on channel=0 note=60 velocity=0 time=96
note_on channel=0 note=59 velocity=0 time=106
note_on channel=0 note=55 velocity=50 time=22
note_on channel=0 note=57 velocity=49 time=35
note_on channel=0 note=57 velocity=0 time=192
note_on channel=0 note=69 velocity=57 time=20
note_on channel=0 note=55 velocity=0 time=18
note_on channel=0 note=67 velocity=46 time=14
note_on channel=0 note=67 velocity=0 time=66
note_on channel=0 note=69 velocity=0 time=48
note_on channel=0 note=67 velocity=69 time=127
note_on channel=0 note=65 velocity=34 time=79
note_on channel=0 note=57 velocity=56 time=2
note_on channel=0 note=55 velocity=50 time=3
note_on channel=0 note=57 velocity=0 time=88
note_on channel=0 note=65 velocity=0 time=5
note_on channel=0 note=55 velocity=0 time=62
note_on channel=0 note=59 velocity=56 time=86
note_on channel=0 note=67 velocity=0 time=114
note_on channel=0 note=59 velocity=0 time=69
note_on channel=0 note=57 velocity=45 time=52
note_on channel=0 note=55 velocity=45 time=26
note_on channel=0 note=57 velocity=0 time=92
note_on channel=0 note=64 velocity=60 time=68
note_on channel=0 note=55 velocity=0 time=10
note_on channel=0 note=62 velocity=55 time=206
note_on channel=0 note=64 velocity=0 time=76
note_on channel=0 note=60 velocity=51 time=105
note_on channel=0 note=57 velocity=50 time=57
note_on channel=0 note=55 velocity=39 time=32
note_on channel=0 note=62 velocity=0 time=0
note_on channel=0 note=59 velocity=53 time=111
note_on channel=0 note=60 velocity=0 time=6
note_on channel=0 note=57 velocity=0 time=30
note_on channel=0 note=55 velocity=0 time=59
note_on channel=0 note=60 velocity=34 time=45
note_on channel=0 note=59 velocity=0 time=42
note_on channel=0 note=48 velocity=48 time=59
note_on channel=0 note=55 velocity=39 time=10
note_on channel=0 note=57 velocity=41 time=5
note_on channel=0 note=62 velocity=49 time=62
note_on channel=0 note=60 velocity=0 time=24
note_on channel=0 note=64 velocity=53 time=142
note_on channel=0 note=62 velocity=0 time=39
note_on channel=0 note=57 velocity=0 time=116
note_on channel=0 note=62 velocity=31 time=12
note_on channel=0 note=55 velocity=0 time=76
note_on channel=0 note=48 velocity=0 time=24
note_on channel=0 note=64 velocity=0 time=23
note_on channel=0 note=67 velocity=45 time=115
note_on channel=0 note=64 velocity=34 time=9
note_on channel=0 note=62 velocity=0 time=53
note_on channel=0 note=64 velocity=0 time=36
note_on channel=0 note=48 velocity=31 time=2
note_on channel=0 note=57 velocity=46 time=8
note_on channel=0 note=55 velocity=39 time=47
note_on channel=0 note=67 velocity=0 time=74
note_on channel=0 note=59 velocity=49 time=36
note_on channel=0 note=57 velocity=0 time=37
note_on channel=0 note=48 velocity=0 time=21
note_on channel=0 note=55 velocity=0 time=43
note_on channel=0 note=60 velocity=56 time=63
note_on channel=0 note=59 velocity=0 time=45
note_on channel=0 note=55 velocity=56 time=100
note_on channel=0 note=57 velocity=58 time=8
note_on channel=0 note=48 velocity=48 time=14
note_on channel=0 note=60 velocity=0 time=85
note_on channel=0 note=59 velocity=61 time=41
note_on channel=0 note=57 velocity=0 time=26
note_on channel=0 note=55 velocity=0 time=30
note_on channel=0 note=48 velocity=0 time=44
note_on channel=0 note=59 velocity=0 time=43
note_on channel=0 note=55 velocity=40 time=23
note_on channel=0 note=60 velocity=56 time=2
note_on channel=0 note=57 velocity=47 time=15
note_on channel=0 note=48 velocity=43 time=14
note_on channel=0 note=48 velocity=0 time=89
note_on channel=0 note=57 velocity=0 time=8
note_on channel=0 note=55 velocity=0 time=37
note_on channel=0 note=59 velocity=61 time=30
note_on channel=0 note=60 velocity=0 time=68
note_on channel=0 note=55 velocity=48 time=16
note_on channel=0 note=57 velocity=49 time=18
note_on channel=0 note=48 velocity=47 time=2
note_on channel=0 note=59 velocity=0 time=37
note_on channel=0 note=69 velocity=63 time=78
note_on channel=0 note=57 velocity=0 time=4
note_on channel=0 note=48 velocity=0 time=28
note_on channel=0 note=55 velocity=0 time=27
note_on channel=0 note=69 velocity=0 time=119
note_on channel=0 note=60 velocity=51 time=11
note_on channel=0 note=59 velocity=50 time=190
note_on channel=0 note=57 velocity=43 time=8
note_on channel=0 note=60 velocity=0 time=11
note_on channel=0 note=48 velocity=41 time=4
note_on channel=0 note=55 velocity=41 time=13
note_on channel=0 note=57 velocity=0 time=50
note_on channel=0 note=48 velocity=0 time=20
note_on channel=0 note=55 velocity=0 time=15
note_on channel=0 note=59 velocity=0 time=21
note_on channel=0 note=60 velocity=42 time=32
note_on channel=0 note=55 velocity=39 time=124
note_on channel=0 note=57 velocity=39 time=18
note_on channel=0 note=48 velocity=31 time=15
note_on channel=0 note=57 velocity=0 time=70
note_on channel=0 note=48 velocity=0 time=6
note_on channel=0 note=59 velocity=48 time=10
note_on channel=0 note=55 velocity=0 time=3
note_on channel=0 note=60 velocity=0 time=52
note_on channel=0 note=59 velocity=0 time=59
note_on channel=0 note=60 velocity=50 time=39
note_on channel=0 note=55 velocity=33 time=19
note_on channel=0 note=57 velocity=30 time=48
note_on channel=0 note=57 velocity=0 time=87
note_on channel=0 note=55 velocity=0 time=22
note_on channel=0 note=67 velocity=50 time=37
note_on channel=0 note=60 velocity=0 time=136
note_on channel=0 note=57 velocity=42 time=13
note_on channel=0 note=55 velocity=42 time=4
note_on channel=0 note=67 velocity=0 time=34
note_on channel=0 note=48 velocity=32 time=17
note_on channel=0 note=60 velocity=44 time=48
note_on channel=0 note=57 velocity=0 time=64
note_on channel=0 note=48 velocity=0 time=3
note_on channel=0 note=55 velocity=0 time=34
note_on channel=0 note=65 velocity=54 time=83
note_on channel=0 note=60 velocity=0 time=62
note_on channel=0 note=57 velocity=47 time=143
note_on channel=0 note=59 velocity=52 time=4
note_on channel=0 note=65 velocity=0 time=28
note_on channel=0 note=57 velocity=0 time=59
note_on channel=0 note=59 velocity=0 time=80
note_on channel=0 note=60 velocity=49 time=49
note_on channel=0 note=55 velocity=39 time=36
note_on channel=0 note=55 velocity=0 time=160
note_on channel=0 note=60 velocity=0 time=26
note_on channel=0 note=59 velocity=47 time=11
note_on channel=0 note=57 velocity=39 time=32
note_on channel=0 note=55 velocity=48 time=32
note_on channel=0 note=59 velocity=0 time=24
note_on channel=0 note=57 velocity=0 time=78
note_on channel=0 note=59 velocity=52 time=13
note_on channel=0 note=55 velocity=0 time=25
note_on channel=0 note=55 velocity=41 time=125
note_on channel=0 note=57 velocity=48 time=0
note_on channel=0 note=59 velocity=0 time=42
note_on channel=0 note=60 velocity=52 time=53
note_on channel=0 note=55 velocity=0 time=36
note_on channel=0 note=57 velocity=0 time=1
note_on channel=0 note=57 velocity=53 time=146
note_on channel=0 note=55 velocity=44 time=7
note_on channel=0 note=60 velocity=0 time=98
note_on channel=0 note=55 velocity=0 time=2
note_on channel=0 note=62 velocity=55 time=0
note_on channel=0 note=57 velocity=0 time=30
note_on channel=0 note=60 velocity=53 time=152
note_on channel=0 note=57 velocity=39 time=149
note_on channel=0 note=62 velocity=0 time=10
note_on channel=0 note=55 velocity=45 time=21
note_on channel=0 note=48 velocity=33 time=36
note_on channel=0 note=59 velocity=51 time=28
note_on channel=0 note=60 velocity=0 time=12
note_on channel=0 note=57 velocity=0 time=67
note_on channel=0 note=55 velocity=0 time=19
note_on channel=0 note=48 velocity=0 time=8
note_on channel=0 note=60 velocity=53 time=53
note_on channel=0 note=59 velocity=0 time=69
note_on channel=0 note=55 velocity=51 time=42
note_on channel=0 note=57 velocity=42 time=2
note_on channel=0 note=60 velocity=0 time=76
note_on channel=0 note=57 velocity=0 time=20
note_on channel=0 note=60 velocity=60 time=60
note_on channel=0 note=55 velocity=0 time=2
note_on channel=0 note=64 velocity=57 time=211
note_on channel=0 note=60 velocity=0 time=70
note_on channel=0 note=67 velocity=49 time=142
note_on channel=0 note=64 velocity=0 time=16
note_on channel=0 note=65 velocity=54 time=1
note_on channel=0 note=65 velocity=0 time=124
note_on channel=0 note=60 velocity=34 time=116
note_on channel=0 note=57 velocity=53 time=9
note_on channel=0 note=48 velocity=47 time=6
note_on channel=0 note=59 velocity=53 time=6
note_on channel=0 note=67 velocity=0 time=29
note_on channel=0 note=60 velocity=0 time=42
note_on channel=0 note=55 velocity=30 time=71
note_on channel=0 note=57 velocity=0 time=9
note_on channel=0 note=48 velocity=0 time=48
note_on channel=0 note=55 velocity=0 time=5
note_on channel=0 note=60 velocity=58 time=30
note_on channel=0 note=59 velocity=0 time=43
note_on channel=0 note=64 velocity=57 time=182
note_on channel=0 note=48 velocity=52 time=12
note_on channel=0 note=57 velocity=52 time=0
note_on channel=0 note=55 velocity=48 time=11
note_on channel=0 note=60 velocity=0 time=24
note_on channel=0 note=55 velocity=0 time=161
note_on channel=0 note=57 velocity=0 time=23
note_on channel=0 note=48 velocity=0 time=27
note_on channel=0 note=59 velocity=55 time=26
note_on channel=0 note=64 velocity=0 time=44
note_on channel=0 note=59 velocity=0 time=145
note_on channel=0 note=60 velocity=52 time=9
note_on channel=0 note=59 velocity=44 time=209
note_on channel=0 note=60 velocity=0 time=15
note_on channel=0 note=59 velocity=0 time=88
note_on channel=0 note=60 velocity=47 time=46
note_on channel=0 note=57 velocity=43 time=137
note_on channel=0 note=48 velocity=21 time=17
note_on channel=0 note=55 velocity=34 time=2
note_on channel=0 note=60 velocity=0 time=49
note_on channel=0 note=59 velocity=47 time=19
note_on channel=0 note=57 velocity=0 time=89
note_on channel=0 note=59 velocity=0 time=20
note_on channel=0 note=60 velocity=46 time=7
note_on channel=0 note=55 velocity=0 time=35
note_on channel=0 note=48 velocity=0 time=8
note_on channel=0 note=59 velocity=52 time=113
note_on channel=0 note=60 velocity=0 time=20
note_on channel=0 note=60 velocity=49 time=85
note_on channel=0 note=59 velocity=0 time=44
note_on channel=0 note=64 velocity=51 time=110
note_on channel=0 note=60 velocity=0 time=50
note_on channel=0 note=48 velocity=39 time=27
note_on channel=0 note=57 velocity=48 time=32
note_on channel=0 note=55 velocity=48 time=3
note_on channel=0 note=67 velocity=42 time=63
note_on channel=0 note=64 velocity=0 time=26
note_on channel=0 note=57 velocity=0 time=76
note_on channel=0 note=55 velocity=0 time=37
note_on channel=0 note=48 velocity=0 time=6
note_on channel=0 note=64 velocity=42 time=10
note_on channel=0 note=67 velocity=0 time=18
note_on channel=0 note=60 velocity=52 time=113
note_on channel=0 note=64 velocity=0 time=54
note_on channel=0 note=59 velocity=47 time=100
note_on channel=0 note=60 velocity=0 time=37
note_on channel=0 note=57 velocity=53 time=47
note_on channel=0 note=55 velocity=48 time=9
note_on channel=0 note=48 velocity=47 time=8
note_on channel=0 note=59 velocity=0 time=50
note_on channel=0 note=60 velocity=50 time=50
note_on channel=0 note=59 velocity=47 time=123
note_on channel=0 note=60 velocity=0 time=18
note_on channel=0 note=57 velocity=0 time=55
note_on channel=0 note=60 velocity=47 time=35
note_on channel=0 note=59 velocity=0 time=14
note_on channel=0 note=48 velocity=0 time=85
note_on channel=0 note=55 velocity=0 time=38
note_on channel=0 note=59 velocity=50 time=25
note_on channel=0 note=60 velocity=0 time=6
note_on channel=0 note=60 velocity=46 time=92
note_on channel=0 note=59 velocity=0 time=31
note_on channel=0 note=59 velocity=53 time=120
note_on channel=0 note=60 velocity=0 time=42
note_on channel=0 note=60 velocity=55 time=79
note_on channel=0 note=59 velocity=0 time=17
note_on channel=0 note=57 velocity=48 time=102
note_on channel=0 note=55 velocity=49 time=3
note_on channel=0 note=48 velocity=47 time=10
note_on channel=0 note=59 velocity=53 time=168
note_on channel=0 note=60 velocity=0 time=12
note_on channel=0 note=55 velocity=0 time=6
note_on channel=0 note=48 velocity=0 time=41
note_on channel=0 note=57 velocity=0 time=28
note_on channel=0 note=60 velocity=48 time=36
note_on channel=0 note=59 velocity=0 time=21
note_on channel=0 note=67 velocity=42 time=158
note_on channel=0 note=67 velocity=0 time=74
note_on channel=0 note=60 velocity=0 time=18
note_on channel=0 note=59 velocity=49 time=2
note_on channel=0 note=47 velocity=56 time=37
note_on channel=0 note=57 velocity=50 time=3
note_on channel=0 note=53 velocity=50 time=5
note_on channel=0 note=59 velocity=0 time=97
note_on channel=0 note=67 velocity=54 time=0
note_on channel=0 note=53 velocity=0 time=148
note_on channel=0 note=59 velocity=39 time=4
note_on channel=0 note=57 velocity=0 time=99
note_on channel=0 note=47 velocity=0 time=12
note_on channel=0 note=60 velocity=48 time=33
note_on channel=0 note=59 velocity=0 time=1
note_on channel=0 note=67 velocity=0 time=68
note_on channel=0 note=59 velocity=48 time=47
note_on channel=0 note=60 velocity=0 time=76
note_on channel=0 note=55 velocity=47 time=58
note_on channel=0 note=48 velocity=60 time=6
note_on channel=0 note=57 velocity=57 time=8
note_on channel=0 note=59 velocity=0 time=5
control_change channel=0 control=64 value=0 time=123
note_on channel=0 note=59 velocity=56 time=15
control_change channel=0 control=64 value=127 time=63
note_on channel=0 note=60 velocity=51 time=86
note_on channel=0 note=59 velocity=0 time=17
note_on channel=0 note=57 velocity=0 time=97
note_on channel=0 note=64 velocity=52 time=86
note_on channel=0 note=55 velocity=0 time=7
note_on channel=0 note=60 velocity=0 time=16
note_on channel=0 note=48 velocity=0 time=68
note_on channel=0 note=64 velocity=0 time=68
note_on channel=0 note=55 velocity=46 time=9
note_on channel=0 note=59 velocity=51 time=0
note_on channel=0 note=48 velocity=47 time=12
control_change channel=0 control=64 value=0 time=120
note_on channel=0 note=62 velocity=50 time=10
control_change channel=0 control=64 value=127 time=98
note_on channel=0 note=65 velocity=52 time=98
note_on channel=0 note=62 velocity=0 time=41
note_on channel=0 note=59 velocity=0 time=99
note_on channel=0 note=69 velocity=53 time=67
note_on channel=0 note=65 velocity=0 time=49
note_on channel=0 note=55 velocity=0 time=16
note_on channel=0 note=48 velocity=0 time=31
note_on channel=0 note=55 velocity=52 time=84
note_on channel=0 note=48 velocity=46 time=19
note_on channel=0 note=60 velocity=49 time=9
note_on channel=0 note=72 velocity=40 time=2
note_on channel=0 note=71 velocity=47 time=4
note_on channel=0 note=69 velocity=0 time=81
control_change channel=0 control=64 value=0 time=5
note_on channel=0 note=71 velocity=0 time=67
note_on channel=0 note=72 velocity=0 time=13
control_change channel=0 control=64 value=127 time=53
note_on channel=0 note=62 velocity=47 time=27
note_on channel=0 note=65 velocity=48 time=162
note_on channel=0 note=62 velocity=0 time=34
note_on channel=0 note=60 velocity=0 time=101
note_on channel=0 note=55 velocity=0 time=1
note_on channel=0 note=69 velocity=50 time=55
note_on channel=0 note=48 velocity=0 time=45
note_on channel=0 note=65 velocity=0 time=14
note_on channel=0 note=48 velocity=43 time=134
note_on channel=0 note=55 velocity=55 time=4
note_on channel=0 note=59 velocity=58 time=4
note_on channel=0 note=72 velocity=57 time=7
note_on channel=0 note=69 velocity=0 time=156
note_on channel=0 note=62 velocity=53 time=48
note_on channel=0 note=59 velocity=0 time=35
note_on channel=0 note=72 velocity=0 time=8
note_on channel=0 note=62 velocity=0 time=112
note_on channel=0 note=65 velocity=54 time=5
note_on channel=0 note=55 velocity=0 time=81
note_on channel=0 note=69 velocity=54 time=74
note_on channel=0 note=65 velocity=0 time=59
note_on channel=0 note=55 velocity=43 time=30
note_on channel=0 note=60 velocity=57 time=11
note_on channel=0 note=72 velocity=57 time=86
note_on channel=0 note=69 velocity=0 time=34
note_on channel=0 note=62 velocity=51 time=88
note_on channel=0 note=60 velocity=0 time=10
note_on channel=0 note=55 velocity=0 time=23
note_on channel=0 note=72 velocity=0 time=28
note_on channel=0 note=65 velocity=53 time=69
note_on channel=0 note=62 velocity=0 time=29
note_on channel=0 note=59 velocity=55 time=123
note_on channel=0 note=55 velocity=56 time=8
note_on channel=0 note=69 velocity=54 time=17
note_on channel=0 note=65 velocity=0 time=52
note_on channel=0 note=72 velocity=60 time=120
note_on channel=0 note=59 velocity=0 time=2
note_on channel=0 note=69 velocity=0 time=66
note_on channel=0 note=55 velocity=0 time=15
note_on channel=0 note=60 velocity=58 time=91
note_on channel=0 note=72 velocity=0 time=0
note_on channel=0 note=55 velocity=60 time=15
note_on channel=0 note=65 velocity=50 time=15
note_on channel=0 note=60 velocity=0 time=175
note_on channel=0 note=69 velocity=53 time=57
note_on channel=0 note=65 velocity=0 time=43
note_on channel=0 note=55 velocity=0 time=3
note_on channel=0 note=74 velocity=56 time=124
note_on channel=0 note=55 velocity=57 time=145
note_on channel=0 note=59 velocity=53 time=0
note_on channel=0 note=76 velocity=63 time=40
note_on channel=0 note=69 velocity=0 time=20
note_on channel=0 note=74 velocity=0 time=63
note_on channel=0 note=59 velocity=0 time=29
note_on channel=0 note=65 velocity=57 time=52
note_on channel=0 note=55 velocity=0 time=20
note_on channel=0 note=76 velocity=0 time=14
note_on channel=0 note=69 velocity=57 time=106
note_on channel=0 note=60 velocity=57 time=12
note_on channel=0 note=55 velocity=49 time=5
note_on channel=0 note=65 velocity=0 time=10
note_on channel=0 note=74 velocity=57 time=137
note_on channel=0 note=60 velocity=0 time=7
note_on channel=0 note=69 velocity=0 time=68
note_on channel=0 note=55 velocity=0 time=8
note_on channel=0 note=76 velocity=60 time=74
note_on channel=0 note=59 velocity=61 time=141
note_on channel=0 note=55 velocity=53 time=8
note_on channel=0 note=65 velocity=58 time=7
note_on channel=0 note=74 velocity=0 time=29
note_on channel=0 note=76 velocity=0 time=50
note_on channel=0 note=59 velocity=0 time=67
note_on channel=0 note=69 velocity=57 time=44
note_on channel=0 note=55 velocity=0 time=24
note_on channel=0 note=65 velocity=0 time=49
note_on channel=0 note=74 velocity=57 time=31
note_on channel=0 note=48 velocity=0 time=36
note_on channel=0 note=69 velocity=0 time=69
note_on channel=0 note=55 velocity=57 time=58
note_on channel=0 note=60 velocity=65 time=5
note_on channel=0 note=48 velocity=57 time=14
note_on channel=0 note=74 velocity=0 time=29
note_on channel=0 note=79 velocity=57 time=92
note_on channel=0 note=60 velocity=0 time=40
note_on channel=0 note=55 velocity=0 time=81
note_on channel=0 note=79 velocity=0 time=47
note_on channel=0 note=69 velocity=56 time=19
note_on channel=0 note=48 velocity=0 time=91
note_on channel=0 note=69 velocity=0 time=67
note_on channel=0 note=74 velocity=44 time=0
note_on channel=0 note=62 velocity=50 time=14
note_on channel=0 note=55 velocity=61 time=13
note_on channel=0 note=48 velocity=58 time=10
note_on channel=0 note=62 velocity=0 time=157
note_on channel=0 note=83 velocity=49 time=17
note_on channel=0 note=81 velocity=51 time=5
note_on channel=0 note=74 velocity=0 time=88
note_on channel=0 note=55 velocity=0 time=43
note_on channel=0 note=83 velocity=0 time=18
note_on channel=0 note=81 velocity=0 time=11
note_on channel=0 note=69 velocity=60 time=8
note_on channel=0 note=60 velocity=69 time=124
note_on channel=0 note=55 velocity=61 time=11
note_on channel=0 note=69 velocity=0 time=36
note_on channel=0 note=74 velocity=58 time=21
note_on channel=0 note=69 velocity=58 time=108
note_on channel=0 note=60 velocity=0 time=3
note_on channel=0 note=74 velocity=0 time=91
note_on channel=0 note=55 velocity=0 time=22
note_on channel=0 note=74 velocity=60 time=52
note_on channel=0 note=48 velocity=0 time=25
note_on channel=0 note=69 velocity=0 time=10
note_on channel=0 note=55 velocity=61 time=146
note_on channel=0 note=48 velocity=60 time=2
note_on channel=0 note=79 velocity=57 time=2
note_on channel=0 note=62 velocity=60 time=2
note_on channel=0 note=74 velocity=0 time=91
note_on channel=0 note=62 velocity=0 time=63
note_on channel=0 note=83 velocity=72 time=38
note_on channel=0 note=79 velocity=0 time=46
note_on channel=0 note=48 velocity=0 time=22
note_on channel=0 note=83 velocity=0 time=48
note_on channel=0 note=55 velocity=0 time=15
note_on channel=0 note=71 velocity=57 time=22
note_on channel=0 note=72 velocity=54 time=2
note_on channel=0 note=72 velocity=0 time=55
note_on channel=0 note=71 velocity=0 time=6
note_on channel=0 note=55 velocity=56 time=168
note_on channel=0 note=48 velocity=57 time=1
note_on channel=0 note=64 velocity=51 time=12
note_on channel=0 note=72 velocity=49 time=13
control_change channel=0 control=64 value=0 time=6
note_on channel=0 note=86 velocity=48 time=2
note_on channel=0 note=74 velocity=53 time=8
note_on channel=0 note=74 velocity=0 time=61
control_change channel=0 control=64 value=127 time=40
note_on channel=0 note=72 velocity=0 time=23
note_on channel=0 note=86 velocity=0 time=121
note_on channel=0 note=72 velocity=57 time=1
note_on channel=0 note=64 velocity=0 time=54
note_on channel=0 note=72 velocity=0 time=75
note_on channel=0 note=55 velocity=0 time=6
note_on channel=0 note=48 velocity=0 time=1
note_on channel=0 note=79 velocity=57 time=50
note_on channel=0 note=48 velocity=61 time=165
note_on channel=0 note=62 velocity=69 time=3
note_on channel=0 note=55 velocity=56 time=10
note_on channel=0 note=83 velocity=51 time=80
note_on channel=0 note=79 velocity=0 time=20
note_on channel=0 note=62 velocity=0 time=27
note_on channel=0 note=55 velocity=0 time=49
note_on channel=0 note=74 velocity=58 time=8
note_on channel=0 note=86 velocity=57 time=22
note_on channel=0 note=48 velocity=0 time=48
note_on channel=0 note=83 velocity=0 time=16
note_on channel=0 note=74 velocity=0 time=13
note_on channel=0 note=74 velocity=65 time=96
note_on channel=0 note=86 velocity=0 time=6
note_on channel=0 note=64 velocity=72 time=30
note_on channel=0 note=55 velocity=63 time=7
note_on channel=0 note=48 velocity=65 time=6
note_on channel=0 note=74 velocity=0 time=71
note_on channel=0 note=64 velocity=0 time=76
note_on channel=0 note=74 velocity=56 time=9
note_on channel=0 note=55 velocity=0 time=74
note_on channel=0 note=48 velocity=0 time=87
note_on channel=0 note=74 velocity=0 time=25
note_on channel=0 note=62 velocity=72 time=61
note_on channel=0 note=48 velocity=60 time=11
note_on channel=0 note=55 velocity=61 time=6
note_on channel=0 note=79 velocity=48 time=137
note_on channel=0 note=74 velocity=60 time=4
note_on channel=0 note=62 velocity=0 time=21
note_on channel=0 note=84 velocity=43 time=64
note_on channel=0 note=83 velocity=53 time=11
note_on channel=0 note=79 velocity=0 time=4
note_on channel=0 note=48 velocity=0 time=15
note_on channel=0 note=74 velocity=0 time=3
note_on channel=0 note=55 velocity=0 time=20
note_on channel=0 note=84 velocity=0 time=9
note_on channel=0 note=83 velocity=0 time=10
note_on channel=0 note=84 velocity=43 time=81
note_on channel=0 note=88 velocity=40 time=13
note_on channel=0 note=86 velocity=44 time=9
note_on channel=0 note=64 velocity=69 time=5
note_on channel=0 note=48 velocity=60 time=8
note_on channel=0 note=55 velocity=60 time=13
note_on channel=0 note=84 velocity=0 time=16
note_on channel=0 note=88 velocity=0 time=19
note_on channel=0 note=86 velocity=0 time=13
note_on channel=0 note=76 velocity=66 time=61
note_on channel=0 note=88 velocity=67 time=1
note_on channel=0 note=64 velocity=0 time=38
note_on channel=0 note=76 velocity=0 time=71
note_on channel=0 note=88 velocity=0 time=96
note_on channel=0 note=76 velocity=65 time=5
note_on channel=0 note=55 velocity=0 time=29
note_on channel=0 note=81 velocity=34 time=33
note_on channel=0 note=76 velocity=0 time=50
note_on channel=0 note=48 velocity=0 time=9
note_on channel=0 note=62 velocity=72 time=41
note_on channel=0 note=55 velocity=52 time=9
note_on channel=0 note=48 velocity=48 time=3
note_on channel=0 note=89 velocity=74 time=101
note_on channel=0 note=62 velocity=0 time=33
note_on channel=0 note=55 velocity=0 time=120
note_on channel=0 note=77 velocity=72 time=4
note_on channel=0 note=89 velocity=0 time=26
note_on channel=0 note=48 velocity=0 time=3
note_on channel=0 note=81 velocity=0 time=11
note_on channel=0 note=77 velocity=0 time=89
note_on channel=0 note=89 velocity=34 time=17
note_on channel=0 note=89 velocity=0 time=64
note_on channel=0 note=81 velocity=53 time=15
note_on channel=0 note=76 velocity=72 time=4
note_on channel=0 note=65 velocity=60 time=38
note_on channel=0 note=64 velocity=63 time=12
note_on channel=0 note=55 velocity=47 time=5
note_on channel=0 note=76 velocity=0 time=42
note_on channel=0 note=76 velocity=69 time=57
note_on channel=0 note=64 velocity=0 time=24
note_on channel=0 note=65 velocity=0 time=23
note_on channel=0 note=76 velocity=0 time=62
note_on channel=0 note=76 velocity=65 time=70
note_on channel=0 note=81 velocity=0 time=35
note_on channel=0 note=55 velocity=0 time=106
note_on channel=0 note=76 velocity=0 time=12
note_on channel=0 note=62 velocity=69 time=25
note_on channel=0 note=48 velocity=43 time=3
note_on channel=0 note=55 velocity=43 time=13
note_on channel=0 note=74 velocity=56 time=109
note_on channel=0 note=86 velocity=52 time=0
note_on channel=0 note=62 velocity=0 time=47
note_on channel=0 note=55 velocity=0 time=89
note_on channel=0 note=48 velocity=0 time=5
note_on channel=0 note=86 velocity=0 time=63
note_on channel=0 note=79 velocity=28 time=50
note_on channel=0 note=74 velocity=0 time=60
note_on channel=0 note=60 velocity=72 time=35
note_on channel=0 note=55 velocity=56 time=16
note_on channel=0 note=79 velocity=0 time=1
note_on channel=0 note=48 velocity=58 time=1
note_on channel=0 note=74 velocity=63 time=60
note_on channel=0 note=60 velocity=0 time=69
note_on channel=0 note=74 velocity=0 time=43
note_on channel=0 note=79 velocity=53 time=13
note_on channel=0 note=48 velocity=0 time=56
note_on channel=0 note=55 velocity=0 time=117
note_on channel=0 note=74 velocity=25 time=46
note_on channel=0 note=88 velocity=47 time=8
note_on channel=0 note=86 velocity=52 time=1
note_on channel=0 note=74 velocity=0 time=75
note_on channel=0 note=88 velocity=0 time=13
note_on channel=0 note=86 velocity=0 time=11
note_on channel=0 note=64 velocity=69 time=33
note_on channel=0 note=55 velocity=43 time=11
note_on channel=0 note=48 velocity=58 time=3
note_on channel=0 note=74 velocity=42 time=22
note_on channel=0 note=86 velocity=61 time=11
note_on channel=0 note=74 velocity=0 time=54
note_on channel=0 note=79 velocity=0 time=19
note_on channel=0 note=64 velocity=0 time=27
note_on channel=0 note=86 velocity=0 time=15
note_on channel=0 note=74 velocity=60 time=25
note_on channel=0 note=55 velocity=0 time=81
note_on channel=0 note=71 velocity=72 time=51
note_on channel=0 note=48 velocity=0 time=15
note_on channel=0 note=74 velocity=0 time=27
note_on channel=0 note=74 velocity=52 time=100
note_on channel=0 note=67 velocity=53 time=115
note_on channel=0 note=59 velocity=66 time=9
note_on channel=0 note=48 velocity=58 time=9
note_on channel=0 note=55 velocity=57 time=1
note_on channel=0 note=71 velocity=0 time=33
note_on channel=0 note=67 velocity=0 time=16
note_on channel=0 note=79 velocity=61 time=35
note_on channel=0 note=74 velocity=0 time=42
note_on channel=0 note=59 velocity=0 time=36
note_on channel=0 note=79 velocity=0 time=62
note_on channel=0 note=69 velocity=69 time=21
note_on channel=0 note=48 velocity=0 time=61
note_on channel=0 note=55 velocity=0 time=21
note_on channel=0 note=69 velocity=0 time=28
note_on channel=0 note=76 velocity=41 time=5
note_on channel=0 note=74 velocity=48 time=15
note_on channel=0 note=76 velocity=0 time=96
note_on channel=0 note=76 velocity=34 time=69
note_on channel=0 note=84 velocity=60 time=15
note_on channel=0 note=72 velocity=60 time=7
note_on channel=0 note=48 velocity=61 time=4
note_on channel=0 note=74 velocity=0 time=10
note_on channel=0 note=62 velocity=55 time=2
note_on channel=0 note=55 velocity=51 time=2
note_on channel=0 note=76 velocity=0 time=22
note_on channel=0 note=84 velocity=0 time=100
note_on channel=0 note=62 velocity=0 time=34
note_on channel=0 note=72 velocity=0 time=1
note_on channel=0 note=77 velocity=48 time=25
note_on channel=0 note=76 velocity=56 time=12
note_on channel=0 note=76 velocity=0 time=49
note_on channel=0 note=71 velocity=57 time=38
note_on channel=0 note=55 velocity=0 time=12
note_on channel=0 note=77 velocity=0 time=23
note_on channel=0 note=48 velocity=0 time=67
note_on channel=0 note=76 velocity=57 time=26
note_on channel=0 note=75 velocity=51 time=9
note_on channel=0 note=71 velocity=0 time=15
note_on channel=0 note=55 velocity=51 time=2
note_on channel=0 note=57 velocity=69 time=1
note_on channel=0 note=48 velocity=55 time=18
note_on channel=0 note=75 velocity=0 time=19
note_on channel=0 note=76 velocity=0 time=52
note_on channel=0 note=57 velocity=0 time=61
note_on channel=0 note=69 velocity=54 time=8
note_on channel=0 note=71 velocity=61 time=13
note_on channel=0 note=83 velocity=58 time=4
note_on channel=0 note=71 velocity=0 time=50
note_on channel=0 note=69 velocity=0 time=26
note_on channel=0 note=83 velocity=0 time=69
note_on channel=0 note=48 velocity=0 time=51
note_on channel=0 note=55 velocity=0 time=8
note_on channel=0 note=71 velocity=51 time=7
note_on channel=0 note=83 velocity=54 time=3
note_on channel=0 note=72 velocity=48 time=1
note_on channel=0 note=78 velocity=33 time=11
note_on channel=0 note=72 velocity=0 time=48
note_on channel=0 note=71 velocity=0 time=2
note_on channel=0 note=78 velocity=0 time=15
note_on channel=0 note=83 velocity=0 time=81
note_on channel=0 note=48 velocity=56 time=2
note_on channel=0 note=79 velocity=56 time=2
note_on channel=0 note=55 velocity=48 time=6
note_on channel=0 note=62 velocity=55 time=0
note_on channel=0 note=64 velocity=52 time=7
note_on channel=0 note=64 velocity=0 time=52
note_on channel=0 note=72 velocity=54 time=8
note_on channel=0 note=77 velocity=45 time=67
note_on channel=0 note=62 velocity=0 time=12
note_on channel=0 note=79 velocity=0 time=23
note_on channel=0 note=72 velocity=0 time=42
note_on channel=0 note=72 velocity=60 time=102
note_on channel=0 note=55 velocity=0 time=36
note_on channel=0 note=77 velocity=0 time=42
note_on channel=0 note=72 velocity=0 time=56
note_on channel=0 note=60 velocity=79 time=1
note_on channel=0 note=55 velocity=63 time=12
note_on channel=0 note=76 velocity=61 time=121
note_on channel=0 note=60 velocity=0 time=16
note_on channel=0 note=88 velocity=70 time=12
note_on channel=0 note=76 velocity=0 time=61
note_on channel=0 note=48 velocity=0 time=37
note_on channel=0 note=88 velocity=0 time=15
note_on channel=0 note=76 velocity=43 time=49
note_on channel=0 note=84 velocity=39 time=45
note_on channel=0 note=83 velocity=32 time=33
note_on channel=0 note=64 velocity=61 time=19
note_on channel=0 note=48 velocity=46 time=12
note_on channel=0 note=76 velocity=0 time=5
note_on channel=0 note=83 velocity=0 time=52
note_on channel=0 note=84 velocity=0 time=47
note_on channel=0 note=76 velocity=66 time=20
note_on channel=0 note=64 velocity=0 time=6
note_on channel=0 note=83 velocity=44 time=19
note_on channel=0 note=84 velocity=44 time=46
note_on channel=0 note=83 velocity=0 time=21
note_on channel=0 note=55 velocity=0 time=49
note_on channel=0 note=83 velocity=61 time=23
note_on channel=0 note=82 velocity=43 time=20
note_on channel=0 note=76 velocity=0 time=2
note_on channel=0 note=48 velocity=0 time=51
note_on channel=0 note=82 velocity=0 time=19
note_on channel=0 note=48 velocity=63 time=75
note_on channel=0 note=60 velocity=75 time=0
note_on channel=0 note=55 velocity=63 time=15
note_on channel=0 note=84 velocity=0 time=18
note_on channel=0 note=83 velocity=0 time=32
note_on channel=0 note=60 velocity=0 time=78
note_on channel=0 note=81 velocity=65 time=16
note_on channel=0 note=93 velocity=77 time=12
note_on channel=0 note=81 velocity=0 time=83
note_on channel=0 note=55 velocity=0 time=7
note_on channel=0 note=48 velocity=0 time=6
note_on channel=0 note=88 velocity=61 time=67
note_on channel=0 note=93 velocity=0 time=13
note_on channel=0 note=81 velocity=53 time=3
note_on channel=0 note=86 velocity=41 time=27
note_on channel=0 note=81 velocity=0 time=123
note_on channel=0 note=57 velocity=79 time=96
note_on channel=0 note=55 velocity=66 time=1
note_on channel=0 note=48 velocity=69 time=2
note_on channel=0 note=86 velocity=0 time=50
note_on channel=0 note=88 velocity=0 time=13
note_on channel=0 note=81 velocity=69 time=97
note_on channel=0 note=86 velocity=51 time=0
note_on channel=0 note=88 velocity=59 time=0
note_on channel=0 note=57 velocity=0 time=60
note_on channel=0 note=81 velocity=0 time=50
note_on channel=0 note=86 velocity=0 time=25
note_on channel=0 note=55 velocity=0 time=21
note_on channel=0 note=81 velocity=66 time=14
note_on channel=0 note=86 velocity=57 time=22
note_on channel=0 note=48 velocity=0 time=23
note_on channel=0 note=86 velocity=0 time=46
note_on channel=0 note=88 velocity=0 time=20
note_on channel=0 note=81 velocity=0 time=32
note_on channel=0 note=59 velocity=79 time=14
note_on channel=0 note=48 velocity=57 time=8
note_on channel=0 note=55 velocity=72 time=0
note_on channel=0 note=76 velocity=82 time=142
note_on channel=0 note=88 velocity=81 time=1
note_on channel=0 note=59 velocity=0 time=13
note_on channel=0 note=88 velocity=0 time=103
note_on channel=0 note=76 velocity=0 time=9
note_on channel=0 note=55 velocity=0 time=33
note_on channel=0 note=76 velocity=40 time=3
note_on channel=0 note=48 velocity=0 time=5
note_on channel=0 note=83 velocity=65 time=3
note_on channel=0 note=81 velocity=42 time=36
note_on channel=0 note=76 velocity=0 time=114
note_on channel=0 note=76 velocity=61 time=68
note_on channel=0 note=81 velocity=0 time=68
note_on channel=0 note=83 velocity=0 time=3
note_on channel=0 note=48 velocity=39 time=43
note_on channel=0 note=76 velocity=0 time=11
note_on channel=0 note=55 velocity=23 time=11
note_on channel=0 note=64 velocity=47 time=26
note_on channel=0 note=64 velocity=0 time=170
note_on channel=0 note=72 velocity=63 time=0
note_on channel=0 note=84 velocity=66 time=9
note_on channel=0 note=55 velocity=0 time=82
note_on channel=0 note=48 velocity=0 time=35
note_on channel=0 note=72 velocity=0 time=13
note_on channel=0 note=79 velocity=48 time=28
note_on channel=0 note=72 velocity=45 time=21
note_on channel=0 note=84 velocity=0 time=29
note_on channel=0 note=59 velocity=75 time=10
note_on channel=0 note=48 velocity=60 time=3
note_on channel=0 note=55 velocity=61 time=4
note_on channel=0 note=72 velocity=0 time=15
note_on channel=0 note=79 velocity=0 time=64
note_on channel=0 note=59 velocity=0 time=43
note_on channel=0 note=72 velocity=63 time=42
note_on channel=0 note=77 velocity=44 time=37
note_on channel=0 note=55 velocity=0 time=21
note_on channel=0 note=48 velocity=0 time=23
note_on channel=0 note=77 velocity=0 time=27
note_on channel=0 note=72 velocity=0 time=5
note_on channel=0 note=77 velocity=58 time=51
note_on channel=0 note=72 velocity=43 time=2
note_on channel=0 note=72 velocity=0 time=109
note_on channel=0 note=60 velocity=66 time=13
note_on channel=0 note=55 velocity=63 time=4
note_on channel=0 note=48 velocity=55 time=20
note_on channel=0 note=77 velocity=0 time=41
note_on channel=0 note=79 velocity=61 time=67
note_on channel=0 note=72 velocity=66 time=1
note_on channel=0 note=60 velocity=0 time=12
note_on channel=0 note=77 velocity=49 time=2
note_on channel=0 note=77 velocity=0 time=64
note_on channel=0 note=72 velocity=0 time=19
note_on channel=0 note=55 velocity=0 time=3
note_on channel=0 note=79 velocity=0 time=6
note_on channel=0 note=48 velocity=0 time=9
note_on channel=0 note=72 velocity=48 time=66
note_on channel=0 note=84 velocity=56 time=17
note_on channel=0 note=79 velocity=38 time=5
note_on channel=0 note=84 velocity=0 time=104
note_on channel=0 note=62 velocity=49 time=25
note_on channel=0 note=72 velocity=0 time=11
note_on channel=0 note=55 velocity=50 time=33
note_on channel=0 note=48 velocity=50 time=9
note_on channel=0 note=79 velocity=0 time=30
note_on channel=0 note=72 velocity=57 time=61
note_on channel=0 note=62 velocity=0 time=2
note_on channel=0 note=77 velocity=44 time=21
note_on channel=0 note=79 velocity=52 time=3
note_on channel=0 note=55 velocity=0 time=56
note_on channel=0 note=48 velocity=0 time=18
note_on channel=0 note=72 velocity=0 time=45
note_on channel=0 note=79 velocity=0 time=21
note_on channel=0 note=59 velocity=61 time=53
note_on channel=0 note=77 velocity=0 time=5
note_on channel=0 note=55 velocity=34 time=2
note_on channel=0 note=48 velocity=56 time=8
note_on channel=0 note=59 velocity=0 time=92
note_on channel=0 note=72 velocity=66 time=41
note_on channel=0 note=79 velocity=57 time=17
note_on channel=0 note=77 velocity=47 time=8
note_on channel=0 note=48 velocity=0 time=1
note_on channel=0 note=55 velocity=0 time=24
note_on channel=0 note=59 velocity=66 time=82
note_on channel=0 note=48 velocity=48 time=5
note_on channel=0 note=77 velocity=0 time=2
note_on channel=0 note=79 velocity=0 time=0
note_on channel=0 note=72 velocity=0 time=4
note_on channel=0 note=55 velocity=31 time=33
note_on channel=0 note=59 velocity=0 time=51
note_on channel=0 note=74 velocity=65 time=53
note_on channel=0 note=55 velocity=0 time=12
note_on channel=0 note=71 velocity=58 time=8
note_on channel=0 note=81 velocity=57 time=18
note_on channel=0 note=74 velocity=0 time=37
note_on channel=0 note=60 velocity=60 time=19
note_on channel=0 note=55 velocity=50 time=9
note_on channel=0 note=71 velocity=0 time=33
note_on channel=0 note=81 velocity=0 time=33
note_on channel=0 note=60 velocity=0 time=16
note_on channel=0 note=81 velocity=61 time=64
note_on channel=0 note=71 velocity=66 time=5
note_on channel=0 note=48 velocity=0 time=5
note_on channel=0 note=55 velocity=0 time=27
note_on channel=0 note=48 velocity=41 time=79
note_on channel=0 note=62 velocity=75 time=5
note_on channel=0 note=55 velocity=44 time=17
note_on channel=0 note=71 velocity=0 time=5
note_on channel=0 note=81 velocity=0 time=17
note_on channel=0 note=55 velocity=0 time=60
note_on channel=0 note=62 velocity=0 time=28
note_on channel=0 note=83 velocity=84 time=34
note_on channel=0 note=69 velocity=63 time=4
note_on channel=0 note=71 velocity=69 time=1
note_on channel=0 note=48 velocity=0 time=68
note_on channel=0 note=83 velocity=0 time=77
note_on channel=0 note=71 velocity=0 time=39
note_on channel=0 note=69 velocity=0 time=7
note_on channel=0 note=59 velocity=61 time=27
note_on channel=0 note=48 velocity=56 time=26
note_on channel=0 note=59 velocity=0 time=81
note_on channel=0 note=69 velocity=65 time=72
note_on channel=0 note=74 velocity=57 time=14
note_on channel=0 note=48 velocity=0 time=23
note_on channel=0 note=48 velocity=50 time=109
note_on channel=0 note=69 velocity=0 time=10
note_on channel=0 note=74 velocity=0 time=78
note_on channel=0 note=71 velocity=69 time=89
note_on channel=0 note=83 velocity=58 time=17
note_on channel=0 note=81 velocity=57 time=5
note_on channel=0 note=81 velocity=0 time=67
note_on channel=0 note=83 velocity=0 time=5
note_on channel=0 note=55 velocity=56 time=41
note_on channel=0 note=71 velocity=0 time=14
note_on channel=0 note=48 velocity=0 time=20
note_on channel=0 note=62 velocity=49 time=3
note_on channel=0 note=62 velocity=0 time=97
note_on channel=0 note=67 velocity=48 time=23
note_on channel=0 note=74 velocity=57 time=1
note_on channel=0 note=69 velocity=50 time=17
note_on channel=0 note=55 velocity=0 time=3
note_on channel=0 note=69 velocity=0 time=60
note_on channel=0 note=48 velocity=41 time=34
note_on channel=0 note=67 velocity=0 time=19
note_on channel=0 note=57 velocity=49 time=52
note_on channel=0 note=74 velocity=0 time=29
note_on channel=0 note=57 velocity=0 time=32
note_on channel=0 note=67 velocity=75 time=41
note_on channel=0 note=79 velocity=75 time=6
note_on channel=0 note=55 velocity=60 time=132
note_on channel=0 note=79 velocity=0 time=1
note_on channel=0 note=67 velocity=0 time=53
note_on channel=0 note=48 velocity=0 time=4
note_on channel=0 note=71 velocity=41 time=114
note_on channel=0 note=65 velocity=42 time=52
note_on channel=0 note=55 velocity=0 time=49
note_on channel=0 note=60 velocity=53 time=20
note_on channel=0 note=65 velocity=0 time=79
note_on channel=0 note=71 velocity=0 time=32
note_on channel=0 note=60 velocity=0 time=16
note_on channel=0 note=55 velocity=48 time=67
note_on channel=0 note=65 velocity=75 time=15
note_on channel=0 note=76 velocity=78 time=0
note_on channel=0 note=55 velocity=0 time=119
note_on channel=0 note=76 velocity=0 time=8
note_on channel=0 note=65 velocity=0 time=10
note_on channel=0 note=48 velocity=57 time=4
note_on channel=0 note=62 velocity=45 time=126
note_on channel=0 note=62 velocity=0 time=104
note_on channel=0 note=69 velocity=58 time=49
note_on channel=0 note=62 velocity=57 time=12
note_on channel=0 note=55 velocity=55 time=59
note_on channel=0 note=48 velocity=0 time=12
note_on channel=0 note=62 velocity=0 time=40
note_on channel=0 note=69 velocity=0 time=96
note_on channel=0 note=59 velocity=33 time=10
note_on channel=0 note=57 velocity=43 time=4
note_on channel=0 note=55 velocity=0 time=25
note_on channel=0 note=64 velocity=72 time=41
note_on channel=0 note=57 velocity=0 time=4
note_on channel=0 note=76 velocity=75 time=0
note_on channel=0 note=59 velocity=0 time=10
note_on channel=0 note=74 velocity=38 time=36
note_on channel=0 note=48 velocity=61 time=24
note_on channel=0 note=74 velocity=0 time=25
note_on channel=0 note=64 velocity=0 time=18
note_on channel=0 note=76 velocity=0 time=28
note_on channel=0 note=60 velocity=61 time=67
note_on channel=0 note=65 velocity=60 time=84
note_on channel=0 note=71 velocity=54 time=8
note_on channel=0 note=60 velocity=0 time=34
note_on channel=0 note=77 velocity=46 time=1
note_on channel=0 note=76 velocity=48 time=9
note_on channel=0 note=55 velocity=60 time=59
note_on channel=0 note=76 velocity=0 time=5
note_on channel=0 note=48 velocity=0 time=4
note_on channel=0 note=77 velocity=0 time=6
note_on channel=0 note=65 velocity=0 time=51
note_on channel=0 note=71 velocity=0 time=32
note_on channel=0 note=62 velocity=47 time=62
note_on channel=0 note=55 velocity=0 time=79
note_on channel=0 note=65 velocity=39 time=24
note_on channel=0 note=62 velocity=0 time=16
note_on channel=0 note=71 velocity=39 time=35
note_on channel=0 note=77 velocity=48 time=24
note_on channel=0 note=48 velocity=57 time=43
note_on channel=0 note=77 velocity=0 time=21
note_on channel=0 note=65 velocity=0 time=1
note_on channel=0 note=71 velocity=0 time=6
note_on channel=0 note=65 velocity=72 time=136
note_on channel=0 note=77 velocity=69 time=8
note_on channel=0 note=71 velocity=65 time=1
note_on channel=0 note=77 velocity=0 time=105
note_on channel=0 note=64 velocity=61 time=27
note_on channel=0 note=65 velocity=0 time=4
note_on channel=0 note=71 velocity=0 time=14
note_on channel=0 note=48 velocity=0 time=101
note_on channel=0 note=64 velocity=0 time=9
note_on channel=0 note=76 velocity=69 time=51
note_on channel=0 note=64 velocity=72 time=2
note_on channel=0 note=70 velocity=57 time=0
note_on channel=0 note=69 velocity=43 time=13
note_on channel=0 note=71 velocity=50 time=12
note_on channel=0 note=55 velocity=57 time=46
note_on channel=0 note=70 velocity=0 time=4
note_on channel=0 note=71 velocity=0 time=2
note_on channel=0 note=69 velocity=0 time=15
note_on channel=0 note=64 velocity=0 time=6
note_on channel=0 note=76 velocity=0 time=20
note_on channel=0 note=60 velocity=60 time=110
note_on channel=0 note=48 velocity=56 time=30
note_on channel=0 note=55 velocity=0 time=25
note_on channel=0 note=79 velocity=84 time=77
note_on channel=0 note=60 velocity=0 time=2
note_on channel=0 note=67 velocity=82 time=3
note_on channel=0 note=67 velocity=0 time=96
note_on channel=0 note=79 velocity=0 time=17
note_on channel=0 note=55 velocity=50 time=45
note_on channel=0 note=64 velocity=48 time=27
note_on channel=0 note=48 velocity=0 time=31
note_on channel=0 note=55 velocity=0 time=52
note_on channel=0 note=64 velocity=0 time=39
note_on channel=0 note=71 velocity=75 time=48
note_on channel=0 note=64 velocity=72 time=5
note_on channel=0 note=55 velocity=51 time=61
note_on channel=0 note=64 velocity=0 time=39
note_on channel=0 note=71 velocity=0 time=23
note_on channel=0 note=60 velocity=57 time=22
note_on channel=0 note=55 velocity=0 time=88
note_on channel=0 note=48 velocity=60 time=66
note_on channel=0 note=60 velocity=0 time=17
note_on channel=0 note=69 velocity=78 time=37
note_on channel=0 note=81 velocity=82 time=4
note_on channel=0 note=79 velocity=42 time=38
note_on channel=0 note=81 velocity=0 time=4
note_on channel=0 note=69 velocity=0 time=35
note_on channel=0 note=79 velocity=0 time=17
note_on channel=0 note=64 velocity=52 time=69
note_on channel=0 note=48 velocity=0 time=37
note_on channel=0 note=64 velocity=0 time=92
note_on channel=0 note=55 velocity=60 time=74
note_on channel=0 note=64 velocity=53 time=31
note_on channel=0 note=71 velocity=65 time=2
note_on channel=0 note=64 velocity=0 time=90
note_on channel=0 note=60 velocity=61 time=47
note_on channel=0 note=71 velocity=0 time=9
note_on channel=0 note=55 velocity=0 time=62
note_on channel=0 note=48 velocity=65 time=93
note_on channel=0 note=60 velocity=0 time=28
note_on channel=0 note=50 velocity=37 time=14
note_on channel=0 note=50 velocity=0 time=89
note_on channel=0 note=69 velocity=84 time=35
note_on channel=0 note=81 velocity=87 time=1
note_on channel=0 note=48 velocity=0 time=32
note_on channel=0 note=81 velocity=0 time=17
note_on channel=0 note=69 velocity=0 time=22
note_on channel=0 note=64 velocity=51 time=115
note_on channel=0 note=65 velocity=41 time=7
note_on channel=0 note=65 velocity=0 time=67
note_on channel=0 note=64 velocity=0 time=34
note_on channel=0 note=55 velocity=52 time=71
note_on channel=0 note=72 velocity=58 time=91
note_on channel=0 note=64 velocity=43 time=31
note_on channel=0 note=65 velocity=40 time=10
note_on channel=0 note=64 velocity=0 time=74
note_on channel=0 note=65 velocity=0 time=11
note_on channel=0 note=72 velocity=0 time=13
note_on channel=0 note=60 velocity=56 time=11
note_on channel=0 note=55 velocity=0 time=11
note_on channel=0 note=60 velocity=0 time=131
note_on channel=0 note=55 velocity=53 time=11
note_on channel=0 note=64 velocity=69 time=72
note_on channel=0 note=76 velocity=78 time=1
note_on channel=0 note=64 velocity=0 time=89
note_on channel=0 note=76 velocity=0 time=3
note_on channel=0 note=48 velocity=63 time=5
note_on channel=0 note=55 velocity=0 time=12
note_on channel=0 note=64 velocity=61 time=159
note_on channel=0 note=74 velocity=75 time=2
note_on channel=0 note=74 velocity=0 time=91
note_on channel=0 note=64 velocity=0 time=15
note_on channel=0 note=60 velocity=58 time=13
note_on channel=0 note=48 velocity=0 time=134
note_on channel=0 note=55 velocity=55 time=6
note_on channel=0 note=60 velocity=0 time=1
note_on channel=0 note=69 velocity=58 time=28
note_on channel=0 note=62 velocity=52 time=13
note_on channel=0 note=62 velocity=0 time=70
note_on channel=0 note=69 velocity=0 time=30
note_on channel=0 note=55 velocity=0 time=51
note_on channel=0 note=48 velocity=57 time=4
note_on channel=0 note=65 velocity=69 time=178
note_on channel=0 note=59 velocity=57 time=16
note_on channel=0 note=48 velocity=0 time=25
note_on channel=0 note=59 velocity=0 time=23
note_on channel=0 note=65 velocity=0 time=25
note_on channel=0 note=60 velocity=55 time=36
note_on channel=0 note=55 velocity=56 time=101
note_on channel=0 note=60 velocity=0 time=27
note_on channel=0 note=64 velocity=79 time=111
note_on channel=0 note=74 velocity=84 time=3
note_on channel=0 note=74 velocity=0 time=54
note_on channel=0 note=48 velocity=55 time=2
note_on channel=0 note=64 velocity=0 time=38
note_on channel=0 note=55 velocity=0 time=3
note_on channel=0 note=60 velocity=57 time=91
note_on channel=0 note=65 velocity=72 time=148
note_on channel=0 note=55 velocity=57 time=6
note_on channel=0 note=59 velocity=65 time=3
note_on channel=0 note=60 velocity=0 time=0
note_on channel=0 note=48 velocity=0 time=4
note_on channel=0 note=59 velocity=0 time=94
note_on channel=0 note=65 velocity=0 time=1
note_on channel=0 note=60 velocity=61 time=94
note_on channel=0 note=48 velocity=58 time=3
note_on channel=0 note=55 velocity=0 time=9
note_on channel=0 note=60 velocity=0 time=114
note_on channel=0 note=64 velocity=58 time=20
note_on channel=0 note=57 velocity=63 time=1
note_on channel=0 note=63 velocity=50 time=10
note_on channel=0 note=62 velocity=53 time=13
note_on channel=0 note=57 velocity=0 time=26
note_on channel=0 note=48 velocity=0 time=6
note_on channel=0 note=63 velocity=0 time=5
note_on channel=0 note=62 velocity=0 time=18
note_on channel=0 note=64 velocity=0 time=5
note_on channel=0 note=55 velocity=57 time=28
note_on channel=0 note=60 velocity=51 time=169
note_on channel=0 note=71 velocity=72 time=47
note_on channel=0 note=55 velocity=0 time=25
note_on channel=0 note=71 velocity=0 time=38
note_on channel=0 note=60 velocity=0 time=22
note_on channel=0 note=48 velocity=60 time=80
note_on channel=0 note=65 velocity=78 time=221
note_on channel=0 note=57 velocity=75 time=1
note_on channel=0 note=57 velocity=0 time=86
note_on channel=0 note=65 velocity=0 time=0
note_on channel=0 note=48 velocity=0 time=1
note_on channel=0 note=60 velocity=49 time=115
note_on channel=0 note=55 velocity=56 time=106
note_on channel=0 note=60 velocity=0 time=44
note_on channel=0 note=62 velocity=79 time=133
note_on channel=0 note=55 velocity=0 time=79
note_on channel=0 note=62 velocity=0 time=8
note_on channel=0 note=48 velocity=56 time=143
note_on channel=0 note=64 velocity=79 time=428
note_on channel=0 note=57 velocity=79 time=1
note_on channel=0 note=48 velocity=0 time=69
note_on channel=0 note=57 velocity=0 time=19
note_on channel=0 note=64 velocity=0 time=14
note_on channel=0 note=55 velocity=42 time=19
note_on channel=0 note=48 velocity=56 time=214
note_on channel=0 note=55 velocity=0 time=59
note_on channel=0 note=55 velocity=50 time=151
note_on channel=0 note=48 velocity=0 time=52
note_on channel=0 note=60 velocity=79 time=30
note_on channel=0 note=71 velocity=75 time=4
note_on channel=0 note=71 velocity=0 time=40
note_on channel=0 note=60 velocity=0 time=9
note_on channel=0 note=55 velocity=0 time=5
note_on channel=0 note=55 velocity=44 time=105
note_on channel=0 note=48 velocity=60 time=171
note_on channel=0 note=55 velocity=0 time=67
note_on channel=0 note=62 velocity=79 time=76
note_on channel=0 note=57 velocity=72 time=3
note_on channel=0 note=62 velocity=0 time=63
note_on channel=0 note=57 velocity=0 time=29
note_on channel=0 note=55 velocity=58 time=55
note_on channel=0 note=48 velocity=0 time=20
note_on channel=0 note=48 velocity=43 time=126
note_on channel=0 note=55 velocity=0 time=6
note_on channel=0 note=55 velocity=66 time=61
note_on channel=0 note=59 velocity=57 time=13
note_on channel=0 note=60 velocity=60 time=1
note_on channel=0 note=48 velocity=0 time=33
note_on channel=0 note=60 velocity=0 time=10
note_on channel=0 note=59 velocity=0 time=1
note_on channel=0 note=55 velocity=0 time=13
note_on channel=0 note=48 velocity=61 time=140
note_on channel=0 note=57 velocity=82 time=190
note_on channel=0 note=62 velocity=85 time=4
note_on channel=0 note=48 velocity=0 time=48
note_on channel=0 note=57 velocity=0 time=21
note_on channel=0 note=62 velocity=0 time=9
note_on channel=0 note=55 velocity=60 time=158
note_on channel=0 note=48 velocity=61 time=129
note_on channel=0 note=55 velocity=0 time=32
note_on channel=0 note=62 velocity=85 time=53
note_on channel=0 note=71 velocity=84 time=6
note_on channel=0 note=72 velocity=47 time=29
note_on channel=0 note=71 velocity=0 time=33
note_on channel=0 note=62 velocity=0 time=12
note_on channel=0 note=72 velocity=0 time=26
note_on channel=0 note=55 velocity=57 time=94
note_on channel=0 note=48 velocity=0 time=11
note_on channel=0 note=64 velocity=82 time=231
note_on channel=0 note=55 velocity=0 time=11
note_on channel=0 note=57 velocity=55 time=7
note_on channel=0 note=59 velocity=63 time=4
note_on channel=0 note=59 velocity=0 time=49
note_on channel=0 note=48 velocity=36 time=14
note_on channel=0 note=57 velocity=0 time=20
note_on channel=0 note=64 velocity=0 time=9
note_on channel=0 note=48 velocity=0 time=92
note_on channel=0 note=55 velocity=53 time=19
note_on channel=0 note=60 velocity=82 time=128
note_on channel=0 note=55 velocity=0 time=92
note_on channel=0 note=60 velocity=0 time=3
note_on channel=0 note=48 velocity=57 time=34
note_on channel=0 note=57 velocity=82 time=226
note_on channel=0 note=62 velocity=89 time=1
note_on channel=0 note=55 velocity=60 time=40
note_on channel=0 note=48 velocity=0 time=19
note_on channel=0 note=57 velocity=0 time=14
note_on channel=0 note=62 velocity=0 time=22
note_on channel=0 note=48 velocity=61 time=127
note_on channel=0 note=55 velocity=0 time=33
note_on channel=0 note=71 velocity=87 time=136
note_on channel=0 note=60 velocity=82 time=6
note_on channel=0 note=71 velocity=0 time=69
note_on channel=0 note=60 velocity=0 time=3
note_on channel=0 note=48 velocity=0 time=5
note_on channel=0 note=55 velocity=48 time=70
note_on channel=0 note=65 velocity=82 time=183
note_on channel=0 note=59 velocity=72 time=13
note_on channel=0 note=59 velocity=0 time=69
note_on channel=0 note=48 velocity=53 time=14
note_on channel=0 note=55 velocity=0 time=12
note_on channel=0 note=65 velocity=0 time=4
note_on channel=0 note=48 velocity=0 time=205
note_on channel=0 note=55 velocity=66 time=25
note_on channel=0 note=60 velocity=72 time=19
note_on channel=0 note=57 velocity=61 time=4
note_on channel=0 note=62 velocity=60 time=1
note_on channel=0 note=57 velocity=0 time=43
note_on channel=0 note=62 velocity=0 time=38
note_on channel=0 note=60 velocity=0 time=14
note_on channel=0 note=55 velocity=0 time=115
note_on channel=0 note=57 velocity=82 time=131
note_on channel=0 note=48 velocity=69 time=1
note_on channel=0 note=64 velocity=85 time=1
note_on channel=0 note=62 velocity=66 time=14
note_on channel=0 note=59 velocity=51 time=16
note_on channel=0 note=59 velocity=0 time=63
note_on channel=0 note=62 velocity=0 time=74
note_on channel=0 note=57 velocity=0 time=30
note_on channel=0 note=55 velocity=51 time=49
note_on channel=0 note=64 velocity=0 time=26
note_on channel=0 note=48 velocity=0 time=41
note_on channel=0 note=71 velocity=91 time=117
note_on channel=0 note=60 velocity=89 time=3
note_on channel=0 note=55 velocity=0 time=49
note_on channel=0 note=71 velocity=0 time=40
note_on channel=0 note=60 velocity=0 time=30
note_on channel=0 note=48 velocity=57 time=3
note_on channel=0 note=55 velocity=55 time=171
note_on channel=0 note=48 velocity=0 time=56
note_on channel=0 note=62 velocity=72 time=79
note_on channel=0 note=55 velocity=0 time=95
note_on channel=0 note=62 velocity=0 time=18
note_on channel=0 note=48 velocity=66 time=7
note_on channel=0 note=67 velocity=87 time=238
note_on channel=0 note=57 velocity=82 time=1
note_on channel=0 note=59 velocity=47 time=38
note_on channel=0 note=48 velocity=0 time=17
note_on channel=0 note=59 velocity=0 time=55
note_on channel=0 note=57 velocity=0 time=34
note_on channel=0 note=67 velocity=0 time=20
note_on channel=0 note=55 velocity=50 time=73
note_on channel=0 note=48 velocity=56 time=132
note_on channel=0 note=55 velocity=0 time=67
note_on channel=0 note=57 velocity=79 time=247
note_on channel=0 note=59 velocity=60 time=8
note_on channel=0 note=48 velocity=0 time=21
note_on channel=0 note=59 velocity=0 time=24
note_on channel=0 note=55 velocity=61 time=16
note_on channel=0 note=57 velocity=0 time=71
note_on channel=0 note=48 velocity=43 time=181
note_on channel=0 note=55 velocity=0 time=2
note_on channel=0 note=48 velocity=0 time=169
note_on channel=0 note=55 velocity=42 time=68
note_on channel=0 note=48 velocity=48 time=131
note_on channel=0 note=55 velocity=0 time=5
note_on channel=0 note=55 velocity=52 time=151
note_on channel=0 note=48 velocity=0 time=9
note_on channel=0 note=48 velocity=46 time=108
note_on channel=0 note=55 velocity=0 time=22
note_on channel=0 note=55 velocity=47 time=99
note_on channel=0 note=48 velocity=0 time=29
note_on channel=0 note=48 velocity=53 time=147
note_on channel=0 note=55 velocity=0 time=118
note_on channel=0 note=55 velocity=45 time=90
note_on channel=0 note=48 velocity=0 time=5
note_on channel=0 note=48 velocity=47 time=190
note_on channel=0 note=55 velocity=0 time=169
note_on channel=0 note=48 velocity=0 time=33
note_on channel=0 note=60 velocity=50 time=1
note_on channel=0 note=60 velocity=0 time=84
note_on channel=0 note=55 velocity=45 time=81
note_on channel=0 note=55 velocity=0 time=157
note_on channel=0 note=64 velocity=42 time=10
note_on channel=0 note=67 velocity=45 time=21
note_on channel=0 note=64 velocity=0 time=77
note_on channel=0 note=55 velocity=43 time=4
note_on channel=0 note=60 velocity=35 time=22
note_on channel=0 note=48 velocity=41 time=10
note_on channel=0 note=67 velocity=0 time=29
note_on channel=0 note=48 velocity=0 time=57
note_on channel=0 note=60 velocity=0 time=9
note_on channel=0 note=67 velocity=51 time=36
note_on channel=0 note=64 velocity=55 time=5
note_on channel=0 note=74 velocity=58 time=1
note_on channel=0 note=55 velocity=0 time=25
note_on channel=0 note=64 velocity=0 time=83
note_on channel=0 note=67 velocity=0 time=6
note_on channel=0 note=74 velocity=0 time=2
note_on channel=0 note=60 velocity=51 time=52
note_on channel=0 note=60 velocity=0 time=93
note_on channel=0 note=64 velocity=38 time=139
note_on channel=0 note=67 velocity=37 time=10
note_on channel=0 note=64 velocity=0 time=80
note_on channel=0 note=67 velocity=0 time=12
note_on channel=0 note=60 velocity=45 time=103
note_on channel=0 note=60 velocity=0 time=70
note_on channel=0 note=64 velocity=39 time=84
note_on channel=0 note=67 velocity=37 time=27
note_on channel=0 note=64 velocity=0 time=53
note_on channel=0 note=67 velocity=0 time=32
note_on channel=0 note=60 velocity=47 time=13
note_on channel=0 note=60 velocity=0 time=58
note_on channel=0 note=64 velocity=45 time=83
note_on channel=0 note=67 velocity=40 time=9
note_on channel=0 note=64 velocity=0 time=61
note_on channel=0 note=67 velocity=0 time=17
note_on channel=0 note=60 velocity=58 time=16
note_on channel=0 note=60 velocity=0 time=58
note_on channel=0 note=64 velocity=53 time=83
note_on channel=0 note=67 velocity=57 time=0
note_on channel=0 note=64 velocity=0 time=71
note_on channel=0 note=60 velocity=63 time=8
note_on channel=0 note=67 velocity=0 time=40
note_on channel=0 note=60 velocity=0 time=42
note_on channel=0 note=67 velocity=53 time=51
note_on channel=0 note=64 velocity=61 time=8
note_on channel=0 note=60 velocity=65 time=68
note_on channel=0 note=64 velocity=0 time=54
note_on channel=0 note=60 velocity=0 time=45
note_on channel=0 note=64 velocity=55 time=74
note_on channel=0 note=76 velocity=61 time=13
note_on channel=0 note=64 velocity=0 time=73
note_on channel=0 note=67 velocity=0 time=23
note_on channel=0 note=76 velocity=0 time=101
note_on channel=0 note=63 velocity=45 time=44
note_on channel=0 note=63 velocity=0 time=75
note_on channel=0 note=61 velocity=39 time=314
note_on channel=0 note=64 velocity=31 time=41
note_on channel=0 note=61 velocity=0 time=55
note_on channel=0 note=64 velocity=0 time=13
note_on channel=0 note=76 velocity=50 time=36
note_on channel=0 note=67 velocity=46 time=12
note_on channel=0 note=67 velocity=0 time=74
note_on channel=0 note=76 velocity=0 time=36
note_on channel=0 note=61 velocity=47 time=1
note_on channel=0 note=64 velocity=47 time=18
note_on channel=0 note=64 velocity=0 time=68
note_on channel=0 note=61 velocity=0 time=2
note_on channel=0 note=76 velocity=54 time=27
note_on channel=0 note=67 velocity=60 time=5
note_on channel=0 note=76 velocity=0 time=114
note_on channel=0 note=67 velocity=0 time=4
note_on channel=0 note=61 velocity=59 time=1
note_on channel=0 note=64 velocity=52 time=9
note_on channel=0 note=64 velocity=0 time=92
note_on channel=0 note=61 velocity=0 time=19
note_on channel=0 note=76 velocity=60 time=5
note_on channel=0 note=67 velocity=56 time=4
note_on channel=0 note=76 velocity=0 time=107
note_on channel=0 note=67 velocity=0 time=4
note_on channel=0 note=61 velocity=57 time=14
note_on channel=0 note=64 velocity=57 time=4
note_on channel=0 note=64 velocity=0 time=81
note_on channel=0 note=76 velocity=58 time=13
note_on channel=0 note=67 velocity=57 time=1
note_on channel=0 note=61 velocity=0 time=20
note_on channel=0 note=61 velocity=64 time=68
note_on channel=0 note=67 velocity=0 time=15
note_on channel=0 note=64 velocity=55 time=6
note_on channel=0 note=76 velocity=0 time=26
note_on channel=0 note=64 velocity=0 time=86
note_on channel=0 note=67 velocity=65 time=7
note_on channel=0 note=76 velocity=50 time=5
note_on channel=0 note=63 velocity=55 time=99
note_on channel=0 note=55 velocity=43 time=7
note_on channel=0 note=57 velocity=44 time=10
note_on channel=0 note=67 velocity=0 time=22
note_on channel=0 note=76 velocity=0 time=4
control_change channel=0 control=64 value=0 time=36
note_on channel=0 note=67 velocity=54 time=48
note_on channel=0 note=76 velocity=50 time=7
note_on channel=0 note=57 velocity=0 time=12
control_change channel=0 control=64 value=127 time=15
note_on channel=0 note=68 velocity=57 time=12
note_on channel=0 note=55 velocity=0 time=25
note_on channel=0 note=61 velocity=0 time=3
note_on channel=0 note=63 velocity=0 time=45
note_on channel=0 note=67 velocity=0 time=30
note_on channel=0 note=55 velocity=51 time=5
note_on channel=0 note=65 velocity=48 time=1
note_on channel=0 note=61 velocity=51 time=4
note_on channel=0 note=63 velocity=35 time=3
note_on channel=0 note=76 velocity=0 time=9
note_on channel=0 note=68 velocity=0 time=4
note_on channel=0 note=65 velocity=0 time=70
note_on channel=0 note=55 velocity=0 time=27
note_on channel=0 note=63 velocity=0 time=5
note_on channel=0 note=76 velocity=48 time=3
note_on channel=0 note=67 velocity=60 time=3
note_on channel=0 note=61 velocity=0 time=11
note_on channel=0 note=68 velocity=34 time=21
note_on channel=0 note=68 velocity=0 time=70
note_on channel=0 note=67 velocity=0 time=10
note_on channel=0 note=76 velocity=0 time=27
note_on channel=0 note=65 velocity=43 time=3
note_on channel=0 note=63 velocity=52 time=7
note_on channel=0 note=61 velocity=48 time=9
note_on channel=0 note=55 velocity=30 time=49
note_on channel=0 note=61 velocity=0 time=12
note_on channel=0 note=65 velocity=0 time=8
note_on channel=0 note=63 velocity=0 time=16
note_on channel=0 note=55 velocity=0 time=14
note_on channel=0 note=67 velocity=54 time=25
note_on channel=0 note=68 velocity=39 time=19
note_on channel=0 note=76 velocity=42 time=2
note_on channel=0 note=67 velocity=0 time=62
note_on channel=0 note=76 velocity=0 time=17
note_on channel=0 note=68 velocity=0 time=1
note_on channel=0 note=65 velocity=48 time=76
note_on channel=0 note=61 velocity=39 time=21
note_on channel=0 note=63 velocity=41 time=15
note_on channel=0 note=65 velocity=0 time=26
note_on channel=0 note=63 velocity=0 time=38
note_on channel=0 note=61 velocity=0 time=1
note_on channel=0 note=68 velocity=51 time=1
note_on channel=0 note=76 velocity=56 time=5
note_on channel=0 note=67 velocity=49 time=10
note_on channel=0 note=67 velocity=0 time=51
note_on channel=0 note=68 velocity=0 time=17
note_on channel=0 note=61 velocity=35 time=34
note_on channel=0 note=76 velocity=0 time=2
note_on channel=0 note=67 velocity=52 time=34
note_on channel=0 note=55 velocity=46 time=7
note_on channel=0 note=63 velocity=42 time=42
note_on channel=0 note=67 velocity=0 time=97
note_on channel=0 note=76 velocity=57 time=12
note_on channel=0 note=70 velocity=66 time=14
note_on channel=0 note=61 velocity=0 time=10
control_change channel=0 control=64 value=0 time=5
note_on channel=0 note=63 velocity=0 time=5
note_on channel=0 note=69 velocity=49 time=18
note_on channel=0 note=63 velocity=50 time=78
note_on channel=0 note=69 velocity=0 time=2
control_change channel=0 control=64 value=127 time=12
note_on channel=0 note=67 velocity=63 time=1
note_on channel=0 note=61 velocity=49 time=33
note_on channel=0 note=76 velocity=0 time=13
note_on channel=0 note=70 velocity=0 time=20
note_on channel=0 note=67 velocity=0 time=23
note_on channel=0 note=69 velocity=61 time=52
note_on channel=0 note=76 velocity=51 time=1
note_on channel=0 note=61 velocity=0 time=8
note_on channel=0 note=55 velocity=0 time=2
note_on channel=0 note=70 velocity=52 time=12
note_on channel=0 note=63 velocity=0 time=7
note_on channel=0 note=70 velocity=0 time=50
note_on channel=0 note=69 velocity=0 time=28
note_on channel=0 note=55 velocity=46 time=19
note_on channel=0 note=76 velocity=0 time=17
note_on channel=0 note=63 velocity=51 time=12
note_on channel=0 note=67 velocity=53 time=10
note_on channel=0 note=61 velocity=57 time=3
note_on channel=0 note=55 velocity=0 time=35
note_on channel=0 note=67 velocity=0 time=24
note_on channel=0 note=70 velocity=66 time=50
note_on channel=0 note=61 velocity=0 time=4
note_on channel=0 note=76 velocity=60 time=3
note_on channel=0 note=69 velocity=61 time=1
note_on channel=0 note=63 velocity=0 time=19
note_on channel=0 note=69 velocity=0 time=42
note_on channel=0 note=76 velocity=0 time=59
note_on channel=0 note=70 velocity=0 time=8
note_on channel=0 note=55 velocity=39 time=3
note_on channel=0 note=63 velocity=46 time=3
note_on channel=0 note=67 velocity=65 time=6
note_on channel=0 note=61 velocity=48 time=14
note_on channel=0 note=67 velocity=0 time=37
note_on channel=0 note=61 velocity=0 time=30
note_on channel=0 note=63 velocity=0 time=34
note_on channel=0 note=55 velocity=0 time=1
note_on channel=0 note=69 velocity=54 time=16
note_on channel=0 note=76 velocity=49 time=4
note_on channel=0 note=70 velocity=64 time=10
note_on channel=0 note=63 velocity=41 time=81
note_on channel=0 note=67 velocity=58 time=4
note_on channel=0 note=69 velocity=0 time=2
note_on channel=0 note=61 velocity=55 time=15
note_on channel=0 note=70 velocity=0 time=21
note_on channel=0 note=67 velocity=0 time=11
note_on channel=0 note=76 velocity=0 time=4
note_on channel=0 note=69 velocity=65 time=102
note_on channel=0 note=63 velocity=0 time=8
note_on channel=0 note=61 velocity=0 time=14
note_on channel=0 note=56 velocity=51 time=44
note_on channel=0 note=66 velocity=40 time=45
note_on channel=0 note=68 velocity=43 time=18
note_on channel=0 note=69 velocity=0 time=51
note_on channel=0 note=66 velocity=0 time=5
note_on channel=0 note=69 velocity=58 time=78
note_on channel=0 note=72 velocity=61 time=1
note_on channel=0 note=68 velocity=0 time=7
note_on channel=0 note=79 velocity=57 time=28
note_on channel=0 note=56 velocity=0 time=13
note_on channel=0 note=79 velocity=0 time=39
note_on channel=0 note=69 velocity=0 time=89
note_on channel=0 note=56 velocity=42 time=7
note_on channel=0 note=67 velocity=61 time=1
note_on channel=0 note=63 velocity=42 time=16
note_on channel=0 note=61 velocity=46 time=7
note_on channel=0 note=72 velocity=0 time=36
note_on channel=0 note=67 velocity=0 time=55
note_on channel=0 note=69 velocity=66 time=33
note_on channel=0 note=79 velocity=53 time=5
note_on channel=0 note=72 velocity=46 time=3
note_on channel=0 note=63 velocity=0 time=8
note_on channel=0 note=77 velocity=60 time=1
note_on channel=0 note=56 velocity=0 time=3
note_on channel=0 note=61 velocity=0 time=16
note_on channel=0 note=72 velocity=0 time=36
note_on channel=0 note=61 velocity=45 time=52
note_on channel=0 note=77 velocity=0 time=3
note_on channel=0 note=69 velocity=0 time=11
note_on channel=0 note=63 velocity=51 time=21
note_on channel=0 note=55 velocity=50 time=2
note_on channel=0 note=67 velocity=60 time=3
note_on channel=0 note=57 velocity=56 time=15
note_on channel=0 note=79 velocity=0 time=9
control_change channel=0 control=64 value=0 time=66
note_on channel=0 note=67 velocity=0 time=21
note_on channel=0 note=79 velocity=52 time=3
note_on channel=0 note=73 velocity=57 time=15
note_on channel=0 note=69 velocity=56 time=2
note_on channel=0 note=71 velocity=57 time=6
note_on channel=0 note=57 velocity=0 time=8
control_change channel=0 control=64 value=127 time=14
note_on channel=0 note=55 velocity=0 time=1
note_on channel=0 note=63 velocity=0 time=11
note_on channel=0 note=61 velocity=0 time=4
note_on channel=0 note=71 velocity=0 time=66
note_on channel=0 note=69 velocity=0 time=4
note_on channel=0 note=63 velocity=52 time=13
note_on channel=0 note=61 velocity=44 time=1
note_on channel=0 note=67 velocity=65 time=11
note_on channel=0 note=55 velocity=53 time=3
note_on channel=0 note=73 velocity=0 time=22
note_on channel=0 note=65 velocity=47 time=6
note_on channel=0 note=79 velocity=0 time=15
note_on channel=0 note=67 velocity=0 time=32
note_on channel=0 note=65 velocity=0 time=18
note_on channel=0 note=63 velocity=0 time=19
note_on channel=0 note=61 velocity=0 time=16
note_on channel=0 note=71 velocity=65 time=17
note_on channel=0 note=81 velocity=60 time=10
note_on channel=0 note=55 velocity=0 time=15
note_on channel=0 note=71 velocity=0 time=105
note_on channel=0 note=64 velocity=37 time=51
note_on channel=0 note=56 velocity=50 time=11
note_on channel=0 note=52 velocity=66 time=11
note_on channel=0 note=81 velocity=0 time=31
note_on channel=0 note=60 velocity=35 time=124
note_on channel=0 note=64 velocity=0 time=7
note_on channel=0 note=60 velocity=0 time=58
note_on channel=0 note=95 velocity=84 time=13
note_on channel=0 note=83 velocity=66 time=1
note_on channel=0 note=56 velocity=0 time=33
note_on channel=0 note=52 velocity=0 time=35
note_on channel=0 note=37 velocity=78 time=152
note_on channel=0 note=49 velocity=56 time=2
note_on channel=0 note=83 velocity=0 time=46
note_on channel=0 note=49 velocity=0 time=20
note_on channel=0 note=95 velocity=0 time=54
note_on channel=0 note=37 velocity=0 time=11
note_on channel=0 note=83 velocity=66 time=57
note_on channel=0 note=83 velocity=0 time=108
note_on channel=0 note=76 velocity=58 time=45
note_on channel=0 note=55 velocity=55 time=64
note_on channel=0 note=43 velocity=55 time=3
note_on channel=0 note=46 velocity=56 time=17
note_on channel=0 note=50 velocity=53 time=23
note_on channel=0 note=76 velocity=0 time=31
note_on channel=0 note=50 velocity=0 time=57
note_on channel=0 note=55 velocity=0 time=2
note_on channel=0 note=78 velocity=66 time=15
note_on channel=0 note=72 velocity=65 time=21
note_on channel=0 note=43 velocity=0 time=1
note_on channel=0 note=46 velocity=0 time=27
note_on channel=0 note=45 velocity=69 time=95
note_on channel=0 note=72 velocity=0 time=21
note_on channel=0 note=59 velocity=63 time=1
note_on channel=0 note=57 velocity=72 time=3
note_on channel=0 note=78 velocity=0 time=3
note_on channel=0 note=47 velocity=44 time=8
note_on channel=0 note=52 velocity=38 time=28
note_on channel=0 note=48 velocity=44 time=5
note_on channel=0 note=59 velocity=0 time=6
note_on channel=0 note=52 velocity=0 time=47
note_on channel=0 note=57 velocity=0 time=4
note_on channel=0 note=48 velocity=0 time=5
note_on channel=0 note=47 velocity=0 time=7
note_on channel=0 note=67 velocity=84 time=6
note_on channel=0 note=45 velocity=0 time=2
note_on channel=0 note=64 velocity=53 time=55
note_on channel=0 note=62 velocity=79 time=74
note_on channel=0 note=67 velocity=0 time=6
note_on channel=0 note=51 velocity=53 time=5
note_on channel=0 note=60 velocity=72 time=1
note_on channel=0 note=52 velocity=61 time=4
note_on channel=0 note=50 velocity=53 time=2
note_on channel=0 note=64 velocity=0 time=3
note_on channel=0 note=59 velocity=51 time=6
note_on channel=0 note=60 velocity=0 time=19
note_on channel=0 note=51 velocity=0 time=11
note_on channel=0 note=59 velocity=0 time=21
note_on channel=0 note=62 velocity=0 time=13
note_on channel=0 note=64 velocity=61 time=11
note_on channel=0 note=66 velocity=63 time=23
note_on channel=0 note=50 velocity=0 time=23
note_on channel=0 note=52 velocity=0 time=3
note_on channel=0 note=64 velocity=0 time=53
note_on channel=0 note=60 velocity=51 time=66
note_on channel=0 note=68 velocity=64 time=4
note_on channel=0 note=62 velocity=55 time=9
note_on channel=0 note=62 velocity=0 time=107
note_on channel=0 note=60 velocity=0 time=3
note_on channel=0 note=28 velocity=95 time=31
note_on channel=0 note=29 velocity=80 time=7
note_on channel=0 note=66 velocity=0 time=5
note_on channel=0 note=68 velocity=0 time=75
control_change channel=0 control=64 value=0 time=64
note_on channel=0 note=29 velocity=0 time=36
note_on channel=0 note=88 velocity=87 time=26
note_on channel=0 note=76 velocity=46 time=21
control_change channel=0 control=64 value=127 time=32
note_on channel=0 note=76 velocity=0 time=36
note_on channel=0 note=40 velocity=95 time=95
note_on channel=0 note=88 velocity=0 time=91
note_on channel=0 note=28 velocity=0 time=15
note_on channel=0 note=40 velocity=0 time=61
note_on channel=0 note=74 velocity=51 time=7
note_on channel=0 note=76 velocity=60 time=0
note_on channel=0 note=76 velocity=0 time=107
note_on channel=0 note=74 velocity=0 time=4
note_on channel=0 note=80 velocity=68 time=18
note_on channel=0 note=76 velocity=34 time=74
note_on channel=0 note=76 velocity=0 time=45
note_on channel=0 note=57 velocity=53 time=25
note_on channel=0 note=59 velocity=55 time=24
note_on channel=0 note=69 velocity=63 time=8
note_on channel=0 note=80 velocity=0 time=2
note_on channel=0 note=67 velocity=72 time=6
note_on channel=0 note=65 velocity=58 time=4
note_on channel=0 note=62 velocity=55 time=15
note_on channel=0 note=61 velocity=39 time=20
note_on channel=0 note=88 velocity=74 time=31
note_on channel=0 note=76 velocity=65 time=15
note_on channel=0 note=77 velocity=69 time=15
note_on channel=0 note=61 velocity=0 time=1
note_on channel=0 note=67 velocity=0 time=4
note_on channel=0 note=77 velocity=0 time=35
note_on channel=0 note=69 velocity=0 time=16
note_on channel=0 note=65 velocity=0 time=4
note_on channel=0 note=76 velocity=0 time=70
note_on channel=0 note=71 velocity=84 time=16
note_on channel=0 note=66 velocity=73 time=8
note_on channel=0 note=57 velocity=0 time=101
note_on channel=0 note=88 velocity=0 time=13
note_on channel=0 note=59 velocity=0 time=9
note_on channel=0 note=76 velocity=66 time=5
note_on channel=0 note=77 velocity=69 time=0
note_on channel=0 note=62 velocity=0 time=12
note_on channel=0 note=66 velocity=0 time=24
note_on channel=0 note=71 velocity=0 time=8
note_on channel=0 note=80 velocity=70 time=65
note_on channel=0 note=76 velocity=0 time=19
note_on channel=0 note=77 velocity=0 time=2
note_on channel=0 note=64 velocity=72 time=22
note_on channel=0 note=70 velocity=63 time=24
note_on channel=0 note=74 velocity=69 time=8
note_on channel=0 note=76 velocity=69 time=0
note_on channel=0 note=65 velocity=50 time=1
note_on channel=0 note=70 velocity=0 time=26
note_on channel=0 note=71 velocity=48 time=17
note_on channel=0 note=67 velocity=44 time=5
note_on channel=0 note=80 velocity=0 time=8
note_on channel=0 note=65 velocity=0 time=16
note_on channel=0 note=71 velocity=0 time=30
note_on channel=0 note=67 velocity=0 time=5
note_on channel=0 note=80 velocity=60 time=6
note_on channel=0 note=77 velocity=75 time=1
note_on channel=0 note=82 velocity=82 time=0
note_on channel=0 note=76 velocity=0 time=22
note_on channel=0 note=74 velocity=0 time=11
note_on channel=0 note=80 velocity=0 time=11
note_on channel=0 note=64 velocity=0 time=17
note_on channel=0 note=77 velocity=0 time=51
note_on channel=0 note=82 velocity=0 time=23
note_on channel=0 note=89 velocity=74 time=22
note_on channel=0 note=79 velocity=66 time=30
note_on channel=0 note=79 velocity=0 time=94
note_on channel=0 note=64 velocity=52 time=41
note_on channel=0 note=76 velocity=82 time=3
note_on channel=0 note=68 velocity=64 time=12
note_on channel=0 note=73 velocity=75 time=9
note_on channel=0 note=89 velocity=0 time=75
note_on channel=0 note=76 velocity=0 time=34
note_on channel=0 note=73 velocity=0 time=36
note_on channel=0 note=64 velocity=0 time=32
note_on channel=0 note=68 velocity=0 time=13
note_on channel=0 note=83 velocity=75 time=8
note_on channel=0 note=84 velocity=84 time=2
note_on channel=0 note=84 velocity=0 time=98
note_on channel=0 note=83 velocity=0 time=16
note_on channel=0 note=87 velocity=75 time=50
note_on channel=0 note=42 velocity=41 time=76
note_on channel=0 note=42 velocity=0 time=70
note_on channel=0 note=87 velocity=0 time=58
note_on channel=0 note=42 velocity=75 time=2
note_on channel=0 note=54 velocity=79 time=4
note_on channel=0 note=90 velocity=39 time=27
note_on channel=0 note=92 velocity=71 time=2
note_on channel=0 note=83 velocity=69 time=1
control_change channel=0 control=64 value=0 time=5
control_change channel=0 control=64 value=127 time=91
note_on channel=0 note=90 velocity=0 time=3
note_on channel=0 note=83 velocity=0 time=15
note_on channel=0 note=54 velocity=0 time=75
note_on channel=0 note=83 velocity=66 time=8
note_on channel=0 note=92 velocity=0 time=12
note_on channel=0 note=42 velocity=0 time=54
note_on channel=0 note=83 velocity=0 time=52
note_on channel=0 note=77 velocity=63 time=27
note_on channel=0 note=77 velocity=0 time=86
note_on channel=0 note=43 velocity=69 time=22
note_on channel=0 note=55 velocity=75 time=6
note_on channel=0 note=45 velocity=41 time=29
note_on channel=0 note=45 velocity=0 time=70
note_on channel=0 note=91 velocity=74 time=26
note_on channel=0 note=79 velocity=58 time=6
note_on channel=0 note=55 velocity=0 time=32
note_on channel=0 note=43 velocity=0 time=17
note_on channel=0 note=79 velocity=0 time=20
note_on channel=0 note=91 velocity=0 time=94
note_on channel=0 note=44 velocity=64 time=7
note_on channel=0 note=56 velocity=72 time=17
note_on channel=0 note=79 velocity=58 time=6
control_change channel=0 control=64 value=0 time=44
note_on channel=0 note=56 velocity=0 time=54
note_on channel=0 note=79 velocity=0 time=4
control_change channel=0 control=64 value=127 time=35
note_on channel=0 note=72 velocity=60 time=2
note_on channel=0 note=44 velocity=0 time=4
note_on channel=0 note=75 velocity=48 time=138
note_on channel=0 note=72 velocity=0 time=13
note_on channel=0 note=57 velocity=47 time=13
note_on channel=0 note=47 velocity=34 time=38
control_change channel=0 control=64 value=0 time=73
note_on channel=0 note=47 velocity=0 time=0
note_on channel=0 note=75 velocity=0 time=1
note_on channel=0 note=77 velocity=54 time=37
note_on channel=0 note=67 velocity=51 time=15
note_on channel=0 note=69 velocity=48 time=1
note_on channel=0 note=76 velocity=56 time=9
note_on channel=0 note=67 velocity=0 time=45
note_on channel=0 note=57 velocity=0 time=5
note_on channel=0 note=69 velocity=0 time=1
note_on channel=0 note=76 velocity=0 time=8
control_change channel=0 control=64 value=127 time=3
note_on channel=0 note=56 velocity=66 time=83
note_on channel=0 note=77 velocity=0 time=29
note_on channel=0 note=69 velocity=40 time=23
note_on channel=0 note=67 velocity=42 time=11
note_on channel=0 note=67 velocity=0 time=63
note_on channel=0 note=75 velocity=63 time=8
note_on channel=0 note=69 velocity=0 time=7
note_on channel=0 note=56 velocity=0 time=47
note_on channel=0 note=69 velocity=37 time=84
note_on channel=0 note=81 velocity=69 time=44
note_on channel=0 note=75 velocity=0 time=10
note_on channel=0 note=69 velocity=0 time=9
note_on channel=0 note=52 velocity=45 time=18
note_on channel=0 note=56 velocity=64 time=20
note_on channel=0 note=64 velocity=66 time=2
note_on channel=0 note=81 velocity=0 time=79
note_on channel=0 note=74 velocity=69 time=162
note_on channel=0 note=64 velocity=0 time=98
note_on channel=0 note=74 velocity=0 time=35
note_on channel=0 note=61 velocity=66 time=82
note_on channel=0 note=52 velocity=0 time=77
note_on channel=0 note=56 velocity=0 time=36
note_on channel=0 note=61 velocity=0 time=5
note_on channel=0 note=72 velocity=50 time=54
note_on channel=0 note=78 velocity=56 time=27
note_on channel=0 note=72 velocity=0 time=71
note_on channel=0 note=78 velocity=0 time=53
note_on channel=0 note=80 velocity=61 time=67
note_on channel=0 note=65 velocity=50 time=16
note_on channel=0 note=61 velocity=50 time=1
note_on channel=0 note=53 velocity=53 time=3
note_on channel=0 note=72 velocity=48 time=6
note_on channel=0 note=58 velocity=56 time=5
control_change channel=0 control=64 value=0 time=27
note_on channel=0 note=72 velocity=0 time=54
control_change channel=0 control=64 value=127 time=63
note_on channel=0 note=80 velocity=0 time=36
note_on channel=0 note=84 velocity=34 time=2
note_on channel=0 note=84 velocity=0 time=78
note_on channel=0 note=72 velocity=58 time=24
note_on channel=0 note=65 velocity=0 time=10
note_on channel=0 note=58 velocity=0 time=52
note_on channel=0 note=61 velocity=0 time=2
note_on channel=0 note=67 velocity=57 time=95
note_on channel=0 note=72 velocity=0 time=0
note_on channel=0 note=61 velocity=46 time=2
note_on channel=0 note=58 velocity=46 time=27
note_on channel=0 note=67 velocity=0 time=37
note_on channel=0 note=58 velocity=0 time=92
note_on channel=0 note=69 velocity=57 time=4
note_on channel=0 note=61 velocity=0 time=1
note_on channel=0 note=64 velocity=57 time=178
note_on channel=0 note=61 velocity=52 time=1
note_on channel=0 note=58 velocity=52 time=1
note_on channel=0 note=72 velocity=37 time=6
note_on channel=0 note=69 velocity=0 time=15
note_on channel=0 note=64 velocity=0 time=83
note_on channel=0 note=65 velocity=61 time=25
note_on channel=0 note=77 velocity=60 time=16
note_on channel=0 note=53 velocity=0 time=13
note_on channel=0 note=61 velocity=0 time=6
note_on channel=0 note=72 velocity=0 time=17
note_on channel=0 note=58 velocity=0 time=3
note_on channel=0 note=65 velocity=0 time=51
note_on channel=0 note=58 velocity=59 time=69
note_on channel=0 note=61 velocity=64 time=1
note_on channel=0 note=65 velocity=48 time=2
note_on channel=0 note=53 velocity=57 time=5
control_change channel=0 control=64 value=0 time=9
note_on channel=0 note=64 velocity=56 time=0
note_on channel=0 note=77 velocity=0 time=41
note_on channel=0 note=73 velocity=51 time=10
note_on channel=0 note=67 velocity=66 time=6
note_on channel=0 note=73 velocity=0 time=52
control_change channel=0 control=64 value=127 time=12
note_on channel=0 note=64 velocity=0 time=23
note_on channel=0 note=65 velocity=0 time=30
note_on channel=0 note=67 velocity=0 time=11
note_on channel=0 note=72 velocity=48 time=9
note_on channel=0 note=61 velocity=0 time=8
note_on channel=0 note=70 velocity=66 time=4
note_on channel=0 note=58 velocity=0 time=17
note_on channel=0 note=72 velocity=0 time=58
note_on channel=0 note=58 velocity=57 time=60
note_on channel=0 note=61 velocity=57 time=0
note_on channel=0 note=64 velocity=57 time=11
note_on channel=0 note=62 velocity=61 time=3
note_on channel=0 note=70 velocity=0 time=31
note_on channel=0 note=62 velocity=0 time=30
note_on channel=0 note=64 velocity=0 time=2
note_on channel=0 note=65 velocity=66 time=19
note_on channel=0 note=61 velocity=0 time=38
note_on channel=0 note=58 velocity=0 time=20
note_on channel=0 note=53 velocity=0 time=24
note_on channel=0 note=70 velocity=63 time=41
note_on channel=0 note=65 velocity=0 time=45
note_on channel=0 note=72 velocity=47 time=96
note_on channel=0 note=70 velocity=0 time=40
note_on channel=0 note=54 velocity=51 time=7
note_on channel=0 note=60 velocity=65 time=1
note_on channel=0 note=58 velocity=46 time=6
note_on channel=0 note=50 velocity=57 time=7
control_change channel=0 control=64 value=0 time=9
note_on channel=0 note=70 velocity=70 time=121
control_change channel=0 control=64 value=127 time=17
note_on channel=0 note=58 velocity=0 time=18
note_on channel=0 note=60 velocity=0 time=21
note_on channel=0 note=72 velocity=0 time=11
note_on channel=0 note=54 velocity=0 time=7
note_on channel=0 note=70 velocity=0 time=29
note_on channel=0 note=65 velocity=66 time=11
note_on channel=0 note=58 velocity=49 time=107
note_on channel=0 note=54 velocity=55 time=4
note_on channel=0 note=65 velocity=0 time=40
note_on channel=0 note=58 velocity=0 time=1
note_on channel=0 note=54 velocity=0 time=18
note_on channel=0 note=50 velocity=0 time=35
note_on channel=0 note=60 velocity=37 time=12
note_on channel=0 note=59 velocity=49 time=61
note_on channel=0 note=57 velocity=51 time=10
note_on channel=0 note=56 velocity=47 time=7
note_on channel=0 note=48 velocity=47 time=2
note_on channel=0 note=59 velocity=0 time=36
note_on channel=0 note=63 velocity=38 time=12
note_on channel=0 note=57 velocity=0 time=1
note_on channel=0 note=56 velocity=0 time=4
note_on channel=0 note=48 velocity=0 time=24
note_on channel=0 note=51 velocity=64 time=93
note_on channel=0 note=57 velocity=39 time=19
note_on channel=0 note=66 velocity=48 time=9
note_on channel=0 note=60 velocity=0 time=2
note_on channel=0 note=47 velocity=47 time=12
note_on channel=0 note=51 velocity=0 time=10
note_on channel=0 note=63 velocity=0 time=13
note_on channel=0 note=57 velocity=0 time=16
note_on channel=0 note=47 velocity=0 time=18
note_on channel=0 note=63 velocity=48 time=58
control_change channel=0 control=64 value=0 time=64
note_on channel=0 note=49 velocity=52 time=8
note_on channel=0 note=66 velocity=0 time=17
note_on channel=0 note=53 velocity=44 time=4
note_on channel=0 note=61 velocity=53 time=43
note_on channel=0 note=49 velocity=0 time=22
note_on channel=0 note=53 velocity=0 time=4
control_change channel=0 control=64 value=127 time=60
note_on channel=0 note=61 velocity=0 time=45
note_on channel=0 note=57 velocity=57 time=14
note_on channel=0 note=53 velocity=52 time=13
note_on channel=0 note=52 velocity=52 time=5
note_on channel=0 note=41 velocity=42 time=3
note_on channel=0 note=63 velocity=0 time=2
note_on channel=0 note=52 velocity=0 time=44
note_on channel=0 note=53 velocity=0 time=1
note_on channel=0 note=41 velocity=0 time=42
note_on channel=0 note=57 velocity=0 time=6
note_on channel=0 note=61 velocity=57 time=34
note_on channel=0 note=44 velocity=59 time=58
note_on channel=0 note=50 velocity=34 time=27
note_on channel=0 note=50 velocity=0 time=49
note_on channel=0 note=63 velocity=53 time=8
note_on channel=0 note=44 velocity=0 time=7
control_change channel=0 control=64 value=0 time=15
note_on channel=0 note=44 velocity=57 time=74
note_on channel=0 note=40 velocity=48 time=24
note_on channel=0 note=47 velocity=42 time=7
note_on channel=0 note=52 velocity=49 time=4
note_on channel=0 note=66 velocity=55 time=4
note_on channel=0 note=48 velocity=43 time=3
note_on channel=0 note=61 velocity=0 time=42
note_on channel=0 note=40 velocity=0 time=6
note_on channel=0 note=52 velocity=0 time=1
note_on channel=0 note=47 velocity=0 time=12
note_on channel=0 note=44 velocity=0 time=5
note_on channel=0 note=48 velocity=0 time=7
note_on channel=0 note=44 velocity=61 time=62
note_on channel=0 note=47 velocity=53 time=10
note_on channel=0 note=52 velocity=50 time=2
note_on channel=0 note=40 velocity=44 time=8
note_on channel=0 note=63 velocity=0 time=45
note_on channel=0 note=69 velocity=54 time=8
note_on channel=0 note=66 velocity=0 time=11
control_change channel=0 control=64 value=127 time=36
note_on channel=0 note=52 velocity=0 time=20
note_on channel=0 note=47 velocity=0 time=30
note_on channel=0 note=44 velocity=0 time=55
note_on channel=0 note=40 velocity=0 time=32
note_on channel=0 note=69 velocity=0 time=29
note_on channel=0 note=67 velocity=37 time=7
note_on channel=0 note=59 velocity=43 time=84
note_on channel=0 note=67 velocity=0 time=3
note_on channel=0 note=57 velocity=45 time=14
note_on channel=0 note=57 velocity=0 time=62
note_on channel=0 note=44 velocity=59 time=55
note_on channel=0 note=59 velocity=0 time=5
note_on channel=0 note=50 velocity=58 time=4
note_on channel=0 note=36 velocity=43 time=19
control_change channel=0 control=64 value=0 time=9
note_on channel=0 note=38 velocity=48 time=5
note_on channel=0 note=38 velocity=0 time=59
note_on channel=0 note=36 velocity=0 time=37
note_on channel=0 note=50 velocity=0 time=11
note_on channel=0 note=44 velocity=0 time=22
note_on channel=0 note=60 velocity=60 time=32
note_on channel=0 note=60 velocity=0 time=106
note_on channel=0 note=55 velocity=63 time=16
note_on channel=0 note=45 velocity=63 time=4
note_on channel=0 note=49 velocity=51 time=7
note_on channel=0 note=46 velocity=40 time=22
note_on channel=0 note=46 velocity=0 time=71
note_on channel=0 note=55 velocity=0 time=16
note_on channel=0 note=60 velocity=58 time=6
note_on channel=0 note=45 velocity=0 time=15
note_on channel=0 note=49 velocity=0 time=9
control_change channel=0 control=64 value=127 time=66
note_on channel=0 note=49 velocity=51 time=21
note_on channel=0 note=45 velocity=37 time=2
note_on channel=0 note=60 velocity=0 time=1
note_on channel=0 note=57 velocity=57 time=6
note_on channel=0 note=61 velocity=53 time=13
note_on channel=0 note=54 velocity=53 time=10
note_on channel=0 note=57 velocity=0 time=85
note_on channel=0 note=54 velocity=0 time=15
note_on channel=0 note=45 velocity=0 time=6
note_on channel=0 note=49 velocity=0 time=11
note_on channel=0 note=62 velocity=61 time=2
note_on channel=0 note=63 velocity=53 time=45
note_on channel=0 note=61 velocity=0 time=42
note_on channel=0 note=62 velocity=0 time=9
note_on channel=0 note=66 velocity=52 time=148
note_on channel=0 note=63 velocity=0 time=57
note_on channel=0 note=59 velocity=75 time=66
note_on channel=0 note=45 velocity=57 time=3
note_on channel=0 note=54 velocity=69 time=17
note_on channel=0 note=49 velocity=61 time=6
control_change channel=0 control=64 value=0 time=13
note_on channel=0 note=46 velocity=42 time=5
note_on channel=0 note=59 velocity=0 time=58
note_on channel=0 note=54 velocity=0 time=33
note_on channel=0 note=46 velocity=0 time=11
note_on channel=0 note=63 velocity=50 time=30
note_on channel=0 note=49 velocity=0 time=20
note_on channel=0 note=45 velocity=0 time=15
note_on channel=0 note=66 velocity=0 time=9
control_change channel=0 control=64 value=127 time=19
note_on channel=0 note=59 velocity=39 time=13
note_on channel=0 note=54 velocity=57 time=87
control_change channel=0 control=64 value=0 time=17
note_on channel=0 note=42 velocity=50 time=4
note_on channel=0 note=44 velocity=46 time=12
note_on channel=0 note=59 velocity=0 time=21
note_on channel=0 note=44 velocity=0 time=29
note_on channel=0 note=63 velocity=0 time=24
note_on channel=0 note=54 velocity=0 time=12
note_on channel=0 note=61 velocity=33 time=12
note_on channel=0 note=42 velocity=0 time=29
note_on channel=0 note=61 velocity=0 time=19
note_on channel=0 note=59 velocity=51 time=32
control_change channel=0 control=64 value=127 time=46
note_on channel=0 note=61 velocity=50 time=15
control_change channel=0 control=64 value=0 time=9
note_on channel=0 note=59 velocity=0 time=3
note_on channel=0 note=57 velocity=48 time=33
note_on channel=0 note=45 velocity=55 time=1
note_on channel=0 note=49 velocity=53 time=2
note_on channel=0 note=52 velocity=42 time=42
note_on channel=0 note=63 velocity=52 time=62
note_on channel=0 note=61 velocity=0 time=34
control_change channel=0 control=64 value=127 time=13
note_on channel=0 note=62 velocity=63 time=32
note_on channel=0 note=52 velocity=0 time=18
note_on channel=0 note=63 velocity=0 time=7
note_on channel=0 note=49 velocity=0 time=17
note_on channel=0 note=57 velocity=0 time=27
note_on channel=0 note=45 velocity=0 time=12
note_on channel=0 note=62 velocity=0 time=44
note_on channel=0 note=49 velocity=44 time=30
control_change channel=0 control=64 value=0 time=12
note_on channel=0 note=54 velocity=57 time=2
note_on channel=0 note=63 velocity=44 time=6
note_on channel=0 note=59 velocity=56 time=15
note_on channel=0 note=63 velocity=0 time=60
note_on channel=0 note=54 velocity=0 time=37
note_on channel=0 note=59 velocity=0 time=2
note_on channel=0 note=62 velocity=57 time=9
note_on channel=0 note=49 velocity=0 time=23
control_change channel=0 control=64 value=127 time=57
note_on channel=0 note=62 velocity=0 time=45
note_on channel=0 note=56 velocity=51 time=12
note_on channel=0 note=60 velocity=57 time=1
note_on channel=0 note=48 velocity=50 time=2
note_on channel=0 note=64 velocity=47 time=11
control_change channel=0 control=64 value=0 time=9
note_on channel=0 note=50 velocity=57 time=1
note_on channel=0 note=50 velocity=0 time=118
note_on channel=0 note=66 velocity=58 time=36
control_change channel=0 control=64 value=127 time=38
note_on channel=0 note=60 velocity=0 time=9
note_on channel=0 note=64 velocity=0 time=3
note_on channel=0 note=50 velocity=34 time=92
note_on channel=0 note=68 velocity=53 time=4
note_on channel=0 note=56 velocity=0 time=41
note_on channel=0 note=66 velocity=0 time=14
control_change channel=0 control=64 value=0 time=29
note_on channel=0 note=56 velocity=64 time=32
note_on channel=0 note=62 velocity=56 time=1
note_on channel=0 note=64 velocity=55 time=0
note_on channel=0 note=54 velocity=56 time=2
note_on channel=0 note=64 velocity=0 time=46
note_on channel=0 note=68 velocity=0 time=2
note_on channel=0 note=50 velocity=0 time=27
note_on channel=0 note=63 velocity=57 time=4
note_on channel=0 note=62 velocity=0 time=1
note_on channel=0 note=48 velocity=0 time=13
control_change channel=0 control=64 value=127 time=21
note_on channel=0 note=63 velocity=0 time=40
note_on channel=0 note=54 velocity=0 time=33
note_on channel=0 note=56 velocity=0 time=45
note_on channel=0 note=64 velocity=66 time=46
note_on channel=0 note=64 velocity=0 time=164
note_on channel=0 note=66 velocity=41 time=1
note_on channel=0 note=67 velocity=56 time=20
control_change channel=0 control=64 value=0 time=9
note_on channel=0 note=66 velocity=0 time=44
note_on channel=0 note=67 velocity=0 time=24
note_on channel=0 note=54 velocity=53 time=72
note_on channel=0 note=56 velocity=50 time=14
note_on channel=0 note=64 velocity=72 time=0
note_on channel=0 note=50 velocity=55 time=9
note_on channel=0 note=52 velocity=63 time=0
note_on channel=0 note=51 velocity=53 time=23
note_on channel=0 note=50 velocity=0 time=19
note_on channel=0 note=56 velocity=0 time=12
note_on channel=0 note=51 velocity=0 time=50
note_on channel=0 note=64 velocity=0 time=13
control_change channel=0 control=64 value=127 time=5
note_on channel=0 note=79 velocity=69 time=1
note_on channel=0 note=54 velocity=0 time=16
note_on channel=0 note=52 velocity=0 time=5
note_on channel=0 note=65 velocity=72 time=159
note_on channel=0 note=57 velocity=55 time=26
note_on channel=0 note=61 velocity=49 time=3
note_on channel=0 note=79 velocity=0 time=7
note_on channel=0 note=58 velocity=39 time=19
note_on channel=0 note=57 velocity=0 time=23
note_on channel=0 note=61 velocity=0 time=2
note_on channel=0 note=65 velocity=0 time=6
note_on channel=0 note=58 velocity=0 time=27
note_on channel=0 note=79 velocity=41 time=17
note_on channel=0 note=66 velocity=66 time=28
note_on channel=0 note=79 velocity=0 time=36
note_on channel=0 note=61 velocity=43 time=47
note_on channel=0 note=57 velocity=57 time=10
note_on channel=0 note=66 velocity=0 time=21
note_on channel=0 note=63 velocity=57 time=78
note_on channel=0 note=67 velocity=72 time=1
note_on channel=0 note=67 velocity=0 time=163
note_on channel=0 note=83 velocity=60 time=31
note_on channel=0 note=82 velocity=57 time=17
note_on channel=0 note=57 velocity=0 time=15
note_on channel=0 note=63 velocity=0 time=29
note_on channel=0 note=61 velocity=0 time=10
note_on channel=0 note=83 velocity=0 time=64
note_on channel=0 note=57 velocity=51 time=14
note_on channel=0 note=82 velocity=0 time=5
note_on channel=0 note=61 velocity=57 time=11
note_on channel=0 note=71 velocity=78 time=1
note_on channel=0 note=63 velocity=62 time=1
note_on channel=0 note=71 velocity=0 time=89
note_on channel=0 note=70 velocity=56 time=55
note_on channel=0 note=63 velocity=0 time=5
note_on channel=0 note=57 velocity=0 time=11
note_on channel=0 note=68 velocity=51 time=10
note_on channel=0 note=61 velocity=0 time=10
note_on channel=0 note=70 velocity=0 time=18
note_on channel=0 note=68 velocity=0 time=24
note_on channel=0 note=51 velocity=85 time=61
note_on channel=0 note=63 velocity=89 time=1
note_on channel=0 note=63 velocity=0 time=72
note_on channel=0 note=51 velocity=0 time=41
note_on channel=0 note=86 velocity=66 time=45
note_on channel=0 note=84 velocity=51 time=31
note_on channel=0 note=84 velocity=0 time=60
note_on channel=0 note=63 velocity=53 time=52
note_on channel=0 note=61 velocity=55 time=2
note_on channel=0 note=57 velocity=61 time=3
note_on channel=0 note=55 velocity=60 time=2
control_change channel=0 control=64 value=0 time=4
note_on channel=0 note=67 velocity=72 time=0
note_on channel=0 note=61 velocity=0 time=47
note_on channel=0 note=82 velocity=39 time=1
note_on channel=0 note=86 velocity=0 time=27
note_on channel=0 note=73 velocity=82 time=34
note_on channel=0 note=82 velocity=0 time=9
note_on channel=0 note=67 velocity=0 time=7
control_change channel=0 control=64 value=127 time=28
note_on channel=0 note=55 velocity=0 time=20
note_on channel=0 note=63 velocity=0 time=0
note_on channel=0 note=63 velocity=64 time=60
note_on channel=0 note=73 velocity=0 time=5
note_on channel=0 note=69 velocity=78 time=5
note_on channel=0 note=61 velocity=69 time=2
control_change channel=0 control=64 value=0 time=18
note_on channel=0 note=57 velocity=0 time=90
note_on channel=0 note=69 velocity=0 time=10
control_change channel=0 control=64 value=127 time=1
note_on channel=0 note=72 velocity=69 time=2
note_on channel=0 note=61 velocity=0 time=18
note_on channel=0 note=63 velocity=0 time=0
note_on channel=0 note=63 velocity=59 time=101
note_on channel=0 note=72 velocity=0 time=10
note_on channel=0 note=73 velocity=82 time=20
note_on channel=0 note=73 velocity=0 time=136
note_on channel=0 note=63 velocity=0 time=1
note_on channel=0 note=82 velocity=66 time=7
note_on channel=0 note=83 velocity=34 time=77
note_on channel=0 note=83 velocity=0 time=45
note_on channel=0 note=82 velocity=0 time=50
note_on channel=0 note=74 velocity=69 time=21
note_on channel=0 note=64 velocity=57 time=19
note_on channel=0 note=70 velocity=53 time=8
note_on channel=0 note=69 velocity=66 time=8
note_on channel=0 note=67 velocity=56 time=11
note_on channel=0 note=74 velocity=0 time=92
note_on channel=0 note=70 velocity=0 time=6
note_on channel=0 note=69 velocity=0 time=31
note_on channel=0 note=64 velocity=0 time=22
note_on channel=0 note=70 velocity=79 time=1
note_on channel=0 note=67 velocity=0 time=5
note_on channel=0 note=80 velocity=31 time=64
note_on channel=0 note=70 velocity=0 time=79
note_on channel=0 note=66 velocity=82 time=19
note_on channel=0 note=56 velocity=85 time=3
note_on channel=0 note=80 velocity=0 time=64
note_on channel=0 note=66 velocity=0 time=17
note_on channel=0 note=82 velocity=73 time=43
note_on channel=0 note=80 velocity=51 time=10
note_on channel=0 note=56 velocity=0 time=19
note_on channel=0 note=80 velocity=0 time=32
note_on channel=0 note=67 velocity=82 time=90
note_on channel=0 note=82 velocity=0 time=5
note_on channel=0 note=63 velocity=64 time=3
note_on channel=0 note=55 velocity=58 time=3
note_on channel=0 note=57 velocity=57 time=7
note_on channel=0 note=71 velocity=65 time=12
note_on channel=0 note=60 velocity=50 time=12
note_on channel=0 note=71 velocity=0 time=35
note_on channel=0 note=63 velocity=0 time=4
note_on channel=0 note=67 velocity=0 time=11
note_on channel=0 note=60 velocity=0 time=26
note_on channel=0 note=57 velocity=0 time=26
note_on channel=0 note=65 velocity=69 time=9
note_on channel=0 note=55 velocity=0 time=4
note_on channel=0 note=65 velocity=0 time=102
note_on channel=0 note=52 velocity=75 time=3
note_on channel=0 note=64 velocity=66 time=4
note_on channel=0 note=56 velocity=66 time=2
note_on channel=0 note=62 velocity=79 time=4
note_on channel=0 note=64 velocity=0 time=56
note_on channel=0 note=62 velocity=0 time=27
note_on channel=0 note=52 velocity=0 time=48
note_on channel=0 note=56 velocity=0 time=5
note_on channel=0 note=81 velocity=78 time=29
note_on channel=0 note=72 velocity=56 time=2
note_on channel=0 note=74 velocity=72 time=3
note_on channel=0 note=72 velocity=0 time=59
note_on channel=0 note=74 velocity=0 time=49
note_on channel=0 note=56 velocity=75 time=50
note_on channel=0 note=66 velocity=82 time=22
note_on channel=0 note=81 velocity=0 time=90
note_on channel=0 note=72 velocity=72 time=2
note_on channel=0 note=66 velocity=0 time=4
note_on channel=0 note=56 velocity=0 time=58
note_on channel=0 note=67 velocity=50 time=73
note_on channel=0 note=69 velocity=57 time=11
note_on channel=0 note=72 velocity=0 time=9
note_on channel=0 note=65 velocity=78 time=7
note_on channel=0 note=55 velocity=66 time=3
note_on channel=0 note=56 velocity=45 time=13
note_on channel=0 note=69 velocity=0 time=15
note_on channel=0 note=62 velocity=48 time=3
note_on channel=0 note=67 velocity=0 time=5
note_on channel=0 note=59 velocity=42 time=13
note_on channel=0 note=62 velocity=0 time=44
note_on channel=0 note=56 velocity=0 time=19
note_on channel=0 note=65 velocity=0 time=6
note_on channel=0 note=59 velocity=0 time=4
note_on channel=0 note=70 velocity=70 time=20
note_on channel=0 note=55 velocity=0 time=2
note_on channel=0 note=56 velocity=79 time=108
note_on channel=0 note=66 velocity=87 time=6
note_on channel=0 note=70 velocity=0 time=28
note_on channel=0 note=66 velocity=0 time=86
note_on channel=0 note=76 velocity=72 time=13
note_on channel=0 note=56 velocity=0 time=10
note_on channel=0 note=76 velocity=0 time=109
note_on channel=0 note=64 velocity=85 time=14
note_on channel=0 note=61 velocity=59 time=11
note_on channel=0 note=52 velocity=52 time=4
note_on channel=0 note=54 velocity=51 time=3
note_on channel=0 note=58 velocity=56 time=0
note_on channel=0 note=53 velocity=57 time=4
note_on channel=0 note=61 velocity=0 time=28
note_on channel=0 note=58 velocity=0 time=20
note_on channel=0 note=64 velocity=0 time=3
note_on channel=0 note=54 velocity=0 time=11
note_on channel=0 note=53 velocity=0 time=2
note_on channel=0 note=69 velocity=78 time=12
note_on channel=0 note=52 velocity=0 time=1
note_on channel=0 note=69 velocity=0 time=129
note_on channel=0 note=59 velocity=93 time=7
note_on channel=0 note=48 velocity=79 time=4
note_on channel=0 note=49 velocity=62 time=10
note_on channel=0 note=49 velocity=0 time=47
note_on channel=0 note=59 velocity=0 time=11
note_on channel=0 note=62 velocity=63 time=41
note_on channel=0 note=48 velocity=0 time=4
note_on channel=0 note=62 velocity=0 time=150
note_on channel=0 note=53 velocity=50 time=43
note_on channel=0 note=55 velocity=58 time=21
note_on channel=0 note=55 velocity=0 time=46
note_on channel=0 note=43 velocity=69 time=109
note_on channel=0 note=56 velocity=40 time=78
note_on channel=0 note=56 velocity=0 time=84
note_on channel=0 note=43 velocity=0 time=1
note_on channel=0 note=31 velocity=80 time=13
note_on channel=0 note=53 velocity=0 time=50
note_on channel=0 note=43 velocity=93 time=119
note_on channel=0 note=31 velocity=0 time=110
note_on channel=0 note=58 velocity=75 time=23
note_on channel=0 note=43 velocity=0 time=20
note_on channel=0 note=59 velocity=66 time=4
note_on channel=0 note=59 velocity=0 time=64
note_on channel=0 note=58 velocity=0 time=13
note_on channel=0 note=51 velocity=57 time=145
note_on channel=0 note=39 velocity=50 time=7
note_on channel=0 note=42 velocity=42 time=38
note_on channel=0 note=39 velocity=0 time=30
note_on channel=0 note=51 velocity=0 time=25
note_on channel=0 note=42 velocity=0 time=8
note_on channel=0 note=57 velocity=75 time=24
note_on channel=0 note=61 velocity=50 time=25
note_on channel=0 note=61 velocity=0 time=58
note_on channel=0 note=42 velocity=71 time=40
note_on channel=0 note=44 velocity=69 time=6
note_on channel=0 note=57 velocity=0 time=21
note_on channel=0 note=44 velocity=0 time=66
note_on channel=0 note=42 velocity=0 time=34
note_on channel=0 note=59 velocity=65 time=29
note_on channel=0 note=59 velocity=0 time=126
note_on channel=0 note=50 velocity=50 time=1
note_on channel=0 note=57 velocity=66 time=3
note_on channel=0 note=47 velocity=55 time=4
note_on channel=0 note=55 velocity=69 time=11
note_on channel=0 note=45 velocity=61 time=6
note_on channel=0 note=50 velocity=0 time=36
note_on channel=0 note=45 velocity=0 time=21
control_change channel=0 control=64 value=0 time=10
note_on channel=0 note=55 velocity=0 time=28
note_on channel=0 note=61 velocity=42 time=17
note_on channel=0 note=62 velocity=66 time=2
note_on channel=0 note=66 velocity=38 time=6
note_on channel=0 note=47 velocity=0 time=26
note_on channel=0 note=50 velocity=31 time=7
control_change channel=0 control=64 value=127 time=17
note_on channel=0 note=61 velocity=0 time=8
note_on channel=0 note=57 velocity=0 time=15
note_on channel=0 note=66 velocity=0 time=7
note_on channel=0 note=53 velocity=48 time=37
note_on channel=0 note=62 velocity=0 time=64
note_on channel=0 note=45 velocity=56 time=5
note_on channel=0 note=53 velocity=0 time=17
note_on channel=0 note=63 velocity=69 time=18
note_on channel=0 note=47 velocity=23 time=14
note_on channel=0 note=57 velocity=85 time=154
note_on channel=0 note=63 velocity=0 time=14
note_on channel=0 note=53 velocity=33 time=22
note_on channel=0 note=53 velocity=0 time=56
note_on channel=0 note=50 velocity=0 time=22
note_on channel=0 note=66 velocity=79 time=1
note_on channel=0 note=47 velocity=0 time=8
note_on channel=0 note=57 velocity=0 time=35
note_on channel=0 note=53 velocity=65 time=89
note_on channel=0 note=66 velocity=0 time=44
note_on channel=0 note=62 velocity=85 time=93
note_on channel=0 note=45 velocity=0 time=26
note_on channel=0 note=53 velocity=0 time=27
note_on channel=0 note=45 velocity=43 time=42
note_on channel=0 note=47 velocity=43 time=30
note_on channel=0 note=62 velocity=0 time=14
note_on channel=0 note=59 velocity=69 time=3
note_on channel=0 note=57 velocity=75 time=5
note_on channel=0 note=47 velocity=0 time=86
note_on channel=0 note=57 velocity=0 time=13
note_on channel=0 note=68 velocity=70 time=11
note_on channel=0 note=59 velocity=0 time=10
note_on channel=0 note=51 velocity=75 time=117
note_on channel=0 note=68 velocity=0 time=47
note_on channel=0 note=45 velocity=0 time=67
note_on channel=0 note=70 velocity=79 time=19
note_on channel=0 note=51 velocity=0 time=41
note_on channel=0 note=68 velocity=75 time=88
note_on channel=0 note=60 velocity=85 time=29
note_on channel=0 note=70 velocity=0 time=35
note_on channel=0 note=60 velocity=0 time=40
note_on channel=0 note=68 velocity=0 time=67
note_on channel=0 note=64 velocity=69 time=3
note_on channel=0 note=65 velocity=69 time=6
note_on channel=0 note=65 velocity=0 time=41
note_on channel=0 note=62 velocity=79 time=47
note_on channel=0 note=64 velocity=0 time=7
note_on channel=0 note=62 velocity=0 time=97
note_on channel=0 note=64 velocity=69 time=24
note_on channel=0 note=70 velocity=40 time=28
note_on channel=0 note=70 velocity=0 time=86
note_on channel=0 note=58 velocity=64 time=6
note_on channel=0 note=64 velocity=0 time=6
note_on channel=0 note=68 velocity=75 time=80
note_on channel=0 note=58 velocity=0 time=83
note_on channel=0 note=64 velocity=89 time=65
note_on channel=0 note=57 velocity=34 time=48
note_on channel=0 note=68 velocity=0 time=1
note_on channel=0 note=55 velocity=33 time=7
note_on channel=0 note=57 velocity=0 time=39
note_on channel=0 note=55 velocity=0 time=48
note_on channel=0 note=64 velocity=0 time=16
note_on channel=0 note=58 velocity=72 time=13
note_on channel=0 note=58 velocity=0 time=152
note_on channel=0 note=71 velocity=72 time=17
note_on channel=0 note=69 velocity=78 time=11
note_on channel=0 note=69 velocity=0 time=102
note_on channel=0 note=78 velocity=40 time=49
note_on channel=0 note=75 velocity=57 time=7
note_on channel=0 note=70 velocity=91 time=4
note_on channel=0 note=71 velocity=0 time=13
note_on channel=0 note=75 velocity=0 time=33
note_on channel=0 note=78 velocity=0 time=4
note_on channel=0 note=70 velocity=0 time=43
note_on channel=0 note=75 velocity=70 time=45
note_on channel=0 note=78 velocity=73 time=138
note_on channel=0 note=75 velocity=0 time=50
note_on channel=0 note=72 velocity=75 time=105
note_on channel=0 note=78 velocity=0 time=96
note_on channel=0 note=55 velocity=63 time=45
note_on channel=0 note=72 velocity=0 time=0
note_on channel=0 note=62 velocity=75 time=8
note_on channel=0 note=65 velocity=82 time=1
note_on channel=0 note=59 velocity=61 time=12
control_change channel=0 control=64 value=0 time=82
note_on channel=0 note=72 velocity=69 time=59
note_on channel=0 note=71 velocity=78 time=5
control_change channel=0 control=64 value=127 time=75
note_on channel=0 note=65 velocity=0 time=36
note_on channel=0 note=71 velocity=0 time=0
note_on channel=0 note=75 velocity=68 time=35
note_on channel=0 note=72 velocity=0 time=14
note_on channel=0 note=62 velocity=0 time=49
note_on channel=0 note=62 velocity=60 time=77
note_on channel=0 note=67 velocity=84 time=4
note_on channel=0 note=75 velocity=0 time=34
note_on channel=0 note=67 velocity=0 time=40
note_on channel=0 note=55 velocity=0 time=30
note_on channel=0 note=78 velocity=73 time=16
note_on channel=0 note=71 velocity=78 time=4
note_on channel=0 note=59 velocity=0 time=25
note_on channel=0 note=62 velocity=0 time=6
note_on channel=0 note=71 velocity=0 time=107
note_on channel=0 note=54 velocity=56 time=16
note_on channel=0 note=66 velocity=79 time=8
note_on channel=0 note=56 velocity=59 time=6
note_on channel=0 note=68 velocity=73 time=13
note_on channel=0 note=54 velocity=0 time=27
note_on channel=0 note=68 velocity=0 time=8
note_on channel=0 note=78 velocity=0 time=0
note_on channel=0 note=66 velocity=0 time=37
note_on channel=0 note=56 velocity=0 time=19
note_on channel=0 note=68 velocity=66 time=39
note_on channel=0 note=75 velocity=48 time=23
note_on channel=0 note=75 velocity=0 time=66
note_on channel=0 note=68 velocity=0 time=23
note_on channel=0 note=61 velocity=69 time=34
note_on channel=0 note=67 velocity=82 time=3
note_on channel=0 note=57 velocity=63 time=16
note_on channel=0 note=63 velocity=57 time=8
control_change channel=0 control=64 value=0 time=5
note_on channel=0 note=58 velocity=47 time=10
note_on channel=0 note=63 velocity=0 time=24
note_on channel=0 note=58 velocity=0 time=35
note_on channel=0 note=69 velocity=78 time=20
note_on channel=0 note=67 velocity=0 time=52
note_on channel=0 note=57 velocity=0 time=22
control_change channel=0 control=64 value=127 time=38
note_on channel=0 note=63 velocity=59 time=52
note_on channel=0 note=69 velocity=0 time=26
note_on channel=0 note=75 velocity=58 time=94
note_on channel=0 note=80 velocity=60 time=13
note_on channel=0 note=78 velocity=38 time=21
note_on channel=0 note=61 velocity=0 time=18
note_on channel=0 note=63 velocity=0 time=8
note_on channel=0 note=75 velocity=0 time=20
note_on channel=0 note=78 velocity=0 time=16
note_on channel=0 note=66 velocity=87 time=61
note_on channel=0 note=66 velocity=0 time=73
note_on channel=0 note=68 velocity=82 time=46
note_on channel=0 note=80 velocity=0 time=5
note_on channel=0 note=68 velocity=0 time=80
note_on channel=0 note=80 velocity=61 time=35
note_on channel=0 note=67 velocity=75 time=187
note_on channel=0 note=63 velocity=79 time=1
note_on channel=0 note=57 velocity=63 time=5
control_change channel=0 control=64 value=0 time=10
note_on channel=0 note=65 velocity=57 time=2
note_on channel=0 note=61 velocity=66 time=6
note_on channel=0 note=80 velocity=0 time=35
note_on channel=0 note=65 velocity=0 time=15
note_on channel=0 note=69 velocity=58 time=78
note_on channel=0 note=71 velocity=60 time=15
note_on channel=0 note=67 velocity=0 time=41
note_on channel=0 note=71 velocity=0 time=5
note_on channel=0 note=57 velocity=0 time=17
note_on channel=0 note=69 velocity=0 time=28
note_on channel=0 note=73 velocity=63 time=44
control_change channel=0 control=64 value=127 time=12
note_on channel=0 note=61 velocity=0 time=15
note_on channel=0 note=63 velocity=0 time=3
note_on channel=0 note=66 velocity=79 time=108
note_on channel=0 note=68 velocity=41 time=43
note_on channel=0 note=73 velocity=0 time=5
note_on channel=0 note=66 velocity=0 time=27
note_on channel=0 note=69 velocity=78 time=25
note_on channel=0 note=78 velocity=75 time=0
note_on channel=0 note=68 velocity=0 time=1
note_on channel=0 note=75 velocity=43 time=28
note_on channel=0 note=75 velocity=0 time=62
note_on channel=0 note=69 velocity=0 time=12
note_on channel=0 note=56 velocity=62 time=63
note_on channel=0 note=52 velocity=58 time=20
note_on channel=0 note=64 velocity=65 time=4
note_on channel=0 note=53 velocity=66 time=1
note_on channel=0 note=64 velocity=0 time=41
control_change channel=0 control=64 value=0 time=15
note_on channel=0 note=53 velocity=0 time=66
note_on channel=0 note=52 velocity=0 time=11
note_on channel=0 note=56 velocity=0 time=27
note_on channel=0 note=70 velocity=57 time=11
note_on channel=0 note=80 velocity=51 time=27
note_on channel=0 note=68 velocity=45 time=7
note_on channel=0 note=70 velocity=0 time=20
note_on channel=0 note=56 velocity=61 time=5
note_on channel=0 note=52 velocity=50 time=24
note_on channel=0 note=59 velocity=46 time=0
note_on channel=0 note=68 velocity=0 time=14
note_on channel=0 note=59 velocity=0 time=53
note_on channel=0 note=56 velocity=0 time=28
control_change channel=0 control=64 value=127 time=40
note_on channel=0 note=59 velocity=58 time=49
note_on channel=0 note=53 velocity=44 time=2
note_on channel=0 note=56 velocity=48 time=17
note_on channel=0 note=64 velocity=65 time=26
note_on channel=0 note=80 velocity=0 time=76
note_on channel=0 note=53 velocity=0 time=16
note_on channel=0 note=56 velocity=0 time=33
note_on channel=0 note=64 velocity=0 time=15
note_on channel=0 note=59 velocity=0 time=21
note_on channel=0 note=78 velocity=0 time=3
note_on channel=0 note=53 velocity=29 time=49
note_on channel=0 note=56 velocity=57 time=8
note_on channel=0 note=59 velocity=60 time=5
note_on channel=0 note=52 velocity=0 time=103
note_on channel=0 note=53 velocity=0 time=21
note_on channel=0 note=59 velocity=0 time=20
note_on channel=0 note=68 velocity=82 time=26
note_on channel=0 note=56 velocity=0 time=35
note_on channel=0 note=75 velocity=39 time=8
note_on channel=0 note=75 velocity=0 time=75
note_on channel=0 note=58 velocity=93 time=42
note_on channel=0 note=68 velocity=0 time=5
note_on channel=0 note=46 velocity=72 time=16
note_on channel=0 note=46 velocity=0 time=35
note_on channel=0 note=58 velocity=0 time=32
note_on channel=0 note=65 velocity=60 time=72
note_on channel=0 note=67 velocity=63 time=1
note_on channel=0 note=67 velocity=0 time=77
note_on channel=0 note=65 velocity=0 time=39
control_change channel=0 control=64 value=0 time=7
note_on channel=0 note=45 velocity=79 time=29
note_on channel=0 note=77 velocity=72 time=128
note_on channel=0 note=65 velocity=63 time=6
note_on channel=0 note=67 velocity=69 time=18
note_on channel=0 note=67 velocity=0 time=33
control_change channel=0 control=64 value=127 time=26
note_on channel=0 note=57 velocity=85 time=91
note_on channel=0 note=51 velocity=72 time=8
note_on channel=0 note=49 velocity=72 time=11
note_on channel=0 note=65 velocity=0 time=1
note_on channel=0 note=77 velocity=0 time=63
note_on channel=0 note=57 velocity=0 time=20
note_on channel=0 note=51 velocity=0 time=59
note_on channel=0 note=45 velocity=0 time=7
note_on channel=0 note=49 velocity=0 time=28
note_on channel=0 note=63 velocity=72 time=7
note_on channel=0 note=72 velocity=34 time=45
note_on channel=0 note=63 velocity=0 time=44
note_on channel=0 note=72 velocity=0 time=15
note_on channel=0 note=51 velocity=66 time=41
note_on channel=0 note=39 velocity=78 time=9
note_on channel=0 note=39 velocity=0 time=32
note_on channel=0 note=39 velocity=53 time=22
note_on channel=0 note=51 velocity=0 time=30
note_on channel=0 note=39 velocity=0 time=38
control_change channel=0 control=64 value=0 time=34
note_on channel=0 note=77 velocity=72 time=15
note_on channel=0 note=65 velocity=61 time=12
note_on channel=0 note=67 velocity=57 time=27
note_on channel=0 note=67 velocity=0 time=49
note_on channel=0 note=65 velocity=0 time=41
note_on channel=0 note=35 velocity=90 time=59
note_on channel=0 note=77 velocity=0 time=23
note_on channel=0 note=73 velocity=41 time=180
note_on channel=0 note=63 velocity=61 time=7
note_on channel=0 note=73 velocity=0 time=55
note_on channel=0 note=63 velocity=0 time=18
control_change channel=0 control=64 value=127 time=1
note_on channel=0 note=47 velocity=48 time=17
note_on channel=0 note=45 velocity=41 time=34
note_on channel=0 note=45 velocity=0 time=57
note_on channel=0 note=47 velocity=0 time=49
note_on channel=0 note=37 velocity=78 time=31
note_on channel=0 note=35 velocity=0 time=87
note_on channel=0 note=48 velocity=79 time=19
note_on channel=0 note=37 velocity=0 time=33
note_on channel=0 note=48 velocity=0 time=16
note_on channel=0 note=62 velocity=75 time=72
note_on channel=0 note=69 velocity=63 time=10
note_on channel=0 note=62 velocity=0 time=71
note_on channel=0 note=69 velocity=0 time=38
note_on channel=0 note=48 velocity=57 time=39
note_on channel=0 note=59 velocity=66 time=35
note_on channel=0 note=50 velocity=47 time=14
note_on channel=0 note=56 velocity=36 time=3
control_change channel=0 control=64 value=0 time=32
note_on channel=0 note=56 velocity=0 time=34
note_on channel=0 note=59 velocity=0 time=24
note_on channel=0 note=56 velocity=62 time=41
note_on channel=0 note=63 velocity=57 time=16
note_on channel=0 note=69 velocity=39 time=27
control_change channel=0 control=64 value=127 time=10
note_on channel=0 note=63 velocity=0 time=11
note_on channel=0 note=54 velocity=59 time=36
note_on channel=0 note=69 velocity=0 time=9
note_on channel=0 note=56 velocity=0 time=34
note_on channel=0 note=54 velocity=0 time=50
note_on channel=0 note=64 velocity=57 time=13
note_on channel=0 note=48 velocity=0 time=2
note_on channel=0 note=59 velocity=66 time=4
note_on channel=0 note=50 velocity=0 time=1
note_on channel=0 note=50 velocity=75 time=78
note_on channel=0 note=59 velocity=0 time=57
note_on channel=0 note=64 velocity=0 time=49
note_on channel=0 note=50 velocity=0 time=34
note_on channel=0 note=40 velocity=69 time=11
note_on channel=0 note=38 velocity=66 time=3
note_on channel=0 note=39 velocity=40 time=11
note_on channel=0 note=71 velocity=65 time=52
control_change channel=0 control=64 value=0 time=1
note_on channel=0 note=39 velocity=0 time=13
note_on channel=0 note=62 velocity=58 time=17
note_on channel=0 note=38 velocity=0 time=14
note_on channel=0 note=62 velocity=0 time=25
note_on channel=0 note=50 velocity=79 time=8
note_on channel=0 note=50 velocity=0 time=28
note_on channel=0 note=71 velocity=0 time=60
control_change channel=0 control=64 value=127 time=13
note_on channel=0 note=46 velocity=66 time=64
note_on channel=0 note=44 velocity=62 time=35
note_on channel=0 note=43 velocity=63 time=8
note_on channel=0 note=44 velocity=0 time=71
note_on channel=0 note=46 velocity=0 time=1
note_on channel=0 note=40 velocity=0 time=1
note_on channel=0 note=78 velocity=66 time=15
note_on channel=0 note=43 velocity=0 time=14
note_on channel=0 note=78 velocity=0 time=98
note_on channel=0 note=57 velocity=58 time=50
note_on channel=0 note=51 velocity=39 time=68
note_on channel=0 note=57 velocity=0 time=71
note_on channel=0 note=47 velocity=55 time=54
note_on channel=0 note=48 velocity=56 time=2
control_change channel=0 control=64 value=0 time=11
note_on channel=0 note=65 velocity=63 time=69
note_on channel=0 note=54 velocity=39 time=4
note_on channel=0 note=72 velocity=57 time=25
note_on channel=0 note=65 velocity=0 time=68
control_change channel=0 control=64 value=127 time=35
note_on channel=0 note=47 velocity=0 time=16
note_on channel=0 note=60 velocity=65 time=12
note_on channel=0 note=59 velocity=72 time=1
note_on channel=0 note=72 velocity=0 time=3
note_on channel=0 note=48 velocity=0 time=8
note_on channel=0 note=51 velocity=0 time=21
note_on channel=0 note=54 velocity=0 time=9
note_on channel=0 note=60 velocity=0 time=48
note_on channel=0 note=59 velocity=0 time=25
note_on channel=0 note=67 velocity=75 time=89
note_on channel=0 note=58 velocity=61 time=68
note_on channel=0 note=67 velocity=0 time=30
note_on channel=0 note=58 velocity=0 time=6
note_on channel=0 note=57 velocity=56 time=14
note_on channel=0 note=59 velocity=29 time=31
note_on channel=0 note=67 velocity=48 time=65
note_on channel=0 note=70 velocity=28 time=2
note_on channel=0 note=59 velocity=0 time=26
note_on channel=0 note=57 velocity=0 time=3
note_on channel=0 note=70 velocity=0 time=17
note_on channel=0 note=68 velocity=66 time=97
note_on channel=0 note=69 velocity=66 time=94
note_on channel=0 note=68 velocity=0 time=15
note_on channel=0 note=74 velocity=53 time=30
note_on channel=0 note=71 velocity=51 time=11
note_on channel=0 note=69 velocity=0 time=15
note_on channel=0 note=67 velocity=0 time=12
note_on channel=0 note=71 velocity=0 time=23
note_on channel=0 note=80 velocity=63 time=35
note_on channel=0 note=82 velocity=64 time=21
note_on channel=0 note=79 velocity=40 time=66
note_on channel=0 note=80 velocity=0 time=49
note_on channel=0 note=84 velocity=61 time=27
note_on channel=0 note=79 velocity=0 time=5
note_on channel=0 note=84 velocity=0 time=64
note_on channel=0 note=82 velocity=0 time=18
note_on channel=0 note=82 velocity=75 time=47
note_on channel=0 note=96 velocity=63 time=2
note_on channel=0 note=74 velocity=0 time=5
note_on channel=0 note=82 velocity=0 time=25
note_on channel=0 note=96 velocity=0 time=28
note_on channel=0 note=72 velocity=78 time=80
note_on channel=0 note=62 velocity=61 time=22
note_on channel=0 note=63 velocity=48 time=19
note_on channel=0 note=66 velocity=38 time=14
note_on channel=0 note=63 velocity=0 time=43
note_on channel=0 note=72 velocity=0 time=3
note_on channel=0 note=66 velocity=0 time=9
note_on channel=0 note=62 velocity=0 time=41
note_on channel=0 note=89 velocity=84 time=7
note_on channel=0 note=77 velocity=58 time=23
note_on channel=0 note=79 velocity=58 time=10
control_change channel=0 control=64 value=0 time=18
note_on channel=0 note=79 velocity=0 time=78
note_on channel=0 note=70 velocity=64 time=16
note_on channel=0 note=72 velocity=61 time=2
note_on channel=0 note=62 velocity=53 time=1
note_on channel=0 note=60 velocity=47 time=1
note_on channel=0 note=66 velocity=58 time=7
note_on channel=0 note=77 velocity=0 time=33
control_change channel=0 control=64 value=127 time=21
note_on channel=0 note=72 velocity=0 time=4
note_on channel=0 note=70 velocity=0 time=66
note_on channel=0 note=66 velocity=0 time=55
note_on channel=0 note=79 velocity=54 time=13
note_on channel=0 note=60 velocity=0 time=78
note_on channel=0 note=63 velocity=39 time=21
note_on channel=0 note=71 velocity=32 time=0
note_on channel=0 note=79 velocity=0 time=1
note_on channel=0 note=89 velocity=0 time=53
note_on channel=0 note=71 velocity=0 time=2
note_on channel=0 note=85 velocity=63 time=8
note_on channel=0 note=66 velocity=46 time=12
note_on channel=0 note=63 velocity=0 time=6
note_on channel=0 note=66 velocity=0 time=50
note_on channel=0 note=62 velocity=0 time=9
note_on channel=0 note=79 velocity=47 time=12
note_on channel=0 note=79 velocity=0 time=105
note_on channel=0 note=85 velocity=0 time=7
note_on channel=0 note=70 velocity=70 time=38
note_on channel=0 note=72 velocity=60 time=9
note_on channel=0 note=74 velocity=52 time=5
note_on channel=0 note=67 velocity=61 time=24
note_on channel=0 note=63 velocity=46 time=10
note_on channel=0 note=61 velocity=27 time=4
note_on channel=0 note=78 velocity=41 time=1
note_on channel=0 note=72 velocity=0 time=4
note_on channel=0 note=74 velocity=0 time=11
note_on channel=0 note=61 velocity=0 time=39
note_on channel=0 note=78 velocity=0 time=0
note_on channel=0 note=70 velocity=0 time=8
note_on channel=0 note=67 velocity=0 time=2
note_on channel=0 note=63 velocity=0 time=12
note_on channel=0 note=85 velocity=58 time=62
note_on channel=0 note=75 velocity=75 time=22
note_on channel=0 note=75 velocity=0 time=110
note_on channel=0 note=59 velocity=66 time=24
note_on channel=0 note=85 velocity=0 time=5
note_on channel=0 note=69 velocity=63 time=5
note_on channel=0 note=66 velocity=58 time=8
note_on channel=0 note=63 velocity=59 time=3
control_change channel=0 control=64 value=0 time=79
note_on channel=0 note=88 velocity=74 time=8
note_on channel=0 note=76 velocity=69 time=6
note_on channel=0 note=63 velocity=0 time=65
note_on channel=0 note=66 velocity=0 time=0
note_on channel=0 note=69 velocity=0 time=4
control_change channel=0 control=64 value=127 time=75
note_on channel=0 note=66 velocity=63 time=0
note_on channel=0 note=88 velocity=0 time=7
note_on channel=0 note=63 velocity=57 time=6
note_on channel=0 note=71 velocity=57 time=22
note_on channel=0 note=76 velocity=0 time=2
note_on channel=0 note=71 velocity=0 time=45
note_on channel=0 note=59 velocity=0 time=61
note_on channel=0 note=66 velocity=0 time=1
note_on channel=0 note=63 velocity=0 time=41
note_on channel=0 note=78 velocity=66 time=26
note_on channel=0 note=70 velocity=66 time=23
note_on channel=0 note=70 velocity=0 time=55
note_on channel=0 note=78 velocity=0 time=58
note_on channel=0 note=66 velocity=64 time=19
note_on channel=0 note=71 velocity=63 time=1
note_on channel=0 note=66 velocity=0 time=53
note_on channel=0 note=71 velocity=0 time=3
note_on channel=0 note=72 velocity=72 time=100
note_on channel=0 note=81 velocity=78 time=0
note_on channel=0 note=72 velocity=0 time=90
note_on channel=0 note=68 velocity=52 time=8
note_on channel=0 note=67 velocity=58 time=10
note_on channel=0 note=81 velocity=0 time=3
note_on channel=0 note=68 velocity=0 time=36
note_on channel=0 note=67 velocity=0 time=4
note_on channel=0 note=80 velocity=82 time=31
note_on channel=0 note=78 velocity=47 time=47
note_on channel=0 note=71 velocity=54 time=15
note_on channel=0 note=78 velocity=0 time=43
note_on channel=0 note=71 velocity=0 time=5
note_on channel=0 note=80 velocity=0 time=42
note_on channel=0 note=69 velocity=69 time=23
note_on channel=0 note=60 velocity=53 time=29
note_on channel=0 note=61 velocity=35 time=0
note_on channel=0 note=66 velocity=53 time=107
note_on channel=0 note=65 velocity=61 time=17
note_on channel=0 note=69 velocity=0 time=8
note_on channel=0 note=67 velocity=43 time=8
note_on channel=0 note=60 velocity=0 time=7
note_on channel=0 note=66 velocity=0 time=7
control_change channel=0 control=64 value=0 time=3
note_on channel=0 note=70 velocity=51 time=7
note_on channel=0 note=73 velocity=37 time=22
note_on channel=0 note=67 velocity=0 time=16
note_on channel=0 note=65 velocity=0 time=1
control_change channel=0 control=64 value=127 time=61
note_on channel=0 note=70 velocity=0 time=3
note_on channel=0 note=61 velocity=0 time=4
note_on channel=0 note=59 velocity=85 time=77
note_on channel=0 note=73 velocity=0 time=15
note_on channel=0 note=52 velocity=41 time=21
note_on channel=0 note=52 velocity=0 time=59
control_change channel=0 control=64 value=0 time=30
note_on channel=0 note=59 velocity=0 time=21
note_on channel=0 note=79 velocity=87 time=15
note_on channel=0 note=69 velocity=78 time=7
control_change channel=0 control=64 value=127 time=60
note_on channel=0 note=60 velocity=89 time=101
note_on channel=0 note=69 velocity=0 time=6
note_on channel=0 note=79 velocity=0 time=12
note_on channel=0 note=62 velocity=39 time=37
note_on channel=0 note=60 velocity=0 time=62
note_on channel=0 note=62 velocity=0 time=15
note_on channel=0 note=73 velocity=70 time=49
note_on channel=0 note=63 velocity=85 time=15
note_on channel=0 note=73 velocity=0 time=101
note_on channel=0 note=63 velocity=0 time=8
note_on channel=0 note=74 velocity=84 time=27
note_on channel=0 note=74 velocity=0 time=158
note_on channel=0 note=83 velocity=91 time=34
note_on channel=0 note=82 velocity=49 time=18
note_on channel=0 note=72 velocity=65 time=3
note_on channel=0 note=74 velocity=63 time=8
note_on channel=0 note=82 velocity=0 time=47
note_on channel=0 note=72 velocity=0 time=28
note_on channel=0 note=48 velocity=85 time=69
note_on channel=0 note=74 velocity=0 time=29
note_on channel=0 note=83 velocity=0 time=7
note_on channel=0 note=71 velocity=63 time=143
note_on channel=0 note=72 velocity=61 time=8
note_on channel=0 note=64 velocity=66 time=2
note_on channel=0 note=71 velocity=0 time=91
note_on channel=0 note=72 velocity=0 time=7
note_on channel=0 note=60 velocity=72 time=21
note_on channel=0 note=59 velocity=79 time=6
note_on channel=0 note=64 velocity=0 time=1
note_on channel=0 note=56 velocity=48 time=79
note_on channel=0 note=60 velocity=0 time=26
note_on channel=0 note=59 velocity=0 time=11
note_on channel=0 note=67 velocity=69 time=17
note_on channel=0 note=60 velocity=53 time=13
note_on channel=0 note=56 velocity=0 time=1
note_on channel=0 note=66 velocity=64 time=7
note_on channel=0 note=62 velocity=60 time=10
note_on channel=0 note=48 velocity=0 time=17
note_on channel=0 note=62 velocity=0 time=30
note_on channel=0 note=66 velocity=0 time=5
note_on channel=0 note=48 velocity=63 time=24
note_on channel=0 note=60 velocity=0 time=4
note_on channel=0 note=49 velocity=61 time=2
note_on channel=0 note=56 velocity=51 time=11
note_on channel=0 note=67 velocity=0 time=26
note_on channel=0 note=56 velocity=0 time=17
note_on channel=0 note=62 velocity=57 time=51
note_on channel=0 note=60 velocity=75 time=1
note_on channel=0 note=66 velocity=52 time=23
note_on channel=0 note=49 velocity=0 time=1
note_on channel=0 note=66 velocity=0 time=51
note_on channel=0 note=49 velocity=36 time=25
note_on channel=0 note=56 velocity=75 time=5
note_on channel=0 note=62 velocity=0 time=34
note_on channel=0 note=60 velocity=0 time=4
control_change channel=0 control=64 value=0 time=53
note_on channel=0 note=66 velocity=82 time=29
note_on channel=0 note=60 velocity=65 time=9
note_on channel=0 note=62 velocity=39 time=33
note_on channel=0 note=62 velocity=0 time=53
control_change channel=0 control=64 value=127 time=20
note_on channel=0 note=59 velocity=72 time=29
note_on channel=0 note=60 velocity=0 time=0
note_on channel=0 note=57 velocity=85 time=6
note_on channel=0 note=49 velocity=0 time=36
note_on channel=0 note=66 velocity=0 time=16
note_on channel=0 note=72 velocity=87 time=66
note_on channel=0 note=60 velocity=75 time=11
note_on channel=0 note=59 velocity=0 time=7
note_on channel=0 note=62 velocity=79 time=5
note_on channel=0 note=57 velocity=0 time=1
note_on channel=0 note=56 velocity=0 time=15
note_on channel=0 note=62 velocity=0 time=17
note_on channel=0 note=60 velocity=0 time=49
note_on channel=0 note=54 velocity=85 time=26
note_on channel=0 note=72 velocity=0 time=10
note_on channel=0 note=49 velocity=50 time=5
note_on channel=0 note=49 velocity=0 time=58
note_on channel=0 note=48 velocity=0 time=53
note_on channel=0 note=54 velocity=0 time=39
note_on channel=0 note=56 velocity=93 time=25
note_on channel=0 note=63 velocity=57 time=19
note_on channel=0 note=64 velocity=45 time=0
note_on channel=0 note=65 velocity=47 time=12
note_on channel=0 note=65 velocity=0 time=65
note_on channel=0 note=63 velocity=0 time=5
note_on channel=0 note=64 velocity=0 time=9
note_on channel=0 note=56 velocity=0 time=11
note_on channel=0 note=67 velocity=61 time=84
note_on channel=0 note=69 velocity=65 time=4
note_on channel=0 note=72 velocity=82 time=9
note_on channel=0 note=71 velocity=57 time=3
note_on channel=0 note=76 velocity=60 time=95
note_on channel=0 note=71 velocity=0 time=3
note_on channel=0 note=67 velocity=0 time=15
note_on channel=0 note=74 velocity=57 time=1
note_on channel=0 note=74 velocity=0 time=58
note_on channel=0 note=56 velocity=89 time=19
note_on channel=0 note=47 velocity=93 time=11
note_on channel=0 note=54 velocity=69 time=7
note_on channel=0 note=69 velocity=0 time=8
note_on channel=0 note=48 velocity=66 time=6
note_on channel=0 note=57 velocity=44 time=16
note_on channel=0 note=48 velocity=0 time=22
note_on channel=0 note=76 velocity=0 time=27
note_on channel=0 note=72 velocity=0 time=9
note_on channel=0 note=57 velocity=0 time=12
note_on channel=0 note=47 velocity=0 time=74
note_on channel=0 note=57 velocity=27 time=36
note_on channel=0 note=54 velocity=0 time=1
note_on channel=0 note=56 velocity=0 time=74
note_on channel=0 note=57 velocity=0 time=27
note_on channel=0 note=45 velocity=82 time=33
note_on channel=0 note=43 velocity=63 time=22
note_on channel=0 note=45 velocity=0 time=64
note_on channel=0 note=79 velocity=87 time=79
note_on channel=0 note=69 velocity=65 time=13
note_on channel=0 note=81 velocity=63 time=5
note_on channel=0 note=43 velocity=0 time=2
note_on channel=0 note=71 velocity=78 time=2
note_on channel=0 note=71 velocity=0 time=33
note_on channel=0 note=81 velocity=0 time=8
note_on channel=0 note=29 velocity=104 time=70
note_on channel=0 note=79 velocity=0 time=51
note_on channel=0 note=69 velocity=0 time=30
control_change channel=0 control=64 value=0 time=21
note_on channel=0 note=75 velocity=79 time=44
note_on channel=0 note=65 velocity=75 time=26
note_on channel=0 note=67 velocity=78 time=5
note_on channel=0 note=73 velocity=48 time=10
note_on channel=0 note=29 velocity=0 time=21
control_change channel=0 control=64 value=127 time=8
note_on channel=0 note=73 velocity=0 time=28
note_on channel=0 note=67 velocity=0 time=147
note_on channel=0 note=60 velocity=75 time=2
note_on channel=0 note=65 velocity=0 time=4
note_on channel=0 note=73 velocity=64 time=132
note_on channel=0 note=67 velocity=65 time=12
note_on channel=0 note=58 velocity=45 time=51
note_on channel=0 note=60 velocity=0 time=9
note_on channel=0 note=67 velocity=0 time=50
note_on channel=0 note=50 velocity=56 time=13
note_on channel=0 note=52 velocity=60 time=21
note_on channel=0 note=75 velocity=0 time=40
note_on channel=0 note=73 velocity=0 time=5
note_on channel=0 note=58 velocity=0 time=56
note_on channel=0 note=67 velocity=82 time=4
note_on channel=0 note=81 velocity=65 time=2
note_on channel=0 note=79 velocity=75 time=2
note_on channel=0 note=69 velocity=40 time=40
note_on channel=0 note=69 velocity=0 time=55
note_on channel=0 note=67 velocity=0 time=27
note_on channel=0 note=81 velocity=0 time=10
note_on channel=0 note=64 velocity=85 time=6
note_on channel=0 note=58 velocity=66 time=10
note_on channel=0 note=56 velocity=62 time=11
note_on channel=0 note=79 velocity=0 time=30
note_on channel=0 note=50 velocity=0 time=28
note_on channel=0 note=52 velocity=0 time=30
note_on channel=0 note=79 velocity=46 time=25
note_on channel=0 note=64 velocity=0 time=11
note_on channel=0 note=78 velocity=60 time=1
note_on channel=0 note=56 velocity=0 time=6
note_on channel=0 note=58 velocity=0 time=21
note_on channel=0 note=68 velocity=73 time=4
note_on channel=0 note=79 velocity=0 time=20
note_on channel=0 note=68 velocity=0 time=79
note_on channel=0 note=56 velocity=64 time=8
note_on channel=0 note=68 velocity=82 time=39
note_on channel=0 note=78 velocity=0 time=7
note_on channel=0 note=56 velocity=0 time=77
note_on channel=0 note=68 velocity=0 time=8
note_on channel=0 note=67 velocity=56 time=34
note_on channel=0 note=69 velocity=65 time=2
note_on channel=0 note=76 velocity=56 time=4
note_on channel=0 note=75 velocity=64 time=6
note_on channel=0 note=67 velocity=0 time=80
note_on channel=0 note=75 velocity=0 time=34
note_on channel=0 note=69 velocity=0 time=13
note_on channel=0 note=62 velocity=63 time=44
note_on channel=0 note=67 velocity=47 time=2
note_on channel=0 note=66 velocity=43 time=1
note_on channel=0 note=76 velocity=0 time=27
note_on channel=0 note=64 velocity=46 time=2
note_on channel=0 note=66 velocity=0 time=34
note_on channel=0 note=69 velocity=31 time=0
note_on channel=0 note=67 velocity=0 time=100
note_on channel=0 note=62 velocity=0 time=17
note_on channel=0 note=68 velocity=87 time=3
note_on channel=0 note=78 velocity=61 time=0
note_on channel=0 note=66 velocity=85 time=4
note_on channel=0 note=64 velocity=0 time=6
note_on channel=0 note=67 velocity=69 time=4
note_on channel=0 note=69 velocity=0 time=0
note_on channel=0 note=65 velocity=69 time=4
note_on channel=0 note=75 velocity=61 time=9
note_on channel=0 note=65 velocity=0 time=30
note_on channel=0 note=76 velocity=34 time=2
note_on channel=0 note=67 velocity=0 time=14
note_on channel=0 note=68 velocity=0 time=18
note_on channel=0 note=77 velocity=39 time=13
note_on channel=0 note=66 velocity=0 time=24
note_on channel=0 note=78 velocity=0 time=3
note_on channel=0 note=80 velocity=85 time=125
note_on channel=0 note=75 velocity=0 time=16
note_on channel=0 note=84 velocity=63 time=15
note_on channel=0 note=77 velocity=0 time=1
note_on channel=0 note=76 velocity=0 time=11
note_on channel=0 note=81 velocity=52 time=64
note_on channel=0 note=87 velocity=35 time=0
note_on channel=0 note=88 velocity=67 time=57
note_on channel=0 note=89 velocity=63 time=57
note_on channel=0 note=80 velocity=0 time=15
note_on channel=0 note=88 velocity=0 time=58
note_on channel=0 note=87 velocity=0 time=2
note_on channel=0 note=100 velocity=91 time=20
note_on channel=0 note=91 velocity=70 time=8
note_on channel=0 note=84 velocity=0 time=8
note_on channel=0 note=81 velocity=0 time=25
note_on channel=0 note=91 velocity=0 time=75
note_on channel=0 note=98 velocity=46 time=37
note_on channel=0 note=59 velocity=98 time=22
note_on channel=0 note=98 velocity=0 time=42
note_on channel=0 note=89 velocity=0 time=3
note_on channel=0 note=100 velocity=0 time=26
note_on channel=0 note=83 velocity=84 time=83
note_on channel=0 note=83 velocity=0 time=120
note_on channel=0 note=69 velocity=75 time=18
note_on channel=0 note=61 velocity=57 time=44
note_on channel=0 note=61 velocity=0 time=39
note_on channel=0 note=62 velocity=57 time=10
note_on channel=0 note=62 velocity=0 time=53
note_on channel=0 note=69 velocity=0 time=17
note_on channel=0 note=71 velocity=82 time=18
note_on channel=0 note=77 velocity=72 time=6
note_on channel=0 note=61 velocity=79 time=111
note_on channel=0 note=71 velocity=0 time=8
note_on channel=0 note=77 velocity=0 time=17
note_on channel=0 note=59 velocity=0 time=115
note_on channel=0 note=61 velocity=0 time=11
note_on channel=0 note=79 velocity=87 time=0
note_on channel=0 note=69 velocity=78 time=9
note_on channel=0 note=71 velocity=66 time=19
note_on channel=0 note=71 velocity=0 time=38
note_on channel=0 note=57 velocity=79 time=66
note_on channel=0 note=79 velocity=0 time=17
note_on channel=0 note=69 velocity=0 time=53
note_on channel=0 note=70 velocity=79 time=74
note_on channel=0 note=64 velocity=56 time=38
note_on channel=0 note=57 velocity=0 time=23
note_on channel=0 note=62 velocity=37 time=4
note_on channel=0 note=62 velocity=0 time=57
note_on channel=0 note=64 velocity=0 time=41
note_on channel=0 note=70 velocity=0 time=7
note_on channel=0 note=51 velocity=45 time=5
note_on channel=0 note=60 velocity=79 time=64
note_on channel=0 note=68 velocity=79 time=4
note_on channel=0 note=51 velocity=0 time=6
note_on channel=0 note=45 velocity=56 time=36
control_change channel=0 control=64 value=0 time=146
note_on channel=0 note=60 velocity=0 time=24
note_on channel=0 note=47 velocity=52 time=2
note_on channel=0 note=50 velocity=55 time=38
note_on channel=0 note=68 velocity=0 time=14
note_on channel=0 note=57 velocity=82 time=10
note_on channel=0 note=51 velocity=48 time=19
note_on channel=0 note=53 velocity=32 time=38
note_on channel=0 note=50 velocity=0 time=4
note_on channel=0 note=51 velocity=0 time=13
note_on channel=0 note=53 velocity=0 time=22
control_change channel=0 control=64 value=127 time=6
note_on channel=0 note=60 velocity=89 time=20
note_on channel=0 note=68 velocity=85 time=8
note_on channel=0 note=66 velocity=68 time=21
note_on channel=0 note=57 velocity=0 time=6
note_on channel=0 note=45 velocity=0 time=56
note_on channel=0 note=47 velocity=0 time=18
note_on channel=0 note=60 velocity=0 time=67
note_on channel=0 note=68 velocity=0 time=3
note_on channel=0 note=66 velocity=0 time=5
note_on channel=0 note=51 velocity=62 time=4
note_on channel=0 note=53 velocity=75 time=3
note_on channel=0 note=52 velocity=72 time=6
note_on channel=0 note=51 velocity=0 time=27
note_on channel=0 note=52 velocity=0 time=6
note_on channel=0 note=53 velocity=0 time=41
note_on channel=0 note=53 velocity=75 time=68
note_on channel=0 note=58 velocity=85 time=5
note_on channel=0 note=56 velocity=85 time=4
note_on channel=0 note=55 velocity=61 time=9
note_on channel=0 note=55 velocity=0 time=43
note_on channel=0 note=53 velocity=0 time=67
note_on channel=0 note=58 velocity=0 time=7
note_on channel=0 note=43 velocity=89 time=15
note_on channel=0 note=56 velocity=0 time=5
note_on channel=0 note=43 velocity=0 time=130
note_on channel=0 note=56 velocity=89 time=38
note_on channel=0 note=54 velocity=79 time=18
note_on channel=0 note=47 velocity=79 time=7
note_on channel=0 note=53 velocity=60 time=13
note_on channel=0 note=51 velocity=51 time=40
note_on channel=0 note=52 velocity=38 time=23
note_on channel=0 note=51 velocity=0 time=68
note_on channel=0 note=55 velocity=61 time=32
note_on channel=0 note=47 velocity=0 time=1
note_on channel=0 note=56 velocity=0 time=10
note_on channel=0 note=54 velocity=0 time=23
note_on channel=0 note=68 velocity=85 time=15
note_on channel=0 note=53 velocity=0 time=16
note_on channel=0 note=52 velocity=0 time=10
note_on channel=0 note=70 velocity=60 time=0
note_on channel=0 note=67 velocity=72 time=1
note_on channel=0 note=73 velocity=61 time=2
note_on channel=0 note=55 velocity=0 time=14
note_on channel=0 note=73 velocity=0 time=28
note_on channel=0 note=70 velocity=0 time=13
note_on channel=0 note=73 velocity=58 time=36
note_on channel=0 note=75 velocity=58 time=43
note_on channel=0 note=76 velocity=72 time=73
note_on channel=0 note=79 velocity=78 time=21
note_on channel=0 note=69 velocity=38 time=2
note_on channel=0 note=67 velocity=0 time=28
note_on channel=0 note=68 velocity=0 time=11
note_on channel=0 note=69 velocity=0 time=16
note_on channel=0 note=75 velocity=0 time=33
note_on channel=0 note=76 velocity=0 time=0
note_on channel=0 note=73 velocity=0 time=24
note_on channel=0 note=101 velocity=81 time=1
note_on channel=0 note=89 velocity=70 time=7
note_on channel=0 note=97 velocity=60 time=2
note_on channel=0 note=79 velocity=0 time=7
note_on channel=0 note=88 velocity=104 time=148
note_on channel=0 note=89 velocity=0 time=10
note_on channel=0 note=97 velocity=0 time=35
note_on channel=0 note=97 velocity=60 time=77
note_on channel=0 note=88 velocity=0 time=11
note_on channel=0 note=89 velocity=58 time=10
note_on channel=0 note=91 velocity=58 time=11
note_on channel=0 note=99 velocity=39 time=0
note_on channel=0 note=101 velocity=0 time=17
note_on channel=0 note=99 velocity=0 time=42
note_on channel=0 note=94 velocity=68 time=55
note_on channel=0 note=89 velocity=0 time=87
note_on channel=0 note=91 velocity=0 time=8
note_on channel=0 note=75 velocity=63 time=69
note_on channel=0 note=97 velocity=0 time=4
note_on channel=0 note=81 velocity=72 time=5
note_on channel=0 note=94 velocity=0 time=3
note_on channel=0 note=71 velocity=58 time=1
note_on channel=0 note=70 velocity=48 time=14
note_on channel=0 note=77 velocity=49 time=17
note_on channel=0 note=77 velocity=0 time=82
note_on channel=0 note=81 velocity=0 time=32
note_on channel=0 note=84 velocity=66 time=4
note_on channel=0 note=70 velocity=0 time=24
note_on channel=0 note=75 velocity=0 time=0
note_on channel=0 note=79 velocity=65 time=23
note_on channel=0 note=80 velocity=56 time=5
note_on channel=0 note=80 velocity=0 time=52
note_on channel=0 note=84 velocity=0 time=17
note_on channel=0 note=75 velocity=58 time=14
note_on channel=0 note=77 velocity=65 time=5
note_on channel=0 note=79 velocity=0 time=33
note_on channel=0 note=77 velocity=0 time=62
note_on channel=0 note=82 velocity=75 time=15
note_on channel=0 note=75 velocity=0 time=15
note_on channel=0 note=71 velocity=0 time=23
note_on channel=0 note=77 velocity=66 time=2
note_on channel=0 note=77 velocity=0 time=55
note_on channel=0 note=77 velocity=56 time=37
note_on channel=0 note=85 velocity=82 time=13
note_on channel=0 note=83 velocity=41 time=44
note_on channel=0 note=82 velocity=0 time=16
note_on channel=0 note=77 velocity=0 time=31
note_on channel=0 note=63 velocity=82 time=1
note_on channel=0 note=59 velocity=69 time=1
note_on channel=0 note=71 velocity=78 time=1
note_on channel=0 note=83 velocity=0 time=3
note_on channel=0 note=69 velocity=78 time=9
note_on channel=0 note=85 velocity=0 time=32
control_change channel=0 control=64 value=0 time=3
note_on channel=0 note=91 velocity=91 time=80
note_on channel=0 note=79 velocity=84 time=1
note_on channel=0 note=69 velocity=0 time=11
note_on channel=0 note=90 velocity=48 time=12
note_on channel=0 note=63 velocity=0 time=2
note_on channel=0 note=64 velocity=38 time=21
note_on channel=0 note=89 velocity=37 time=1
control_change channel=0 control=64 value=127 time=2
note_on channel=0 note=90 velocity=0 time=28
note_on channel=0 note=71 velocity=0 time=11
note_on channel=0 note=89 velocity=0 time=7
note_on channel=0 note=64 velocity=0 time=22
note_on channel=0 note=87 velocity=49 time=19
note_on channel=0 note=79 velocity=0 time=54
note_on channel=0 note=64 velocity=60 time=10
note_on channel=0 note=87 velocity=0 time=2
note_on channel=0 note=67 velocity=63 time=6
note_on channel=0 note=72 velocity=66 time=2
note_on channel=0 note=91 velocity=0 time=83
note_on channel=0 note=72 velocity=0 time=9
note_on channel=0 note=93 velocity=74 time=70
note_on channel=0 note=86 velocity=72 time=21
note_on channel=0 note=67 velocity=0 time=28
note_on channel=0 note=64 velocity=0 time=28
note_on channel=0 note=86 velocity=0 time=35
note_on channel=0 note=67 velocity=63 time=14
note_on channel=0 note=74 velocity=82 time=5
note_on channel=0 note=93 velocity=0 time=1
note_on channel=0 note=72 velocity=87 time=5
note_on channel=0 note=64 velocity=61 time=5
note_on channel=0 note=68 velocity=39 time=27
note_on channel=0 note=68 velocity=0 time=51
note_on channel=0 note=60 velocity=21 time=1
note_on channel=0 note=74 velocity=0 time=1
note_on channel=0 note=72 velocity=0 time=1
note_on channel=0 note=59 velocity=0 time=7
note_on channel=0 note=67 velocity=0 time=38
note_on channel=0 note=60 velocity=0 time=17
note_on channel=0 note=64 velocity=0 time=3
note_on channel=0 note=94 velocity=64 time=19
note_on channel=0 note=89 velocity=74 time=197
note_on channel=0 note=88 velocity=55 time=21
note_on channel=0 note=94 velocity=0 time=11
note_on channel=0 note=88 velocity=0 time=62
note_on channel=0 note=89 velocity=0 time=25
note_on channel=0 note=37 velocity=91 time=31
note_on channel=0 note=49 velocity=98 time=1
note_on channel=0 note=100 velocity=91 time=21
note_on channel=0 note=89 velocity=59 time=23
note_on channel=0 note=49 velocity=0 time=35
note_on channel=0 note=89 velocity=0 time=8
note_on channel=0 note=100 velocity=0 time=19
note_on channel=0 note=37 velocity=0 time=22
note_on channel=0 note=88 velocity=34 time=65
note_on channel=0 note=88 velocity=0 time=41
note_on channel=0 note=81 velocity=66 time=14
note_on channel=0 note=83 velocity=75 time=84
note_on channel=0 note=81 velocity=0 time=69
control_change channel=0 control=64 value=0 time=30
note_on channel=0 note=83 velocity=0 time=1
note_on channel=0 note=36 velocity=86 time=11
note_on channel=0 note=24 velocity=80 time=22
note_on channel=0 note=26 velocity=59 time=0
note_on channel=0 note=84 velocity=82 time=26
note_on channel=0 note=26 velocity=0 time=12
note_on channel=0 note=83 velocity=69 time=0
note_on channel=0 note=72 velocity=57 time=22
control_change channel=0 control=64 value=127 time=26
note_on channel=0 note=83 velocity=0 time=22
note_on channel=0 note=84 velocity=0 time=0
note_on channel=0 note=24 velocity=0 time=91
note_on channel=0 note=36 velocity=0 time=31
note_on channel=0 note=69 velocity=75 time=16
note_on channel=0 note=72 velocity=0 time=30
note_on channel=0 note=54 velocity=98 time=140
note_on channel=0 note=69 velocity=0 time=1
note_on channel=0 note=42 velocity=84 time=3
note_on channel=0 note=44 velocity=35 time=52
note_on channel=0 note=54 velocity=0 time=31
note_on channel=0 note=44 velocity=0 time=10
note_on channel=0 note=42 velocity=0 time=13
note_on channel=0 note=81 velocity=75 time=59
note_on channel=0 note=93 velocity=84 time=1
note_on channel=0 note=91 velocity=50 time=24
note_on channel=0 note=91 velocity=0 time=55
note_on channel=0 note=81 velocity=0 time=7
note_on channel=0 note=89 velocity=58 time=50
note_on channel=0 note=87 velocity=52 time=47
note_on channel=0 note=93 velocity=0 time=15
note_on channel=0 note=87 velocity=0 time=140
note_on channel=0 note=89 velocity=0 time=0
note_on channel=0 note=55 velocity=89 time=1
note_on channel=0 note=43 velocity=82 time=3
note_on channel=0 note=81 velocity=84 time=11
note_on channel=0 note=81 velocity=0 time=116
note_on channel=0 note=55 velocity=0 time=39
note_on channel=0 note=43 velocity=0 time=3
note_on channel=0 note=74 velocity=66 time=89
note_on channel=0 note=76 velocity=53 time=111
note_on channel=0 note=74 velocity=0 time=6
note_on channel=0 note=61 velocity=85 time=96
control_change channel=0 control=64 value=0 time=4
note_on channel=0 note=49 velocity=75 time=4
note_on channel=0 note=81 velocity=82 time=20
note_on channel=0 note=69 velocity=58 time=6
note_on channel=0 note=76 velocity=0 time=1
note_on channel=0 note=51 velocity=52 time=6
note_on channel=0 note=69 velocity=0 time=41
note_on channel=0 note=61 velocity=0 time=5
note_on channel=0 note=51 velocity=0 time=1
control_change channel=0 control=64 value=127 time=13
note_on channel=0 note=81 velocity=0 time=50
note_on channel=0 note=49 velocity=0 time=5
note_on channel=0 note=69 velocity=54 time=2
note_on channel=0 note=71 velocity=60 time=5
note_on channel=0 note=71 velocity=0 time=99
note_on channel=0 note=69 velocity=0 time=7
note_on channel=0 note=65 velocity=65 time=6
note_on channel=0 note=66 velocity=70 time=69
note_on channel=0 note=65 velocity=0 time=22
control_change channel=0 control=64 value=0 time=62
note_on channel=0 note=37 velocity=91 time=38
note_on channel=0 note=49 velocity=93 time=3
note_on channel=0 note=68 velocity=68 time=18
note_on channel=0 note=68 velocity=0 time=33
note_on channel=0 note=69 velocity=61 time=0
note_on channel=0 note=66 velocity=0 time=5
note_on channel=0 note=36 velocity=36 time=4
control_change channel=0 control=64 value=127 time=1
note_on channel=0 note=49 velocity=0 time=37
note_on channel=0 note=36 velocity=0 time=11
note_on channel=0 note=37 velocity=0 time=11
note_on channel=0 note=67 velocity=58 time=53
note_on channel=0 note=69 velocity=0 time=23
note_on channel=0 note=65 velocity=52 time=68
note_on channel=0 note=65 velocity=0 time=56
note_on channel=0 note=67 velocity=0 time=16
note_on channel=0 note=68 velocity=32 time=40
control_change channel=0 control=64 value=0 time=25
note_on channel=0 note=68 velocity=0 time=14
note_on channel=0 note=38 velocity=73 time=9
note_on channel=0 note=75 velocity=39 time=6
note_on channel=0 note=50 velocity=82 time=2
note_on channel=0 note=52 velocity=63 time=9
note_on channel=0 note=52 velocity=0 time=39
note_on channel=0 note=75 velocity=0 time=2
control_change channel=0 control=64 value=127 time=11
note_on channel=0 note=84 velocity=82 time=13
note_on channel=0 note=83 velocity=69 time=10
note_on channel=0 note=83 velocity=0 time=41
note_on channel=0 note=50 velocity=0 time=12
note_on channel=0 note=38 velocity=0 time=49
note_on channel=0 note=82 velocity=79 time=10
note_on channel=0 note=84 velocity=0 time=53
note_on channel=0 note=72 velocity=60 time=51
note_on channel=0 note=82 velocity=0 time=0
note_on channel=0 note=74 velocity=51 time=1
note_on channel=0 note=74 velocity=0 time=53
note_on channel=0 note=72 velocity=0 time=36
note_on channel=0 note=67 velocity=69 time=2
note_on channel=0 note=65 velocity=50 time=13
note_on channel=0 note=65 velocity=0 time=61
note_on channel=0 note=36 velocity=90 time=57
note_on channel=0 note=65 velocity=53 time=0
note_on channel=0 note=24 velocity=83 time=2
note_on channel=0 note=68 velocity=64 time=9
control_change channel=0 control=64 value=0 time=33
note_on channel=0 note=65 velocity=0 time=12
note_on channel=0 note=69 velocity=66 time=14
note_on channel=0 note=60 velocity=57 time=29
note_on channel=0 note=68 velocity=0 time=16
control_change channel=0 control=64 value=127 time=25
note_on channel=0 note=60 velocity=0 time=4
note_on channel=0 note=69 velocity=0 time=36
note_on channel=0 note=36 velocity=0 time=13
note_on channel=0 note=24 velocity=0 time=13
note_on channel=0 note=65 velocity=61 time=11
note_on channel=0 note=73 velocity=68 time=74
note_on channel=0 note=65 velocity=0 time=27
note_on channel=0 note=70 velocity=53 time=1
note_on channel=0 note=74 velocity=63 time=3
note_on channel=0 note=67 velocity=0 time=17
note_on channel=0 note=70 velocity=0 time=24
note_on channel=0 note=73 velocity=0 time=24
note_on channel=0 note=74 velocity=0 time=33
note_on channel=0 note=81 velocity=75 time=73
control_change channel=0 control=64 value=0 time=7
note_on channel=0 note=25 velocity=87 time=42
note_on channel=0 note=37 velocity=97 time=7
note_on channel=0 note=80 velocity=63 time=14
note_on channel=0 note=72 velocity=52 time=20
note_on channel=0 note=27 velocity=49 time=2
control_change channel=0 control=64 value=127 time=39
note_on channel=0 note=83 velocity=46 time=8
note_on channel=0 note=27 velocity=0 time=4
note_on channel=0 note=81 velocity=0 time=50
note_on channel=0 note=80 velocity=0 time=26
note_on channel=0 note=37 velocity=0 time=11
note_on channel=0 note=25 velocity=0 time=3
note_on channel=0 note=79 velocity=35 time=33
note_on channel=0 note=72 velocity=0 time=23
note_on channel=0 note=81 velocity=44 time=2
note_on channel=0 note=79 velocity=0 time=23
note_on channel=0 note=83 velocity=0 time=55
note_on channel=0 note=81 velocity=0 time=112
note_on channel=0 note=88 velocity=61 time=26
note_on channel=0 note=89 velocity=58 time=77
note_on channel=0 note=88 velocity=0 time=23
note_on channel=0 note=89 velocity=0 time=22
note_on channel=0 note=91 velocity=77 time=0
note_on channel=0 note=92 velocity=64 time=88
note_on channel=0 note=91 velocity=0 time=6
note_on channel=0 note=92 velocity=0 time=24
note_on channel=0 note=94 velocity=36 time=68
note_on channel=0 note=103 velocity=77 time=7
note_on channel=0 note=94 velocity=0 time=40
note_on channel=0 note=61 velocity=82 time=86
note_on channel=0 note=73 velocity=91 time=10
note_on channel=0 note=103 velocity=0 time=66
note_on channel=0 note=73 velocity=0 time=11
note_on channel=0 note=61 velocity=0 time=17
note_on channel=0 note=107 velocity=87 time=4
note_on channel=0 note=96 velocity=39 time=17
note_on channel=0 note=106 velocity=68 time=7
note_on channel=0 note=105 velocity=37 time=17
note_on channel=0 note=106 velocity=0 time=14
note_on channel=0 note=96 velocity=0 time=20
note_on channel=0 note=105 velocity=0 time=16
note_on channel=0 note=107 velocity=0 time=8
note_on channel=0 note=87 velocity=78 time=93
note_on channel=0 note=85 velocity=52 time=16
note_on channel=0 note=87 velocity=0 time=48
note_on channel=0 note=85 velocity=0 time=4
note_on channel=0 note=95 velocity=67 time=84
note_on channel=0 note=96 velocity=63 time=5
note_on channel=0 note=96 velocity=0 time=45
note_on channel=0 note=88 velocity=37 time=69
note_on channel=0 note=95 velocity=0 time=86
note_on channel=0 note=93 velocity=48 time=25
note_on channel=0 note=88 velocity=0 time=33
note_on channel=0 note=73 velocity=38 time=26
note_on channel=0 note=93 velocity=0 time=22
note_on channel=0 note=67 velocity=63 time=27
note_on channel=0 note=77 velocity=66 time=0
note_on channel=0 note=68 velocity=39 time=51
note_on channel=0 note=77 velocity=0 time=48
note_on channel=0 note=68 velocity=0 time=24
note_on channel=0 note=89 velocity=74 time=2
note_on channel=0 note=79 velocity=39 time=37
note_on channel=0 note=81 velocity=46 time=3
note_on channel=0 note=67 velocity=0 time=1
note_on channel=0 note=73 velocity=0 time=16
note_on channel=0 note=89 velocity=0 time=5
note_on channel=0 note=79 velocity=0 time=49
note_on channel=0 note=67 velocity=61 time=2
note_on channel=0 note=73 velocity=70 time=2
note_on channel=0 note=74 velocity=78 time=7
note_on channel=0 note=81 velocity=0 time=12
note_on channel=0 note=70 velocity=57 time=6
note_on channel=0 note=77 velocity=60 time=52
note_on channel=0 note=74 velocity=0 time=12
note_on channel=0 note=79 velocity=60 time=20
note_on channel=0 note=73 velocity=0 time=5
note_on channel=0 note=70 velocity=0 time=3
note_on channel=0 note=67 velocity=0 time=12
note_on channel=0 note=77 velocity=0 time=64
note_on channel=0 note=66 velocity=70 time=33
note_on channel=0 note=61 velocity=59 time=4
note_on channel=0 note=69 velocity=65 time=2
note_on channel=0 note=71 velocity=63 time=2
note_on channel=0 note=68 velocity=60 time=6
note_on channel=0 note=79 velocity=0 time=25
note_on channel=0 note=63 velocity=40 time=2
note_on channel=0 note=69 velocity=0 time=9
note_on channel=0 note=68 velocity=0 time=4
note_on channel=0 note=71 velocity=0 time=1
note_on channel=0 note=66 velocity=0 time=33
note_on channel=0 note=63 velocity=0 time=15
note_on channel=0 note=61 velocity=0 time=27
note_on channel=0 note=82 velocity=63 time=11
note_on channel=0 note=84 velocity=38 time=39
note_on channel=0 note=84 velocity=0 time=52
note_on channel=0 note=66 velocity=64 time=124
note_on channel=0 note=69 velocity=48 time=16
note_on channel=0 note=82 velocity=0 time=9
note_on channel=0 note=66 velocity=0 time=14
note_on channel=0 note=57 velocity=32 time=35
note_on channel=0 note=59 velocity=31 time=0
note_on channel=0 note=69 velocity=0 time=10
note_on channel=0 note=65 velocity=39 time=2
note_on channel=0 note=65 velocity=0 time=65
note_on channel=0 note=77 velocity=57 time=16
note_on channel=0 note=89 velocity=70 time=13
note_on channel=0 note=57 velocity=0 time=8
note_on channel=0 note=77 velocity=0 time=66
note_on channel=0 note=89 velocity=0 time=30
note_on channel=0 note=71 velocity=63 time=41
note_on channel=0 note=66 velocity=64 time=2
note_on channel=0 note=63 velocity=62 time=15
note_on channel=0 note=59 velocity=0 time=55
note_on channel=0 note=71 velocity=0 time=18
note_on channel=0 note=63 velocity=0 time=32
note_on channel=0 note=66 velocity=0 time=9
note_on channel=0 note=76 velocity=69 time=80
note_on channel=0 note=80 velocity=58 time=25
note_on channel=0 note=78 velocity=43 time=19
note_on channel=0 note=76 velocity=0 time=52
note_on channel=0 note=80 velocity=0 time=10
note_on channel=0 note=78 velocity=0 time=3
note_on channel=0 note=74 velocity=57 time=48
note_on channel=0 note=73 velocity=43 time=1
note_on channel=0 note=74 velocity=0 time=48
note_on channel=0 note=73 velocity=0 time=10
note_on channel=0 note=77 velocity=58 time=8
note_on channel=0 note=79 velocity=61 time=7
note_on channel=0 note=84 velocity=58 time=1
note_on channel=0 note=79 velocity=0 time=43
note_on channel=0 note=77 velocity=0 time=2
note_on channel=0 note=84 velocity=0 time=42
note_on channel=0 note=68 velocity=47 time=20
note_on channel=0 note=67 velocity=57 time=10
note_on channel=0 note=73 velocity=49 time=4
note_on channel=0 note=73 velocity=0 time=100
note_on channel=0 note=83 velocity=63 time=7
note_on channel=0 note=95 velocity=47 time=19
note_on channel=0 note=93 velocity=53 time=5
note_on channel=0 note=83 velocity=0 time=80
note_on channel=0 note=75 velocity=64 time=27
note_on channel=0 note=79 velocity=56 time=0
note_on channel=0 note=73 velocity=57 time=34
note_on channel=0 note=93 velocity=0 time=7
note_on channel=0 note=95 velocity=0 time=18
note_on channel=0 note=67 velocity=0 time=27
note_on channel=0 note=92 velocity=84 time=8
note_on channel=0 note=86 velocity=75 time=7
note_on channel=0 note=90 velocity=66 time=3
note_on channel=0 note=79 velocity=0 time=4
note_on channel=0 note=68 velocity=0 time=3
note_on channel=0 note=73 velocity=0 time=29
note_on channel=0 note=75 velocity=0 time=2
note_on channel=0 note=86 velocity=0 time=22
note_on channel=0 note=73 velocity=49 time=62
note_on channel=0 note=81 velocity=84 time=3
note_on channel=0 note=78 velocity=75 time=3
note_on channel=0 note=90 velocity=0 time=18
note_on channel=0 note=92 velocity=0 time=0
note_on channel=0 note=77 velocity=50 time=17
note_on channel=0 note=86 velocity=39 time=18
note_on channel=0 note=84 velocity=57 time=12
note_on channel=0 note=81 velocity=0 time=23
note_on channel=0 note=78 velocity=0 time=5
note_on channel=0 note=79 velocity=69 time=12
note_on channel=0 note=77 velocity=0 time=7
note_on channel=0 note=86 velocity=0 time=3
note_on channel=0 note=73 velocity=0 time=30
note_on channel=0 note=84 velocity=0 time=15
note_on channel=0 note=80 velocity=51 time=48
note_on channel=0 note=68 velocity=85 time=14
note_on channel=0 note=70 velocity=73 time=2
note_on channel=0 note=72 velocity=84 time=3
note_on channel=0 note=82 velocity=52 time=2
note_on channel=0 note=71 velocity=69 time=12
note_on channel=0 note=79 velocity=0 time=3
note_on channel=0 note=80 velocity=0 time=18
note_on channel=0 note=72 velocity=0 time=3
note_on channel=0 note=70 velocity=0 time=5
note_on channel=0 note=71 velocity=0 time=9
note_on channel=0 note=65 velocity=49 time=32
note_on channel=0 note=68 velocity=0 time=10
note_on channel=0 note=81 velocity=66 time=16
note_on channel=0 note=82 velocity=0 time=12
note_on channel=0 note=65 velocity=0 time=17
note_on channel=0 note=74 velocity=52 time=9
note_on channel=0 note=72 velocity=66 time=1
note_on channel=0 note=78 velocity=57 time=9
note_on channel=0 note=81 velocity=0 time=4
note_on channel=0 note=78 velocity=0 time=36
note_on channel=0 note=74 velocity=0 time=4
note_on channel=0 note=73 velocity=58 time=2
note_on channel=0 note=60 velocity=82 time=12
note_on channel=0 note=62 velocity=61 time=21
note_on channel=0 note=56 velocity=57 time=5
note_on channel=0 note=72 velocity=0 time=3
note_on channel=0 note=59 velocity=48 time=5
note_on channel=0 note=73 velocity=0 time=0
note_on channel=0 note=51 velocity=59 time=4
note_on channel=0 note=62 velocity=0 time=29
note_on channel=0 note=56 velocity=0 time=1
note_on channel=0 note=50 velocity=63 time=10
note_on channel=0 note=60 velocity=0 time=8
note_on channel=0 note=59 velocity=0 time=10
note_on channel=0 note=51 velocity=0 time=15
note_on channel=0 note=63 velocity=61 time=8
note_on channel=0 note=50 velocity=0 time=13
note_on channel=0 note=60 velocity=56 time=18
note_on channel=0 note=63 velocity=0 time=9
note_on channel=0 note=60 velocity=0 time=39
note_on channel=0 note=54 velocity=75 time=12
note_on channel=0 note=54 velocity=0 time=72
note_on channel=0 note=46 velocity=69 time=15
note_on channel=0 note=43 velocity=69 time=19
note_on channel=0 note=27 velocity=45 time=26
note_on channel=0 note=39 velocity=48 time=9
note_on channel=0 note=46 velocity=0 time=21
note_on channel=0 note=41 velocity=47 time=22
note_on channel=0 note=49 velocity=72 time=10
note_on channel=0 note=43 velocity=0 time=12
note_on channel=0 note=39 velocity=0 time=10
note_on channel=0 note=46 velocity=49 time=39
note_on channel=0 note=47 velocity=48 time=2
note_on channel=0 note=41 velocity=0 time=17
note_on channel=0 note=44 velocity=72 time=4
note_on channel=0 note=48 velocity=56 time=5
note_on channel=0 note=49 velocity=0 time=1
note_on channel=0 note=47 velocity=0 time=30
note_on channel=0 note=48 velocity=0 time=17
note_on channel=0 note=27 velocity=0 time=3
note_on channel=0 note=46 velocity=0 time=2
note_on channel=0 note=39 velocity=56 time=16
note_on channel=0 note=42 velocity=49 time=11
note_on channel=0 note=42 velocity=0 time=45
note_on channel=0 note=44 velocity=0 time=3
note_on channel=0 note=41 velocity=48 time=15
note_on channel=0 note=27 velocity=42 time=27
note_on channel=0 note=41 velocity=0 time=26
note_on channel=0 note=39 velocity=0 time=47
note_on channel=0 note=27 velocity=0 time=71
note_on channel=0 note=37 velocity=104 time=52
note_on channel=0 note=39 velocity=78 time=6
note_on channel=0 note=38 velocity=57 time=24
note_on channel=0 note=39 velocity=0 time=3
note_on channel=0 note=38 velocity=0 time=37
note_on channel=0 note=37 velocity=0 time=11
note_on channel=0 note=26 velocity=127 time=11
note_on channel=0 note=28 velocity=95 time=6
note_on channel=0 note=28 velocity=0 time=22
note_on channel=0 note=26 velocity=0 time=73
note_on channel=0 note=69 velocity=97 time=378
note_on channel=0 note=60 velocity=93 time=11
note_on channel=0 note=50 velocity=89 time=111
note_on channel=0 note=51 velocity=62 time=13
note_on channel=0 note=60 velocity=0 time=16
note_on channel=0 note=57 velocity=60 time=7
note_on channel=0 note=56 velocity=57 time=3
note_on channel=0 note=51 velocity=0 time=8
note_on channel=0 note=53 velocity=43 time=4
note_on channel=0 note=57 velocity=0 time=29
note_on channel=0 note=56 velocity=0 time=1
note_on channel=0 note=53 velocity=0 time=61
note_on channel=0 note=56 velocity=50 time=7
note_on channel=0 note=62 velocity=58 time=8
note_on channel=0 note=67 velocity=45 time=21
note_on channel=0 note=66 velocity=52 time=1
note_on channel=0 note=69 velocity=0 time=44
note_on channel=0 note=66 velocity=0 time=4
note_on channel=0 note=56 velocity=0 time=8
note_on channel=0 note=59 velocity=50 time=1
note_on channel=0 note=67 velocity=0 time=7
note_on channel=0 note=62 velocity=0 time=34
note_on channel=0 note=62 velocity=60 time=70
note_on channel=0 note=68 velocity=63 time=5
note_on channel=0 note=70 velocity=58 time=2
note_on channel=0 note=59 velocity=0 time=1
note_on channel=0 note=66 velocity=45 time=50
note_on channel=0 note=56 velocity=62 time=57
note_on channel=0 note=66 velocity=0 time=10
note_on channel=0 note=60 velocity=79 time=8
note_on channel=0 note=70 velocity=0 time=2
note_on channel=0 note=62 velocity=0 time=5
note_on channel=0 note=68 velocity=0 time=72
note_on channel=0 note=66 velocity=41 time=19
note_on channel=0 note=50 velocity=0 time=7
note_on channel=0 note=60 velocity=0 time=22
note_on channel=0 note=56 velocity=0 time=10
note_on channel=0 note=72 velocity=60 time=1
note_on channel=0 note=66 velocity=0 time=12
note_on channel=0 note=70 velocity=47 time=16
note_on channel=0 note=64 velocity=34 time=29
note_on channel=0 note=68 velocity=68 time=54
note_on channel=0 note=66 velocity=64 time=57
note_on channel=0 note=72 velocity=0 time=8
note_on channel=0 note=70 velocity=0 time=27
note_on channel=0 note=72 velocity=61 time=72
note_on channel=0 note=68 velocity=0 time=10
note_on channel=0 note=66 velocity=0 time=23
note_on channel=0 note=71 velocity=57 time=1
note_on channel=0 note=64 velocity=0 time=57
note_on channel=0 note=67 velocity=58 time=29
note_on channel=0 note=69 velocity=43 time=5
note_on channel=0 note=73 velocity=56 time=0
note_on channel=0 note=67 velocity=0 time=48
note_on channel=0 note=78 velocity=39 time=0
note_on channel=0 note=73 velocity=0 time=1
note_on channel=0 note=69 velocity=0 time=8
note_on channel=0 note=76 velocity=38 time=44
note_on channel=0 note=79 velocity=43 time=12
note_on channel=0 note=74 velocity=63 time=71
note_on channel=0 note=81 velocity=78 time=9
note_on channel=0 note=74 velocity=0 time=39
note_on channel=0 note=78 velocity=0 time=14
note_on channel=0 note=72 velocity=0 time=17
note_on channel=0 note=83 velocity=75 time=29
note_on channel=0 note=81 velocity=0 time=8
note_on channel=0 note=71 velocity=0 time=1
note_on channel=0 note=73 velocity=25 time=2
note_on channel=0 note=81 velocity=39 time=22
note_on channel=0 note=79 velocity=0 time=7
note_on channel=0 note=84 velocity=40 time=14
note_on channel=0 note=76 velocity=0 time=7
note_on channel=0 note=73 velocity=0 time=11
note_on channel=0 note=84 velocity=0 time=39
note_on channel=0 note=85 velocity=23 time=38
note_on channel=0 note=88 velocity=49 time=21
note_on channel=0 note=89 velocity=59 time=4
note_on channel=0 note=83 velocity=0 time=2
note_on channel=0 note=85 velocity=0 time=25
note_on channel=0 note=81 velocity=0 time=41
note_on channel=0 note=88 velocity=0 time=31
note_on channel=0 note=83 velocity=72 time=29
note_on channel=0 note=91 velocity=74 time=3
note_on channel=0 note=89 velocity=0 time=1
note_on channel=0 note=75 velocity=47 time=1
note_on channel=0 note=74 velocity=56 time=12
note_on channel=0 note=81 velocity=43 time=5
note_on channel=0 note=76 velocity=57 time=1
note_on channel=0 note=79 velocity=50 time=13
note_on channel=0 note=91 velocity=0 time=1
note_on channel=0 note=82 velocity=37 time=4
note_on channel=0 note=81 velocity=0 time=42
note_on channel=0 note=79 velocity=0 time=6
note_on channel=0 note=82 velocity=0 time=9
note_on channel=0 note=76 velocity=0 time=3
note_on channel=0 note=91 velocity=44 time=12
note_on channel=0 note=75 velocity=0 time=21
note_on channel=0 note=88 velocity=57 time=14
note_on channel=0 note=82 velocity=64 time=13
note_on channel=0 note=83 velocity=0 time=10
note_on channel=0 note=97 velocity=62 time=5
note_on channel=0 note=91 velocity=0 time=2
note_on channel=0 note=86 velocity=56 time=10
note_on channel=0 note=74 velocity=0 time=18
note_on channel=0 note=98 velocity=48 time=8
note_on channel=0 note=97 velocity=0 time=7
note_on channel=0 note=96 velocity=61 time=7
note_on channel=0 note=88 velocity=0 time=9
note_on channel=0 note=95 velocity=46 time=4
note_on channel=0 note=82 velocity=0 time=17
note_on channel=0 note=94 velocity=71 time=2
note_on channel=0 note=98 velocity=0 time=18
note_on channel=0 note=86 velocity=0 time=48
note_on channel=0 note=93 velocity=70 time=5
note_on channel=0 note=96 velocity=0 time=9
note_on channel=0 note=94 velocity=0 time=1
note_on channel=0 note=93 velocity=0 time=27
note_on channel=0 note=94 velocity=66 time=31
note_on channel=0 note=91 velocity=70 time=7
note_on channel=0 note=96 velocity=57 time=6
note_on channel=0 note=95 velocity=0 time=13
note_on channel=0 note=90 velocity=41 time=2
note_on channel=0 note=96 velocity=0 time=29
note_on channel=0 note=90 velocity=0 time=34
note_on channel=0 note=91 velocity=0 time=25
note_on channel=0 note=103 velocity=56 time=9
note_on channel=0 note=94 velocity=0 time=39
note_on channel=0 note=102 velocity=50 time=76
note_on channel=0 note=103 velocity=0 time=55
note_on channel=0 note=98 velocity=57 time=4
note_on channel=0 note=96 velocity=84 time=12
note_on channel=0 note=95 velocity=81 time=6
note_on channel=0 note=91 velocity=67 time=11
note_on channel=0 note=93 velocity=61 time=2
note_on channel=0 note=89 velocity=58 time=4
note_on channel=0 note=92 velocity=46 time=3
note_on channel=0 note=102 velocity=0 time=7
note_on channel=0 note=95 velocity=0 time=3
note_on channel=0 note=91 velocity=0 time=14
note_on channel=0 note=93 velocity=0 time=10
note_on channel=0 note=89 velocity=0 time=8
note_on channel=0 note=92 velocity=0 time=15
note_on channel=0 note=96 velocity=0 time=18
note_on channel=0 note=98 velocity=0 time=10
note_on channel=0 note=89 velocity=61 time=49
note_on channel=0 note=99 velocity=84 time=1
note_on channel=0 note=97 velocity=75 time=1
note_on channel=0 note=98 velocity=77 time=5
note_on channel=0 note=105 velocity=81 time=4
note_on channel=0 note=107 velocity=87 time=4
note_on channel=0 note=100 velocity=70 time=6
note_on channel=0 note=91 velocity=39 time=1
note_on channel=0 note=96 velocity=61 time=1
note_on channel=0 note=99 velocity=0 time=2
note_on channel=0 note=89 velocity=0 time=15
note_on channel=0 note=100 velocity=0 time=14
note_on channel=0 note=96 velocity=0 time=9
note_on channel=0 note=91 velocity=0 time=9
note_on channel=0 note=97 velocity=0 time=13
note_on channel=0 note=98 velocity=0 time=9
note_on channel=0 note=107 velocity=0 time=13
note_on channel=0 note=107 velocity=50 time=35
note_on channel=0 note=107 velocity=0 time=51
note_on channel=0 note=98 velocity=57 time=29
note_on channel=0 note=105 velocity=0 time=8
note_on channel=0 note=98 velocity=0 time=102
note_on channel=0 note=88 velocity=65 time=3
note_on channel=0 note=81 velocity=47 time=8
note_on channel=0 note=87 velocity=60 time=5
note_on channel=0 note=80 velocity=47 time=5
note_on channel=0 note=93 velocity=57 time=16
note_on channel=0 note=85 velocity=41 time=9
note_on channel=0 note=93 velocity=0 time=40
note_on channel=0 note=81 velocity=0 time=1
note_on channel=0 note=85 velocity=0 time=12
note_on channel=0 note=88 velocity=0 time=3
note_on channel=0 note=101 velocity=55 time=103
note_on channel=0 note=91 velocity=36 time=7
note_on channel=0 note=82 velocity=42 time=39
note_on channel=0 note=101 velocity=0 time=2
note_on channel=0 note=91 velocity=0 time=1
note_on channel=0 note=85 velocity=57 time=6
note_on channel=0 note=89 velocity=53 time=21
note_on channel=0 note=80 velocity=0 time=13
note_on channel=0 note=81 velocity=48 time=6
note_on channel=0 note=101 velocity=53 time=30
note_on channel=0 note=91 velocity=59 time=29
note_on channel=0 note=93 velocity=70 time=3
note_on channel=0 note=89 velocity=0 time=8
note_on channel=0 note=101 velocity=0 time=9
note_on channel=0 note=87 velocity=0 time=6
note_on channel=0 note=82 velocity=0 time=20
note_on channel=0 note=81 velocity=0 time=5
note_on channel=0 note=85 velocity=0 time=11
note_on channel=0 note=91 velocity=0 time=48
note_on channel=0 note=93 velocity=0 time=2
note_on channel=0 note=86 velocity=69 time=16
note_on channel=0 note=88 velocity=61 time=0
note_on channel=0 note=87 velocity=33 time=21
note_on channel=0 note=83 velocity=75 time=19
note_on channel=0 note=86 velocity=0 time=7
note_on channel=0 note=89 velocity=51 time=0
note_on channel=0 note=82 velocity=44 time=11
note_on channel=0 note=87 velocity=0 time=9
note_on channel=0 note=80 velocity=39 time=13
note_on channel=0 note=89 velocity=0 time=26
note_on channel=0 note=88 velocity=0 time=34
note_on channel=0 note=94 velocity=57 time=21
note_on channel=0 note=80 velocity=0 time=2
note_on channel=0 note=83 velocity=0 time=7
note_on channel=0 note=94 velocity=0 time=35
note_on channel=0 note=82 velocity=0 time=2
note_on channel=0 note=73 velocity=55 time=10
note_on channel=0 note=74 velocity=72 time=20
note_on channel=0 note=75 velocity=64 time=9
note_on channel=0 note=73 velocity=0 time=21
note_on channel=0 note=82 velocity=46 time=37
note_on channel=0 note=84 velocity=52 time=84
note_on channel=0 note=83 velocity=66 time=6
note_on channel=0 note=84 velocity=0 time=41
note_on channel=0 note=103 velocity=97 time=17
note_on channel=0 note=82 velocity=0 time=24
note_on channel=0 note=83 velocity=0 time=20
note_on channel=0 note=103 velocity=0 time=25
note_on channel=0 note=80 velocity=66 time=13
note_on channel=0 note=82 velocity=53 time=13
note_on channel=0 note=82 velocity=0 time=49
note_on channel=0 note=73 velocity=48 time=41
note_on channel=0 note=74 velocity=0 time=3
note_on channel=0 note=80 velocity=0 time=12
note_on channel=0 note=75 velocity=0 time=4
note_on channel=0 note=73 velocity=0 time=35
note_on channel=0 note=81 velocity=75 time=53
note_on channel=0 note=72 velocity=49 time=67
note_on channel=0 note=71 velocity=48 time=26
note_on channel=0 note=81 velocity=0 time=27
note_on channel=0 note=70 velocity=55 time=9
note_on channel=0 note=68 velocity=68 time=4
note_on channel=0 note=71 velocity=0 time=27
note_on channel=0 note=62 velocity=57 time=13
note_on channel=0 note=72 velocity=0 time=3
note_on channel=0 note=63 velocity=49 time=4
note_on channel=0 note=70 velocity=0 time=13
note_on channel=0 note=70 velocity=31 time=48
note_on channel=0 note=88 velocity=81 time=66
note_on channel=0 note=72 velocity=66 time=24
note_on channel=0 note=68 velocity=0 time=8
note_on channel=0 note=88 velocity=0 time=37
note_on channel=0 note=70 velocity=0 time=19
note_on channel=0 note=72 velocity=0 time=77
note_on channel=0 note=68 velocity=73 time=17
note_on channel=0 note=64 velocity=38 time=9
note_on channel=0 note=63 velocity=0 time=13
note_on channel=0 note=64 velocity=0 time=67
note_on channel=0 note=68 velocity=0 time=18
note_on channel=0 note=89 velocity=84 time=2
note_on channel=0 note=62 velocity=0 time=7
note_on channel=0 note=89 velocity=0 time=89
note_on channel=0 note=62 velocity=65 time=39
note_on channel=0 note=56 velocity=47 time=156
note_on channel=0 note=50 velocity=49 time=8
note_on channel=0 note=62 velocity=0 time=7
note_on channel=0 note=52 velocity=56 time=2
note_on channel=0 note=62 velocity=69 time=149
note_on channel=0 note=56 velocity=0 time=43
note_on channel=0 note=64 velocity=72 time=58
note_on channel=0 note=65 velocity=78 time=1
note_on channel=0 note=62 velocity=0 time=4
note_on channel=0 note=56 velocity=56 time=31
note_on channel=0 note=65 velocity=0 time=11
note_on channel=0 note=64 velocity=0 time=10
note_on channel=0 note=52 velocity=0 time=80
note_on channel=0 note=50 velocity=0 time=21
note_on channel=0 note=56 velocity=0 time=23
note_on channel=0 note=60 velocity=65 time=12
note_on channel=0 note=59 velocity=69 time=3
note_on channel=0 note=60 velocity=0 time=74
note_on channel=0 note=59 velocity=0 time=19
note_on channel=0 note=88 velocity=91 time=59
note_on channel=0 note=86 velocity=49 time=24
note_on channel=0 note=88 velocity=0 time=21
note_on channel=0 note=47 velocity=58 time=11
note_on channel=0 note=86 velocity=0 time=41
note_on channel=0 note=48 velocity=47 time=15
note_on channel=0 note=71 velocity=60 time=81
note_on channel=0 note=59 velocity=65 time=9
note_on channel=0 note=54 velocity=59 time=97
note_on channel=0 note=71 velocity=0 time=6
note_on channel=0 note=65 velocity=56 time=6
note_on channel=0 note=51 velocity=64 time=10
note_on channel=0 note=59 velocity=0 time=1
note_on channel=0 note=54 velocity=0 time=78
note_on channel=0 note=68 velocity=58 time=8
note_on channel=0 note=47 velocity=0 time=6
note_on channel=0 note=65 velocity=0 time=0
note_on channel=0 note=48 velocity=0 time=45
note_on channel=0 note=57 velocity=79 time=32
note_on channel=0 note=51 velocity=0 time=6
note_on channel=0 note=68 velocity=0 time=59
note_on channel=0 note=48 velocity=28 time=28
note_on channel=0 note=72 velocity=53 time=4
note_on channel=0 note=57 velocity=0 time=6
note_on channel=0 note=49 velocity=48 time=17
note_on channel=0 note=52 velocity=63 time=24
note_on channel=0 note=49 velocity=0 time=37
note_on channel=0 note=55 velocity=61 time=6
note_on channel=0 note=70 velocity=61 time=11
note_on channel=0 note=56 velocity=66 time=5
note_on channel=0 note=72 velocity=0 time=9
note_on channel=0 note=59 velocity=82 time=2
note_on channel=0 note=48 velocity=0 time=6
note_on channel=0 note=62 velocity=75 time=10
note_on channel=0 note=70 velocity=0 time=9
note_on channel=0 note=52 velocity=0 time=24
note_on channel=0 note=56 velocity=0 time=20
note_on channel=0 note=55 velocity=0 time=14
note_on channel=0 note=48 velocity=43 time=9
note_on channel=0 note=49 velocity=48 time=4
note_on channel=0 note=59 velocity=0 time=5
note_on channel=0 note=62 velocity=0 time=34
note_on channel=0 note=51 velocity=69 time=12
note_on channel=0 note=59 velocity=72 time=3
note_on channel=0 note=49 velocity=0 time=3
note_on channel=0 note=52 velocity=57 time=25
note_on channel=0 note=47 velocity=52 time=17
note_on channel=0 note=49 velocity=32 time=10
note_on channel=0 note=51 velocity=0 time=4
note_on channel=0 note=52 velocity=0 time=13
note_on channel=0 note=59 velocity=0 time=16
note_on channel=0 note=47 velocity=0 time=8
note_on channel=0 note=49 velocity=0 time=5
note_on channel=0 note=48 velocity=0 time=5
note_on channel=0 note=57 velocity=55 time=62
note_on channel=0 note=56 velocity=49 time=12
note_on channel=0 note=37 velocity=78 time=29
note_on channel=0 note=57 velocity=0 time=6
note_on channel=0 note=49 velocity=47 time=14
note_on channel=0 note=56 velocity=0 time=7
note_on channel=0 note=48 velocity=65 time=4
note_on channel=0 note=37 velocity=0 time=1
note_on channel=0 note=32 velocity=59 time=4
note_on channel=0 note=38 velocity=66 time=2
note_on channel=0 note=27 velocity=61 time=13
note_on channel=0 note=49 velocity=0 time=21
note_on channel=0 note=48 velocity=0 time=3
note_on channel=0 note=47 velocity=44 time=7
note_on channel=0 note=32 velocity=0 time=3
note_on channel=0 note=38 velocity=0 time=4
note_on channel=0 note=43 velocity=39 time=7
note_on channel=0 note=26 velocity=51 time=6
note_on channel=0 note=41 velocity=47 time=17
note_on channel=0 note=43 velocity=0 time=29
note_on channel=0 note=47 velocity=0 time=2
note_on channel=0 note=40 velocity=69 time=7
note_on channel=0 note=26 velocity=0 time=24
note_on channel=0 note=41 velocity=0 time=29
note_on channel=0 note=44 velocity=66 time=6
note_on channel=0 note=27 velocity=0 time=14
note_on channel=0 note=43 velocity=56 time=0
note_on channel=0 note=42 velocity=57 time=16
note_on channel=0 note=44 velocity=0 time=1
note_on channel=0 note=33 velocity=86 time=3
note_on channel=0 note=40 velocity=0 time=19
note_on channel=0 note=42 velocity=0 time=14
note_on channel=0 note=41 velocity=36 time=20
note_on channel=0 note=43 velocity=0 time=10
note_on channel=0 note=41 velocity=0 time=43
note_on channel=0 note=33 velocity=0 time=21
note_on channel=0 note=23 velocity=117 time=22
note_on channel=0 note=21 velocity=104 time=6
note_on channel=0 note=21 velocity=0 time=83
note_on channel=0 note=23 velocity=0 time=8
note_on channel=0 note=88 velocity=117 time=289
note_on channel=0 note=98 velocity=87 time=4
note_on channel=0 note=70 velocity=87 time=1
note_on channel=0 note=93 velocity=87 time=0
note_on channel=0 note=100 velocity=97 time=0
note_on channel=0 note=63 velocity=75 time=2
note_on channel=0 note=72 velocity=97 time=0
note_on channel=0 note=96 velocity=70 time=5
note_on channel=0 note=62 velocity=75 time=3
note_on channel=0 note=95 velocity=70 time=3
note_on channel=0 note=67 velocity=69 time=3
note_on channel=0 note=64 velocity=56 time=19
note_on channel=0 note=71 velocity=52 time=27
note_on channel=0 note=64 velocity=0 time=23
note_on channel=0 note=92 velocity=24 time=18
note_on channel=0 note=92 velocity=0 time=42
note_on channel=0 note=71 velocity=0 time=21
note_on channel=0 note=62 velocity=0 time=2
note_on channel=0 note=72 velocity=0 time=0
note_on channel=0 note=70 velocity=0 time=2
note_on channel=0 note=88 velocity=0 time=1
note_on channel=0 note=100 velocity=0 time=6
note_on channel=0 note=98 velocity=0 time=3
note_on channel=0 note=93 velocity=0 time=16
note_on channel=0 note=67 velocity=0 time=2
note_on channel=0 note=95 velocity=0 time=1
note_on channel=0 note=63 velocity=0 time=4
note_on channel=0 note=96 velocity=0 time=13
note_on channel=0 note=74 velocity=91 time=495
note_on channel=0 note=69 velocity=87 time=1
note_on channel=0 note=60 velocity=93 time=1
note_on channel=0 note=76 velocity=84 time=0
note_on channel=0 note=54 velocity=93 time=3
note_on channel=0 note=71 velocity=97 time=3
note_on channel=0 note=78 velocity=73 time=0
note_on channel=0 note=62 velocity=117 time=1
note_on channel=0 note=79 velocity=75 time=0
note_on channel=0 note=81 velocity=69 time=1
note_on channel=0 note=75 velocity=64 time=2
note_on channel=0 note=58 velocity=62 time=1
note_on channel=0 note=57 velocity=85 time=1
note_on channel=0 note=50 velocity=65 time=1
note_on channel=0 note=51 velocity=66 time=4
note_on channel=0 note=48 velocity=65 time=2
note_on channel=0 note=71 velocity=0 time=10
note_on channel=0 note=78 velocity=0 time=7
note_on channel=0 note=81 velocity=0 time=6
note_on channel=0 note=77 velocity=46 time=2
note_on channel=0 note=75 velocity=0 time=1
note_on channel=0 note=62 velocity=0 time=7
note_on channel=0 note=48 velocity=0 time=3
note_on channel=0 note=51 velocity=0 time=2
note_on channel=0 note=79 velocity=0 time=3
note_on channel=0 note=69 velocity=0 time=2
note_on channel=0 note=60 velocity=0 time=21
note_on channel=0 note=74 velocity=0 time=1
note_on channel=0 note=76 velocity=0 time=1
note_on channel=0 note=58 velocity=0 time=3
note_on channel=0 note=57 velocity=0 time=9
note_on channel=0 note=77 velocity=0 time=13
note_on channel=0 note=50 velocity=0 time=1
note_on channel=0 note=54 velocity=0 time=0
note_on channel=0 note=44 velocity=47 time=410
note_on channel=0 note=43 velocity=35 time=46
note_on channel=0 note=44 velocity=0 time=22
note_on channel=0 note=44 velocity=38 time=82
note_on channel=0 note=72 velocity=47 time=18
note_on channel=0 note=74 velocity=46 time=0
note_on channel=0 note=47 velocity=35 time=118
note_on channel=0 note=62 velocity=57 time=36
note_on channel=0 note=55 velocity=57 time=3
note_on channel=0 note=74 velocity=0 time=8
note_on channel=0 note=72 velocity=0 time=8
note_on channel=0 note=66 velocity=57 time=133
note_on channel=0 note=50 velocity=56 time=5
note_on channel=0 note=55 velocity=0 time=7
note_on channel=0 note=44 velocity=0 time=2
note_on channel=0 note=62 velocity=0 time=3
note_on channel=0 note=47 velocity=0 time=4
note_on channel=0 note=43 velocity=0 time=79
note_on channel=0 note=47 velocity=45 time=22
note_on channel=0 note=68 velocity=48 time=25
note_on channel=0 note=74 velocity=57 time=66
note_on channel=0 note=68 velocity=0 time=1
note_on channel=0 note=50 velocity=0 time=11
note_on channel=0 note=66 velocity=0 time=2
note_on channel=0 note=43 velocity=49 time=55
note_on channel=0 note=47 velocity=0 time=65
note_on channel=0 note=68 velocity=66 time=24
note_on channel=0 note=74 velocity=0 time=54
note_on channel=0 note=47 velocity=43 time=5
note_on channel=0 note=66 velocity=36 time=43
note_on channel=0 note=50 velocity=55 time=28
note_on channel=0 note=57 velocity=66 time=20
note_on channel=0 note=68 velocity=0 time=12
note_on channel=0 note=66 velocity=0 time=12
note_on channel=0 note=47 velocity=0 time=39
note_on channel=0 note=50 velocity=0 time=7
note_on channel=0 note=57 velocity=0 time=69
note_on channel=0 note=47 velocity=48 time=9
note_on channel=0 note=50 velocity=60 time=3
note_on channel=0 note=66 velocity=53 time=47
note_on channel=0 note=68 velocity=37 time=21
note_on channel=0 note=62 velocity=50 time=89
note_on channel=0 note=70 velocity=60 time=20
note_on channel=0 note=66 velocity=0 time=6
note_on channel=0 note=62 velocity=0 time=29
note_on channel=0 note=50 velocity=0 time=10
note_on channel=0 note=68 velocity=0 time=20
note_on channel=0 note=55 velocity=69 time=28
note_on channel=0 note=47 velocity=0 time=2
note_on channel=0 note=70 velocity=0 time=17
note_on channel=0 note=50 velocity=49 time=63
note_on channel=0 note=55 velocity=0 time=44
note_on channel=0 note=55 velocity=58 time=58
note_on channel=0 note=56 velocity=35 time=15
note_on channel=0 note=56 velocity=0 time=45
note_on channel=0 note=55 velocity=0 time=1
note_on channel=0 note=47 velocity=65 time=32
note_on channel=0 note=53 velocity=55 time=33
note_on channel=0 note=50 velocity=0 time=31
note_on channel=0 note=56 velocity=42 time=5
note_on channel=0 note=53 velocity=0 time=14
note_on channel=0 note=47 velocity=0 time=32
note_on channel=0 note=56 velocity=0 time=8
note_on channel=0 note=58 velocity=48 time=14
note_on channel=0 note=43 velocity=0 time=27
note_on channel=0 note=50 velocity=45 time=54
note_on channel=0 note=48 velocity=52 time=27
note_on channel=0 note=47 velocity=66 time=6
note_on channel=0 note=58 velocity=0 time=5
note_on channel=0 note=44 velocity=55 time=7
note_on channel=0 note=48 velocity=0 time=42
note_on channel=0 note=44 velocity=0 time=29
note_on channel=0 note=35 velocity=61 time=15
note_on channel=0 note=36 velocity=53 time=2
note_on channel=0 note=47 velocity=0 time=0
note_on channel=0 note=49 velocity=48 time=56
note_on channel=0 note=48 velocity=52 time=21
note_on channel=0 note=50 velocity=0 time=24
note_on channel=0 note=49 velocity=0 time=14
note_on channel=0 note=45 velocity=66 time=16
note_on channel=0 note=48 velocity=0 time=4
note_on channel=0 note=35 velocity=0 time=24
note_on channel=0 note=50 velocity=31 time=55
note_on channel=0 note=51 velocity=50 time=4
note_on channel=0 note=36 velocity=0 time=4
note_on channel=0 note=37 velocity=75 time=54
note_on channel=0 note=51 velocity=0 time=6
note_on channel=0 note=33 velocity=57 time=41
note_on channel=0 note=50 velocity=0 time=2
note_on channel=0 note=45 velocity=0 time=5
note_on channel=0 note=44 velocity=53 time=19
note_on channel=0 note=44 velocity=0 time=47
note_on channel=0 note=37 velocity=0 time=15
note_on channel=0 note=43 velocity=33 time=42
note_on channel=0 note=41 velocity=64 time=7
note_on channel=0 note=33 velocity=0 time=8
note_on channel=0 note=46 velocity=56 time=17
note_on channel=0 note=36 velocity=73 time=13
note_on channel=0 note=43 velocity=0 time=9
note_on channel=0 note=40 velocity=52 time=10
note_on channel=0 note=47 velocity=39 time=2
note_on channel=0 note=38 velocity=57 time=2
note_on channel=0 note=41 velocity=0 time=43
note_on channel=0 note=38 velocity=0 time=5
note_on channel=0 note=42 velocity=50 time=4
note_on channel=0 note=46 velocity=0 time=3
note_on channel=0 note=47 velocity=0 time=2
note_on channel=0 note=43 velocity=48 time=13
note_on channel=0 note=45 velocity=45 time=13
note_on channel=0 note=42 velocity=0 time=15
note_on channel=0 note=40 velocity=0 time=2
note_on channel=0 note=43 velocity=0 time=29
note_on channel=0 note=45 velocity=0 time=5
note_on channel=0 note=26 velocity=90 time=33
note_on channel=0 note=27 velocity=59 time=18
note_on channel=0 note=36 velocity=0 time=21
note_on channel=0 note=28 velocity=42 time=2
note_on channel=0 note=27 velocity=0 time=15
note_on channel=0 note=28 velocity=0 time=46
note_on channel=0 note=28 velocity=61 time=42
note_on channel=0 note=38 velocity=104 time=6
note_on channel=0 note=31 velocity=56 time=21
note_on channel=0 note=28 velocity=0 time=40
note_on channel=0 note=31 velocity=0 time=2
note_on channel=0 note=26 velocity=0 time=10
note_on channel=0 note=38 velocity=0 time=53
note_on channel=0 note=73 velocity=97 time=205
note_on channel=0 note=87 velocity=68 time=5
note_on channel=0 note=82 velocity=61 time=19
note_on channel=0 note=85 velocity=60 time=7
note_on channel=0 note=82 velocity=0 time=30
note_on channel=0 note=85 velocity=0 time=15
note_on channel=0 note=73 velocity=0 time=28
note_on channel=0 note=57 velocity=50 time=16
note_on channel=0 note=69 velocity=78 time=39
note_on channel=0 note=87 velocity=0 time=1
note_on channel=0 note=64 velocity=57 time=21
note_on channel=0 note=65 velocity=66 time=1
note_on channel=0 note=59 velocity=40 time=11
note_on channel=0 note=63 velocity=53 time=6
note_on channel=0 note=62 velocity=65 time=10
note_on channel=0 note=72 velocity=63 time=38
note_on channel=0 note=82 velocity=40 time=23
note_on channel=0 note=64 velocity=0 time=26
note_on channel=0 note=69 velocity=0 time=14
note_on channel=0 note=63 velocity=0 time=1
note_on channel=0 note=65 velocity=0 time=12
note_on channel=0 note=82 velocity=0 time=10
note_on channel=0 note=62 velocity=0 time=6
note_on channel=0 note=69 velocity=57 time=70
note_on channel=0 note=75 velocity=37 time=5
note_on channel=0 note=66 velocity=60 time=14
note_on channel=0 note=72 velocity=0 time=7
note_on channel=0 note=66 velocity=0 time=49
note_on channel=0 note=75 velocity=0 time=12
note_on channel=0 note=63 velocity=41 time=13
note_on channel=0 note=69 velocity=0 time=42
note_on channel=0 note=78 velocity=25 time=9
note_on channel=0 note=72 velocity=54 time=40
note_on channel=0 note=63 velocity=0 time=10
note_on channel=0 note=80 velocity=64 time=15
note_on channel=0 note=57 velocity=0 time=20
note_on channel=0 note=72 velocity=0 time=69
note_on channel=0 note=78 velocity=0 time=0
note_on channel=0 note=66 velocity=75 time=38
note_on channel=0 note=71 velocity=78 time=2
note_on channel=0 note=63 velocity=72 time=13
note_on channel=0 note=80 velocity=0 time=28
note_on channel=0 note=71 velocity=0 time=39
note_on channel=0 note=82 velocity=68 time=31
note_on channel=0 note=70 velocity=70 time=34
note_on channel=0 note=66 velocity=0 time=3
note_on channel=0 note=59 velocity=0 time=11
note_on channel=0 note=63 velocity=0 time=15
note_on channel=0 note=82 velocity=0 time=79
note_on channel=0 note=70 velocity=0 time=9
note_on channel=0 note=66 velocity=64 time=49
note_on channel=0 note=54 velocity=61 time=6
note_on channel=0 note=66 velocity=0 time=39
note_on channel=0 note=72 velocity=60 time=75
note_on channel=0 note=54 velocity=0 time=2
note_on channel=0 note=78 velocity=43 time=54
control_change channel=0 control=64 value=0 time=19
note_on channel=0 note=75 velocity=45 time=26
note_on channel=0 note=55 velocity=57 time=15
note_on channel=0 note=58 velocity=46 time=1
note_on channel=0 note=61 velocity=61 time=1
note_on channel=0 note=72 velocity=0 time=13
note_on channel=0 note=59 velocity=57 time=10
note_on channel=0 note=56 velocity=53 time=4
note_on channel=0 note=67 velocity=43 time=2
note_on channel=0 note=81 velocity=43 time=3
note_on channel=0 note=78 velocity=0 time=9
note_on channel=0 note=75 velocity=0 time=1
note_on channel=0 note=83 velocity=53 time=1
control_change channel=0 control=64 value=127 time=1
note_on channel=0 note=65 velocity=39 time=8
note_on channel=0 note=58 velocity=0 time=11
note_on channel=0 note=81 velocity=0 time=36
note_on channel=0 note=62 velocity=50 time=7
note_on channel=0 note=65 velocity=0 time=19
note_on channel=0 note=83 velocity=0 time=33
note_on channel=0 note=62 velocity=0 time=24
note_on channel=0 note=61 velocity=0 time=2
note_on channel=0 note=67 velocity=0 time=16
note_on channel=0 note=70 velocity=68 time=7
note_on channel=0 note=68 velocity=75 time=13
note_on channel=0 note=56 velocity=0 time=13
note_on channel=0 note=59 velocity=0 time=15
note_on channel=0 note=55 velocity=0 time=27
note_on channel=0 note=70 velocity=0 time=20
note_on channel=0 note=65 velocity=78 time=9
note_on channel=0 note=58 velocity=72 time=10
note_on channel=0 note=61 velocity=66 time=0
note_on channel=0 note=55 velocity=48 time=1
note_on channel=0 note=67 velocity=52 time=9
note_on channel=0 note=56 velocity=42 time=4
note_on channel=0 note=68 velocity=0 time=2
note_on channel=0 note=62 velocity=61 time=11
note_on channel=0 note=58 velocity=0 time=2
note_on channel=0 note=57 velocity=52 time=3
note_on channel=0 note=59 velocity=51 time=1
note_on channel=0 note=61 velocity=0 time=1
note_on channel=0 note=67 velocity=0 time=24
note_on channel=0 note=62 velocity=0 time=13
note_on channel=0 note=65 velocity=0 time=11
note_on channel=0 note=55 velocity=0 time=29
note_on channel=0 note=65 velocity=65 time=16
note_on channel=0 note=67 velocity=69 time=6
note_on channel=0 note=59 velocity=0 time=4
note_on channel=0 note=56 velocity=0 time=3
note_on channel=0 note=57 velocity=0 time=1
note_on channel=0 note=62 velocity=65 time=72
note_on channel=0 note=67 velocity=0 time=0
note_on channel=0 note=65 velocity=0 time=40
note_on channel=0 note=65 velocity=42 time=68
note_on channel=0 note=64 velocity=39 time=31
note_on channel=0 note=62 velocity=0 time=4
note_on channel=0 note=68 velocity=57 time=11
note_on channel=0 note=57 velocity=61 time=41
note_on channel=0 note=65 velocity=0 time=1
note_on channel=0 note=45 velocity=61 time=5
note_on channel=0 note=64 velocity=0 time=1
note_on channel=0 note=46 velocity=50 time=3
note_on channel=0 note=68 velocity=0 time=7
note_on channel=0 note=53 velocity=57 time=10
note_on channel=0 note=50 velocity=57 time=7
note_on channel=0 note=49 velocity=37 time=6
note_on channel=0 note=70 velocity=87 time=105
note_on channel=0 note=49 velocity=0 time=6
note_on channel=0 note=81 velocity=82 time=5
note_on channel=0 note=82 velocity=70 time=6
note_on channel=0 note=57 velocity=0 time=9
note_on channel=0 note=70 velocity=0 time=6
note_on channel=0 note=69 velocity=54 time=3
note_on channel=0 note=80 velocity=37 time=6
note_on channel=0 note=53 velocity=0 time=3
note_on channel=0 note=82 velocity=0 time=5
note_on channel=0 note=80 velocity=0 time=35
note_on channel=0 note=50 velocity=0 time=17
note_on channel=0 note=53 velocity=49 time=45
note_on channel=0 note=50 velocity=48 time=3
note_on channel=0 note=59 velocity=72 time=1
note_on channel=0 note=81 velocity=0 time=17
note_on channel=0 note=69 velocity=0 time=67
note_on channel=0 note=59 velocity=0 time=19
note_on channel=0 note=45 velocity=0 time=13
note_on channel=0 note=67 velocity=56 time=35
note_on channel=0 note=69 velocity=61 time=2
note_on channel=0 note=53 velocity=0 time=19
note_on channel=0 note=50 velocity=0 time=18
note_on channel=0 note=46 velocity=0 time=8
note_on channel=0 note=68 velocity=41 time=11
note_on channel=0 note=67 velocity=0 time=49
note_on channel=0 note=69 velocity=0 time=16
note_on channel=0 note=58 velocity=85 time=4
note_on channel=0 note=46 velocity=51 time=6
note_on channel=0 note=46 velocity=0 time=42
note_on channel=0 note=68 velocity=0 time=14
note_on channel=0 note=70 velocity=70 time=54
note_on channel=0 note=65 velocity=65 time=5
note_on channel=0 note=58 velocity=0 time=16
note_on channel=0 note=68 velocity=49 time=2
note_on channel=0 note=68 velocity=0 time=48
note_on channel=0 note=65 velocity=0 time=26
note_on channel=0 note=49 velocity=61 time=39
note_on channel=0 note=56 velocity=72 time=9
note_on channel=0 note=60 velocity=65 time=2
note_on channel=0 note=59 velocity=65 time=9
note_on channel=0 note=70 velocity=0 time=8
note_on channel=0 note=53 velocity=49 time=3
note_on channel=0 note=52 velocity=42 time=1
note_on channel=0 note=50 velocity=47 time=2
note_on channel=0 note=59 velocity=0 time=27
note_on channel=0 note=52 velocity=0 time=34
note_on channel=0 note=53 velocity=0 time=1
note_on channel=0 note=50 velocity=0 time=6
note_on channel=0 note=60 velocity=0 time=10
note_on channel=0 note=49 velocity=0 time=42
note_on channel=0 note=76 velocity=72 time=0
note_on channel=0 note=56 velocity=0 time=11
note_on channel=0 note=67 velocity=72 time=10
note_on channel=0 note=67 velocity=0 time=49
note_on channel=0 note=50 velocity=79 time=95
note_on channel=0 note=54 velocity=79 time=8
note_on channel=0 note=56 velocity=59 time=20
note_on channel=0 note=60 velocity=57 time=4
note_on channel=0 note=76 velocity=0 time=23
note_on channel=0 note=56 velocity=0 time=12
note_on channel=0 note=60 velocity=0 time=12
control_change channel=0 control=64 value=0 time=42
note_on channel=0 note=54 velocity=0 time=7
note_on channel=0 note=67 velocity=65 time=44
note_on channel=0 note=74 velocity=31 time=84
note_on channel=0 note=76 velocity=28 time=0
control_change channel=0 control=64 value=127 time=4
note_on channel=0 note=76 velocity=0 time=99
note_on channel=0 note=62 velocity=66 time=15
note_on channel=0 note=54 velocity=72 time=2
note_on channel=0 note=56 velocity=75 time=2
note_on channel=0 note=67 velocity=0 time=2
note_on channel=0 note=74 velocity=0 time=83
note_on channel=0 note=62 velocity=0 time=8
note_on channel=0 note=50 velocity=0 time=22
note_on channel=0 note=56 velocity=0 time=37
note_on channel=0 note=80 velocity=75 time=12
note_on channel=0 note=68 velocity=85 time=4
note_on channel=0 note=54 velocity=0 time=4
note_on channel=0 note=68 velocity=0 time=73
note_on channel=0 note=63 velocity=89 time=59
note_on channel=0 note=52 velocity=57 time=5
note_on channel=0 note=80 velocity=0 time=11
note_on channel=0 note=52 velocity=0 time=38
note_on channel=0 note=63 velocity=0 time=19
note_on channel=0 note=69 velocity=66 time=52
note_on channel=0 note=73 velocity=73 time=127
note_on channel=0 note=69 velocity=0 time=43
note_on channel=0 note=75 velocity=47 time=11
note_on channel=0 note=61 velocity=72 time=97
note_on channel=0 note=65 velocity=69 time=6
note_on channel=0 note=73 velocity=0 time=7
note_on channel=0 note=53 velocity=53 time=1
note_on channel=0 note=58 velocity=53 time=1
note_on channel=0 note=75 velocity=0 time=6
note_on channel=0 note=55 velocity=63 time=7
note_on channel=0 note=65 velocity=0 time=49
note_on channel=0 note=80 velocity=52 time=53
note_on channel=0 note=61 velocity=0 time=12
note_on channel=0 note=53 velocity=0 time=4
note_on channel=0 note=55 velocity=0 time=11
note_on channel=0 note=58 velocity=0 time=7
note_on channel=0 note=70 velocity=49 time=39
note_on channel=0 note=80 velocity=0 time=34
note_on channel=0 note=70 velocity=0 time=58
note_on channel=0 note=54 velocity=69 time=44
note_on channel=0 note=42 velocity=59 time=24
note_on channel=0 note=44 velocity=57 time=3
note_on channel=0 note=42 velocity=0 time=31
note_on channel=0 note=54 velocity=0 time=5
note_on channel=0 note=44 velocity=0 time=35
note_on channel=0 note=69 velocity=60 time=43
note_on channel=0 note=75 velocity=73 time=5
note_on channel=0 note=71 velocity=49 time=27
note_on channel=0 note=78 velocity=40 time=5
note_on channel=0 note=69 velocity=0 time=51
note_on channel=0 note=71 velocity=0 time=6
note_on channel=0 note=78 velocity=0 time=12
note_on channel=0 note=43 velocity=82 time=35
note_on channel=0 note=75 velocity=0 time=7
note_on channel=0 note=45 velocity=85 time=2
note_on channel=0 note=53 velocity=79 time=8
note_on channel=0 note=45 velocity=0 time=28
control_change channel=0 control=64 value=0 time=7
note_on channel=0 note=53 velocity=0 time=14
note_on channel=0 note=81 velocity=69 time=46
note_on channel=0 note=72 velocity=75 time=6
control_change channel=0 control=64 value=127 time=52
note_on channel=0 note=81 velocity=0 time=105
note_on channel=0 note=72 velocity=0 time=87
note_on channel=0 note=55 velocity=48 time=20
note_on channel=0 note=53 velocity=52 time=12
note_on channel=0 note=49 velocity=72 time=13
note_on channel=0 note=53 velocity=0 time=36
note_on channel=0 note=47 velocity=53 time=3
note_on channel=0 note=55 velocity=0 time=41
note_on channel=0 note=47 velocity=0 time=23
note_on channel=0 note=49 velocity=0 time=37
note_on channel=0 note=57 velocity=48 time=77
note_on channel=0 note=55 velocity=57 time=14
note_on channel=0 note=50 velocity=57 time=8
note_on channel=0 note=51 velocity=37 time=1
note_on channel=0 note=46 velocity=57 time=64
note_on channel=0 note=51 velocity=0 time=26
note_on channel=0 note=55 velocity=0 time=8
note_on channel=0 note=57 velocity=0 time=46
note_on channel=0 note=68 velocity=70 time=2
note_on channel=0 note=50 velocity=0 time=80
note_on channel=0 note=46 velocity=0 time=6
note_on channel=0 note=68 velocity=0 time=8
note_on channel=0 note=78 velocity=34 time=0
note_on channel=0 note=80 velocity=60 time=5
note_on channel=0 note=57 velocity=82 time=62
note_on channel=0 note=78 velocity=0 time=3
note_on channel=0 note=46 velocity=62 time=4
note_on channel=0 note=50 velocity=63 time=2
note_on channel=0 note=80 velocity=0 time=26
note_on channel=0 note=43 velocity=0 time=108
note_on channel=0 note=57 velocity=0 time=18
note_on channel=0 note=70 velocity=85 time=5
note_on channel=0 note=82 velocity=39 time=21
note_on channel=0 note=50 velocity=0 time=21
note_on channel=0 note=46 velocity=0 time=6
note_on channel=0 note=57 velocity=72 time=36
note_on channel=0 note=43 velocity=53 time=4
note_on channel=0 note=46 velocity=64 time=8
note_on channel=0 note=50 velocity=66 time=2
note_on channel=0 note=70 velocity=0 time=1
note_on channel=0 note=51 velocity=64 time=12
note_on channel=0 note=45 velocity=49 time=10
note_on channel=0 note=51 velocity=0 time=24
note_on channel=0 note=82 velocity=0 time=2
note_on channel=0 note=45 velocity=0 time=36
note_on channel=0 note=57 velocity=0 time=28
note_on channel=0 note=43 velocity=0 time=10
note_on channel=0 note=71 velocity=66 time=21
note_on channel=0 note=82 velocity=57 time=1
note_on channel=0 note=50 velocity=0 time=50
note_on channel=0 note=46 velocity=0 time=7
note_on channel=0 note=78 velocity=22 time=90
note_on channel=0 note=80 velocity=68 time=25
note_on channel=0 note=82 velocity=0 time=0
note_on channel=0 note=71 velocity=0 time=61
note_on channel=0 note=46 velocity=32 time=70
note_on channel=0 note=43 velocity=79 time=3
note_on channel=0 note=78 velocity=0 time=13
note_on channel=0 note=80 velocity=0 time=68
note_on channel=0 note=73 velocity=97 time=74
note_on channel=0 note=84 velocity=66 time=4
note_on channel=0 note=50 velocity=48 time=14
note_on channel=0 note=57 velocity=69 time=27
note_on channel=0 note=83 velocity=44 time=3
note_on channel=0 note=83 velocity=0 time=66
note_on channel=0 note=73 velocity=0 time=18
note_on channel=0 note=84 velocity=0 time=31
note_on channel=0 note=74 velocity=82 time=61
note_on channel=0 note=43 velocity=0 time=8
note_on channel=0 note=57 velocity=0 time=4
note_on channel=0 note=80 velocity=56 time=2
note_on channel=0 note=81 velocity=66 time=2
note_on channel=0 note=80 velocity=0 time=45
note_on channel=0 note=74 velocity=0 time=58
note_on channel=0 note=43 velocity=75 time=33
note_on channel=0 note=81 velocity=0 time=2
note_on channel=0 note=50 velocity=0 time=2
note_on channel=0 note=85 velocity=60 time=66
note_on channel=0 note=74 velocity=50 time=5
note_on channel=0 note=86 velocity=53 time=22
note_on channel=0 note=46 velocity=0 time=31
note_on channel=0 note=74 velocity=0 time=5
note_on channel=0 note=85 velocity=0 time=19
note_on channel=0 note=86 velocity=0 time=4
note_on channel=0 note=46 velocity=43 time=69
note_on channel=0 note=84 velocity=72 time=20
note_on channel=0 note=57 velocity=79 time=6
note_on channel=0 note=75 velocity=91 time=8
note_on channel=0 note=83 velocity=65 time=5
note_on channel=0 note=50 velocity=55 time=1
note_on channel=0 note=51 velocity=52 time=8
note_on channel=0 note=51 velocity=0 time=50
note_on channel=0 note=46 velocity=0 time=3
note_on channel=0 note=50 velocity=0 time=28
note_on channel=0 note=83 velocity=0 time=26
note_on channel=0 note=75 velocity=0 time=4
note_on channel=0 note=84 velocity=0 time=19
note_on channel=0 note=46 velocity=57 time=3
note_on channel=0 note=57 velocity=0 time=21
note_on channel=0 note=50 velocity=47 time=17
note_on channel=0 note=43 velocity=0 time=21
note_on channel=0 note=74 velocity=60 time=1
note_on channel=0 note=74 velocity=0 time=110
note_on channel=0 note=43 velocity=58 time=1
note_on channel=0 note=50 velocity=0 time=75
note_on channel=0 note=83 velocity=69 time=23
note_on channel=0 note=81 velocity=75 time=14
note_on channel=0 note=57 velocity=65 time=4
note_on channel=0 note=50 velocity=30 time=18
note_on channel=0 note=81 velocity=0 time=57
note_on channel=0 note=50 velocity=0 time=17
note_on channel=0 note=83 velocity=0 time=11
note_on channel=0 note=46 velocity=0 time=12
note_on channel=0 note=50 velocity=56 time=51
note_on channel=0 note=46 velocity=57 time=19
note_on channel=0 note=43 velocity=0 time=3
note_on channel=0 note=57 velocity=0 time=8
note_on channel=0 note=89 velocity=91 time=4
note_on channel=0 note=77 velocity=75 time=4
note_on channel=0 note=79 velocity=84 time=1
note_on channel=0 note=79 velocity=0 time=38
note_on channel=0 note=77 velocity=0 time=25
note_on channel=0 note=89 velocity=0 time=15
note_on channel=0 note=57 velocity=61 time=108
note_on channel=0 note=75 velocity=91 time=62
note_on channel=0 note=84 velocity=63 time=16
note_on channel=0 note=50 velocity=0 time=6
note_on channel=0 note=82 velocity=43 time=16
note_on channel=0 note=84 velocity=0 time=23
note_on channel=0 note=82 velocity=0 time=42
note_on channel=0 note=75 velocity=0 time=15
note_on channel=0 note=43 velocity=75 time=11
note_on channel=0 note=57 velocity=0 time=4
note_on channel=0 note=82 velocity=73 time=81
note_on channel=0 note=46 velocity=0 time=6
note_on channel=0 note=74 velocity=84 time=13
note_on channel=0 note=46 velocity=38 time=21
note_on channel=0 note=74 velocity=0 time=71
note_on channel=0 note=50 velocity=55 time=13
note_on channel=0 note=83 velocity=57 time=1
note_on channel=0 note=82 velocity=0 time=7
note_on channel=0 note=83 velocity=0 time=38
note_on channel=0 note=57 velocity=75 time=10
note_on channel=0 note=43 velocity=0 time=47
note_on channel=0 note=46 velocity=0 time=21
note_on channel=0 note=46 velocity=66 time=59
note_on channel=0 note=50 velocity=0 time=5
note_on channel=0 note=89 velocity=97 time=9
note_on channel=0 note=77 velocity=75 time=1
note_on channel=0 note=79 velocity=97 time=0
note_on channel=0 note=57 velocity=0 time=19
note_on channel=0 note=79 velocity=0 time=63
note_on channel=0 note=77 velocity=0 time=14
note_on channel=0 note=89 velocity=0 time=4
note_on channel=0 note=43 velocity=66 time=32
note_on channel=0 note=46 velocity=0 time=123
note_on channel=0 note=57 velocity=69 time=19
note_on channel=0 note=75 velocity=85 time=57
note_on channel=0 note=50 velocity=33 time=2
note_on channel=0 note=82 velocity=47 time=29
note_on channel=0 note=84 velocity=45 time=0
note_on channel=0 note=75 velocity=0 time=48
note_on channel=0 note=43 velocity=0 time=4
note_on channel=0 note=82 velocity=0 time=9
note_on channel=0 note=46 velocity=57 time=4
note_on channel=0 note=57 velocity=0 time=10
note_on channel=0 note=84 velocity=0 time=4
note_on channel=0 note=43 velocity=61 time=73
note_on channel=0 note=50 velocity=0 time=28
note_on channel=0 note=46 velocity=0 time=116
note_on channel=0 note=77 velocity=72 time=5
note_on channel=0 note=88 velocity=84 time=2
note_on channel=0 note=79 velocity=75 time=8
note_on channel=0 note=57 velocity=55 time=8
note_on channel=0 note=55 velocity=57 time=10
note_on channel=0 note=79 velocity=0 time=16
note_on channel=0 note=77 velocity=0 time=30
note_on channel=0 note=55 velocity=0 time=2
note_on channel=0 note=88 velocity=0 time=14
note_on channel=0 note=46 velocity=59 time=40
note_on channel=0 note=57 velocity=0 time=28
note_on channel=0 note=50 velocity=57 time=18
note_on channel=0 note=80 velocity=85 time=0
note_on channel=0 note=90 velocity=48 time=9
note_on channel=0 note=89 velocity=63 time=4
note_on channel=0 note=43 velocity=0 time=34
note_on channel=0 note=89 velocity=0 time=6
note_on channel=0 note=90 velocity=0 time=14
note_on channel=0 note=80 velocity=0 time=1
note_on channel=0 note=57 velocity=65 time=85
note_on channel=0 note=78 velocity=85 time=4
note_on channel=0 note=87 velocity=75 time=3
note_on channel=0 note=78 velocity=0 time=21
note_on channel=0 note=88 velocity=54 time=2
note_on channel=0 note=79 velocity=63 time=2
note_on channel=0 note=77 velocity=78 time=4
note_on channel=0 note=85 velocity=48 time=6
note_on channel=0 note=87 velocity=0 time=9
note_on channel=0 note=46 velocity=0 time=1
note_on channel=0 note=77 velocity=0 time=18
note_on channel=0 note=79 velocity=0 time=4
note_on channel=0 note=88 velocity=0 time=7
note_on channel=0 note=85 velocity=0 time=17
note_on channel=0 note=50 velocity=0 time=14
note_on channel=0 note=85 velocity=91 time=36
note_on channel=0 note=86 velocity=82 time=2
note_on channel=0 note=76 velocity=91 time=6
note_on channel=0 note=77 velocity=63 time=9
note_on channel=0 note=57 velocity=0 time=16
note_on channel=0 note=46 velocity=69 time=5
note_on channel=0 note=77 velocity=0 time=13
note_on channel=0 note=76 velocity=0 time=2
note_on channel=0 note=43 velocity=65 time=9
note_on channel=0 note=85 velocity=0 time=44
note_on channel=0 note=86 velocity=0 time=12
note_on channel=0 note=93 velocity=91 time=77
note_on channel=0 note=94 velocity=87 time=7
note_on channel=0 note=83 velocity=87 time=8
note_on channel=0 note=84 velocity=75 time=1
note_on channel=0 note=50 velocity=37 time=1
note_on channel=0 note=92 velocity=59 time=6
note_on channel=0 note=84 velocity=0 time=23
note_on channel=0 note=94 velocity=0 time=1
note_on channel=0 note=83 velocity=0 time=2
note_on channel=0 note=57 velocity=63 time=10
note_on channel=0 note=92 velocity=0 time=4
note_on channel=0 note=46 velocity=0 time=10
note_on channel=0 note=93 velocity=0 time=20
note_on channel=0 note=50 velocity=0 time=21
note_on channel=0 note=90 velocity=91 time=79
note_on channel=0 note=80 velocity=97 time=5
note_on channel=0 note=82 velocity=61 time=23
note_on channel=0 note=50 velocity=56 time=36
note_on channel=0 note=46 velocity=57 time=4
note_on channel=0 note=82 velocity=0 time=4
note_on channel=0 note=57 velocity=0 time=3
note_on channel=0 note=80 velocity=0 time=12
note_on channel=0 note=90 velocity=0 time=27
note_on channel=0 note=43 velocity=0 time=4
note_on channel=0 note=80 velocity=31 time=24
note_on channel=0 note=80 velocity=0 time=41
note_on channel=0 note=43 velocity=66 time=74
note_on channel=0 note=50 velocity=0 time=6
note_on channel=0 note=86 velocity=82 time=24
note_on channel=0 note=77 velocity=63 time=11
note_on channel=0 note=79 velocity=72 time=8
note_on channel=0 note=46 velocity=0 time=21
note_on channel=0 note=79 velocity=0 time=24
note_on channel=0 note=77 velocity=0 time=61
note_on channel=0 note=46 velocity=48 time=38
note_on channel=0 note=86 velocity=0 time=23
note_on channel=0 note=50 velocity=48 time=18
note_on channel=0 note=57 velocity=72 time=21
note_on channel=0 note=43 velocity=0 time=57
note_on channel=0 note=46 velocity=0 time=48
note_on channel=0 note=96 velocity=117 time=28
note_on channel=0 note=46 velocity=50 time=2
note_on channel=0 note=86 velocity=91 time=1
note_on channel=0 note=84 velocity=91 time=7
note_on channel=0 note=94 velocity=60 time=10
note_on channel=0 note=57 velocity=0 time=15
note_on channel=0 note=88 velocity=53 time=0
note_on channel=0 note=84 velocity=0 time=5
note_on channel=0 note=94 velocity=0 time=21
note_on channel=0 note=86 velocity=0 time=17
note_on channel=0 note=88 velocity=0 time=8
note_on channel=0 note=96 velocity=0 time=3
note_on channel=0 note=43 velocity=61 time=8
note_on channel=0 note=50 velocity=0 time=17
note_on channel=0 note=46 velocity=0 time=86
note_on channel=0 note=57 velocity=46 time=61
note_on channel=0 note=59 velocity=46 time=1
note_on channel=0 note=59 velocity=0 time=52
note_on channel=0 note=78 velocity=85 time=36
note_on channel=0 note=69 velocity=87 time=7
note_on channel=0 note=71 velocity=84 time=2
note_on channel=0 note=79 velocity=78 time=7
note_on channel=0 note=71 velocity=0 time=33
note_on channel=0 note=69 velocity=0 time=6
note_on channel=0 note=57 velocity=0 time=7
note_on channel=0 note=78 velocity=0 time=18
note_on channel=0 note=46 velocity=64 time=12
note_on channel=0 note=79 velocity=0 time=10
note_on channel=0 note=50 velocity=49 time=1
note_on channel=0 note=43 velocity=0 time=56
note_on channel=0 note=59 velocity=60 time=43
note_on channel=0 note=50 velocity=0 time=149
note_on channel=0 note=59 velocity=0 time=7
note_on channel=0 note=96 velocity=97 time=18
note_on channel=0 note=84 velocity=91 time=2
note_on channel=0 note=86 velocity=97 time=7
note_on channel=0 note=86 velocity=0 time=28
note_on channel=0 note=95 velocity=48 time=0
note_on channel=0 note=50 velocity=47 time=26
note_on channel=0 note=96 velocity=0 time=8
note_on channel=0 note=84 velocity=0 time=2
note_on channel=0 note=43 velocity=40 time=23
note_on channel=0 note=95 velocity=0 time=5
note_on channel=0 note=45 velocity=50 time=6
note_on channel=0 note=43 velocity=0 time=75
note_on channel=0 note=50 velocity=0 time=25
note_on channel=0 note=60 velocity=65 time=26
note_on channel=0 note=59 velocity=60 time=5
note_on channel=0 note=46 velocity=0 time=9
note_on channel=0 note=45 velocity=0 time=9
note_on channel=0 note=59 velocity=0 time=30
note_on channel=0 note=51 velocity=66 time=68
note_on channel=0 note=54 velocity=61 time=9
note_on channel=0 note=53 velocity=60 time=30
note_on channel=0 note=54 velocity=0 time=11
note_on channel=0 note=60 velocity=0 time=9
note_on channel=0 note=50 velocity=49 time=7
note_on channel=0 note=72 velocity=87 time=64
note_on channel=0 note=64 velocity=93 time=6
note_on channel=0 note=65 velocity=87 time=7
note_on channel=0 note=70 velocity=68 time=9
note_on channel=0 note=71 velocity=65 time=2
note_on channel=0 note=65 velocity=0 time=19
note_on channel=0 note=70 velocity=0 time=14
note_on channel=0 note=53 velocity=0 time=1
note_on channel=0 note=50 velocity=0 time=1
note_on channel=0 note=71 velocity=0 time=2
note_on channel=0 note=64 velocity=0 time=14
note_on channel=0 note=51 velocity=0 time=5
note_on channel=0 note=60 velocity=72 time=1
note_on channel=0 note=62 velocity=47 time=7
note_on channel=0 note=72 velocity=0 time=10
note_on channel=0 note=56 velocity=64 time=59
note_on channel=0 note=62 velocity=0 time=4
note_on channel=0 note=51 velocity=41 time=26
note_on channel=0 note=52 velocity=43 time=23
note_on channel=0 note=60 velocity=0 time=13
note_on channel=0 note=53 velocity=44 time=8
note_on channel=0 note=55 velocity=58 time=4
note_on channel=0 note=53 velocity=0 time=74
note_on channel=0 note=52 velocity=0 time=10
note_on channel=0 note=60 velocity=69 time=36
note_on channel=0 note=55 velocity=0 time=2
note_on channel=0 note=52 velocity=48 time=36
note_on channel=0 note=56 velocity=0 time=10
note_on channel=0 note=52 velocity=0 time=64
note_on channel=0 note=51 velocity=0 time=11
note_on channel=0 note=60 velocity=0 time=3
note_on channel=0 note=81 velocity=87 time=5
note_on channel=0 note=91 velocity=91 time=5
note_on channel=0 note=83 velocity=91 time=6
note_on channel=0 note=89 velocity=81 time=4
note_on channel=0 note=54 velocity=75 time=9
note_on channel=0 note=56 velocity=57 time=5
note_on channel=0 note=83 velocity=0 time=13
note_on channel=0 note=89 velocity=0 time=5
note_on channel=0 note=52 velocity=39 time=15
note_on channel=0 note=91 velocity=0 time=17
note_on channel=0 note=81 velocity=0 time=1
note_on channel=0 note=57 velocity=63 time=105
note_on channel=0 note=54 velocity=0 time=1
note_on channel=0 note=59 velocity=44 time=15
note_on channel=0 note=56 velocity=0 time=6
note_on channel=0 note=54 velocity=56 time=53
note_on channel=0 note=59 velocity=0 time=11
note_on channel=0 note=57 velocity=0 time=14
note_on channel=0 note=52 velocity=0 time=92
note_on channel=0 note=55 velocity=60 time=24
note_on channel=0 note=54 velocity=0 time=30
note_on channel=0 note=70 velocity=104 time=2
note_on channel=0 note=62 velocity=93 time=4
note_on channel=0 note=64 velocity=89 time=5
note_on channel=0 note=64 velocity=0 time=27
note_on channel=0 note=62 velocity=0 time=34
note_on channel=0 note=70 velocity=0 time=13
note_on channel=0 note=54 velocity=38 time=43
note_on channel=0 note=53 velocity=57 time=7
note_on channel=0 note=55 velocity=0 time=21
note_on channel=0 note=51 velocity=37 time=18
note_on channel=0 note=54 velocity=0 time=16
note_on channel=0 note=51 velocity=0 time=57
note_on channel=0 note=53 velocity=0 time=17
note_on channel=0 note=53 velocity=48 time=57
note_on channel=0 note=55 velocity=58 time=2
note_on channel=0 note=48 velocity=36 time=2
note_on channel=0 note=48 velocity=0 time=48
note_on channel=0 note=81 velocity=97 time=3
note_on channel=0 note=71 velocity=91 time=3
note_on channel=0 note=72 velocity=97 time=5
note_on channel=0 note=45 velocity=61 time=53
note_on channel=0 note=51 velocity=39 time=20
note_on channel=0 note=53 velocity=0 time=4
note_on channel=0 note=55 velocity=0 time=3
note_on channel=0 note=72 velocity=0 time=23
note_on channel=0 note=81 velocity=0 time=29
note_on channel=0 note=71 velocity=0 time=7
note_on channel=0 note=51 velocity=0 time=53
note_on channel=0 note=57 velocity=55 time=10
note_on channel=0 note=46 velocity=48 time=2
note_on channel=0 note=55 velocity=69 time=8
note_on channel=0 note=57 velocity=0 time=92
note_on channel=0 note=51 velocity=56 time=4
note_on channel=0 note=49 velocity=61 time=7
note_on channel=0 note=73 velocity=87 time=23
note_on channel=0 note=55 velocity=0 time=1
note_on channel=0 note=63 velocity=98 time=5
note_on channel=0 note=46 velocity=0 time=82
note_on channel=0 note=63 velocity=0 time=11
note_on channel=0 note=49 velocity=0 time=8
note_on channel=0 note=73 velocity=0 time=7
note_on channel=0 note=45 velocity=0 time=18
note_on channel=0 note=52 velocity=75 time=7
note_on channel=0 note=51 velocity=0 time=25
note_on channel=0 note=45 velocity=34 time=57
note_on channel=0 note=49 velocity=59 time=7
note_on channel=0 note=46 velocity=33 time=21
note_on channel=0 note=52 velocity=0 time=2
note_on channel=0 note=46 velocity=0 time=55
note_on channel=0 note=49 velocity=0 time=36
note_on channel=0 note=45 velocity=0 time=20
note_on channel=0 note=75 velocity=117 time=21
note_on channel=0 note=48 velocity=79 time=14
note_on channel=0 note=69 velocity=63 time=1
note_on channel=0 note=67 velocity=66 time=3
note_on channel=0 note=67 velocity=0 time=37
note_on channel=0 note=69 velocity=0 time=4
note_on channel=0 note=75 velocity=0 time=29
note_on channel=0 note=42 velocity=54 time=97
note_on channel=0 note=38 velocity=46 time=7
note_on channel=0 note=48 velocity=0 time=16
note_on channel=0 note=66 velocity=104 time=81
note_on channel=0 note=77 velocity=84 time=8
note_on channel=0 note=76 velocity=87 time=6
note_on channel=0 note=42 velocity=0 time=34
note_on channel=0 note=76 velocity=0 time=4
note_on channel=0 note=50 velocity=69 time=21
note_on channel=0 note=48 velocity=58 time=1
note_on channel=0 note=77 velocity=0 time=1
note_on channel=0 note=50 velocity=0 time=46
note_on channel=0 note=66 velocity=0 time=6
note_on channel=0 note=48 velocity=0 time=82
note_on channel=0 note=42 velocity=63 time=1
note_on channel=0 note=55 velocity=98 time=78
note_on channel=0 note=61 velocity=72 time=3
note_on channel=0 note=57 velocity=85 time=3
note_on channel=0 note=62 velocity=72 time=2
note_on channel=0 note=38 velocity=0 time=29
note_on channel=0 note=43 velocity=75 time=9
note_on channel=0 note=62 velocity=0 time=28
note_on channel=0 note=57 velocity=0 time=5
note_on channel=0 note=42 velocity=0 time=1
note_on channel=0 note=55 velocity=0 time=1
note_on channel=0 note=61 velocity=0 time=3
note_on channel=0 note=31 velocity=59 time=175
note_on channel=0 note=33 velocity=69 time=1
note_on channel=0 note=43 velocity=0 time=4
note_on channel=0 note=67 velocity=87 time=17
note_on channel=0 note=74 velocity=97 time=0
note_on channel=0 note=65 velocity=75 time=3
note_on channel=0 note=69 velocity=66 time=20
note_on channel=0 note=65 velocity=0 time=30
note_on channel=0 note=69 velocity=0 time=9
note_on channel=0 note=74 velocity=0 time=16
note_on channel=0 note=67 velocity=0 time=7
note_on channel=0 note=31 velocity=0 time=68
note_on channel=0 note=43 velocity=63 time=50
note_on channel=0 note=58 velocity=98 time=60
note_on channel=0 note=66 velocity=79 time=5
note_on channel=0 note=66 velocity=0 time=34
note_on channel=0 note=37 velocity=68 time=16
note_on channel=0 note=58 velocity=0 time=7
note_on channel=0 note=43 velocity=0 time=40
note_on channel=0 note=33 velocity=0 time=92
note_on channel=0 note=37 velocity=0 time=2
note_on channel=0 note=40 velocity=69 time=38
note_on channel=0 note=38 velocity=64 time=3
note_on channel=0 note=53 velocity=85 time=24
note_on channel=0 note=33 velocity=42 time=2
note_on channel=0 note=55 velocity=85 time=3
note_on channel=0 note=59 velocity=69 time=5
note_on channel=0 note=58 velocity=66 time=2
note_on channel=0 note=58 velocity=0 time=36
note_on channel=0 note=33 velocity=0 time=20
note_on channel=0 note=53 velocity=0 time=7
note_on channel=0 note=55 velocity=0 time=10
note_on channel=0 note=59 velocity=0 time=6
note_on channel=0 note=38 velocity=0 time=32
note_on channel=0 note=40 velocity=0 time=80
note_on channel=0 note=35 velocity=41 time=29
note_on channel=0 note=71 velocity=97 time=6
note_on channel=0 note=37 velocity=71 time=6
note_on channel=0 note=64 velocity=89 time=1
note_on channel=0 note=62 velocity=85 time=1
note_on channel=0 note=70 velocity=70 time=7
note_on channel=0 note=65 velocity=66 time=15
note_on channel=0 note=36 velocity=39 time=11
note_on channel=0 note=70 velocity=0 time=12
note_on channel=0 note=68 velocity=34 time=4
note_on channel=0 note=65 velocity=0 time=14
note_on channel=0 note=68 velocity=0 time=26
note_on channel=0 note=36 velocity=0 time=5
note_on channel=0 note=71 velocity=0 time=21
note_on channel=0 note=35 velocity=0 time=3
note_on channel=0 note=64 velocity=0 time=2
note_on channel=0 note=62 velocity=0 time=6
note_on channel=0 note=37 velocity=0 time=51
note_on channel=0 note=38 velocity=39 time=9
note_on channel=0 note=38 velocity=0 time=72
note_on channel=0 note=40 velocity=48 time=28
note_on channel=0 note=38 velocity=76 time=4
note_on channel=0 note=52 velocity=93 time=25
note_on channel=0 note=35 velocity=39 time=1
note_on channel=0 note=53 velocity=85 time=0
note_on channel=0 note=60 velocity=75 time=2
note_on channel=0 note=58 velocity=61 time=13
note_on channel=0 note=37 velocity=68 time=20
note_on channel=0 note=60 velocity=0 time=0
note_on channel=0 note=53 velocity=0 time=2
note_on channel=0 note=58 velocity=0 time=15
note_on channel=0 note=35 velocity=0 time=2
note_on channel=0 note=52 velocity=0 time=11
note_on channel=0 note=38 velocity=0 time=31
note_on channel=0 note=40 velocity=0 time=3
note_on channel=0 note=37 velocity=0 time=59
control_change channel=0 control=64 value=0 time=197
note_on channel=0 note=49 velocity=107 time=8
note_on channel=0 note=47 velocity=89 time=6
note_on channel=0 note=50 velocity=89 time=1
note_on channel=0 note=45 velocity=93 time=1
note_on channel=0 note=24 velocity=117 time=7
note_on channel=0 note=51 velocity=64 time=1
control_change channel=0 control=64 value=127 time=102
note_on channel=0 note=51 velocity=0 time=64
note_on channel=0 note=47 velocity=0 time=8
note_on channel=0 note=45 velocity=0 time=1
note_on channel=0 note=49 velocity=0 time=36
note_on channel=0 note=50 velocity=0 time=12
note_on channel=0 note=36 velocity=64 time=179
note_on channel=0 note=35 velocity=73 time=5
note_on channel=0 note=27 velocity=82 time=118
note_on channel=0 note=35 velocity=0 time=44
note_on channel=0 note=36 velocity=0 time=9
note_on channel=0 note=24 velocity=0 time=3
note_on channel=0 note=28 velocity=61 time=8
note_on channel=0 note=27 velocity=0 time=22
note_on channel=0 note=28 velocity=0 time=18
note_on channel=0 note=86 velocity=84 time=46
note_on channel=0 note=76 velocity=97 time=2
note_on channel=0 note=77 velocity=72 time=21
note_on channel=0 note=77 velocity=0 time=37
note_on channel=0 note=76 velocity=0 time=90
note_on channel=0 note=86 velocity=0 time=1
note_on channel=0 note=60 velocity=44 time=102
note_on channel=0 note=62 velocity=31 time=172
note_on channel=0 note=71 velocity=48 time=93
note_on channel=0 note=68 velocity=58 time=147
note_on channel=0 note=71 velocity=0 time=45
note_on channel=0 note=62 velocity=0 time=11
note_on channel=0 note=86 velocity=84 time=65
note_on channel=0 note=76 velocity=75 time=6
note_on channel=0 note=77 velocity=82 time=3
note_on channel=0 note=84 velocity=50 time=26
note_on channel=0 note=77 velocity=0 time=26
note_on channel=0 note=76 velocity=0 time=26
note_on channel=0 note=84 velocity=0 time=7
note_on channel=0 note=86 velocity=0 time=8
note_on channel=0 note=68 velocity=0 time=39
note_on channel=0 note=66 velocity=51 time=144
note_on channel=0 note=68 velocity=55 time=46
note_on channel=0 note=66 velocity=0 time=128
note_on channel=0 note=69 velocity=41 time=32
note_on channel=0 note=71 velocity=42 time=4
note_on channel=0 note=68 velocity=0 time=56
note_on channel=0 note=66 velocity=58 time=40
note_on channel=0 note=71 velocity=0 time=36
note_on channel=0 note=69 velocity=0 time=12
note_on channel=0 note=68 velocity=51 time=11
note_on channel=0 note=86 velocity=82 time=135
note_on channel=0 note=76 velocity=84 time=6
note_on channel=0 note=74 velocity=91 time=2
note_on channel=0 note=74 velocity=0 time=66
note_on channel=0 note=66 velocity=0 time=4
note_on channel=0 note=76 velocity=0 time=1
note_on channel=0 note=68 velocity=0 time=4
note_on channel=0 note=86 velocity=0 time=7
note_on channel=0 note=69 velocity=41 time=99
note_on channel=0 note=71 velocity=48 time=8
note_on channel=0 note=68 velocity=47 time=68
note_on channel=0 note=71 velocity=0 time=84
note_on channel=0 note=66 velocity=61 time=9
note_on channel=0 note=60 velocity=0 time=9
note_on channel=0 note=69 velocity=0 time=5
note_on channel=0 note=68 velocity=0 time=77
note_on channel=0 note=60 velocity=48 time=58
note_on channel=0 note=71 velocity=33 time=52
note_on channel=0 note=69 velocity=39 time=26
note_on channel=0 note=68 velocity=66 time=10
note_on channel=0 note=69 velocity=0 time=56
note_on channel=0 note=71 velocity=0 time=22
note_on channel=0 note=86 velocity=82 time=61
note_on channel=0 note=74 velocity=84 time=8
note_on channel=0 note=76 velocity=82 time=1
note_on channel=0 note=60 velocity=0 time=9
note_on channel=0 note=68 velocity=0 time=31
note_on channel=0 note=74 velocity=0 time=28
note_on channel=0 note=66 velocity=0 time=6
note_on channel=0 note=86 velocity=0 time=7
note_on channel=0 note=76 velocity=0 time=3
note_on channel=0 note=60 velocity=40 time=54
note_on channel=0 note=69 velocity=49 time=42
note_on channel=0 note=71 velocity=58 time=4
note_on channel=0 note=68 velocity=37 time=124
note_on channel=0 note=71 velocity=0 time=14
note_on channel=0 note=69 velocity=0 time=20
note_on channel=0 note=60 velocity=0 time=57
note_on channel=0 note=60 velocity=47 time=102
note_on channel=0 note=69 velocity=32 time=33
note_on channel=0 note=66 velocity=57 time=39
note_on channel=0 note=68 velocity=0 time=3
note_on channel=0 note=69 velocity=0 time=40
note_on channel=0 note=68 velocity=60 time=41
note_on channel=0 note=86 velocity=75 time=60
note_on channel=0 note=74 velocity=72 time=4
note_on channel=0 note=76 velocity=75 time=3
note_on channel=0 note=66 velocity=0 time=56
note_on channel=0 note=76 velocity=0 time=4
note_on channel=0 note=74 velocity=0 time=7
note_on channel=0 note=86 velocity=0 time=8
note_on channel=0 note=69 velocity=32 time=9
note_on channel=0 note=71 velocity=35 time=4
note_on channel=0 note=68 velocity=0 time=5
note_on channel=0 note=71 velocity=0 time=84
note_on channel=0 note=66 velocity=48 time=8
note_on channel=0 note=69 velocity=0 time=0
note_on channel=0 note=68 velocity=42 time=51
note_on channel=0 note=66 velocity=0 time=93
note_on channel=0 note=60 velocity=0 time=47
note_on channel=0 note=69 velocity=47 time=9
note_on channel=0 note=71 velocity=50 time=3
note_on channel=0 note=68 velocity=0 time=14
note_on channel=0 note=66 velocity=41 time=31
note_on channel=0 note=71 velocity=0 time=48
note_on channel=0 note=69 velocity=0 time=10
note_on channel=0 note=60 velocity=33 time=19
note_on channel=0 note=68 velocity=49 time=20
note_on channel=0 note=66 velocity=0 time=123
note_on channel=0 note=69 velocity=37 time=29
note_on channel=0 note=71 velocity=43 time=1
note_on channel=0 note=68 velocity=0 time=29
note_on channel=0 note=66 velocity=36 time=45
note_on channel=0 note=71 velocity=0 time=6
note_on channel=0 note=69 velocity=0 time=8
note_on channel=0 note=74 velocity=82 time=48
note_on channel=0 note=75 velocity=85 time=6
note_on channel=0 note=82 velocity=75 time=1
note_on channel=0 note=78 velocity=73 time=10
note_on channel=0 note=68 velocity=53 time=1
note_on channel=0 note=80 velocity=64 time=9
note_on channel=0 note=69 velocity=44 time=6
note_on channel=0 note=74 velocity=0 time=35
note_on channel=0 note=80 velocity=0 time=13
note_on channel=0 note=75 velocity=0 time=14
note_on channel=0 note=82 velocity=0 time=6
note_on channel=0 note=78 velocity=0 time=2
note_on channel=0 note=68 velocity=0 time=26
note_on channel=0 note=66 velocity=0 time=36
note_on channel=0 note=69 velocity=0 time=62
note_on channel=0 note=68 velocity=55 time=56
note_on channel=0 note=66 velocity=39 time=12
note_on channel=0 note=66 velocity=0 time=75
note_on channel=0 note=68 velocity=0 time=38
note_on channel=0 note=69 velocity=42 time=32
note_on channel=0 note=71 velocity=43 time=6
note_on channel=0 note=71 velocity=0 time=79
note_on channel=0 note=69 velocity=0 time=20
note_on channel=0 note=66 velocity=61 time=7
note_on channel=0 note=68 velocity=42 time=25
note_on channel=0 note=60 velocity=0 time=3
note_on channel=0 note=66 velocity=0 time=133
note_on channel=0 note=60 velocity=31 time=10
note_on channel=0 note=68 velocity=0 time=8
note_on channel=0 note=72 velocity=87 time=141
note_on channel=0 note=75 velocity=85 time=3
note_on channel=0 note=78 velocity=79 time=1
note_on channel=0 note=80 velocity=70 time=9
note_on channel=0 note=68 velocity=75 time=1
note_on channel=0 note=66 velocity=64 time=8
note_on channel=0 note=69 velocity=66 time=16
note_on channel=0 note=71 velocity=72 time=3
note_on channel=0 note=80 velocity=0 time=28
note_on channel=0 note=72 velocity=0 time=5
note_on channel=0 note=75 velocity=0 time=6
note_on channel=0 note=78 velocity=0 time=4
note_on channel=0 note=69 velocity=0 time=7
note_on channel=0 note=71 velocity=0 time=4
note_on channel=0 note=60 velocity=0 time=16
note_on channel=0 note=66 velocity=0 time=35
note_on channel=0 note=68 velocity=0 time=19
note_on channel=0 note=66 velocity=49 time=148
note_on channel=0 note=68 velocity=57 time=84
note_on channel=0 note=71 velocity=41 time=44
note_on channel=0 note=69 velocity=39 time=4
note_on channel=0 note=66 velocity=0 time=16
note_on channel=0 note=71 velocity=0 time=52
note_on channel=0 note=69 velocity=0 time=2
note_on channel=0 note=66 velocity=43 time=42
note_on channel=0 note=68 velocity=0 time=1
note_on channel=0 note=60 velocity=41 time=43
note_on channel=0 note=66 velocity=0 time=77
note_on channel=0 note=68 velocity=36 time=0
note_on channel=0 note=68 velocity=0 time=87
note_on channel=0 note=71 velocity=78 time=56
note_on channel=0 note=73 velocity=97 time=1
note_on channel=0 note=75 velocity=85 time=7
note_on channel=0 note=66 velocity=66 time=4
note_on channel=0 note=71 velocity=0 time=57
note_on channel=0 note=68 velocity=68 time=1
note_on channel=0 note=69 velocity=44 time=4
note_on channel=0 note=75 velocity=0 time=7
note_on channel=0 note=73 velocity=0 time=5
note_on channel=0 note=69 velocity=0 time=53
note_on channel=0 note=60 velocity=0 time=9
note_on channel=0 note=66 velocity=0 time=45
note_on channel=0 note=68 velocity=0 time=6
note_on channel=0 note=60 velocity=38 time=72
note_on channel=0 note=68 velocity=40 time=120
note_on channel=0 note=66 velocity=40 time=18
note_on channel=0 note=60 velocity=0 time=23
note_on channel=0 note=68 velocity=0 time=30
note_on channel=0 note=66 velocity=0 time=127
note_on channel=0 note=60 velocity=28 time=25
note_on channel=0 note=68 velocity=42 time=36
note_on channel=0 note=68 velocity=0 time=68
note_on channel=0 note=60 velocity=0 time=45
note_on channel=0 note=66 velocity=48 time=24
note_on channel=0 note=74 velocity=87 time=136
note_on channel=0 note=76 velocity=84 time=8
note_on channel=0 note=68 velocity=75 time=3
note_on channel=0 note=83 velocity=66 time=3
note_on channel=0 note=69 velocity=72 time=3
note_on channel=0 note=71 velocity=84 time=2
note_on channel=0 note=60 velocity=65 time=1
note_on channel=0 note=79 velocity=75 time=1
note_on channel=0 note=78 velocity=64 time=3
note_on channel=0 note=81 velocity=58 time=10
note_on channel=0 note=75 velocity=39 time=1
note_on channel=0 note=74 velocity=0 time=23
note_on channel=0 note=78 velocity=0 time=0
note_on channel=0 note=69 velocity=0 time=8
note_on channel=0 note=81 velocity=0 time=9
note_on channel=0 note=71 velocity=0 time=7
note_on channel=0 note=75 velocity=0 time=2
note_on channel=0 note=83 velocity=0 time=3
note_on channel=0 note=79 velocity=0 time=6
note_on channel=0 note=76 velocity=0 time=1
note_on channel=0 note=60 velocity=0 time=10
note_on channel=0 note=68 velocity=0 time=42
note_on channel=0 note=66 velocity=0 time=8
note_on channel=0 note=60 velocity=43 time=186
note_on channel=0 note=68 velocity=46 time=13
note_on channel=0 note=68 velocity=0 time=60
note_on channel=0 note=68 velocity=48 time=100
note_on channel=0 note=68 velocity=0 time=163
note_on channel=0 note=66 velocity=55 time=17
note_on channel=0 note=68 velocity=57 time=153
note_on channel=0 note=86 velocity=78 time=2
note_on channel=0 note=76 velocity=87 time=1
note_on channel=0 note=78 velocity=85 time=3
note_on channel=0 note=66 velocity=0 time=10
note_on channel=0 note=80 velocity=61 time=11
note_on channel=0 note=71 velocity=49 time=16
note_on channel=0 note=76 velocity=0 time=0
note_on channel=0 note=69 velocity=40 time=6
note_on channel=0 note=83 velocity=42 time=2
note_on channel=0 note=80 velocity=0 time=18
note_on channel=0 note=78 velocity=0 time=4
note_on channel=0 note=86 velocity=0 time=5
note_on channel=0 note=66 velocity=46 time=20
note_on channel=0 note=71 velocity=0 time=0
note_on channel=0 note=83 velocity=0 time=8
note_on channel=0 note=69 velocity=0 time=14
note_on channel=0 note=68 velocity=0 time=26
note_on channel=0 note=66 velocity=0 time=106
note_on channel=0 note=68 velocity=51 time=10
note_on channel=0 note=60 velocity=0 time=27
note_on channel=0 note=68 velocity=0 time=96
note_on channel=0 note=66 velocity=56 time=33
note_on channel=0 note=68 velocity=52 time=140
note_on channel=0 note=66 velocity=0 time=86
note_on channel=0 note=60 velocity=46 time=79
note_on channel=0 note=68 velocity=0 time=9
note_on channel=0 note=76 velocity=87 time=74
note_on channel=0 note=78 velocity=85 time=3
note_on channel=0 note=80 velocity=75 time=4
note_on channel=0 note=66 velocity=63 time=1
note_on channel=0 note=84 velocity=65 time=1
note_on channel=0 note=82 velocity=68 time=10
note_on channel=0 note=68 velocity=56 time=4
note_on channel=0 note=71 velocity=47 time=18
note_on channel=0 note=69 velocity=43 time=8
note_on channel=0 note=82 velocity=0 time=3
note_on channel=0 note=84 velocity=0 time=10
note_on channel=0 note=78 velocity=0 time=7
note_on channel=0 note=76 velocity=0 time=1
note_on channel=0 note=80 velocity=0 time=27
note_on channel=0 note=71 velocity=0 time=22
note_on channel=0 note=66 velocity=0 time=5
note_on channel=0 note=69 velocity=0 time=21
note_on channel=0 note=68 velocity=0 time=9
note_on channel=0 note=66 velocity=60 time=135
note_on channel=0 note=68 velocity=39 time=58
note_on channel=0 note=66 velocity=0 time=72
note_on channel=0 note=68 velocity=0 time=36
note_on channel=0 note=66 velocity=41 time=68
note_on channel=0 note=68 velocity=52 time=122
note_on channel=0 note=60 velocity=0 time=4
note_on channel=0 note=68 velocity=0 time=83
note_on channel=0 note=76 velocity=84 time=66
note_on channel=0 note=78 velocity=85 time=3
note_on channel=0 note=86 velocity=69 time=3
note_on channel=0 note=60 velocity=60 time=3
note_on channel=0 note=80 velocity=75 time=1
note_on channel=0 note=68 velocity=63 time=12
note_on channel=0 note=84 velocity=57 time=5
note_on channel=0 note=71 velocity=50 time=2
note_on channel=0 note=69 velocity=41 time=1
note_on channel=0 note=84 velocity=0 time=42
note_on channel=0 note=76 velocity=0 time=16
note_on channel=0 note=78 velocity=0 time=1
note_on channel=0 note=80 velocity=0 time=2
note_on channel=0 note=86 velocity=0 time=0
note_on channel=0 note=69 velocity=0 time=5
note_on channel=0 note=71 velocity=0 time=0
note_on channel=0 note=66 velocity=0 time=16
note_on channel=0 note=60 velocity=0 time=67
note_on channel=0 note=68 velocity=0 time=19
note_on channel=0 note=60 velocity=39 time=50
note_on channel=0 note=66 velocity=47 time=167
note_on channel=0 note=60 velocity=0 time=84
note_on channel=0 note=68 velocity=49 time=32
note_on channel=0 note=66 velocity=0 time=33
note_on channel=0 note=66 velocity=37 time=99
note_on channel=0 note=68 velocity=0 time=8
note_on channel=0 note=60 velocity=47 time=37
note_on channel=0 note=66 velocity=0 time=73
note_on channel=0 note=68 velocity=51 time=7
note_on channel=0 note=71 velocity=54 time=67
note_on channel=0 note=69 velocity=32 time=26
note_on channel=0 note=66 velocity=68 time=31
note_on channel=0 note=76 velocity=84 time=7
note_on channel=0 note=69 velocity=0 time=4
note_on channel=0 note=86 velocity=78 time=1
note_on channel=0 note=78 velocity=79 time=1
note_on channel=0 note=80 velocity=73 time=2
note_on channel=0 note=82 velocity=55 time=23
note_on channel=0 note=68 velocity=0 time=33
note_on channel=0 note=76 velocity=0 time=12
note_on channel=0 note=82 velocity=0 time=3
note_on channel=0 note=86 velocity=0 time=16
note_on channel=0 note=78 velocity=0 time=2
note_on channel=0 note=80 velocity=0 time=6
note_on channel=0 note=68 velocity=60 time=36
note_on channel=0 note=66 velocity=0 time=34
note_on channel=0 note=71 velocity=0 time=57
note_on channel=0 note=66 velocity=55 time=10
note_on channel=0 note=68 velocity=0 time=21
note_on channel=0 note=66 velocity=0 time=138
note_on channel=0 note=68 velocity=49 time=13
note_on channel=0 note=69 velocity=43 time=6
note_on channel=0 note=71 velocity=42 time=0
note_on channel=0 note=60 velocity=0 time=79
note_on channel=0 note=71 velocity=0 time=13
note_on channel=0 note=66 velocity=45 time=3
note_on channel=0 note=69 velocity=0 time=5
note_on channel=0 note=68 velocity=0 time=37
note_on channel=0 note=68 velocity=43 time=107
note_on channel=0 note=66 velocity=0 time=24
note_on channel=0 note=69 velocity=32 time=16
note_on channel=0 note=71 velocity=33 time=7
note_on channel=0 note=66 velocity=47 time=62
note_on channel=0 note=71 velocity=0 time=5
note_on channel=0 note=69 velocity=0 time=4
note_on channel=0 note=60 velocity=47 time=15
note_on channel=0 note=68 velocity=0 time=19
note_on channel=0 note=62 velocity=42 time=19
note_on channel=0 note=84 velocity=75 time=1
note_on channel=0 note=74 velocity=82 time=3
note_on channel=0 note=78 velocity=79 time=2
note_on channel=0 note=80 velocity=68 time=9
note_on channel=0 note=82 velocity=48 time=27
note_on channel=0 note=68 velocity=58 time=7
note_on channel=0 note=71 velocity=51 time=16
note_on channel=0 note=69 velocity=38 time=3
note_on channel=0 note=62 velocity=0 time=2
note_on channel=0 note=82 velocity=0 time=27
note_on channel=0 note=66 velocity=0 time=1
note_on channel=0 note=74 velocity=0 time=5
note_on channel=0 note=80 velocity=0 time=13
note_on channel=0 note=84 velocity=0 time=9
note_on channel=0 note=60 velocity=0 time=22
note_on channel=0 note=69 velocity=0 time=18
note_on channel=0 note=78 velocity=0 time=2
note_on channel=0 note=71 velocity=0 time=10
note_on channel=0 note=66 velocity=43 time=18
note_on channel=0 note=68 velocity=0 time=22
note_on channel=0 note=68 velocity=48 time=102
note_on channel=0 note=69 velocity=40 time=37
note_on channel=0 note=71 velocity=44 time=1
note_on channel=0 note=66 velocity=0 time=10
note_on channel=0 note=71 velocity=0 time=74
note_on channel=0 note=66 velocity=47 time=9
note_on channel=0 note=69 velocity=0 time=10
note_on channel=0 note=68 velocity=0 time=10
note_on channel=0 note=68 velocity=48 time=113
note_on channel=0 note=66 velocity=0 time=42
note_on channel=0 note=66 velocity=41 time=95
note_on channel=0 note=68 velocity=0 time=14
note_on channel=0 note=68 velocity=61 time=129
note_on channel=0 note=74 velocity=91 time=12
note_on channel=0 note=66 velocity=0 time=1
note_on channel=0 note=78 velocity=85 time=1
note_on channel=0 note=81 velocity=78 time=2
note_on channel=0 note=69 velocity=65 time=2
note_on channel=0 note=71 velocity=82 time=5
note_on channel=0 note=79 velocity=75 time=0
note_on channel=0 note=80 velocity=41 time=25
note_on channel=0 note=80 velocity=0 time=51
note_on channel=0 note=66 velocity=46 time=5
note_on channel=0 note=74 velocity=0 time=5
note_on channel=0 note=71 velocity=0 time=41
note_on channel=0 note=68 velocity=0 time=1
note_on channel=0 note=78 velocity=0 time=1
note_on channel=0 note=69 velocity=0 time=8
note_on channel=0 note=81 velocity=0 time=20
note_on channel=0 note=79 velocity=0 time=2
note_on channel=0 note=68 velocity=51 time=44
note_on channel=0 note=66 velocity=0 time=73
note_on channel=0 note=71 velocity=47 time=68
note_on channel=0 note=69 velocity=42 time=14
note_on channel=0 note=66 velocity=44 time=20
note_on channel=0 note=68 velocity=0 time=0
note_on channel=0 note=69 velocity=0 time=57
note_on channel=0 note=71 velocity=0 time=2
note_on channel=0 note=68 velocity=46 time=62
note_on channel=0 note=66 velocity=0 time=84
note_on channel=0 note=69 velocity=39 time=40
note_on channel=0 note=71 velocity=39 time=7
note_on channel=0 note=68 velocity=0 time=8
note_on channel=0 note=66 velocity=52 time=17
note_on channel=0 note=71 velocity=0 time=45
note_on channel=0 note=69 velocity=0 time=11
note_on channel=0 note=68 velocity=39 time=55
note_on channel=0 note=66 velocity=0 time=117
note_on channel=0 note=69 velocity=35 time=71
note_on channel=0 note=71 velocity=33 time=0
note_on channel=0 note=60 velocity=57 time=14
note_on channel=0 note=68 velocity=0 time=0
note_on channel=0 note=66 velocity=34 time=34
note_on channel=0 note=71 velocity=0 time=44
note_on channel=0 note=69 velocity=0 time=9
note_on channel=0 note=68 velocity=31 time=50
note_on channel=0 note=71 velocity=75 time=32
note_on channel=0 note=69 velocity=56 time=7
note_on channel=0 note=79 velocity=66 time=2
note_on channel=0 note=60 velocity=0 time=9
note_on channel=0 note=73 velocity=73 time=1
note_on channel=0 note=75 velocity=61 time=14
note_on channel=0 note=66 velocity=0 time=1
note_on channel=0 note=69 velocity=0 time=69
note_on channel=0 note=60 velocity=45 time=4
note_on channel=0 note=71 velocity=0 time=24
note_on channel=0 note=79 velocity=0 time=30
note_on channel=0 note=66 velocity=38 time=10
note_on channel=0 note=68 velocity=0 time=1
note_on channel=0 note=73 velocity=0 time=30
note_on channel=0 note=75 velocity=0 time=14
note_on channel=0 note=68 velocity=43 time=80
note_on channel=0 note=60 velocity=0 time=3
note_on channel=0 note=66 velocity=0 time=36
note_on channel=0 note=68 velocity=0 time=131
note_on channel=0 note=66 velocity=38 time=8
note_on channel=0 note=60 velocity=42 time=3
note_on channel=0 note=68 velocity=40 time=133
note_on channel=0 note=66 velocity=0 time=16
note_on channel=0 note=60 velocity=0 time=36
note_on channel=0 note=71 velocity=32 time=37
note_on channel=0 note=68 velocity=0 time=52
note_on channel=0 note=60 velocity=39 time=17
note_on channel=0 note=66 velocity=36 time=11
note_on channel=0 note=71 velocity=0 time=6
note_on channel=0 note=68 velocity=43 time=88
note_on channel=0 note=66 velocity=0 time=65
note_on channel=0 note=60 velocity=0 time=57
note_on channel=0 note=66 velocity=43 time=62
note_on channel=0 note=68 velocity=0 time=21
note_on channel=0 note=60 velocity=39 time=67
note_on channel=0 note=68 velocity=51 time=105
note_on channel=0 note=71 velocity=34 time=40
note_on channel=0 note=68 velocity=0 time=22
note_on channel=0 note=60 velocity=0 time=15
note_on channel=0 note=66 velocity=0 time=2
note_on channel=0 note=71 velocity=0 time=65
note_on channel=0 note=66 velocity=56 time=11
note_on channel=0 note=60 velocity=48 time=30
note_on channel=0 note=62 velocity=33 time=51
note_on channel=0 note=68 velocity=46 time=20
note_on channel=0 note=62 velocity=0 time=55
note_on channel=0 note=71 velocity=40 time=60
note_on channel=0 note=71 velocity=0 time=80
note_on channel=0 note=68 velocity=0 time=10
note_on channel=0 note=48 velocity=49 time=127
note_on channel=0 note=68 velocity=38 time=15
note_on channel=0 note=60 velocity=0 time=124
note_on channel=0 note=36 velocity=53 time=43
note_on channel=0 note=71 velocity=45 time=84
note_on channel=0 note=48 velocity=0 time=11
note_on channel=0 note=66 velocity=0 time=2
note_on channel=0 note=36 velocity=0 time=79
note_on channel=0 note=71 velocity=0 time=46
note_on channel=0 note=60 velocity=46 time=6
note_on channel=0 note=66 velocity=38 time=2
note_on channel=0 note=66 velocity=0 time=208
note_on channel=0 note=60 velocity=0 time=7
note_on channel=0 note=60 velocity=43 time=85
note_on channel=0 note=66 velocity=41 time=24
note_on channel=0 note=68 velocity=0 time=5
note_on channel=0 note=68 velocity=35 time=129
note_on channel=0 note=60 velocity=0 time=46
note_on channel=0 note=66 velocity=0 time=36
note_on channel=0 note=66 velocity=53 time=77
note_on channel=0 note=60 velocity=33 time=5
note_on channel=0 note=68 velocity=0 time=15
note_on channel=0 note=68 velocity=44 time=90
note_on channel=0 note=66 velocity=0 time=92
note_on channel=0 note=68 velocity=0 time=72
note_on channel=0 note=66 velocity=48 time=14
note_on channel=0 note=72 velocity=36 time=27
note_on channel=0 note=60 velocity=0 time=109
note_on channel=0 note=66 velocity=0 time=9
note_on channel=0 note=68 velocity=31 time=47
note_on channel=0 note=66 velocity=43 time=32
note_on channel=0 note=60 velocity=33 time=15
note_on channel=0 note=72 velocity=0 time=14
note_on channel=0 note=72 velocity=48 time=118
note_on channel=0 note=74 velocity=54 time=26
note_on channel=0 note=83 velocity=60 time=1
note_on channel=0 note=77 velocity=53 time=4
note_on channel=0 note=79 velocity=45 time=27
note_on channel=0 note=72 velocity=0 time=42
note_on channel=0 note=83 velocity=0 time=25
note_on channel=0 note=79 velocity=0 time=14
note_on channel=0 note=74 velocity=0 time=34
note_on channel=0 note=66 velocity=0 time=5
note_on channel=0 note=77 velocity=0 time=6
note_on channel=0 note=60 velocity=0 time=9
note_on channel=0 note=68 velocity=0 time=2
note_on channel=0 note=60 velocity=20 time=196
note_on channel=0 note=66 velocity=30 time=29
note_on channel=0 note=66 velocity=0 time=59
note_on channel=0 note=68 velocity=46 time=115
note_on channel=0 note=66 velocity=35 time=64
note_on channel=0 note=60 velocity=0 time=45
note_on channel=0 note=68 velocity=0 time=89
note_on channel=0 note=60 velocity=39 time=47
note_on channel=0 note=66 velocity=0 time=6
note_on channel=0 note=69 velocity=42 time=50
note_on channel=0 note=71 velocity=44 time=7
note_on channel=0 note=60 velocity=0 time=27
note_on channel=0 note=68 velocity=48 time=8
note_on channel=0 note=66 velocity=39 time=49
note_on channel=0 note=71 velocity=0 time=16
note_on channel=0 note=69 velocity=0 time=9
note_on channel=0 note=72 velocity=46 time=112
note_on channel=0 note=66 velocity=0 time=57
note_on channel=0 note=68 velocity=0 time=67
note_on channel=0 note=74 velocity=40 time=7
note_on channel=0 note=60 velocity=41 time=3
note_on channel=0 note=66 velocity=39 time=23
note_on channel=0 note=72 velocity=0 time=23
note_on channel=0 note=83 velocity=52 time=26
note_on channel=0 note=74 velocity=0 time=107
note_on channel=0 note=60 velocity=0 time=4
note_on channel=0 note=66 velocity=0 time=4
note_on channel=0 note=69 velocity=44 time=4
note_on channel=0 note=68 velocity=43 time=1
note_on channel=0 note=71 velocity=45 time=4
note_on channel=0 note=72 velocity=47 time=54
note_on channel=0 note=66 velocity=49 time=4
note_on channel=0 note=69 velocity=0 time=43
note_on channel=0 note=71 velocity=0 time=3
note_on channel=0 note=83 velocity=0 time=9
note_on channel=0 note=66 velocity=0 time=4
note_on channel=0 note=68 velocity=0 time=87
note_on channel=0 note=72 velocity=0 time=57
note_on channel=0 note=66 velocity=43 time=127
note_on channel=0 note=68 velocity=41 time=16
note_on channel=0 note=66 velocity=0 time=123
note_on channel=0 note=68 velocity=0 time=37
note_on channel=0 note=60 velocity=27 time=71
note_on channel=0 note=66 velocity=21 time=119
note_on channel=0 note=72 velocity=29 time=18
note_on channel=0 note=72 velocity=0 time=62
note_on channel=0 note=68 velocity=40 time=24
note_on channel=0 note=66 velocity=0 time=19
note_on channel=0 note=68 velocity=0 time=119
note_on channel=0 note=66 velocity=46 time=11
note_on channel=0 note=68 velocity=45 time=86
note_on channel=0 note=72 velocity=33 time=18
note_on channel=0 note=60 velocity=0 time=20
note_on channel=0 note=66 velocity=0 time=101
note_on channel=0 note=74 velocity=48 time=1
note_on channel=0 note=60 velocity=38 time=67
note_on channel=0 note=66 velocity=34 time=5
note_on channel=0 note=71 velocity=33 time=7
note_on channel=0 note=77 velocity=43 time=8
note_on channel=0 note=69 velocity=30 time=6
note_on channel=0 note=72 velocity=0 time=6
note_on channel=0 note=69 velocity=0 time=59
note_on channel=0 note=66 velocity=0 time=1
note_on channel=0 note=71 velocity=0 time=3
note_on channel=0 note=83 velocity=54 time=8
note_on channel=0 note=74 velocity=0 time=28
note_on channel=0 note=60 velocity=0 time=12
note_on channel=0 note=79 velocity=31 time=5
note_on channel=0 note=77 velocity=0 time=43
note_on channel=0 note=79 velocity=0 time=22
note_on channel=0 note=68 velocity=0 time=8
note_on channel=0 note=72 velocity=52 time=96
note_on channel=0 note=68 velocity=35 time=25
note_on channel=0 note=83 velocity=0 time=4
note_on channel=0 note=71 velocity=31 time=36
note_on channel=0 note=69 velocity=31 time=12
note_on channel=0 note=66 velocity=40 time=11
note_on channel=0 note=72 velocity=0 time=49
note_on channel=0 note=69 velocity=0 time=86
note_on channel=0 note=71 velocity=0 time=4
note_on channel=0 note=68 velocity=0 time=30
note_on channel=0 note=66 velocity=0 time=11
note_on channel=0 note=72 velocity=34 time=62
note_on channel=0 note=68 velocity=31 time=80
note_on channel=0 note=66 velocity=30 time=2
note_on channel=0 note=72 velocity=0 time=8
note_on channel=0 note=60 velocity=31 time=34
note_on channel=0 note=68 velocity=0 time=129
note_on channel=0 note=66 velocity=0 time=58
note_on channel=0 note=60 velocity=0 time=8
note_on channel=0 note=72 velocity=42 time=20
note_on channel=0 note=68 velocity=43 time=67
note_on channel=0 note=66 velocity=47 time=4
note_on channel=0 note=72 velocity=0 time=18
note_on channel=0 note=60 velocity=30 time=12
note_on channel=0 note=60 velocity=0 time=116
note_on channel=0 note=68 velocity=0 time=20
note_on channel=0 note=66 velocity=0 time=6
note_on channel=0 note=72 velocity=49 time=10
note_on channel=0 note=68 velocity=45 time=88
note_on channel=0 note=66 velocity=43 time=3
note_on channel=0 note=72 velocity=0 time=7
note_on channel=0 note=71 velocity=35 time=30
note_on channel=0 note=69 velocity=35 time=5
note_on channel=0 note=69 velocity=0 time=97
note_on channel=0 note=71 velocity=0 time=3
note_on channel=0 note=72 velocity=58 time=20
note_on channel=0 note=68 velocity=0 time=16
note_on channel=0 note=66 velocity=0 time=27
note_on channel=0 note=74 velocity=44 time=61
note_on channel=0 note=68 velocity=31 time=70
note_on channel=0 note=72 velocity=0 time=32
note_on channel=0 note=66 velocity=24 time=8
note_on channel=0 note=69 velocity=31 time=2
note_on channel=0 note=77 velocity=39 time=2
note_on channel=0 note=71 velocity=30 time=2
note_on channel=0 note=74 velocity=0 time=86
note_on channel=0 note=79 velocity=41 time=13
note_on channel=0 note=71 velocity=0 time=6
note_on channel=0 note=69 velocity=0 time=5
note_on channel=0 note=68 velocity=0 time=68
note_on channel=0 note=83 velocity=45 time=12
note_on channel=0 note=66 velocity=0 time=23
note_on channel=0 note=77 velocity=0 time=47
note_on channel=0 note=79 velocity=0 time=7
note_on channel=0 note=72 velocity=45 time=113
note_on channel=0 note=68 velocity=32 time=51
note_on channel=0 note=66 velocity=37 time=2
note_on channel=0 note=60 velocity=30 time=74
note_on channel=0 note=71 velocity=20 time=44
note_on channel=0 note=72 velocity=0 time=50
note_on channel=0 note=71 velocity=0 time=107
note_on channel=0 note=60 velocity=0 time=21
note_on channel=0 note=72 velocity=42 time=29
note_on channel=0 note=66 velocity=0 time=10
note_on channel=0 note=68 velocity=0 time=24
note_on channel=0 note=72 velocity=0 time=105
note_on channel=0 note=68 velocity=36 time=44
note_on channel=0 note=66 velocity=37 time=21
note_on channel=0 note=71 velocity=37 time=10
note_on channel=0 note=69 velocity=39 time=5
note_on channel=0 note=72 velocity=46 time=110
note_on channel=0 note=69 velocity=0 time=17
note_on channel=0 note=71 velocity=0 time=4
note_on channel=0 note=68 velocity=0 time=56
note_on channel=0 note=66 velocity=0 time=9
note_on channel=0 note=72 velocity=0 time=51
note_on channel=0 note=68 velocity=43 time=56
note_on channel=0 note=66 velocity=41 time=11
note_on channel=0 note=71 velocity=31 time=34
note_on channel=0 note=69 velocity=31 time=1
note_on channel=0 note=71 velocity=0 time=72
note_on channel=0 note=69 velocity=0 time=1
note_on channel=0 note=72 velocity=44 time=18
note_on channel=0 note=68 velocity=0 time=35
note_on channel=0 note=83 velocity=0 time=4
note_on channel=0 note=66 velocity=0 time=32
note_on channel=0 note=72 velocity=0 time=69
note_on channel=0 note=66 velocity=35 time=65
note_on channel=0 note=69 velocity=38 time=6
note_on channel=0 note=71 velocity=35 time=10
note_on channel=0 note=60 velocity=31 time=2
note_on channel=0 note=68 velocity=24 time=2
note_on channel=0 note=66 velocity=0 time=88
note_on channel=0 note=68 velocity=0 time=32
note_on channel=0 note=71 velocity=0 time=3
note_on channel=0 note=69 velocity=0 time=11
note_on channel=0 note=60 velocity=0 time=7
note_on channel=0 note=60 velocity=38 time=150
note_on channel=0 note=66 velocity=48 time=40
note_on channel=0 note=68 velocity=44 time=109
note_on channel=0 note=69 velocity=33 time=113
note_on channel=0 note=71 velocity=34 time=3
note_on channel=0 note=72 velocity=57 time=108
note_on channel=0 note=71 velocity=0 time=37
note_on channel=0 note=69 velocity=0 time=5
note_on channel=0 note=74 velocity=46 time=93
note_on channel=0 note=72 velocity=0 time=80
note_on channel=0 note=60 velocity=0 time=4
note_on channel=0 note=77 velocity=48 time=2
note_on channel=0 note=68 velocity=0 time=60
note_on channel=0 note=74 velocity=0 time=33
note_on channel=0 note=66 velocity=0 time=13
note_on channel=0 note=83 velocity=54 time=27
note_on channel=0 note=77 velocity=0 time=36
note_on channel=0 note=77 velocity=35 time=108
note_on channel=0 note=72 velocity=39 time=48
note_on channel=0 note=77 velocity=0 time=71
note_on channel=0 note=66 velocity=38 time=43
note_on channel=0 note=68 velocity=36 time=23
note_on channel=0 note=60 velocity=30 time=62
note_on channel=0 note=72 velocity=0 time=62
note_on channel=0 note=72 velocity=48 time=91
note_on channel=0 note=68 velocity=0 time=42
note_on channel=0 note=60 velocity=0 time=10
note_on channel=0 note=66 velocity=0 time=6
note_on channel=0 note=72 velocity=0 time=100
note_on channel=0 note=66 velocity=39 time=26
note_on channel=0 note=68 velocity=43 time=0
note_on channel=0 note=83 velocity=0 time=20
note_on channel=0 note=71 velocity=36 time=28
note_on channel=0 note=60 velocity=31 time=1
note_on channel=0 note=69 velocity=34 time=6
note_on channel=0 note=69 velocity=0 time=77
note_on channel=0 note=71 velocity=0 time=5
note_on channel=0 note=60 velocity=0 time=30
note_on channel=0 note=68 velocity=0 time=18
note_on channel=0 note=72 velocity=46 time=1
note_on channel=0 note=66 velocity=0 time=3
note_on channel=0 note=72 velocity=0 time=91
note_on channel=0 note=68 velocity=38 time=20
note_on channel=0 note=66 velocity=46 time=4
note_on channel=0 note=60 velocity=34 time=49
note_on channel=0 note=72 velocity=51 time=91
note_on channel=0 note=60 velocity=0 time=9
note_on channel=0 note=68 velocity=0 time=14
note_on channel=0 note=66 velocity=0 time=9
note_on channel=0 note=72 velocity=0 time=88
note_on channel=0 note=68 velocity=32 time=41
note_on channel=0 note=69 velocity=41 time=1
note_on channel=0 note=71 velocity=43 time=2
note_on channel=0 note=68 velocity=0 time=93
note_on channel=0 note=71 velocity=0 time=37
note_on channel=0 note=72 velocity=49 time=0
note_on channel=0 note=69 velocity=0 time=2
note_on channel=0 note=72 velocity=0 time=147
note_on channel=0 note=60 velocity=48 time=19
note_on channel=0 note=66 velocity=51 time=184
note_on channel=0 note=68 velocity=49 time=45
note_on channel=0 note=69 velocity=39 time=186
note_on channel=0 note=71 velocity=41 time=6
note_on channel=0 note=72 velocity=57 time=130
note_on channel=0 note=71 velocity=0 time=136
note_on channel=0 note=69 velocity=0 time=7
note_on channel=0 note=74 velocity=46 time=11
note_on channel=0 note=72 velocity=0 time=39
note_on channel=0 note=77 velocity=48 time=69
note_on channel=0 note=60 velocity=0 time=32
note_on channel=0 note=68 velocity=0 time=55
note_on channel=0 note=66 velocity=0 time=44
note_on channel=0 note=74 velocity=0 time=30
note_on channel=0 note=83 velocity=56 time=0
note_on channel=0 note=77 velocity=0 time=29
note_on channel=0 note=77 velocity=52 time=75
note_on channel=0 note=83 velocity=0 time=132
note_on channel=0 note=72 velocity=44 time=40
note_on channel=0 note=66 velocity=38 time=136
note_on channel=0 note=68 velocity=39 time=25
note_on channel=0 note=72 velocity=0 time=19
note_on channel=0 note=60 velocity=41 time=18
note_on channel=0 note=69 velocity=37 time=30
note_on channel=0 note=71 velocity=39 time=2
note_on channel=0 note=77 velocity=0 time=41
note_on channel=0 note=71 velocity=0 time=268
note_on channel=0 note=69 velocity=0 time=3
note_on channel=0 note=72 velocity=34 time=22
note_on channel=0 note=68 velocity=0 time=43
note_on channel=0 note=60 velocity=0 time=11
note_on channel=0 note=66 velocity=0 time=10
note_on channel=0 note=72 velocity=0 time=155
note_on channel=0 note=68 velocity=37 time=7
note_on channel=0 note=66 velocity=43 time=25
note_on channel=0 note=60 velocity=32 time=13
note_on channel=0 note=71 velocity=35 time=15
note_on channel=0 note=69 velocity=34 time=1
note_on channel=0 note=71 velocity=0 time=122
note_on channel=0 note=69 velocity=0 time=1
note_on channel=0 note=60 velocity=0 time=14
note_on channel=0 note=72 velocity=43 time=5
note_on channel=0 note=66 velocity=0 time=20
note_on channel=0 note=68 velocity=0 time=2
note_on channel=0 note=68 velocity=39 time=106
note_on channel=0 note=66 velocity=37 time=6
note_on channel=0 note=72 velocity=0 time=6
note_on channel=0 note=60 velocity=34 time=14
note_on channel=0 note=69 velocity=31 time=32
note_on channel=0 note=71 velocity=31 time=3
note_on channel=0 note=72 velocity=44 time=65
note_on channel=0 note=71 velocity=0 time=18
note_on channel=0 note=69 velocity=0 time=2
note_on channel=0 note=60 velocity=0 time=7
note_on channel=0 note=68 velocity=0 time=22
note_on channel=0 note=66 velocity=0 time=15
note_on channel=0 note=72 velocity=0 time=78
note_on channel=0 note=68 velocity=44 time=18
note_on channel=0 note=66 velocity=45 time=6
note_on channel=0 note=60 velocity=29 time=49
note_on channel=0 note=60 velocity=0 time=73
note_on channel=0 note=68 velocity=0 time=32
note_on channel=0 note=72 velocity=43 time=2
note_on channel=0 note=66 velocity=0 time=18
note_on channel=0 note=72 velocity=0 time=61
note_on channel=0 note=68 velocity=45 time=30
note_on channel=0 note=66 velocity=46 time=7
note_on channel=0 note=69 velocity=36 time=23
note_on channel=0 note=71 velocity=37 time=0
note_on channel=0 note=71 velocity=0 time=73
note_on channel=0 note=69 velocity=0 time=2
note_on channel=0 note=68 velocity=0 time=18
note_on channel=0 note=72 velocity=46 time=27
note_on channel=0 note=66 velocity=0 time=9
note_on channel=0 note=72 velocity=0 time=59
note_on channel=0 note=60 velocity=30 time=28
note_on channel=0 note=71 velocity=42 time=10
note_on channel=0 note=69 velocity=38 time=8
note_on channel=0 note=68 velocity=22 time=70
note_on channel=0 note=69 velocity=0 time=68
note_on channel=0 note=71 velocity=0 time=1
note_on channel=0 note=60 velocity=0 time=8
note_on channel=0 note=66 velocity=48 time=47
note_on channel=0 note=72 velocity=54 time=135
note_on channel=0 note=68 velocity=0 time=89
note_on channel=0 note=66 velocity=0 time=10
note_on channel=0 note=72 velocity=0 time=4
note_on channel=0 note=67 velocity=60 time=62
note_on channel=0 note=69 velocity=39 time=73
note_on channel=0 note=67 velocity=0 time=61
note_on channel=0 note=69 velocity=0 time=18
note_on channel=0 note=74 velocity=46 time=21
note_on channel=0 note=69 velocity=39 time=82
note_on channel=0 note=74 velocity=0 time=78
note_on channel=0 note=67 velocity=44 time=47
note_on channel=0 note=69 velocity=0 time=68
note_on channel=0 note=62 velocity=32 time=31
note_on channel=0 note=62 velocity=0 time=95
note_on channel=0 note=69 velocity=37 time=49
note_on channel=0 note=67 velocity=0 time=1
note_on channel=0 note=62 velocity=34 time=64
note_on channel=0 note=74 velocity=45 time=136
note_on channel=0 note=62 velocity=0 time=7
note_on channel=0 note=69 velocity=0 time=18
note_on channel=0 note=69 velocity=28 time=163
note_on channel=0 note=57 velocity=40 time=6
note_on channel=0 note=74 velocity=0 time=14
note_on channel=0 note=54 velocity=47 time=46
note_on channel=0 note=69 velocity=0 time=30
note_on channel=0 note=57 velocity=0 time=70
note_on channel=0 note=48 velocity=39 time=92
note_on channel=0 note=62 velocity=32 time=7
note_on channel=0 note=54 velocity=0 time=36
note_on channel=0 note=48 velocity=0 time=103
note_on channel=0 note=62 velocity=0 time=13
note_on channel=0 note=69 velocity=50 time=15
note_on channel=0 note=67 velocity=34 time=2
note_on channel=0 note=74 velocity=51 time=100
note_on channel=0 note=48 velocity=24 time=8
note_on channel=0 note=67 velocity=0 time=11
note_on channel=0 note=69 velocity=0 time=33
note_on channel=0 note=54 velocity=48 time=15
note_on channel=0 note=48 velocity=0 time=95
note_on channel=0 note=74 velocity=0 time=36
note_on channel=0 note=60 velocity=40 time=68
note_on channel=0 note=54 velocity=0 time=50
note_on channel=0 note=60 velocity=0 time=91
note_on channel=0 note=64 velocity=49 time=10
note_on channel=0 note=67 velocity=48 time=96
note_on channel=0 note=64 velocity=0 time=21
note_on channel=0 note=57 velocity=45 time=47
note_on channel=0 note=67 velocity=0 time=7
note_on channel=0 note=54 velocity=53 time=131
note_on channel=0 note=57 velocity=0 time=41
note_on channel=0 note=64 velocity=44 time=123
note_on channel=0 note=60 velocity=39 time=39
note_on channel=0 note=54 velocity=0 time=47
note_on channel=0 note=60 velocity=0 time=37
note_on channel=0 note=66 velocity=53 time=22
note_on channel=0 note=64 velocity=0 time=12
note_on channel=0 note=66 velocity=0 time=142
note_on channel=0 note=64 velocity=42 time=37
note_on channel=0 note=69 velocity=44 time=76
note_on channel=0 note=64 velocity=0 time=3
note_on channel=0 note=74 velocity=52 time=146
note_on channel=0 note=69 velocity=0 time=28
note_on channel=0 note=69 velocity=40 time=158
note_on channel=0 note=48 velocity=49 time=13
note_on channel=0 note=74 velocity=0 time=58
note_on channel=0 note=54 velocity=26 time=7
note_on channel=0 note=48 velocity=0 time=106
note_on channel=0 note=57 velocity=45 time=82
note_on channel=0 note=66 velocity=47 time=24
note_on channel=0 note=69 velocity=0 time=55
note_on channel=0 note=54 velocity=0 time=25
note_on channel=0 note=57 velocity=0 time=38
note_on channel=0 note=62 velocity=49 time=8
note_on channel=0 note=66 velocity=0 time=6
note_on channel=0 note=62 velocity=0 time=100
note_on channel=0 note=66 velocity=36 time=28
note_on channel=0 note=59 velocity=44 time=71
note_on channel=0 note=66 velocity=0 time=60
note_on channel=0 note=69 velocity=44 time=55
note_on channel=0 note=59 velocity=0 time=39
note_on channel=0 note=66 velocity=39 time=34
note_on channel=0 note=57 velocity=39 time=10
note_on channel=0 note=62 velocity=50 time=136
note_on channel=0 note=66 velocity=0 time=14
note_on channel=0 note=57 velocity=0 time=53
note_on channel=0 note=54 velocity=47 time=43
note_on channel=0 note=62 velocity=0 time=48
note_on channel=0 note=69 velocity=0 time=10
note_on channel=0 note=66 velocity=39 time=35
note_on channel=0 note=66 velocity=0 time=85
note_on channel=0 note=69 velocity=49 time=20
note_on channel=0 note=62 velocity=41 time=185
note_on channel=0 note=54 velocity=0 time=43
note_on channel=0 note=69 velocity=0 time=28
note_on channel=0 note=62 velocity=0 time=43
note_on channel=0 note=66 velocity=53 time=17
note_on channel=0 note=57 velocity=44 time=135
note_on channel=0 note=66 velocity=0 time=18
note_on channel=0 note=62 velocity=40 time=35
note_on channel=0 note=62 velocity=0 time=85
note_on channel=0 note=69 velocity=39 time=69
note_on channel=0 note=61 velocity=39 time=26
note_on channel=0 note=57 velocity=0 time=22
note_on channel=0 note=61 velocity=0 time=134
note_on channel=0 note=66 velocity=55 time=6
note_on channel=0 note=69 velocity=0 time=92
note_on channel=0 note=62 velocity=48 time=33
note_on channel=0 note=66 velocity=0 time=14
note_on channel=0 note=66 velocity=38 time=133
note_on channel=0 note=62 velocity=0 time=19
note_on channel=0 note=62 velocity=34 time=69
note_on channel=0 note=66 velocity=0 time=77
note_on channel=0 note=57 velocity=46 time=66
note_on channel=0 note=62 velocity=0 time=0
note_on channel=0 note=69 velocity=47 time=14
note_on channel=0 note=74 velocity=57 time=161
note_on channel=0 note=69 velocity=0 time=46
note_on channel=0 note=57 velocity=0 time=1
note_on channel=0 note=62 velocity=50 time=81
note_on channel=0 note=74 velocity=0 time=76
note_on channel=0 note=57 velocity=50 time=90
note_on channel=0 note=62 velocity=0 time=0
note_on channel=0 note=73 velocity=39 time=133
note_on channel=0 note=57 velocity=0 time=94
note_on channel=0 note=73 velocity=0 time=72
note_on channel=0 note=66 velocity=55 time=96
note_on channel=0 note=66 velocity=0 time=126
note_on channel=0 note=62 velocity=39 time=13
note_on channel=0 note=62 velocity=0 time=108
note_on channel=0 note=73 velocity=52 time=49
note_on channel=0 note=61 velocity=48 time=124
note_on channel=0 note=73 velocity=0 time=11
note_on channel=0 note=61 velocity=0 time=129
note_on channel=0 note=62 velocity=48 time=38
note_on channel=0 note=69 velocity=46 time=64
note_on channel=0 note=62 velocity=0 time=22
note_on channel=0 note=69 velocity=0 time=127
note_on channel=0 note=75 velocity=47 time=32
note_on channel=0 note=66 velocity=48 time=84
note_on channel=0 note=75 velocity=0 time=59
note_on channel=0 note=66 velocity=0 time=3
note_on channel=0 note=69 velocity=51 time=72
note_on channel=0 note=66 velocity=51 time=112
note_on channel=0 note=69 velocity=0 time=32
note_on channel=0 note=73 velocity=39 time=21
note_on channel=0 note=66 velocity=0 time=52
note_on channel=0 note=69 velocity=45 time=65
note_on channel=0 note=73 velocity=0 time=92
note_on channel=0 note=74 velocity=50 time=56
note_on channel=0 note=62 velocity=31 time=20
note_on channel=0 note=69 velocity=0 time=2
note_on channel=0 note=69 velocity=52 time=157
note_on channel=0 note=74 velocity=0 time=62
note_on channel=0 note=73 velocity=46 time=19
note_on channel=0 note=69 velocity=0 time=49
note_on channel=0 note=69 velocity=45 time=94
note_on channel=0 note=73 velocity=0 time=34
note_on channel=0 note=69 velocity=0 time=127
note_on channel=0 note=66 velocity=57 time=14
note_on channel=0 note=62 velocity=0 time=64
note_on channel=0 note=73 velocity=63 time=60
note_on channel=0 note=69 velocity=39 time=34
note_on channel=0 note=66 velocity=0 time=44
note_on channel=0 note=73 velocity=0 time=61
note_on channel=0 note=69 velocity=0 time=17
note_on channel=0 note=74 velocity=60 time=2
note_on channel=0 note=74 velocity=0 time=125
note_on channel=0 note=73 velocity=56 time=69
note_on channel=0 note=73 velocity=0 time=99
note_on channel=0 note=74 velocity=60 time=41
note_on channel=0 note=78 velocity=39 time=55
note_on channel=0 note=74 velocity=0 time=54
note_on channel=0 note=81 velocity=50 time=177
note_on channel=0 note=69 velocity=36 time=46
note_on channel=0 note=78 velocity=0 time=4
note_on channel=0 note=73 velocity=44 time=126
note_on channel=0 note=69 velocity=0 time=6
note_on channel=0 note=74 velocity=48 time=57
note_on channel=0 note=73 velocity=0 time=35
note_on channel=0 note=78 velocity=55 time=83
note_on channel=0 note=74 velocity=0 time=3
note_on channel=0 note=69 velocity=40 time=71
note_on channel=0 note=81 velocity=0 time=22
note_on channel=0 note=74 velocity=46 time=31
note_on channel=0 note=78 velocity=0 time=66
note_on channel=0 note=74 velocity=0 time=65
note_on channel=0 note=69 velocity=0 time=13
note_on channel=0 note=66 velocity=55 time=31
note_on channel=0 note=75 velocity=49 time=20
note_on channel=0 note=73 velocity=34 time=54
note_on channel=0 note=73 velocity=0 time=107
note_on channel=0 note=78 velocity=43 time=19
note_on channel=0 note=70 velocity=57 time=57
note_on channel=0 note=75 velocity=0 time=57
note_on channel=0 note=66 velocity=0 time=21
note_on channel=0 note=70 velocity=0 time=86
note_on channel=0 note=80 velocity=49 time=23
note_on channel=0 note=66 velocity=39 time=5
note_on channel=0 note=78 velocity=0 time=46
note_on channel=0 note=66 velocity=0 time=68
note_on channel=0 note=62 velocity=27 time=5
note_on channel=0 note=80 velocity=0 time=27
note_on channel=0 note=73 velocity=48 time=81
note_on channel=0 note=73 velocity=0 time=51
note_on channel=0 note=62 velocity=0 time=27
note_on channel=0 note=66 velocity=52 time=16
note_on channel=0 note=62 velocity=31 time=101
note_on channel=0 note=69 velocity=48 time=83
note_on channel=0 note=66 velocity=0 time=10
note_on channel=0 note=82 velocity=48 time=186
note_on channel=0 note=80 velocity=34 time=6
note_on channel=0 note=74 velocity=49 time=40
control_change channel=0 control=64 value=0 time=14
note_on channel=0 note=66 velocity=48 time=8
note_on channel=0 note=69 velocity=0 time=36
note_on channel=0 note=80 velocity=0 time=43
control_change channel=0 control=64 value=127 time=2
note_on channel=0 note=85 velocity=35 time=16
note_on channel=0 note=70 velocity=53 time=67
note_on channel=0 note=74 velocity=0 time=25
note_on channel=0 note=82 velocity=0 time=6
note_on channel=0 note=66 velocity=0 time=20
note_on channel=0 note=70 velocity=0 time=145
note_on channel=0 note=66 velocity=44 time=12
note_on channel=0 note=80 velocity=19 time=20
note_on channel=0 note=73 velocity=39 time=24
note_on channel=0 note=82 velocity=45 time=26
note_on channel=0 note=73 velocity=0 time=60
note_on channel=0 note=80 velocity=0 time=0
note_on channel=0 note=85 velocity=0 time=62
note_on channel=0 note=70 velocity=51 time=10
note_on channel=0 note=66 velocity=0 time=10
note_on channel=0 note=70 velocity=0 time=49
note_on channel=0 note=70 velocity=48 time=97
note_on channel=0 note=82 velocity=0 time=18
note_on channel=0 note=80 velocity=16 time=17
note_on channel=0 note=66 velocity=43 time=3
note_on channel=0 note=62 velocity=0 time=15
note_on channel=0 note=70 velocity=0 time=11
note_on channel=0 note=78 velocity=49 time=16
note_on channel=0 note=66 velocity=0 time=21
note_on channel=0 note=80 velocity=0 time=28
note_on channel=0 note=70 velocity=49 time=92
note_on channel=0 note=70 velocity=0 time=63
note_on channel=0 note=82 velocity=48 time=21
note_on channel=0 note=78 velocity=0 time=11
note_on channel=0 note=63 velocity=41 time=60
note_on channel=0 note=69 velocity=46 time=71
note_on channel=0 note=80 velocity=34 time=7
note_on channel=0 note=67 velocity=44 time=12
note_on channel=0 note=66 velocity=48 time=8
control_change channel=0 control=64 value=0 time=43
note_on channel=0 note=83 velocity=53 time=16
note_on channel=0 note=69 velocity=0 time=28
note_on channel=0 note=80 velocity=0 time=14
note_on channel=0 note=57 velocity=31 time=8
note_on channel=0 note=82 velocity=0 time=9
note_on channel=0 note=67 velocity=0 time=1
control_change channel=0 control=64 value=127 time=52
note_on channel=0 note=66 velocity=0 time=3
note_on channel=0 note=63 velocity=0 time=8
note_on channel=0 note=66 velocity=45 time=87
note_on channel=0 note=83 velocity=0 time=19
note_on channel=0 note=63 velocity=49 time=51
note_on channel=0 note=66 velocity=0 time=76
note_on channel=0 note=57 velocity=0 time=23
note_on channel=0 note=68 velocity=58 time=20
note_on channel=0 note=63 velocity=0 time=20
note_on channel=0 note=68 velocity=0 time=43
note_on channel=0 note=66 velocity=45 time=123
note_on channel=0 note=56 velocity=57 time=8
note_on channel=0 note=66 velocity=0 time=75
note_on channel=0 note=56 velocity=0 time=70
note_on channel=0 note=69 velocity=54 time=6
note_on channel=0 note=69 velocity=0 time=108
note_on channel=0 note=78 velocity=33 time=0
note_on channel=0 note=78 velocity=0 time=70
note_on channel=0 note=68 velocity=51 time=42
note_on channel=0 note=56 velocity=51 time=15
note_on channel=0 note=68 velocity=0 time=38
note_on channel=0 note=84 velocity=58 time=121
note_on channel=0 note=56 velocity=0 time=12
note_on channel=0 note=72 velocity=53 time=9
note_on channel=0 note=72 velocity=0 time=128
note_on channel=0 note=63 velocity=48 time=3
note_on channel=0 note=54 velocity=42 time=59
note_on channel=0 note=63 velocity=0 time=2
note_on channel=0 note=84 velocity=0 time=79
note_on channel=0 note=54 velocity=0 time=14
note_on channel=0 note=72 velocity=49 time=28
note_on channel=0 note=54 velocity=26 time=115
note_on channel=0 note=72 velocity=0 time=24
note_on channel=0 note=54 velocity=0 time=28
note_on channel=0 note=58 velocity=46 time=5
note_on channel=0 note=58 velocity=0 time=188
note_on channel=0 note=70 velocity=43 time=63
note_on channel=0 note=80 velocity=40 time=29
note_on channel=0 note=70 velocity=0 time=37
note_on channel=0 note=52 velocity=35 time=105
note_on channel=0 note=80 velocity=0 time=143
note_on channel=0 note=58 velocity=55 time=89
control_change channel=0 control=64 value=0 time=31
control_change channel=0 control=64 value=127 time=128
note_on channel=0 note=65 velocity=52 time=14
note_on channel=0 note=52 velocity=0 time=115
note_on channel=0 note=65 velocity=0 time=1
note_on channel=0 note=85 velocity=53 time=28
note_on channel=0 note=73 velocity=53 time=21
note_on channel=0 note=73 velocity=0 time=61
note_on channel=0 note=58 velocity=0 time=4
note_on channel=0 note=51 velocity=44 time=105
note_on channel=0 note=85 velocity=0 time=62
note_on channel=0 note=80 velocity=33 time=90
note_on channel=0 note=74 velocity=38 time=36
note_on channel=0 note=58 velocity=50 time=22
note_on channel=0 note=51 velocity=0 time=62
note_on channel=0 note=74 velocity=0 time=40
note_on channel=0 note=58 velocity=0 time=35
note_on channel=0 note=86 velocity=51 time=0
note_on channel=0 note=80 velocity=0 time=27
note_on channel=0 note=51 velocity=32 time=41
note_on channel=0 note=64 velocity=39 time=96
note_on channel=0 note=86 velocity=0 time=31
note_on channel=0 note=75 velocity=58 time=45
note_on channel=0 note=85 velocity=23 time=6
note_on channel=0 note=64 velocity=0 time=8
note_on channel=0 note=58 velocity=52 time=21
note_on channel=0 note=51 velocity=0 time=27
note_on channel=0 note=75 velocity=0 time=45
note_on channel=0 note=85 velocity=0 time=110
note_on channel=0 note=89 velocity=54 time=37
note_on channel=0 note=77 velocity=56 time=5
note_on channel=0 note=50 velocity=56 time=1
note_on channel=0 note=51 velocity=31 time=11
control_change channel=0 control=64 value=0 time=65
note_on channel=0 note=58 velocity=0 time=4
note_on channel=0 note=77 velocity=0 time=91
control_change channel=0 control=64 value=127 time=6
note_on channel=0 note=58 velocity=56 time=119
note_on channel=0 note=50 velocity=0 time=22
note_on channel=0 note=51 velocity=0 time=4
note_on channel=0 note=89 velocity=0 time=125
note_on channel=0 note=65 velocity=57 time=68
note_on channel=0 note=58 velocity=0 time=30
note_on channel=0 note=65 velocity=0 time=80
note_on channel=0 note=73 velocity=63 time=12
note_on channel=0 note=73 velocity=0 time=63
note_on channel=0 note=74 velocity=44 time=152
note_on channel=0 note=49 velocity=33 time=69
note_on channel=0 note=48 velocity=51 time=53
note_on channel=0 note=74 velocity=0 time=7
note_on channel=0 note=88 velocity=63 time=16
control_change channel=0 control=64 value=0 time=12
note_on channel=0 note=49 velocity=0 time=0
control_change channel=0 control=64 value=127 time=106
note_on channel=0 note=86 velocity=16 time=26
note_on channel=0 note=56 velocity=57 time=82
note_on channel=0 note=86 velocity=0 time=0
note_on channel=0 note=88 velocity=0 time=42
note_on channel=0 note=48 velocity=0 time=37
note_on channel=0 note=75 velocity=57 time=127
note_on channel=0 note=64 velocity=50 time=3
note_on channel=0 note=56 velocity=0 time=21
note_on channel=0 note=75 velocity=0 time=35
note_on channel=0 note=64 velocity=0 time=37
note_on channel=0 note=56 velocity=57 time=106
note_on channel=0 note=70 velocity=49 time=149
note_on channel=0 note=64 velocity=49 time=52
note_on channel=0 note=56 velocity=0 time=22
note_on channel=0 note=70 velocity=0 time=1
note_on channel=0 note=64 velocity=0 time=152
note_on channel=0 note=56 velocity=59 time=4
note_on channel=0 note=87 velocity=66 time=229
note_on channel=0 note=50 velocity=50 time=15
note_on channel=0 note=56 velocity=0 time=57
note_on channel=0 note=87 velocity=0 time=59
note_on channel=0 note=74 velocity=63 time=12
note_on channel=0 note=74 velocity=0 time=103
note_on channel=0 note=56 velocity=62 time=76
note_on channel=0 note=50 velocity=0 time=39
note_on channel=0 note=75 velocity=45 time=31
note_on channel=0 note=62 velocity=40 time=260
note_on channel=0 note=56 velocity=0 time=51
note_on channel=0 note=75 velocity=0 time=59
note_on channel=0 note=85 velocity=68 time=69
note_on channel=0 note=73 velocity=61 time=8
note_on channel=0 note=48 velocity=58 time=14
note_on channel=0 note=62 velocity=0 time=11
note_on channel=0 note=50 velocity=41 time=7
control_change channel=0 control=64 value=0 time=37
control_change channel=0 control=64 value=127 time=81
note_on channel=0 note=62 velocity=46 time=102
note_on channel=0 note=73 velocity=0 time=66
note_on channel=0 note=62 velocity=0 time=52
note_on channel=0 note=85 velocity=0 time=25
note_on channel=0 note=56 velocity=55 time=9
note_on channel=0 note=50 velocity=0 time=15
note_on channel=0 note=48 velocity=0 time=13
note_on channel=0 note=74 velocity=57 time=90
note_on channel=0 note=86 velocity=60 time=11
note_on channel=0 note=79 velocity=41 time=18
note_on channel=0 note=74 velocity=0 time=45
note_on channel=0 note=56 velocity=0 time=27
note_on channel=0 note=79 velocity=0 time=0
note_on channel=0 note=48 velocity=36 time=31
note_on channel=0 note=86 velocity=0 time=9
note_on channel=0 note=60 velocity=47 time=4
note_on channel=0 note=50 velocity=29 time=47
note_on channel=0 note=56 velocity=47 time=35
note_on channel=0 note=60 velocity=0 time=10
note_on channel=0 note=50 velocity=0 time=30
note_on channel=0 note=48 velocity=0 time=13
note_on channel=0 note=78 velocity=60 time=59
note_on channel=0 note=70 velocity=63 time=8
note_on channel=0 note=56 velocity=0 time=83
note_on channel=0 note=48 velocity=29 time=11
note_on channel=0 note=70 velocity=0 time=0
note_on channel=0 note=59 velocity=40 time=2
note_on channel=0 note=78 velocity=0 time=1
note_on channel=0 note=59 velocity=0 time=100
note_on channel=0 note=54 velocity=48 time=25
note_on channel=0 note=71 velocity=40 time=108
note_on channel=0 note=57 velocity=53 time=27
note_on channel=0 note=83 velocity=61 time=8
control_change channel=0 control=64 value=0 time=16
note_on channel=0 note=71 velocity=0 time=125
control_change channel=0 control=64 value=127 time=2
note_on channel=0 note=57 velocity=0 time=22
note_on channel=0 note=56 velocity=52 time=13
note_on channel=0 note=54 velocity=0 time=55
note_on channel=0 note=54 velocity=55 time=170
note_on channel=0 note=56 velocity=0 time=54
note_on channel=0 note=48 velocity=0 time=1
note_on channel=0 note=83 velocity=0 time=15
note_on channel=0 note=73 velocity=56 time=135
note_on channel=0 note=73 velocity=0 time=76
note_on channel=0 note=56 velocity=51 time=149
note_on channel=0 note=68 velocity=48 time=239
note_on channel=0 note=80 velocity=46 time=23
note_on channel=0 note=56 velocity=0 time=52
note_on channel=0 note=68 velocity=0 time=11
note_on channel=0 note=64 velocity=37 time=109
note_on channel=0 note=64 velocity=0 time=106
note_on channel=0 note=80 velocity=0 time=19
note_on channel=0 note=56 velocity=50 time=39
note_on channel=0 note=54 velocity=0 time=33
note_on channel=0 note=71 velocity=50 time=157
note_on channel=0 note=82 velocity=52 time=14
note_on channel=0 note=54 velocity=31 time=36
note_on channel=0 note=71 velocity=0 time=4
note_on channel=0 note=56 velocity=0 time=77
note_on channel=0 note=82 velocity=0 time=23
note_on channel=0 note=62 velocity=43 time=36
note_on channel=0 note=72 velocity=40 time=107
note_on channel=0 note=62 velocity=0 time=36
note_on channel=0 note=84 velocity=35 time=21
note_on channel=0 note=86 velocity=35 time=0
note_on channel=0 note=56 velocity=52 time=34
note_on channel=0 note=72 velocity=0 time=5
note_on channel=0 note=54 velocity=0 time=1
note_on channel=0 note=86 velocity=0 time=17
note_on channel=0 note=84 velocity=0 time=16
note_on channel=0 note=54 velocity=53 time=131
note_on channel=0 note=56 velocity=0 time=44
note_on channel=0 note=68 velocity=47 time=103
note_on channel=0 note=80 velocity=39 time=25
note_on channel=0 note=68 velocity=0 time=38
note_on channel=0 note=80 velocity=0 time=37
note_on channel=0 note=58 velocity=45 time=208
note_on channel=0 note=54 velocity=0 time=50
note_on channel=0 note=69 velocity=44 time=22
note_on channel=0 note=80 velocity=51 time=24
note_on channel=0 note=58 velocity=0 time=6
note_on channel=0 note=69 velocity=0 time=38
note_on channel=0 note=58 velocity=31 time=46
note_on channel=0 note=80 velocity=0 time=34
note_on channel=0 note=67 velocity=36 time=86
note_on channel=0 note=58 velocity=0 time=16
note_on channel=0 note=82 velocity=43 time=72
note_on channel=0 note=67 velocity=0 time=4
note_on channel=0 note=70 velocity=41 time=14
note_on channel=0 note=82 velocity=0 time=47
note_on channel=0 note=70 velocity=0 time=51
note_on channel=0 note=58 velocity=53 time=13
note_on channel=0 note=54 velocity=50 time=192
note_on channel=0 note=66 velocity=55 time=28
note_on channel=0 note=58 velocity=0 time=19
note_on channel=0 note=78 velocity=43 time=0
note_on channel=0 note=78 velocity=0 time=59
note_on channel=0 note=66 velocity=0 time=24
note_on channel=0 note=54 velocity=0 time=66
note_on channel=0 note=67 velocity=43 time=3
note_on channel=0 note=67 velocity=0 time=100
note_on channel=0 note=58 velocity=50 time=55
note_on channel=0 note=77 velocity=41 time=32
note_on channel=0 note=65 velocity=35 time=58
note_on channel=0 note=65 velocity=0 time=54
note_on channel=0 note=77 velocity=0 time=60
note_on channel=0 note=58 velocity=0 time=33
note_on channel=0 note=63 velocity=51 time=56
note_on channel=0 note=63 velocity=0 time=149
note_on channel=0 note=68 velocity=43 time=19
note_on channel=0 note=80 velocity=47 time=27
note_on channel=0 note=54 velocity=38 time=27
note_on channel=0 note=68 velocity=0 time=47
note_on channel=0 note=80 velocity=0 time=37
note_on channel=0 note=58 velocity=49 time=266
control_change channel=0 control=64 value=0 time=56
control_change channel=0 control=64 value=127 time=110
note_on channel=0 note=67 velocity=49 time=20
note_on channel=0 note=78 velocity=51 time=6
note_on channel=0 note=67 velocity=0 time=80
note_on channel=0 note=54 velocity=0 time=23
note_on channel=0 note=58 velocity=0 time=69
note_on channel=0 note=78 velocity=0 time=3
note_on channel=0 note=66 velocity=48 time=29
note_on channel=0 note=66 velocity=0 time=139
note_on channel=0 note=80 velocity=48 time=46
note_on channel=0 note=68 velocity=42 time=1
note_on channel=0 note=68 velocity=0 time=69
note_on channel=0 note=65 velocity=45 time=31
note_on channel=0 note=80 velocity=0 time=10
note_on channel=0 note=65 velocity=0 time=141
note_on channel=0 note=69 velocity=49 time=67
note_on channel=0 note=81 velocity=47 time=33
note_on channel=0 note=69 velocity=0 time=94
note_on channel=0 note=81 velocity=0 time=40
note_on channel=0 note=56 velocity=46 time=34
note_on channel=0 note=70 velocity=48 time=169
note_on channel=0 note=82 velocity=48 time=18
note_on channel=0 note=70 velocity=0 time=56
note_on channel=0 note=82 velocity=0 time=0
note_on channel=0 note=61 velocity=55 time=70
note_on channel=0 note=56 velocity=0 time=58
note_on channel=0 note=68 velocity=55 time=97
note_on channel=0 note=80 velocity=36 time=49
note_on channel=0 note=61 velocity=0 time=35
note_on channel=0 note=68 velocity=0 time=7
note_on channel=0 note=69 velocity=44 time=3
note_on channel=0 note=80 velocity=0 time=39
note_on channel=0 note=69 velocity=0 time=60
note_on channel=0 note=61 velocity=55 time=52
note_on channel=0 note=71 velocity=46 time=71
note_on channel=0 note=83 velocity=43 time=18
note_on channel=0 note=71 velocity=0 time=113
note_on channel=0 note=83 velocity=0 time=28
note_on channel=0 note=61 velocity=0 time=4
note_on channel=0 note=66 velocity=49 time=12
note_on channel=0 note=66 velocity=0 time=85
note_on channel=0 note=61 velocity=36 time=104
note_on channel=0 note=70 velocity=44 time=23
note_on channel=0 note=82 velocity=41 time=9
note_on channel=0 note=70 velocity=0 time=69
note_on channel=0 note=61 velocity=0 time=40
note_on channel=0 note=56 velocity=53 time=1
note_on channel=0 note=82 velocity=0 time=6
note_on channel=0 note=61 velocity=57 time=161
note_on channel=0 note=72 velocity=42 time=111
note_on channel=0 note=56 velocity=0 time=4
note_on channel=0 note=84 velocity=50 time=6
note_on channel=0 note=61 velocity=0 time=76
note_on channel=0 note=72 velocity=0 time=21
note_on channel=0 note=84 velocity=0 time=28
note_on channel=0 note=69 velocity=57 time=20
note_on channel=0 note=69 velocity=0 time=115
note_on channel=0 note=63 velocity=48 time=62
note_on channel=0 note=85 velocity=41 time=16
note_on channel=0 note=73 velocity=39 time=4
note_on channel=0 note=63 velocity=0 time=40
note_on channel=0 note=85 velocity=0 time=23
note_on channel=0 note=73 velocity=0 time=17
note_on channel=0 note=63 velocity=48 time=53
note_on channel=0 note=61 velocity=49 time=118
note_on channel=0 note=63 velocity=0 time=37
note_on channel=0 note=70 velocity=48 time=23
note_on channel=0 note=82 velocity=48 time=10
note_on channel=0 note=70 velocity=0 time=107
note_on channel=0 note=82 velocity=0 time=70
note_on channel=0 note=63 velocity=61 time=4
note_on channel=0 note=61 velocity=0 time=93
note_on channel=0 note=71 velocity=50 time=71
note_on channel=0 note=84 velocity=39 time=40
note_on channel=0 note=71 velocity=0 time=48
note_on channel=0 note=63 velocity=0 time=7
note_on channel=0 note=84 velocity=0 time=22
note_on channel=0 note=71 velocity=48 time=64
note_on channel=0 note=71 velocity=0 time=112
note_on channel=0 note=73 velocity=64 time=23
note_on channel=0 note=63 velocity=42 time=6
note_on channel=0 note=87 velocity=35 time=23
note_on channel=0 note=73 velocity=0 time=46
note_on channel=0 note=87 velocity=0 time=4
note_on channel=0 note=61 velocity=57 time=51
note_on channel=0 note=63 velocity=0 time=51
note_on channel=0 note=70 velocity=56 time=128
note_on channel=0 note=82 velocity=55 time=6
note_on channel=0 note=58 velocity=47 time=3
note_on channel=0 note=61 velocity=0 time=11
note_on channel=0 note=70 velocity=0 time=48
note_on channel=0 note=82 velocity=0 time=45
note_on channel=0 note=63 velocity=55 time=60
note_on channel=0 note=58 velocity=0 time=82
note_on channel=0 note=72 velocity=51 time=72
note_on channel=0 note=84 velocity=56 time=4
note_on channel=0 note=63 velocity=0 time=44
note_on channel=0 note=84 velocity=0 time=47
note_on channel=0 note=72 velocity=0 time=7
note_on channel=0 note=68 velocity=53 time=17
note_on channel=0 note=68 velocity=0 time=93
note_on channel=0 note=61 velocity=46 time=143
note_on channel=0 note=68 velocity=49 time=20
note_on channel=0 note=80 velocity=43 time=7
note_on channel=0 note=68 velocity=0 time=52
note_on channel=0 note=61 velocity=0 time=10
note_on channel=0 note=80 velocity=0 time=9
note_on channel=0 note=67 velocity=45 time=108
note_on channel=0 note=61 velocity=34 time=35
note_on channel=0 note=67 velocity=0 time=49
note_on channel=0 note=69 velocity=44 time=78
note_on channel=0 note=61 velocity=0 time=16
note_on channel=0 note=81 velocity=53 time=7
note_on channel=0 note=69 velocity=0 time=69
note_on channel=0 note=81 velocity=0 time=20
note_on channel=0 note=66 velocity=57 time=132
note_on channel=0 note=66 velocity=0 time=86
note_on channel=0 note=82 velocity=55 time=42
note_on channel=0 note=70 velocity=58 time=1
note_on channel=0 note=82 velocity=0 time=59
note_on channel=0 note=70 velocity=0 time=7
note_on channel=0 note=58 velocity=50 time=18
note_on channel=0 note=58 velocity=0 time=123
note_on channel=0 note=66 velocity=61 time=64
note_on channel=0 note=78 velocity=48 time=11
note_on channel=0 note=66 velocity=0 time=53
note_on channel=0 note=78 velocity=0 time=13
note_on channel=0 note=64 velocity=47 time=142
note_on channel=0 note=58 velocity=46 time=179
note_on channel=0 note=64 velocity=0 time=0
note_on channel=0 note=67 velocity=58 time=11
note_on channel=0 note=79 velocity=56 time=13
note_on channel=0 note=58 velocity=0 time=41
note_on channel=0 note=79 velocity=0 time=39
note_on channel=0 note=67 velocity=0 time=8
note_on channel=0 note=58 velocity=41 time=60
note_on channel=0 note=64 velocity=52 time=52
note_on channel=0 note=58 velocity=0 time=5
note_on channel=0 note=64 velocity=0 time=135
note_on channel=0 note=61 velocity=52 time=28
note_on channel=0 note=63 velocity=53 time=41
note_on channel=0 note=75 velocity=49 time=11
note_on channel=0 note=63 velocity=0 time=45
note_on channel=0 note=75 velocity=0 time=18
note_on channel=0 note=61 velocity=0 time=47
note_on channel=0 note=58 velocity=55 time=11
note_on channel=0 note=55 velocity=47 time=145
note_on channel=0 note=65 velocity=54 time=9
note_on channel=0 note=77 velocity=56 time=8
note_on channel=0 note=58 velocity=0 time=10
note_on channel=0 note=65 velocity=0 time=112
note_on channel=0 note=77 velocity=0 time=10
note_on channel=0 note=61 velocity=49 time=69
note_on channel=0 note=55 velocity=0 time=121
note_on channel=0 note=78 velocity=56 time=67
note_on channel=0 note=66 velocity=56 time=16
note_on channel=0 note=78 velocity=0 time=53
note_on channel=0 note=66 velocity=0 time=5
note_on channel=0 note=61 velocity=0 time=33
note_on channel=0 note=63 velocity=48 time=36
note_on channel=0 note=63 velocity=0 time=93
note_on channel=0 note=63 velocity=49 time=115
note_on channel=0 note=75 velocity=45 time=18
note_on channel=0 note=61 velocity=48 time=43
note_on channel=0 note=63 velocity=0 time=63
note_on channel=0 note=55 velocity=43 time=57
note_on channel=0 note=75 velocity=0 time=54
note_on channel=0 note=61 velocity=0 time=33
note_on channel=0 note=65 velocity=54 time=56
control_change channel=0 control=64 value=0 time=14
note_on channel=0 note=77 velocity=54 time=16
control_change channel=0 control=64 value=127 time=99
note_on channel=0 note=65 velocity=0 time=51
note_on channel=0 note=61 velocity=53 time=6
note_on channel=0 note=77 velocity=0 time=18
note_on channel=0 note=65 velocity=39 time=175
note_on channel=0 note=61 velocity=0 time=49
note_on channel=0 note=65 velocity=0 time=76
note_on channel=0 note=55 velocity=0 time=19
note_on channel=0 note=61 velocity=43 time=12
note_on channel=0 note=73 velocity=41 time=39
note_on channel=0 note=61 velocity=0 time=48
note_on channel=0 note=73 velocity=0 time=17
note_on channel=0 note=55 velocity=51 time=75
note_on channel=0 note=64 velocity=48 time=215
note_on channel=0 note=76 velocity=45 time=15
note_on channel=0 note=55 velocity=0 time=133
note_on channel=0 note=64 velocity=0 time=24
note_on channel=0 note=61 velocity=51 time=13
note_on channel=0 note=76 velocity=0 time=3
note_on channel=0 note=61 velocity=0 time=124
note_on channel=0 note=63 velocity=57 time=58
note_on channel=0 note=75 velocity=53 time=1
note_on channel=0 note=75 velocity=0 time=61
note_on channel=0 note=63 velocity=0 time=18
note_on channel=0 note=55 velocity=55 time=62
note_on channel=0 note=60 velocity=55 time=180
note_on channel=0 note=55 velocity=0 time=32
note_on channel=0 note=72 velocity=33 time=36
note_on channel=0 note=60 velocity=0 time=41
note_on channel=0 note=72 velocity=0 time=35
note_on channel=0 note=61 velocity=55 time=202
note_on channel=0 note=73 velocity=46 time=12
note_on channel=0 note=73 velocity=0 time=67
note_on channel=0 note=61 velocity=0 time=2
note_on channel=0 note=58 velocity=52 time=240
note_on channel=0 note=70 velocity=32 time=73
note_on channel=0 note=70 velocity=0 time=71
note_on channel=0 note=58 velocity=0 time=2
note_on channel=0 note=59 velocity=53 time=50
note_on channel=0 note=59 velocity=0 time=112
note_on channel=0 note=60 velocity=58 time=97
note_on channel=0 note=72 velocity=53 time=19
note_on channel=0 note=60 velocity=0 time=114
note_on channel=0 note=72 velocity=0 time=10
note_on channel=0 note=56 velocity=46 time=50
note_on channel=0 note=56 velocity=0 time=67
note_on channel=0 note=58 velocity=61 time=137
note_on channel=0 note=70 velocity=46 time=21
note_on channel=0 note=70 velocity=0 time=55
note_on channel=0 note=58 velocity=0 time=26
note_on channel=0 note=55 velocity=44 time=55
note_on channel=0 note=55 velocity=0 time=104
note_on channel=0 note=59 velocity=50 time=89
note_on channel=0 note=71 velocity=49 time=50
note_on channel=0 note=59 velocity=0 time=66
note_on channel=0 note=54 velocity=52 time=28
note_on channel=0 note=71 velocity=0 time=5
note_on channel=0 note=54 velocity=0 time=129
note_on channel=0 note=61 velocity=64 time=47
note_on channel=0 note=75 velocity=44 time=13
note_on channel=0 note=75 velocity=0 time=60
note_on channel=0 note=48 velocity=41 time=33
note_on channel=0 note=61 velocity=0 time=3
note_on channel=0 note=56 velocity=61 time=208
note_on channel=0 note=68 velocity=47 time=28
note_on channel=0 note=56 velocity=0 time=29
note_on channel=0 note=70 velocity=31 time=7
note_on channel=0 note=68 velocity=0 time=20
note_on channel=0 note=70 velocity=0 time=42
note_on channel=0 note=54 velocity=62 time=23
note_on channel=0 note=48 velocity=0 time=34
note_on channel=0 note=70 velocity=58 time=113
note_on channel=0 note=54 velocity=0 time=6
note_on channel=0 note=59 velocity=58 time=4
note_on channel=0 note=59 velocity=0 time=89
note_on channel=0 note=70 velocity=0 time=45
note_on channel=0 note=58 velocity=62 time=32
note_on channel=0 note=58 velocity=0 time=127
note_on channel=0 note=61 velocity=62 time=41
note_on channel=0 note=73 velocity=56 time=7
note_on channel=0 note=61 velocity=0 time=52
note_on channel=0 note=73 velocity=0 time=10
note_on channel=0 note=54 velocity=57 time=56
note_on channel=0 note=73 velocity=63 time=155
note_on channel=0 note=62 velocity=61 time=2
note_on channel=0 note=54 velocity=0 time=71
note_on channel=0 note=62 velocity=0 time=32
note_on channel=0 note=73 velocity=0 time=44
note_on channel=0 note=60 velocity=44 time=26
note_on channel=0 note=60 velocity=0 time=61
note_on channel=0 note=63 velocity=66 time=68
note_on channel=0 note=75 velocity=57 time=6
note_on channel=0 note=63 velocity=0 time=45
note_on channel=0 note=75 velocity=0 time=45
note_on channel=0 note=48 velocity=52 time=9
note_on channel=0 note=50 velocity=44 time=37
note_on channel=0 note=50 velocity=0 time=103
note_on channel=0 note=56 velocity=66 time=18
note_on channel=0 note=48 velocity=0 time=72
note_on channel=0 note=65 velocity=57 time=31
note_on channel=0 note=75 velocity=63 time=9
note_on channel=0 note=65 velocity=0 time=83
note_on channel=0 note=56 velocity=0 time=4
note_on channel=0 note=75 velocity=0 time=27
note_on channel=0 note=62 velocity=61 time=43
note_on channel=0 note=62 velocity=0 time=144
note_on channel=0 note=66 velocity=51 time=26
note_on channel=0 note=75 velocity=53 time=37
note_on channel=0 note=56 velocity=50 time=2
note_on channel=0 note=66 velocity=0 time=84
note_on channel=0 note=75 velocity=0 time=9
note_on channel=0 note=48 velocity=52 time=96
note_on channel=0 note=56 velocity=0 time=91
note_on channel=0 note=67 velocity=58 time=73
note_on channel=0 note=75 velocity=66 time=14
note_on channel=0 note=67 velocity=0 time=87
note_on channel=0 note=56 velocity=64 time=30
note_on channel=0 note=48 velocity=0 time=17
note_on channel=0 note=75 velocity=0 time=19
note_on channel=0 note=64 velocity=61 time=148
note_on channel=0 note=68 velocity=58 time=12
note_on channel=0 note=56 velocity=0 time=5
note_on channel=0 note=78 velocity=51 time=14
note_on channel=0 note=68 velocity=0 time=30
note_on channel=0 note=78 velocity=0 time=25
note_on channel=0 note=64 velocity=0 time=48
note_on channel=0 note=58 velocity=49 time=30
note_on channel=0 note=69 velocity=58 time=72
note_on channel=0 note=58 velocity=0 time=1
note_on channel=0 note=78 velocity=35 time=3
note_on channel=0 note=58 velocity=48 time=134
note_on channel=0 note=69 velocity=0 time=22
note_on channel=0 note=69 velocity=51 time=114
note_on channel=0 note=80 velocity=61 time=24
note_on channel=0 note=78 velocity=0 time=70
note_on channel=0 note=69 velocity=0 time=43
note_on channel=0 note=61 velocity=62 time=39
note_on channel=0 note=58 velocity=0 time=57
note_on channel=0 note=80 velocity=0 time=19
note_on channel=0 note=70 velocity=64 time=63
note_on channel=0 note=61 velocity=0 time=30
note_on channel=0 note=80 velocity=33 time=30
note_on channel=0 note=78 velocity=37 time=8
note_on channel=0 note=70 velocity=0 time=51
note_on channel=0 note=54 velocity=57 time=17
note_on channel=0 note=78 velocity=0 time=12
note_on channel=0 note=80 velocity=0 time=5
note_on channel=0 note=71 velocity=69 time=137
note_on channel=0 note=61 velocity=61 time=110
note_on channel=0 note=54 velocity=0 time=29
note_on channel=0 note=71 velocity=0 time=22
note_on channel=0 note=71 velocity=65 time=97
note_on channel=0 note=73 velocity=73 time=5
note_on channel=0 note=61 velocity=0 time=72
note_on channel=0 note=71 velocity=0 time=32
note_on channel=0 note=66 velocity=68 time=33
note_on channel=0 note=66 velocity=0 time=128
note_on channel=0 note=80 velocity=64 time=12
note_on channel=0 note=72 velocity=69 time=2
note_on channel=0 note=73 velocity=0 time=13
note_on channel=0 note=72 velocity=0 time=132
note_on channel=0 note=56 velocity=48 time=7
note_on channel=0 note=53 velocity=57 time=8
note_on channel=0 note=80 velocity=0 time=8
note_on channel=0 note=56 velocity=0 time=53
note_on channel=0 note=72 velocity=75 time=93
note_on channel=0 note=65 velocity=65 time=137
note_on channel=0 note=72 velocity=0 time=20
note_on channel=0 note=65 velocity=0 time=106
note_on channel=0 note=72 velocity=69 time=23
note_on channel=0 note=81 velocity=57 time=11
note_on channel=0 note=83 velocity=58 time=7
note_on channel=0 note=83 velocity=0 time=49
note_on channel=0 note=72 velocity=0 time=35
note_on channel=0 note=61 velocity=72 time=19
note_on channel=0 note=81 velocity=0 time=6
note_on channel=0 note=61 velocity=0 time=94
note_on channel=0 note=53 velocity=0 time=12
note_on channel=0 note=73 velocity=75 time=55
note_on channel=0 note=82 velocity=46 time=23
note_on channel=0 note=50 velocity=65 time=97
note_on channel=0 note=52 velocity=57 time=0
note_on channel=0 note=73 velocity=0 time=6
note_on channel=0 note=82 velocity=0 time=38
note_on channel=0 note=74 velocity=82 time=96
note_on channel=0 note=50 velocity=0 time=19
note_on channel=0 note=64 velocity=75 time=135
note_on channel=0 note=74 velocity=0 time=37
note_on channel=0 note=84 velocity=66 time=101
note_on channel=0 note=74 velocity=69 time=4
note_on channel=0 note=64 velocity=0 time=99
note_on channel=0 note=58 velocity=72 time=3
note_on channel=0 note=74 velocity=0 time=20
note_on channel=0 note=84 velocity=0 time=50
note_on channel=0 note=52 velocity=0 time=24
note_on channel=0 note=58 velocity=0 time=80
note_on channel=0 note=60 velocity=75 time=22
note_on channel=0 note=75 velocity=73 time=1
note_on channel=0 note=75 velocity=0 time=129
note_on channel=0 note=75 velocity=64 time=81
note_on channel=0 note=77 velocity=52 time=22
note_on channel=0 note=48 velocity=53 time=7
note_on channel=0 note=60 velocity=0 time=17
note_on channel=0 note=77 velocity=0 time=42
note_on channel=0 note=75 velocity=0 time=77
note_on channel=0 note=50 velocity=29 time=2
note_on channel=0 note=60 velocity=85 time=88
control_change channel=0 control=64 value=0 time=78
note_on channel=0 note=76 velocity=75 time=75
control_change channel=0 control=64 value=127 time=29
note_on channel=0 note=85 velocity=57 time=10
note_on channel=0 note=56 velocity=82 time=124
note_on channel=0 note=76 velocity=0 time=21
note_on channel=0 note=85 velocity=0 time=10
note_on channel=0 note=60 velocity=0 time=11
note_on channel=0 note=50 velocity=0 time=13
note_on channel=0 note=48 velocity=0 time=8
note_on channel=0 note=85 velocity=61 time=125
note_on channel=0 note=56 velocity=0 time=9
note_on channel=0 note=76 velocity=57 time=16
note_on channel=0 note=76 velocity=0 time=48
note_on channel=0 note=45 velocity=79 time=118
note_on channel=0 note=43 velocity=89 time=6
note_on channel=0 note=43 velocity=0 time=88
note_on channel=0 note=76 velocity=69 time=72
note_on channel=0 note=85 velocity=0 time=26
note_on channel=0 note=76 velocity=0 time=179
note_on channel=0 note=57 velocity=35 time=24
note_on channel=0 note=51 velocity=72 time=190
note_on channel=0 note=57 velocity=0 time=33
note_on channel=0 note=85 velocity=73 time=11
note_on channel=0 note=76 velocity=66 time=6
note_on channel=0 note=45 velocity=0 time=7
note_on channel=0 note=51 velocity=0 time=69
note_on channel=0 note=76 velocity=0 time=123
note_on channel=0 note=78 velocity=55 time=57
note_on channel=0 note=85 velocity=0 time=34
note_on channel=0 note=57 velocity=51 time=120
note_on channel=0 note=78 velocity=0 time=26
note_on channel=0 note=77 velocity=63 time=220
note_on channel=0 note=71 velocity=51 time=24
note_on channel=0 note=71 velocity=0 time=67
note_on channel=0 note=77 velocity=0 time=73
note_on channel=0 note=65 velocity=40 time=27
note_on channel=0 note=80 velocity=51 time=1
note_on channel=0 note=64 velocity=47 time=12
note_on channel=0 note=64 velocity=0 time=64
note_on channel=0 note=80 velocity=0 time=0
note_on channel=0 note=79 velocity=44 time=11
note_on channel=0 note=79 velocity=0 time=70
note_on channel=0 note=65 velocity=0 time=60
note_on channel=0 note=77 velocity=58 time=11
note_on channel=0 note=72 velocity=53 time=17
note_on channel=0 note=71 velocity=51 time=6
note_on channel=0 note=72 velocity=0 time=68
note_on channel=0 note=71 velocity=0 time=4
note_on channel=0 note=80 velocity=60 time=79
note_on channel=0 note=66 velocity=64 time=3
note_on channel=0 note=77 velocity=0 time=5
note_on channel=0 note=57 velocity=0 time=29
note_on channel=0 note=62 velocity=29 time=47
note_on channel=0 note=62 velocity=0 time=65
note_on channel=0 note=77 velocity=63 time=21
note_on channel=0 note=80 velocity=0 time=35
note_on channel=0 note=57 velocity=56 time=3
note_on channel=0 note=66 velocity=0 time=11
note_on channel=0 note=85 velocity=47 time=10
note_on channel=0 note=77 velocity=0 time=67
note_on channel=0 note=66 velocity=49 time=55
note_on channel=0 note=77 velocity=66 time=2
note_on channel=0 note=85 velocity=0 time=18
note_on channel=0 note=62 velocity=38 time=19
note_on channel=0 note=57 velocity=0 time=23
note_on channel=0 note=71 velocity=48 time=57
note_on channel=0 note=62 velocity=0 time=16
note_on channel=0 note=80 velocity=61 time=30
note_on channel=0 note=77 velocity=0 time=17
note_on channel=0 note=81 velocity=39 time=7
note_on channel=0 note=66 velocity=0 time=16
note_on channel=0 note=62 velocity=48 time=17
note_on channel=0 note=66 velocity=34 time=25
note_on channel=0 note=71 velocity=0 time=18
note_on channel=0 note=81 velocity=0 time=2
note_on channel=0 note=66 velocity=0 time=38
note_on channel=0 note=77 velocity=72 time=39
note_on channel=0 note=66 velocity=66 time=17
note_on channel=0 note=71 velocity=61 time=22
note_on channel=0 note=80 velocity=0 time=6
note_on channel=0 note=71 velocity=0 time=42
note_on channel=0 note=66 velocity=0 time=51
note_on channel=0 note=80 velocity=64 time=48
note_on channel=0 note=66 velocity=66 time=14
note_on channel=0 note=77 velocity=0 time=15
note_on channel=0 note=71 velocity=57 time=14
note_on channel=0 note=71 velocity=0 time=52
note_on channel=0 note=77 velocity=65 time=66
note_on channel=0 note=71 velocity=61 time=30
note_on channel=0 note=80 velocity=0 time=44
note_on channel=0 note=71 velocity=0 time=59
note_on channel=0 note=62 velocity=0 time=5
note_on channel=0 note=66 velocity=0 time=21
note_on channel=0 note=71 velocity=60 time=42
note_on channel=0 note=85 velocity=73 time=0
note_on channel=0 note=62 velocity=57 time=7
note_on channel=0 note=66 velocity=68 time=3
note_on channel=0 note=57 velocity=36 time=20
note_on channel=0 note=77 velocity=0 time=28
note_on channel=0 note=71 velocity=0 time=36
note_on channel=0 note=57 velocity=0 time=18
note_on channel=0 note=62 velocity=0 time=30
note_on channel=0 note=66 velocity=0 time=13
note_on channel=0 note=77 velocity=61 time=29
note_on channel=0 note=71 velocity=65 time=11
note_on channel=0 note=66 velocity=63 time=14
note_on channel=0 note=62 velocity=39 time=23
note_on channel=0 note=85 velocity=0 time=8
note_on channel=0 note=71 velocity=0 time=63
note_on channel=0 note=62 velocity=0 time=12
note_on channel=0 note=80 velocity=64 time=47
note_on channel=0 note=71 velocity=65 time=3
note_on channel=0 note=57 velocity=19 time=13
note_on channel=0 note=62 velocity=52 time=3
note_on channel=0 note=69 velocity=54 time=13
note_on channel=0 note=77 velocity=0 time=2
note_on channel=0 note=69 velocity=0 time=55
note_on channel=0 note=71 velocity=0 time=10
note_on channel=0 note=57 velocity=0 time=9
note_on channel=0 note=62 velocity=0 time=50
note_on channel=0 note=77 velocity=69 time=47
note_on channel=0 note=57 velocity=48 time=2
note_on channel=0 note=71 velocity=72 time=5
note_on channel=0 note=62 velocity=52 time=5
note_on channel=0 note=80 velocity=0 time=50
note_on channel=0 note=71 velocity=0 time=34
note_on channel=0 note=57 velocity=0 time=14
note_on channel=0 note=62 velocity=0 time=42
note_on channel=0 note=85 velocity=64 time=25
note_on channel=0 note=57 velocity=52 time=31
note_on channel=0 note=62 velocity=52 time=1
note_on channel=0 note=71 velocity=58 time=1
note_on channel=0 note=77 velocity=0 time=1
note_on channel=0 note=71 velocity=0 time=72
note_on channel=0 note=57 velocity=0 time=45
note_on channel=0 note=66 velocity=0 time=16
note_on channel=0 note=62 velocity=0 time=14
note_on channel=0 note=77 velocity=72 time=12
note_on channel=0 note=57 velocity=57 time=23
note_on channel=0 note=66 velocity=68 time=1
note_on channel=0 note=71 velocity=65 time=1
note_on channel=0 note=62 velocity=51 time=14
note_on channel=0 note=85 velocity=0 time=41
note_on channel=0 note=57 velocity=0 time=30
note_on channel=0 note=71 velocity=0 time=19
note_on channel=0 note=62 velocity=0 time=23
note_on channel=0 note=66 velocity=0 time=19
note_on channel=0 note=80 velocity=64 time=14
note_on channel=0 note=77 velocity=0 time=22
note_on channel=0 note=66 velocity=61 time=3
note_on channel=0 note=71 velocity=63 time=2
note_on channel=0 note=62 velocity=57 time=7
note_on channel=0 note=58 velocity=49 time=9
note_on channel=0 note=57 velocity=48 time=12
note_on channel=0 note=58 velocity=0 time=43
note_on channel=0 note=57 velocity=0 time=19
note_on channel=0 note=71 velocity=0 time=9
note_on channel=0 note=62 velocity=0 time=28
note_on channel=0 note=66 velocity=0 time=23
note_on channel=0 note=77 velocity=75 time=35
note_on channel=0 note=66 velocity=60 time=5
note_on channel=0 note=57 velocity=46 time=1
note_on channel=0 note=62 velocity=55 time=0
note_on channel=0 note=71 velocity=57 time=12
note_on channel=0 note=80 velocity=0 time=24
note_on channel=0 note=57 velocity=0 time=55
note_on channel=0 note=71 velocity=0 time=7
note_on channel=0 note=62 velocity=0 time=29
note_on channel=0 note=66 velocity=0 time=10
note_on channel=0 note=77 velocity=0 time=49
note_on channel=0 note=62 velocity=58 time=3
note_on channel=0 note=66 velocity=79 time=1
note_on channel=0 note=57 velocity=58 time=6
note_on channel=0 note=71 velocity=75 time=3
note_on channel=0 note=85 velocity=75 time=17
note_on channel=0 note=77 velocity=38 time=38
note_on channel=0 note=83 velocity=43 time=2
note_on channel=0 note=77 velocity=0 time=47
note_on channel=0 note=83 velocity=0 time=20
note_on channel=0 note=71 velocity=0 time=5
note_on channel=0 note=57 velocity=0 time=53
note_on channel=0 note=62 velocity=0 time=57
note_on channel=0 note=66 velocity=0 time=9
note_on channel=0 note=77 velocity=69 time=7
note_on channel=0 note=85 velocity=0 time=18
note_on channel=0 note=77 velocity=0 time=200
note_on channel=0 note=66 velocity=68 time=72
note_on channel=0 note=80 velocity=79 time=1
note_on channel=0 note=59 velocity=63 time=5
note_on channel=0 note=77 velocity=66 time=10
note_on channel=0 note=71 velocity=69 time=1
note_on channel=0 note=64 velocity=63 time=16
note_on channel=0 note=63 velocity=47 time=17
note_on channel=0 note=63 velocity=0 time=146
note_on channel=0 note=77 velocity=0 time=14
note_on channel=0 note=71 velocity=0 time=30
note_on channel=0 note=66 velocity=0 time=23
note_on channel=0 note=59 velocity=0 time=22
note_on channel=0 note=80 velocity=0 time=55
note_on channel=0 note=77 velocity=82 time=3
note_on channel=0 note=66 velocity=58 time=15
note_on channel=0 note=59 velocity=52 time=13
note_on channel=0 note=71 velocity=75 time=1
note_on channel=0 note=71 velocity=0 time=81
note_on channel=0 note=59 velocity=0 time=18
note_on channel=0 note=64 velocity=0 time=47
note_on channel=0 note=66 velocity=0 time=3
note_on channel=0 note=77 velocity=0 time=36
note_on channel=0 note=66 velocity=49 time=64
control_change channel=0 control=64 value=0 time=7
note_on channel=0 note=59 velocity=65 time=1
note_on channel=0 note=64 velocity=51 time=1
note_on channel=0 note=71 velocity=75 time=9
note_on channel=0 note=77 velocity=63 time=9
note_on channel=0 note=85 velocity=75 time=9
note_on channel=0 note=61 velocity=46 time=1
note_on channel=0 note=80 velocity=70 time=1
note_on channel=0 note=60 velocity=45 time=36
control_change channel=0 control=64 value=127 time=63
note_on channel=0 note=60 velocity=0 time=6
note_on channel=0 note=61 velocity=0 time=16
note_on channel=0 note=77 velocity=0 time=49
note_on channel=0 note=71 velocity=0 time=11
note_on channel=0 note=66 velocity=0 time=71
note_on channel=0 note=59 velocity=0 time=4
note_on channel=0 note=80 velocity=0 time=14
note_on channel=0 note=64 velocity=0 time=8
note_on channel=0 note=85 velocity=0 time=9
note_on channel=0 note=66 velocity=70 time=34
note_on channel=0 note=77 velocity=84 time=0
note_on channel=0 note=71 velocity=75 time=8
note_on channel=0 note=59 velocity=60 time=5
note_on channel=0 note=64 velocity=75 time=4
note_on channel=0 note=61 velocity=55 time=7
note_on channel=0 note=69 velocity=58 time=5
note_on channel=0 note=65 velocity=57 time=4
note_on channel=0 note=82 velocity=39 time=12
note_on channel=0 note=67 velocity=38 time=15
note_on channel=0 note=60 velocity=43 time=4
note_on channel=0 note=69 velocity=0 time=12
note_on channel=0 note=65 velocity=0 time=12
note_on channel=0 note=61 velocity=0 time=5
note_on channel=0 note=82 velocity=0 time=4
note_on channel=0 note=67 velocity=0 time=12
note_on channel=0 note=71 velocity=0 time=15
note_on channel=0 note=60 velocity=0 time=3
note_on channel=0 note=64 velocity=0 time=9
note_on channel=0 note=66 velocity=0 time=37
note_on channel=0 note=59 velocity=0 time=9
note_on channel=0 note=77 velocity=0 time=44
note_on channel=0 note=80 velocity=82 time=334
note_on channel=0 note=57 velocity=65 time=1
note_on channel=0 note=77 velocity=78 time=2
note_on channel=0 note=71 velocity=84 time=4
note_on channel=0 note=62 velocity=61 time=1
note_on channel=0 note=66 velocity=73 time=9
note_on channel=0 note=58 velocity=52 time=7
control_change channel=0 control=64 value=0 time=15
note_on channel=0 note=58 velocity=0 time=48
control_change channel=0 control=64 value=127 time=124
note_on channel=0 note=77 velocity=0 time=127
note_on channel=0 note=77 velocity=58 time=230
note_on channel=0 note=80 velocity=0 time=35
note_on channel=0 note=71 velocity=0 time=37
note_on channel=0 note=57 velocity=0 time=14
note_on channel=0 note=66 velocity=0 time=9
note_on channel=0 note=62 velocity=0 time=37
note_on channel=0 note=77 velocity=0 time=22
note_on channel=0 note=57 velocity=58 time=28
note_on channel=0 note=66 velocity=63 time=0
note_on channel=0 note=71 velocity=75 time=0
note_on channel=0 note=62 velocity=65 time=9
note_on channel=0 note=85 velocity=82 time=2
note_on channel=0 note=80 velocity=60 time=9
note_on channel=0 note=77 velocity=69 time=2
note_on channel=0 note=80 velocity=0 time=45
note_on channel=0 note=71 velocity=0 time=49
note_on channel=0 note=77 velocity=0 time=29
note_on channel=0 note=57 velocity=0 time=7
note_on channel=0 note=77 velocity=66 time=40
note_on channel=0 note=71 velocity=65 time=1
note_on channel=0 note=57 velocity=47 time=7
note_on channel=0 note=80 velocity=36 time=6
note_on channel=0 note=85 velocity=0 time=30
note_on channel=0 note=80 velocity=0 time=42
note_on channel=0 note=71 velocity=0 time=27
note_on channel=0 note=77 velocity=0 time=30
note_on channel=0 note=71 velocity=65 time=35
note_on channel=0 note=80 velocity=43 time=9
note_on channel=0 note=77 velocity=54 time=4
note_on channel=0 note=71 velocity=0 time=84
note_on channel=0 note=57 velocity=0 time=17
note_on channel=0 note=62 velocity=0 time=2
note_on channel=0 note=80 velocity=0 time=4
note_on channel=0 note=77 velocity=0 time=1
note_on channel=0 note=71 velocity=72 time=48
note_on channel=0 note=77 velocity=65 time=2
note_on channel=0 note=80 velocity=66 time=5
note_on channel=0 note=57 velocity=52 time=4
note_on channel=0 note=62 velocity=57 time=6
note_on channel=0 note=63 velocity=57 time=12
note_on channel=0 note=63 velocity=0 time=43
note_on channel=0 note=71 velocity=0 time=30
note_on channel=0 note=62 velocity=0 time=39
note_on channel=0 note=66 velocity=0 time=1
note_on channel=0 note=80 velocity=0 time=9
note_on channel=0 note=77 velocity=0 time=6
note_on channel=0 note=71 velocity=63 time=35
note_on channel=0 note=66 velocity=73 time=4
note_on channel=0 note=77 velocity=63 time=0
note_on channel=0 note=62 velocity=55 time=5
note_on channel=0 note=80 velocity=66 time=0
note_on channel=0 note=85 velocity=39 time=25
note_on channel=0 note=71 velocity=0 time=57
note_on channel=0 note=85 velocity=0 time=13
note_on channel=0 note=62 velocity=0 time=44
note_on channel=0 note=66 velocity=0 time=6
note_on channel=0 note=80 velocity=0 time=9
note_on channel=0 note=57 velocity=0 time=4
note_on channel=0 note=77 velocity=0 time=3
note_on channel=0 note=57 velocity=39 time=46
note_on channel=0 note=66 velocity=73 time=2
note_on channel=0 note=77 velocity=78 time=3
note_on channel=0 note=80 velocity=75 time=0
note_on channel=0 note=62 velocity=56 time=1
note_on channel=0 note=71 velocity=78 time=2
note_on channel=0 note=85 velocity=63 time=17
note_on channel=0 note=71 velocity=0 time=64
note_on channel=0 note=57 velocity=0 time=34
note_on channel=0 note=85 velocity=0 time=27
note_on channel=0 note=77 velocity=0 time=11
note_on channel=0 note=62 velocity=0 time=4
note_on channel=0 note=66 velocity=0 time=2
note_on channel=0 note=80 velocity=0 time=9
note_on channel=0 note=57 velocity=56 time=40
note_on channel=0 note=66 velocity=73 time=7
note_on channel=0 note=77 velocity=72 time=3
note_on channel=0 note=85 velocity=75 time=0
note_on channel=0 note=80 velocity=73 time=2
note_on channel=0 note=62 velocity=56 time=3
note_on channel=0 note=71 velocity=84 time=3
note_on channel=0 note=79 velocity=51 time=30
note_on channel=0 note=63 velocity=47 time=6
note_on channel=0 note=59 velocity=35 time=12
note_on channel=0 note=80 velocity=0 time=24
note_on channel=0 note=71 velocity=0 time=4
note_on channel=0 note=63 velocity=0 time=20
note_on channel=0 note=79 velocity=0 time=1
note_on channel=0 note=85 velocity=0 time=4
note_on channel=0 note=77 velocity=0 time=21
note_on channel=0 note=66 velocity=0 time=4
note_on channel=0 note=59 velocity=0 time=2
note_on channel=0 note=57 velocity=0 time=18
note_on channel=0 note=62 velocity=0 time=5
note_on channel=0 note=76 velocity=78 time=108
note_on channel=0 note=67 velocity=84 time=4
note_on channel=0 note=76 velocity=0 time=124
note_on channel=0 note=67 velocity=0 time=42
note_on channel=0 note=47 velocity=65 time=56
note_on channel=0 note=45 velocity=72 time=6
note_on channel=0 note=45 velocity=0 time=125
note_on channel=0 note=47 velocity=0 time=26
note_on channel=0 note=59 velocity=60 time=102
note_on channel=0 note=59 velocity=0 time=241
note_on channel=0 note=69 velocity=78 time=163
note_on channel=0 note=59 velocity=79 time=1
note_on channel=0 note=45 velocity=69 time=1
note_on channel=0 note=49 velocity=75 time=1
note_on channel=0 note=52 velocity=72 time=1
note_on channel=0 note=62 velocity=72 time=1
note_on channel=0 note=62 velocity=0 time=402
note_on channel=0 note=59 velocity=0 time=4
note_on channel=0 note=69 velocity=0 time=46
note_on channel=0 note=52 velocity=0 time=38
note_on channel=0 note=45 velocity=0 time=17
note_on channel=0 note=49 velocity=0 time=11
note_on channel=0 note=49 velocity=66 time=67
note_on channel=0 note=57 velocity=51 time=1
note_on channel=0 note=52 velocity=46 time=1
note_on channel=0 note=59 velocity=50 time=14
note_on channel=0 note=61 velocity=56 time=0
note_on channel=0 note=69 velocity=47 time=12
note_on channel=0 note=57 velocity=0 time=42
note_on channel=0 note=61 velocity=0 time=27
note_on channel=0 note=52 velocity=0 time=3
note_on channel=0 note=69 velocity=0 time=1
note_on channel=0 note=59 velocity=0 time=4
note_on channel=0 note=49 velocity=0 time=26
control_change channel=0 control=64 value=0 time=110
note_on channel=0 note=59 velocity=57 time=18
note_on channel=0 note=57 velocity=52 time=12
note_on channel=0 note=69 velocity=49 time=0
note_on channel=0 note=61 velocity=55 time=2
note_on channel=0 note=49 velocity=57 time=9
note_on channel=0 note=45 velocity=42 time=4
note_on channel=0 note=52 velocity=50 time=1
note_on channel=0 note=52 velocity=0 time=67
note_on channel=0 note=61 velocity=0 time=0
note_on channel=0 note=57 velocity=0 time=4
note_on channel=0 note=45 velocity=0 time=19
note_on channel=0 note=59 velocity=0 time=2
note_on channel=0 note=69 velocity=0 time=0
control_change channel=0 control=64 value=127 time=16
note_on channel=0 note=49 velocity=0 time=17
note_on channel=0 note=59 velocity=51 time=69
note_on channel=0 note=49 velocity=50 time=16
note_on channel=0 note=69 velocity=44 time=0
note_on channel=0 note=61 velocity=56 time=2
note_on channel=0 note=52 velocity=48 time=13
note_on channel=0 note=57 velocity=43 time=8
note_on channel=0 note=61 velocity=0 time=37
note_on channel=0 note=59 velocity=0 time=17
note_on channel=0 note=69 velocity=0 time=0
note_on channel=0 note=52 velocity=0 time=15
note_on channel=0 note=57 velocity=0 time=0
note_on channel=0 note=49 velocity=0 time=28
note_on channel=0 note=69 velocity=52 time=54
note_on channel=0 note=59 velocity=57 time=1
note_on channel=0 note=61 velocity=56 time=17
note_on channel=0 note=59 velocity=0 time=74
note_on channel=0 note=61 velocity=0 time=4
note_on channel=0 note=69 velocity=0 time=19
note_on channel=0 note=49 velocity=53 time=74
note_on channel=0 note=55 velocity=56 time=7
note_on channel=0 note=52 velocity=50 time=7
control_change channel=0 control=64 value=0 time=42
note_on channel=0 note=55 velocity=0 time=13
note_on channel=0 note=52 velocity=0 time=21
note_on channel=0 note=58 velocity=61 time=51
note_on channel=0 note=68 velocity=47 time=11
note_on channel=0 note=49 velocity=0 time=9
control_change channel=0 control=64 value=127 time=65
note_on channel=0 note=68 velocity=0 time=11
note_on channel=0 note=58 velocity=0 time=21
note_on channel=0 note=45 velocity=35 time=42
note_on channel=0 note=58 velocity=48 time=67
note_on channel=0 note=68 velocity=36 time=29
note_on channel=0 note=61 velocity=44 time=16
note_on channel=0 note=45 velocity=0 time=23
note_on channel=0 note=61 velocity=0 time=39
note_on channel=0 note=68 velocity=0 time=3
note_on channel=0 note=58 velocity=0 time=3
note_on channel=0 note=55 velocity=51 time=67
note_on channel=0 note=49 velocity=41 time=5
note_on channel=0 note=45 velocity=32 time=23
note_on channel=0 note=52 velocity=48 time=10
note_on channel=0 note=55 velocity=0 time=58
note_on channel=0 note=45 velocity=0 time=10
note_on channel=0 note=52 velocity=0 time=24
note_on channel=0 note=61 velocity=55 time=18
note_on channel=0 note=57 velocity=43 time=5
note_on channel=0 note=49 velocity=0 time=39
note_on channel=0 note=57 velocity=0 time=57
note_on channel=0 note=54 velocity=62 time=44
note_on channel=0 note=61 velocity=0 time=29
control_change channel=0 control=64 value=0 time=54
note_on channel=0 note=54 velocity=0 time=13
note_on channel=0 note=56 velocity=62 time=69
note_on channel=0 note=55 velocity=52 time=97
note_on channel=0 note=49 velocity=51 time=20
note_on channel=0 note=56 velocity=0 time=8
note_on channel=0 note=55 velocity=0 time=54
note_on channel=0 note=51 velocity=56 time=83
note_on channel=0 note=49 velocity=0 time=57
note_on channel=0 note=57 velocity=51 time=37
control_change channel=0 control=64 value=127 time=25
note_on channel=0 note=51 velocity=0 time=14
note_on channel=0 note=58 velocity=57 time=38
note_on channel=0 note=57 velocity=0 time=26
note_on channel=0 note=49 velocity=36 time=65
note_on channel=0 note=53 velocity=52 time=28
control_change channel=0 control=64 value=0 time=14
note_on channel=0 note=58 velocity=0 time=4
note_on channel=0 note=49 velocity=0 time=22
note_on channel=0 note=66 velocity=45 time=15
note_on channel=0 note=45 velocity=43 time=20
note_on channel=0 note=53 velocity=0 time=41
note_on channel=0 note=51 velocity=53 time=7
note_on channel=0 note=45 velocity=0 time=30
note_on channel=0 note=66 velocity=0 time=49
note_on channel=0 note=54 velocity=47 time=16
note_on channel=0 note=49 velocity=59 time=46
note_on channel=0 note=54 velocity=0 time=9
note_on channel=0 note=51 velocity=0 time=28
note_on channel=0 note=45 velocity=52 time=80
note_on channel=0 note=53 velocity=58 time=39
note_on channel=0 note=49 velocity=0 time=35
note_on channel=0 note=53 velocity=0 time=70
note_on channel=0 note=55 velocity=49 time=11
note_on channel=0 note=49 velocity=39 time=28
note_on channel=0 note=45 velocity=0 time=37
note_on channel=0 note=56 velocity=49 time=21
note_on channel=0 note=49 velocity=0 time=29
note_on channel=0 note=55 velocity=0 time=1
note_on channel=0 note=61 velocity=49 time=100
note_on channel=0 note=52 velocity=34 time=31
note_on channel=0 note=56 velocity=0 time=17
note_on channel=0 note=61 velocity=0 time=16
note_on channel=0 note=41 velocity=41 time=51
note_on channel=0 note=52 velocity=0 time=24
note_on channel=0 note=46 velocity=43 time=5
note_on channel=0 note=45 velocity=39 time=50
note_on channel=0 note=46 velocity=0 time=19
note_on channel=0 note=52 velocity=53 time=4
note_on channel=0 note=45 velocity=0 time=34
note_on channel=0 note=41 velocity=0 time=2
note_on channel=0 note=47 velocity=60 time=78
note_on channel=0 note=52 velocity=0 time=59
note_on channel=0 note=35 velocity=73 time=53
note_on channel=0 note=47 velocity=0 time=2
note_on channel=0 note=47 velocity=65 time=99
note_on channel=0 note=51 velocity=36 time=47
note_on channel=0 note=35 velocity=0 time=7
note_on channel=0 note=47 velocity=0 time=36
note_on channel=0 note=52 velocity=65 time=10
note_on channel=0 note=51 velocity=0 time=12
note_on channel=0 note=51 velocity=49 time=89
note_on channel=0 note=52 velocity=0 time=33
note_on channel=0 note=50 velocity=57 time=53
note_on channel=0 note=51 velocity=0 time=7
note_on channel=0 note=44 velocity=23 time=70
note_on channel=0 note=50 velocity=0 time=47
note_on channel=0 note=46 velocity=61 time=18
note_on channel=0 note=49 velocity=56 time=26
note_on channel=0 note=44 velocity=0 time=10
control_change channel=0 control=64 value=127 time=27
note_on channel=0 note=63 velocity=52 time=23
note_on channel=0 note=57 velocity=53 time=13
note_on channel=0 note=46 velocity=0 time=4
note_on channel=0 note=49 velocity=0 time=42
note_on channel=0 note=61 velocity=28 time=30
note_on channel=0 note=63 velocity=0 time=63
note_on channel=0 note=57 velocity=0 time=2
note_on channel=0 note=67 velocity=51 time=11
note_on channel=0 note=66 velocity=43 time=50
note_on channel=0 note=61 velocity=0 time=13
note_on channel=0 note=59 velocity=56 time=12
note_on channel=0 note=51 velocity=51 time=4
note_on channel=0 note=66 velocity=0 time=18
note_on channel=0 note=67 velocity=0 time=22
control_change channel=0 control=64 value=0 time=48
note_on channel=0 note=59 velocity=0 time=43
note_on channel=0 note=58 velocity=56 time=34
note_on channel=0 note=60 velocity=57 time=80
note_on channel=0 note=62 velocity=47 time=7
note_on channel=0 note=56 velocity=56 time=8
note_on channel=0 note=51 velocity=0 time=11
note_on channel=0 note=56 velocity=0 time=37
note_on channel=0 note=58 velocity=0 time=0
note_on channel=0 note=62 velocity=0 time=20
note_on channel=0 note=72 velocity=52 time=19
note_on channel=0 note=60 velocity=0 time=13
note_on channel=0 note=72 velocity=0 time=41
note_on channel=0 note=75 velocity=60 time=22
note_on channel=0 note=68 velocity=33 time=95
note_on channel=0 note=75 velocity=0 time=26
note_on channel=0 note=68 velocity=0 time=28
note_on channel=0 note=71 velocity=65 time=15
note_on channel=0 note=64 velocity=40 time=28
note_on channel=0 note=71 velocity=0 time=11
note_on channel=0 note=68 velocity=60 time=76
note_on channel=0 note=64 velocity=0 time=15
note_on channel=0 note=68 velocity=0 time=42
note_on channel=0 note=75 velocity=48 time=3
note_on channel=0 note=80 velocity=52 time=105
note_on channel=0 note=75 velocity=0 time=17
note_on channel=0 note=62 velocity=39 time=30
note_on channel=0 note=60 velocity=43 time=21
note_on channel=0 note=69 velocity=53 time=0
note_on channel=0 note=62 velocity=0 time=40
note_on channel=0 note=61 velocity=35 time=22
note_on channel=0 note=69 velocity=0 time=65
note_on channel=0 note=61 velocity=0 time=42
note_on channel=0 note=60 velocity=0 time=4
note_on channel=0 note=80 velocity=0 time=7
note_on channel=0 note=73 velocity=60 time=35
note_on channel=0 note=71 velocity=54 time=114
note_on channel=0 note=73 velocity=0 time=25
note_on channel=0 note=71 velocity=0 time=31
note_on channel=0 note=65 velocity=38 time=49
note_on channel=0 note=55 velocity=36 time=54
note_on channel=0 note=65 velocity=0 time=47
note_on channel=0 note=56 velocity=22 time=19
note_on channel=0 note=61 velocity=62 time=15
note_on channel=0 note=55 velocity=0 time=23
note_on channel=0 note=56 velocity=0 time=47
note_on channel=0 note=61 velocity=0 time=3
note_on channel=0 note=68 velocity=48 time=80
note_on channel=0 note=68 velocity=0 time=49
note_on channel=0 note=62 velocity=57 time=14
note_on channel=0 note=53 velocity=37 time=28
note_on channel=0 note=52 velocity=41 time=4
note_on channel=0 note=62 velocity=0 time=74
note_on channel=0 note=57 velocity=57 time=65
note_on channel=0 note=52 velocity=0 time=35
note_on channel=0 note=65 velocity=46 time=19
note_on channel=0 note=57 velocity=0 time=6
note_on channel=0 note=53 velocity=0 time=8
note_on channel=0 note=65 velocity=0 time=62
note_on channel=0 note=68 velocity=48 time=3
note_on channel=0 note=70 velocity=64 time=0
note_on channel=0 note=68 velocity=0 time=56
note_on channel=0 note=70 velocity=0 time=71
note_on channel=0 note=73 velocity=51 time=15
note_on channel=0 note=64 velocity=61 time=21
note_on channel=0 note=65 velocity=40 time=12
note_on channel=0 note=73 velocity=0 time=14
note_on channel=0 note=64 velocity=0 time=10
note_on channel=0 note=57 velocity=31 time=25
note_on channel=0 note=65 velocity=0 time=8
note_on channel=0 note=64 velocity=60 time=26
note_on channel=0 note=57 velocity=0 time=21
note_on channel=0 note=59 velocity=63 time=48
note_on channel=0 note=64 velocity=0 time=48
note_on channel=0 note=47 velocity=46 time=66
note_on channel=0 note=60 velocity=35 time=5
note_on channel=0 note=59 velocity=0 time=12
note_on channel=0 note=53 velocity=60 time=6
note_on channel=0 note=63 velocity=51 time=4
note_on channel=0 note=60 velocity=0 time=31
note_on channel=0 note=47 velocity=0 time=12
note_on channel=0 note=63 velocity=0 time=6
note_on channel=0 note=46 velocity=53 time=44
note_on channel=0 note=53 velocity=0 time=14
note_on channel=0 note=43 velocity=63 time=24
note_on channel=0 note=41 velocity=56 time=1
note_on channel=0 note=46 velocity=0 time=31
note_on channel=0 note=53 velocity=65 time=36
note_on channel=0 note=41 velocity=0 time=43
note_on channel=0 note=43 velocity=0 time=15
note_on channel=0 note=53 velocity=0 time=27
note_on channel=0 note=70 velocity=73 time=46
note_on channel=0 note=70 velocity=0 time=91
note_on channel=0 note=68 velocity=73 time=46
note_on channel=0 note=68 velocity=0 time=38
note_on channel=0 note=69 velocity=66 time=64
note_on channel=0 note=69 velocity=0 time=97
note_on channel=0 note=74 velocity=56 time=18
note_on channel=0 note=72 velocity=45 time=8
note_on channel=0 note=74 velocity=0 time=42
note_on channel=0 note=72 velocity=0 time=27
note_on channel=0 note=55 velocity=58 time=17
note_on channel=0 note=48 velocity=42 time=110
note_on channel=0 note=55 velocity=0 time=11
note_on channel=0 note=43 velocity=65 time=3
note_on channel=0 note=45 velocity=53 time=13
note_on channel=0 note=60 velocity=63 time=8
note_on channel=0 note=48 velocity=0 time=38
note_on channel=0 note=45 velocity=0 time=10
note_on channel=0 note=60 velocity=0 time=26
note_on channel=0 note=43 velocity=0 time=22
note_on channel=0 note=63 velocity=57 time=0
note_on channel=0 note=47 velocity=72 time=62
note_on channel=0 note=63 velocity=0 time=68
note_on channel=0 note=39 velocity=42 time=37
note_on channel=0 note=47 velocity=0 time=5
note_on channel=0 note=36 velocity=80 time=3
note_on channel=0 note=39 velocity=0 time=41
note_on channel=0 note=47 velocity=72 time=56
note_on channel=0 note=36 velocity=0 time=45
note_on channel=0 note=47 velocity=0 time=29
note_on channel=0 note=75 velocity=75 time=9
note_on channel=0 note=75 velocity=0 time=87
note_on channel=0 note=59 velocity=61 time=65
note_on channel=0 note=60 velocity=55 time=15
note_on channel=0 note=60 velocity=0 time=46
note_on channel=0 note=59 velocity=0 time=1
note_on channel=0 note=62 velocity=63 time=52
note_on channel=0 note=64 velocity=57 time=63
note_on channel=0 note=64 velocity=0 time=52
note_on channel=0 note=45 velocity=72 time=18
note_on channel=0 note=62 velocity=0 time=5
note_on channel=0 note=47 velocity=37 time=28
note_on channel=0 note=37 velocity=56 time=38
note_on channel=0 note=47 velocity=0 time=11
note_on channel=0 note=33 velocity=73 time=15
note_on channel=0 note=45 velocity=0 time=4
note_on channel=0 note=35 velocity=64 time=12
note_on channel=0 note=65 velocity=48 time=9
note_on channel=0 note=37 velocity=0 time=8
note_on channel=0 note=65 velocity=0 time=55
note_on channel=0 note=57 velocity=34 time=24
note_on channel=0 note=59 velocity=51 time=1
note_on channel=0 note=64 velocity=39 time=3
note_on channel=0 note=45 velocity=85 time=6
note_on channel=0 note=35 velocity=0 time=3
note_on channel=0 note=61 velocity=52 time=2
note_on channel=0 note=57 velocity=0 time=30
note_on channel=0 note=59 velocity=0 time=16
note_on channel=0 note=61 velocity=0 time=1
note_on channel=0 note=33 velocity=0 time=8
note_on channel=0 note=64 velocity=0 time=3
note_on channel=0 note=34 velocity=66 time=72
note_on channel=0 note=38 velocity=69 time=1
note_on channel=0 note=37 velocity=57 time=2
note_on channel=0 note=33 velocity=48 time=11
note_on channel=0 note=39 velocity=51 time=2
note_on channel=0 note=35 velocity=64 time=2
note_on channel=0 note=45 velocity=0 time=7
note_on channel=0 note=35 velocity=0 time=40
note_on channel=0 note=39 velocity=0 time=4
note_on channel=0 note=34 velocity=0 time=3
note_on channel=0 note=33 velocity=0 time=4
note_on channel=0 note=37 velocity=0 time=41
note_on channel=0 note=48 velocity=82 time=0
note_on channel=0 note=86 velocity=50 time=3
note_on channel=0 note=42 velocity=48 time=4
note_on channel=0 note=47 velocity=60 time=2
note_on channel=0 note=38 velocity=0 time=2
note_on channel=0 note=85 velocity=46 time=22
note_on channel=0 note=48 velocity=0 time=7
note_on channel=0 note=47 velocity=0 time=13
note_on channel=0 note=42 velocity=0 time=6
note_on channel=0 note=76 velocity=48 time=3
note_on channel=0 note=86 velocity=0 time=17
note_on channel=0 note=76 velocity=0 time=94
note_on channel=0 note=86 velocity=40 time=1
note_on channel=0 note=89 velocity=48 time=17
note_on channel=0 note=88 velocity=46 time=3
note_on channel=0 note=85 velocity=0 time=6
note_on channel=0 note=86 velocity=0 time=38
note_on channel=0 note=75 velocity=75 time=5
note_on channel=0 note=88 velocity=0 time=1
note_on channel=0 note=89 velocity=0 time=7
note_on channel=0 note=75 velocity=0 time=117
note_on channel=0 note=87 velocity=81 time=37
note_on channel=0 note=97 velocity=37 time=54
note_on channel=0 note=87 velocity=0 time=33
note_on channel=0 note=98 velocity=39 time=14
note_on channel=0 note=97 velocity=0 time=26
note_on channel=0 note=87 velocity=62 time=40
note_on channel=0 note=98 velocity=0 time=0
note_on channel=0 note=102 velocity=64 time=28
note_on channel=0 note=87 velocity=0 time=88
note_on channel=0 note=102 velocity=0 time=25
note_on channel=0 note=90 velocity=66 time=38
note_on channel=0 note=90 velocity=0 time=34
note_on channel=0 note=77 velocity=34 time=66
note_on channel=0 note=84 velocity=54 time=2
note_on channel=0 note=82 velocity=64 time=126
note_on channel=0 note=84 velocity=0 time=0
note_on channel=0 note=77 velocity=0 time=14
note_on channel=0 note=103 velocity=63 time=7
note_on channel=0 note=82 velocity=0 time=78
note_on channel=0 note=103 velocity=0 time=12
note_on channel=0 note=93 velocity=65 time=19
note_on channel=0 note=93 velocity=0 time=100
note_on channel=0 note=82 velocity=63 time=4
note_on channel=0 note=82 velocity=0 time=40
note_on channel=0 note=89 velocity=49 time=30
note_on channel=0 note=89 velocity=0 time=61
note_on channel=0 note=75 velocity=49 time=66
note_on channel=0 note=81 velocity=56 time=13
note_on channel=0 note=74 velocity=57 time=1
note_on channel=0 note=79 velocity=54 time=3
note_on channel=0 note=78 velocity=31 time=18
note_on channel=0 note=103 velocity=77 time=30
note_on channel=0 note=75 velocity=0 time=6
note_on channel=0 note=78 velocity=0 time=6
note_on channel=0 note=81 velocity=0 time=25
note_on channel=0 note=79 velocity=0 time=5
note_on channel=0 note=103 velocity=0 time=71
note_on channel=0 note=82 velocity=61 time=47
note_on channel=0 note=82 velocity=0 time=114
note_on channel=0 note=86 velocity=44 time=69
note_on channel=0 note=88 velocity=50 time=18
note_on channel=0 note=78 velocity=64 time=43
note_on channel=0 note=88 velocity=0 time=6
note_on channel=0 note=86 velocity=0 time=3
note_on channel=0 note=74 velocity=0 time=60
note_on channel=0 note=86 velocity=52 time=40
note_on channel=0 note=78 velocity=0 time=7
note_on channel=0 note=98 velocity=67 time=0
note_on channel=0 note=86 velocity=0 time=59
note_on channel=0 note=98 velocity=0 time=59
note_on channel=0 note=81 velocity=72 time=6
note_on channel=0 note=72 velocity=58 time=16
note_on channel=0 note=81 velocity=0 time=92
note_on channel=0 note=72 velocity=0 time=31
note_on channel=0 note=105 velocity=61 time=4
note_on channel=0 note=103 velocity=59 time=4
note_on channel=0 note=105 velocity=0 time=43
note_on channel=0 note=103 velocity=0 time=1
note_on channel=0 note=78 velocity=55 time=51
note_on channel=0 note=81 velocity=58 time=0
note_on channel=0 note=73 velocity=42 time=21
note_on channel=0 note=75 velocity=40 time=10
note_on channel=0 note=79 velocity=54 time=7
note_on channel=0 note=78 velocity=0 time=9
note_on channel=0 note=79 velocity=0 time=36
note_on channel=0 note=73 velocity=0 time=2
note_on channel=0 note=81 velocity=0 time=12
note_on channel=0 note=88 velocity=57 time=5
note_on channel=0 note=75 velocity=0 time=3
note_on channel=0 note=87 velocity=56 time=0
note_on channel=0 note=84 velocity=63 time=9
note_on channel=0 note=88 velocity=0 time=32
note_on channel=0 note=80 velocity=61 time=56
note_on channel=0 note=81 velocity=43 time=4
note_on channel=0 note=79 velocity=50 time=4
note_on channel=0 note=78 velocity=56 time=7
note_on channel=0 note=84 velocity=0 time=3
note_on channel=0 note=87 velocity=0 time=11
note_on channel=0 note=80 velocity=0 time=19
note_on channel=0 note=79 velocity=0 time=12
note_on channel=0 note=81 velocity=0 time=15
note_on channel=0 note=93 velocity=61 time=43
note_on channel=0 note=78 velocity=0 time=16
note_on channel=0 note=83 velocity=65 time=10
note_on channel=0 note=78 velocity=64 time=51
note_on channel=0 note=83 velocity=0 time=1
note_on channel=0 note=79 velocity=57 time=17
note_on channel=0 note=79 velocity=0 time=46
note_on channel=0 note=78 velocity=0 time=37
note_on channel=0 note=93 velocity=0 time=9
note_on channel=0 note=84 velocity=75 time=10
note_on channel=0 note=91 velocity=53 time=7
note_on channel=0 note=90 velocity=47 time=14
note_on channel=0 note=91 velocity=0 time=33
note_on channel=0 note=75 velocity=66 time=10
note_on channel=0 note=77 velocity=57 time=11
note_on channel=0 note=90 velocity=0 time=5
note_on channel=0 note=76 velocity=63 time=5
note_on channel=0 note=84 velocity=0 time=39
note_on channel=0 note=76 velocity=0 time=4
note_on channel=0 note=77 velocity=0 time=3
note_on channel=0 note=75 velocity=0 time=32
note_on channel=0 note=76 velocity=82 time=7
note_on channel=0 note=69 velocity=63 time=116
note_on channel=0 note=76 velocity=0 time=29
note_on channel=0 note=61 velocity=42 time=50
note_on channel=0 note=59 velocity=47 time=21
note_on channel=0 note=76 velocity=49 time=2
note_on channel=0 note=69 velocity=0 time=4
note_on channel=0 note=60 velocity=42 time=24
note_on channel=0 note=61 velocity=0 time=24
note_on channel=0 note=69 velocity=51 time=18
note_on channel=0 note=59 velocity=0 time=20
note_on channel=0 note=76 velocity=0 time=6
note_on channel=0 note=60 velocity=0 time=3
note_on channel=0 note=59 velocity=61 time=70
note_on channel=0 note=71 velocity=39 time=4
note_on channel=0 note=69 velocity=0 time=53
note_on channel=0 note=71 velocity=0 time=17
note_on channel=0 note=47 velocity=66 time=18
note_on channel=0 note=59 velocity=0 time=33
note_on channel=0 note=77 velocity=52 time=3
note_on channel=0 note=50 velocity=43 time=8
note_on channel=0 note=54 velocity=34 time=39
note_on channel=0 note=77 velocity=0 time=7
note_on channel=0 note=50 velocity=0 time=26
note_on channel=0 note=60 velocity=82 time=3
note_on channel=0 note=47 velocity=0 time=12
note_on channel=0 note=55 velocity=39 time=5
note_on channel=0 note=54 velocity=0 time=1
note_on channel=0 note=72 velocity=57 time=45
note_on channel=0 note=55 velocity=0 time=12
note_on channel=0 note=60 velocity=0 time=19
note_on channel=0 note=72 velocity=0 time=34
note_on channel=0 note=73 velocity=47 time=70
note_on channel=0 note=68 velocity=43 time=6
note_on channel=0 note=71 velocity=43 time=27
note_on channel=0 note=72 velocity=36 time=19
note_on channel=0 note=73 velocity=0 time=7
note_on channel=0 note=68 velocity=0 time=13
note_on channel=0 note=69 velocity=48 time=1
note_on channel=0 note=61 velocity=61 time=10
note_on channel=0 note=62 velocity=82 time=6
note_on channel=0 note=52 velocity=65 time=16
note_on channel=0 note=54 velocity=50 time=7
note_on channel=0 note=71 velocity=0 time=2
note_on channel=0 note=61 velocity=0 time=4
note_on channel=0 note=53 velocity=57 time=1
note_on channel=0 note=72 velocity=0 time=7
note_on channel=0 note=69 velocity=0 time=25
note_on channel=0 note=54 velocity=0 time=12
note_on channel=0 note=62 velocity=0 time=0
note_on channel=0 note=52 velocity=0 time=37
note_on channel=0 note=53 velocity=0 time=17
note_on channel=0 note=64 velocity=39 time=19
note_on channel=0 note=74 velocity=52 time=50
note_on channel=0 note=72 velocity=56 time=30
note_on channel=0 note=71 velocity=56 time=57
note_on channel=0 note=64 velocity=0 time=6
note_on channel=0 note=71 velocity=0 time=53
note_on channel=0 note=74 velocity=0 time=1
note_on channel=0 note=76 velocity=46 time=8
note_on channel=0 note=80 velocity=53 time=14
note_on channel=0 note=72 velocity=0 time=22
note_on channel=0 note=81 velocity=56 time=12
note_on channel=0 note=80 velocity=0 time=22
note_on channel=0 note=76 velocity=0 time=1
note_on channel=0 note=89 velocity=47 time=30
note_on channel=0 note=87 velocity=75 time=25
note_on channel=0 note=88 velocity=38 time=101
note_on channel=0 note=81 velocity=0 time=1
note_on channel=0 note=91 velocity=63 time=23
note_on channel=0 note=83 velocity=39 time=26
note_on channel=0 note=88 velocity=0 time=1
note_on channel=0 note=83 velocity=0 time=68
note_on channel=0 note=87 velocity=0 time=1
note_on channel=0 note=91 velocity=0 time=9
note_on channel=0 note=89 velocity=0 time=11
note_on channel=0 note=106 velocity=54 time=70
note_on channel=0 note=92 velocity=66 time=1
note_on channel=0 note=92 velocity=0 time=46
note_on channel=0 note=106 velocity=0 time=120
note_on channel=0 note=53 velocity=82 time=114
note_on channel=0 note=53 velocity=0 time=99
note_on channel=0 note=100 velocity=70 time=97
note_on channel=0 note=100 velocity=0 time=68
note_on channel=0 note=89 velocity=33 time=103
note_on channel=0 note=88 velocity=47 time=2
note_on channel=0 note=74 velocity=50 time=14
note_on channel=0 note=72 velocity=44 time=2
note_on channel=0 note=88 velocity=0 time=43
note_on channel=0 note=89 velocity=0 time=0
note_on channel=0 note=72 velocity=0 time=13
note_on channel=0 note=74 velocity=0 time=8
note_on channel=0 note=81 velocity=58 time=27
note_on channel=0 note=81 velocity=0 time=84
note_on channel=0 note=82 velocity=46 time=18
note_on channel=0 note=70 velocity=39 time=52
note_on channel=0 note=82 velocity=0 time=6
note_on channel=0 note=76 velocity=57 time=9
note_on channel=0 note=76 velocity=0 time=40
note_on channel=0 note=70 velocity=0 time=5
note_on channel=0 note=93 velocity=57 time=96
note_on channel=0 note=93 velocity=0 time=110
note_on channel=0 note=88 velocity=81 time=155
note_on channel=0 note=88 velocity=0 time=129
note_on channel=0 note=79 velocity=57 time=95
note_on channel=0 note=45 velocity=66 time=32
note_on channel=0 note=45 velocity=0 time=79
note_on channel=0 note=81 velocity=50 time=77
note_on channel=0 note=79 velocity=0 time=5
note_on channel=0 note=86 velocity=60 time=149
note_on channel=0 note=81 velocity=0 time=38
note_on channel=0 note=86 velocity=0 time=100
note_on channel=0 note=72 velocity=52 time=4
note_on channel=0 note=74 velocity=58 time=11
note_on channel=0 note=74 velocity=0 time=79
note_on channel=0 note=72 velocity=0 time=12
note_on channel=0 note=55 velocity=46 time=38
note_on channel=0 note=53 velocity=43 time=7
note_on channel=0 note=53 velocity=0 time=65
note_on channel=0 note=55 velocity=0 time=0
note_on channel=0 note=64 velocity=47 time=21
note_on channel=0 note=66 velocity=53 time=97
note_on channel=0 note=64 velocity=0 time=16
note_on channel=0 note=66 velocity=0 time=35
note_on channel=0 note=65 velocity=35 time=8
note_on channel=0 note=60 velocity=58 time=43
note_on channel=0 note=65 velocity=0 time=9
note_on channel=0 note=60 velocity=0 time=27
note_on channel=0 note=65 velocity=45 time=74
note_on channel=0 note=65 velocity=0 time=148
note_on channel=0 note=55 velocity=49 time=1
note_on channel=0 note=57 velocity=39 time=10
note_on channel=0 note=41 velocity=49 time=71
note_on channel=0 note=55 velocity=0 time=47
note_on channel=0 note=57 velocity=0 time=2
note_on channel=0 note=41 velocity=0 time=61
note_on channel=0 note=29 velocity=59 time=1
note_on channel=0 note=29 velocity=0 time=93
note_on channel=0 note=50 velocity=39 time=53
note_on channel=0 note=45 velocity=55 time=73
note_on channel=0 note=47 velocity=56 time=7
note_on channel=0 note=45 velocity=0 time=41
note_on channel=0 note=35 velocity=66 time=1
note_on channel=0 note=47 velocity=0 time=5
note_on channel=0 note=50 velocity=0 time=24
note_on channel=0 note=35 velocity=0 time=87
note_on channel=0 note=26 velocity=90 time=12
note_on channel=0 note=26 velocity=0 time=105
note_on channel=0 note=93 velocity=65 time=269
note_on channel=0 note=91 velocity=29 time=200
note_on channel=0 note=72 velocity=50 time=216
note_on channel=0 note=60 velocity=22 time=4
note_on channel=0 note=62 velocity=32 time=56
note_on channel=0 note=81 velocity=30 time=13
note_on channel=0 note=91 velocity=0 time=52
note_on channel=0 note=72 velocity=0 time=24
note_on channel=0 note=93 velocity=0 time=9
note_on channel=0 note=85 velocity=52 time=86
note_on channel=0 note=81 velocity=0 time=24
note_on channel=0 note=68 velocity=52 time=13
note_on channel=0 note=62 velocity=0 time=7
note_on channel=0 note=60 velocity=0 time=7
note_on channel=0 note=66 velocity=55 time=6
note_on channel=0 note=85 velocity=0 time=42
note_on channel=0 note=68 velocity=0 time=8
note_on channel=0 note=66 velocity=0 time=3
note_on channel=0 note=87 velocity=66 time=48
note_on channel=0 note=87 velocity=0 time=79
note_on channel=0 note=81 velocity=54 time=6
note_on channel=0 note=79 velocity=48 time=27
note_on channel=0 note=76 velocity=61 time=22
note_on channel=0 note=74 velocity=44 time=22
note_on channel=0 note=81 velocity=0 time=3
note_on channel=0 note=79 velocity=0 time=24
note_on channel=0 note=76 velocity=0 time=1
note_on channel=0 note=74 velocity=0 time=37
note_on channel=0 note=76 velocity=52 time=33
note_on channel=0 note=77 velocity=50 time=93
note_on channel=0 note=76 velocity=0 time=23
note_on channel=0 note=77 velocity=0 time=32
note_on channel=0 note=72 velocity=42 time=102
note_on channel=0 note=84 velocity=58 time=25
note_on channel=0 note=72 velocity=0 time=43
note_on channel=0 note=69 velocity=63 time=52
note_on channel=0 note=84 velocity=0 time=4
note_on channel=0 note=59 velocity=56 time=16
note_on channel=0 note=69 velocity=0 time=33
note_on channel=0 note=59 velocity=0 time=41
note_on channel=0 note=84 velocity=56 time=90
note_on channel=0 note=72 velocity=61 time=8
note_on channel=0 note=84 velocity=0 time=66
note_on channel=0 note=72 velocity=0 time=119
note_on channel=0 note=57 velocity=21 time=150
note_on channel=0 note=71 velocity=31 time=16
note_on channel=0 note=61 velocity=57 time=88
note_on channel=0 note=67 velocity=26 time=15
note_on channel=0 note=71 velocity=0 time=19
note_on channel=0 note=67 velocity=0 time=66
note_on channel=0 note=73 velocity=36 time=32
note_on channel=0 note=57 velocity=0 time=11
note_on channel=0 note=61 velocity=0 time=10
note_on channel=0 note=69 velocity=40 time=3
note_on channel=0 note=75 velocity=63 time=9
note_on channel=0 note=69 velocity=0 time=49
note_on channel=0 note=73 velocity=0 time=6
note_on channel=0 note=75 velocity=0 time=13
note_on channel=0 note=61 velocity=48 time=13
note_on channel=0 note=67 velocity=61 time=3
note_on channel=0 note=64 velocity=46 time=25
note_on channel=0 note=57 velocity=36 time=3
note_on channel=0 note=64 velocity=0 time=59
note_on channel=0 note=67 velocity=0 time=0
note_on channel=0 note=57 velocity=0 time=21
note_on channel=0 note=61 velocity=0 time=25
note_on channel=0 note=86 velocity=72 time=16
note_on channel=0 note=74 velocity=53 time=2
note_on channel=0 note=76 velocity=43 time=37
note_on channel=0 note=86 velocity=0 time=22
note_on channel=0 note=67 velocity=57 time=43
note_on channel=0 note=55 velocity=47 time=19
note_on channel=0 note=76 velocity=0 time=7
note_on channel=0 note=57 velocity=38 time=11
note_on channel=0 note=74 velocity=0 time=4
note_on channel=0 note=67 velocity=0 time=51
note_on channel=0 note=55 velocity=0 time=17
note_on channel=0 note=61 velocity=48 time=6
note_on channel=0 note=57 velocity=0 time=19
note_on channel=0 note=61 velocity=0 time=41
note_on channel=0 note=65 velocity=33 time=195
note_on channel=0 note=57 velocity=32 time=13
note_on channel=0 note=61 velocity=52 time=20
note_on channel=0 note=65 velocity=0 time=53
note_on channel=0 note=57 velocity=0 time=24
note_on channel=0 note=61 velocity=0 time=53
note_on channel=0 note=69 velocity=58 time=35
note_on channel=0 note=75 velocity=73 time=13
note_on channel=0 note=69 velocity=0 time=72
note_on channel=0 note=75 velocity=0 time=30
note_on channel=0 note=65 velocity=39 time=4
note_on channel=0 note=53 velocity=57 time=14
note_on channel=0 note=54 velocity=53 time=26
note_on channel=0 note=58 velocity=41 time=12
note_on channel=0 note=54 velocity=0 time=37
note_on channel=0 note=65 velocity=0 time=44
note_on channel=0 note=88 velocity=70 time=38
note_on channel=0 note=53 velocity=0 time=18
note_on channel=0 note=58 velocity=0 time=0
note_on channel=0 note=88 velocity=0 time=75
note_on channel=0 note=62 velocity=60 time=29
note_on channel=0 note=53 velocity=41 time=8
note_on channel=0 note=58 velocity=52 time=173
note_on channel=0 note=58 velocity=0 time=134
note_on channel=0 note=65 velocity=47 time=17
note_on channel=0 note=65 velocity=0 time=66
note_on channel=0 note=58 velocity=44 time=9
note_on channel=0 note=62 velocity=0 time=15
note_on channel=0 note=76 velocity=50 time=9
note_on channel=0 note=89 velocity=70 time=25
note_on channel=0 note=58 velocity=0 time=19
note_on channel=0 note=76 velocity=0 time=7
note_on channel=0 note=89 velocity=0 time=46
note_on channel=0 note=62 velocity=55 time=64
note_on channel=0 note=67 velocity=32 time=2
note_on channel=0 note=69 velocity=39 time=13
note_on channel=0 note=58 velocity=61 time=21
note_on channel=0 note=69 velocity=0 time=40
note_on channel=0 note=67 velocity=0 time=27
note_on channel=0 note=62 velocity=0 time=26
note_on channel=0 note=53 velocity=0 time=3
note_on channel=0 note=58 velocity=0 time=48
note_on channel=0 note=65 velocity=61 time=100
note_on channel=0 note=62 velocity=32 time=52
note_on channel=0 note=65 velocity=0 time=61
note_on channel=0 note=58 velocity=61 time=44
note_on channel=0 note=62 velocity=0 time=17
note_on channel=0 note=58 velocity=0 time=124
note_on channel=0 note=60 velocity=60 time=47
note_on channel=0 note=60 velocity=0 time=108
note_on channel=0 note=54 velocity=38 time=74
note_on channel=0 note=57 velocity=43 time=8
note_on channel=0 note=57 velocity=0 time=81
note_on channel=0 note=57 velocity=66 time=57
note_on channel=0 note=54 velocity=0 time=7
note_on channel=0 note=65 velocity=69 time=31
note_on channel=0 note=77 velocity=60 time=17
note_on channel=0 note=76 velocity=57 time=20
note_on channel=0 note=65 velocity=0 time=23
note_on channel=0 note=77 velocity=0 time=8
note_on channel=0 note=76 velocity=0 time=18
note_on channel=0 note=57 velocity=0 time=10
note_on channel=0 note=70 velocity=85 time=38
note_on channel=0 note=47 velocity=57 time=8
note_on channel=0 note=54 velocity=41 time=8
note_on channel=0 note=64 velocity=55 time=4
note_on channel=0 note=65 velocity=36 time=3
note_on channel=0 note=64 velocity=0 time=46
note_on channel=0 note=55 velocity=37 time=4
note_on channel=0 note=65 velocity=0 time=6
note_on channel=0 note=70 velocity=0 time=2
note_on channel=0 note=67 velocity=57 time=36
note_on channel=0 note=54 velocity=0 time=21
note_on channel=0 note=55 velocity=0 time=5
note_on channel=0 note=57 velocity=52 time=9
note_on channel=0 note=62 velocity=55 time=2
note_on channel=0 note=64 velocity=57 time=5
note_on channel=0 note=67 velocity=0 time=5
note_on channel=0 note=62 velocity=0 time=42
note_on channel=0 note=57 velocity=0 time=34
note_on channel=0 note=68 velocity=82 time=10
note_on channel=0 note=66 velocity=68 time=2
note_on channel=0 note=51 velocity=66 time=23
note_on channel=0 note=66 velocity=0 time=14
note_on channel=0 note=48 velocity=43 time=4
note_on channel=0 note=64 velocity=0 time=19
note_on channel=0 note=68 velocity=0 time=40
note_on channel=0 note=51 velocity=0 time=8
note_on channel=0 note=48 velocity=0 time=25
note_on channel=0 note=47 velocity=0 time=9
note_on channel=0 note=67 velocity=75 time=14
note_on channel=0 note=52 velocity=72 time=8
note_on channel=0 note=69 velocity=61 time=6
note_on channel=0 note=75 velocity=58 time=5
note_on channel=0 note=77 velocity=46 time=20
note_on channel=0 note=69 velocity=0 time=20
note_on channel=0 note=75 velocity=0 time=5
note_on channel=0 note=52 velocity=0 time=170
note_on channel=0 note=38 velocity=73 time=59
note_on channel=0 note=67 velocity=0 time=154
note_on channel=0 note=76 velocity=36 time=0
note_on channel=0 note=50 velocity=69 time=44
note_on channel=0 note=50 velocity=0 time=136
note_on channel=0 note=42 velocity=66 time=9
note_on channel=0 note=42 velocity=0 time=126
note_on channel=0 note=43 velocity=82 time=15
note_on channel=0 note=38 velocity=0 time=23
note_on channel=0 note=76 velocity=0 time=18
note_on channel=0 note=77 velocity=0 time=65
note_on channel=0 note=43 velocity=0 time=7
note_on channel=0 note=39 velocity=78 time=16
note_on channel=0 note=73 velocity=49 time=4
note_on channel=0 note=37 velocity=47 time=34
note_on channel=0 note=37 velocity=0 time=52
note_on channel=0 note=39 velocity=0 time=22
note_on channel=0 note=40 velocity=57 time=45
note_on channel=0 note=73 velocity=0 time=4
note_on channel=0 note=38 velocity=66 time=4
note_on channel=0 note=65 velocity=82 time=7
note_on channel=0 note=67 velocity=66 time=5
note_on channel=0 note=38 velocity=0 time=30
note_on channel=0 note=67 velocity=0 time=40
note_on channel=0 note=28 velocity=86 time=51
note_on channel=0 note=40 velocity=0 time=7
note_on channel=0 note=65 velocity=0 time=78
note_on channel=0 note=38 velocity=76 time=136
note_on channel=0 note=38 velocity=0 time=82
note_on channel=0 note=30 velocity=75 time=81
note_on channel=0 note=81 velocity=84 time=58
note_on channel=0 note=93 velocity=87 time=0
note_on channel=0 note=91 velocity=70 time=16
note_on channel=0 note=28 velocity=0 time=52
note_on channel=0 note=30 velocity=0 time=25
note_on channel=0 note=35 velocity=83 time=54
note_on channel=0 note=91 velocity=0 time=93
note_on channel=0 note=93 velocity=0 time=0
note_on channel=0 note=35 velocity=0 time=39
note_on channel=0 note=81 velocity=0 time=39
note_on channel=0 note=71 velocity=41 time=90
note_on channel=0 note=52 velocity=61 time=23
note_on channel=0 note=53 velocity=57 time=1
note_on channel=0 note=71 velocity=0 time=50
note_on channel=0 note=52 velocity=0 time=80
note_on channel=0 note=64 velocity=46 time=87
note_on channel=0 note=58 velocity=61 time=194
note_on channel=0 note=61 velocity=57 time=1
note_on channel=0 note=64 velocity=0 time=33
note_on channel=0 note=79 velocity=84 time=120
note_on channel=0 note=61 velocity=0 time=1
note_on channel=0 note=67 velocity=84 time=5
note_on channel=0 note=58 velocity=0 time=19
note_on channel=0 note=53 velocity=0 time=32
note_on channel=0 note=55 velocity=72 time=68
note_on channel=0 note=48 velocity=51 time=31
note_on channel=0 note=45 velocity=72 time=5
note_on channel=0 note=55 velocity=0 time=13
note_on channel=0 note=67 velocity=0 time=43
note_on channel=0 note=48 velocity=0 time=4
note_on channel=0 note=79 velocity=0 time=90
note_on channel=0 note=55 velocity=69 time=37
note_on channel=0 note=49 velocity=72 time=113
note_on channel=0 note=55 velocity=0 time=17
note_on channel=0 note=67 velocity=87 time=96
note_on channel=0 note=73 velocity=87 time=1
note_on channel=0 note=53 velocity=79 time=19
note_on channel=0 note=52 velocity=63 time=18
note_on channel=0 note=49 velocity=0 time=8
note_on channel=0 note=67 velocity=0 time=31
note_on channel=0 note=52 velocity=0 time=10
note_on channel=0 note=73 velocity=0 time=1
note_on channel=0 note=53 velocity=0 time=33
note_on channel=0 note=48 velocity=58 time=34
note_on channel=0 note=71 velocity=58 time=29
note_on channel=0 note=79 velocity=51 time=1
note_on channel=0 note=48 velocity=0 time=20
note_on channel=0 note=71 velocity=0 time=25
note_on channel=0 note=45 velocity=0 time=12
note_on channel=0 note=48 velocity=85 time=10
note_on channel=0 note=71 velocity=57 time=17
note_on channel=0 note=72 velocity=45 time=33
note_on channel=0 note=72 velocity=0 time=68
note_on channel=0 note=48 velocity=0 time=14
note_on channel=0 note=76 velocity=60 time=7
note_on channel=0 note=79 velocity=0 time=0
note_on channel=0 note=38 velocity=55 time=3
note_on channel=0 note=40 velocity=51 time=2
note_on channel=0 note=42 velocity=41 time=12
note_on channel=0 note=75 velocity=61 time=3
note_on channel=0 note=71 velocity=0 time=47
note_on channel=0 note=42 velocity=0 time=31
note_on channel=0 note=69 velocity=52 time=23
note_on channel=0 note=50 velocity=61 time=30
note_on channel=0 note=48 velocity=63 time=2
note_on channel=0 note=67 velocity=36 time=30
note_on channel=0 note=69 velocity=0 time=23
note_on channel=0 note=67 velocity=0 time=82
note_on channel=0 note=42 velocity=48 time=30
note_on channel=0 note=46 velocity=57 time=2
note_on channel=0 note=75 velocity=0 time=9
note_on channel=0 note=48 velocity=0 time=5
note_on channel=0 note=50 velocity=0 time=2
note_on channel=0 note=42 velocity=0 time=75
note_on channel=0 note=52 velocity=65 time=97
note_on channel=0 note=38 velocity=0 time=25
note_on channel=0 note=46 velocity=0 time=50
note_on channel=0 note=46 velocity=56 time=96
note_on channel=0 note=52 velocity=0 time=14
note_on channel=0 note=67 velocity=87 time=106
note_on channel=0 note=73 velocity=79 time=0
note_on channel=0 note=76 velocity=0 time=3
note_on channel=0 note=46 velocity=0 time=9
note_on channel=0 note=50 velocity=85 time=14
note_on channel=0 note=40 velocity=0 time=6
note_on channel=0 note=67 velocity=0 time=60
note_on channel=0 note=50 velocity=0 time=49
note_on channel=0 note=42 velocity=45 time=6
note_on channel=0 note=44 velocity=75 time=2
note_on channel=0 note=41 velocity=38 time=25
note_on channel=0 note=73 velocity=0 time=41
note_on channel=0 note=42 velocity=0 time=10
note_on channel=0 note=76 velocity=46 time=2
note_on channel=0 note=41 velocity=0 time=19
note_on channel=0 note=76 velocity=0 time=43
note_on channel=0 note=45 velocity=79 time=1
note_on channel=0 note=44 velocity=0 time=21
note_on channel=0 note=35 velocity=73 time=121
note_on channel=0 note=36 velocity=48 time=2
note_on channel=0 note=45 velocity=0 time=32
note_on channel=0 note=36 velocity=0 time=33
note_on channel=0 note=45 velocity=82 time=118
note_on channel=0 note=72 velocity=51 time=44
note_on channel=0 note=84 velocity=75 time=33
note_on channel=0 note=83 velocity=72 time=5
note_on channel=0 note=45 velocity=0 time=33
note_on channel=0 note=39 velocity=75 time=59
note_on channel=0 note=84 velocity=0 time=73
note_on channel=0 note=83 velocity=0 time=11
note_on channel=0 note=39 velocity=0 time=40
note_on channel=0 note=41 velocity=48 time=11
note_on channel=0 note=72 velocity=0 time=27
note_on channel=0 note=40 velocity=38 time=5
note_on channel=0 note=41 velocity=0 time=25
note_on channel=0 note=40 velocity=0 time=27
note_on channel=0 note=39 velocity=61 time=17
note_on channel=0 note=36 velocity=61 time=131
note_on channel=0 note=35 velocity=0 time=5
note_on channel=0 note=38 velocity=80 time=2
note_on channel=0 note=39 velocity=0 time=9
note_on channel=0 note=38 velocity=0 time=91
note_on channel=0 note=32 velocity=66 time=15
note_on channel=0 note=32 velocity=0 time=102
note_on channel=0 note=75 velocity=73 time=25
note_on channel=0 note=67 velocity=82 time=17
note_on channel=0 note=75 velocity=0 time=92
note_on channel=0 note=30 velocity=82 time=42
note_on channel=0 note=67 velocity=0 time=42
note_on channel=0 note=36 velocity=0 time=6
note_on channel=0 note=31 velocity=59 time=21
note_on channel=0 note=30 velocity=0 time=83
note_on channel=0 note=31 velocity=0 time=21
note_on channel=0 note=35 velocity=86 time=8
note_on channel=0 note=26 velocity=90 time=160
note_on channel=0 note=35 velocity=0 time=1
note_on channel=0 note=58 velocity=82 time=17
note_on channel=0 note=50 velocity=72 time=6
note_on channel=0 note=27 velocity=48 time=1
note_on channel=0 note=52 velocity=72 time=0
note_on channel=0 note=27 velocity=0 time=47
note_on channel=0 note=52 velocity=0 time=51
note_on channel=0 note=50 velocity=0 time=12
note_on channel=0 note=35 velocity=90 time=30
note_on channel=0 note=33 velocity=42 time=34
note_on channel=0 note=26 velocity=0 time=32
note_on channel=0 note=58 velocity=0 time=1
note_on channel=0 note=33 velocity=0 time=28
note_on channel=0 note=35 velocity=0 time=79
note_on channel=0 note=26 velocity=117 time=21
note_on channel=0 note=24 velocity=90 time=10
note_on channel=0 note=25 velocity=50 time=25
note_on channel=0 note=98 velocity=91 time=100
note_on channel=0 note=86 velocity=97 time=6
note_on channel=0 note=88 velocity=91 time=1
note_on channel=0 note=97 velocity=75 time=6
note_on channel=0 note=94 velocity=62 time=17
note_on channel=0 note=96 velocity=63 time=1
note_on channel=0 note=97 velocity=0 time=14
note_on channel=0 note=94 velocity=0 time=23
note_on channel=0 note=96 velocity=0 time=8
note_on channel=0 note=88 velocity=0 time=46
note_on channel=0 note=98 velocity=0 time=1
note_on channel=0 note=25 velocity=0 time=3
note_on channel=0 note=86 velocity=0 time=8
note_on channel=0 note=26 velocity=0 time=16
note_on channel=0 note=24 velocity=0 time=5
note_on channel=0 note=84 velocity=87 time=454
note_on channel=0 note=82 velocity=79 time=4
note_on channel=0 note=53 velocity=82 time=1
note_on channel=0 note=74 velocity=91 time=1
note_on channel=0 note=72 velocity=91 time=3
note_on channel=0 note=78 velocity=79 time=5
note_on channel=0 note=83 velocity=57 time=10
note_on channel=0 note=79 velocity=69 time=6
note_on channel=0 note=58 velocity=49 time=6
note_on channel=0 note=61 velocity=61 time=1
note_on channel=0 note=54 velocity=46 time=13
note_on channel=0 note=61 velocity=0 time=26
note_on channel=0 note=58 velocity=0 time=22
note_on channel=0 note=54 velocity=0 time=19
note_on channel=0 note=61 velocity=49 time=32
note_on channel=0 note=74 velocity=0 time=114
note_on channel=0 note=61 velocity=0 time=19
note_on channel=0 note=72 velocity=0 time=55
note_on channel=0 note=78 velocity=0 time=33
note_on channel=0 note=65 velocity=61 time=57
note_on channel=0 note=84 velocity=0 time=16
note_on channel=0 note=83 velocity=0 time=53
note_on channel=0 note=61 velocity=43 time=2
note_on channel=0 note=82 velocity=0 time=10
note_on channel=0 note=79 velocity=0 time=49
note_on channel=0 note=65 velocity=0 time=11
note_on channel=0 note=58 velocity=57 time=43
note_on channel=0 note=78 velocity=63 time=38
note_on channel=0 note=72 velocity=56 time=9
note_on channel=0 note=61 velocity=0 time=32
note_on channel=0 note=72 velocity=0 time=55
note_on channel=0 note=58 velocity=0 time=3
note_on channel=0 note=62 velocity=58 time=5
note_on channel=0 note=78 velocity=0 time=39
note_on channel=0 note=72 velocity=66 time=65
note_on channel=0 note=62 velocity=0 time=5
note_on channel=0 note=80 velocity=70 time=1
note_on channel=0 note=58 velocity=57 time=5
note_on channel=0 note=80 velocity=0 time=83
note_on channel=0 note=72 velocity=0 time=12
note_on channel=0 note=58 velocity=0 time=26
note_on channel=0 note=60 velocity=75 time=15
note_on channel=0 note=58 velocity=61 time=105
note_on channel=0 note=60 velocity=0 time=12
note_on channel=0 note=65 velocity=60 time=55
note_on channel=0 note=77 velocity=49 time=26
note_on channel=0 note=76 velocity=61 time=10
note_on channel=0 note=53 velocity=0 time=12
note_on channel=0 note=58 velocity=0 time=6
note_on channel=0 note=57 velocity=69 time=37
note_on channel=0 note=65 velocity=0 time=41
note_on channel=0 note=76 velocity=0 time=58
note_on channel=0 note=47 velocity=56 time=4
note_on channel=0 note=57 velocity=0 time=8
note_on channel=0 note=77 velocity=0 time=16
note_on channel=0 note=51 velocity=56 time=13
note_on channel=0 note=74 velocity=82 time=57
note_on channel=0 note=80 velocity=49 time=18
note_on channel=0 note=84 velocity=50 time=6
note_on channel=0 note=51 velocity=0 time=4
note_on channel=0 note=57 velocity=61 time=30
note_on channel=0 note=83 velocity=46 time=7
note_on channel=0 note=77 velocity=35 time=71
note_on channel=0 note=83 velocity=0 time=7
note_on channel=0 note=84 velocity=0 time=22
note_on channel=0 note=74 velocity=0 time=3
note_on channel=0 note=77 velocity=0 time=31
note_on channel=0 note=54 velocity=64 time=6
note_on channel=0 note=80 velocity=0 time=22
note_on channel=0 note=51 velocity=56 time=3
note_on channel=0 note=57 velocity=0 time=15
note_on channel=0 note=54 velocity=0 time=100
note_on channel=0 note=51 velocity=0 time=71
note_on channel=0 note=53 velocity=57 time=7
note_on channel=0 note=53 velocity=0 time=71
note_on channel=0 note=51 velocity=61 time=58
note_on channel=0 note=47 velocity=0 time=104
note_on channel=0 note=51 velocity=0 time=3
note_on channel=0 note=73 velocity=87 time=398
note_on channel=0 note=36 velocity=83 time=2
note_on channel=0 note=70 velocity=97 time=1
note_on channel=0 note=65 velocity=91 time=1
note_on channel=0 note=65 velocity=0 time=93
note_on channel=0 note=70 velocity=0 time=23
note_on channel=0 note=73 velocity=0 time=9
note_on channel=0 note=36 velocity=0 time=459
note_on channel=0 note=23 velocity=95 time=21
note_on channel=0 note=24 velocity=80 time=2
note_on channel=0 note=24 velocity=0 time=36
note_on channel=0 note=24 velocity=39 time=44
note_on channel=0 note=23 velocity=0 time=98
note_on channel=0 note=86 velocity=97 time=45
note_on channel=0 note=94 velocity=87 time=7
note_on channel=0 note=35 velocity=95 time=8
note_on channel=0 note=92 velocity=81 time=0
note_on channel=0 note=98 velocity=63 time=2
note_on channel=0 note=96 velocity=61 time=7
note_on channel=0 note=24 velocity=0 time=81
note_on channel=0 note=98 velocity=0 time=60
note_on channel=0 note=96 velocity=0 time=17
note_on channel=0 note=94 velocity=0 time=64
note_on channel=0 note=92 velocity=0 time=6
note_on channel=0 note=86 velocity=0 time=16
note_on channel=0 note=35 velocity=0 time=9
note_on channel=0 note=51 velocity=38 time=257
note_on channel=0 note=47 velocity=53 time=78
note_on channel=0 note=75 velocity=70 time=12
note_on channel=0 note=65 velocity=53 time=17
note_on channel=0 note=51 velocity=0 time=11
note_on channel=0 note=65 velocity=0 time=51
note_on channel=0 note=65 velocity=34 time=144
note_on channel=0 note=59 velocity=44 time=28
note_on channel=0 note=60 velocity=38 time=8
note_on channel=0 note=65 velocity=0 time=8
note_on channel=0 note=60 velocity=0 time=51
note_on channel=0 note=59 velocity=0 time=58
note_on channel=0 note=54 velocity=55 time=6
note_on channel=0 note=68 velocity=37 time=41
note_on channel=0 note=70 velocity=46 time=2
note_on channel=0 note=70 velocity=0 time=50
note_on channel=0 note=68 velocity=0 time=11
note_on channel=0 note=65 velocity=50 time=64
note_on channel=0 note=54 velocity=0 time=7
note_on channel=0 note=70 velocity=35 time=34
note_on channel=0 note=57 velocity=44 time=2
note_on channel=0 note=65 velocity=0 time=48
note_on channel=0 note=75 velocity=0 time=2
note_on channel=0 note=70 velocity=0 time=12
note_on channel=0 note=57 velocity=0 time=35
note_on channel=0 note=54 velocity=47 time=47
note_on channel=0 note=51 velocity=35 time=87
note_on channel=0 note=54 velocity=0 time=33
note_on channel=0 note=51 velocity=0 time=27
note_on channel=0 note=59 velocity=52 time=5
note_on channel=0 note=59 velocity=0 time=135
note_on channel=0 note=54 velocity=56 time=1
note_on channel=0 note=70 velocity=29 time=27
note_on channel=0 note=47 velocity=0 time=18
note_on channel=0 note=51 velocity=43 time=4
note_on channel=0 note=73 velocity=40 time=58
note_on channel=0 note=70 velocity=0 time=3
note_on channel=0 note=54 velocity=0 time=61
note_on channel=0 note=63 velocity=53 time=31
note_on channel=0 note=51 velocity=0 time=11
note_on channel=0 note=63 velocity=0 time=40
note_on channel=0 note=59 velocity=39 time=9
note_on channel=0 note=73 velocity=0 time=29
note_on channel=0 note=51 velocity=46 time=52
note_on channel=0 note=54 velocity=44 time=10
note_on channel=0 note=59 velocity=0 time=15
note_on channel=0 note=47 velocity=50 time=20
note_on channel=0 note=54 velocity=0 time=27
note_on channel=0 note=51 velocity=0 time=53
note_on channel=0 note=59 velocity=51 time=61
note_on channel=0 note=59 velocity=0 time=88
note_on channel=0 note=64 velocity=23 time=27
note_on channel=0 note=51 velocity=38 time=18
note_on channel=0 note=70 velocity=53 time=2
note_on channel=0 note=68 velocity=48 time=6
note_on channel=0 note=47 velocity=0 time=32
note_on channel=0 note=64 velocity=0 time=8
note_on channel=0 note=54 velocity=56 time=13
note_on channel=0 note=68 velocity=0 time=2
note_on channel=0 note=70 velocity=0 time=16
note_on channel=0 note=51 velocity=0 time=65
note_on channel=0 note=59 velocity=65 time=19
note_on channel=0 note=54 velocity=0 time=20
note_on channel=0 note=51 velocity=52 time=48
note_on channel=0 note=77 velocity=60 time=7
note_on channel=0 note=59 velocity=0 time=41
note_on channel=0 note=47 velocity=55 time=6
note_on channel=0 note=77 velocity=0 time=1
note_on channel=0 note=54 velocity=57 time=59
note_on channel=0 note=51 velocity=0 time=69
note_on channel=0 note=59 velocity=61 time=12
note_on channel=0 note=93 velocity=91 time=9
note_on channel=0 note=90 velocity=84 time=2
note_on channel=0 note=81 velocity=87 time=2
note_on channel=0 note=83 velocity=82 time=9
note_on channel=0 note=90 velocity=0 time=12
note_on channel=0 note=93 velocity=0 time=0
note_on channel=0 note=54 velocity=0 time=2
note_on channel=0 note=87 velocity=42 time=5
note_on channel=0 note=81 velocity=0 time=2
note_on channel=0 note=59 velocity=0 time=6
note_on channel=0 note=83 velocity=0 time=2
note_on channel=0 note=87 velocity=0 time=45
note_on channel=0 note=51 velocity=59 time=15
note_on channel=0 note=76 velocity=87 time=19
note_on channel=0 note=85 velocity=70 time=7
note_on channel=0 note=78 velocity=82 time=3
note_on channel=0 note=80 velocity=68 time=7
note_on channel=0 note=54 velocity=50 time=18
note_on channel=0 note=78 velocity=0 time=4
note_on channel=0 note=85 velocity=0 time=0
note_on channel=0 note=76 velocity=0 time=5
note_on channel=0 note=80 velocity=0 time=9
note_on channel=0 note=47 velocity=0 time=31
note_on channel=0 note=80 velocity=73 time=25
note_on channel=0 note=51 velocity=0 time=8
note_on channel=0 note=57 velocity=65 time=1
note_on channel=0 note=77 velocity=69 time=11
note_on channel=0 note=54 velocity=0 time=29
note_on channel=0 note=77 velocity=0 time=8
note_on channel=0 note=47 velocity=55 time=9
note_on channel=0 note=80 velocity=0 time=18
note_on channel=0 note=51 velocity=57 time=1
note_on channel=0 note=57 velocity=0 time=19
note_on channel=0 note=93 velocity=70 time=29
note_on channel=0 note=90 velocity=60 time=2
note_on channel=0 note=83 velocity=63 time=8
note_on channel=0 note=48 velocity=33 time=2
note_on channel=0 note=89 velocity=58 time=8
note_on channel=0 note=84 velocity=52 time=5
note_on channel=0 note=86 velocity=41 time=11
note_on channel=0 note=93 velocity=0 time=1
note_on channel=0 note=90 velocity=0 time=12
note_on channel=0 note=83 velocity=0 time=4
note_on channel=0 note=89 velocity=0 time=10
note_on channel=0 note=48 velocity=0 time=12
note_on channel=0 note=84 velocity=0 time=6
note_on channel=0 note=86 velocity=0 time=10
note_on channel=0 note=54 velocity=57 time=15
note_on channel=0 note=51 velocity=0 time=11
note_on channel=0 note=90 velocity=66 time=12
note_on channel=0 note=81 velocity=91 time=2
note_on channel=0 note=91 velocity=77 time=1
note_on channel=0 note=89 velocity=55 time=3
note_on channel=0 note=82 velocity=85 time=2
note_on channel=0 note=83 velocity=65 time=2
note_on channel=0 note=86 velocity=75 time=1
note_on channel=0 note=84 velocity=57 time=6
note_on channel=0 note=85 velocity=45 time=12
note_on channel=0 note=90 velocity=0 time=0
note_on channel=0 note=91 velocity=0 time=3
note_on channel=0 note=82 velocity=0 time=1
note_on channel=0 note=81 velocity=0 time=3
note_on channel=0 note=83 velocity=0 time=6
note_on channel=0 note=86 velocity=0 time=3
note_on channel=0 note=55 velocity=45 time=5
note_on channel=0 note=89 velocity=0 time=0
note_on channel=0 note=84 velocity=0 time=12
note_on channel=0 note=54 velocity=0 time=5
note_on channel=0 note=85 velocity=0 time=24
note_on channel=0 note=55 velocity=0 time=25
note_on channel=0 note=51 velocity=57 time=1
note_on channel=0 note=48 velocity=31 time=4
note_on channel=0 note=72 velocity=75 time=36
note_on channel=0 note=76 velocity=69 time=0
note_on channel=0 note=74 velocity=57 time=13
note_on channel=0 note=75 velocity=41 time=9
note_on channel=0 note=79 velocity=44 time=4
note_on channel=0 note=72 velocity=0 time=7
note_on channel=0 note=48 velocity=0 time=6
note_on channel=0 note=76 velocity=0 time=6
note_on channel=0 note=74 velocity=0 time=17
note_on channel=0 note=47 velocity=0 time=3
note_on channel=0 note=54 velocity=64 time=2
note_on channel=0 note=75 velocity=0 time=7
note_on channel=0 note=79 velocity=0 time=18
note_on channel=0 note=51 velocity=0 time=38
note_on channel=0 note=73 velocity=91 time=32
note_on channel=0 note=69 velocity=84 time=1
note_on channel=0 note=75 velocity=75 time=2
note_on channel=0 note=71 velocity=69 time=18
note_on channel=0 note=73 velocity=0 time=2
note_on channel=0 note=69 velocity=0 time=22
note_on channel=0 note=71 velocity=0 time=11
note_on channel=0 note=75 velocity=0 time=35
note_on channel=0 note=54 velocity=0 time=31
note_on channel=0 note=51 velocity=66 time=65
note_on channel=0 note=88 velocity=104 time=2
note_on channel=0 note=47 velocity=31 time=6
note_on channel=0 note=54 velocity=59 time=0
note_on channel=0 note=76 velocity=84 time=1
note_on channel=0 note=77 velocity=82 time=4
note_on channel=0 note=60 velocity=72 time=5
note_on channel=0 note=86 velocity=69 time=2
note_on channel=0 note=81 velocity=60 time=4
note_on channel=0 note=84 velocity=52 time=8
note_on channel=0 note=48 velocity=45 time=7
note_on channel=0 note=82 velocity=44 time=6
note_on channel=0 note=83 velocity=50 time=8
note_on channel=0 note=86 velocity=0 time=62
note_on channel=0 note=77 velocity=0 time=1
note_on channel=0 note=82 velocity=0 time=4
note_on channel=0 note=76 velocity=0 time=17
note_on channel=0 note=88 velocity=0 time=3
note_on channel=0 note=48 velocity=0 time=5
note_on channel=0 note=60 velocity=0 time=19
note_on channel=0 note=47 velocity=0 time=23
note_on channel=0 note=83 velocity=0 time=6
note_on channel=0 note=84 velocity=0 time=1
note_on channel=0 note=81 velocity=0 time=12
note_on channel=0 note=51 velocity=0 time=80
note_on channel=0 note=47 velocity=33 time=23
note_on channel=0 note=54 velocity=0 time=10
note_on channel=0 note=57 velocity=48 time=39
note_on channel=0 note=57 velocity=0 time=63
note_on channel=0 note=47 velocity=0 time=33
note_on channel=0 note=51 velocity=56 time=6
note_on channel=0 note=54 velocity=46 time=118
note_on channel=0 note=51 velocity=0 time=19
note_on channel=0 note=57 velocity=50 time=47
note_on channel=0 note=54 velocity=0 time=3
note_on channel=0 note=57 velocity=0 time=60
note_on channel=0 note=60 velocity=56 time=16
note_on channel=0 note=66 velocity=61 time=1
note_on channel=0 note=47 velocity=35 time=30
note_on channel=0 note=63 velocity=51 time=4
note_on channel=0 note=60 velocity=0 time=37
note_on channel=0 note=63 velocity=0 time=16
note_on channel=0 note=66 velocity=0 time=37
note_on channel=0 note=51 velocity=56 time=5
note_on channel=0 note=47 velocity=0 time=4
note_on channel=0 note=57 velocity=52 time=32
note_on channel=0 note=51 velocity=0 time=11
note_on channel=0 note=54 velocity=55 time=113
note_on channel=0 note=57 velocity=0 time=1
note_on channel=0 note=58 velocity=53 time=30
note_on channel=0 note=58 velocity=0 time=50
note_on channel=0 note=54 velocity=0 time=49
note_on channel=0 note=51 velocity=55 time=12
note_on channel=0 note=48 velocity=33 time=19
note_on channel=0 note=48 velocity=0 time=67
note_on channel=0 note=54 velocity=52 time=16
note_on channel=0 note=51 velocity=0 time=4
note_on channel=0 note=59 velocity=58 time=36
note_on channel=0 note=66 velocity=52 time=16
note_on channel=0 note=54 velocity=0 time=62
note_on channel=0 note=66 velocity=0 time=9
note_on channel=0 note=59 velocity=0 time=14
note_on channel=0 note=56 velocity=53 time=74
note_on channel=0 note=66 velocity=57 time=2
note_on channel=0 note=59 velocity=57 time=22
note_on channel=0 note=68 velocity=68 time=3
note_on channel=0 note=57 velocity=57 time=12
note_on channel=0 note=56 velocity=0 time=5
note_on channel=0 note=66 velocity=0 time=21
note_on channel=0 note=57 velocity=0 time=25
note_on channel=0 note=59 velocity=0 time=6
note_on channel=0 note=68 velocity=0 time=71
note_on channel=0 note=51 velocity=45 time=39
note_on channel=0 note=57 velocity=46 time=23
note_on channel=0 note=51 velocity=0 time=30
note_on channel=0 note=47 velocity=34 time=84
note_on channel=0 note=57 velocity=0 time=29
note_on channel=0 note=51 velocity=57 time=14
note_on channel=0 note=47 velocity=0 time=32
note_on channel=0 note=54 velocity=40 time=25
note_on channel=0 note=63 velocity=36 time=63
note_on channel=0 note=51 velocity=0 time=23
note_on channel=0 note=54 velocity=0 time=21
note_on channel=0 note=63 velocity=0 time=33
note_on channel=0 note=55 velocity=58 time=6
note_on channel=0 note=47 velocity=39 time=55
note_on channel=0 note=55 velocity=0 time=49
note_on channel=0 note=66 velocity=41 time=31
note_on channel=0 note=57 velocity=35 time=40
note_on channel=0 note=51 velocity=52 time=68
note_on channel=0 note=47 velocity=0 time=27
note_on channel=0 note=57 velocity=0 time=9
note_on channel=0 note=63 velocity=46 time=8
note_on channel=0 note=66 velocity=0 time=47
note_on channel=0 note=51 velocity=0 time=1
note_on channel=0 note=66 velocity=35 time=107
note_on channel=0 note=57 velocity=34 time=43
note_on channel=0 note=63 velocity=0 time=26
note_on channel=0 note=66 velocity=0 time=3
note_on channel=0 note=57 velocity=0 time=52
note_on channel=0 note=51 velocity=59 time=2
note_on channel=0 note=61 velocity=47 time=135
note_on channel=0 note=52 velocity=58 time=58
note_on channel=0 note=61 velocity=0 time=4
note_on channel=0 note=51 velocity=0 time=37
note_on channel=0 note=47 velocity=63 time=78
note_on channel=0 note=52 velocity=0 time=1
note_on channel=0 note=63 velocity=41 time=61
note_on channel=0 note=64 velocity=34 time=30
note_on channel=0 note=63 velocity=0 time=34
note_on channel=0 note=64 velocity=0 time=14
note_on channel=0 note=70 velocity=87 time=49
note_on channel=0 note=57 velocity=60 time=1
note_on channel=0 note=71 velocity=82 time=5
note_on channel=0 note=60 velocity=52 time=17
note_on channel=0 note=71 velocity=0 time=12
note_on channel=0 note=62 velocity=47 time=2
note_on channel=0 note=70 velocity=0 time=2
note_on channel=0 note=57 velocity=0 time=8
note_on channel=0 note=60 velocity=0 time=31
note_on channel=0 note=48 velocity=43 time=29
note_on channel=0 note=62 velocity=0 time=0
note_on channel=0 note=57 velocity=63 time=8
note_on channel=0 note=68 velocity=85 time=3
note_on channel=0 note=54 velocity=64 time=10
note_on channel=0 note=59 velocity=85 time=3
note_on channel=0 note=66 velocity=70 time=4
note_on channel=0 note=68 velocity=0 time=6
note_on channel=0 note=63 velocity=57 time=11
note_on channel=0 note=59 velocity=0 time=7
note_on channel=0 note=54 velocity=0 time=6
note_on channel=0 note=51 velocity=62 time=13
note_on channel=0 note=66 velocity=0 time=3
note_on channel=0 note=57 velocity=0 time=3
note_on channel=0 note=63 velocity=0 time=8
note_on channel=0 note=55 velocity=65 time=53
note_on channel=0 note=63 velocity=57 time=7
note_on channel=0 note=57 velocity=45 time=5
note_on channel=0 note=47 velocity=0 time=10
note_on channel=0 note=59 velocity=31 time=2
note_on channel=0 note=60 velocity=42 time=2
note_on channel=0 note=48 velocity=0 time=18
note_on channel=0 note=55 velocity=0 time=1
note_on channel=0 note=63 velocity=0 time=9
note_on channel=0 note=59 velocity=0 time=26
note_on channel=0 note=57 velocity=0 time=6
note_on channel=0 note=53 velocity=79 time=3
note_on channel=0 note=60 velocity=0 time=0
note_on channel=0 note=51 velocity=0 time=22
note_on channel=0 note=59 velocity=57 time=32
note_on channel=0 note=66 velocity=44 time=11
note_on channel=0 note=59 velocity=0 time=43
note_on channel=0 note=53 velocity=0 time=4
note_on channel=0 note=66 velocity=0 time=14
note_on channel=0 note=52 velocity=79 time=74
note_on channel=0 note=50 velocity=55 time=27
note_on channel=0 note=50 velocity=0 time=54
note_on channel=0 note=59 velocity=57 time=86
note_on channel=0 note=52 velocity=0 time=50
note_on channel=0 note=61 velocity=39 time=5
note_on channel=0 note=69 velocity=46 time=14
note_on channel=0 note=61 velocity=0 time=54
note_on channel=0 note=52 velocity=27 time=3
note_on channel=0 note=59 velocity=0 time=4
note_on channel=0 note=58 velocity=59 time=11
note_on channel=0 note=69 velocity=0 time=4
note_on channel=0 note=58 velocity=0 time=45
note_on channel=0 note=60 velocity=66 time=32
note_on channel=0 note=69 velocity=46 time=7
note_on channel=0 note=52 velocity=0 time=16
note_on channel=0 note=69 velocity=0 time=55
note_on channel=0 note=61 velocity=52 time=3
note_on channel=0 note=64 velocity=52 time=31
note_on channel=0 note=61 velocity=0 time=13
note_on channel=0 note=60 velocity=0 time=3
note_on channel=0 note=69 velocity=69 time=15
note_on channel=0 note=67 velocity=33 time=10
note_on channel=0 note=63 velocity=51 time=1
note_on channel=0 note=64 velocity=0 time=7
note_on channel=0 note=62 velocity=31 time=9
note_on channel=0 note=69 velocity=0 time=12
note_on channel=0 note=59 velocity=61 time=3
note_on channel=0 note=63 velocity=0 time=16
note_on channel=0 note=67 velocity=0 time=17
note_on channel=0 note=62 velocity=0 time=22
note_on channel=0 note=57 velocity=34 time=4
note_on channel=0 note=59 velocity=0 time=38
note_on channel=0 note=65 velocity=46 time=10
note_on channel=0 note=64 velocity=57 time=19
note_on channel=0 note=67 velocity=61 time=2
note_on channel=0 note=62 velocity=52 time=42
note_on channel=0 note=59 velocity=43 time=1
note_on channel=0 note=67 velocity=0 time=4
note_on channel=0 note=69 velocity=42 time=28
note_on channel=0 note=57 velocity=0 time=13
note_on channel=0 note=64 velocity=0 time=5
note_on channel=0 note=62 velocity=0 time=11
note_on channel=0 note=59 velocity=0 time=1
note_on channel=0 note=65 velocity=0 time=13
note_on channel=0 note=67 velocity=69 time=44
note_on channel=0 note=69 velocity=0 time=8
note_on channel=0 note=73 velocity=60 time=4
note_on channel=0 note=70 velocity=51 time=27
note_on channel=0 note=67 velocity=0 time=116
note_on channel=0 note=76 velocity=48 time=3
note_on channel=0 note=70 velocity=0 time=7
note_on channel=0 note=74 velocity=42 time=7
note_on channel=0 note=75 velocity=49 time=19
note_on channel=0 note=73 velocity=0 time=12
note_on channel=0 note=77 velocity=41 time=13
note_on channel=0 note=79 velocity=56 time=2
note_on channel=0 note=75 velocity=0 time=15
note_on channel=0 note=76 velocity=0 time=13
note_on channel=0 note=79 velocity=0 time=20
note_on channel=0 note=77 velocity=0 time=24
note_on channel=0 note=80 velocity=47 time=20
note_on channel=0 note=75 velocity=49 time=23
note_on channel=0 note=83 velocity=57 time=23
note_on channel=0 note=74 velocity=0 time=18
note_on channel=0 note=86 velocity=72 time=52
note_on channel=0 note=84 velocity=25 time=22
note_on channel=0 note=74 velocity=56 time=4
note_on channel=0 note=86 velocity=0 time=16
note_on channel=0 note=85 velocity=82 time=22
note_on channel=0 note=75 velocity=0 time=7
note_on channel=0 note=84 velocity=0 time=0
note_on channel=0 note=97 velocity=75 time=4
note_on channel=0 note=83 velocity=0 time=2
note_on channel=0 note=74 velocity=0 time=6
note_on channel=0 note=94 velocity=49 time=8
note_on channel=0 note=80 velocity=0 time=7
note_on channel=0 note=92 velocity=39 time=6
note_on channel=0 note=85 velocity=0 time=7
note_on channel=0 note=97 velocity=0 time=4
note_on channel=0 note=94 velocity=0 time=29
note_on channel=0 note=92 velocity=0 time=9
note_on channel=0 note=80 velocity=73 time=12
note_on channel=0 note=78 velocity=79 time=17
note_on channel=0 note=81 velocity=58 time=10
note_on channel=0 note=79 velocity=65 time=2
note_on channel=0 note=75 velocity=45 time=13
note_on channel=0 note=80 velocity=0 time=22
note_on channel=0 note=79 velocity=0 time=6
note_on channel=0 note=81 velocity=0 time=1
note_on channel=0 note=87 velocity=56 time=13
note_on channel=0 note=75 velocity=0 time=25
note_on channel=0 note=87 velocity=0 time=23
note_on channel=0 note=78 velocity=0 time=1
note_on channel=0 note=77 velocity=48 time=6
note_on channel=0 note=86 velocity=72 time=69
note_on channel=0 note=84 velocity=57 time=1
note_on channel=0 note=77 velocity=0 time=9
note_on channel=0 note=78 velocity=45 time=3
note_on channel=0 note=83 velocity=46 time=8
note_on channel=0 note=86 velocity=0 time=17
note_on channel=0 note=76 velocity=63 time=21
note_on channel=0 note=78 velocity=0 time=5
note_on channel=0 note=81 velocity=31 time=1
note_on channel=0 note=80 velocity=61 time=5
note_on channel=0 note=77 velocity=43 time=25
note_on channel=0 note=83 velocity=0 time=15
note_on channel=0 note=80 velocity=0 time=6
note_on channel=0 note=84 velocity=0 time=6
note_on channel=0 note=76 velocity=0 time=1
note_on channel=0 note=88 velocity=67 time=2
note_on channel=0 note=81 velocity=0 time=4
note_on channel=0 note=94 velocity=75 time=1
note_on channel=0 note=96 velocity=74 time=0
note_on channel=0 note=86 velocity=56 time=5
note_on channel=0 note=95 velocity=74 time=2
note_on channel=0 note=92 velocity=62 time=3
note_on channel=0 note=88 velocity=0 time=24
note_on channel=0 note=77 velocity=0 time=2
note_on channel=0 note=94 velocity=0 time=4
note_on channel=0 note=92 velocity=0 time=6
note_on channel=0 note=86 velocity=0 time=11
note_on channel=0 note=95 velocity=0 time=4
note_on channel=0 note=96 velocity=0 time=44
note_on channel=0 note=86 velocity=72 time=6
note_on channel=0 note=88 velocity=59 time=7
note_on channel=0 note=85 velocity=70 time=5
note_on channel=0 note=80 velocity=64 time=17
note_on channel=0 note=86 velocity=0 time=17
note_on channel=0 note=92 velocity=57 time=10
note_on channel=0 note=102 velocity=59 time=20
note_on channel=0 note=88 velocity=0 time=3
note_on channel=0 note=80 velocity=0 time=4
note_on channel=0 note=99 velocity=56 time=0
note_on channel=0 note=103 velocity=61 time=9
note_on channel=0 note=85 velocity=0 time=17
note_on channel=0 note=99 velocity=0 time=20
note_on channel=0 note=92 velocity=0 time=12
note_on channel=0 note=89 velocity=67 time=30
note_on channel=0 note=90 velocity=75 time=6
note_on channel=0 note=102 velocity=0 time=1
note_on channel=0 note=87 velocity=55 time=2
note_on channel=0 note=103 velocity=0 time=9
note_on channel=0 note=88 velocity=48 time=12
note_on channel=0 note=87 velocity=0 time=24
note_on channel=0 note=88 velocity=0 time=20
note_on channel=0 note=96 velocity=84 time=3
note_on channel=0 note=102 velocity=55 time=2
note_on channel=0 note=89 velocity=0 time=5
note_on channel=0 note=104 velocity=54 time=2
note_on channel=0 note=90 velocity=0 time=2
note_on channel=0 note=103 velocity=57 time=5
note_on channel=0 note=105 velocity=67 time=6
note_on channel=0 note=104 velocity=0 time=33
note_on channel=0 note=102 velocity=0 time=2
note_on channel=0 note=83 velocity=66 time=24
note_on channel=0 note=90 velocity=66 time=2
note_on channel=0 note=93 velocity=67 time=4
note_on channel=0 note=103 velocity=0 time=1
note_on channel=0 note=91 velocity=87 time=4
note_on channel=0 note=84 velocity=52 time=4
note_on channel=0 note=96 velocity=0 time=5
note_on channel=0 note=83 velocity=0 time=20
note_on channel=0 note=105 velocity=0 time=3
note_on channel=0 note=93 velocity=0 time=9
note_on channel=0 note=90 velocity=0 time=9
note_on channel=0 note=84 velocity=0 time=10
note_on channel=0 note=91 velocity=0 time=32
note_on channel=0 note=101 velocity=61 time=7
note_on channel=0 note=105 velocity=56 time=1
note_on channel=0 note=103 velocity=48 time=11
note_on channel=0 note=96 velocity=59 time=10
note_on channel=0 note=105 velocity=0 time=36
note_on channel=0 note=103 velocity=0 time=14
note_on channel=0 note=101 velocity=0 time=3
note_on channel=0 note=73 velocity=60 time=99
note_on channel=0 note=96 velocity=0 time=3
note_on channel=0 note=77 velocity=52 time=4
note_on channel=0 note=69 velocity=47 time=30
note_on channel=0 note=67 velocity=43 time=3
note_on channel=0 note=73 velocity=0 time=33
note_on channel=0 note=77 velocity=0 time=4
note_on channel=0 note=69 velocity=0 time=21
note_on channel=0 note=67 velocity=0 time=12
note_on channel=0 note=86 velocity=72 time=11
note_on channel=0 note=98 velocity=65 time=3
note_on channel=0 note=96 velocity=47 time=30
note_on channel=0 note=73 velocity=79 time=55
note_on channel=0 note=75 velocity=73 time=2
note_on channel=0 note=98 velocity=0 time=13
note_on channel=0 note=77 velocity=54 time=2
note_on channel=0 note=96 velocity=0 time=1
note_on channel=0 note=86 velocity=0 time=7
note_on channel=0 note=75 velocity=0 time=20
note_on channel=0 note=77 velocity=0 time=28
note_on channel=0 note=73 velocity=0 time=12
note_on channel=0 note=86 velocity=78 time=49
note_on channel=0 note=84 velocity=78 time=4
note_on channel=0 note=92 velocity=47 time=2
note_on channel=0 note=91 velocity=58 time=6
note_on channel=0 note=90 velocity=52 time=8
note_on channel=0 note=88 velocity=45 time=9
note_on channel=0 note=91 velocity=0 time=27
note_on channel=0 note=92 velocity=0 time=8
note_on channel=0 note=86 velocity=0 time=6
note_on channel=0 note=88 velocity=0 time=24
note_on channel=0 note=84 velocity=0 time=40
note_on channel=0 note=90 velocity=0 time=5
note_on channel=0 note=76 velocity=72 time=20
note_on channel=0 note=69 velocity=63 time=1
note_on channel=0 note=73 velocity=58 time=7
note_on channel=0 note=70 velocity=52 time=2
note_on channel=0 note=69 velocity=0 time=39
note_on channel=0 note=70 velocity=0 time=3
note_on channel=0 note=73 velocity=0 time=0
note_on channel=0 note=76 velocity=0 time=11
note_on channel=0 note=81 velocity=47 time=141
note_on channel=0 note=81 velocity=0 time=69
note_on channel=0 note=77 velocity=39 time=67
note_on channel=0 note=78 velocity=43 time=0
note_on channel=0 note=77 velocity=0 time=62
note_on channel=0 note=78 velocity=0 time=16
note_on channel=0 note=94 velocity=56 time=49
note_on channel=0 note=82 velocity=61 time=14
note_on channel=0 note=94 velocity=0 time=32
note_on channel=0 note=82 velocity=0 time=18
note_on channel=0 note=79 velocity=53 time=41
note_on channel=0 note=73 velocity=36 time=16
note_on channel=0 note=75 velocity=47 time=5
note_on channel=0 note=78 velocity=58 time=55
note_on channel=0 note=79 velocity=0 time=0
note_on channel=0 note=73 velocity=0 time=10
note_on channel=0 note=78 velocity=0 time=54
note_on channel=0 note=83 velocity=58 time=16
note_on channel=0 note=75 velocity=0 time=1
note_on channel=0 note=85 velocity=63 time=79
note_on channel=0 note=87 velocity=57 time=34
note_on channel=0 note=83 velocity=0 time=1
note_on channel=0 note=85 velocity=0 time=93
note_on channel=0 note=77 velocity=41 time=2
note_on channel=0 note=90 velocity=52 time=40
note_on channel=0 note=74 velocity=65 time=8
note_on channel=0 note=77 velocity=0 time=57
note_on channel=0 note=74 velocity=0 time=3
note_on channel=0 note=87 velocity=0 time=0
note_on channel=0 note=90 velocity=0 time=81
note_on channel=0 note=75 velocity=60 time=38
note_on channel=0 note=75 velocity=0 time=52
note_on channel=0 note=70 velocity=61 time=12
note_on channel=0 note=74 velocity=44 time=21
note_on channel=0 note=66 velocity=42 time=6
note_on channel=0 note=72 velocity=37 time=14
note_on channel=0 note=66 velocity=0 time=45
note_on channel=0 note=72 velocity=0 time=6
note_on channel=0 note=74 velocity=0 time=1
note_on channel=0 note=70 velocity=0 time=16
note_on channel=0 note=76 velocity=61 time=13
note_on channel=0 note=76 velocity=0 time=121
note_on channel=0 note=82 velocity=32 time=12
note_on channel=0 note=88 velocity=70 time=19
note_on channel=0 note=82 velocity=0 time=45
note_on channel=0 note=88 velocity=0 time=64
note_on channel=0 note=76 velocity=39 time=37
note_on channel=0 note=77 velocity=43 time=6
note_on channel=0 note=68 velocity=48 time=51
note_on channel=0 note=64 velocity=45 time=2
note_on channel=0 note=77 velocity=0 time=11
note_on channel=0 note=76 velocity=0 time=1
note_on channel=0 note=89 velocity=53 time=22
note_on channel=0 note=68 velocity=0 time=5
note_on channel=0 note=69 velocity=58 time=8
note_on channel=0 note=72 velocity=49 time=1
note_on channel=0 note=71 velocity=45 time=11
note_on channel=0 note=88 velocity=42 time=14
note_on channel=0 note=71 velocity=0 time=41
note_on channel=0 note=88 velocity=0 time=24
note_on channel=0 note=72 velocity=0 time=10
note_on channel=0 note=89 velocity=0 time=41
note_on channel=0 note=69 velocity=0 time=13
note_on channel=0 note=79 velocity=65 time=11
note_on channel=0 note=64 velocity=0 time=5
note_on channel=0 note=79 velocity=0 time=53
note_on channel=0 note=72 velocity=52 time=70
note_on channel=0 note=69 velocity=54 time=3
note_on channel=0 note=64 velocity=36 time=16
note_on channel=0 note=64 velocity=0 time=73
note_on channel=0 note=72 velocity=0 time=7
note_on channel=0 note=69 velocity=0 time=9
note_on channel=0 note=84 velocity=57 time=26
note_on channel=0 note=96 velocity=65 time=10
note_on channel=0 note=84 velocity=0 time=38
note_on channel=0 note=95 velocity=37 time=12
note_on channel=0 note=77 velocity=63 time=21
note_on channel=0 note=70 velocity=51 time=7
note_on channel=0 note=69 velocity=48 time=1
note_on channel=0 note=73 velocity=39 time=15
note_on channel=0 note=95 velocity=0 time=2
note_on channel=0 note=96 velocity=0 time=4
note_on channel=0 note=84 velocity=56 time=19
note_on channel=0 note=70 velocity=0 time=13
note_on channel=0 note=73 velocity=0 time=14
note_on channel=0 note=77 velocity=0 time=15
note_on channel=0 note=84 velocity=0 time=50
note_on channel=0 note=69 velocity=0 time=12
note_on channel=0 note=79 velocity=56 time=17
note_on channel=0 note=70 velocity=46 time=53
note_on channel=0 note=79 velocity=0 time=29
note_on channel=0 note=70 velocity=0 time=24
note_on channel=0 note=79 velocity=51 time=89
note_on channel=0 note=91 velocity=49 time=54
note_on channel=0 note=79 velocity=0 time=3
note_on channel=0 note=65 velocity=31 time=118
note_on channel=0 note=72 velocity=61 time=14
note_on channel=0 note=81 velocity=63 time=5
note_on channel=0 note=69 velocity=49 time=1
note_on channel=0 note=91 velocity=0 time=81
note_on channel=0 note=69 velocity=0 time=66
note_on channel=0 note=81 velocity=0 time=8
note_on channel=0 note=65 velocity=0 time=2
note_on channel=0 note=72 velocity=0 time=14
note_on channel=0 note=77 velocity=49 time=44
note_on channel=0 note=77 velocity=0 time=68
note_on channel=0 note=95 velocity=61 time=204
note_on channel=0 note=77 velocity=52 time=12
note_on channel=0 note=84 velocity=53 time=0
note_on channel=0 note=71 velocity=53 time=4
note_on channel=0 note=74 velocity=61 time=3
note_on channel=0 note=76 velocity=54 time=9
note_on channel=0 note=95 velocity=0 time=34
note_on channel=0 note=84 velocity=0 time=34
note_on channel=0 note=76 velocity=0 time=3
note_on channel=0 note=77 velocity=0 time=15
note_on channel=0 note=74 velocity=0 time=20
note_on channel=0 note=71 velocity=0 time=34
note_on channel=0 note=81 velocity=37 time=91
note_on channel=0 note=83 velocity=56 time=59
note_on channel=0 note=81 velocity=0 time=20
note_on channel=0 note=83 velocity=0 time=43
note_on channel=0 note=88 velocity=54 time=71
note_on channel=0 note=61 velocity=64 time=200
note_on channel=0 note=88 velocity=0 time=3
note_on channel=0 note=76 velocity=63 time=3
note_on channel=0 note=70 velocity=64 time=38
note_on channel=0 note=63 velocity=35 time=28
note_on channel=0 note=70 velocity=0 time=21
note_on channel=0 note=76 velocity=0 time=5
note_on channel=0 note=63 velocity=0 time=23
note_on channel=0 note=61 velocity=0 time=46
note_on channel=0 note=75 velocity=56 time=65
note_on channel=0 note=74 velocity=35 time=4
note_on channel=0 note=74 velocity=0 time=64
note_on channel=0 note=75 velocity=0 time=44
note_on channel=0 note=78 velocity=33 time=48
note_on channel=0 note=66 velocity=21 time=24
note_on channel=0 note=62 velocity=57 time=10
note_on channel=0 note=71 velocity=65 time=3
note_on channel=0 note=63 velocity=52 time=17
note_on channel=0 note=69 velocity=41 time=18
note_on channel=0 note=70 velocity=39 time=15
note_on channel=0 note=71 velocity=0 time=4
note_on channel=0 note=63 velocity=0 time=6
note_on channel=0 note=80 velocity=48 time=36
note_on channel=0 note=69 velocity=0 time=3
note_on channel=0 note=62 velocity=0 time=4
note_on channel=0 note=70 velocity=0 time=5
note_on channel=0 note=66 velocity=0 time=2
note_on channel=0 note=78 velocity=0 time=27
note_on channel=0 note=80 velocity=0 time=16
note_on channel=0 note=69 velocity=47 time=62
note_on channel=0 note=70 velocity=60 time=66
note_on channel=0 note=70 velocity=0 time=49
note_on channel=0 note=72 velocity=43 time=90
note_on channel=0 note=55 velocity=43 time=98
note_on channel=0 note=59 velocity=55 time=4
note_on channel=0 note=62 velocity=53 time=1
note_on channel=0 note=77 velocity=57 time=8
note_on channel=0 note=65 velocity=54 time=2
note_on channel=0 note=72 velocity=0 time=18
note_on channel=0 note=69 velocity=0 time=13
note_on channel=0 note=59 velocity=0 time=87
note_on channel=0 note=65 velocity=0 time=3
note_on channel=0 note=62 velocity=0 time=1
note_on channel=0 note=55 velocity=0 time=5
note_on channel=0 note=73 velocity=60 time=65
note_on channel=0 note=77 velocity=0 time=9
note_on channel=0 note=70 velocity=31 time=84
note_on channel=0 note=70 velocity=0 time=41
note_on channel=0 note=65 velocity=54 time=25
note_on channel=0 note=73 velocity=0 time=1
note_on channel=0 note=67 velocity=53 time=9
note_on channel=0 note=61 velocity=59 time=6
note_on channel=0 note=56 velocity=55 time=14
note_on channel=0 note=58 velocity=62 time=5
note_on channel=0 note=67 velocity=0 time=28
note_on channel=0 note=61 velocity=0 time=15
note_on channel=0 note=65 velocity=0 time=32
note_on channel=0 note=56 velocity=0 time=6
note_on channel=0 note=58 velocity=0 time=21
note_on channel=0 note=66 velocity=51 time=25
note_on channel=0 note=64 velocity=44 time=9
note_on channel=0 note=64 velocity=0 time=60
note_on channel=0 note=68 velocity=51 time=50
note_on channel=0 note=68 velocity=0 time=60
note_on channel=0 note=66 velocity=0 time=27
note_on channel=0 note=49 velocity=62 time=11
note_on channel=0 note=61 velocity=57 time=33
note_on channel=0 note=72 velocity=48 time=37
note_on channel=0 note=61 velocity=0 time=10
note_on channel=0 note=72 velocity=0 time=47
note_on channel=0 note=49 velocity=0 time=17
note_on channel=0 note=61 velocity=38 time=29
note_on channel=0 note=61 velocity=0 time=48
note_on channel=0 note=65 velocity=44 time=49
note_on channel=0 note=48 velocity=47 time=38
note_on channel=0 note=52 velocity=51 time=8
note_on channel=0 note=55 velocity=57 time=0
note_on channel=0 note=59 velocity=48 time=8
note_on channel=0 note=50 velocity=43 time=26
note_on channel=0 note=72 velocity=60 time=72
note_on channel=0 note=59 velocity=0 time=3
note_on channel=0 note=65 velocity=0 time=20
note_on channel=0 note=48 velocity=0 time=8
note_on channel=0 note=50 velocity=0 time=0
note_on channel=0 note=55 velocity=0 time=22
note_on channel=0 note=52 velocity=0 time=15
note_on channel=0 note=72 velocity=0 time=50
note_on channel=0 note=70 velocity=56 time=31
note_on channel=0 note=68 velocity=48 time=43
note_on channel=0 note=49 velocity=55 time=45
note_on channel=0 note=68 velocity=0 time=11
note_on channel=0 note=58 velocity=50 time=24
note_on channel=0 note=63 velocity=52 time=20
note_on channel=0 note=58 velocity=0 time=34
note_on channel=0 note=63 velocity=0 time=18
note_on channel=0 note=70 velocity=0 time=0
note_on channel=0 note=49 velocity=0 time=19
note_on channel=0 note=69 velocity=58 time=98
note_on channel=0 note=71 velocity=48 time=82
note_on channel=0 note=51 velocity=39 time=19
note_on channel=0 note=47 velocity=50 time=22
note_on channel=0 note=54 velocity=45 time=0
note_on channel=0 note=57 velocity=44 time=21
note_on channel=0 note=76 velocity=58 time=38
note_on channel=0 note=57 velocity=0 time=34
note_on channel=0 note=71 velocity=0 time=5
note_on channel=0 note=69 velocity=0 time=18
note_on channel=0 note=54 velocity=0 time=12
note_on channel=0 note=51 velocity=0 time=12
note_on channel=0 note=47 velocity=0 time=32
note_on channel=0 note=76 velocity=0 time=13
note_on channel=0 note=64 velocity=58 time=23
note_on channel=0 note=64 velocity=0 time=93
note_on channel=0 note=59 velocity=57 time=25
note_on channel=0 note=59 velocity=0 time=77
note_on channel=0 note=39 velocity=59 time=35
note_on channel=0 note=61 velocity=48 time=24
note_on channel=0 note=51 velocity=69 time=6
note_on channel=0 note=51 velocity=0 time=67
note_on channel=0 note=61 velocity=0 time=6
note_on channel=0 note=39 velocity=0 time=9
note_on channel=0 note=44 velocity=42 time=198
note_on channel=0 note=40 velocity=52 time=10
note_on channel=0 note=44 velocity=0 time=48
note_on channel=0 note=46 velocity=59 time=42
note_on channel=0 note=50 velocity=44 time=60
note_on channel=0 note=44 velocity=52 time=84
note_on channel=0 note=50 velocity=0 time=15
note_on channel=0 note=40 velocity=0 time=7
note_on channel=0 note=52 velocity=48 time=14
note_on channel=0 note=46 velocity=0 time=29
note_on channel=0 note=44 velocity=0 time=6
note_on channel=0 note=54 velocity=49 time=41
note_on channel=0 note=52 velocity=0 time=64
note_on channel=0 note=51 velocity=50 time=23
note_on channel=0 note=54 velocity=0 time=34
note_on channel=0 note=49 velocity=36 time=9
note_on channel=0 note=51 velocity=0 time=2
note_on channel=0 note=56 velocity=53 time=21
note_on channel=0 note=49 velocity=0 time=24
note_on channel=0 note=52 velocity=46 time=3
note_on channel=0 note=50 velocity=50 time=25
note_on channel=0 note=53 velocity=43 time=96
note_on channel=0 note=56 velocity=0 time=10
note_on channel=0 note=52 velocity=0 time=61
note_on channel=0 note=56 velocity=44 time=14
note_on channel=0 note=52 velocity=55 time=32
note_on channel=0 note=54 velocity=57 time=29
note_on channel=0 note=56 velocity=0 time=3
note_on channel=0 note=55 velocity=60 time=3
note_on channel=0 note=59 velocity=29 time=7
note_on channel=0 note=52 velocity=0 time=2
note_on channel=0 note=57 velocity=50 time=2
note_on channel=0 note=50 velocity=0 time=7
note_on channel=0 note=54 velocity=0 time=27
note_on channel=0 note=53 velocity=0 time=11
note_on channel=0 note=59 velocity=0 time=14
note_on channel=0 note=57 velocity=0 time=43
note_on channel=0 note=63 velocity=55 time=72
note_on channel=0 note=60 velocity=40 time=45
note_on channel=0 note=65 velocity=45 time=18
note_on channel=0 note=64 velocity=41 time=32
note_on channel=0 note=60 velocity=0 time=20
note_on channel=0 note=55 velocity=0 time=7
note_on channel=0 note=65 velocity=0 time=21
note_on channel=0 note=63 velocity=0 time=45
note_on channel=0 note=66 velocity=55 time=72
note_on channel=0 note=70 velocity=58 time=129
note_on channel=0 note=70 velocity=0 time=108
note_on channel=0 note=66 velocity=0 time=7
note_on channel=0 note=64 velocity=0 time=2
note_on channel=0 note=69 velocity=49 time=3
note_on channel=0 note=67 velocity=57 time=1
note_on channel=0 note=71 velocity=48 time=51
note_on channel=0 note=68 velocity=63 time=16
note_on channel=0 note=67 velocity=0 time=1
note_on channel=0 note=71 velocity=0 time=52
note_on channel=0 note=69 velocity=0 time=9
note_on channel=0 note=74 velocity=53 time=14
note_on channel=0 note=77 velocity=49 time=12
note_on channel=0 note=76 velocity=56 time=7
note_on channel=0 note=68 velocity=0 time=20
note_on channel=0 note=79 velocity=65 time=81
note_on channel=0 note=71 velocity=42 time=8
note_on channel=0 note=69 velocity=30 time=2
note_on channel=0 note=79 velocity=0 time=27
note_on channel=0 note=74 velocity=0 time=14
note_on channel=0 note=76 velocity=0 time=31
note_on channel=0 note=77 velocity=0 time=0
note_on channel=0 note=71 velocity=0 time=7
note_on channel=0 note=75 velocity=64 time=26
note_on channel=0 note=69 velocity=0 time=29
note_on channel=0 note=75 velocity=0 time=76
note_on channel=0 note=85 velocity=61 time=6
note_on channel=0 note=73 velocity=52 time=19
note_on channel=0 note=85 velocity=0 time=26
note_on channel=0 note=73 velocity=0 time=22
note_on channel=0 note=74 velocity=51 time=2
note_on channel=0 note=74 velocity=0 time=67
note_on channel=0 note=76 velocity=39 time=17
note_on channel=0 note=73 velocity=60 time=58
note_on channel=0 note=76 velocity=0 time=2
note_on channel=0 note=73 velocity=0 time=56
note_on channel=0 note=76 velocity=51 time=31
note_on channel=0 note=78 velocity=61 time=69
note_on channel=0 note=76 velocity=0 time=32
note_on channel=0 note=78 velocity=0 time=13
note_on channel=0 note=77 velocity=41 time=3
note_on channel=0 note=82 velocity=58 time=4
note_on channel=0 note=77 velocity=0 time=57
note_on channel=0 note=82 velocity=0 time=7
note_on channel=0 note=75 velocity=63 time=4
note_on channel=0 note=75 velocity=0 time=74
note_on channel=0 note=77 velocity=43 time=2
note_on channel=0 note=78 velocity=53 time=4
note_on channel=0 note=76 velocity=53 time=4
note_on channel=0 note=74 velocity=60 time=7
note_on channel=0 note=72 velocity=39 time=18
note_on channel=0 note=78 velocity=0 time=15
note_on channel=0 note=74 velocity=0 time=9
note_on channel=0 note=76 velocity=0 time=0
note_on channel=0 note=77 velocity=0 time=12
note_on channel=0 note=71 velocity=22 time=63
note_on channel=0 note=70 velocity=55 time=39
note_on channel=0 note=72 velocity=0 time=24
note_on channel=0 note=70 velocity=0 time=20
note_on channel=0 note=73 velocity=51 time=4
note_on channel=0 note=71 velocity=0 time=25
note_on channel=0 note=65 velocity=53 time=66
note_on channel=0 note=64 velocity=57 time=3
note_on channel=0 note=73 velocity=0 time=32
note_on channel=0 note=65 velocity=0 time=15
note_on channel=0 note=64 velocity=0 time=73
note_on channel=0 note=54 velocity=48 time=11
note_on channel=0 note=57 velocity=38 time=8
note_on channel=0 note=52 velocity=45 time=7
note_on channel=0 note=53 velocity=49 time=17
note_on channel=0 note=54 velocity=0 time=23
note_on channel=0 note=65 velocity=66 time=39
note_on channel=0 note=53 velocity=0 time=8
note_on channel=0 note=57 velocity=0 time=7
note_on channel=0 note=52 velocity=0 time=4
note_on channel=0 note=75 velocity=75 time=16
note_on channel=0 note=65 velocity=0 time=4
note_on channel=0 note=75 velocity=0 time=29
note_on channel=0 note=73 velocity=70 time=216
note_on channel=0 note=72 velocity=58 time=21
note_on channel=0 note=73 velocity=0 time=15
note_on channel=0 note=71 velocity=43 time=19
note_on channel=0 note=72 velocity=0 time=14
note_on channel=0 note=75 velocity=66 time=14
note_on channel=0 note=71 velocity=0 time=33
note_on channel=0 note=75 velocity=0 time=33
note_on channel=0 note=76 velocity=57 time=6
note_on channel=0 note=76 velocity=0 time=44
note_on channel=0 note=69 velocity=65 time=4
note_on channel=0 note=62 velocity=65 time=90
note_on channel=0 note=69 velocity=0 time=20
note_on channel=0 note=52 velocity=60 time=4
note_on channel=0 note=62 velocity=0 time=9
note_on channel=0 note=52 velocity=0 time=106
note_on channel=0 note=79 velocity=72 time=68
note_on channel=0 note=79 velocity=0 time=102
note_on channel=0 note=60 velocity=66 time=146
note_on channel=0 note=62 velocity=57 time=15
note_on channel=0 note=64 velocity=61 time=13
note_on channel=0 note=64 velocity=0 time=40
note_on channel=0 note=62 velocity=0 time=4
note_on channel=0 note=60 velocity=0 time=24
note_on channel=0 note=62 velocity=58 time=111
note_on channel=0 note=63 velocity=64 time=38
note_on channel=0 note=62 velocity=0 time=39
note_on channel=0 note=63 velocity=0 time=58
note_on channel=0 note=26 velocity=80 time=89
note_on channel=0 note=28 velocity=61 time=9
note_on channel=0 note=28 velocity=0 time=38
note_on channel=0 note=26 velocity=0 time=65
note_on channel=0 note=79 velocity=66 time=56
note_on channel=0 note=77 velocity=49 time=11
note_on channel=0 note=77 velocity=0 time=54
note_on channel=0 note=57 velocity=75 time=201
note_on channel=0 note=79 velocity=0 time=50
note_on channel=0 note=57 velocity=0 time=76
note_on channel=0 note=65 velocity=61 time=5
note_on channel=0 note=62 velocity=66 time=110
note_on channel=0 note=63 velocity=48 time=43
note_on channel=0 note=65 velocity=0 time=10
note_on channel=0 note=62 velocity=0 time=3
note_on channel=0 note=63 velocity=0 time=51
note_on channel=0 note=60 velocity=63 time=20
note_on channel=0 note=53 velocity=43 time=39
note_on channel=0 note=60 velocity=0 time=84
note_on channel=0 note=56 velocity=66 time=27
note_on channel=0 note=53 velocity=0 time=9
note_on channel=0 note=56 velocity=0 time=83
note_on channel=0 note=59 velocity=58 time=35
note_on channel=0 note=61 velocity=55 time=130
note_on channel=0 note=63 velocity=59 time=28
note_on channel=0 note=59 velocity=0 time=6
note_on channel=0 note=41 velocity=61 time=10
note_on channel=0 note=61 velocity=0 time=44
note_on channel=0 note=63 velocity=0 time=100
note_on channel=0 note=41 velocity=0 time=19
note_on channel=0 note=28 velocity=80 time=34
note_on channel=0 note=29 velocity=48 time=19
note_on channel=0 note=29 velocity=0 time=50
note_on channel=0 note=28 velocity=0 time=154
note_on channel=0 note=73 velocity=75 time=41
note_on channel=0 note=74 velocity=39 time=57
note_on channel=0 note=74 velocity=0 time=204
note_on channel=0 note=60 velocity=85 time=38
note_on channel=0 note=60 velocity=0 time=179
note_on channel=0 note=65 velocity=75 time=53
note_on channel=0 note=73 velocity=0 time=172
note_on channel=0 note=65 velocity=0 time=38
note_on channel=0 note=38 velocity=90 time=43
note_on channel=0 note=72 velocity=61 time=172
note_on channel=0 note=50 velocity=66 time=11
note_on channel=0 note=71 velocity=57 time=13
note_on channel=0 note=38 velocity=0 time=92
note_on channel=0 note=50 velocity=0 time=5
note_on channel=0 note=72 velocity=0 time=2
note_on channel=0 note=38 velocity=39 time=20
note_on channel=0 note=71 velocity=0 time=3
note_on channel=0 note=40 velocity=49 time=24
note_on channel=0 note=46 velocity=61 time=13
note_on channel=0 note=44 velocity=49 time=2
note_on channel=0 note=40 velocity=0 time=42
note_on channel=0 note=44 velocity=0 time=11
note_on channel=0 note=70 velocity=53 time=29
note_on channel=0 note=62 velocity=60 time=25
note_on channel=0 note=70 velocity=0 time=44
note_on channel=0 note=48 velocity=38 time=7
note_on channel=0 note=46 velocity=0 time=20
note_on channel=0 note=62 velocity=0 time=28
note_on channel=0 note=48 velocity=0 time=5
note_on channel=0 note=42 velocity=45 time=68
note_on channel=0 note=41 velocity=39 time=25
note_on channel=0 note=42 velocity=0 time=28
note_on channel=0 note=61 velocity=45 time=13
note_on channel=0 note=60 velocity=60 time=21
note_on channel=0 note=41 velocity=0 time=12
note_on channel=0 note=60 velocity=0 time=27
note_on channel=0 note=59 velocity=55 time=2
note_on channel=0 note=61 velocity=0 time=0
note_on channel=0 note=56 velocity=56 time=25
note_on channel=0 note=38 velocity=0 time=10
note_on channel=0 note=59 velocity=0 time=18
note_on channel=0 note=40 velocity=56 time=2
note_on channel=0 note=54 velocity=56 time=10
note_on channel=0 note=56 velocity=0 time=0
note_on channel=0 note=47 velocity=57 time=28
note_on channel=0 note=54 velocity=0 time=11
note_on channel=0 note=49 velocity=37 time=28
note_on channel=0 note=40 velocity=0 time=40
note_on channel=0 note=49 velocity=0 time=23
note_on channel=0 note=30 velocity=43 time=10
note_on channel=0 note=34 velocity=38 time=11
note_on channel=0 note=51 velocity=72 time=1
note_on channel=0 note=29 velocity=42 time=17
note_on channel=0 note=47 velocity=0 time=8
note_on channel=0 note=26 velocity=56 time=3
note_on channel=0 note=28 velocity=48 time=6
note_on channel=0 note=34 velocity=0 time=18
note_on channel=0 note=30 velocity=0 time=6
note_on channel=0 note=52 velocity=47 time=7
note_on channel=0 note=50 velocity=53 time=24
note_on channel=0 note=29 velocity=0 time=20
note_on channel=0 note=28 velocity=0 time=5
note_on channel=0 note=51 velocity=0 time=2
note_on channel=0 note=36 velocity=76 time=14
note_on channel=0 note=35 velocity=66 time=5
note_on channel=0 note=50 velocity=0 time=8
note_on channel=0 note=26 velocity=0 time=4
note_on channel=0 note=52 velocity=0 time=17
note_on channel=0 note=35 velocity=0 time=8
note_on channel=0 note=36 velocity=0 time=54
note_on channel=0 note=24 velocity=104 time=14
note_on channel=0 note=23 velocity=66 time=21
note_on channel=0 note=23 velocity=0 time=39
note_on channel=0 note=24 velocity=0 time=43
note_on channel=0 note=85 velocity=79 time=154
note_on channel=0 note=73 velocity=70 time=22
note_on channel=0 note=59 velocity=49 time=249
note_on channel=0 note=57 velocity=53 time=2
note_on channel=0 note=69 velocity=65 time=28
note_on channel=0 note=67 velocity=75 time=12
note_on channel=0 note=73 velocity=0 time=24
note_on channel=0 note=57 velocity=0 time=59
note_on channel=0 note=69 velocity=0 time=20
note_on channel=0 note=67 velocity=0 time=33
note_on channel=0 note=85 velocity=0 time=0
note_on channel=0 note=74 velocity=82 time=123
note_on channel=0 note=82 velocity=75 time=9
note_on channel=0 note=66 velocity=82 time=56
note_on channel=0 note=61 velocity=64 time=14
note_on channel=0 note=74 velocity=0 time=80
note_on channel=0 note=85 velocity=79 time=139
note_on channel=0 note=74 velocity=66 time=2
note_on channel=0 note=72 velocity=84 time=2
note_on channel=0 note=71 velocity=75 time=2
note_on channel=0 note=73 velocity=42 time=20
note_on channel=0 note=82 velocity=0 time=12
note_on channel=0 note=66 velocity=0 time=20
note_on channel=0 note=73 velocity=0 time=27
note_on channel=0 note=74 velocity=0 time=23
note_on channel=0 note=85 velocity=0 time=41
note_on channel=0 note=66 velocity=60 time=47
note_on channel=0 note=72 velocity=0 time=10
note_on channel=0 note=61 velocity=0 time=11
note_on channel=0 note=71 velocity=0 time=10
note_on channel=0 note=72 velocity=46 time=14
note_on channel=0 note=72 velocity=0 time=61
note_on channel=0 note=61 velocity=57 time=32
note_on channel=0 note=66 velocity=0 time=36
note_on channel=0 note=70 velocity=63 time=55
note_on channel=0 note=59 velocity=0 time=15
note_on channel=0 note=61 velocity=0 time=14
note_on channel=0 note=65 velocity=51 time=12
note_on channel=0 note=71 velocity=51 time=0
note_on channel=0 note=60 velocity=85 time=16
note_on channel=0 note=64 velocity=58 time=24
note_on channel=0 note=71 velocity=0 time=9
note_on channel=0 note=70 velocity=0 time=11
note_on channel=0 note=62 velocity=57 time=22
note_on channel=0 note=64 velocity=0 time=3
note_on channel=0 note=65 velocity=0 time=10
note_on channel=0 note=56 velocity=75 time=32
note_on channel=0 note=52 velocity=58 time=12
note_on channel=0 note=62 velocity=0 time=7
note_on channel=0 note=53 velocity=58 time=14
note_on channel=0 note=60 velocity=0 time=0
note_on channel=0 note=53 velocity=0 time=44
note_on channel=0 note=52 velocity=0 time=6
note_on channel=0 note=56 velocity=0 time=2
note_on channel=0 note=61 velocity=64 time=13
note_on channel=0 note=52 velocity=60 time=78
note_on channel=0 note=61 velocity=0 time=20
note_on channel=0 note=52 velocity=0 time=36
note_on channel=0 note=46 velocity=57 time=11
note_on channel=0 note=56 velocity=40 time=1
note_on channel=0 note=53 velocity=56 time=1
note_on channel=0 note=42 velocity=68 time=2
note_on channel=0 note=46 velocity=0 time=44
note_on channel=0 note=56 velocity=0 time=9
note_on channel=0 note=42 velocity=0 time=31
note_on channel=0 note=53 velocity=0 time=17
note_on channel=0 note=51 velocity=57 time=38
note_on channel=0 note=40 velocity=64 time=19
note_on channel=0 note=52 velocity=43 time=4
note_on channel=0 note=51 velocity=0 time=15
note_on channel=0 note=49 velocity=61 time=3
note_on channel=0 note=50 velocity=58 time=0
note_on channel=0 note=49 velocity=0 time=33
note_on channel=0 note=50 velocity=0 time=10
note_on channel=0 note=28 velocity=59 time=5
note_on channel=0 note=52 velocity=0 time=2
note_on channel=0 note=40 velocity=0 time=13
note_on channel=0 note=44 velocity=72 time=3
note_on channel=0 note=29 velocity=49 time=18
note_on channel=0 note=38 velocity=57 time=36
note_on channel=0 note=42 velocity=71 time=1
note_on channel=0 note=29 velocity=0 time=18
note_on channel=0 note=44 velocity=0 time=4
note_on channel=0 note=42 velocity=0 time=8
note_on channel=0 note=37 velocity=56 time=8
note_on channel=0 note=36 velocity=39 time=19
note_on channel=0 note=33 velocity=90 time=12
note_on channel=0 note=28 velocity=0 time=5
note_on channel=0 note=42 velocity=38 time=29
note_on channel=0 note=38 velocity=0 time=12
note_on channel=0 note=36 velocity=0 time=3
note_on channel=0 note=37 velocity=0 time=18
note_on channel=0 note=42 velocity=0 time=17
note_on channel=0 note=33 velocity=0 time=24
note_on channel=0 note=23 velocity=127 time=19
note_on channel=0 note=21 velocity=86 time=12
note_on channel=0 note=21 velocity=0 time=77
note_on channel=0 note=23 velocity=0 time=13
note_on channel=0 note=73 velocity=82 time=198
note_on channel=0 note=87 velocity=41 time=3
note_on channel=0 note=85 velocity=75 time=13
note_on channel=0 note=87 velocity=0 time=147
note_on channel=0 note=59 velocity=47 time=102
note_on channel=0 note=60 velocity=75 time=17
note_on channel=0 note=71 velocity=65 time=0
note_on channel=0 note=69 velocity=78 time=3
note_on channel=0 note=62 velocity=55 time=17
note_on channel=0 note=63 velocity=66 time=5
note_on channel=0 note=66 velocity=64 time=2
note_on channel=0 note=85 velocity=0 time=27
note_on channel=0 note=73 velocity=0 time=12
note_on channel=0 note=62 velocity=0 time=9
note_on channel=0 note=59 velocity=0 time=14
note_on channel=0 note=69 velocity=0 time=113
note_on channel=0 note=71 velocity=0 time=13
note_on channel=0 note=74 velocity=82 time=66
note_on channel=0 note=80 velocity=75 time=3
note_on channel=0 note=78 velocity=73 time=14
note_on channel=0 note=71 velocity=78 time=12
note_on channel=0 note=60 velocity=0 time=94
note_on channel=0 note=64 velocity=58 time=8
note_on channel=0 note=63 velocity=0 time=1
note_on channel=0 note=71 velocity=0 time=4
note_on channel=0 note=74 velocity=0 time=2
note_on channel=0 note=64 velocity=0 time=36
note_on channel=0 note=80 velocity=0 time=35
note_on channel=0 note=78 velocity=0 time=11
note_on channel=0 note=66 velocity=0 time=16
note_on channel=0 note=76 velocity=78 time=70
note_on channel=0 note=87 velocity=57 time=5
note_on channel=0 note=88 velocity=84 time=0
note_on channel=0 note=61 velocity=66 time=3
note_on channel=0 note=77 velocity=78 time=7
note_on channel=0 note=72 velocity=91 time=1
note_on channel=0 note=66 velocity=60 time=3
note_on channel=0 note=86 velocity=51 time=6
note_on channel=0 note=62 velocity=75 time=2
note_on channel=0 note=68 velocity=64 time=5
note_on channel=0 note=63 velocity=62 time=3
note_on channel=0 note=87 velocity=0 time=8
note_on channel=0 note=61 velocity=0 time=2
note_on channel=0 note=88 velocity=0 time=4
note_on channel=0 note=77 velocity=0 time=6
note_on channel=0 note=68 velocity=0 time=14
note_on channel=0 note=86 velocity=0 time=19
note_on channel=0 note=66 velocity=0 time=66
note_on channel=0 note=68 velocity=37 time=0
note_on channel=0 note=76 velocity=0 time=45
note_on channel=0 note=68 velocity=0 time=17
note_on channel=0 note=72 velocity=0 time=0
note_on channel=0 note=74 velocity=44 time=30
note_on channel=0 note=66 velocity=68 time=39
note_on channel=0 note=69 velocity=63 time=33
note_on channel=0 note=74 velocity=0 time=2
note_on channel=0 note=78 velocity=63 time=28
note_on channel=0 note=76 velocity=51 time=10
note_on channel=0 note=66 velocity=0 time=32
note_on channel=0 note=71 velocity=56 time=26
note_on channel=0 note=63 velocity=0 time=2
note_on channel=0 note=69 velocity=0 time=3
note_on channel=0 note=62 velocity=0 time=7
note_on channel=0 note=78 velocity=0 time=15
note_on channel=0 note=73 velocity=68 time=14
note_on channel=0 note=65 velocity=54 time=20
note_on channel=0 note=70 velocity=70 time=0
note_on channel=0 note=60 velocity=32 time=2
note_on channel=0 note=64 velocity=65 time=8
note_on channel=0 note=76 velocity=0 time=8
note_on channel=0 note=73 velocity=0 time=16
note_on channel=0 note=60 velocity=0 time=7
note_on channel=0 note=64 velocity=0 time=10
note_on channel=0 note=71 velocity=0 time=5
note_on channel=0 note=65 velocity=0 time=16
note_on channel=0 note=70 velocity=0 time=13
note_on channel=0 note=68 velocity=70 time=62
note_on channel=0 note=57 velocity=69 time=12
note_on channel=0 note=59 velocity=63 time=1
note_on channel=0 note=69 velocity=57 time=21
note_on channel=0 note=71 velocity=40 time=3
note_on channel=0 note=51 velocity=62 time=18
note_on channel=0 note=59 velocity=0 time=2
note_on channel=0 note=68 velocity=0 time=16
note_on channel=0 note=69 velocity=0 time=9
note_on channel=0 note=57 velocity=0 time=5
note_on channel=0 note=71 velocity=0 time=8
note_on channel=0 note=48 velocity=40 time=17
note_on channel=0 note=63 velocity=59 time=14
note_on channel=0 note=51 velocity=0 time=28
note_on channel=0 note=63 velocity=0 time=12
note_on channel=0 note=48 velocity=0 time=1
note_on channel=0 note=59 velocity=58 time=2
note_on channel=0 note=60 velocity=43 time=11
note_on channel=0 note=58 velocity=42 time=9
note_on channel=0 note=50 velocity=82 time=25
note_on channel=0 note=48 velocity=65 time=18
note_on channel=0 note=60 velocity=0 time=3
note_on channel=0 note=58 velocity=0 time=11
note_on channel=0 note=59 velocity=0 time=13
note_on channel=0 note=48 velocity=0 time=22
note_on channel=0 note=42 velocity=41 time=11
note_on channel=0 note=50 velocity=0 time=1
note_on channel=0 note=37 velocity=61 time=5
note_on channel=0 note=56 velocity=66 time=0
note_on channel=0 note=39 velocity=54 time=6
note_on channel=0 note=58 velocity=62 time=2
note_on channel=0 note=56 velocity=0 time=27
note_on channel=0 note=58 velocity=0 time=10
note_on channel=0 note=39 velocity=0 time=6
note_on channel=0 note=42 velocity=0 time=10
note_on channel=0 note=55 velocity=51 time=0
note_on channel=0 note=37 velocity=0 time=2
note_on channel=0 note=54 velocity=35 time=18
note_on channel=0 note=49 velocity=57 time=18
note_on channel=0 note=55 velocity=0 time=16
note_on channel=0 note=50 velocity=33 time=3
note_on channel=0 note=54 velocity=0 time=2
note_on channel=0 note=49 velocity=0 time=14
note_on channel=0 note=40 velocity=76 time=14
note_on channel=0 note=43 velocity=61 time=3
note_on channel=0 note=41 velocity=64 time=28
note_on channel=0 note=50 velocity=0 time=0
note_on channel=0 note=30 velocity=66 time=94
note_on channel=0 note=43 velocity=0 time=27
note_on channel=0 note=49 velocity=82 time=0
note_on channel=0 note=30 velocity=0 time=7
note_on channel=0 note=31 velocity=61 time=11
note_on channel=0 note=49 velocity=0 time=13
note_on channel=0 note=40 velocity=0 time=4
note_on channel=0 note=50 velocity=60 time=3
note_on channel=0 note=29 velocity=45 time=5
note_on channel=0 note=31 velocity=0 time=12
note_on channel=0 note=41 velocity=0 time=4
note_on channel=0 note=28 velocity=39 time=5
note_on channel=0 note=26 velocity=61 time=6
note_on channel=0 note=50 velocity=0 time=10
note_on channel=0 note=29 velocity=0 time=19
note_on channel=0 note=26 velocity=0 time=16
note_on channel=0 note=28 velocity=0 time=8
note_on channel=0 note=26 velocity=47 time=54
note_on channel=0 note=28 velocity=56 time=9
note_on channel=0 note=28 velocity=0 time=44
note_on channel=0 note=26 velocity=0 time=225
note_on channel=0 note=73 velocity=91 time=11
note_on channel=0 note=72 velocity=63 time=199
note_on channel=0 note=73 velocity=0 time=8
note_on channel=0 note=61 velocity=61 time=38
note_on channel=0 note=69 velocity=75 time=25
note_on channel=0 note=62 velocity=61 time=1
note_on channel=0 note=71 velocity=78 time=15
note_on channel=0 note=64 velocity=43 time=14
note_on channel=0 note=71 velocity=0 time=19
note_on channel=0 note=65 velocity=46 time=7
note_on channel=0 note=62 velocity=0 time=14
note_on channel=0 note=72 velocity=0 time=59
note_on channel=0 note=64 velocity=0 time=32
note_on channel=0 note=67 velocity=31 time=70
note_on channel=0 note=72 velocity=60 time=40
note_on channel=0 note=61 velocity=0 time=5
note_on channel=0 note=83 velocity=63 time=6
note_on channel=0 note=69 velocity=0 time=12
note_on channel=0 note=72 velocity=0 time=59
note_on channel=0 note=67 velocity=0 time=37
note_on channel=0 note=83 velocity=0 time=8
note_on channel=0 note=65 velocity=0 time=7
note_on channel=0 note=71 velocity=72 time=192
note_on channel=0 note=67 velocity=60 time=11
note_on channel=0 note=70 velocity=70 time=0
note_on channel=0 note=60 velocity=58 time=5
note_on channel=0 note=65 velocity=46 time=12
note_on channel=0 note=70 velocity=0 time=37
note_on channel=0 note=71 velocity=0 time=12
note_on channel=0 note=67 velocity=0 time=21
note_on channel=0 note=65 velocity=0 time=10
note_on channel=0 note=60 velocity=0 time=12
note_on channel=0 note=71 velocity=69 time=184
note_on channel=0 note=66 velocity=68 time=24
note_on channel=0 note=66 velocity=0 time=57
note_on channel=0 note=71 velocity=0 time=46
note_on channel=0 note=70 velocity=63 time=167
note_on channel=0 note=65 velocity=49 time=25
note_on channel=0 note=56 velocity=33 time=48
note_on channel=0 note=59 velocity=48 time=6
note_on channel=0 note=65 velocity=0 time=11
note_on channel=0 note=56 velocity=0 time=49
note_on channel=0 note=59 velocity=0 time=8
note_on channel=0 note=70 velocity=0 time=22
note_on channel=0 note=78 velocity=58 time=140
note_on channel=0 note=62 velocity=50 time=13
note_on channel=0 note=59 velocity=37 time=29
note_on channel=0 note=55 velocity=36 time=7
note_on channel=0 note=62 velocity=0 time=70
note_on channel=0 note=55 velocity=0 time=14
note_on channel=0 note=59 velocity=0 time=3
note_on channel=0 note=78 velocity=0 time=33
note_on channel=0 note=62 velocity=38 time=129
note_on channel=0 note=63 velocity=62 time=6
note_on channel=0 note=59 velocity=48 time=9
note_on channel=0 note=55 velocity=38 time=41
note_on channel=0 note=62 velocity=0 time=18
note_on channel=0 note=63 velocity=0 time=38
note_on channel=0 note=59 velocity=0 time=11
note_on channel=0 note=55 velocity=0 time=5
note_on channel=0 note=64 velocity=58 time=175
note_on channel=0 note=60 velocity=58 time=11
note_on channel=0 note=54 velocity=56 time=4
note_on channel=0 note=51 velocity=37 time=8
note_on channel=0 note=50 velocity=47 time=5
note_on channel=0 note=60 velocity=0 time=41
note_on channel=0 note=51 velocity=0 time=20
note_on channel=0 note=50 velocity=0 time=2
note_on channel=0 note=64 velocity=0 time=29
note_on channel=0 note=54 velocity=0 time=16
note_on channel=0 note=62 velocity=60 time=164
note_on channel=0 note=54 velocity=55 time=12
note_on channel=0 note=57 velocity=49 time=9
note_on channel=0 note=70 velocity=57 time=0
note_on channel=0 note=50 velocity=46 time=4
note_on channel=0 note=62 velocity=0 time=50
note_on channel=0 note=57 velocity=0 time=9
note_on channel=0 note=50 velocity=0 time=16
note_on channel=0 note=54 velocity=0 time=56
note_on channel=0 note=70 velocity=0 time=82
note_on channel=0 note=61 velocity=57 time=57
note_on channel=0 note=62 velocity=53 time=11
note_on channel=0 note=54 velocity=55 time=5
note_on channel=0 note=57 velocity=51 time=19
note_on channel=0 note=62 velocity=0 time=27
note_on channel=0 note=51 velocity=32 time=19
note_on channel=0 note=57 velocity=0 time=15
note_on channel=0 note=51 velocity=0 time=37
note_on channel=0 note=61 velocity=0 time=19
note_on channel=0 note=54 velocity=0 time=12
note_on channel=0 note=58 velocity=57 time=131
note_on channel=0 note=62 velocity=38 time=13
note_on channel=0 note=49 velocity=48 time=1
note_on channel=0 note=58 velocity=0 time=110
note_on channel=0 note=62 velocity=0 time=43
note_on channel=0 note=49 velocity=0 time=6
note_on channel=0 note=63 velocity=53 time=123
note_on channel=0 note=59 velocity=46 time=6
note_on channel=0 note=48 velocity=43 time=9
note_on channel=0 note=55 velocity=50 time=13
note_on channel=0 note=52 velocity=45 time=7
note_on channel=0 note=59 velocity=0 time=37
note_on channel=0 note=48 velocity=0 time=20
note_on channel=0 note=55 velocity=0 time=13
note_on channel=0 note=52 velocity=0 time=32
note_on channel=0 note=63 velocity=0 time=10
note_on channel=0 note=70 velocity=55 time=119
note_on channel=0 note=60 velocity=55 time=8
note_on channel=0 note=58 velocity=49 time=11
note_on channel=0 note=48 velocity=44 time=4
note_on channel=0 note=58 velocity=0 time=53
note_on channel=0 note=60 velocity=0 time=21
note_on channel=0 note=52 velocity=34 time=3
note_on channel=0 note=48 velocity=0 time=40
note_on channel=0 note=52 velocity=0 time=42
note_on channel=0 note=70 velocity=0 time=35
note_on channel=0 note=54 velocity=56 time=53
note_on channel=0 note=63 velocity=61 time=36
note_on channel=0 note=63 velocity=0 time=114
note_on channel=0 note=54 velocity=0 time=29
note_on channel=0 note=60 velocity=60 time=117
note_on channel=0 note=70 velocity=66 time=6
note_on channel=0 note=54 velocity=31 time=7
note_on channel=0 note=47 velocity=52 time=2
note_on channel=0 note=55 velocity=49 time=10
note_on channel=0 note=60 velocity=0 time=24
note_on channel=0 note=57 velocity=44 time=3
note_on channel=0 note=54 velocity=0 time=40
note_on channel=0 note=70 velocity=0 time=18
note_on channel=0 note=55 velocity=0 time=13
note_on channel=0 note=57 velocity=0 time=1
note_on channel=0 note=54 velocity=51 time=166
note_on channel=0 note=57 velocity=50 time=18
note_on channel=0 note=70 velocity=55 time=10
note_on channel=0 note=51 velocity=43 time=4
note_on channel=0 note=58 velocity=61 time=4
note_on channel=0 note=47 velocity=0 time=9
note_on channel=0 note=58 velocity=0 time=38
note_on channel=0 note=51 velocity=0 time=15
note_on channel=0 note=57 velocity=0 time=8
note_on channel=0 note=54 velocity=0 time=26
note_on channel=0 note=70 velocity=0 time=43
note_on channel=0 note=58 velocity=40 time=102
note_on channel=0 note=54 velocity=59 time=9
note_on channel=0 note=57 velocity=56 time=33
note_on channel=0 note=66 velocity=63 time=3
note_on channel=0 note=59 velocity=26 time=15
note_on channel=0 note=58 velocity=0 time=4
note_on channel=0 note=57 velocity=0 time=28
note_on channel=0 note=51 velocity=37 time=1
note_on channel=0 note=59 velocity=0 time=21
note_on channel=0 note=51 velocity=0 time=49
note_on channel=0 note=54 velocity=0 time=45
note_on channel=0 note=54 velocity=57 time=70
note_on channel=0 note=51 velocity=56 time=13
note_on channel=0 note=68 velocity=48 time=37
note_on channel=0 note=70 velocity=60 time=4
note_on channel=0 note=54 velocity=0 time=21
note_on channel=0 note=47 velocity=45 time=11
note_on channel=0 note=66 velocity=0 time=5
note_on channel=0 note=68 velocity=0 time=11
note_on channel=0 note=51 velocity=0 time=33
note_on channel=0 note=47 velocity=0 time=33
note_on channel=0 note=70 velocity=0 time=123
note_on channel=0 note=54 velocity=59 time=6
note_on channel=0 note=73 velocity=52 time=12
note_on channel=0 note=61 velocity=55 time=30
note_on channel=0 note=70 velocity=31 time=7
note_on channel=0 note=61 velocity=0 time=45
note_on channel=0 note=70 velocity=0 time=20
note_on channel=0 note=54 velocity=0 time=20
note_on channel=0 note=73 velocity=0 time=51
note_on channel=0 note=44 velocity=66 time=80
note_on channel=0 note=66 velocity=64 time=9
note_on channel=0 note=68 velocity=55 time=7
note_on channel=0 note=46 velocity=51 time=15
note_on channel=0 note=68 velocity=0 time=32
note_on channel=0 note=46 velocity=0 time=20
note_on channel=0 note=66 velocity=0 time=65
note_on channel=0 note=44 velocity=0 time=33
note_on channel=0 note=52 velocity=58 time=84
note_on channel=0 note=66 velocity=70 time=247
note_on channel=0 note=44 velocity=72 time=18
note_on channel=0 note=48 velocity=55 time=19
note_on channel=0 note=52 velocity=0 time=10
note_on channel=0 note=48 velocity=0 time=39
note_on channel=0 note=44 velocity=0 time=108
note_on channel=0 note=66 velocity=0 time=20
note_on channel=0 note=47 velocity=66 time=58
note_on channel=0 note=63 velocity=72 time=0
note_on channel=0 note=63 velocity=0 time=101
note_on channel=0 note=47 velocity=0 time=131
note_on channel=0 note=35 velocity=69 time=5
note_on channel=0 note=64 velocity=66 time=19
note_on channel=0 note=33 velocity=36 time=11
note_on channel=0 note=33 velocity=0 time=49
note_on channel=0 note=64 velocity=0 time=96
note_on channel=0 note=47 velocity=75 time=82
note_on channel=0 note=65 velocity=69 time=13
note_on channel=0 note=47 velocity=0 time=135
note_on channel=0 note=65 velocity=0 time=12
note_on channel=0 note=39 velocity=54 time=82
note_on channel=0 note=66 velocity=64 time=22
note_on channel=0 note=35 velocity=0 time=51
note_on channel=0 note=39 velocity=0 time=48
note_on channel=0 note=66 velocity=0 time=11
note_on channel=0 note=38 velocity=59 time=83
note_on channel=0 note=40 velocity=48 time=23
note_on channel=0 note=66 velocity=25 time=4
note_on channel=0 note=62 velocity=56 time=11
note_on channel=0 note=70 velocity=68 time=0
note_on channel=0 note=60 velocity=48 time=9
note_on channel=0 note=66 velocity=0 time=23
note_on channel=0 note=40 velocity=0 time=11
note_on channel=0 note=62 velocity=0 time=21
note_on channel=0 note=60 velocity=0 time=5
note_on channel=0 note=70 velocity=0 time=111
note_on channel=0 note=28 velocity=56 time=8
note_on channel=0 note=38 velocity=0 time=9
note_on channel=0 note=65 velocity=49 time=31
note_on channel=0 note=64 velocity=55 time=16
note_on channel=0 note=34 velocity=48 time=11
note_on channel=0 note=64 velocity=0 time=49
note_on channel=0 note=34 velocity=0 time=9
note_on channel=0 note=65 velocity=0 time=19
note_on channel=0 note=53 velocity=58 time=73
note_on channel=0 note=40 velocity=69 time=46
note_on channel=0 note=53 velocity=0 time=193
note_on channel=0 note=40 velocity=0 time=7
note_on channel=0 note=34 velocity=75 time=12
note_on channel=0 note=46 velocity=82 time=7
note_on channel=0 note=28 velocity=0 time=68
note_on channel=0 note=32 velocity=39 time=104
note_on channel=0 note=34 velocity=0 time=8
note_on channel=0 note=32 velocity=0 time=42
note_on channel=0 note=35 velocity=80 time=9
note_on channel=0 note=46 velocity=0 time=3
note_on channel=0 note=45 velocity=75 time=55
note_on channel=0 note=35 velocity=0 time=58
note_on channel=0 note=26 velocity=95 time=6
note_on channel=0 note=28 velocity=55 time=28
note_on channel=0 note=48 velocity=47 time=35
note_on channel=0 note=45 velocity=0 time=17
note_on channel=0 note=50 velocity=41 time=24
note_on channel=0 note=28 velocity=0 time=1
note_on channel=0 note=36 velocity=66 time=12
note_on channel=0 note=32 velocity=39 time=3
note_on channel=0 note=38 velocity=80 time=0
note_on channel=0 note=26 velocity=0 time=18
note_on channel=0 note=50 velocity=0 time=28
note_on channel=0 note=32 velocity=0 time=7
note_on channel=0 note=36 velocity=0 time=15
note_on channel=0 note=38 velocity=0 time=0
note_on channel=0 note=56 velocity=69 time=0
note_on channel=0 note=54 velocity=57 time=32
note_on channel=0 note=56 velocity=0 time=0
note_on channel=0 note=55 velocity=69 time=4
note_on channel=0 note=48 velocity=0 time=33
note_on channel=0 note=53 velocity=61 time=14
note_on channel=0 note=54 velocity=0 time=3
note_on channel=0 note=52 velocity=69 time=24
note_on channel=0 note=55 velocity=0 time=54
note_on channel=0 note=55 velocity=57 time=49
note_on channel=0 note=52 velocity=0 time=23
note_on channel=0 note=70 velocity=48 time=10
note_on channel=0 note=53 velocity=0 time=2
note_on channel=0 note=68 velocity=43 time=0
note_on channel=0 note=57 velocity=47 time=3
note_on channel=0 note=55 velocity=0 time=9
note_on channel=0 note=61 velocity=51 time=2
note_on channel=0 note=65 velocity=66 time=19
note_on channel=0 note=68 velocity=0 time=30
note_on channel=0 note=57 velocity=0 time=10
note_on channel=0 note=65 velocity=0 time=1
note_on channel=0 note=67 velocity=57 time=6
note_on channel=0 note=69 velocity=51 time=18
note_on channel=0 note=62 velocity=45 time=11
note_on channel=0 note=67 velocity=0 time=23
note_on channel=0 note=61 velocity=0 time=5
note_on channel=0 note=69 velocity=0 time=17
note_on channel=0 note=70 velocity=0 time=1
note_on channel=0 note=86 velocity=72 time=9
note_on channel=0 note=87 velocity=55 time=10
note_on channel=0 note=62 velocity=0 time=6
note_on channel=0 note=70 velocity=57 time=7
note_on channel=0 note=86 velocity=0 time=15
note_on channel=0 note=87 velocity=0 time=0
note_on channel=0 note=69 velocity=69 time=3
note_on channel=0 note=63 velocity=39 time=7
note_on channel=0 note=66 velocity=35 time=11
note_on channel=0 note=92 velocity=62 time=37
note_on channel=0 note=70 velocity=0 time=1
note_on channel=0 note=66 velocity=0 time=1
note_on channel=0 note=63 velocity=0 time=17
note_on channel=0 note=92 velocity=0 time=24
note_on channel=0 note=69 velocity=0 time=5
note_on channel=0 note=94 velocity=42 time=27
note_on channel=0 note=105 velocity=51 time=51
note_on channel=0 note=103 velocity=59 time=1
note_on channel=0 note=94 velocity=0 time=3
note_on channel=0 note=104 velocity=71 time=10
note_on channel=0 note=103 velocity=0 time=25
note_on channel=0 note=85 velocity=37 time=47
note_on channel=0 note=104 velocity=0 time=21
note_on channel=0 note=96 velocity=67 time=38
note_on channel=0 note=104 velocity=42 time=1
note_on channel=0 note=95 velocity=87 time=8
note_on channel=0 note=93 velocity=104 time=4
note_on channel=0 note=85 velocity=0 time=3
note_on channel=0 note=102 velocity=50 time=1
note_on channel=0 note=88 velocity=65 time=2
note_on channel=0 note=92 velocity=71 time=5
note_on channel=0 note=94 velocity=54 time=9
note_on channel=0 note=108 velocity=84 time=1
note_on channel=0 note=96 velocity=0 time=1
note_on channel=0 note=86 velocity=46 time=3
note_on channel=0 note=106 velocity=46 time=2
note_on channel=0 note=87 velocity=49 time=3
note_on channel=0 note=90 velocity=62 time=1
note_on channel=0 note=104 velocity=0 time=5
note_on channel=0 note=92 velocity=0 time=2
note_on channel=0 note=105 velocity=0 time=1
note_on channel=0 note=88 velocity=0 time=2
note_on channel=0 note=107 velocity=41 time=9
note_on channel=0 note=102 velocity=0 time=3
note_on channel=0 note=108 velocity=0 time=7
note_on channel=0 note=90 velocity=0 time=6
note_on channel=0 note=94 velocity=0 time=2
note_on channel=0 note=95 velocity=0 time=3
note_on channel=0 note=87 velocity=0 time=5
note_on channel=0 note=106 velocity=0 time=2
note_on channel=0 note=93 velocity=0 time=7
note_on channel=0 note=86 velocity=0 time=2
note_on channel=0 note=107 velocity=0 time=16
note_on channel=0 note=95 velocity=87 time=137
note_on channel=0 note=88 velocity=70 time=7
note_on channel=0 note=86 velocity=47 time=24
note_on channel=0 note=88 velocity=0 time=10
note_on channel=0 note=73 velocity=70 time=21
note_on channel=0 note=72 velocity=56 time=21
note_on channel=0 note=95 velocity=0 time=15
note_on channel=0 note=86 velocity=0 time=4
note_on channel=0 note=73 velocity=0 time=3
note_on channel=0 note=72 velocity=0 time=23
note_on channel=0 note=83 velocity=82 time=149
note_on channel=0 note=85 velocity=68 time=16
note_on channel=0 note=88 velocity=61 time=6
note_on channel=0 note=89 velocity=54 time=4
note_on channel=0 note=73 velocity=85 time=3
note_on channel=0 note=76 velocity=87 time=0
note_on channel=0 note=68 velocity=70 time=5
note_on channel=0 note=75 velocity=73 time=3
note_on channel=0 note=68 velocity=0 time=32
note_on channel=0 note=88 velocity=0 time=0
note_on channel=0 note=75 velocity=0 time=1
note_on channel=0 note=89 velocity=0 time=0
note_on channel=0 note=85 velocity=0 time=26
note_on channel=0 note=76 velocity=0 time=5
note_on channel=0 note=73 velocity=0 time=10
note_on channel=0 note=83 velocity=0 time=12
note_on channel=0 note=75 velocity=79 time=185
note_on channel=0 note=74 velocity=75 time=6
note_on channel=0 note=67 velocity=75 time=8
note_on channel=0 note=65 velocity=61 time=6
note_on channel=0 note=59 velocity=52 time=13
note_on channel=0 note=62 velocity=51 time=1
note_on channel=0 note=67 velocity=0 time=26
note_on channel=0 note=65 velocity=0 time=7
note_on channel=0 note=62 velocity=0 time=20
note_on channel=0 note=59 velocity=0 time=14
note_on channel=0 note=74 velocity=0 time=11
note_on channel=0 note=75 velocity=0 time=16
note_on channel=0 note=83 velocity=91 time=123
note_on channel=0 note=72 velocity=78 time=9
note_on channel=0 note=62 velocity=89 time=4
note_on channel=0 note=52 velocity=75 time=4
note_on channel=0 note=56 velocity=69 time=8
note_on channel=0 note=56 velocity=0 time=39
note_on channel=0 note=62 velocity=0 time=25
note_on channel=0 note=83 velocity=0 time=22
note_on channel=0 note=52 velocity=0 time=3
note_on channel=0 note=72 velocity=0 time=44
note_on channel=0 note=70 velocity=73 time=91
note_on channel=0 note=56 velocity=79 time=3
note_on channel=0 note=67 velocity=69 time=1
note_on channel=0 note=58 velocity=57 time=9
note_on channel=0 note=60 velocity=63 time=7
note_on channel=0 note=58 velocity=0 time=32
note_on channel=0 note=67 velocity=0 time=6
note_on channel=0 note=60 velocity=0 time=2
note_on channel=0 note=52 velocity=31 time=15
note_on channel=0 note=52 velocity=0 time=69
note_on channel=0 note=70 velocity=0 time=1
note_on channel=0 note=56 velocity=0 time=1
note_on channel=0 note=66 velocity=85 time=97
note_on channel=0 note=60 velocity=82 time=13
note_on channel=0 note=55 velocity=85 time=11
note_on channel=0 note=57 velocity=72 time=1
note_on channel=0 note=47 velocity=79 time=2
note_on channel=0 note=54 velocity=69 time=7
note_on channel=0 note=51 velocity=69 time=3
note_on channel=0 note=57 velocity=0 time=21
note_on channel=0 note=54 velocity=0 time=15
note_on channel=0 note=55 velocity=0 time=28
note_on channel=0 note=47 velocity=0 time=20
note_on channel=0 note=66 velocity=0 time=7
note_on channel=0 note=60 velocity=0 time=9
note_on channel=0 note=51 velocity=0 time=18
note_on channel=0 note=53 velocity=79 time=129
note_on channel=0 note=72 velocity=87 time=1
note_on channel=0 note=62 velocity=48 time=5
note_on channel=0 note=64 velocity=72 time=1
note_on channel=0 note=45 velocity=63 time=1
note_on channel=0 note=49 velocity=56 time=0
note_on channel=0 note=46 velocity=48 time=6
note_on channel=0 note=44 velocity=47 time=7
note_on channel=0 note=52 velocity=63 time=2
note_on channel=0 note=64 velocity=0 time=31
note_on channel=0 note=52 velocity=0 time=11
note_on channel=0 note=46 velocity=0 time=1
note_on channel=0 note=44 velocity=0 time=7
note_on channel=0 note=62 velocity=0 time=0
note_on channel=0 note=49 velocity=0 time=7
note_on channel=0 note=72 velocity=0 time=15
note_on channel=0 note=45 velocity=0 time=14
note_on channel=0 note=53 velocity=0 time=4
note_on channel=0 note=77 velocity=82 time=137
note_on channel=0 note=71 velocity=82 time=11
note_on channel=0 note=79 velocity=66 time=5
note_on channel=0 note=62 velocity=89 time=6
note_on channel=0 note=53 velocity=60 time=8
note_on channel=0 note=60 velocity=69 time=7
note_on channel=0 note=52 velocity=55 time=8
note_on channel=0 note=57 velocity=52 time=6
note_on channel=0 note=54 velocity=41 time=6
note_on channel=0 note=79 velocity=0 time=0
note_on channel=0 note=52 velocity=0 time=38
note_on channel=0 note=77 velocity=0 time=17
note_on channel=0 note=54 velocity=0 time=12
note_on channel=0 note=62 velocity=0 time=9
note_on channel=0 note=60 velocity=0 time=6
note_on channel=0 note=71 velocity=0 time=28
note_on channel=0 note=57 velocity=0 time=1
note_on channel=0 note=53 velocity=0 time=33
note_on channel=0 note=68 velocity=87 time=66
note_on channel=0 note=57 velocity=65 time=19
note_on channel=0 note=54 velocity=72 time=3
note_on channel=0 note=47 velocity=69 time=2
note_on channel=0 note=51 velocity=69 time=0
note_on channel=0 note=55 velocity=75 time=5
note_on channel=0 note=57 velocity=0 time=55
note_on channel=0 note=54 velocity=0 time=4
note_on channel=0 note=55 velocity=0 time=32
note_on channel=0 note=51 velocity=0 time=31
note_on channel=0 note=47 velocity=0 time=3
note_on channel=0 note=68 velocity=0 time=6
note_on channel=0 note=50 velocity=85 time=104
note_on channel=0 note=49 velocity=82 time=7
note_on channel=0 note=59 velocity=72 time=1
note_on channel=0 note=40 velocity=69 time=4
note_on channel=0 note=57 velocity=72 time=1
note_on channel=0 note=60 velocity=72 time=2
note_on channel=0 note=41 velocity=55 time=14
note_on channel=0 note=45 velocity=47 time=11
note_on channel=0 note=57 velocity=0 time=36
note_on channel=0 note=41 velocity=0 time=14
note_on channel=0 note=45 velocity=0 time=12
note_on channel=0 note=60 velocity=0 time=15
note_on channel=0 note=40 velocity=0 time=3
note_on channel=0 note=50 velocity=0 time=23
note_on channel=0 note=59 velocity=0 time=7
note_on channel=0 note=49 velocity=0 time=11
note_on channel=0 note=47 velocity=75 time=96
note_on channel=0 note=60 velocity=85 time=0
note_on channel=0 note=71 velocity=75 time=1
note_on channel=0 note=69 velocity=72 time=3
note_on channel=0 note=54 velocity=72 time=3
note_on channel=0 note=57 velocity=69 time=1
note_on channel=0 note=51 velocity=75 time=1
note_on channel=0 note=55 velocity=75 time=3
note_on channel=0 note=62 velocity=72 time=4
note_on channel=0 note=68 velocity=49 time=9
note_on channel=0 note=62 velocity=0 time=27
note_on channel=0 note=57 velocity=0 time=8
note_on channel=0 note=71 velocity=0 time=3
note_on channel=0 note=55 velocity=0 time=3
note_on channel=0 note=68 velocity=0 time=14
note_on channel=0 note=69 velocity=0 time=18
note_on channel=0 note=54 velocity=0 time=6
note_on channel=0 note=51 velocity=0 time=19
note_on channel=0 note=60 velocity=0 time=8
note_on channel=0 note=47 velocity=0 time=28
note_on channel=0 note=55 velocity=85 time=98
note_on channel=0 note=48 velocity=93 time=1
note_on channel=0 note=60 velocity=72 time=2
note_on channel=0 note=39 velocity=84 time=6
note_on channel=0 note=59 velocity=75 time=0
note_on channel=0 note=44 velocity=79 time=1
note_on channel=0 note=47 velocity=51 time=19
note_on channel=0 note=57 velocity=56 time=3
note_on channel=0 note=39 velocity=0 time=20
note_on channel=0 note=40 velocity=48 time=12
note_on channel=0 note=47 velocity=0 time=13
note_on channel=0 note=57 velocity=0 time=5
note_on channel=0 note=48 velocity=0 time=15
note_on channel=0 note=55 velocity=0 time=23
note_on channel=0 note=60 velocity=0 time=1
note_on channel=0 note=59 velocity=0 time=10
note_on channel=0 note=44 velocity=0 time=6
note_on channel=0 note=40 velocity=0 time=1
note_on channel=0 note=43 velocity=93 time=104
note_on channel=0 note=52 velocity=82 time=14
note_on channel=0 note=34 velocity=50 time=14
note_on channel=0 note=41 velocity=53 time=0
note_on channel=0 note=53 velocity=61 time=5
note_on channel=0 note=38 velocity=44 time=7
note_on channel=0 note=34 velocity=0 time=37
note_on channel=0 note=53 velocity=0 time=7
note_on channel=0 note=41 velocity=0 time=19
note_on channel=0 note=38 velocity=0 time=10
note_on channel=0 note=43 velocity=0 time=13
note_on channel=0 note=52 velocity=0 time=40
note_on channel=0 note=45 velocity=82 time=81
note_on channel=0 note=28 velocity=86 time=13
note_on channel=0 note=49 velocity=85 time=1
note_on channel=0 note=32 velocity=78 time=9
note_on channel=0 note=36 velocity=80 time=1
note_on channel=0 note=38 velocity=83 time=2
note_on channel=0 note=29 velocity=40 time=27
note_on channel=0 note=38 velocity=0 time=13
note_on channel=0 note=29 velocity=0 time=30
note_on channel=0 note=45 velocity=0 time=23
note_on channel=0 note=28 velocity=0 time=18
note_on channel=0 note=32 velocity=0 time=5
note_on channel=0 note=49 velocity=0 time=12
note_on channel=0 note=36 velocity=0 time=1
note_on channel=0 note=39 velocity=97 time=110
note_on channel=0 note=48 velocity=107 time=4
note_on channel=0 note=65 velocity=87 time=4
note_on channel=0 note=46 velocity=82 time=2
note_on channel=0 note=42 velocity=50 time=9
note_on channel=0 note=57 velocity=79 time=1
note_on channel=0 note=44 velocity=72 time=5
note_on channel=0 note=47 velocity=79 time=1
note_on channel=0 note=59 velocity=72 time=1
note_on channel=0 note=43 velocity=65 time=4
note_on channel=0 note=46 velocity=0 time=10
note_on channel=0 note=40 velocity=53 time=9
note_on channel=0 note=65 velocity=0 time=1
note_on channel=0 note=44 velocity=0 time=5
note_on channel=0 note=47 velocity=0 time=2
note_on channel=0 note=59 velocity=0 time=5
note_on channel=0 note=48 velocity=0 time=1
note_on channel=0 note=42 velocity=0 time=6
note_on channel=0 note=57 velocity=0 time=23
note_on channel=0 note=40 velocity=0 time=5
note_on channel=0 note=43 velocity=0 time=5
note_on channel=0 note=39 velocity=0 time=8
note_on channel=0 note=44 velocity=72 time=162
note_on channel=0 note=30 velocity=54 time=15
note_on channel=0 note=28 velocity=64 time=7
note_on channel=0 note=26 velocity=83 time=1
note_on channel=0 note=34 velocity=68 time=2
note_on channel=0 note=31 velocity=48 time=15
note_on channel=0 note=36 velocity=44 time=2
note_on channel=0 note=29 velocity=39 time=14
note_on channel=0 note=44 velocity=0 time=1
note_on channel=0 note=34 velocity=0 time=5
note_on channel=0 note=31 velocity=0 time=29
note_on channel=0 note=53 velocity=66 time=5
note_on channel=0 note=29 velocity=0 time=14
note_on channel=0 note=36 velocity=0 time=3
note_on channel=0 note=52 velocity=58 time=18
note_on channel=0 note=26 velocity=0 time=1
note_on channel=0 note=31 velocity=55 time=24
note_on channel=0 note=30 velocity=0 time=1
note_on channel=0 note=40 velocity=95 time=6
note_on channel=0 note=33 velocity=69 time=4
note_on channel=0 note=36 velocity=66 time=11
note_on channel=0 note=32 velocity=63 time=5
note_on channel=0 note=35 velocity=59 time=0
note_on channel=0 note=33 velocity=0 time=22
note_on channel=0 note=32 velocity=0 time=12
note_on channel=0 note=35 velocity=0 time=2
note_on channel=0 note=31 velocity=0 time=10
note_on channel=0 note=36 velocity=0 time=0
note_on channel=0 note=28 velocity=0 time=1
note_on channel=0 note=52 velocity=0 time=13
note_on channel=0 note=53 velocity=0 time=9
note_on channel=0 note=40 velocity=0 time=25
note_on channel=0 note=68 velocity=70 time=81
note_on channel=0 note=56 velocity=66 time=11
note_on channel=0 note=67 velocity=61 time=2
note_on channel=0 note=58 velocity=66 time=6
note_on channel=0 note=68 velocity=0 time=12
note_on channel=0 note=62 velocity=75 time=1
note_on channel=0 note=61 velocity=43 time=3
note_on channel=0 note=55 velocity=48 time=5
note_on channel=0 note=69 velocity=49 time=1
note_on channel=0 note=56 velocity=0 time=10
note_on channel=0 note=58 velocity=0 time=2
note_on channel=0 note=67 velocity=0 time=1
note_on channel=0 note=64 velocity=57 time=10
note_on channel=0 note=73 velocity=73 time=10
note_on channel=0 note=63 velocity=50 time=21
note_on channel=0 note=61 velocity=0 time=6
note_on channel=0 note=65 velocity=46 time=2
note_on channel=0 note=55 velocity=0 time=5
note_on channel=0 note=69 velocity=0 time=4
note_on channel=0 note=73 velocity=0 time=7
note_on channel=0 note=62 velocity=0 time=14
note_on channel=0 note=63 velocity=0 time=5
note_on channel=0 note=64 velocity=0 time=13
note_on channel=0 note=65 velocity=0 time=19
note_on channel=0 note=72 velocity=37 time=24
note_on channel=0 note=81 velocity=45 time=1
note_on channel=0 note=82 velocity=70 time=0
note_on channel=0 note=83 velocity=37 time=23
note_on channel=0 note=82 velocity=0 time=4
note_on channel=0 note=73 velocity=60 time=3
note_on channel=0 note=72 velocity=0 time=17
note_on channel=0 note=81 velocity=0 time=15
note_on channel=0 note=83 velocity=0 time=7
note_on channel=0 note=73 velocity=0 time=21
note_on channel=0 note=92 velocity=56 time=15
note_on channel=0 note=93 velocity=70 time=15
note_on channel=0 note=94 velocity=78 time=3
note_on channel=0 note=92 velocity=0 time=26
note_on channel=0 note=95 velocity=65 time=0
note_on channel=0 note=94 velocity=0 time=4
note_on channel=0 note=93 velocity=0 time=4
note_on channel=0 note=96 velocity=70 time=23
note_on channel=0 note=95 velocity=0 time=4
note_on channel=0 note=87 velocity=36 time=24
note_on channel=0 note=96 velocity=0 time=47
note_on channel=0 note=94 velocity=38 time=3
note_on channel=0 note=87 velocity=0 time=21
note_on channel=0 note=90 velocity=43 time=27
note_on channel=0 note=94 velocity=0 time=5
note_on channel=0 note=90 velocity=0 time=42
note_on channel=0 note=105 velocity=58 time=57
note_on channel=0 note=104 velocity=55 time=10
note_on channel=0 note=96 velocity=77 time=7
note_on channel=0 note=90 velocity=66 time=9
note_on channel=0 note=95 velocity=77 time=1
note_on channel=0 note=89 velocity=61 time=19
note_on channel=0 note=104 velocity=0 time=3
note_on channel=0 note=97 velocity=78 time=4
note_on channel=0 note=92 velocity=56 time=6
note_on channel=0 note=88 velocity=48 time=1
note_on channel=0 note=103 velocity=70 time=30
note_on channel=0 note=90 velocity=0 time=4
note_on channel=0 note=89 velocity=0 time=5
note_on channel=0 note=88 velocity=0 time=18
note_on channel=0 note=92 velocity=0 time=0
note_on channel=0 note=103 velocity=0 time=26
note_on channel=0 note=96 velocity=0 time=11
note_on channel=0 note=105 velocity=0 time=0
note_on channel=0 note=97 velocity=0 time=11
note_on channel=0 note=95 velocity=0 time=21
note_on channel=0 note=92 velocity=91 time=157
note_on channel=0 note=86 velocity=66 time=3
note_on channel=0 note=88 velocity=74 time=5
note_on channel=0 note=81 velocity=82 time=13
note_on channel=0 note=82 velocity=79 time=2
note_on channel=0 note=75 velocity=66 time=6
note_on channel=0 note=88 velocity=0 time=12
note_on channel=0 note=79 velocity=48 time=12
note_on channel=0 note=82 velocity=0 time=14
note_on channel=0 note=92 velocity=0 time=2
note_on channel=0 note=75 velocity=0 time=2
note_on channel=0 note=86 velocity=0 time=4
note_on channel=0 note=81 velocity=0 time=6
note_on channel=0 note=79 velocity=0 time=32
note_on channel=0 note=83 velocity=82 time=135
note_on channel=0 note=81 velocity=72 time=2
note_on channel=0 note=78 velocity=82 time=10
note_on channel=0 note=75 velocity=79 time=2
note_on channel=0 note=77 velocity=75 time=0
note_on channel=0 note=70 velocity=66 time=9
note_on channel=0 note=76 velocity=58 time=15
note_on channel=0 note=75 velocity=0 time=29
note_on channel=0 note=77 velocity=0 time=0
note_on channel=0 note=78 velocity=0 time=11
note_on channel=0 note=76 velocity=0 time=4
note_on channel=0 note=70 velocity=0 time=1
note_on channel=0 note=81 velocity=0 time=10
note_on channel=0 note=83 velocity=0 time=43
note_on channel=0 note=95 velocity=91 time=114
note_on channel=0 note=84 velocity=82 time=4
note_on channel=0 note=76 velocity=82 time=9
note_on channel=0 note=73 velocity=68 time=6
note_on channel=0 note=70 velocity=57 time=2
note_on channel=0 note=86 velocity=69 time=1
note_on channel=0 note=69 velocity=60 time=9
note_on channel=0 note=75 velocity=48 time=2
note_on channel=0 note=77 velocity=54 time=14
note_on channel=0 note=86 velocity=0 time=11
note_on channel=0 note=73 velocity=0 time=25
note_on channel=0 note=69 velocity=0 time=1
note_on channel=0 note=70 velocity=0 time=3
note_on channel=0 note=75 velocity=0 time=3
note_on channel=0 note=95 velocity=0 time=4
note_on channel=0 note=77 velocity=0 time=6
note_on channel=0 note=76 velocity=0 time=14
note_on channel=0 note=84 velocity=0 time=28
note_on channel=0 note=81 velocity=58 time=148
note_on channel=0 note=72 velocity=63 time=13
note_on channel=0 note=68 velocity=57 time=4
note_on channel=0 note=76 velocity=51 time=1
note_on channel=0 note=63 velocity=50 time=20
note_on channel=0 note=76 velocity=0 time=42
note_on channel=0 note=63 velocity=0 time=12
note_on channel=0 note=72 velocity=0 time=19
note_on channel=0 note=68 velocity=0 time=1
note_on channel=0 note=81 velocity=0 time=2
note_on channel=0 note=74 velocity=65 time=150
note_on channel=0 note=68 velocity=64 time=5
note_on channel=0 note=61 velocity=53 time=1
note_on channel=0 note=76 velocity=57 time=2
note_on channel=0 note=69 velocity=56 time=3
note_on channel=0 note=67 velocity=57 time=20
note_on channel=0 note=74 velocity=0 time=28
note_on channel=0 note=67 velocity=0 time=20
note_on channel=0 note=61 velocity=0 time=7
note_on channel=0 note=69 velocity=0 time=16
note_on channel=0 note=76 velocity=0 time=13
note_on channel=0 note=68 velocity=0 time=23
note_on channel=0 note=86 velocity=84 time=75
note_on channel=0 note=76 velocity=65 time=8
note_on channel=0 note=77 velocity=66 time=9
note_on channel=0 note=71 velocity=82 time=1
note_on channel=0 note=63 velocity=53 time=9
note_on channel=0 note=67 velocity=52 time=6
note_on channel=0 note=62 velocity=56 time=2
note_on channel=0 note=69 velocity=54 time=5
note_on channel=0 note=77 velocity=0 time=17
note_on channel=0 note=69 velocity=0 time=36
note_on channel=0 note=86 velocity=0 time=5
note_on channel=0 note=71 velocity=0 time=15
note_on channel=0 note=67 velocity=0 time=8
note_on channel=0 note=76 velocity=0 time=31
note_on channel=0 note=63 velocity=0 time=21
note_on channel=0 note=62 velocity=0 time=12
note_on channel=0 note=75 velocity=79 time=71
note_on channel=0 note=71 velocity=66 time=20
note_on channel=0 note=66 velocity=79 time=9
note_on channel=0 note=67 velocity=58 time=16
note_on channel=0 note=65 velocity=65 time=1
note_on channel=0 note=63 velocity=59 time=2
note_on channel=0 note=67 velocity=0 time=45
note_on channel=0 note=65 velocity=0 time=2
note_on channel=0 note=66 velocity=0 time=20
note_on channel=0 note=71 velocity=0 time=15
note_on channel=0 note=75 velocity=0 time=26
note_on channel=0 note=63 velocity=0 time=13
note_on channel=0 note=68 velocity=61 time=102
note_on channel=0 note=67 velocity=69 time=8
note_on channel=0 note=65 velocity=69 time=1
note_on channel=0 note=61 velocity=69 time=14
note_on channel=0 note=58 velocity=57 time=7
note_on channel=0 note=60 velocity=69 time=0
note_on channel=0 note=54 velocity=48 time=8
note_on channel=0 note=53 velocity=53 time=1
note_on channel=0 note=68 velocity=0 time=53
note_on channel=0 note=54 velocity=0 time=5
note_on channel=0 note=65 velocity=0 time=19
note_on channel=0 note=60 velocity=0 time=8
note_on channel=0 note=53 velocity=0 time=2
note_on channel=0 note=61 velocity=0 time=5
note_on channel=0 note=67 velocity=0 time=4
note_on channel=0 note=58 velocity=0 time=13
note_on channel=0 note=77 velocity=72 time=93
note_on channel=0 note=67 velocity=61 time=3
note_on channel=0 note=63 velocity=69 time=13
note_on channel=0 note=75 velocity=53 time=8
note_on channel=0 note=55 velocity=57 time=3
note_on channel=0 note=56 velocity=50 time=1
note_on channel=0 note=69 velocity=57 time=1
note_on channel=0 note=65 velocity=58 time=2
note_on channel=0 note=64 velocity=61 time=7
note_on channel=0 note=60 velocity=53 time=19
note_on channel=0 note=75 velocity=0 time=20
note_on channel=0 note=69 velocity=0 time=4
note_on channel=0 note=64 velocity=0 time=22
note_on channel=0 note=65 velocity=0 time=16
note_on channel=0 note=60 velocity=0 time=6
note_on channel=0 note=77 velocity=0 time=15
note_on channel=0 note=63 velocity=0 time=2
note_on channel=0 note=56 velocity=0 time=29
note_on channel=0 note=67 velocity=0 time=1
note_on channel=0 note=55 velocity=0 time=15
note_on channel=0 note=70 velocity=75 time=70
note_on channel=0 note=61 velocity=72 time=11
note_on channel=0 note=54 velocity=62 time=10
note_on channel=0 note=65 velocity=63 time=3
note_on channel=0 note=60 velocity=69 time=2
note_on channel=0 note=68 velocity=64 time=11
note_on channel=0 note=58 velocity=47 time=4
note_on channel=0 note=57 velocity=57 time=23
note_on channel=0 note=68 velocity=0 time=25
note_on channel=0 note=60 velocity=0 time=31
note_on channel=0 note=58 velocity=0 time=15
note_on channel=0 note=61 velocity=0 time=1
note_on channel=0 note=70 velocity=0 time=22
note_on channel=0 note=57 velocity=0 time=4
note_on channel=0 note=65 velocity=0 time=22
note_on channel=0 note=54 velocity=0 time=22
note_on channel=0 note=60 velocity=75 time=62
note_on channel=0 note=55 velocity=79 time=10
note_on channel=0 note=56 velocity=72 time=5
note_on channel=0 note=64 velocity=42 time=5
note_on channel=0 note=62 velocity=66 time=7
note_on channel=0 note=49 velocity=57 time=1
note_on channel=0 note=48 velocity=45 time=27
note_on channel=0 note=64 velocity=0 time=25
note_on channel=0 note=49 velocity=0 time=16
note_on channel=0 note=55 velocity=0 time=8
note_on channel=0 note=48 velocity=0 time=12
note_on channel=0 note=62 velocity=0 time=18
note_on channel=0 note=60 velocity=0 time=18
note_on channel=0 note=56 velocity=0 time=13
note_on channel=0 note=60 velocity=69 time=111
note_on channel=0 note=64 velocity=66 time=4
note_on channel=0 note=57 velocity=69 time=1
note_on channel=0 note=54 velocity=57 time=5
note_on channel=0 note=50 velocity=60 time=9
note_on channel=0 note=48 velocity=42 time=1
note_on channel=0 note=59 velocity=57 time=3
note_on channel=0 note=62 velocity=46 time=8
note_on channel=0 note=59 velocity=0 time=52
note_on channel=0 note=53 velocity=33 time=10
note_on channel=0 note=62 velocity=0 time=12
note_on channel=0 note=54 velocity=0 time=24
note_on channel=0 note=60 velocity=0 time=11
note_on channel=0 note=48 velocity=0 time=3
note_on channel=0 note=53 velocity=0 time=3
note_on channel=0 note=64 velocity=0 time=4
note_on channel=0 note=57 velocity=0 time=6
note_on channel=0 note=50 velocity=0 time=14
note_on channel=0 note=60 velocity=66 time=79
note_on channel=0 note=56 velocity=69 time=3
note_on channel=0 note=69 velocity=65 time=0
note_on channel=0 note=64 velocity=56 time=15
note_on channel=0 note=52 velocity=47 time=23
note_on channel=0 note=65 velocity=47 time=8
note_on channel=0 note=64 velocity=0 time=40
note_on channel=0 note=52 velocity=0 time=13
note_on channel=0 note=65 velocity=0 time=18
note_on channel=0 note=60 velocity=0 time=13
note_on channel=0 note=69 velocity=0 time=18
note_on channel=0 note=56 velocity=0 time=16
note_on channel=0 note=56 velocity=66 time=81
note_on channel=0 note=75 velocity=97 time=11
note_on channel=0 note=65 velocity=91 time=1
note_on channel=0 note=61 velocity=75 time=4
note_on channel=0 note=69 velocity=61 time=3
note_on channel=0 note=71 velocity=75 time=6
note_on channel=0 note=64 velocity=58 time=12
note_on channel=0 note=71 velocity=0 time=42
note_on channel=0 note=64 velocity=0 time=1
note_on channel=0 note=69 velocity=0 time=1
note_on channel=0 note=65 velocity=0 time=16
note_on channel=0 note=57 velocity=43 time=1
note_on channel=0 note=61 velocity=0 time=30
note_on channel=0 note=75 velocity=0 time=4
note_on channel=0 note=56 velocity=0 time=9
note_on channel=0 note=57 velocity=0 time=25
note_on channel=0 note=44 velocity=98 time=99
note_on channel=0 note=53 velocity=93 time=0
note_on channel=0 note=64 velocity=93 time=5
note_on channel=0 note=51 velocity=85 time=1
note_on channel=0 note=65 velocity=82 time=9
note_on channel=0 note=47 velocity=41 time=24
note_on channel=0 note=51 velocity=0 time=6
note_on channel=0 note=65 velocity=0 time=0
note_on channel=0 note=53 velocity=0 time=6
note_on channel=0 note=44 velocity=0 time=15
note_on channel=0 note=64 velocity=0 time=14
note_on channel=0 note=47 velocity=0 time=16
note_on channel=0 note=41 velocity=69 time=214
note_on channel=0 note=43 velocity=66 time=14
note_on channel=0 note=34 velocity=51 time=3
note_on channel=0 note=36 velocity=41 time=3
note_on channel=0 note=28 velocity=59 time=11
note_on channel=0 note=30 velocity=57 time=1
note_on channel=0 note=41 velocity=0 time=23
note_on channel=0 note=34 velocity=0 time=11
note_on channel=0 note=36 velocity=0 time=19
note_on channel=0 note=52 velocity=57 time=16
note_on channel=0 note=43 velocity=0 time=28
note_on channel=0 note=51 velocity=53 time=20
note_on channel=0 note=30 velocity=0 time=4
note_on channel=0 note=40 velocity=90 time=3
note_on channel=0 note=31 velocity=52 time=2
note_on channel=0 note=35 velocity=66 time=6
note_on channel=0 note=32 velocity=63 time=3
note_on channel=0 note=36 velocity=61 time=4
note_on channel=0 note=28 velocity=0 time=23
note_on channel=0 note=50 velocity=55 time=0
note_on channel=0 note=52 velocity=0 time=3
note_on channel=0 note=32 velocity=0 time=5
note_on channel=0 note=35 velocity=0 time=1
note_on channel=0 note=31 velocity=0 time=4
note_on channel=0 note=36 velocity=0 time=3
note_on channel=0 note=50 velocity=0 time=26
note_on channel=0 note=51 velocity=0 time=22
note_on channel=0 note=40 velocity=0 time=16
note_on channel=0 note=52 velocity=50 time=1
note_on channel=0 note=53 velocity=45 time=45
note_on channel=0 note=52 velocity=0 time=3
note_on channel=0 note=48 velocity=57 time=42
note_on channel=0 note=61 velocity=37 time=25
note_on channel=0 note=56 velocity=72 time=1
note_on channel=0 note=47 velocity=34 time=13
note_on channel=0 note=50 velocity=47 time=0
note_on channel=0 note=48 velocity=0 time=2
note_on channel=0 note=62 velocity=34 time=9
note_on channel=0 note=56 velocity=0 time=6
note_on channel=0 note=55 velocity=65 time=9
note_on channel=0 note=61 velocity=0 time=5
note_on channel=0 note=65 velocity=60 time=1
note_on channel=0 note=66 velocity=75 time=7
note_on channel=0 note=47 velocity=0 time=1
note_on channel=0 note=62 velocity=0 time=17
note_on channel=0 note=53 velocity=0 time=2
note_on channel=0 note=50 velocity=0 time=7
note_on channel=0 note=66 velocity=0 time=1
note_on channel=0 note=65 velocity=0 time=8
note_on channel=0 note=55 velocity=0 time=38
note_on channel=0 note=70 velocity=60 time=9
note_on channel=0 note=71 velocity=60 time=15
note_on channel=0 note=70 velocity=0 time=28
note_on channel=0 note=71 velocity=0 time=14
note_on channel=0 note=81 velocity=75 time=45
note_on channel=0 note=83 velocity=49 time=64
note_on channel=0 note=81 velocity=0 time=10
note_on channel=0 note=84 velocity=69 time=8
note_on channel=0 note=84 velocity=0 time=36
note_on channel=0 note=83 velocity=0 time=8
note_on channel=0 note=89 velocity=59 time=44
note_on channel=0 note=89 velocity=0 time=53
note_on channel=0 note=100 velocity=74 time=32
note_on channel=0 note=83 velocity=39 time=5
note_on channel=0 note=84 velocity=47 time=41
note_on channel=0 note=83 velocity=0 time=20
note_on channel=0 note=102 velocity=78 time=9
note_on channel=0 note=84 velocity=0 time=37
note_on channel=0 note=100 velocity=0 time=3
note_on channel=0 note=101 velocity=56 time=39
note_on channel=0 note=102 velocity=0 time=1
note_on channel=0 note=95 velocity=56 time=34
note_on channel=0 note=99 velocity=42 time=15
note_on channel=0 note=101 velocity=0 time=1
note_on channel=0 note=102 velocity=54 time=21
note_on channel=0 note=85 velocity=61 time=2
note_on channel=0 note=93 velocity=91 time=0
note_on channel=0 note=92 velocity=84 time=3
note_on channel=0 note=96 velocity=42 time=8
note_on channel=0 note=84 velocity=66 time=2
note_on channel=0 note=107 velocity=65 time=1
note_on channel=0 note=105 velocity=67 time=2
note_on channel=0 note=86 velocity=57 time=3
note_on channel=0 note=90 velocity=68 time=2
note_on channel=0 note=99 velocity=0 time=15
note_on channel=0 note=87 velocity=51 time=1
note_on channel=0 note=103 velocity=39 time=4
note_on channel=0 note=84 velocity=0 time=14
note_on channel=0 note=107 velocity=0 time=8
note_on channel=0 note=85 velocity=0 time=3
note_on channel=0 note=95 velocity=0 time=1
note_on channel=0 note=86 velocity=0 time=3
note_on channel=0 note=96 velocity=0 time=6
note_on channel=0 note=92 velocity=0 time=2
note_on channel=0 note=87 velocity=0 time=8
note_on channel=0 note=103 velocity=0 time=0
note_on channel=0 note=102 velocity=0 time=1
note_on channel=0 note=93 velocity=0 time=11
note_on channel=0 note=90 velocity=0 time=21
note_on channel=0 note=105 velocity=0 time=5
note_on channel=0 note=89 velocity=49 time=145
note_on channel=0 note=93 velocity=58 time=1
note_on channel=0 note=87 velocity=66 time=25
note_on channel=0 note=85 velocity=57 time=4
note_on channel=0 note=86 velocity=42 time=22
note_on channel=0 note=85 velocity=0 time=55
note_on channel=0 note=89 velocity=0 time=1
note_on channel=0 note=86 velocity=0 time=2
note_on channel=0 note=87 velocity=0 time=1
note_on channel=0 note=93 velocity=0 time=3
note_on channel=0 note=88 velocity=67 time=171
note_on channel=0 note=75 velocity=68 time=5
note_on channel=0 note=81 velocity=65 time=5
note_on channel=0 note=82 velocity=68 time=4
note_on channel=0 note=89 velocity=45 time=13
note_on channel=0 note=79 velocity=60 time=3
note_on channel=0 note=79 velocity=0 time=47
note_on channel=0 note=89 velocity=0 time=3
note_on channel=0 note=81 velocity=0 time=12
note_on channel=0 note=75 velocity=0 time=13
note_on channel=0 note=88 velocity=0 time=7
note_on channel=0 note=82 velocity=0 time=5
note_on channel=0 note=98 velocity=81 time=117
note_on channel=0 note=88 velocity=74 time=6
note_on channel=0 note=86 velocity=82 time=5
note_on channel=0 note=85 velocity=75 time=6
note_on channel=0 note=82 velocity=57 time=23
note_on channel=0 note=78 velocity=47 time=5
note_on channel=0 note=85 velocity=0 time=31
note_on channel=0 note=82 velocity=0 time=7
note_on channel=0 note=98 velocity=0 time=3
note_on channel=0 note=78 velocity=0 time=16
note_on channel=0 note=88 velocity=0 time=6
note_on channel=0 note=86 velocity=0 time=14
note_on channel=0 note=83 velocity=60 time=173
note_on channel=0 note=78 velocity=66 time=3
note_on channel=0 note=88 velocity=55 time=3
note_on channel=0 note=75 velocity=60 time=2
note_on channel=0 note=89 velocity=50 time=7
note_on channel=0 note=77 velocity=56 time=3
note_on channel=0 note=89 velocity=0 time=50
note_on channel=0 note=77 velocity=0 time=2
note_on channel=0 note=88 velocity=0 time=23
note_on channel=0 note=78 velocity=0 time=12
note_on channel=0 note=75 velocity=0 time=18
note_on channel=0 note=83 velocity=0 time=18
note_on channel=0 note=81 velocity=50 time=130
note_on channel=0 note=82 velocity=68 time=5
note_on channel=0 note=66 velocity=46 time=14
note_on channel=0 note=73 velocity=55 time=3
note_on channel=0 note=70 velocity=48 time=1
note_on channel=0 note=65 velocity=46 time=15
note_on channel=0 note=72 velocity=33 time=8
note_on channel=0 note=81 velocity=0 time=28
note_on channel=0 note=66 velocity=0 time=9
note_on channel=0 note=72 velocity=0 time=5
note_on channel=0 note=65 velocity=0 time=11
note_on channel=0 note=73 velocity=0 time=9
note_on channel=0 note=82 velocity=0 time=17
note_on channel=0 note=70 velocity=0 time=16
note_on channel=0 note=77 velocity=72 time=100
note_on channel=0 note=95 velocity=84 time=1
note_on channel=0 note=84 velocity=63 time=12
note_on channel=0 note=83 velocity=61 time=7
note_on channel=0 note=68 velocity=52 time=7
note_on channel=0 note=73 velocity=41 time=27
note_on channel=0 note=77 velocity=0 time=34
note_on channel=0 note=95 velocity=0 time=3
note_on channel=0 note=68 velocity=0 time=2
note_on channel=0 note=84 velocity=0 time=15
note_on channel=0 note=73 velocity=0 time=6
note_on channel=0 note=83 velocity=0 time=10
note_on channel=0 note=80 velocity=61 time=133
note_on channel=0 note=83 velocity=57 time=26
note_on channel=0 note=70 velocity=55 time=1
note_on channel=0 note=71 velocity=56 time=4
note_on channel=0 note=68 velocity=48 time=4
note_on channel=0 note=63 velocity=44 time=16
note_on channel=0 note=83 velocity=0 time=35
note_on channel=0 note=71 velocity=0 time=5
note_on channel=0 note=68 velocity=0 time=16
note_on channel=0 note=63 velocity=0 time=4
note_on channel=0 note=70 velocity=0 time=1
note_on channel=0 note=80 velocity=0 time=25
note_on channel=0 note=61 velocity=53 time=133
note_on channel=0 note=65 velocity=60 time=13
note_on channel=0 note=77 velocity=47 time=2
note_on channel=0 note=76 velocity=56 time=1
note_on channel=0 note=66 velocity=57 time=3
note_on channel=0 note=78 velocity=44 time=23
note_on channel=0 note=64 velocity=56 time=8
note_on channel=0 note=66 velocity=0 time=19
note_on channel=0 note=65 velocity=0 time=24
note_on channel=0 note=81 velocity=42 time=1
note_on channel=0 note=77 velocity=0 time=11
note_on channel=0 note=78 velocity=0 time=1
note_on channel=0 note=76 velocity=0 time=1
note_on channel=0 note=64 velocity=0 time=1
note_on channel=0 note=61 velocity=0 time=24
note_on channel=0 note=81 velocity=0 time=30
note_on channel=0 note=74 velocity=78 time=111
note_on channel=0 note=81 velocity=78 time=1
note_on channel=0 note=93 velocity=84 time=2
note_on channel=0 note=63 velocity=57 time=4
note_on channel=0 note=72 velocity=42 time=43
note_on channel=0 note=68 velocity=41 time=12
note_on channel=0 note=63 velocity=0 time=5
note_on channel=0 note=93 velocity=0 time=18
note_on channel=0 note=74 velocity=0 time=15
note_on channel=0 note=72 velocity=0 time=22
note_on channel=0 note=68 velocity=0 time=4
note_on channel=0 note=81 velocity=0 time=58
note_on channel=0 note=78 velocity=70 time=71
note_on channel=0 note=58 velocity=69 time=29
note_on channel=0 note=76 velocity=51 time=5
note_on channel=0 note=67 velocity=57 time=7
note_on channel=0 note=65 velocity=58 time=6
note_on channel=0 note=64 velocity=33 time=33
note_on channel=0 note=76 velocity=0 time=10
note_on channel=0 note=65 velocity=0 time=6
note_on channel=0 note=67 velocity=0 time=8
note_on channel=0 note=64 velocity=0 time=27
note_on channel=0 note=78 velocity=0 time=16
note_on channel=0 note=58 velocity=0 time=23
note_on channel=0 note=72 velocity=57 time=74
note_on channel=0 note=71 velocity=60 time=2
note_on channel=0 note=58 velocity=57 time=24
note_on channel=0 note=61 velocity=55 time=10
note_on channel=0 note=75 velocity=60 time=0
note_on channel=0 note=64 velocity=43 time=20
note_on channel=0 note=62 velocity=42 time=9
note_on channel=0 note=53 velocity=43 time=2
note_on channel=0 note=55 velocity=34 time=5
note_on channel=0 note=61 velocity=0 time=13
note_on channel=0 note=71 velocity=0 time=21
note_on channel=0 note=72 velocity=0 time=2
note_on channel=0 note=58 velocity=0 time=19
note_on channel=0 note=64 velocity=0 time=0
note_on channel=0 note=55 velocity=0 time=1
note_on channel=0 note=62 velocity=0 time=1
note_on channel=0 note=75 velocity=0 time=6
note_on channel=0 note=53 velocity=0 time=3
note_on channel=0 note=56 velocity=57 time=131
note_on channel=0 note=74 velocity=72 time=1
note_on channel=0 note=65 velocity=57 time=9
note_on channel=0 note=83 velocity=57 time=1
note_on channel=0 note=78 velocity=60 time=2
note_on channel=0 note=84 velocity=50 time=4
note_on channel=0 note=59 velocity=45 time=3
note_on channel=0 note=62 velocity=53 time=2
note_on channel=0 note=56 velocity=0 time=22
note_on channel=0 note=65 velocity=0 time=19
note_on channel=0 note=74 velocity=0 time=2
note_on channel=0 note=84 velocity=0 time=10
note_on channel=0 note=59 velocity=0 time=11
note_on channel=0 note=83 velocity=0 time=18
note_on channel=0 note=62 velocity=0 time=2
note_on channel=0 note=78 velocity=0 time=5
note_on channel=0 note=61 velocity=69 time=133
note_on channel=0 note=91 velocity=84 time=15
note_on channel=0 note=70 velocity=64 time=2
note_on channel=0 note=81 velocity=84 time=1
note_on channel=0 note=85 velocity=75 time=2
note_on channel=0 note=87 velocity=75 time=1
note_on channel=0 note=71 velocity=63 time=14
note_on channel=0 note=72 velocity=63 time=2
note_on channel=0 note=83 velocity=65 time=2
note_on channel=0 note=89 velocity=50 time=2
note_on channel=0 note=63 velocity=40 time=20
note_on channel=0 note=81 velocity=0 time=4
note_on channel=0 note=85 velocity=0 time=8
note_on channel=0 note=71 velocity=0 time=3
note_on channel=0 note=83 velocity=0 time=3
note_on channel=0 note=91 velocity=0 time=1
note_on channel=0 note=72 velocity=0 time=6
note_on channel=0 note=89 velocity=0 time=10
note_on channel=0 note=70 velocity=0 time=14
note_on channel=0 note=63 velocity=0 time=8
note_on channel=0 note=87 velocity=0 time=13
note_on channel=0 note=61 velocity=0 time=40
note_on channel=0 note=75 velocity=91 time=81
note_on channel=0 note=72 velocity=84 time=3
note_on channel=0 note=77 velocity=66 time=12
note_on channel=0 note=63 velocity=72 time=7
note_on channel=0 note=56 velocity=69 time=2
note_on channel=0 note=65 velocity=60 time=17
note_on channel=0 note=64 velocity=51 time=1
note_on channel=0 note=74 velocity=44 time=2
note_on channel=0 note=55 velocity=58 time=2
note_on channel=0 note=60 velocity=46 time=3
note_on channel=0 note=63 velocity=0 time=19
note_on channel=0 note=65 velocity=0 time=20
note_on channel=0 note=64 velocity=0 time=4
note_on channel=0 note=55 velocity=0 time=14
note_on channel=0 note=77 velocity=0 time=1
note_on channel=0 note=60 velocity=0 time=4
note_on channel=0 note=74 velocity=0 time=0
note_on channel=0 note=75 velocity=0 time=13
note_on channel=0 note=72 velocity=0 time=9
note_on channel=0 note=56 velocity=0 time=7
note_on channel=0 note=68 velocity=82 time=110
note_on channel=0 note=70 velocity=63 time=15
note_on channel=0 note=65 velocity=60 time=2
note_on channel=0 note=57 velocity=66 time=3
note_on channel=0 note=67 velocity=60 time=13
note_on channel=0 note=55 velocity=66 time=1
note_on channel=0 note=54 velocity=62 time=1
note_on channel=0 note=47 velocity=65 time=5
note_on channel=0 note=55 velocity=0 time=33
note_on channel=0 note=70 velocity=0 time=1
note_on channel=0 note=67 velocity=0 time=1
note_on channel=0 note=54 velocity=0 time=3
note_on channel=0 note=65 velocity=0 time=3
note_on channel=0 note=68 velocity=0 time=0
note_on channel=0 note=47 velocity=0 time=3
note_on channel=0 note=57 velocity=0 time=27
note_on channel=0 note=54 velocity=85 time=154
note_on channel=0 note=84 velocity=97 time=0
note_on channel=0 note=74 velocity=91 time=6
note_on channel=0 note=64 velocity=85 time=1
note_on channel=0 note=76 velocity=87 time=1
note_on channel=0 note=83 velocity=82 time=4
note_on channel=0 note=62 velocity=75 time=3
note_on channel=0 note=61 velocity=69 time=4
note_on channel=0 note=58 velocity=61 time=5
note_on channel=0 note=63 velocity=66 time=0
note_on channel=0 note=81 velocity=43 time=23
note_on channel=0 note=62 velocity=0 time=4
note_on channel=0 note=79 velocity=40 time=2
note_on channel=0 note=83 velocity=0 time=1
note_on channel=0 note=63 velocity=0 time=6
note_on channel=0 note=64 velocity=0 time=29
note_on channel=0 note=61 velocity=0 time=2
note_on channel=0 note=84 velocity=0 time=19
note_on channel=0 note=81 velocity=0 time=10
note_on channel=0 note=79 velocity=0 time=5
note_on channel=0 note=76 velocity=0 time=2
note_on channel=0 note=74 velocity=0 time=28
note_on channel=0 note=58 velocity=0 time=6
note_on channel=0 note=54 velocity=0 time=36
note_on channel=0 note=73 velocity=79 time=39
note_on channel=0 note=59 velocity=48 time=34
note_on channel=0 note=56 velocity=57 time=6
note_on channel=0 note=67 velocity=60 time=4
note_on channel=0 note=57 velocity=57 time=7
note_on channel=0 note=54 velocity=38 time=11
note_on channel=0 note=56 velocity=0 time=32
note_on channel=0 note=57 velocity=0 time=4
note_on channel=0 note=59 velocity=0 time=15
note_on channel=0 note=49 velocity=46 time=18
note_on channel=0 note=54 velocity=0 time=6
note_on channel=0 note=67 velocity=0 time=0
note_on channel=0 note=73 velocity=0 time=12
note_on channel=0 note=49 velocity=0 time=29
note_on channel=0 note=65 velocity=65 time=102
note_on channel=0 note=64 velocity=66 time=14
note_on channel=0 note=62 velocity=66 time=3
note_on channel=0 note=53 velocity=65 time=13
note_on channel=0 note=44 velocity=66 time=3
note_on channel=0 note=43 velocity=61 time=11
note_on channel=0 note=52 velocity=57 time=7
note_on channel=0 note=53 velocity=0 time=27
note_on channel=0 note=65 velocity=0 time=8
note_on channel=0 note=64 velocity=0 time=11
note_on channel=0 note=62 velocity=0 time=2
note_on channel=0 note=52 velocity=0 time=1
note_on channel=0 note=43 velocity=0 time=59
note_on channel=0 note=44 velocity=0 time=0
note_on channel=0 note=57 velocity=79 time=95
note_on channel=0 note=54 velocity=79 time=1
note_on channel=0 note=46 velocity=79 time=3
note_on channel=0 note=77 velocity=87 time=1
note_on channel=0 note=69 velocity=97 time=1
note_on channel=0 note=59 velocity=85 time=1
note_on channel=0 note=51 velocity=62 time=6
note_on channel=0 note=71 velocity=84 time=8
note_on channel=0 note=55 velocity=47 time=20
note_on channel=0 note=59 velocity=0 time=0
note_on channel=0 note=71 velocity=0 time=8
note_on channel=0 note=57 velocity=0 time=54
note_on channel=0 note=55 velocity=0 time=9
note_on channel=0 note=54 velocity=0 time=26
note_on channel=0 note=77 velocity=0 time=3
note_on channel=0 note=46 velocity=0 time=25
note_on channel=0 note=51 velocity=0 time=7
note_on channel=0 note=69 velocity=0 time=6
note_on channel=0 note=66 velocity=75 time=76
note_on channel=0 note=64 velocity=66 time=15
note_on channel=0 note=50 velocity=47 time=18
note_on channel=0 note=52 velocity=44 time=11
note_on channel=0 note=49 velocity=50 time=15
note_on channel=0 note=42 velocity=38 time=14
note_on channel=0 note=48 velocity=41 time=6
note_on channel=0 note=64 velocity=0 time=0
note_on channel=0 note=49 velocity=0 time=31
note_on channel=0 note=50 velocity=0 time=2
note_on channel=0 note=52 velocity=0 time=5
note_on channel=0 note=66 velocity=0 time=18
note_on channel=0 note=48 velocity=0 time=2
note_on channel=0 note=42 velocity=0 time=16
note_on channel=0 note=57 velocity=79 time=95
note_on channel=0 note=58 velocity=48 time=38
note_on channel=0 note=38 velocity=48 time=16
note_on channel=0 note=45 velocity=56 time=5
note_on channel=0 note=47 velocity=58 time=1
note_on channel=0 note=58 velocity=0 time=32
note_on channel=0 note=38 velocity=0 time=23
note_on channel=0 note=45 velocity=0 time=1
note_on channel=0 note=47 velocity=0 time=7
note_on channel=0 note=57 velocity=0 time=1
note_on channel=0 note=69 velocity=87 time=119
note_on channel=0 note=48 velocity=85 time=2
note_on channel=0 note=44 velocity=75 time=4
note_on channel=0 note=59 velocity=82 time=7
note_on channel=0 note=60 velocity=85 time=1
note_on channel=0 note=66 velocity=66 time=2
note_on channel=0 note=40 velocity=53 time=3
note_on channel=0 note=43 velocity=65 time=1
note_on channel=0 note=37 velocity=54 time=1
note_on channel=0 note=47 velocity=57 time=9
note_on channel=0 note=41 velocity=40 time=27
note_on channel=0 note=44 velocity=0 time=26
note_on channel=0 note=47 velocity=0 time=2
note_on channel=0 note=48 velocity=0 time=9
note_on channel=0 note=69 velocity=0 time=19
note_on channel=0 note=60 velocity=0 time=4
note_on channel=0 note=41 velocity=0 time=5
note_on channel=0 note=66 velocity=0 time=6
note_on channel=0 note=43 velocity=0 time=13
note_on channel=0 note=37 velocity=0 time=14
note_on channel=0 note=40 velocity=0 time=18
note_on channel=0 note=59 velocity=0 time=6
note_on channel=0 note=41 velocity=59 time=72
note_on channel=0 note=58 velocity=79 time=2
note_on channel=0 note=43 velocity=69 time=2
note_on channel=0 note=56 velocity=72 time=15
note_on channel=0 note=37 velocity=53 time=55
note_on channel=0 note=43 velocity=0 time=39
note_on channel=0 note=41 velocity=0 time=11
note_on channel=0 note=56 velocity=0 time=1
note_on channel=0 note=58 velocity=0 time=20
note_on channel=0 note=37 velocity=0 time=39
note_on channel=0 note=56 velocity=51 time=55
note_on channel=0 note=54 velocity=79 time=3
note_on channel=0 note=36 velocity=64 time=32
note_on channel=0 note=38 velocity=80 time=5
note_on channel=0 note=34 velocity=44 time=22
note_on channel=0 note=47 velocity=57 time=3
note_on channel=0 note=29 velocity=48 time=1
note_on channel=0 note=48 velocity=45 time=11
note_on channel=0 note=56 velocity=0 time=31
note_on channel=0 note=34 velocity=0 time=5
note_on channel=0 note=29 velocity=0 time=18
note_on channel=0 note=48 velocity=0 time=18
note_on channel=0 note=47 velocity=0 time=12
note_on channel=0 note=54 velocity=0 time=18
note_on channel=0 note=38 velocity=0 time=51
note_on channel=0 note=26 velocity=83 time=5
note_on channel=0 note=28 velocity=73 time=1
note_on channel=0 note=47 velocity=69 time=12
note_on channel=0 note=30 velocity=57 time=1
note_on channel=0 note=36 velocity=0 time=0
note_on channel=0 note=48 velocity=79 time=1
note_on channel=0 note=29 velocity=44 time=21
note_on channel=0 note=54 velocity=39 time=4
note_on channel=0 note=56 velocity=47 time=15
note_on channel=0 note=30 velocity=0 time=1
note_on channel=0 note=26 velocity=0 time=31
note_on channel=0 note=29 velocity=0 time=21
note_on channel=0 note=56 velocity=0 time=3
note_on channel=0 note=54 velocity=0 time=1
note_on channel=0 note=47 velocity=0 time=22
note_on channel=0 note=48 velocity=0 time=0
note_on channel=0 note=28 velocity=0 time=46
note_on channel=0 note=40 velocity=86 time=63
note_on channel=0 note=38 velocity=86 time=5
note_on channel=0 note=56 velocity=98 time=17
note_on channel=0 note=31 velocity=44 time=5
note_on channel=0 note=58 velocity=82 time=4
note_on channel=0 note=53 velocity=72 time=2
note_on channel=0 note=52 velocity=75 time=1
note_on channel=0 note=32 velocity=50 time=1
note_on channel=0 note=52 velocity=0 time=40
note_on channel=0 note=32 velocity=0 time=5
note_on channel=0 note=53 velocity=0 time=1
note_on channel=0 note=31 velocity=0 time=2
note_on channel=0 note=38 velocity=0 time=22
note_on channel=0 note=56 velocity=0 time=27
note_on channel=0 note=58 velocity=0 time=16
note_on channel=0 note=40 velocity=0 time=5
note_on channel=0 note=60 velocity=79 time=105
note_on channel=0 note=59 velocity=79 time=1
note_on channel=0 note=49 velocity=82 time=8
note_on channel=0 note=69 velocity=66 time=0
note_on channel=0 note=64 velocity=61 time=5
note_on channel=0 note=62 velocity=60 time=2
note_on channel=0 note=47 velocity=57 time=6
note_on channel=0 note=45 velocity=65 time=1
note_on channel=0 note=46 velocity=57 time=3
note_on channel=0 note=63 velocity=44 time=9
note_on channel=0 note=52 velocity=66 time=3
note_on channel=0 note=69 velocity=0 time=19
note_on channel=0 note=50 velocity=66 time=9
note_on channel=0 note=46 velocity=0 time=6
note_on channel=0 note=63 velocity=0 time=0
note_on channel=0 note=62 velocity=0 time=11
note_on channel=0 note=45 velocity=0 time=1
note_on channel=0 note=47 velocity=0 time=0
note_on channel=0 note=64 velocity=0 time=1
note_on channel=0 note=60 velocity=0 time=4
note_on channel=0 note=59 velocity=0 time=5
note_on channel=0 note=49 velocity=0 time=5
note_on channel=0 note=52 velocity=0 time=18
note_on channel=0 note=50 velocity=0 time=19
note_on channel=0 note=67 velocity=87 time=106
note_on channel=0 note=73 velocity=87 time=2
note_on channel=0 note=51 velocity=75 time=2
note_on channel=0 note=77 velocity=82 time=1
note_on channel=0 note=69 velocity=87 time=4
note_on channel=0 note=60 velocity=93 time=3
note_on channel=0 note=62 velocity=107 time=6
note_on channel=0 note=76 velocity=63 time=3
note_on channel=0 note=50 velocity=61 time=1
note_on channel=0 note=54 velocity=64 time=1
note_on channel=0 note=58 velocity=62 time=10
note_on channel=0 note=59 velocity=63 time=2
note_on channel=0 note=75 velocity=40 time=5
note_on channel=0 note=69 velocity=0 time=1
note_on channel=0 note=52 velocity=57 time=1
note_on channel=0 note=67 velocity=0 time=21
note_on channel=0 note=58 velocity=0 time=14
note_on channel=0 note=59 velocity=0 time=0
note_on channel=0 note=75 velocity=0 time=7
note_on channel=0 note=52 velocity=0 time=5
note_on channel=0 note=50 velocity=0 time=10
note_on channel=0 note=51 velocity=0 time=1
note_on channel=0 note=76 velocity=0 time=23
note_on channel=0 note=73 velocity=0 time=2
note_on channel=0 note=54 velocity=0 time=5
note_on channel=0 note=77 velocity=0 time=3
note_on channel=0 note=62 velocity=0 time=9
note_on channel=0 note=60 velocity=0 time=4
note_on channel=0 note=91 velocity=104 time=102
note_on channel=0 note=87 velocity=87 time=9
note_on channel=0 note=63 velocity=82 time=4
note_on channel=0 note=83 velocity=78 time=1
note_on channel=0 note=71 velocity=104 time=2
note_on channel=0 note=66 velocity=75 time=3
note_on channel=0 note=69 velocity=87 time=1
note_on channel=0 note=84 velocity=69 time=3
note_on channel=0 note=68 velocity=43 time=24
note_on channel=0 note=84 velocity=0 time=10
note_on channel=0 note=91 velocity=0 time=23
note_on channel=0 note=64 velocity=41 time=4
note_on channel=0 note=87 velocity=0 time=1
note_on channel=0 note=68 velocity=0 time=10
note_on channel=0 note=69 velocity=0 time=12
note_on channel=0 note=71 velocity=0 time=6
note_on channel=0 note=83 velocity=0 time=22
note_on channel=0 note=63 velocity=0 time=9
note_on channel=0 note=64 velocity=0 time=3
note_on channel=0 note=66 velocity=0 time=6
note_on channel=0 note=78 velocity=75 time=93
note_on channel=0 note=75 velocity=73 time=8
note_on channel=0 note=61 velocity=89 time=3
note_on channel=0 note=62 velocity=89 time=0
note_on channel=0 note=64 velocity=85 time=2
note_on channel=0 note=71 velocity=75 time=2
note_on channel=0 note=69 velocity=82 time=2
note_on channel=0 note=76 velocity=72 time=1
note_on channel=0 note=58 velocity=82 time=1
note_on channel=0 note=54 velocity=85 time=1
note_on channel=0 note=74 velocity=75 time=1
note_on channel=0 note=56 velocity=69 time=4
note_on channel=0 note=73 velocity=52 time=12
note_on channel=0 note=73 velocity=0 time=59
note_on channel=0 note=62 velocity=0 time=17
note_on channel=0 note=71 velocity=0 time=3
note_on channel=0 note=64 velocity=0 time=3
note_on channel=0 note=78 velocity=0 time=3
note_on channel=0 note=54 velocity=0 time=1
note_on channel=0 note=69 velocity=0 time=6
note_on channel=0 note=56 velocity=0 time=6
note_on channel=0 note=75 velocity=0 time=1
note_on channel=0 note=74 velocity=0 time=3
note_on channel=0 note=76 velocity=0 time=13
note_on channel=0 note=61 velocity=0 time=8
note_on channel=0 note=58 velocity=0 time=6
note_on channel=0 note=70 velocity=85 time=77
note_on channel=0 note=73 velocity=75 time=2
note_on channel=0 note=65 velocity=82 time=2
note_on channel=0 note=67 velocity=78 time=5
note_on channel=0 note=53 velocity=82 time=5
note_on channel=0 note=54 velocity=79 time=5
note_on channel=0 note=56 velocity=57 time=13
note_on channel=0 note=58 velocity=53 time=22
note_on channel=0 note=60 velocity=61 time=3
note_on channel=0 note=61 velocity=44 time=10
note_on channel=0 note=57 velocity=52 time=4
note_on channel=0 note=65 velocity=0 time=2
note_on channel=0 note=56 velocity=0 time=16
note_on channel=0 note=58 velocity=0 time=8
note_on channel=0 note=67 velocity=0 time=3
note_on channel=0 note=70 velocity=0 time=0
note_on channel=0 note=61 velocity=0 time=3
note_on channel=0 note=60 velocity=0 time=7
note_on channel=0 note=57 velocity=0 time=11
note_on channel=0 note=73 velocity=0 time=0
note_on channel=0 note=54 velocity=0 time=2
note_on channel=0 note=53 velocity=0 time=2
note_on channel=0 note=86 velocity=104 time=128
note_on channel=0 note=94 velocity=91 time=4
note_on channel=0 note=95 velocity=104 time=0
note_on channel=0 note=96 velocity=91 time=1
note_on channel=0 note=84 velocity=97 time=2
note_on channel=0 note=92 velocity=81 time=4
note_on channel=0 note=76 velocity=117 time=2
note_on channel=0 note=68 velocity=85 time=3
note_on channel=0 note=75 velocity=91 time=0
note_on channel=0 note=77 velocity=117 time=2
note_on channel=0 note=88 velocity=65 time=6
note_on channel=0 note=90 velocity=52 time=2
note_on channel=0 note=67 velocity=72 time=4
note_on channel=0 note=72 velocity=61 time=2
note_on channel=0 note=92 velocity=0 time=16
note_on channel=0 note=88 velocity=0 time=9
note_on channel=0 note=71 velocity=49 time=6
note_on channel=0 note=90 velocity=0 time=9
note_on channel=0 note=84 velocity=0 time=46
note_on channel=0 note=71 velocity=0 time=12
note_on channel=0 note=86 velocity=0 time=2
note_on channel=0 note=76 velocity=0 time=2
note_on channel=0 note=77 velocity=0 time=1
note_on channel=0 note=96 velocity=0 time=4
note_on channel=0 note=72 velocity=0 time=9
note_on channel=0 note=94 velocity=0 time=3
note_on channel=0 note=75 velocity=0 time=5
note_on channel=0 note=67 velocity=0 time=1
note_on channel=0 note=68 velocity=0 time=8
note_on channel=0 note=95 velocity=0 time=0
note_on channel=0 note=75 velocity=64 time=75
note_on channel=0 note=85 velocity=70 time=6
note_on channel=0 note=82 velocity=75 time=14
note_on channel=0 note=68 velocity=48 time=1
note_on channel=0 note=79 velocity=56 time=6
note_on channel=0 note=77 velocity=48 time=25
note_on channel=0 note=79 velocity=0 time=29
note_on channel=0 note=77 velocity=0 time=45
note_on channel=0 note=82 velocity=0 time=37
note_on channel=0 note=85 velocity=0 time=3
note_on channel=0 note=75 velocity=0 time=5
note_on channel=0 note=68 velocity=0 time=28
note_on channel=0 note=76 velocity=75 time=64
note_on channel=0 note=72 velocity=66 time=8
note_on channel=0 note=71 velocity=63 time=10
note_on channel=0 note=67 velocity=49 time=16
note_on channel=0 note=80 velocity=41 time=7
note_on channel=0 note=68 velocity=42 time=11
note_on channel=0 note=73 velocity=36 time=4
note_on channel=0 note=71 velocity=0 time=4
note_on channel=0 note=80 velocity=0 time=38
note_on channel=0 note=68 velocity=0 time=13
note_on channel=0 note=76 velocity=0 time=3
note_on channel=0 note=67 velocity=0 time=5
note_on channel=0 note=73 velocity=0 time=10
note_on channel=0 note=72 velocity=0 time=1
note_on channel=0 note=86 velocity=91 time=121
note_on channel=0 note=77 velocity=87 time=9
note_on channel=0 note=74 velocity=97 time=1
note_on channel=0 note=66 velocity=66 time=1
note_on channel=0 note=72 velocity=91 time=0
note_on channel=0 note=76 velocity=91 time=3
note_on channel=0 note=80 velocity=82 time=1
note_on channel=0 note=65 velocity=66 time=7
note_on channel=0 note=82 velocity=73 time=0
note_on channel=0 note=68 velocity=63 time=2
note_on channel=0 note=73 velocity=56 time=4
note_on channel=0 note=84 velocity=52 time=11
note_on channel=0 note=73 velocity=0 time=34
note_on channel=0 note=76 velocity=0 time=26
note_on channel=0 note=84 velocity=0 time=2
note_on channel=0 note=86 velocity=0 time=14
note_on channel=0 note=74 velocity=0 time=6
note_on channel=0 note=82 velocity=0 time=22
note_on channel=0 note=72 velocity=0 time=12
note_on channel=0 note=77 velocity=0 time=0
note_on channel=0 note=80 velocity=0 time=3
note_on channel=0 note=65 velocity=0 time=10
note_on channel=0 note=66 velocity=0 time=10
note_on channel=0 note=68 velocity=0 time=26
note_on channel=0 note=71 velocity=58 time=95
note_on channel=0 note=72 velocity=50 time=0
note_on channel=0 note=76 velocity=44 time=3
note_on channel=0 note=72 velocity=0 time=64
note_on channel=0 note=76 velocity=0 time=2
note_on channel=0 note=71 velocity=0 time=6
note_on channel=0 note=71 velocity=65 time=138
note_on channel=0 note=57 velocity=57 time=1
note_on channel=0 note=58 velocity=37 time=20
note_on channel=0 note=73 velocity=43 time=12
note_on channel=0 note=61 velocity=35 time=3
note_on channel=0 note=73 velocity=0 time=62
note_on channel=0 note=61 velocity=0 time=12
note_on channel=0 note=71 velocity=0 time=14
note_on channel=0 note=69 velocity=69 time=111
note_on channel=0 note=73 velocity=79 time=1
note_on channel=0 note=71 velocity=66 time=2
note_on channel=0 note=67 velocity=72 time=1
note_on channel=0 note=81 velocity=78 time=1
note_on channel=0 note=75 velocity=73 time=2
note_on channel=0 note=66 velocity=66 time=5
note_on channel=0 note=72 velocity=65 time=9
note_on channel=0 note=61 velocity=66 time=2
note_on channel=0 note=78 velocity=52 time=9
note_on channel=0 note=72 velocity=0 time=31
note_on channel=0 note=78 velocity=0 time=29
note_on channel=0 note=67 velocity=0 time=2
note_on channel=0 note=69 velocity=0 time=9
note_on channel=0 note=81 velocity=0 time=0
note_on channel=0 note=71 velocity=0 time=28
note_on channel=0 note=66 velocity=0 time=19
note_on channel=0 note=73 velocity=0 time=7
note_on channel=0 note=75 velocity=0 time=1
note_on channel=0 note=57 velocity=0 time=4
note_on channel=0 note=58 velocity=0 time=14
note_on channel=0 note=61 velocity=0 time=38
note_on channel=0 note=67 velocity=82 time=29
note_on channel=0 note=73 velocity=44 time=10
note_on channel=0 note=64 velocity=48 time=23
note_on channel=0 note=62 velocity=50 time=5
note_on channel=0 note=73 velocity=0 time=33
note_on channel=0 note=62 velocity=0 time=53
note_on channel=0 note=64 velocity=0 time=1
note_on channel=0 note=67 velocity=0 time=0
note_on channel=0 note=51 velocity=64 time=61
note_on channel=0 note=72 velocity=72 time=35
note_on channel=0 note=50 velocity=58 time=4
note_on channel=0 note=65 velocity=66 time=1
note_on channel=0 note=70 velocity=73 time=2
note_on channel=0 note=75 velocity=51 time=17
note_on channel=0 note=58 velocity=59 time=1
note_on channel=0 note=52 velocity=53 time=7
note_on channel=0 note=71 velocity=53 time=2
note_on channel=0 note=65 velocity=0 time=12
note_on channel=0 note=75 velocity=0 time=25
note_on channel=0 note=71 velocity=0 time=16
note_on channel=0 note=70 velocity=0 time=38
note_on channel=0 note=72 velocity=0 time=14
note_on channel=0 note=58 velocity=0 time=29
note_on channel=0 note=52 velocity=0 time=31
note_on channel=0 note=62 velocity=85 time=37
note_on channel=0 note=69 velocity=82 time=6
note_on channel=0 note=64 velocity=93 time=1
note_on channel=0 note=81 velocity=91 time=1
note_on channel=0 note=67 velocity=72 time=2
note_on channel=0 note=60 velocity=85 time=4
note_on channel=0 note=50 velocity=0 time=7
note_on channel=0 note=58 velocity=45 time=5
note_on channel=0 note=79 velocity=63 time=1
note_on channel=0 note=71 velocity=69 time=2
note_on channel=0 note=73 velocity=46 time=10
note_on channel=0 note=67 velocity=0 time=3
note_on channel=0 note=52 velocity=32 time=2
note_on channel=0 note=78 velocity=35 time=1
note_on channel=0 note=71 velocity=0 time=22
note_on channel=0 note=51 velocity=0 time=14
note_on channel=0 note=58 velocity=0 time=3
note_on channel=0 note=78 velocity=0 time=14
note_on channel=0 note=73 velocity=0 time=4
note_on channel=0 note=69 velocity=0 time=8
note_on channel=0 note=79 velocity=0 time=28
note_on channel=0 note=60 velocity=0 time=1
note_on channel=0 note=52 velocity=0 time=2
note_on channel=0 note=81 velocity=0 time=25
note_on channel=0 note=64 velocity=0 time=30
note_on channel=0 note=62 velocity=0 time=22
note_on channel=0 note=73 velocity=75 time=41
note_on channel=0 note=52 velocity=31 time=22
note_on channel=0 note=58 velocity=57 time=0
note_on channel=0 note=65 velocity=60 time=2
note_on channel=0 note=56 velocity=62 time=10
note_on channel=0 note=72 velocity=39 time=20
note_on channel=0 note=71 velocity=37 time=6
note_on channel=0 note=74 velocity=34 time=0
note_on channel=0 note=65 velocity=0 time=13
note_on channel=0 note=58 velocity=0 time=8
note_on channel=0 note=71 velocity=0 time=30
note_on channel=0 note=74 velocity=0 time=1
note_on channel=0 note=72 velocity=0 time=3
note_on channel=0 note=73 velocity=0 time=19
note_on channel=0 note=52 velocity=0 time=4
note_on channel=0 note=56 velocity=0 time=39
note_on channel=0 note=62 velocity=79 time=48
note_on channel=0 note=70 velocity=70 time=11
note_on channel=0 note=59 velocity=57 time=3
note_on channel=0 note=64 velocity=69 time=1
note_on channel=0 note=68 velocity=64 time=1
note_on channel=0 note=57 velocity=69 time=7
note_on channel=0 note=64 velocity=0 time=27
note_on channel=0 note=68 velocity=0 time=19
note_on channel=0 note=62 velocity=0 time=15
note_on channel=0 note=70 velocity=0 time=41
note_on channel=0 note=57 velocity=0 time=39
note_on channel=0 note=59 velocity=0 time=49
note_on channel=0 note=51 velocity=57 time=49
note_on channel=0 note=54 velocity=57 time=3
note_on channel=0 note=83 velocity=91 time=7
note_on channel=0 note=50 velocity=57 time=7
note_on channel=0 note=71 velocity=82 time=0
note_on channel=0 note=72 velocity=84 time=0
note_on channel=0 note=82 velocity=68 time=9
note_on channel=0 note=56 velocity=42 time=26
note_on channel=0 note=82 velocity=0 time=16
note_on channel=0 note=83 velocity=0 time=17
note_on channel=0 note=72 velocity=0 time=14
note_on channel=0 note=71 velocity=0 time=2
note_on channel=0 note=62 velocity=34 time=13
note_on channel=0 note=56 velocity=0 time=6
note_on channel=0 note=54 velocity=0 time=37
note_on channel=0 note=62 velocity=0 time=1
note_on channel=0 note=50 velocity=0 time=22
note_on channel=0 note=51 velocity=0 time=8
note_on channel=0 note=73 velocity=79 time=49
note_on channel=0 note=65 velocity=66 time=7
note_on channel=0 note=64 velocity=82 time=2
note_on channel=0 note=70 velocity=75 time=0
note_on channel=0 note=56 velocity=72 time=8
note_on channel=0 note=60 velocity=46 time=0
note_on channel=0 note=51 velocity=52 time=9
note_on channel=0 note=50 velocity=48 time=4
note_on channel=0 note=62 velocity=32 time=15
note_on channel=0 note=54 velocity=48 time=3
note_on channel=0 note=65 velocity=0 time=29
note_on channel=0 note=64 velocity=0 time=7
note_on channel=0 note=60 velocity=0 time=1
note_on channel=0 note=62 velocity=0 time=0
note_on channel=0 note=50 velocity=0 time=3
note_on channel=0 note=70 velocity=0 time=0
note_on channel=0 note=73 velocity=0 time=37
note_on channel=0 note=56 velocity=0 time=7
note_on channel=0 note=51 velocity=0 time=49
note_on channel=0 note=54 velocity=0 time=2
note_on channel=0 note=68 velocity=75 time=54
note_on channel=0 note=66 velocity=75 time=3
note_on channel=0 note=59 velocity=82 time=5
note_on channel=0 note=60 velocity=79 time=1
note_on channel=0 note=52 velocity=69 time=9
note_on channel=0 note=53 velocity=63 time=0
note_on channel=0 note=45 velocity=50 time=44
note_on channel=0 note=43 velocity=39 time=20
note_on channel=0 note=59 velocity=0 time=19
note_on channel=0 note=60 velocity=0 time=2
note_on channel=0 note=45 velocity=0 time=20
note_on channel=0 note=66 velocity=0 time=8
note_on channel=0 note=52 velocity=0 time=3
note_on channel=0 note=43 velocity=0 time=2
note_on channel=0 note=68 velocity=0 time=9
note_on channel=0 note=53 velocity=0 time=37
note_on channel=0 note=67 velocity=84 time=58
note_on channel=0 note=77 velocity=87 time=0
note_on channel=0 note=49 velocity=64 time=4
note_on channel=0 note=46 velocity=62 time=1
note_on channel=0 note=69 velocity=87 time=4
note_on channel=0 note=45 velocity=57 time=4
note_on channel=0 note=75 velocity=45 time=18
note_on channel=0 note=51 velocity=44 time=1
note_on channel=0 note=69 velocity=0 time=9
note_on channel=0 note=77 velocity=0 time=44
note_on channel=0 note=51 velocity=0 time=2
note_on channel=0 note=75 velocity=0 time=9
note_on channel=0 note=67 velocity=0 time=2
note_on channel=0 note=46 velocity=0 time=23
note_on channel=0 note=45 velocity=0 time=7
note_on channel=0 note=49 velocity=0 time=25
note_on channel=0 note=52 velocity=85 time=96
note_on channel=0 note=53 velocity=89 time=3
note_on channel=0 note=69 velocity=87 time=2
note_on channel=0 note=59 velocity=89 time=7
note_on channel=0 note=66 velocity=79 time=0
note_on channel=0 note=49 velocity=62 time=1
note_on channel=0 note=63 velocity=79 time=2
note_on channel=0 note=57 velocity=93 time=2
note_on channel=0 note=42 velocity=51 time=13
note_on channel=0 note=40 velocity=61 time=2
note_on channel=0 note=50 velocity=53 time=1
note_on channel=0 note=46 velocity=48 time=4
note_on channel=0 note=60 velocity=52 time=11
note_on channel=0 note=67 velocity=39 time=1
note_on channel=0 note=46 velocity=0 time=46
note_on channel=0 note=67 velocity=0 time=7
note_on channel=0 note=41 velocity=27 time=1
note_on channel=0 note=60 velocity=0 time=1
note_on channel=0 note=50 velocity=0 time=4
note_on channel=0 note=53 velocity=0 time=6
note_on channel=0 note=52 velocity=0 time=8
note_on channel=0 note=49 velocity=0 time=6
note_on channel=0 note=63 velocity=0 time=0
note_on channel=0 note=57 velocity=0 time=2
note_on channel=0 note=59 velocity=0 time=10
note_on channel=0 note=69 velocity=0 time=0
note_on channel=0 note=66 velocity=0 time=9
note_on channel=0 note=42 velocity=0 time=28
note_on channel=0 note=41 velocity=0 time=42
note_on channel=0 note=40 velocity=0 time=35
note_on channel=0 note=47 velocity=48 time=19
note_on channel=0 note=63 velocity=46 time=3
note_on channel=0 note=57 velocity=44 time=1
note_on channel=0 note=48 velocity=58 time=6
note_on channel=0 note=55 velocity=57 time=3
note_on channel=0 note=63 velocity=0 time=49
note_on channel=0 note=55 velocity=0 time=10
note_on channel=0 note=57 velocity=0 time=27
note_on channel=0 note=48 velocity=0 time=83
note_on channel=0 note=47 velocity=0 time=22
note_on channel=0 note=36 velocity=42 time=22
note_on channel=0 note=35 velocity=49 time=11
note_on channel=0 note=57 velocity=65 time=15
note_on channel=0 note=35 velocity=0 time=32
note_on channel=0 note=57 velocity=0 time=76
note_on channel=0 note=36 velocity=0 time=109
note_on channel=0 note=43 velocity=82 time=21
note_on channel=0 note=45 velocity=82 time=2
note_on channel=0 note=55 velocity=75 time=3
note_on channel=0 note=57 velocity=85 time=4
note_on channel=0 note=61 velocity=64 time=4
note_on channel=0 note=65 velocity=65 time=0
note_on channel=0 note=63 velocity=61 time=2
note_on channel=0 note=41 velocity=48 time=23
note_on channel=0 note=38 velocity=46 time=19
note_on channel=0 note=64 velocity=38 time=3
note_on channel=0 note=57 velocity=0 time=60
note_on channel=0 note=55 velocity=0 time=23
note_on channel=0 note=65 velocity=0 time=4
note_on channel=0 note=64 velocity=0 time=3
note_on channel=0 note=61 velocity=0 time=17
note_on channel=0 note=45 velocity=0 time=4
note_on channel=0 note=41 velocity=0 time=11
note_on channel=0 note=32 velocity=66 time=6
note_on channel=0 note=43 velocity=0 time=1
note_on channel=0 note=34 velocity=50 time=8
note_on channel=0 note=63 velocity=0 time=17
note_on channel=0 note=38 velocity=0 time=27
note_on channel=0 note=34 velocity=0 time=16
note_on channel=0 note=53 velocity=60 time=18
note_on channel=0 note=52 velocity=61 time=19
note_on channel=0 note=52 velocity=0 time=43
note_on channel=0 note=40 velocity=48 time=7
note_on channel=0 note=32 velocity=0 time=11
note_on channel=0 note=53 velocity=0 time=71
note_on channel=0 note=32 velocity=59 time=88
note_on channel=0 note=53 velocity=56 time=12
note_on channel=0 note=28 velocity=57 time=7
note_on channel=0 note=29 velocity=52 time=7
note_on channel=0 note=40 velocity=0 time=7
note_on channel=0 note=55 velocity=44 time=36
note_on channel=0 note=55 velocity=0 time=66
note_on channel=0 note=53 velocity=0 time=31
note_on channel=0 note=29 velocity=0 time=15
note_on channel=0 note=32 velocity=0 time=9
note_on channel=0 note=38 velocity=90 time=47
note_on channel=0 note=60 velocity=93 time=2
note_on channel=0 note=50 velocity=93 time=5
note_on channel=0 note=48 velocity=85 time=1
note_on channel=0 note=40 velocity=90 time=4
note_on channel=0 note=34 velocity=68 time=14
note_on channel=0 note=34 velocity=0 time=36
note_on channel=0 note=50 velocity=0 time=71
note_on channel=0 note=48 velocity=0 time=7
note_on channel=0 note=60 velocity=0 time=9
note_on channel=0 note=40 velocity=0 time=43
note_on channel=0 note=38 velocity=0 time=13
note_on channel=0 note=34 velocity=49 time=10
note_on channel=0 note=32 velocity=61 time=1
note_on channel=0 note=60 velocity=57 time=7
note_on channel=0 note=56 velocity=69 time=11
note_on channel=0 note=54 velocity=72 time=8
note_on channel=0 note=48 velocity=47 time=9
note_on channel=0 note=60 velocity=0 time=19
note_on channel=0 note=48 velocity=0 time=43
note_on channel=0 note=34 velocity=0 time=21
note_on channel=0 note=54 velocity=0 time=27
note_on channel=0 note=56 velocity=0 time=10
note_on channel=0 note=28 velocity=0 time=15
note_on channel=0 note=32 velocity=0 time=3
note_on channel=0 note=33 velocity=76 time=81
note_on channel=0 note=35 velocity=83 time=10
note_on channel=0 note=59 velocity=89 time=3
note_on channel=0 note=31 velocity=73 time=4
note_on channel=0 note=48 velocity=79 time=0
note_on channel=0 note=58 velocity=55 time=4
note_on channel=0 note=47 velocity=85 time=4
note_on channel=0 note=50 velocity=82 time=8
note_on channel=0 note=35 velocity=0 time=2
note_on channel=0 note=31 velocity=0 time=14
note_on channel=0 note=50 velocity=0 time=17
note_on channel=0 note=58 velocity=0 time=54
note_on channel=0 note=47 velocity=0 time=6
note_on channel=0 note=48 velocity=0 time=23
note_on channel=0 note=59 velocity=0 time=7
note_on channel=0 note=54 velocity=75 time=78
note_on channel=0 note=51 velocity=59 time=27
note_on channel=0 note=33 velocity=0 time=1
note_on channel=0 note=27 velocity=48 time=4
note_on channel=0 note=47 velocity=46 time=1
note_on channel=0 note=23 velocity=53 time=2
note_on channel=0 note=24 velocity=64 time=1
note_on channel=0 note=25 velocity=50 time=3
note_on channel=0 note=27 velocity=0 time=51
note_on channel=0 note=51 velocity=0 time=5
note_on channel=0 note=47 velocity=0 time=4
note_on channel=0 note=54 velocity=0 time=57
note_on channel=0 note=23 velocity=0 time=23
note_on channel=0 note=43 velocity=89 time=77
note_on channel=0 note=45 velocity=85 time=1
note_on channel=0 note=33 velocity=80 time=11
note_on channel=0 note=25 velocity=0 time=68
note_on channel=0 note=45 velocity=0 time=74
note_on channel=0 note=43 velocity=0 time=3
note_on channel=0 note=33 velocity=0 time=85
note_on channel=0 note=27 velocity=66 time=6
note_on channel=0 note=30 velocity=59 time=0
note_on channel=0 note=49 velocity=82 time=7
note_on channel=0 note=50 velocity=58 time=16
note_on channel=0 note=30 velocity=0 time=115
note_on channel=0 note=50 velocity=0 time=6
note_on channel=0 note=49 velocity=0 time=15
note_on channel=0 note=27 velocity=0 time=71
note_on channel=0 note=28 velocity=76 time=19
note_on channel=0 note=29 velocity=86 time=1
note_on channel=0 note=41 velocity=76 time=1
note_on channel=0 note=49 velocity=51 time=3
note_on channel=0 note=43 velocity=98 time=1
note_on channel=0 note=49 velocity=0 time=46
note_on channel=0 note=43 velocity=0 time=105
note_on channel=0 note=41 velocity=0 time=9
note_on channel=0 note=29 velocity=0 time=59
note_on channel=0 note=46 velocity=66 time=2
note_on channel=0 note=27 velocity=75 time=3
note_on channel=0 note=49 velocity=57 time=9
note_on channel=0 note=41 velocity=36 time=9
note_on channel=0 note=43 velocity=44 time=3
note_on channel=0 note=30 velocity=39 time=8
note_on channel=0 note=28 velocity=0 time=6
note_on channel=0 note=41 velocity=0 time=35
note_on channel=0 note=43 velocity=0 time=15
note_on channel=0 note=30 velocity=0 time=5
note_on channel=0 note=46 velocity=0 time=87
note_on channel=0 note=23 velocity=36 time=2
note_on channel=0 note=49 velocity=0 time=7
note_on channel=0 note=21 velocity=46 time=26
note_on channel=0 note=27 velocity=0 time=21
note_on channel=0 note=41 velocity=73 time=24
note_on channel=0 note=26 velocity=76 time=1
note_on channel=0 note=43 velocity=79 time=0
note_on channel=0 note=46 velocity=56 time=2
note_on channel=0 note=49 velocity=49 time=21
note_on channel=0 note=24 velocity=0 time=1
note_on channel=0 note=47 velocity=43 time=21
note_on channel=0 note=23 velocity=0 time=2
note_on channel=0 note=21 velocity=0 time=6
note_on channel=0 note=46 velocity=0 time=12
note_on channel=0 note=51 velocity=34 time=19
note_on channel=0 note=49 velocity=0 time=3
note_on channel=0 note=47 velocity=0 time=17
note_on channel=0 note=51 velocity=0 time=40
note_on channel=0 note=43 velocity=0 time=10
note_on channel=0 note=41 velocity=0 time=9
note_on channel=0 note=46 velocity=82 time=63
note_on channel=0 note=49 velocity=79 time=2
note_on channel=0 note=25 velocity=39 time=18
note_on channel=0 note=41 velocity=44 time=6
note_on channel=0 note=24 velocity=42 time=7
note_on channel=0 note=26 velocity=0 time=0
note_on channel=0 note=43 velocity=35 time=8
note_on channel=0 note=21 velocity=37 time=28
note_on channel=0 note=25 velocity=0 time=1
note_on channel=0 note=43 velocity=0 time=17
note_on channel=0 note=41 velocity=0 time=3
note_on channel=0 note=24 velocity=0 time=12
note_on channel=0 note=46 velocity=0 time=40
note_on channel=0 note=21 velocity=0 time=33
note_on channel=0 note=49 velocity=0 time=7
note_on channel=0 note=21 velocity=73 time=70
note_on channel=0 note=23 velocity=80 time=7
note_on channel=0 note=43 velocity=79 time=5
note_on channel=0 note=53 velocity=93 time=0
note_on channel=0 note=41 velocity=80 time=5
note_on channel=0 note=22 velocity=78 time=1
note_on channel=0 note=45 velocity=82 time=6
note_on channel=0 note=54 velocity=57 time=1
note_on channel=0 note=46 velocity=56 time=15
note_on channel=0 note=45 velocity=0 time=14
note_on channel=0 note=54 velocity=0 time=9
note_on channel=0 note=46 velocity=0 time=20
note_on channel=0 note=41 velocity=0 time=42
note_on channel=0 note=43 velocity=0 time=10
note_on channel=0 note=22 velocity=0 time=60
note_on channel=0 note=33 velocity=61 time=38
note_on channel=0 note=49 velocity=52 time=8
note_on channel=0 note=45 velocity=47 time=1
note_on channel=0 note=43 velocity=44 time=8
note_on channel=0 note=21 velocity=0 time=32
note_on channel=0 note=45 velocity=0 time=22
note_on channel=0 note=43 velocity=0 time=1
note_on channel=0 note=53 velocity=0 time=31
note_on channel=0 note=49 velocity=0 time=32
note_on channel=0 note=33 velocity=0 time=75
note_on channel=0 note=25 velocity=56 time=47
note_on channel=0 note=54 velocity=57 time=13
note_on channel=0 note=59 velocity=38 time=31
note_on channel=0 note=54 velocity=0 time=26
note_on channel=0 note=59 velocity=0 time=38
note_on channel=0 note=65 velocity=82 time=140
note_on channel=0 note=57 velocity=72 time=3
note_on channel=0 note=55 velocity=82 time=4
note_on channel=0 note=35 velocity=73 time=10
note_on channel=0 note=36 velocity=55 time=10
note_on channel=0 note=64 velocity=33 time=34
note_on channel=0 note=36 velocity=0 time=43
note_on channel=0 note=55 velocity=0 time=6
note_on channel=0 note=57 velocity=0 time=2
note_on channel=0 note=64 velocity=0 time=20
note_on channel=0 note=65 velocity=0 time=9
note_on channel=0 note=35 velocity=0 time=52
note_on channel=0 note=30 velocity=78 time=45
note_on channel=0 note=59 velocity=75 time=21
note_on channel=0 note=57 velocity=79 time=2
note_on channel=0 note=64 velocity=57 time=17
note_on channel=0 note=62 velocity=57 time=1
note_on channel=0 note=65 velocity=49 time=1
note_on channel=0 note=69 velocity=47 time=4
note_on channel=0 note=63 velocity=39 time=18
note_on channel=0 note=67 velocity=42 time=2
note_on channel=0 note=63 velocity=0 time=35
note_on channel=0 note=57 velocity=0 time=11
note_on channel=0 note=69 velocity=0 time=1
note_on channel=0 note=59 velocity=0 time=10
note_on channel=0 note=62 velocity=0 time=7
note_on channel=0 note=67 velocity=0 time=11
note_on channel=0 note=64 velocity=0 time=14
note_on channel=0 note=65 velocity=0 time=7
note_on channel=0 note=30 velocity=0 time=66
note_on channel=0 note=31 velocity=61 time=18
note_on channel=0 note=33 velocity=64 time=1
note_on channel=0 note=62 velocity=65 time=20
note_on channel=0 note=64 velocity=82 time=9
note_on channel=0 note=74 velocity=69 time=5
note_on channel=0 note=72 velocity=60 time=7
note_on channel=0 note=25 velocity=0 time=30
note_on channel=0 note=64 velocity=0 time=9
note_on channel=0 note=72 velocity=0 time=7
note_on channel=0 note=74 velocity=0 time=4
note_on channel=0 note=62 velocity=0 time=36
note_on channel=0 note=30 velocity=59 time=87
note_on channel=0 note=25 velocity=63 time=28
note_on channel=0 note=33 velocity=0 time=0
note_on channel=0 note=73 velocity=91 time=7
note_on channel=0 note=31 velocity=0 time=7
note_on channel=0 note=72 velocity=63 time=25
note_on channel=0 note=71 velocity=65 time=1
note_on channel=0 note=76 velocity=48 time=1
note_on channel=0 note=71 velocity=0 time=44
note_on channel=0 note=72 velocity=0 time=4
note_on channel=0 note=76 velocity=0 time=24
note_on channel=0 note=23 velocity=0 time=18
note_on channel=0 note=73 velocity=0 time=35
note_on channel=0 note=30 velocity=0 time=45
note_on channel=0 note=31 velocity=76 time=28
note_on channel=0 note=33 velocity=69 time=0
note_on channel=0 note=25 velocity=0 time=6
note_on channel=0 note=69 velocity=84 time=4
note_on channel=0 note=67 velocity=84 time=3
note_on channel=0 note=23 velocity=35 time=19
note_on channel=0 note=78 velocity=39 time=33
note_on channel=0 note=71 velocity=44 time=3
note_on channel=0 note=67 velocity=0 time=32
note_on channel=0 note=23 velocity=0 time=22
note_on channel=0 note=71 velocity=0 time=16
note_on channel=0 note=78 velocity=0 time=0
note_on channel=0 note=69 velocity=0 time=17
note_on channel=0 note=23 velocity=30 time=49
note_on channel=0 note=30 velocity=71 time=27
note_on channel=0 note=25 velocity=75 time=10
note_on channel=0 note=80 velocity=87 time=13
note_on channel=0 note=33 velocity=0 time=3
note_on channel=0 note=77 velocity=72 time=9
note_on channel=0 note=82 velocity=68 time=4
note_on channel=0 note=74 velocity=58 time=7
note_on channel=0 note=31 velocity=0 time=5
note_on channel=0 note=23 velocity=0 time=32
note_on channel=0 note=74 velocity=0 time=11
note_on channel=0 note=77 velocity=0 time=35
note_on channel=0 note=82 velocity=0 time=7
note_on channel=0 note=80 velocity=0 time=31
note_on channel=0 note=30 velocity=0 time=42
note_on channel=0 note=73 velocity=91 time=23
note_on channel=0 note=85 velocity=79 time=7
note_on channel=0 note=74 velocity=82 time=3
note_on channel=0 note=72 velocity=78 time=2
note_on channel=0 note=31 velocity=69 time=11
note_on channel=0 note=33 velocity=76 time=0
note_on channel=0 note=78 velocity=57 time=2
note_on channel=0 note=25 velocity=0 time=41
note_on channel=0 note=78 velocity=0 time=6
note_on channel=0 note=73 velocity=0 time=45
note_on channel=0 note=85 velocity=0 time=12
note_on channel=0 note=72 velocity=0 time=19
note_on channel=0 note=74 velocity=0 time=14
note_on channel=0 note=33 velocity=0 time=62
note_on channel=0 note=30 velocity=71 time=9
note_on channel=0 note=76 velocity=87 time=13
note_on channel=0 note=79 velocity=84 time=10
note_on channel=0 note=74 velocity=58 time=7
note_on channel=0 note=82 velocity=73 time=2
note_on channel=0 note=25 velocity=38 time=20
note_on channel=0 note=31 velocity=0 time=19
note_on channel=0 note=74 velocity=0 time=10
note_on channel=0 note=25 velocity=0 time=23
note_on channel=0 note=82 velocity=0 time=2
note_on channel=0 note=26 velocity=45 time=2
note_on channel=0 note=81 velocity=57 time=5
note_on channel=0 note=76 velocity=0 time=9
note_on channel=0 note=81 velocity=0 time=36
note_on channel=0 note=26 velocity=0 time=5
note_on channel=0 note=79 velocity=0 time=11
note_on channel=0 note=82 velocity=82 time=86
note_on channel=0 note=79 velocity=78 time=5
note_on channel=0 note=85 velocity=87 time=2
note_on channel=0 note=81 velocity=75 time=1
note_on channel=0 note=83 velocity=78 time=12
note_on channel=0 note=25 velocity=71 time=3
note_on channel=0 note=82 velocity=0 time=7
note_on channel=0 note=88 velocity=51 time=1
note_on channel=0 note=81 velocity=0 time=46
note_on channel=0 note=88 velocity=0 time=12
note_on channel=0 note=79 velocity=0 time=6
note_on channel=0 note=83 velocity=0 time=36
note_on channel=0 note=30 velocity=0 time=19
note_on channel=0 note=85 velocity=0 time=17
note_on channel=0 note=79 velocity=84 time=48
note_on channel=0 note=81 velocity=84 time=2
note_on channel=0 note=80 velocity=82 time=3
note_on channel=0 note=92 velocity=84 time=4
note_on channel=0 note=90 velocity=64 time=10
note_on channel=0 note=33 velocity=73 time=5
note_on channel=0 note=23 velocity=48 time=7
note_on channel=0 note=31 velocity=83 time=2
note_on channel=0 note=86 velocity=46 time=0
note_on channel=0 note=30 velocity=39 time=4
note_on channel=0 note=35 velocity=66 time=7
note_on channel=0 note=90 velocity=0 time=35
note_on channel=0 note=35 velocity=0 time=4
note_on channel=0 note=23 velocity=0 time=11
note_on channel=0 note=30 velocity=0 time=2
note_on channel=0 note=80 velocity=0 time=0
note_on channel=0 note=86 velocity=0 time=1
note_on channel=0 note=25 velocity=0 time=4
note_on channel=0 note=35 velocity=36 time=19
note_on channel=0 note=79 velocity=0 time=9
note_on channel=0 note=81 velocity=0 time=2
note_on channel=0 note=92 velocity=0 time=28
note_on channel=0 note=35 velocity=0 time=23
note_on channel=0 note=30 velocity=71 time=60
note_on channel=0 note=83 velocity=82 time=2
note_on channel=0 note=87 velocity=91 time=1
note_on channel=0 note=89 velocity=74 time=14
note_on channel=0 note=25 velocity=57 time=4
note_on channel=0 note=84 velocity=49 time=16
note_on channel=0 note=33 velocity=0 time=17
note_on channel=0 note=31 velocity=0 time=7
note_on channel=0 note=83 velocity=0 time=21
note_on channel=0 note=84 velocity=0 time=22
note_on channel=0 note=89 velocity=0 time=46
note_on channel=0 note=87 velocity=0 time=3
note_on channel=0 note=90 velocity=97 time=89
note_on channel=0 note=92 velocity=91 time=3
note_on channel=0 note=86 velocity=84 time=8
note_on channel=0 note=23 velocity=61 time=4
note_on channel=0 note=88 velocity=58 time=15
note_on channel=0 note=31 velocity=51 time=13
note_on channel=0 note=33 velocity=64 time=1
note_on channel=0 note=25 velocity=0 time=26
note_on channel=0 note=30 velocity=0 time=2
note_on channel=0 note=88 velocity=0 time=0
note_on channel=0 note=29 velocity=43 time=9
note_on channel=0 note=86 velocity=0 time=17
note_on channel=0 note=29 velocity=0 time=52
note_on channel=0 note=90 velocity=0 time=2
note_on channel=0 note=92 velocity=0 time=15
note_on channel=0 note=33 velocity=0 time=29
note_on channel=0 note=31 velocity=0 time=1
note_on channel=0 note=25 velocity=59 time=60
note_on channel=0 note=97 velocity=97 time=10
note_on channel=0 note=91 velocity=91 time=2
note_on channel=0 note=89 velocity=91 time=3
note_on channel=0 note=101 velocity=91 time=1
note_on channel=0 note=100 velocity=67 time=8
note_on channel=0 note=30 velocity=71 time=10
note_on channel=0 note=93 velocity=59 time=4
note_on channel=0 note=95 velocity=53 time=2
note_on channel=0 note=93 velocity=0 time=40
note_on channel=0 note=95 velocity=0 time=13
note_on channel=0 note=30 velocity=0 time=8
note_on channel=0 note=89 velocity=0 time=17
note_on channel=0 note=91 velocity=0 time=5
note_on channel=0 note=97 velocity=0 time=6
note_on channel=0 note=100 velocity=0 time=2
note_on channel=0 note=101 velocity=0 time=31
note_on channel=0 note=91 velocity=104 time=71
note_on channel=0 note=103 velocity=84 time=0
note_on channel=0 note=98 velocity=91 time=1
note_on channel=0 note=101 velocity=67 time=3
note_on channel=0 note=93 velocity=91 time=1
note_on channel=0 note=96 velocity=87 time=1
note_on channel=0 note=31 velocity=95 time=5
note_on channel=0 note=97 velocity=60 time=6
note_on channel=0 note=100 velocity=70 time=2
note_on channel=0 note=95 velocity=63 time=8
note_on channel=0 note=33 velocity=76 time=4
note_on channel=0 note=30 velocity=61 time=3
note_on channel=0 note=100 velocity=0 time=25
note_on channel=0 note=95 velocity=0 time=8
note_on channel=0 note=103 velocity=0 time=8
note_on channel=0 note=101 velocity=0 time=20
note_on channel=0 note=93 velocity=0 time=1
note_on channel=0 note=97 velocity=0 time=8
note_on channel=0 note=23 velocity=0 time=35
note_on channel=0 note=91 velocity=0 time=1
note_on channel=0 note=30 velocity=0 time=12
note_on channel=0 note=98 velocity=0 time=1
note_on channel=0 note=33 velocity=0 time=4
note_on channel=0 note=31 velocity=0 time=6
note_on channel=0 note=96 velocity=0 time=0
note_on channel=0 note=25 velocity=0 time=11
note_on channel=0 note=28 velocity=66 time=91
note_on channel=0 note=25 velocity=47 time=1
note_on channel=0 note=90 velocity=84 time=2
note_on channel=0 note=84 velocity=84 time=4
note_on channel=0 note=32 velocity=61 time=1
note_on channel=0 note=90 velocity=0 time=19
note_on channel=0 note=84 velocity=0 time=10
note_on channel=0 note=32 velocity=0 time=8
note_on channel=0 note=25 velocity=0 time=16
note_on channel=0 note=28 velocity=0 time=61
note_on channel=0 note=87 velocity=81 time=125
note_on channel=0 note=25 velocity=61 time=1
note_on channel=0 note=83 velocity=72 time=2
note_on channel=0 note=32 velocity=57 time=3
note_on channel=0 note=89 velocity=57 time=13
note_on channel=0 note=23 velocity=59 time=5
note_on channel=0 note=24 velocity=64 time=0
note_on channel=0 note=81 velocity=63 time=2
note_on channel=0 note=93 velocity=50 time=1
note_on channel=0 note=28 velocity=48 time=1
note_on channel=0 note=88 velocity=45 time=27
note_on channel=0 note=93 velocity=0 time=25
note_on channel=0 note=88 velocity=0 time=38
note_on channel=0 note=89 velocity=0 time=2
note_on channel=0 note=81 velocity=0 time=17
note_on channel=0 note=83 velocity=0 time=4
note_on channel=0 note=87 velocity=0 time=4
note_on channel=0 note=23 velocity=0 time=23
note_on channel=0 note=24 velocity=0 time=0
note_on channel=0 note=28 velocity=0 time=5
note_on channel=0 note=25 velocity=0 time=14
note_on channel=0 note=32 velocity=0 time=10
note_on channel=0 note=32 velocity=45 time=48
note_on channel=0 note=33 velocity=57 time=2
note_on channel=0 note=35 velocity=59 time=1
note_on channel=0 note=91 velocity=84 time=9
note_on channel=0 note=84 velocity=75 time=1
note_on channel=0 note=83 velocity=91 time=1
note_on channel=0 note=28 velocity=43 time=8
note_on channel=0 note=90 velocity=64 time=2
note_on channel=0 note=89 velocity=61 time=9
note_on channel=0 note=88 velocity=58 time=7
note_on channel=0 note=28 velocity=0 time=48
note_on channel=0 note=88 velocity=0 time=13
note_on channel=0 note=84 velocity=0 time=7
note_on channel=0 note=90 velocity=0 time=1
note_on channel=0 note=83 velocity=0 time=8
note_on channel=0 note=89 velocity=0 time=3
note_on channel=0 note=91 velocity=0 time=23
note_on channel=0 note=33 velocity=0 time=10
note_on channel=0 note=32 velocity=0 time=3
note_on channel=0 note=35 velocity=0 time=4
note_on channel=0 note=23 velocity=76 time=81
note_on channel=0 note=92 velocity=87 time=17
note_on channel=0 note=82 velocity=97 time=5
note_on channel=0 note=94 velocity=71 time=2
note_on channel=0 note=90 velocity=78 time=2
note_on channel=0 note=27 velocity=66 time=1
note_on channel=0 note=24 velocity=57 time=7
note_on channel=0 note=94 velocity=0 time=22
note_on channel=0 note=30 velocity=41 time=6
note_on channel=0 note=30 velocity=0 time=61
note_on channel=0 note=90 velocity=0 time=13
note_on channel=0 note=82 velocity=0 time=10
note_on channel=0 note=92 velocity=0 time=10
note_on channel=0 note=23 velocity=0 time=7
note_on channel=0 note=27 velocity=0 time=48
note_on channel=0 note=24 velocity=0 time=21
note_on channel=0 note=33 velocity=69 time=20
note_on channel=0 note=79 velocity=82 time=6
note_on channel=0 note=35 velocity=83 time=1
note_on channel=0 note=77 velocity=75 time=0
note_on channel=0 note=87 velocity=84 time=2
note_on channel=0 note=85 velocity=70 time=8
note_on channel=0 note=30 velocity=57 time=4
note_on channel=0 note=27 velocity=59 time=5
note_on channel=0 note=30 velocity=0 time=31
note_on channel=0 note=85 velocity=0 time=3
note_on channel=0 note=27 velocity=0 time=19
note_on channel=0 note=87 velocity=0 time=25
note_on channel=0 note=77 velocity=0 time=6
note_on channel=0 note=79 velocity=0 time=5
note_on channel=0 note=33 velocity=0 time=47
note_on channel=0 note=35 velocity=0 time=9
note_on channel=0 note=90 velocity=97 time=56
note_on channel=0 note=22 velocity=75 time=3
note_on channel=0 note=21 velocity=73 time=6
note_on channel=0 note=83 velocity=75 time=8
note_on channel=0 note=91 velocity=65 time=1
note_on channel=0 note=26 velocity=56 time=2
note_on channel=0 note=81 velocity=84 time=0
note_on channel=0 note=93 velocity=67 time=2
note_on channel=0 note=29 velocity=52 time=2
note_on channel=0 note=89 velocity=50 time=12
note_on channel=0 note=88 velocity=56 time=3
note_on channel=0 note=93 velocity=0 time=21
note_on channel=0 note=88 velocity=0 time=22
note_on channel=0 note=89 velocity=0 time=8
note_on channel=0 note=81 velocity=0 time=9
note_on channel=0 note=83 velocity=0 time=7
note_on channel=0 note=91 velocity=0 time=8
note_on channel=0 note=29 velocity=0 time=2
note_on channel=0 note=90 velocity=0 time=30
note_on channel=0 note=26 velocity=0 time=64
note_on channel=0 note=87 velocity=78 time=20
note_on channel=0 note=85 velocity=85 time=1
note_on channel=0 note=75 velocity=104 time=5
note_on channel=0 note=33 velocity=86 time=14
note_on channel=0 note=35 velocity=95 time=5
note_on channel=0 note=74 velocity=48 time=20
note_on channel=0 note=87 velocity=0 time=22
note_on channel=0 note=74 velocity=0 time=47
note_on channel=0 note=75 velocity=0 time=11
note_on channel=0 note=85 velocity=0 time=3
note_on channel=0 note=21 velocity=0 time=2
note_on channel=0 note=22 velocity=0 time=4
note_on channel=0 note=35 velocity=0 time=39
note_on channel=0 note=33 velocity=0 time=3
note_on channel=0 note=30 velocity=75 time=72
note_on channel=0 note=80 velocity=87 time=5
note_on channel=0 note=22 velocity=49 time=2
note_on channel=0 note=74 velocity=84 time=3
note_on channel=0 note=82 velocity=91 time=1
note_on channel=0 note=21 velocity=41 time=1
note_on channel=0 note=25 velocity=71 time=8
note_on channel=0 note=33 velocity=39 time=2
note_on channel=0 note=23 velocity=51 time=1
note_on channel=0 note=76 velocity=78 time=3
note_on channel=0 note=79 velocity=65 time=7
note_on channel=0 note=85 velocity=44 time=16
note_on channel=0 note=76 velocity=0 time=21
note_on channel=0 note=79 velocity=0 time=6
note_on channel=0 note=74 velocity=0 time=12
note_on channel=0 note=33 velocity=0 time=3
note_on channel=0 note=23 velocity=0 time=4
note_on channel=0 note=85 velocity=0 time=17
note_on channel=0 note=21 velocity=0 time=17
note_on channel=0 note=82 velocity=0 time=2
note_on channel=0 note=80 velocity=0 time=14
note_on channel=0 note=30 velocity=0 time=46
note_on channel=0 note=21 velocity=53 time=30
note_on channel=0 note=25 velocity=0 time=12
note_on channel=0 note=83 velocity=84 time=23
note_on channel=0 note=93 velocity=84 time=1
note_on channel=0 note=81 velocity=84 time=4
note_on channel=0 note=89 velocity=74 time=0
note_on channel=0 note=30 velocity=63 time=2
note_on channel=0 note=91 velocity=77 time=3
note_on channel=0 note=87 velocity=57 time=1
note_on channel=0 note=31 velocity=80 time=2
note_on channel=0 note=33 velocity=90 time=3
note_on channel=0 note=84 velocity=56 time=15
note_on channel=0 note=25 velocity=49 time=20
note_on channel=0 note=89 velocity=0 time=0
note_on channel=0 note=87 velocity=0 time=5
note_on channel=0 note=91 velocity=0 time=0
note_on channel=0 note=21 velocity=0 time=16
note_on channel=0 note=84 velocity=0 time=10
note_on channel=0 note=93 velocity=0 time=0
note_on channel=0 note=83 velocity=0 time=9
note_on channel=0 note=81 velocity=0 time=2
note_on channel=0 note=22 velocity=0 time=1
note_on channel=0 note=30 velocity=0 time=7
note_on channel=0 note=25 velocity=0 time=11
note_on channel=0 note=31 velocity=0 time=77
note_on channel=0 note=33 velocity=0 time=3
note_on channel=0 note=25 velocity=66 time=38
note_on channel=0 note=30 velocity=54 time=9
note_on channel=0 note=69 velocity=104 time=4
note_on channel=0 note=22 velocity=61 time=2
note_on channel=0 note=71 velocity=91 time=1
note_on channel=0 note=76 velocity=75 time=1
note_on channel=0 note=77 velocity=66 time=6
note_on channel=0 note=75 velocity=57 time=3
note_on channel=0 note=21 velocity=56 time=2
note_on channel=0 note=74 velocity=58 time=17
note_on channel=0 note=71 velocity=0 time=4
note_on channel=0 note=77 velocity=0 time=16
note_on channel=0 note=69 velocity=0 time=13
note_on channel=0 note=75 velocity=0 time=1
note_on channel=0 note=76 velocity=0 time=6
note_on channel=0 note=74 velocity=0 time=6
note_on channel=0 note=30 velocity=0 time=47
note_on channel=0 note=25 velocity=0 time=29
note_on channel=0 note=22 velocity=0 time=7
note_on channel=0 note=68 velocity=91 time=60
note_on channel=0 note=33 velocity=73 time=6
note_on channel=0 note=70 velocity=85 time=2
note_on channel=0 note=31 velocity=80 time=1
note_on channel=0 note=30 velocity=51 time=6
note_on channel=0 note=62 velocity=85 time=1
note_on channel=0 note=64 velocity=72 time=0
note_on channel=0 note=22 velocity=45 time=20
note_on channel=0 note=25 velocity=38 time=10
note_on channel=0 note=21 velocity=0 time=32
note_on channel=0 note=22 velocity=0 time=7
note_on channel=0 note=62 velocity=0 time=12
note_on channel=0 note=64 velocity=0 time=0
note_on channel=0 note=25 velocity=0 time=31
note_on channel=0 note=68 velocity=0 time=12
note_on channel=0 note=33 velocity=0 time=6
note_on channel=0 note=31 velocity=0 time=6
note_on channel=0 note=70 velocity=0 time=5
note_on channel=0 note=25 velocity=31 time=28
note_on channel=0 note=30 velocity=0 time=1
note_on channel=0 note=21 velocity=76 time=64
note_on channel=0 note=22 velocity=61 time=1
note_on channel=0 note=76 velocity=75 time=15
note_on channel=0 note=80 velocity=75 time=4
note_on channel=0 note=86 velocity=72 time=3
note_on channel=0 note=77 velocity=84 time=1
note_on channel=0 note=82 velocity=73 time=0
note_on channel=0 note=88 velocity=63 time=6
note_on channel=0 note=30 velocity=38 time=15
note_on channel=0 note=82 velocity=0 time=23
note_on channel=0 note=88 velocity=0 time=0
note_on channel=0 note=86 velocity=0 time=3
note_on channel=0 note=77 velocity=0 time=22
note_on channel=0 note=80 velocity=0 time=5
note_on channel=0 note=30 velocity=0 time=5
note_on channel=0 note=25 velocity=0 time=10
note_on channel=0 note=76 velocity=0 time=19
note_on channel=0 note=33 velocity=57 time=121
note_on channel=0 note=30 velocity=63 time=1
note_on channel=0 note=64 velocity=93 time=1
note_on channel=0 note=65 velocity=82 time=0
note_on channel=0 note=31 velocity=61 time=2
note_on channel=0 note=70 velocity=73 time=3
note_on channel=0 note=71 velocity=75 time=1
note_on channel=0 note=68 velocity=63 time=4
note_on channel=0 note=25 velocity=51 time=4
note_on channel=0 note=69 velocity=61 time=11
note_on channel=0 note=65 velocity=0 time=9
note_on channel=0 note=68 velocity=0 time=14
note_on channel=0 note=70 velocity=0 time=3
note_on channel=0 note=25 velocity=0 time=5
note_on channel=0 note=69 velocity=0 time=11
note_on channel=0 note=64 velocity=0 time=10
note_on channel=0 note=30 velocity=0 time=10
note_on channel=0 note=22 velocity=0 time=6
note_on channel=0 note=71 velocity=0 time=10
note_on channel=0 note=21 velocity=0 time=18
note_on channel=0 note=31 velocity=0 time=31
note_on channel=0 note=33 velocity=0 time=7
note_on channel=0 note=21 velocity=51 time=58
note_on channel=0 note=30 velocity=82 time=3
note_on channel=0 note=22 velocity=48 time=1
note_on channel=0 note=63 velocity=82 time=8
note_on channel=0 note=55 velocity=93 time=2
note_on channel=0 note=25 velocity=63 time=4
note_on channel=0 note=60 velocity=75 time=4
note_on channel=0 note=53 velocity=89 time=1
note_on channel=0 note=61 velocity=75 time=2
note_on channel=0 note=59 velocity=65 time=16
note_on channel=0 note=21 velocity=0 time=3
note_on channel=0 note=57 velocity=48 time=2
note_on channel=0 note=22 velocity=0 time=2
note_on channel=0 note=59 velocity=0 time=33
note_on channel=0 note=57 velocity=0 time=36
note_on channel=0 note=55 velocity=0 time=3
note_on channel=0 note=53 velocity=0 time=11
note_on channel=0 note=63 velocity=0 time=2
note_on channel=0 note=60 velocity=0 time=4
note_on channel=0 note=61 velocity=0 time=1
note_on channel=0 note=30 velocity=0 time=71
note_on channel=0 note=21 velocity=76 time=24
note_on channel=0 note=63 velocity=69 time=5
note_on channel=0 note=22 velocity=57 time=3
note_on channel=0 note=61 velocity=59 time=0
note_on channel=0 note=25 velocity=0 time=11
note_on channel=0 note=55 velocity=51 time=11
note_on channel=0 note=57 velocity=66 time=0
note_on channel=0 note=67 velocity=52 time=31
note_on channel=0 note=57 velocity=0 time=9
note_on channel=0 note=55 velocity=0 time=7
note_on channel=0 note=67 velocity=0 time=39
note_on channel=0 note=22 velocity=0 time=2
note_on channel=0 note=61 velocity=0 time=2
note_on channel=0 note=63 velocity=0 time=5
note_on channel=0 note=72 velocity=87 time=111
note_on channel=0 note=62 velocity=85 time=3
note_on channel=0 note=60 velocity=93 time=4
note_on channel=0 note=66 velocity=68 time=6
note_on channel=0 note=69 velocity=58 time=6
note_on channel=0 note=22 velocity=53 time=1
note_on channel=0 note=30 velocity=82 time=5
note_on channel=0 note=31 velocity=73 time=8
note_on channel=0 note=33 velocity=80 time=0
note_on channel=0 note=25 velocity=61 time=3
note_on channel=0 note=23 velocity=44 time=9
note_on channel=0 note=64 velocity=43 time=2
note_on channel=0 note=68 velocity=40 time=7
note_on channel=0 note=25 velocity=0 time=28
note_on channel=0 note=72 velocity=0 time=12
note_on channel=0 note=60 velocity=0 time=4
note_on channel=0 note=23 velocity=0 time=9
note_on channel=0 note=62 velocity=0 time=0
note_on channel=0 note=68 velocity=0 time=1
note_on channel=0 note=64 velocity=0 time=2
note_on channel=0 note=22 velocity=0 time=8
note_on channel=0 note=66 velocity=0 time=1
note_on channel=0 note=69 velocity=0 time=4
note_on channel=0 note=30 velocity=0 time=34
note_on channel=0 note=31 velocity=0 time=13
note_on channel=0 note=33 velocity=0 time=17
note_on channel=0 note=63 velocity=82 time=66
note_on channel=0 note=61 velocity=85 time=1
note_on channel=0 note=53 velocity=93 time=3
note_on channel=0 note=55 velocity=85 time=2
note_on channel=0 note=22 velocity=50 time=1
note_on channel=0 note=25 velocity=78 time=1
note_on channel=0 note=30 velocity=61 time=6
note_on channel=0 note=66 velocity=36 time=22
note_on channel=0 note=22 velocity=0 time=35
note_on channel=0 note=55 velocity=0 time=6
note_on channel=0 note=66 velocity=0 time=2
note_on channel=0 note=53 velocity=0 time=30
note_on channel=0 note=61 velocity=0 time=0
note_on channel=0 note=21 velocity=0 time=6
note_on channel=0 note=63 velocity=0 time=1
note_on channel=0 note=30 velocity=0 time=3
note_on channel=0 note=25 velocity=0 time=54
note_on channel=0 note=21 velocity=31 time=28
note_on channel=0 note=58 velocity=93 time=37
note_on channel=0 note=52 velocity=85 time=6
note_on channel=0 note=53 velocity=85 time=1
note_on channel=0 note=31 velocity=73 time=3
note_on channel=0 note=30 velocity=66 time=3
note_on channel=0 note=33 velocity=83 time=1
note_on channel=0 note=60 velocity=69 time=1
note_on channel=0 note=22 velocity=45 time=6
note_on channel=0 note=25 velocity=39 time=4
note_on channel=0 note=22 velocity=0 time=51
note_on channel=0 note=25 velocity=0 time=12
note_on channel=0 note=52 velocity=0 time=19
note_on channel=0 note=53 velocity=0 time=3
note_on channel=0 note=30 velocity=0 time=10
note_on channel=0 note=58 velocity=0 time=8
note_on channel=0 note=60 velocity=0 time=11
note_on channel=0 note=31 velocity=0 time=24
note_on channel=0 note=33 velocity=0 time=3
note_on channel=0 note=25 velocity=82 time=68
note_on channel=0 note=22 velocity=25 time=9
note_on channel=0 note=69 velocity=78 time=6
note_on channel=0 note=62 velocity=75 time=1
note_on channel=0 note=64 velocity=85 time=5
note_on channel=0 note=74 velocity=63 time=7
note_on channel=0 note=30 velocity=75 time=6
note_on channel=0 note=67 velocity=58 time=5
note_on channel=0 note=72 velocity=47 time=3
note_on channel=0 note=64 velocity=0 time=15
note_on channel=0 note=74 velocity=0 time=13
note_on channel=0 note=62 velocity=0 time=12
note_on channel=0 note=67 velocity=0 time=2
note_on channel=0 note=22 velocity=0 time=13
note_on channel=0 note=72 velocity=0 time=9
note_on channel=0 note=21 velocity=0 time=12
note_on channel=0 note=69 velocity=0 time=11
note_on channel=0 note=30 velocity=0 time=42
note_on channel=0 note=25 velocity=0 time=6
note_on channel=0 note=21 velocity=48 time=37
note_on channel=0 note=66 velocity=117 time=30
note_on channel=0 note=30 velocity=68 time=2
note_on channel=0 note=22 velocity=56 time=3
note_on channel=0 note=77 velocity=84 time=2
note_on channel=0 note=25 velocity=56 time=1
note_on channel=0 note=74 velocity=66 time=5
note_on channel=0 note=33 velocity=80 time=4
note_on channel=0 note=31 velocity=73 time=2
note_on channel=0 note=65 velocity=66 time=2
note_on channel=0 note=72 velocity=54 time=3
note_on channel=0 note=76 velocity=56 time=0
note_on channel=0 note=73 velocity=52 time=8
note_on channel=0 note=22 velocity=0 time=24
note_on channel=0 note=77 velocity=0 time=0
note_on channel=0 note=65 velocity=0 time=7
note_on channel=0 note=76 velocity=0 time=7
note_on channel=0 note=72 velocity=0 time=7
note_on channel=0 note=73 velocity=0 time=7
note_on channel=0 note=66 velocity=0 time=15
note_on channel=0 note=25 velocity=0 time=3
note_on channel=0 note=74 velocity=0 time=12
note_on channel=0 note=30 velocity=0 time=1
note_on channel=0 note=21 velocity=0 time=50
note_on channel=0 note=31 velocity=0 time=2
note_on channel=0 note=33 velocity=0 time=6
note_on channel=0 note=21 velocity=39 time=32
note_on channel=0 note=63 velocity=98 time=32
note_on channel=0 note=66 velocity=70 time=3
note_on channel=0 note=59 velocity=82 time=3
note_on channel=0 note=57 velocity=93 time=3
note_on channel=0 note=25 velocity=82 time=2
note_on channel=0 note=68 velocity=61 time=4
note_on channel=0 note=23 velocity=42 time=11
note_on channel=0 note=30 velocity=59 time=15
note_on channel=0 note=57 velocity=0 time=45
note_on channel=0 note=23 velocity=0 time=9
note_on channel=0 note=59 velocity=0 time=3
note_on channel=0 note=63 velocity=0 time=25
note_on channel=0 note=21 velocity=0 time=11
note_on channel=0 note=66 velocity=0 time=3
note_on channel=0 note=68 velocity=0 time=0
note_on channel=0 note=25 velocity=0 time=31
note_on channel=0 note=30 velocity=0 time=18
note_on channel=0 note=21 velocity=53 time=45
note_on channel=0 note=25 velocity=59 time=20
note_on channel=0 note=22 velocity=57 time=3
note_on channel=0 note=30 velocity=66 time=1
note_on channel=0 note=69 velocity=97 time=1
note_on channel=0 note=79 velocity=104 time=3
note_on channel=0 note=75 velocity=87 time=3
note_on channel=0 note=31 velocity=69 time=1
note_on channel=0 note=78 velocity=70 time=1
note_on channel=0 note=71 velocity=97 time=1
note_on channel=0 note=77 velocity=72 time=3
note_on channel=0 note=33 velocity=76 time=7
note_on channel=0 note=77 velocity=0 time=36
note_on channel=0 note=78 velocity=0 time=0
note_on channel=0 note=22 velocity=0 time=4
note_on channel=0 note=69 velocity=0 time=25
note_on channel=0 note=71 velocity=0 time=6
note_on channel=0 note=79 velocity=0 time=16
note_on channel=0 note=30 velocity=0 time=3
note_on channel=0 note=75 velocity=0 time=4
note_on channel=0 note=25 velocity=0 time=21
note_on channel=0 note=31 velocity=0 time=2
note_on channel=0 note=33 velocity=0 time=0
note_on channel=0 note=21 velocity=0 time=1
note_on channel=0 note=21 velocity=59 time=69
note_on channel=0 note=82 velocity=91 time=1
note_on channel=0 note=25 velocity=54 time=14
note_on channel=0 note=70 velocity=91 time=1
note_on channel=0 note=22 velocity=57 time=5
note_on channel=0 note=80 velocity=63 time=0
note_on channel=0 note=30 velocity=63 time=5
note_on channel=0 note=78 velocity=73 time=0
note_on channel=0 note=78 velocity=0 time=47
note_on channel=0 note=80 velocity=0 time=2
note_on channel=0 note=22 velocity=0 time=1
note_on channel=0 note=82 velocity=0 time=31
note_on channel=0 note=21 velocity=0 time=12
note_on channel=0 note=70 velocity=0 time=9
note_on channel=0 note=30 velocity=0 time=12
note_on channel=0 note=25 velocity=0 time=11
note_on channel=0 note=21 velocity=57 time=68
note_on channel=0 note=30 velocity=68 time=8
note_on channel=0 note=25 velocity=59 time=1
note_on channel=0 note=22 velocity=61 time=4
note_on channel=0 note=75 velocity=85 time=1
note_on channel=0 note=69 velocity=87 time=1
note_on channel=0 note=67 velocity=91 time=1
note_on channel=0 note=78 velocity=79 time=0
note_on channel=0 note=33 velocity=73 time=7
note_on channel=0 note=31 velocity=64 time=2
note_on channel=0 note=79 velocity=69 time=3
note_on channel=0 note=77 velocity=57 time=20
note_on channel=0 note=22 velocity=0 time=40
note_on channel=0 note=78 velocity=0 time=8
note_on channel=0 note=67 velocity=0 time=1
note_on channel=0 note=77 velocity=0 time=13
note_on channel=0 note=69 velocity=0 time=1
note_on channel=0 note=21 velocity=0 time=7
note_on channel=0 note=31 velocity=0 time=5
note_on channel=0 note=33 velocity=0 time=14
note_on channel=0 note=75 velocity=0 time=0
note_on channel=0 note=79 velocity=0 time=5
note_on channel=0 note=25 velocity=0 time=20
note_on channel=0 note=30 velocity=0 time=2
note_on channel=0 note=82 velocity=87 time=83
note_on channel=0 note=30 velocity=66 time=2
note_on channel=0 note=74 velocity=78 time=0
note_on channel=0 note=21 velocity=64 time=1
note_on channel=0 note=86 velocity=84 time=0
note_on channel=0 note=76 velocity=75 time=1
note_on channel=0 note=25 velocity=56 time=1
note_on channel=0 note=84 velocity=72 time=3
note_on channel=0 note=33 velocity=66 time=9
note_on channel=0 note=22 velocity=57 time=3
note_on channel=0 note=31 velocity=56 time=0
note_on channel=0 note=84 velocity=0 time=32
note_on channel=0 note=76 velocity=0 time=4
note_on channel=0 note=33 velocity=0 time=5
note_on channel=0 note=31 velocity=0 time=1
note_on channel=0 note=22 velocity=0 time=5
note_on channel=0 note=74 velocity=0 time=10
note_on channel=0 note=86 velocity=0 time=18
note_on channel=0 note=21 velocity=0 time=3
note_on channel=0 note=82 velocity=0 time=1
note_on channel=0 note=30 velocity=0 time=11
note_on channel=0 note=25 velocity=0 time=12
note_on channel=0 note=21 velocity=64 time=86
note_on channel=0 note=30 velocity=66 time=6
note_on channel=0 note=25 velocity=54 time=2
note_on channel=0 note=33 velocity=73 time=3
note_on channel=0 note=87 velocity=87 time=0
note_on channel=0 note=22 velocity=63 time=1
note_on channel=0 note=75 velocity=104 time=7
note_on channel=0 note=31 velocity=69 time=5
note_on channel=0 note=85 velocity=79 time=0
note_on channel=0 note=23 velocity=46 time=13
note_on channel=0 note=31 velocity=0 time=53
note_on channel=0 note=33 velocity=0 time=11
note_on channel=0 note=23 velocity=0 time=1
note_on channel=0 note=22 velocity=0 time=21
note_on channel=0 note=87 velocity=0 time=1
note_on channel=0 note=21 velocity=0 time=10
note_on channel=0 note=85 velocity=0 time=12
note_on channel=0 note=75 velocity=0 time=2
note_on channel=0 note=25 velocity=0 time=2
note_on channel=0 note=30 velocity=0 time=1
note_on channel=0 note=21 velocity=66 time=83
note_on channel=0 note=30 velocity=66 time=3
note_on channel=0 note=25 velocity=56 time=5
note_on channel=0 note=33 velocity=69 time=8
note_on channel=0 note=72 velocity=84 time=1
note_on channel=0 note=82 velocity=79 time=0
note_on channel=0 note=31 velocity=69 time=1
note_on channel=0 note=22 velocity=56 time=1
note_on channel=0 note=71 velocity=84 time=1
note_on channel=0 note=80 velocity=66 time=9
note_on channel=0 note=83 velocity=69 time=0
note_on channel=0 note=78 velocity=43 time=21
note_on channel=0 note=79 velocity=51 time=9
note_on channel=0 note=31 velocity=0 time=34
note_on channel=0 note=33 velocity=0 time=3
note_on channel=0 note=71 velocity=0 time=7
note_on channel=0 note=78 velocity=0 time=7
note_on channel=0 note=22 velocity=0 time=1
note_on channel=0 note=72 velocity=0 time=4
note_on channel=0 note=21 velocity=0 time=5
note_on channel=0 note=79 velocity=0 time=2
note_on channel=0 note=80 velocity=0 time=20
note_on channel=0 note=30 velocity=0 time=7
note_on channel=0 note=25 velocity=0 time=2
note_on channel=0 note=83 velocity=0 time=2
note_on channel=0 note=82 velocity=0 time=3
note_on channel=0 note=30 velocity=68 time=84
note_on channel=0 note=25 velocity=56 time=4
note_on channel=0 note=21 velocity=66 time=4
note_on channel=0 note=90 velocity=91 time=1
note_on channel=0 note=92 velocity=87 time=3
note_on channel=0 note=33 velocity=69 time=1
note_on channel=0 note=80 velocity=82 time=1
note_on channel=0 note=31 velocity=66 time=2
note_on channel=0 note=22 velocity=68 time=2
note_on channel=0 note=79 velocity=75 time=2
note_on channel=0 note=81 velocity=66 time=13
note_on channel=0 note=87 velocity=50 time=4
note_on channel=0 note=31 velocity=0 time=29
note_on channel=0 note=79 velocity=0 time=4
note_on channel=0 note=81 velocity=0 time=0
note_on channel=0 note=33 velocity=0 time=7
note_on channel=0 note=87 velocity=0 time=11
note_on channel=0 note=80 velocity=0 time=3
note_on channel=0 note=22 velocity=0 time=4
note_on channel=0 note=21 velocity=0 time=7
note_on channel=0 note=90 velocity=0 time=16
note_on channel=0 note=92 velocity=0 time=0
note_on channel=0 note=25 velocity=0 time=14
note_on channel=0 note=30 velocity=0 time=1
note_on channel=0 note=94 velocity=87 time=91
note_on channel=0 note=30 velocity=54 time=4
note_on channel=0 note=22 velocity=57 time=1
note_on channel=0 note=82 velocity=91 time=1
note_on channel=0 note=33 velocity=73 time=2
note_on channel=0 note=90 velocity=57 time=9
note_on channel=0 note=21 velocity=44 time=6
note_on channel=0 note=92 velocity=50 time=3
note_on channel=0 note=23 velocity=52 time=1
note_on channel=0 note=35 velocity=52 time=8
note_on channel=0 note=31 velocity=42 time=14
note_on channel=0 note=27 velocity=39 time=10
note_on channel=0 note=90 velocity=0 time=3
note_on channel=0 note=23 velocity=0 time=15
note_on channel=0 note=92 velocity=0 time=1
note_on channel=0 note=21 velocity=0 time=3
note_on channel=0 note=33 velocity=0 time=0
note_on channel=0 note=35 velocity=0 time=0
note_on channel=0 note=82 velocity=0 time=9
note_on channel=0 note=30 velocity=0 time=14
note_on channel=0 note=22 velocity=0 time=3
note_on channel=0 note=27 velocity=0 time=3
note_on channel=0 note=31 velocity=0 time=4
note_on channel=0 note=94 velocity=0 time=34
note_on channel=0 note=21 velocity=73 time=80
note_on channel=0 note=30 velocity=75 time=1
note_on channel=0 note=33 velocity=73 time=4
note_on channel=0 note=25 velocity=68 time=1
note_on channel=0 note=97 velocity=104 time=0
note_on channel=0 note=22 velocity=66 time=1
note_on channel=0 note=94 velocity=78 time=3
note_on channel=0 note=88 velocity=87 time=2
note_on channel=0 note=86 velocity=91 time=1
note_on channel=0 note=31 velocity=73 time=5
note_on channel=0 note=98 velocity=77 time=0
note_on channel=0 note=23 velocity=61 time=3
note_on channel=0 note=100 velocity=70 time=2
note_on channel=0 note=31 velocity=0 time=29
note_on channel=0 note=100 velocity=0 time=7
note_on channel=0 note=98 velocity=0 time=4
note_on channel=0 note=23 velocity=0 time=1
note_on channel=0 note=94 velocity=0 time=12
note_on channel=0 note=88 velocity=0 time=7
note_on channel=0 note=33 velocity=0 time=2
note_on channel=0 note=86 velocity=0 time=12
note_on channel=0 note=97 velocity=0 time=4
note_on channel=0 note=21 velocity=0 time=11
note_on channel=0 note=22 velocity=0 time=8
note_on channel=0 note=25 velocity=0 time=10
note_on channel=0 note=30 velocity=0 time=13
note_on channel=0 note=30 velocity=63 time=91
note_on channel=0 note=25 velocity=54 time=8
note_on channel=0 note=22 velocity=57 time=1
note_on channel=0 note=21 velocity=66 time=1
note_on channel=0 note=77 velocity=87 time=1
note_on channel=0 note=85 velocity=82 time=2
note_on channel=0 note=76 velocity=91 time=2
note_on channel=0 note=87 velocity=75 time=1
note_on channel=0 note=33 velocity=57 time=1
note_on channel=0 note=31 velocity=56 time=9
note_on channel=0 note=89 velocity=39 time=16
note_on channel=0 note=88 velocity=43 time=9
note_on channel=0 note=31 velocity=0 time=15
note_on channel=0 note=33 velocity=0 time=3
note_on channel=0 note=77 velocity=0 time=2
note_on channel=0 note=76 velocity=0 time=25
note_on channel=0 note=21 velocity=0 time=7
note_on channel=0 note=89 velocity=0 time=3
note_on channel=0 note=85 velocity=0 time=6
note_on channel=0 note=25 velocity=0 time=3
note_on channel=0 note=88 velocity=0 time=2
note_on channel=0 note=22 velocity=0 time=2
note_on channel=0 note=87 velocity=0 time=0
note_on channel=0 note=30 velocity=0 time=3
note_on channel=0 note=84 velocity=84 time=127
note_on channel=0 note=92 velocity=97 time=1
note_on channel=0 note=21 velocity=83 time=1
note_on channel=0 note=86 velocity=91 time=1
note_on channel=0 note=30 velocity=84 time=1
note_on channel=0 note=96 velocity=91 time=1
note_on channel=0 note=22 velocity=82 time=1
note_on channel=0 note=33 velocity=86 time=0
note_on channel=0 note=25 velocity=82 time=1
note_on channel=0 note=31 velocity=80 time=3
note_on channel=0 note=94 velocity=66 time=3
note_on channel=0 note=98 velocity=74 time=4
note_on channel=0 note=95 velocity=46 time=26
note_on channel=0 note=98 velocity=0 time=12
note_on channel=0 note=23 velocity=35 time=3
note_on channel=0 note=31 velocity=0 time=42
note_on channel=0 note=23 velocity=0 time=5
note_on channel=0 note=95 velocity=0 time=3
note_on channel=0 note=92 velocity=0 time=2
note_on channel=0 note=86 velocity=0 time=1
note_on channel=0 note=84 velocity=0 time=3
note_on channel=0 note=94 velocity=0 time=1
note_on channel=0 note=33 velocity=0 time=2
note_on channel=0 note=96 velocity=0 time=17
note_on channel=0 note=22 velocity=0 time=6
note_on channel=0 note=21 velocity=0 time=4
note_on channel=0 note=30 velocity=0 time=15
note_on channel=0 note=25 velocity=0 time=1
note_on channel=0 note=21 velocity=57 time=64
note_on channel=0 note=30 velocity=63 time=2
note_on channel=0 note=22 velocity=53 time=10
note_on channel=0 note=25 velocity=49 time=0
note_on channel=0 note=79 velocity=97 time=0
note_on channel=0 note=92 velocity=60 time=2
note_on channel=0 note=87 velocity=78 time=5
note_on channel=0 note=90 velocity=66 time=2
note_on channel=0 note=77 velocity=87 time=1
note_on channel=0 note=33 velocity=51 time=2
note_on channel=0 note=31 velocity=44 time=7
note_on channel=0 note=90 velocity=0 time=24
note_on channel=0 note=77 velocity=0 time=2
note_on channel=0 note=22 velocity=0 time=16
note_on channel=0 note=33 velocity=0 time=4
note_on channel=0 note=21 velocity=0 time=3
note_on channel=0 note=31 velocity=0 time=11
note_on channel=0 note=87 velocity=0 time=2
note_on channel=0 note=92 velocity=0 time=1
note_on channel=0 note=25 velocity=0 time=10
note_on channel=0 note=79 velocity=0 time=1
note_on channel=0 note=30 velocity=0 time=18
note_on channel=0 note=30 velocity=56 time=98
note_on channel=0 note=33 velocity=76 time=2
note_on channel=0 note=21 velocity=53 time=6
note_on channel=0 note=22 velocity=68 time=0
note_on channel=0 note=82 velocity=73 time=2
note_on channel=0 note=72 velocity=82 time=2
note_on channel=0 note=80 velocity=79 time=0
note_on channel=0 note=25 velocity=53 time=3
note_on channel=0 note=74 velocity=72 time=5
note_on channel=0 note=84 velocity=60 time=2
note_on channel=0 note=71 velocity=82 time=2
note_on channel=0 note=23 velocity=56 time=4
note_on channel=0 note=31 velocity=49 time=9
note_on channel=0 note=35 velocity=44 time=3
note_on channel=0 note=71 velocity=0 time=15
note_on channel=0 note=23 velocity=0 time=18
note_on channel=0 note=72 velocity=0 time=4
note_on channel=0 note=74 velocity=0 time=6
note_on channel=0 note=31 velocity=0 time=4
note_on channel=0 note=35 velocity=0 time=16
note_on channel=0 note=33 velocity=0 time=11
note_on channel=0 note=80 velocity=0 time=0
note_on channel=0 note=21 velocity=0 time=6
note_on channel=0 note=22 velocity=0 time=1
note_on channel=0 note=25 velocity=0 time=16
note_on channel=0 note=30 velocity=0 time=2
note_on channel=0 note=82 velocity=0 time=5
note_on channel=0 note=84 velocity=0 time=20
note_on channel=0 note=30 velocity=75 time=95
note_on channel=0 note=33 velocity=80 time=2
note_on channel=0 note=22 velocity=75 time=3
note_on channel=0 note=21 velocity=69 time=1
note_on channel=0 note=84 velocity=84 time=3
note_on channel=0 note=25 velocity=63 time=4
note_on channel=0 note=92 velocity=84 time=1
note_on channel=0 note=94 velocity=81 time=0
note_on channel=0 note=31 velocity=69 time=3
note_on channel=0 note=97 velocity=71 time=1
note_on channel=0 note=83 velocity=84 time=1
note_on channel=0 note=96 velocity=56 time=14
note_on channel=0 note=86 velocity=49 time=10
note_on channel=0 note=85 velocity=40 time=4
note_on channel=0 note=23 velocity=39 time=5
note_on channel=0 note=31 velocity=0 time=1
note_on channel=0 note=94 velocity=0 time=6
note_on channel=0 note=97 velocity=0 time=3
note_on channel=0 note=92 velocity=0 time=17
note_on channel=0 note=84 velocity=0 time=2
note_on channel=0 note=96 velocity=0 time=3
note_on channel=0 note=33 velocity=0 time=5
note_on channel=0 note=83 velocity=0 time=1
note_on channel=0 note=85 velocity=0 time=9
note_on channel=0 note=21 velocity=0 time=6
note_on channel=0 note=23 velocity=0 time=4
note_on channel=0 note=22 velocity=0 time=7
note_on channel=0 note=86 velocity=0 time=1
note_on channel=0 note=25 velocity=0 time=13
note_on channel=0 note=30 velocity=0 time=10
note_on channel=0 note=74 velocity=97 time=98
note_on channel=0 note=85 velocity=82 time=0
note_on channel=0 note=72 velocity=97 time=5
note_on channel=0 note=30 velocity=51 time=1
note_on channel=0 note=82 velocity=75 time=1
note_on channel=0 note=22 velocity=54 time=8
note_on channel=0 note=80 velocity=66 time=0
note_on channel=0 note=76 velocity=72 time=1
note_on channel=0 note=25 velocity=44 time=6
note_on channel=0 note=21 velocity=48 time=6
note_on channel=0 note=33 velocity=37 time=12
note_on channel=0 note=76 velocity=0 time=13
note_on channel=0 note=80 velocity=0 time=1
note_on channel=0 note=21 velocity=0 time=23
note_on channel=0 note=22 velocity=0 time=5
note_on channel=0 note=72 velocity=0 time=2
note_on channel=0 note=25 velocity=0 time=3
note_on channel=0 note=74 velocity=0 time=0
note_on channel=0 note=33 velocity=0 time=1
note_on channel=0 note=30 velocity=0 time=22
note_on channel=0 note=82 velocity=0 time=6
note_on channel=0 note=85 velocity=0 time=0
note_on channel=0 note=30 velocity=66 time=122
note_on channel=0 note=33 velocity=64 time=3
note_on channel=0 note=22 velocity=57 time=4
note_on channel=0 note=78 velocity=82 time=9
note_on channel=0 note=21 velocity=52 time=7
note_on channel=0 note=80 velocity=64 time=0
note_on channel=0 note=82 velocity=64 time=0
note_on channel=0 note=83 velocity=61 time=1
note_on channel=0 note=80 velocity=0 time=45
note_on channel=0 note=21 velocity=0 time=14
note_on channel=0 note=33 velocity=0 time=0
note_on channel=0 note=83 velocity=0 time=0
note_on channel=0 note=78 velocity=0 time=8
note_on channel=0 note=22 velocity=0 time=18
note_on channel=0 note=30 velocity=0 time=4
note_on channel=0 note=82 velocity=0 time=23
note_on channel=0 note=21 velocity=64 time=89
note_on channel=0 note=30 velocity=66 time=8
note_on channel=0 note=33 velocity=64 time=2
note_on channel=0 note=31 velocity=64 time=8
note_on channel=0 note=85 velocity=85 time=4
note_on channel=0 note=25 velocity=61 time=1
note_on channel=0 note=73 velocity=104 time=4
note_on channel=0 note=82 velocity=75 time=2
note_on channel=0 note=22 velocity=56 time=3
note_on channel=0 note=75 velocity=39 time=34
note_on channel=0 note=31 velocity=0 time=1
note_on channel=0 note=82 velocity=0 time=2
note_on channel=0 note=22 velocity=0 time=12
note_on channel=0 note=33 velocity=0 time=11
note_on channel=0 note=75 velocity=0 time=27
note_on channel=0 note=73 velocity=0 time=3
note_on channel=0 note=85 velocity=0 time=9
note_on channel=0 note=30 velocity=0 time=9
note_on channel=0 note=25 velocity=0 time=7
note_on channel=0 note=21 velocity=0 time=13
note_on channel=0 note=21 velocity=66 time=70
note_on channel=0 note=30 velocity=56 time=15
note_on channel=0 note=33 velocity=73 time=2
note_on channel=0 note=25 velocity=50 time=1
note_on channel=0 note=31 velocity=69 time=2
note_on channel=0 note=65 velocity=91 time=0
note_on channel=0 note=78 velocity=66 time=2
note_on channel=0 note=73 velocity=75 time=5
note_on channel=0 note=75 velocity=70 time=1
note_on channel=0 note=64 velocity=89 time=1
note_on channel=0 note=67 velocity=69 time=13
note_on channel=0 note=22 velocity=44 time=1
note_on channel=0 note=64 velocity=0 time=16
note_on channel=0 note=67 velocity=0 time=20
note_on channel=0 note=22 velocity=0 time=15
note_on channel=0 note=33 velocity=0 time=0
note_on channel=0 note=31 velocity=0 time=1
note_on channel=0 note=65 velocity=0 time=2
note_on channel=0 note=75 velocity=0 time=13
note_on channel=0 note=73 velocity=0 time=8
note_on channel=0 note=30 velocity=0 time=4
note_on channel=0 note=25 velocity=0 time=7
note_on channel=0 note=78 velocity=0 time=4
note_on channel=0 note=21 velocity=0 time=23
note_on channel=0 note=21 velocity=61 time=75
note_on channel=0 note=33 velocity=73 time=10
note_on channel=0 note=30 velocity=66 time=1
note_on channel=0 note=67 velocity=84 time=8
note_on channel=0 note=31 velocity=69 time=3
note_on channel=0 note=25 velocity=51 time=2
note_on channel=0 note=75 velocity=85 time=2
note_on channel=0 note=69 velocity=84 time=1
note_on channel=0 note=65 velocity=82 time=1
note_on channel=0 note=22 velocity=49 time=3
note_on channel=0 note=79 velocity=78 time=0
note_on channel=0 note=78 velocity=70 time=7
note_on channel=0 note=77 velocity=46 time=31
note_on channel=0 note=31 velocity=0 time=1
note_on channel=0 note=79 velocity=0 time=6
note_on channel=0 note=22 velocity=0 time=5
note_on channel=0 note=69 velocity=0 time=0
note_on channel=0 note=33 velocity=0 time=6
note_on channel=0 note=67 velocity=0 time=15
note_on channel=0 note=65 velocity=0 time=5
note_on channel=0 note=78 velocity=0 time=1
note_on channel=0 note=75 velocity=0 time=15
note_on channel=0 note=77 velocity=0 time=13
note_on channel=0 note=30 velocity=0 time=6
note_on channel=0 note=25 velocity=0 time=8
note_on channel=0 note=21 velocity=0 time=10
note_on channel=0 note=21 velocity=59 time=82
note_on channel=0 note=30 velocity=61 time=4
note_on channel=0 note=70 velocity=97 time=2
note_on channel=0 note=82 velocity=85 time=0
note_on channel=0 note=33 velocity=59 time=12
note_on channel=0 note=25 velocity=44 time=3
note_on channel=0 note=78 velocity=58 time=5
note_on channel=0 note=22 velocity=48 time=7
note_on channel=0 note=80 velocity=38 time=10
note_on channel=0 note=31 velocity=48 time=3
note_on channel=0 note=78 velocity=0 time=22
note_on channel=0 note=82 velocity=0 time=15
note_on channel=0 note=33 velocity=0 time=2
note_on channel=0 note=22 velocity=0 time=1
note_on channel=0 note=31 velocity=0 time=15
note_on channel=0 note=80 velocity=0 time=2
note_on channel=0 note=70 velocity=0 time=10
note_on channel=0 note=30 velocity=0 time=24
note_on channel=0 note=21 velocity=0 time=4
note_on channel=0 note=25 velocity=0 time=0
note_on channel=0 note=21 velocity=61 time=77
note_on channel=0 note=30 velocity=63 time=1
note_on channel=0 note=33 velocity=69 time=9
note_on channel=0 note=61 velocity=107 time=2
note_on channel=0 note=25 velocity=49 time=1
note_on channel=0 note=73 velocity=75 time=7
note_on channel=0 note=31 velocity=64 time=6
note_on channel=0 note=22 velocity=51 time=1
note_on channel=0 note=68 velocity=73 time=1
note_on channel=0 note=70 velocity=64 time=1
note_on channel=0 note=60 velocity=51 time=19
note_on channel=0 note=31 velocity=0 time=20
note_on channel=0 note=68 velocity=0 time=4
note_on channel=0 note=22 velocity=0 time=9
note_on channel=0 note=61 velocity=0 time=19
note_on channel=0 note=33 velocity=0 time=1
note_on channel=0 note=60 velocity=0 time=4
note_on channel=0 note=70 velocity=0 time=5
note_on channel=0 note=25 velocity=0 time=20
note_on channel=0 note=21 velocity=0 time=11
note_on channel=0 note=30 velocity=0 time=0
note_on channel=0 note=73 velocity=0 time=5
note_on channel=0 note=21 velocity=55 time=97
note_on channel=0 note=60 velocity=89 time=1
note_on channel=0 note=70 velocity=87 time=1
note_on channel=0 note=30 velocity=66 time=2
note_on channel=0 note=62 velocity=89 time=0
note_on channel=0 note=33 velocity=73 time=1
note_on channel=0 note=68 velocity=82 time=1
note_on channel=0 note=31 velocity=64 time=14
note_on channel=0 note=72 velocity=54 time=5
note_on channel=0 note=25 velocity=53 time=2
note_on channel=0 note=22 velocity=47 time=4
note_on channel=0 note=31 velocity=0 time=28
note_on channel=0 note=60 velocity=0 time=17
note_on channel=0 note=22 velocity=0 time=13
note_on channel=0 note=62 velocity=0 time=1
note_on channel=0 note=33 velocity=0 time=1
note_on channel=0 note=25 velocity=0 time=5
note_on channel=0 note=68 velocity=0 time=5
note_on channel=0 note=70 velocity=0 time=11
note_on channel=0 note=30 velocity=0 time=20
note_on channel=0 note=21 velocity=0 time=1
note_on channel=0 note=72 velocity=0 time=17
note_on channel=0 note=30 velocity=71 time=105
note_on channel=0 note=22 velocity=63 time=7
note_on channel=0 note=21 velocity=55 time=1
note_on channel=0 note=33 velocity=61 time=0
note_on channel=0 note=25 velocity=61 time=1
note_on channel=0 note=78 velocity=97 time=4
note_on channel=0 note=66 velocity=97 time=1
note_on channel=0 note=31 velocity=61 time=1
note_on channel=0 note=75 velocity=85 time=3
note_on channel=0 note=75 velocity=0 time=42
note_on channel=0 note=31 velocity=0 time=33
note_on channel=0 note=33 velocity=0 time=9
note_on channel=0 note=66 velocity=0 time=4
note_on channel=0 note=78 velocity=0 time=20
note_on channel=0 note=21 velocity=0 time=1
note_on channel=0 note=22 velocity=0 time=33
note_on channel=0 note=30 velocity=0 time=5
note_on channel=0 note=25 velocity=0 time=8
note_on channel=0 note=30 velocity=57 time=72
note_on channel=0 note=63 velocity=89 time=9
note_on channel=0 note=25 velocity=48 time=2
note_on channel=0 note=53 velocity=98 time=4
note_on channel=0 note=33 velocity=53 time=1
note_on channel=0 note=22 velocity=42 time=1
note_on channel=0 note=55 velocity=89 time=2
note_on channel=0 note=61 velocity=75 time=0
note_on channel=0 note=21 velocity=39 time=9
note_on channel=0 note=63 velocity=0 time=5
note_on channel=0 note=31 velocity=48 time=4
note_on channel=0 note=61 velocity=0 time=22
note_on channel=0 note=55 velocity=0 time=9
note_on channel=0 note=53 velocity=0 time=17
note_on channel=0 note=31 velocity=0 time=3
note_on channel=0 note=33 velocity=0 time=0
note_on channel=0 note=21 velocity=0 time=10
note_on channel=0 note=22 velocity=0 time=20
note_on channel=0 note=25 velocity=0 time=17
note_on channel=0 note=30 velocity=0 time=2
note_on channel=0 note=30 velocity=66 time=90
note_on channel=0 note=33 velocity=76 time=3
note_on channel=0 note=63 velocity=93 time=1
note_on channel=0 note=66 velocity=87 time=2
note_on channel=0 note=25 velocity=51 time=5
note_on channel=0 note=57 velocity=66 time=1
note_on channel=0 note=22 velocity=54 time=2
note_on channel=0 note=55 velocity=72 time=2
note_on channel=0 note=21 velocity=47 time=1
note_on channel=0 note=31 velocity=73 time=1
note_on channel=0 note=65 velocity=57 time=10
note_on channel=0 note=59 velocity=69 time=2
note_on channel=0 note=23 velocity=51 time=4
note_on channel=0 note=35 velocity=49 time=5
note_on channel=0 note=55 velocity=0 time=14
note_on channel=0 note=31 velocity=0 time=13
note_on channel=0 note=59 velocity=0 time=2
note_on channel=0 note=57 velocity=0 time=7
note_on channel=0 note=23 velocity=0 time=12
note_on channel=0 note=63 velocity=0 time=0
note_on channel=0 note=35 velocity=0 time=3
note_on channel=0 note=65 velocity=0 time=1
note_on channel=0 note=33 velocity=0 time=18
note_on channel=0 note=66 velocity=0 time=9
note_on channel=0 note=21 velocity=0 time=16
note_on channel=0 note=22 velocity=0 time=20
note_on channel=0 note=25 velocity=0 time=13
note_on channel=0 note=30 velocity=0 time=1
note_on channel=0 note=30 velocity=68 time=71
note_on channel=0 note=70 velocity=97 time=1
note_on channel=0 note=61 velocity=89 time=10
note_on channel=0 note=25 velocity=51 time=1
note_on channel=0 note=59 velocity=85 time=4
note_on channel=0 note=68 velocity=79 time=0
note_on channel=0 note=22 velocity=53 time=1
note_on channel=0 note=70 velocity=0 time=2
note_on channel=0 note=60 velocity=89 time=1
note_on channel=0 note=33 velocity=53 time=4
note_on channel=0 note=31 velocity=51 time=12
note_on channel=0 note=60 velocity=0 time=9
note_on channel=0 note=21 velocity=40 time=3
note_on channel=0 note=68 velocity=0 time=2
note_on channel=0 note=70 velocity=104 time=13
note_on channel=0 note=61 velocity=0 time=11
note_on channel=0 note=70 velocity=0 time=7
note_on channel=0 note=31 velocity=0 time=1
note_on channel=0 note=33 velocity=0 time=7
note_on channel=0 note=59 velocity=0 time=13
note_on channel=0 note=21 velocity=0 time=10
note_on channel=0 note=22 velocity=0 time=34
note_on channel=0 note=30 velocity=0 time=4
note_on channel=0 note=25 velocity=0 time=14
note_on channel=0 note=33 velocity=66 time=105
note_on channel=0 note=30 velocity=61 time=1
note_on channel=0 note=22 velocity=54 time=1
note_on channel=0 note=25 velocity=50 time=2
note_on channel=0 note=31 velocity=69 time=0
note_on channel=0 note=21 velocity=53 time=7
note_on channel=0 note=44 velocity=98 time=8
note_on channel=0 note=48 velocity=117 time=1
note_on channel=0 note=46 velocity=82 time=6
note_on channel=0 note=47 velocity=98 time=0
note_on channel=0 note=23 velocity=47 time=18
note_on channel=0 note=49 velocity=40 time=39
note_on channel=0 note=23 velocity=0 time=45
note_on channel=0 note=49 velocity=0 time=25
note_on channel=0 note=46 velocity=0 time=125
note_on channel=0 note=44 velocity=0 time=20
note_on channel=0 note=47 velocity=0 time=7
note_on channel=0 note=21 velocity=0 time=15
note_on channel=0 note=48 velocity=0 time=1
note_on channel=0 note=22 velocity=0 time=12
note_on channel=0 note=31 velocity=0 time=7
note_on channel=0 note=25 velocity=0 time=11
note_on channel=0 note=33 velocity=0 time=4
note_on channel=0 note=30 velocity=0 time=12
note_on channel=0 note=30 velocity=63 time=88
note_on channel=0 note=58 velocity=93 time=3
note_on channel=0 note=59 velocity=75 time=0
note_on channel=0 note=33 velocity=73 time=4
note_on channel=0 note=61 velocity=85 time=1
note_on channel=0 note=60 velocity=107 time=1
note_on channel=0 note=31 velocity=80 time=3
note_on channel=0 note=57 velocity=85 time=0
note_on channel=0 note=25 velocity=59 time=1
note_on channel=0 note=21 velocity=73 time=1
note_on channel=0 note=22 velocity=63 time=7
note_on channel=0 note=64 velocity=48 time=22
note_on channel=0 note=23 velocity=38 time=19
note_on channel=0 note=23 velocity=0 time=50
note_on channel=0 note=64 velocity=0 time=59
note_on channel=0 note=57 velocity=0 time=69
note_on channel=0 note=21 velocity=0 time=6
note_on channel=0 note=60 velocity=0 time=11
note_on channel=0 note=59 velocity=0 time=4
note_on channel=0 note=58 velocity=0 time=11
note_on channel=0 note=31 velocity=0 time=22
note_on channel=0 note=61 velocity=0 time=1
note_on channel=0 note=22 velocity=0 time=12
note_on channel=0 note=33 velocity=0 time=3
note_on channel=0 note=25 velocity=0 time=27
note_on channel=0 note=30 velocity=0 time=26
note_on channel=0 note=30 velocity=61 time=108
note_on channel=0 note=33 velocity=80 time=0
note_on channel=0 note=74 velocity=87 time=2
note_on channel=0 note=75 velocity=97 time=0
note_on channel=0 note=31 velocity=90 time=2
note_on channel=0 note=22 velocity=71 time=2
note_on channel=0 note=80 velocity=82 time=0
note_on channel=0 note=82 velocity=85 time=2
note_on channel=0 note=76 velocity=91 time=1
note_on channel=0 note=21 velocity=73 time=1
note_on channel=0 note=25 velocity=71 time=1
note_on channel=0 note=72 velocity=87 time=3
note_on channel=0 note=23 velocity=80 time=9
note_on channel=0 note=78 velocity=52 time=2
note_on channel=0 note=77 velocity=61 time=7
note_on channel=0 note=79 velocity=54 time=25
note_on channel=0 note=78 velocity=0 time=27
note_on channel=0 note=80 velocity=0 time=67
note_on channel=0 note=23 velocity=0 time=12
note_on channel=0 note=21 velocity=0 time=31
note_on channel=0 note=72 velocity=0 time=30
note_on channel=0 note=22 velocity=0 time=8
note_on channel=0 note=74 velocity=0 time=7
note_on channel=0 note=79 velocity=0 time=1
note_on channel=0 note=76 velocity=0 time=3
note_on channel=0 note=31 velocity=0 time=2
note_on channel=0 note=77 velocity=0 time=7
note_on channel=0 note=25 velocity=0 time=1
note_on channel=0 note=75 velocity=0 time=10
note_on channel=0 note=33 velocity=0 time=21
note_on channel=0 note=30 velocity=0 time=6
note_on channel=0 note=82 velocity=0 time=17
note_on channel=0 note=87 velocity=97 time=154
note_on channel=0 note=84 velocity=84 time=5
note_on channel=0 note=83 velocity=91 time=1
note_on channel=0 note=92 velocity=81 time=1
note_on channel=0 note=65 velocity=84 time=2
note_on channel=0 note=56 velocity=55 time=1
note_on channel=0 note=90 velocity=71 time=0
note_on channel=0 note=63 velocity=79 time=3
note_on channel=0 note=55 velocity=72 time=2
note_on channel=0 note=64 velocity=82 time=5
note_on channel=0 note=95 velocity=58 time=2
note_on channel=0 note=93 velocity=65 time=3
note_on channel=0 note=89 velocity=63 time=9
note_on channel=0 note=60 velocity=47 time=3
note_on channel=0 note=90 velocity=0 time=2
note_on channel=0 note=59 velocity=55 time=10
note_on channel=0 note=57 velocity=44 time=1
note_on channel=0 note=57 velocity=0 time=143
note_on channel=0 note=93 velocity=0 time=0
note_on channel=0 note=95 velocity=0 time=1
note_on channel=0 note=56 velocity=0 time=20
note_on channel=0 note=83 velocity=0 time=6
note_on channel=0 note=84 velocity=0 time=5
note_on channel=0 note=59 velocity=0 time=1
note_on channel=0 note=64 velocity=0 time=13
note_on channel=0 note=60 velocity=0 time=16
note_on channel=0 note=89 velocity=0 time=14
note_on channel=0 note=87 velocity=0 time=10
note_on channel=0 note=65 velocity=0 time=5
note_on channel=0 note=92 velocity=0 time=20
note_on channel=0 note=55 velocity=0 time=15
note_on channel=0 note=63 velocity=0 time=0
note_on channel=0 note=63 velocity=75 time=159
note_on channel=0 note=79 velocity=87 time=4
note_on channel=0 note=85 velocity=91 time=0
note_on channel=0 note=57 velocity=72 time=2
note_on channel=0 note=91 velocity=81 time=1
note_on channel=0 note=90 velocity=78 time=1
note_on channel=0 note=71 velocity=75 time=1
note_on channel=0 note=61 velocity=64 time=4
note_on channel=0 note=69 velocity=84 time=3
note_on channel=0 note=87 velocity=71 time=0
note_on channel=0 note=77 velocity=82 time=1
note_on channel=0 note=81 velocity=75 time=0
note_on channel=0 note=58 velocity=48 time=15
note_on channel=0 note=59 velocity=56 time=5
note_on channel=0 note=60 velocity=60 time=2
note_on channel=0 note=77 velocity=0 time=11
note_on channel=0 note=59 velocity=0 time=41
note_on channel=0 note=58 velocity=0 time=17
note_on channel=0 note=91 velocity=0 time=73
note_on channel=0 note=60 velocity=0 time=34
note_on channel=0 note=81 velocity=0 time=4
note_on channel=0 note=79 velocity=0 time=36
note_on channel=0 note=87 velocity=0 time=0
note_on channel=0 note=90 velocity=0 time=1
note_on channel=0 note=85 velocity=0 time=20
note_on channel=0 note=71 velocity=0 time=19
note_on channel=0 note=69 velocity=0 time=9
note_on channel=0 note=61 velocity=0 time=32
note_on channel=0 note=57 velocity=0 time=19
note_on channel=0 note=63 velocity=0 time=2
note_on channel=0 note=71 velocity=84 time=99
note_on channel=0 note=63 velocity=82 time=2
note_on channel=0 note=69 velocity=84 time=2
note_on channel=0 note=73 velocity=91 time=2
note_on channel=0 note=55 velocity=82 time=2
note_on channel=0 note=64 velocity=82 time=1
note_on channel=0 note=72 velocity=97 time=3
note_on channel=0 note=65 velocity=87 time=1
note_on channel=0 note=76 velocity=63 time=6
note_on channel=0 note=56 velocity=61 time=8
note_on channel=0 note=74 velocity=56 time=13
note_on channel=0 note=62 velocity=63 time=5
note_on channel=0 note=60 velocity=69 time=1
note_on channel=0 note=61 velocity=56 time=1
note_on channel=0 note=56 velocity=0 time=17
note_on channel=0 note=65 velocity=0 time=192
note_on channel=0 note=74 velocity=0 time=0
note_on channel=0 note=63 velocity=0 time=14
note_on channel=0 note=69 velocity=0 time=3
note_on channel=0 note=64 velocity=0 time=10
note_on channel=0 note=72 velocity=0 time=2
note_on channel=0 note=61 velocity=0 time=1
note_on channel=0 note=62 velocity=0 time=2
note_on channel=0 note=71 velocity=0 time=6
note_on channel=0 note=73 velocity=0 time=1
note_on channel=0 note=60 velocity=0 time=16
note_on channel=0 note=76 velocity=0 time=3
note_on channel=0 note=55 velocity=0 time=36
note_on channel=0 note=82 velocity=97 time=132
note_on channel=0 note=47 velocity=82 time=3
note_on channel=0 note=77 velocity=82 time=0
note_on channel=0 note=88 velocity=87 time=3
note_on channel=0 note=76 velocity=97 time=2
note_on channel=0 note=54 velocity=82 time=3
note_on channel=0 note=51 velocity=82 time=1
note_on channel=0 note=60 velocity=85 time=5
note_on channel=0 note=59 velocity=69 time=1
note_on channel=0 note=84 velocity=72 time=1
note_on channel=0 note=86 velocity=61 time=4
note_on channel=0 note=85 velocity=56 time=6
note_on channel=0 note=79 velocity=51 time=10
note_on channel=0 note=48 velocity=52 time=1
note_on channel=0 note=55 velocity=60 time=30
note_on channel=0 note=79 velocity=0 time=32
note_on channel=0 note=48 velocity=0 time=82
note_on channel=0 note=54 velocity=0 time=34
note_on channel=0 note=55 velocity=0 time=0
note_on channel=0 note=76 velocity=0 time=15
note_on channel=0 note=60 velocity=0 time=5
note_on channel=0 note=77 velocity=0 time=4
note_on channel=0 note=59 velocity=0 time=8
note_on channel=0 note=88 velocity=0 time=7
note_on channel=0 note=85 velocity=0 time=7
note_on channel=0 note=82 velocity=0 time=7
note_on channel=0 note=84 velocity=0 time=3
note_on channel=0 note=86 velocity=0 time=13
note_on channel=0 note=51 velocity=0 time=8
note_on channel=0 note=47 velocity=0 time=16
note_on channel=0 note=90 velocity=97 time=138
note_on channel=0 note=86 velocity=104 time=1
note_on channel=0 note=38 velocity=83 time=1
note_on channel=0 note=84 velocity=104 time=1
note_on channel=0 note=92 velocity=87 time=1
note_on channel=0 note=40 velocity=76 time=1
note_on channel=0 note=50 velocity=89 time=1
note_on channel=0 note=95 velocity=91 time=0
note_on channel=0 note=52 velocity=89 time=2
note_on channel=0 note=88 velocity=87 time=0
note_on channel=0 note=46 velocity=66 time=6
note_on channel=0 note=47 velocity=79 time=4
note_on channel=0 note=43 velocity=65 time=11
note_on channel=0 note=44 velocity=59 time=4
note_on channel=0 note=46 velocity=0 time=86
note_on channel=0 note=52 velocity=0 time=91
note_on channel=0 note=47 velocity=0 time=4
note_on channel=0 note=50 velocity=0 time=0
note_on channel=0 note=44 velocity=0 time=9
note_on channel=0 note=88 velocity=0 time=8
note_on channel=0 note=84 velocity=0 time=2
note_on channel=0 note=95 velocity=0 time=5
note_on channel=0 note=86 velocity=0 time=1
note_on channel=0 note=43 velocity=0 time=6
note_on channel=0 note=90 velocity=0 time=2
note_on channel=0 note=38 velocity=0 time=13
note_on channel=0 note=92 velocity=0 time=1
note_on channel=0 note=40 velocity=0 time=15
note_on channel=0 note=89 velocity=97 time=195
note_on channel=0 note=94 velocity=97 time=3
note_on channel=0 note=100 velocity=87 time=3
note_on channel=0 note=88 velocity=97 time=1
note_on channel=0 note=97 velocity=87 time=0
note_on channel=0 note=36 velocity=90 time=4
note_on channel=0 note=24 velocity=90 time=1
note_on channel=0 note=93 velocity=81 time=4
note_on channel=0 note=98 velocity=87 time=1
note_on channel=0 note=27 velocity=84 time=2
note_on channel=0 note=92 velocity=56 time=3
note_on channel=0 note=35 velocity=86 time=3
note_on channel=0 note=26 velocity=52 time=16
note_on channel=0 note=96 velocity=51 time=23
note_on channel=0 note=92 velocity=0 time=10
note_on channel=0 note=35 velocity=0 time=90
note_on channel=0 note=31 velocity=36 time=40
note_on channel=0 note=98 velocity=0 time=18
note_on channel=0 note=26 velocity=0 time=3
note_on channel=0 note=100 velocity=0 time=3
note_on channel=0 note=96 velocity=0 time=9
note_on channel=0 note=97 velocity=0 time=6
note_on channel=0 note=93 velocity=0 time=3
note_on channel=0 note=89 velocity=0 time=3
note_on channel=0 note=88 velocity=0 time=3
note_on channel=0 note=24 velocity=0 time=6
note_on channel=0 note=94 velocity=0 time=2
note_on channel=0 note=31 velocity=0 time=6
note_on channel=0 note=27 velocity=0 time=6
note_on channel=0 note=36 velocity=0 time=23
note_on channel=0 note=41 velocity=80 time=146
note_on channel=0 note=50 velocity=85 time=14
note_on channel=0 note=49 velocity=85 time=1
note_on channel=0 note=80 velocity=97 time=0
note_on channel=0 note=52 velocity=72 time=1
note_on channel=0 note=76 velocity=78 time=4
note_on channel=0 note=82 velocity=87 time=1
note_on channel=0 note=77 velocity=91 time=2
note_on channel=0 note=45 velocity=58 time=11
note_on channel=0 note=84 velocity=57 time=6
note_on channel=0 note=86 velocity=52 time=5
note_on channel=0 note=52 velocity=0 time=4
note_on channel=0 note=83 velocity=57 time=14
note_on channel=0 note=86 velocity=0 time=45
note_on channel=0 note=83 velocity=0 time=13
note_on channel=0 note=45 velocity=0 time=97
note_on channel=0 note=77 velocity=0 time=5
note_on channel=0 note=84 velocity=0 time=7
note_on channel=0 note=76 velocity=0 time=5
note_on channel=0 note=82 velocity=0 time=13
note_on channel=0 note=50 velocity=0 time=1
note_on channel=0 note=80 velocity=0 time=0
note_on channel=0 note=41 velocity=0 time=18
note_on channel=0 note=49 velocity=0 time=7
note_on channel=0 note=67 velocity=84 time=174
note_on channel=0 note=73 velocity=91 time=1
note_on channel=0 note=77 velocity=84 time=0
note_on channel=0 note=48 velocity=72 time=5
note_on channel=0 note=69 velocity=91 time=1
note_on channel=0 note=75 velocity=75 time=0
note_on channel=0 note=59 velocity=89 time=2
note_on channel=0 note=71 velocity=78 time=6
note_on channel=0 note=56 velocity=82 time=1
note_on channel=0 note=50 velocity=63 time=8
note_on channel=0 note=70 velocity=42 time=8
note_on channel=0 note=49 velocity=50 time=2
note_on channel=0 note=52 velocity=50 time=9
note_on channel=0 note=53 velocity=56 time=4
note_on channel=0 note=49 velocity=0 time=41
note_on channel=0 note=70 velocity=0 time=18
note_on channel=0 note=69 velocity=0 time=114
note_on channel=0 note=67 velocity=0 time=14
note_on channel=0 note=71 velocity=0 time=4
note_on channel=0 note=52 velocity=0 time=9
note_on channel=0 note=59 velocity=0 time=1
note_on channel=0 note=48 velocity=0 time=18
note_on channel=0 note=50 velocity=0 time=6
note_on channel=0 note=53 velocity=0 time=2
note_on channel=0 note=77 velocity=0 time=8
note_on channel=0 note=73 velocity=0 time=3
note_on channel=0 note=75 velocity=0 time=8
note_on channel=0 note=56 velocity=0 time=5
note_on channel=0 note=74 velocity=97 time=152
note_on channel=0 note=84 velocity=84 time=4
note_on channel=0 note=78 velocity=87 time=1
note_on channel=0 note=80 velocity=82 time=3
note_on channel=0 note=86 velocity=72 time=2
note_on channel=0 note=76 velocity=87 time=2
note_on channel=0 note=53 velocity=69 time=1
note_on channel=0 note=58 velocity=85 time=7
note_on channel=0 note=55 velocity=82 time=1
note_on channel=0 note=65 velocity=91 time=0
note_on channel=0 note=83 velocity=60 time=1
note_on channel=0 note=64 velocity=72 time=12
note_on channel=0 note=62 velocity=65 time=13
note_on channel=0 note=64 velocity=0 time=30
note_on channel=0 note=53 velocity=0 time=34
note_on channel=0 note=59 velocity=63 time=19
note_on channel=0 note=86 velocity=0 time=51
note_on channel=0 note=76 velocity=0 time=4
note_on channel=0 note=65 velocity=0 time=4
note_on channel=0 note=83 velocity=0 time=8
note_on channel=0 note=84 velocity=0 time=3
note_on channel=0 note=62 velocity=0 time=2
note_on channel=0 note=58 velocity=0 time=9
note_on channel=0 note=74 velocity=0 time=19
note_on channel=0 note=80 velocity=0 time=19
note_on channel=0 note=59 velocity=0 time=1
note_on channel=0 note=78 velocity=0 time=2
note_on channel=0 note=55 velocity=0 time=43
note_on channel=0 note=65 velocity=91 time=180
note_on channel=0 note=76 velocity=87 time=0
note_on channel=0 note=68 velocity=82 time=5
note_on channel=0 note=58 velocity=85 time=4
note_on channel=0 note=62 velocity=82 time=3
note_on channel=0 note=50 velocity=69 time=2
note_on channel=0 note=51 velocity=64 time=1
note_on channel=0 note=54 velocity=69 time=0
note_on channel=0 note=69 velocity=84 time=1
note_on channel=0 note=71 velocity=75 time=2
note_on channel=0 note=74 velocity=51 time=16
note_on channel=0 note=68 velocity=0 time=13
note_on channel=0 note=54 velocity=0 time=12
note_on channel=0 note=59 velocity=61 time=0
note_on channel=0 note=55 velocity=51 time=17
note_on channel=0 note=59 velocity=0 time=169
note_on channel=0 note=65 velocity=0 time=0
note_on channel=0 note=58 velocity=0 time=3
note_on channel=0 note=69 velocity=0 time=7
note_on channel=0 note=62 velocity=0 time=4
note_on channel=0 note=55 velocity=0 time=10
note_on channel=0 note=71 velocity=0 time=2
note_on channel=0 note=74 velocity=0 time=14
note_on channel=0 note=50 velocity=0 time=20
note_on channel=0 note=76 velocity=0 time=2
note_on channel=0 note=51 velocity=0 time=9
note_on channel=0 note=46 velocity=85 time=127
note_on channel=0 note=78 velocity=87 time=5
note_on channel=0 note=79 velocity=78 time=4
note_on channel=0 note=69 velocity=97 time=2
note_on channel=0 note=75 velocity=79 time=6
note_on channel=0 note=56 velocity=85 time=2
note_on channel=0 note=81 velocity=72 time=7
note_on channel=0 note=76 velocity=78 time=1
note_on channel=0 note=58 velocity=69 time=12
note_on channel=0 note=49 velocity=51 time=31
note_on channel=0 note=81 velocity=0 time=4
note_on channel=0 note=58 velocity=0 time=5
note_on channel=0 note=57 velocity=46 time=19
note_on channel=0 note=47 velocity=37 time=17
note_on channel=0 note=49 velocity=0 time=24
note_on channel=0 note=57 velocity=0 time=19
note_on channel=0 note=47 velocity=0 time=18
note_on channel=0 note=76 velocity=0 time=15
note_on channel=0 note=75 velocity=0 time=28
note_on channel=0 note=79 velocity=0 time=19
note_on channel=0 note=56 velocity=0 time=5
note_on channel=0 note=69 velocity=0 time=11
note_on channel=0 note=46 velocity=0 time=40
note_on channel=0 note=78 velocity=0 time=8
note_on channel=0 note=68 velocity=91 time=173
note_on channel=0 note=80 velocity=91 time=2
note_on channel=0 note=43 velocity=85 time=11
note_on channel=0 note=70 velocity=85 time=1
note_on channel=0 note=50 velocity=79 time=7
note_on channel=0 note=77 velocity=57 time=4
note_on channel=0 note=53 velocity=69 time=1
note_on channel=0 note=52 velocity=79 time=4
note_on channel=0 note=75 velocity=52 time=4
note_on channel=0 note=76 velocity=56 time=5
note_on channel=0 note=45 velocity=49 time=4
note_on channel=0 note=78 velocity=48 time=1
note_on channel=0 note=47 velocity=48 time=3
note_on channel=0 note=48 velocity=55 time=3
note_on channel=0 note=76 velocity=0 time=54
note_on channel=0 note=70 velocity=0 time=10
note_on channel=0 note=75 velocity=0 time=16
note_on channel=0 note=47 velocity=0 time=16
note_on channel=0 note=52 velocity=0 time=19
note_on channel=0 note=77 velocity=0 time=9
note_on channel=0 note=80 velocity=0 time=32
note_on channel=0 note=78 velocity=0 time=27
note_on channel=0 note=53 velocity=0 time=15
note_on channel=0 note=50 velocity=0 time=12
note_on channel=0 note=48 velocity=0 time=10
note_on channel=0 note=68 velocity=0 time=6
note_on channel=0 note=45 velocity=0 time=9
note_on channel=0 note=43 velocity=0 time=5
note_on channel=0 note=66 velocity=91 time=141
note_on channel=0 note=68 velocity=85 time=5
note_on channel=0 note=37 velocity=91 time=3
note_on channel=0 note=62 velocity=85 time=2
note_on channel=0 note=70 velocity=82 time=0
note_on channel=0 note=46 velocity=98 time=8
note_on channel=0 note=64 velocity=69 time=10
note_on channel=0 note=39 velocity=66 time=1
note_on channel=0 note=38 velocity=66 time=6
note_on channel=0 note=64 velocity=0 time=27
note_on channel=0 note=69 velocity=61 time=11
note_on channel=0 note=37 velocity=0 time=1
note_on channel=0 note=42 velocity=39 time=3
note_on channel=0 note=70 velocity=0 time=4
note_on channel=0 note=42 velocity=0 time=48
note_on channel=0 note=69 velocity=0 time=17
note_on channel=0 note=39 velocity=0 time=58
note_on channel=0 note=62 velocity=0 time=11
note_on channel=0 note=46 velocity=0 time=11
note_on channel=0 note=38 velocity=0 time=9
note_on channel=0 note=66 velocity=0 time=42
note_on channel=0 note=68 velocity=0 time=6
note_on channel=0 note=75 velocity=91 time=170
note_on channel=0 note=63 velocity=107 time=2
note_on channel=0 note=28 velocity=95 time=7
note_on channel=0 note=27 velocity=66 time=8
note_on channel=0 note=38 velocity=90 time=1
note_on channel=0 note=40 velocity=90 time=2
note_on channel=0 note=73 velocity=63 time=2
note_on channel=0 note=70 velocity=60 time=8
note_on channel=0 note=29 velocity=59 time=5
note_on channel=0 note=74 velocity=44 time=13
note_on channel=0 note=27 velocity=0 time=6
note_on channel=0 note=74 velocity=0 time=190
note_on channel=0 note=29 velocity=0 time=11
note_on channel=0 note=70 velocity=0 time=12
note_on channel=0 note=38 velocity=0 time=31
note_on channel=0 note=63 velocity=0 time=10
note_on channel=0 note=75 velocity=0 time=4
note_on channel=0 note=28 velocity=0 time=2
note_on channel=0 note=73 velocity=0 time=2
note_on channel=0 note=40 velocity=0 time=4
note_on channel=0 note=68 velocity=85 time=111
note_on channel=0 note=70 velocity=75 time=8
note_on channel=0 note=62 velocity=82 time=1
note_on channel=0 note=60 velocity=75 time=1
note_on channel=0 note=39 velocity=91 time=2
note_on channel=0 note=67 velocity=60 time=12
note_on channel=0 note=49 velocity=82 time=12
note_on channel=0 note=51 velocity=85 time=13
note_on channel=0 note=67 velocity=0 time=23
note_on channel=0 note=60 velocity=0 time=17
note_on channel=0 note=70 velocity=0 time=18
note_on channel=0 note=67 velocity=36 time=77
note_on channel=0 note=49 velocity=0 time=1
note_on channel=0 note=62 velocity=0 time=14
note_on channel=0 note=39 velocity=0 time=45
note_on channel=0 note=51 velocity=0 time=24
note_on channel=0 note=67 velocity=0 time=6
note_on channel=0 note=68 velocity=0 time=46
note_on channel=0 note=51 velocity=85 time=143
note_on channel=0 note=59 velocity=89 time=1
note_on channel=0 note=68 velocity=91 time=2
note_on channel=0 note=78 velocity=73 time=3
note_on channel=0 note=47 velocity=60 time=6
note_on channel=0 note=48 velocity=72 time=1
note_on channel=0 note=54 velocity=51 time=10
note_on channel=0 note=75 velocity=52 time=4
note_on channel=0 note=55 velocity=60 time=10
note_on channel=0 note=77 velocity=39 time=13
note_on channel=0 note=47 velocity=0 time=28
note_on channel=0 note=55 velocity=0 time=19
note_on channel=0 note=54 velocity=0 time=6
note_on channel=0 note=75 velocity=0 time=72
note_on channel=0 note=77 velocity=0 time=8
note_on channel=0 note=68 velocity=0 time=61
note_on channel=0 note=59 velocity=0 time=28
note_on channel=0 note=48 velocity=0 time=4
note_on channel=0 note=78 velocity=0 time=1
note_on channel=0 note=51 velocity=0 time=46
note_on channel=0 note=72 velocity=78 time=89
note_on channel=0 note=51 velocity=66 time=5
note_on channel=0 note=77 velocity=75 time=0
note_on channel=0 note=48 velocity=72 time=2
note_on channel=0 note=60 velocity=93 time=1
note_on channel=0 note=75 velocity=53 time=4
note_on channel=0 note=55 velocity=75 time=1
note_on channel=0 note=76 velocity=66 time=6
note_on channel=0 note=82 velocity=41 time=19
note_on channel=0 note=75 velocity=0 time=30
note_on channel=0 note=82 velocity=0 time=28
note_on channel=0 note=48 velocity=0 time=100
note_on channel=0 note=72 velocity=0 time=40
note_on channel=0 note=55 velocity=0 time=16
note_on channel=0 note=51 velocity=0 time=12
note_on channel=0 note=60 velocity=0 time=3
note_on channel=0 note=77 velocity=0 time=8
note_on channel=0 note=76 velocity=0 time=2
note_on channel=0 note=74 velocity=82 time=132
note_on channel=0 note=82 velocity=79 time=2
note_on channel=0 note=53 velocity=75 time=2
note_on channel=0 note=64 velocity=89 time=8
note_on channel=0 note=80 velocity=52 time=9
note_on channel=0 note=57 velocity=63 time=3
note_on channel=0 note=60 velocity=65 time=3
note_on channel=0 note=78 velocity=55 time=0
note_on channel=0 note=81 velocity=45 time=63
note_on channel=0 note=78 velocity=0 time=1
note_on channel=0 note=81 velocity=0 time=96
note_on channel=0 note=60 velocity=0 time=58
note_on channel=0 note=82 velocity=0 time=6
note_on channel=0 note=57 velocity=0 time=6
note_on channel=0 note=74 velocity=0 time=1
note_on channel=0 note=64 velocity=0 time=40
note_on channel=0 note=80 velocity=0 time=26
note_on channel=0 note=53 velocity=0 time=12
note_on channel=0 note=61 velocity=85 time=98
note_on channel=0 note=53 velocity=57 time=1
note_on channel=0 note=75 velocity=85 time=4
note_on channel=0 note=58 velocity=79 time=2
note_on channel=0 note=84 velocity=57 time=9
note_on channel=0 note=83 velocity=57 time=21
note_on channel=0 note=53 velocity=0 time=89
note_on channel=0 note=61 velocity=0 time=49
note_on channel=0 note=75 velocity=0 time=11
note_on channel=0 note=83 velocity=0 time=61
note_on channel=0 note=58 velocity=0 time=25
note_on channel=0 note=84 velocity=0 time=12
note_on channel=0 note=89 velocity=84 time=142
note_on channel=0 note=79 velocity=84 time=2
note_on channel=0 note=85 velocity=70 time=6
note_on channel=0 note=51 velocity=79 time=7
note_on channel=0 note=61 velocity=85 time=0
note_on channel=0 note=82 velocity=49 time=0
note_on channel=0 note=87 velocity=64 time=2
note_on channel=0 note=83 velocity=69 time=2
note_on channel=0 note=50 velocity=85 time=6
note_on channel=0 note=63 velocity=59 time=8
note_on channel=0 note=62 velocity=65 time=3
note_on channel=0 note=84 velocity=61 time=0
note_on channel=0 note=60 velocity=61 time=8
note_on channel=0 note=62 velocity=0 time=35
note_on channel=0 note=63 velocity=0 time=0
note_on channel=0 note=60 velocity=0 time=7
note_on channel=0 note=85 velocity=0 time=6
note_on channel=0 note=50 velocity=0 time=74
note_on channel=0 note=82 velocity=0 time=15
note_on channel=0 note=87 velocity=0 time=6
note_on channel=0 note=61 velocity=0 time=29
note_on channel=0 note=79 velocity=0 time=14
note_on channel=0 note=51 velocity=0 time=20
note_on channel=0 note=84 velocity=0 time=21
note_on channel=0 note=83 velocity=0 time=1
note_on channel=0 note=89 velocity=0 time=50
note_on channel=0 note=83 velocity=87 time=113
note_on channel=0 note=93 velocity=84 time=1
note_on channel=0 note=58 velocity=82 time=1
note_on channel=0 note=62 velocity=85 time=2
note_on channel=0 note=86 velocity=72 time=5
note_on channel=0 note=54 velocity=66 time=3
note_on channel=0 note=50 velocity=56 time=5
note_on channel=0 note=88 velocity=61 time=5
note_on channel=0 note=87 velocity=43 time=1
note_on channel=0 note=89 velocity=49 time=5
note_on channel=0 note=51 velocity=57 time=1
note_on channel=0 note=81 velocity=57 time=1
note_on channel=0 note=52 velocity=65 time=1
note_on channel=0 note=64 velocity=44 time=15
note_on channel=0 note=51 velocity=0 time=26
note_on channel=0 note=50 velocity=0 time=8
note_on channel=0 note=81 velocity=0 time=0
note_on channel=0 note=64 velocity=0 time=29
note_on channel=0 note=62 velocity=0 time=25
note_on channel=0 note=52 velocity=0 time=8
note_on channel=0 note=87 velocity=0 time=16
note_on channel=0 note=83 velocity=0 time=55
note_on channel=0 note=89 velocity=0 time=16
note_on channel=0 note=54 velocity=0 time=12
note_on channel=0 note=86 velocity=0 time=0
note_on channel=0 note=88 velocity=0 time=42
note_on channel=0 note=58 velocity=0 time=12
note_on channel=0 note=93 velocity=0 time=5
note_on channel=0 note=84 velocity=75 time=109
note_on channel=0 note=96 velocity=84 time=5
note_on channel=0 note=51 velocity=72 time=1
note_on channel=0 note=92 velocity=75 time=3
note_on channel=0 note=61 velocity=62 time=6
note_on channel=0 note=63 velocity=69 time=0
note_on channel=0 note=49 velocity=66 time=3
note_on channel=0 note=89 velocity=67 time=1
note_on channel=0 note=86 velocity=61 time=3
note_on channel=0 note=50 velocity=58 time=25
note_on channel=0 note=49 velocity=0 time=2
note_on channel=0 note=61 velocity=0 time=77
note_on channel=0 note=86 velocity=0 time=28
note_on channel=0 note=50 velocity=0 time=33
note_on channel=0 note=63 velocity=0 time=27
note_on channel=0 note=84 velocity=0 time=67
note_on channel=0 note=51 velocity=0 time=31
note_on channel=0 note=92 velocity=0 time=17
note_on channel=0 note=89 velocity=0 time=5
note_on channel=0 note=92 velocity=75 time=60
note_on channel=0 note=89 velocity=63 time=7
note_on channel=0 note=84 velocity=75 time=1
note_on channel=0 note=51 velocity=48 time=4
note_on channel=0 note=54 velocity=64 time=6
note_on channel=0 note=64 velocity=57 time=1
note_on channel=0 note=62 velocity=57 time=4
note_on channel=0 note=50 velocity=55 time=4
note_on channel=0 note=58 velocity=66 time=3
note_on channel=0 note=52 velocity=52 time=2
note_on channel=0 note=96 velocity=0 time=3
note_on channel=0 note=50 velocity=0 time=38
note_on channel=0 note=62 velocity=0 time=46
note_on channel=0 note=51 velocity=0 time=48
note_on channel=0 note=52 velocity=0 time=50
note_on channel=0 note=84 velocity=0 time=13
note_on channel=0 note=64 velocity=0 time=17
note_on channel=0 note=54 velocity=0 time=38
note_on channel=0 note=58 velocity=0 time=55
note_on channel=0 note=89 velocity=0 time=64
note_on channel=0 note=94 velocity=78 time=13
note_on channel=0 note=86 velocity=75 time=2
note_on channel=0 note=67 velocity=78 time=4
note_on channel=0 note=54 velocity=75 time=8
note_on channel=0 note=61 velocity=64 time=11
note_on channel=0 note=55 velocity=66 time=1
note_on channel=0 note=58 velocity=41 time=12
note_on channel=0 note=57 velocity=51 time=29
note_on channel=0 note=92 velocity=0 time=10
note_on channel=0 note=54 velocity=0 time=10
note_on channel=0 note=57 velocity=0 time=41
note_on channel=0 note=58 velocity=0 time=28
note_on channel=0 note=67 velocity=0 time=72
note_on channel=0 note=94 velocity=0 time=3
note_on channel=0 note=86 velocity=0 time=26
note_on channel=0 note=55 velocity=0 time=32
note_on channel=0 note=61 velocity=0 time=9
note_on channel=0 note=81 velocity=78 time=138
note_on channel=0 note=91 velocity=87 time=4
note_on channel=0 note=57 velocity=69 time=10
note_on channel=0 note=61 velocity=69 time=3
note_on channel=0 note=65 velocity=82 time=0
note_on channel=0 note=84 velocity=53 time=12
note_on channel=0 note=58 velocity=57 time=4
note_on channel=0 note=64 velocity=72 time=0
note_on channel=0 note=83 velocity=49 time=11
note_on channel=0 note=84 velocity=0 time=78
note_on channel=0 note=58 velocity=0 time=94
note_on channel=0 note=83 velocity=0 time=1
note_on channel=0 note=91 velocity=0 time=10
note_on channel=0 note=64 velocity=0 time=22
note_on channel=0 note=65 velocity=0 time=38
note_on channel=0 note=61 velocity=0 time=7
note_on channel=0 note=81 velocity=0 time=3
note_on channel=0 note=57 velocity=0 time=4
note_on channel=0 note=69 velocity=82 time=146
note_on channel=0 note=79 velocity=78 time=1
note_on channel=0 note=83 velocity=82 time=1
note_on channel=0 note=65 velocity=72 time=1
note_on channel=0 note=85 velocity=85 time=0
note_on channel=0 note=57 velocity=69 time=4
note_on channel=0 note=62 velocity=69 time=9
note_on channel=0 note=58 velocity=56 time=2
note_on channel=0 note=61 velocity=39 time=15
note_on channel=0 note=61 velocity=0 time=62
note_on channel=0 note=83 velocity=0 time=109
note_on channel=0 note=79 velocity=0 time=18
note_on channel=0 note=57 velocity=0 time=6
note_on channel=0 note=85 velocity=0 time=5
note_on channel=0 note=58 velocity=0 time=18
note_on channel=0 note=69 velocity=0 time=37
note_on channel=0 note=62 velocity=0 time=2
note_on channel=0 note=65 velocity=0 time=7
note_on channel=0 note=63 velocity=75 time=157
note_on channel=0 note=66 velocity=85 time=0
note_on channel=0 note=69 velocity=84 time=5
note_on channel=0 note=59 velocity=66 time=1
note_on channel=0 note=82 velocity=85 time=0
note_on channel=0 note=76 velocity=82 time=1
note_on channel=0 note=80 velocity=75 time=4
note_on channel=0 note=79 velocity=41 time=55
note_on channel=0 note=81 velocity=56 time=60
note_on channel=0 note=59 velocity=0 time=9
note_on channel=0 note=79 velocity=0 time=5
note_on channel=0 note=76 velocity=0 time=25
note_on channel=0 note=80 velocity=0 time=1
note_on channel=0 note=82 velocity=0 time=11
note_on channel=0 note=81 velocity=0 time=8
note_on channel=0 note=63 velocity=0 time=13
note_on channel=0 note=69 velocity=0 time=8
note_on channel=0 note=66 velocity=0 time=22
note_on channel=0 note=63 velocity=75 time=164
note_on channel=0 note=88 velocity=77 time=0
note_on channel=0 note=77 velocity=72 time=3
note_on channel=0 note=80 velocity=64 time=6
note_on channel=0 note=70 velocity=87 time=2
note_on channel=0 note=72 velocity=72 time=4
note_on channel=0 note=71 velocity=84 time=3
note_on channel=0 note=83 velocity=72 time=2
note_on channel=0 note=85 velocity=61 time=2
note_on channel=0 note=67 velocity=66 time=9
note_on channel=0 note=81 velocity=66 time=1
note_on channel=0 note=62 velocity=53 time=7
note_on channel=0 note=64 velocity=57 time=0
note_on channel=0 note=62 velocity=0 time=56
note_on channel=0 note=80 velocity=0 time=84
note_on channel=0 note=77 velocity=0 time=7
note_on channel=0 note=63 velocity=0 time=16
note_on channel=0 note=72 velocity=0 time=9
note_on channel=0 note=81 velocity=0 time=9
note_on channel=0 note=67 velocity=0 time=21
note_on channel=0 note=71 velocity=0 time=13
note_on channel=0 note=83 velocity=0 time=11
note_on channel=0 note=64 velocity=0 time=1
note_on channel=0 note=85 velocity=0 time=10
note_on channel=0 note=88 velocity=0 time=23
note_on channel=0 note=70 velocity=0 time=15
note_on channel=0 note=66 velocity=82 time=110
note_on channel=0 note=81 velocity=87 time=1
note_on channel=0 note=91 velocity=91 time=0
note_on channel=0 note=85 velocity=91 time=2
note_on channel=0 note=74 velocity=91 time=3
note_on channel=0 note=83 velocity=84 time=5
note_on channel=0 note=87 velocity=75 time=0
note_on channel=0 note=70 velocity=61 time=3
note_on channel=0 note=72 velocity=69 time=7
note_on channel=0 note=69 velocity=75 time=1
note_on channel=0 note=89 velocity=55 time=3
note_on channel=0 note=65 velocity=57 time=3
note_on channel=0 note=71 velocity=69 time=0
note_on channel=0 note=76 velocity=49 time=3
note_on channel=0 note=67 velocity=56 time=1
note_on channel=0 note=88 velocity=56 time=3
note_on channel=0 note=83 velocity=0 time=2
note_on channel=0 note=71 velocity=0 time=28
note_on channel=0 note=72 velocity=0 time=14
note_on channel=0 note=88 velocity=0 time=5
note_on channel=0 note=89 velocity=0 time=3
note_on channel=0 note=70 velocity=0 time=2
note_on channel=0 note=81 velocity=0 time=4
note_on channel=0 note=74 velocity=0 time=6
note_on channel=0 note=76 velocity=0 time=1
note_on channel=0 note=91 velocity=0 time=19
note_on channel=0 note=65 velocity=0 time=12
note_on channel=0 note=87 velocity=0 time=0
note_on channel=0 note=66 velocity=0 time=1
note_on channel=0 note=69 velocity=0 time=6
note_on channel=0 note=85 velocity=0 time=1
note_on channel=0 note=67 velocity=0 time=7
note_on channel=0 note=92 velocity=91 time=349
note_on channel=0 note=94 velocity=87 time=1
note_on channel=0 note=88 velocity=91 time=1
note_on channel=0 note=100 velocity=77 time=7
note_on channel=0 note=35 velocity=95 time=2
note_on channel=0 note=98 velocity=81 time=2
note_on channel=0 note=45 velocity=93 time=2
note_on channel=0 note=47 velocity=89 time=1
note_on channel=0 note=41 velocity=76 time=2
note_on channel=0 note=38 velocity=76 time=2
note_on channel=0 note=96 velocity=67 time=7
note_on channel=0 note=37 velocity=43 time=17
note_on channel=0 note=37 velocity=0 time=61
note_on channel=0 note=96 velocity=0 time=248
note_on channel=0 note=100 velocity=0 time=8
note_on channel=0 note=98 velocity=0 time=15
note_on channel=0 note=47 velocity=0 time=2
note_on channel=0 note=35 velocity=0 time=28
note_on channel=0 note=88 velocity=0 time=2
note_on channel=0 note=45 velocity=0 time=3
note_on channel=0 note=38 velocity=0 time=10
note_on channel=0 note=92 velocity=0 time=1
note_on channel=0 note=94 velocity=0 time=1
note_on channel=0 note=41 velocity=0 time=9
note_on channel=0 note=72 velocity=104 time=143
note_on channel=0 note=78 velocity=91 time=1
note_on channel=0 note=83 velocity=78 time=2
note_on channel=0 note=80 velocity=75 time=1
note_on channel=0 note=75 velocity=73 time=4
note_on channel=0 note=52 velocity=85 time=2
note_on channel=0 note=56 velocity=89 time=1
note_on channel=0 note=62 velocity=93 time=2
note_on channel=0 note=76 velocity=78 time=2
note_on channel=0 note=59 velocity=79 time=5
note_on channel=0 note=60 velocity=85 time=2
note_on channel=0 note=78 velocity=0 time=7
note_on channel=0 note=77 velocity=63 time=2
note_on channel=0 note=81 velocity=49 time=3
note_on channel=0 note=53 velocity=51 time=3
note_on channel=0 note=75 velocity=0 time=15
note_on channel=0 note=83 velocity=0 time=36
note_on channel=0 note=53 velocity=0 time=4
note_on channel=0 note=81 velocity=0 time=5
note_on channel=0 note=80 velocity=0 time=11
note_on channel=0 note=76 velocity=0 time=33
note_on channel=0 note=62 velocity=0 time=8
note_on channel=0 note=60 velocity=0 time=4
note_on channel=0 note=72 velocity=0 time=3
note_on channel=0 note=52 velocity=0 time=4
note_on channel=0 note=59 velocity=0 time=4
note_on channel=0 note=77 velocity=0 time=6
note_on channel=0 note=56 velocity=0 time=43
note_on channel=0 note=65 velocity=72 time=202
note_on channel=0 note=67 velocity=87 time=8
note_on channel=0 note=63 velocity=82 time=1
note_on channel=0 note=71 velocity=72 time=1
note_on channel=0 note=69 velocity=69 time=1
note_on channel=0 note=70 velocity=66 time=3
note_on channel=0 note=59 velocity=66 time=1
note_on channel=0 note=64 velocity=66 time=9
note_on channel=0 note=73 velocity=57 time=3
note_on channel=0 note=61 velocity=41 time=4
note_on channel=0 note=60 velocity=58 time=11
note_on channel=0 note=64 velocity=0 time=30
note_on channel=0 note=73 velocity=0 time=10
note_on channel=0 note=61 velocity=0 time=21
note_on channel=0 note=62 velocity=38 time=5
note_on channel=0 note=60 velocity=0 time=7
note_on channel=0 note=70 velocity=0 time=49
note_on channel=0 note=67 velocity=0 time=4
note_on channel=0 note=69 velocity=0 time=19
note_on channel=0 note=65 velocity=0 time=14
note_on channel=0 note=71 velocity=0 time=0
note_on channel=0 note=59 velocity=0 time=4
note_on channel=0 note=62 velocity=0 time=2
note_on channel=0 note=63 velocity=0 time=3
note_on channel=0 note=69 velocity=66 time=213
note_on channel=0 note=55 velocity=63 time=2
note_on channel=0 note=63 velocity=69 time=2
note_on channel=0 note=65 velocity=69 time=1
note_on channel=0 note=75 velocity=64 time=2
note_on channel=0 note=73 velocity=64 time=1
note_on channel=0 note=76 velocity=41 time=38
note_on channel=0 note=59 velocity=34 time=30
note_on channel=0 note=60 velocity=34 time=2
note_on channel=0 note=69 velocity=0 time=20
note_on channel=0 note=65 velocity=0 time=28
note_on channel=0 note=76 velocity=0 time=11
note_on channel=0 note=73 velocity=0 time=1
note_on channel=0 note=59 velocity=0 time=10
note_on channel=0 note=75 velocity=0 time=6
note_on channel=0 note=63 velocity=0 time=2
note_on channel=0 note=60 velocity=0 time=8
note_on channel=0 note=55 velocity=0 time=16
note_on channel=0 note=96 velocity=91 time=289
note_on channel=0 note=86 velocity=84 time=1
note_on channel=0 note=88 velocity=97 time=7
note_on channel=0 note=33 velocity=83 time=9
note_on channel=0 note=43 velocity=89 time=12
note_on channel=0 note=91 velocity=37 time=29
note_on channel=0 note=93 velocity=35 time=14
note_on channel=0 note=88 velocity=0 time=119
note_on channel=0 note=96 velocity=0 time=40
note_on channel=0 note=93 velocity=0 time=11
note_on channel=0 note=91 velocity=0 time=12
note_on channel=0 note=86 velocity=0 time=11
note_on channel=0 note=33 velocity=0 time=8
note_on channel=0 note=43 velocity=0 time=11
note_on channel=0 note=81 velocity=57 time=132
note_on channel=0 note=87 velocity=60 time=4
note_on channel=0 note=50 velocity=75 time=3
note_on channel=0 note=85 velocity=57 time=0
note_on channel=0 note=41 velocity=53 time=13
note_on channel=0 note=44 velocity=51 time=6
note_on channel=0 note=44 velocity=0 time=61
note_on channel=0 note=87 velocity=0 time=27
note_on channel=0 note=85 velocity=0 time=3
note_on channel=0 note=81 velocity=0 time=19
note_on channel=0 note=50 velocity=0 time=5
note_on channel=0 note=41 velocity=0 time=4
note_on channel=0 note=59 velocity=55 time=264
note_on channel=0 note=48 velocity=51 time=3
note_on channel=0 note=51 velocity=53 time=9
note_on channel=0 note=78 velocity=60 time=9
note_on channel=0 note=49 velocity=39 time=11
note_on channel=0 note=74 velocity=39 time=4
note_on channel=0 note=55 velocity=48 time=4
note_on channel=0 note=80 velocity=53 time=3
note_on channel=0 note=49 velocity=0 time=56
note_on channel=0 note=55 velocity=0 time=1
note_on channel=0 note=80 velocity=0 time=10
note_on channel=0 note=74 velocity=0 time=2
note_on channel=0 note=48 velocity=0 time=8
note_on channel=0 note=59 velocity=0 time=18
note_on channel=0 note=78 velocity=0 time=8
note_on channel=0 note=51 velocity=0 time=18
note_on channel=0 note=65 velocity=61 time=240
note_on channel=0 note=55 velocity=51 time=19
note_on channel=0 note=56 velocity=46 time=2
note_on channel=0 note=62 velocity=52 time=3
note_on channel=0 note=76 velocity=53 time=2
note_on channel=0 note=78 velocity=56 time=0
note_on channel=0 note=80 velocity=57 time=4
note_on channel=0 note=59 velocity=40 time=13
note_on channel=0 note=82 velocity=48 time=5
note_on channel=0 note=76 velocity=0 time=44
note_on channel=0 note=80 velocity=0 time=0
note_on channel=0 note=78 velocity=0 time=5
note_on channel=0 note=82 velocity=0 time=5
note_on channel=0 note=62 velocity=0 time=1
note_on channel=0 note=65 velocity=0 time=2
note_on channel=0 note=59 velocity=0 time=23
note_on channel=0 note=55 velocity=0 time=13
note_on channel=0 note=56 velocity=0 time=44
note_on channel=0 note=71 velocity=54 time=255
note_on channel=0 note=57 velocity=60 time=5
note_on channel=0 note=78 velocity=58 time=2
note_on channel=0 note=83 velocity=58 time=0
note_on channel=0 note=49 velocity=57 time=5
note_on channel=0 note=45 velocity=52 time=1
note_on channel=0 note=46 velocity=52 time=6
note_on channel=0 note=72 velocity=54 time=4
note_on channel=0 note=75 velocity=49 time=1
note_on channel=0 note=80 velocity=34 time=47
note_on channel=0 note=72 velocity=0 time=8
note_on channel=0 note=75 velocity=0 time=27
note_on channel=0 note=80 velocity=0 time=22
note_on channel=0 note=83 velocity=0 time=17
note_on channel=0 note=78 velocity=0 time=40
note_on channel=0 note=46 velocity=0 time=1
note_on channel=0 note=45 velocity=0 time=11
note_on channel=0 note=49 velocity=0 time=18
note_on channel=0 note=71 velocity=0 time=20
note_on channel=0 note=57 velocity=0 time=1
note_on channel=0 note=67 velocity=52 time=196
note_on channel=0 note=51 velocity=52 time=15
note_on channel=0 note=59 velocity=34 time=32
note_on channel=0 note=56 velocity=46 time=1
note_on channel=0 note=56 velocity=0 time=87
note_on channel=0 note=67 velocity=0 time=30
note_on channel=0 note=51 velocity=0 time=10
note_on channel=0 note=59 velocity=0 time=0
note_on channel=0 note=56 velocity=50 time=259
note_on channel=0 note=68 velocity=52 time=4
note_on channel=0 note=60 velocity=35 time=2
note_on channel=0 note=65 velocity=40 time=31
note_on channel=0 note=65 velocity=0 time=107
note_on channel=0 note=60 velocity=0 time=27
note_on channel=0 note=68 velocity=0 time=16
note_on channel=0 note=56 velocity=0 time=11
note_on channel=0 note=59 velocity=48 time=226
note_on channel=0 note=70 velocity=51 time=2
note_on channel=0 note=65 velocity=46 time=3
note_on channel=0 note=56 velocity=48 time=1
note_on channel=0 note=54 velocity=39 time=43
note_on channel=0 note=65 velocity=0 time=44
note_on channel=0 note=70 velocity=0 time=13
note_on channel=0 note=54 velocity=0 time=17
note_on channel=0 note=59 velocity=0 time=10
note_on channel=0 note=56 velocity=0 time=6
note_on channel=0 note=62 velocity=44 time=298
note_on channel=0 note=68 velocity=42 time=0
note_on channel=0 note=60 velocity=49 time=3
note_on channel=0 note=57 velocity=48 time=13
note_on channel=0 note=74 velocity=49 time=4
note_on channel=0 note=66 velocity=41 time=9
note_on channel=0 note=55 velocity=39 time=3
note_on channel=0 note=68 velocity=0 time=34
note_on channel=0 note=52 velocity=27 time=37
note_on channel=0 note=52 velocity=0 time=64
note_on channel=0 note=74 velocity=0 time=0
note_on channel=0 note=60 velocity=0 time=11
note_on channel=0 note=66 velocity=0 time=7
note_on channel=0 note=62 velocity=0 time=8
note_on channel=0 note=57 velocity=0 time=5
note_on channel=0 note=55 velocity=0 time=18
note_on channel=0 note=68 velocity=51 time=208
note_on channel=0 note=57 velocity=35 time=31
note_on channel=0 note=62 velocity=32 time=1
note_on channel=0 note=68 velocity=0 time=68
note_on channel=0 note=57 velocity=0 time=44
note_on channel=0 note=62 velocity=0 time=8
note_on channel=0 note=66 velocity=49 time=257
note_on channel=0 note=56 velocity=46 time=6
note_on channel=0 note=62 velocity=39 time=17
note_on channel=0 note=59 velocity=38 time=8
note_on channel=0 note=62 velocity=0 time=105
note_on channel=0 note=59 velocity=0 time=8
note_on channel=0 note=66 velocity=0 time=4
note_on channel=0 note=56 velocity=0 time=30
note_on channel=0 note=68 velocity=41 time=218
note_on channel=0 note=58 velocity=42 time=16
note_on channel=0 note=52 velocity=38 time=12
note_on channel=0 note=56 velocity=24 time=30
note_on channel=0 note=58 velocity=0 time=46
note_on channel=0 note=56 velocity=0 time=17
note_on channel=0 note=52 velocity=0 time=7
note_on channel=0 note=68 velocity=0 time=29
note_on channel=0 note=59 velocity=37 time=252
note_on channel=0 note=51 velocity=42 time=38
note_on channel=0 note=69 velocity=48 time=3
note_on channel=0 note=57 velocity=37 time=1
note_on channel=0 note=57 velocity=0 time=69
note_on channel=0 note=51 velocity=0 time=14
note_on channel=0 note=59 velocity=0 time=61
note_on channel=0 note=69 velocity=0 time=8
note_on channel=0 note=63 velocity=48 time=222
note_on channel=0 note=57 velocity=43 time=18
note_on channel=0 note=54 velocity=48 time=6
note_on channel=0 note=51 velocity=42 time=5
note_on channel=0 note=63 velocity=0 time=59
note_on channel=0 note=51 velocity=0 time=12
note_on channel=0 note=57 velocity=0 time=4
note_on channel=0 note=54 velocity=0 time=1
note_on channel=0 note=63 velocity=45 time=302
note_on channel=0 note=51 velocity=48 time=12
note_on channel=0 note=55 velocity=43 time=1
note_on channel=0 note=59 velocity=34 time=21
note_on channel=0 note=63 velocity=0 time=74
note_on channel=0 note=59 velocity=0 time=15
note_on channel=0 note=55 velocity=0 time=2
note_on channel=0 note=51 velocity=0 time=27
note_on channel=0 note=56 velocity=45 time=266
note_on channel=0 note=54 velocity=50 time=8
note_on channel=0 note=51 velocity=48 time=12
note_on channel=0 note=63 velocity=31 time=36
note_on channel=0 note=51 velocity=0 time=26
note_on channel=0 note=54 velocity=0 time=2
note_on channel=0 note=63 velocity=0 time=28
note_on channel=0 note=56 velocity=0 time=28
note_on channel=0 note=51 velocity=48 time=268
note_on channel=0 note=57 velocity=39 time=9
note_on channel=0 note=61 velocity=47 time=2
note_on channel=0 note=55 velocity=41 time=16
note_on channel=0 note=55 velocity=0 time=95
note_on channel=0 note=51 velocity=0 time=30
note_on channel=0 note=61 velocity=0 time=26
note_on channel=0 note=57 velocity=0 time=10
note_on channel=0 note=58 velocity=42 time=211
note_on channel=0 note=51 velocity=48 time=1
note_on channel=0 note=54 velocity=50 time=5
note_on channel=0 note=63 velocity=35 time=53
note_on channel=0 note=54 velocity=0 time=80
note_on channel=0 note=58 velocity=0 time=8
note_on channel=0 note=63 velocity=0 time=2
note_on channel=0 note=51 velocity=0 time=11
note_on channel=0 note=49 velocity=45 time=268
note_on channel=0 note=56 velocity=42 time=12
note_on channel=0 note=56 velocity=0 time=134
note_on channel=0 note=49 velocity=0 time=87
note_on channel=0 note=53 velocity=48 time=132
note_on channel=0 note=61 velocity=48 time=10
note_on channel=0 note=51 velocity=49 time=8
note_on channel=0 note=53 velocity=0 time=129
note_on channel=0 note=51 velocity=0 time=47
note_on channel=0 note=61 velocity=0 time=47
note_on channel=0 note=49 velocity=46 time=182
note_on channel=0 note=63 velocity=46 time=5
note_on channel=0 note=55 velocity=46 time=1
note_on channel=0 note=53 velocity=40 time=8
note_on channel=0 note=53 velocity=0 time=96
note_on channel=0 note=55 velocity=0 time=38
note_on channel=0 note=49 velocity=0 time=18
note_on channel=0 note=63 velocity=0 time=0
note_on channel=0 note=66 velocity=49 time=215
note_on channel=0 note=55 velocity=45 time=11
note_on channel=0 note=47 velocity=39 time=16
note_on channel=0 note=55 velocity=0 time=107
note_on channel=0 note=47 velocity=0 time=49
note_on channel=0 note=66 velocity=0 time=53
note_on channel=0 note=54 velocity=47 time=168
note_on channel=0 note=51 velocity=45 time=21
note_on channel=0 note=63 velocity=44 time=0
note_on channel=0 note=47 velocity=38 time=8
note_on channel=0 note=51 velocity=0 time=69
note_on channel=0 note=54 velocity=0 time=58
note_on channel=0 note=63 velocity=0 time=18
note_on channel=0 note=47 velocity=0 time=19
note_on channel=0 note=55 velocity=50 time=209
note_on channel=0 note=53 velocity=52 time=3
note_on channel=0 note=51 velocity=48 time=8
note_on channel=0 note=61 velocity=51 time=3
note_on channel=0 note=47 velocity=48 time=6
note_on channel=0 note=51 velocity=0 time=56
note_on channel=0 note=55 velocity=0 time=64
note_on channel=0 note=47 velocity=0 time=17
note_on channel=0 note=53 velocity=0 time=3
note_on channel=0 note=61 velocity=0 time=33
note_on channel=0 note=53 velocity=51 time=211
note_on channel=0 note=54 velocity=49 time=12
note_on channel=0 note=51 velocity=49 time=2
note_on channel=0 note=58 velocity=43 time=19
note_on channel=0 note=58 velocity=0 time=64
note_on channel=0 note=51 velocity=0 time=41
note_on channel=0 note=53 velocity=0 time=0
note_on channel=0 note=54 velocity=0 time=47
note_on channel=0 note=52 velocity=43 time=227
note_on channel=0 note=53 velocity=47 time=1
note_on channel=0 note=58 velocity=48 time=8
note_on channel=0 note=51 velocity=45 time=3
note_on channel=0 note=49 velocity=44 time=1
note_on channel=0 note=45 velocity=31 time=35
note_on channel=0 note=49 velocity=0 time=51
note_on channel=0 note=51 velocity=0 time=9
note_on channel=0 note=52 velocity=0 time=7
note_on channel=0 note=45 velocity=0 time=25
note_on channel=0 note=58 velocity=0 time=28
note_on channel=0 note=53 velocity=0 time=8
note_on channel=0 note=51 velocity=53 time=239
note_on channel=0 note=56 velocity=45 time=7
note_on channel=0 note=50 velocity=53 time=7
note_on channel=0 note=43 velocity=48 time=11
note_on channel=0 note=49 velocity=47 time=2
note_on channel=0 note=51 velocity=0 time=77
note_on channel=0 note=50 velocity=0 time=60
note_on channel=0 note=49 velocity=0 time=11
note_on channel=0 note=43 velocity=0 time=15
note_on channel=0 note=56 velocity=0 time=36
note_on channel=0 note=56 velocity=55 time=181
note_on channel=0 note=49 velocity=55 time=6
note_on channel=0 note=52 velocity=49 time=5
note_on channel=0 note=43 velocity=52 time=14
note_on channel=0 note=49 velocity=0 time=93
note_on channel=0 note=56 velocity=0 time=15
note_on channel=0 note=43 velocity=0 time=15
note_on channel=0 note=52 velocity=0 time=27
note_on channel=0 note=51 velocity=52 time=253
note_on channel=0 note=44 velocity=48 time=2
note_on channel=0 note=40 velocity=38 time=23
note_on channel=0 note=50 velocity=39 time=0
note_on channel=0 note=52 velocity=42 time=0
note_on channel=0 note=44 velocity=0 time=57
note_on channel=0 note=52 velocity=0 time=26
note_on channel=0 note=50 velocity=0 time=12
note_on channel=0 note=51 velocity=0 time=4
note_on channel=0 note=40 velocity=0 time=20
note_on channel=0 note=50 velocity=52 time=237
note_on channel=0 note=51 velocity=53 time=16
note_on channel=0 note=52 velocity=43 time=9
note_on channel=0 note=44 velocity=46 time=1
note_on channel=0 note=47 velocity=42 time=8
note_on channel=0 note=54 velocity=48 time=4
note_on channel=0 note=40 velocity=33 time=10
note_on channel=0 note=48 velocity=37 time=21
note_on channel=0 note=44 velocity=0 time=28
note_on channel=0 note=50 velocity=0 time=9
note_on channel=0 note=52 velocity=0 time=1
note_on channel=0 note=54 velocity=0 time=6
note_on channel=0 note=48 velocity=0 time=8
note_on channel=0 note=40 velocity=0 time=15
note_on channel=0 note=47 velocity=0 time=0
note_on channel=0 note=51 velocity=0 time=12
note_on channel=0 note=49 velocity=48 time=242
note_on channel=0 note=50 velocity=46 time=18
note_on channel=0 note=51 velocity=53 time=2
note_on channel=0 note=52 velocity=48 time=6
note_on channel=0 note=44 velocity=48 time=2
note_on channel=0 note=54 velocity=48 time=13
note_on channel=0 note=48 velocity=57 time=1
note_on channel=0 note=49 velocity=0 time=7
note_on channel=0 note=40 velocity=30 time=38
note_on channel=0 note=48 velocity=0 time=16
note_on channel=0 note=54 velocity=0 time=5
note_on channel=0 note=52 velocity=0 time=9
note_on channel=0 note=50 velocity=0 time=18
note_on channel=0 note=44 velocity=0 time=2
note_on channel=0 note=51 velocity=0 time=4
note_on channel=0 note=40 velocity=0 time=28
note_on channel=0 note=44 velocity=57 time=231
note_on channel=0 note=48 velocity=53 time=2
note_on channel=0 note=50 velocity=50 time=1
note_on channel=0 note=52 velocity=57 time=10
note_on channel=0 note=51 velocity=57 time=3
note_on channel=0 note=40 velocity=44 time=8
note_on channel=0 note=54 velocity=51 time=1
note_on channel=0 note=54 velocity=0 time=72
note_on channel=0 note=50 velocity=0 time=42
note_on channel=0 note=51 velocity=0 time=1
note_on channel=0 note=40 velocity=0 time=9
note_on channel=0 note=52 velocity=0 time=0
note_on channel=0 note=48 velocity=0 time=3
note_on channel=0 note=44 velocity=0 time=21
note_on channel=0 note=52 velocity=58 time=230
note_on channel=0 note=48 velocity=56 time=1
note_on channel=0 note=44 velocity=57 time=3
note_on channel=0 note=51 velocity=56 time=3
note_on channel=0 note=50 velocity=57 time=6
note_on channel=0 note=54 velocity=50 time=8
note_on channel=0 note=40 velocity=42 time=13
note_on channel=0 note=40 velocity=0 time=89
note_on channel=0 note=51 velocity=0 time=10
note_on channel=0 note=52 velocity=0 time=0
note_on channel=0 note=50 velocity=0 time=3
note_on channel=0 note=54 velocity=0 time=17
note_on channel=0 note=48 velocity=0 time=14
note_on channel=0 note=44 velocity=0 time=1
note_on channel=0 note=48 velocity=53 time=236
note_on channel=0 note=44 velocity=55 time=3
note_on channel=0 note=51 velocity=62 time=1
note_on channel=0 note=52 velocity=58 time=0
note_on channel=0 note=50 velocity=55 time=4
note_on channel=0 note=54 velocity=53 time=3
note_on channel=0 note=40 velocity=43 time=17
note_on channel=0 note=50 velocity=0 time=46
note_on channel=0 note=40 velocity=0 time=24
note_on channel=0 note=54 velocity=0 time=7
note_on channel=0 note=48 velocity=0 time=10
note_on channel=0 note=51 velocity=0 time=2
note_on channel=0 note=52 velocity=0 time=6
note_on channel=0 note=44 velocity=0 time=13
note_on channel=0 note=44 velocity=64 time=241
note_on channel=0 note=48 velocity=57 time=7
note_on channel=0 note=54 velocity=69 time=7
note_on channel=0 note=40 velocity=48 time=8
note_on channel=0 note=51 velocity=64 time=0
note_on channel=0 note=52 velocity=63 time=0
note_on channel=0 note=50 velocity=57 time=1
note_on channel=0 note=50 velocity=0 time=51
note_on channel=0 note=40 velocity=0 time=22
note_on channel=0 note=52 velocity=0 time=12
note_on channel=0 note=48 velocity=0 time=8
note_on channel=0 note=51 velocity=0 time=4
note_on channel=0 note=54 velocity=0 time=10
note_on channel=0 note=44 velocity=0 time=12
note_on channel=0 note=44 velocity=66 time=259
note_on channel=0 note=52 velocity=66 time=2
note_on channel=0 note=40 velocity=59 time=5
note_on channel=0 note=54 velocity=64 time=2
note_on channel=0 note=51 velocity=64 time=2
note_on channel=0 note=50 velocity=63 time=9
note_on channel=0 note=48 velocity=51 time=12
note_on channel=0 note=50 velocity=0 time=51
note_on channel=0 note=48 velocity=0 time=24
note_on channel=0 note=52 velocity=0 time=0
note_on channel=0 note=51 velocity=0 time=5
note_on channel=0 note=54 velocity=0 time=25
note_on channel=0 note=44 velocity=0 time=4
note_on channel=0 note=40 velocity=0 time=2
note_on channel=0 note=44 velocity=61 time=252
note_on channel=0 note=54 velocity=62 time=7
note_on channel=0 note=52 velocity=58 time=1
note_on channel=0 note=40 velocity=48 time=4
note_on channel=0 note=48 velocity=63 time=0
note_on channel=0 note=51 velocity=59 time=6
note_on channel=0 note=50 velocity=48 time=17
note_on channel=0 note=51 velocity=0 time=62
note_on channel=0 note=50 velocity=0 time=3
note_on channel=0 note=48 velocity=0 time=10
note_on channel=0 note=52 velocity=0 time=3
note_on channel=0 note=40 velocity=0 time=5
note_on channel=0 note=44 velocity=0 time=3
note_on channel=0 note=54 velocity=0 time=2
note_on channel=0 note=44 velocity=48 time=279
note_on channel=0 note=52 velocity=60 time=4
note_on channel=0 note=48 velocity=50 time=2
note_on channel=0 note=51 velocity=61 time=6
note_on channel=0 note=50 velocity=49 time=3
note_on channel=0 note=40 velocity=42 time=3
note_on channel=0 note=54 velocity=50 time=1
note_on channel=0 note=50 velocity=0 time=53
note_on channel=0 note=40 velocity=0 time=17
note_on channel=0 note=54 velocity=0 time=2
note_on channel=0 note=48 velocity=0 time=3
note_on channel=0 note=44 velocity=0 time=14
note_on channel=0 note=51 velocity=0 time=6
note_on channel=0 note=52 velocity=0 time=7
note_on channel=0 note=48 velocity=60 time=302
note_on channel=0 note=44 velocity=56 time=2
note_on channel=0 note=52 velocity=61 time=2
note_on channel=0 note=50 velocity=57 time=3
note_on channel=0 note=51 velocity=64 time=2
note_on channel=0 note=54 velocity=53 time=4
note_on channel=0 note=40 velocity=44 time=8
note_on channel=0 note=50 velocity=0 time=33
note_on channel=0 note=48 velocity=0 time=16
note_on channel=0 note=54 velocity=0 time=1
note_on channel=0 note=44 velocity=0 time=1
note_on channel=0 note=51 velocity=0 time=16
note_on channel=0 note=40 velocity=0 time=1
note_on channel=0 note=52 velocity=0 time=10
note_on channel=0 note=52 velocity=66 time=308
note_on channel=0 note=51 velocity=69 time=3
note_on channel=0 note=44 velocity=61 time=1
note_on channel=0 note=54 velocity=61 time=2
note_on channel=0 note=48 velocity=58 time=3
note_on channel=0 note=50 velocity=55 time=9
note_on channel=0 note=40 velocity=39 time=10
note_on channel=0 note=48 velocity=0 time=38
note_on channel=0 note=50 velocity=0 time=4
note_on channel=0 note=54 velocity=0 time=9
note_on channel=0 note=51 velocity=0 time=1
note_on channel=0 note=44 velocity=0 time=6
note_on channel=0 note=52 velocity=0 time=0
note_on channel=0 note=40 velocity=0 time=14
note_on channel=0 note=51 velocity=82 time=288
note_on channel=0 note=52 velocity=69 time=1
note_on channel=0 note=44 velocity=62 time=1
note_on channel=0 note=48 velocity=65 time=2
note_on channel=0 note=54 velocity=64 time=1
note_on channel=0 note=40 velocity=52 time=9
note_on channel=0 note=50 velocity=56 time=2
note_on channel=0 note=44 velocity=0 time=47
note_on channel=0 note=50 velocity=0 time=3
note_on channel=0 note=40 velocity=0 time=10
note_on channel=0 note=48 velocity=0 time=6
note_on channel=0 note=52 velocity=0 time=14
note_on channel=0 note=51 velocity=0 time=5
note_on channel=0 note=54 velocity=0 time=23
note_on channel=0 note=48 velocity=66 time=274
note_on channel=0 note=52 velocity=79 time=6
note_on channel=0 note=40 velocity=55 time=3
note_on channel=0 note=51 velocity=79 time=1
note_on channel=0 note=44 velocity=56 time=2
note_on channel=0 note=54 velocity=66 time=0
note_on channel=0 note=50 velocity=57 time=2
note_on channel=0 note=50 velocity=0 time=60
note_on channel=0 note=52 velocity=0 time=35
note_on channel=0 note=51 velocity=0 time=17
note_on channel=0 note=44 velocity=0 time=6
note_on channel=0 note=48 velocity=0 time=1
note_on channel=0 note=40 velocity=0 time=2
note_on channel=0 note=54 velocity=0 time=14
note_on channel=0 note=48 velocity=69 time=259
note_on channel=0 note=54 velocity=75 time=2
note_on channel=0 note=51 velocity=82 time=1
note_on channel=0 note=52 velocity=69 time=4
note_on channel=0 note=40 velocity=56 time=4
note_on channel=0 note=44 velocity=57 time=2
note_on channel=0 note=50 velocity=60 time=3
note_on channel=0 note=50 velocity=0 time=46
note_on channel=0 note=51 velocity=0 time=27
note_on channel=0 note=52 velocity=0 time=2
note_on channel=0 note=44 velocity=0 time=8
note_on channel=0 note=48 velocity=0 time=18
note_on channel=0 note=40 velocity=0 time=6
note_on channel=0 note=54 velocity=0 time=2
note_on channel=0 note=44 velocity=66 time=276
note_on channel=0 note=48 velocity=69 time=1
note_on channel=0 note=51 velocity=82 time=4
note_on channel=0 note=54 velocity=72 time=0
note_on channel=0 note=52 velocity=79 time=1
note_on channel=0 note=50 velocity=75 time=1
note_on channel=0 note=40 velocity=59 time=2
note_on channel=0 note=50 velocity=0 time=78
note_on channel=0 note=52 velocity=0 time=23
note_on channel=0 note=51 velocity=0 time=8
note_on channel=0 note=40 velocity=0 time=5
note_on channel=0 note=48 velocity=0 time=12
note_on channel=0 note=44 velocity=0 time=4
note_on channel=0 note=54 velocity=0 time=2
note_on channel=0 note=48 velocity=79 time=265
note_on channel=0 note=51 velocity=89 time=1
note_on channel=0 note=44 velocity=82 time=2
note_on channel=0 note=52 velocity=85 time=3
note_on channel=0 note=54 velocity=79 time=1
note_on channel=0 note=50 velocity=85 time=1
note_on channel=0 note=40 velocity=66 time=6
note_on channel=0 note=52 velocity=0 time=80
note_on channel=0 note=50 velocity=0 time=1
note_on channel=0 note=51 velocity=0 time=8
note_on channel=0 note=40 velocity=0 time=8
note_on channel=0 note=48 velocity=0 time=12
note_on channel=0 note=44 velocity=0 time=4
note_on channel=0 note=54 velocity=0 time=2
note_on channel=0 note=44 velocity=42 time=270
note_on channel=0 note=48 velocity=43 time=7
note_on channel=0 note=52 velocity=57 time=7
note_on channel=0 note=51 velocity=57 time=2
note_on channel=0 note=50 velocity=57 time=7
note_on channel=0 note=40 velocity=41 time=2
note_on channel=0 note=54 velocity=42 time=31
note_on channel=0 note=40 velocity=0 time=63
note_on channel=0 note=50 velocity=0 time=0
note_on channel=0 note=54 velocity=0 time=0
note_on channel=0 note=44 velocity=0 time=23
note_on channel=0 note=48 velocity=0 time=1
note_on channel=0 note=52 velocity=0 time=6
note_on channel=0 note=51 velocity=0 time=2
note_on channel=0 note=49 velocity=43 time=255
note_on channel=0 note=44 velocity=57 time=23
note_on channel=0 note=51 velocity=62 time=6
note_on channel=0 note=52 velocity=60 time=0
note_on channel=0 note=54 velocity=51 time=18
note_on channel=0 note=50 velocity=53 time=4
note_on channel=0 note=40 velocity=45 time=3
note_on channel=0 note=49 velocity=0 time=23
note_on channel=0 note=50 velocity=0 time=28
note_on channel=0 note=54 velocity=0 time=16
note_on channel=0 note=51 velocity=0 time=11
note_on channel=0 note=52 velocity=0 time=15
note_on channel=0 note=40 velocity=0 time=7
note_on channel=0 note=44 velocity=0 time=19
note_on channel=0 note=44 velocity=66 time=253
note_on channel=0 note=48 velocity=63 time=6
note_on channel=0 note=50 velocity=63 time=11
note_on channel=0 note=51 velocity=72 time=0
note_on channel=0 note=52 velocity=63 time=6
note_on channel=0 note=54 velocity=57 time=5
note_on channel=0 note=40 velocity=45 time=6
note_on channel=0 note=50 velocity=0 time=36
note_on channel=0 note=40 velocity=0 time=34
note_on channel=0 note=48 velocity=0 time=24
note_on channel=0 note=52 velocity=0 time=1
note_on channel=0 note=51 velocity=0 time=3
note_on channel=0 note=54 velocity=0 time=5
note_on channel=0 note=44 velocity=0 time=10
note_on channel=0 note=44 velocity=64 time=259
note_on channel=0 note=48 velocity=65 time=1
note_on channel=0 note=50 velocity=69 time=7
note_on channel=0 note=51 velocity=75 time=1
note_on channel=0 note=40 velocity=52 time=5
note_on channel=0 note=52 velocity=65 time=0
note_on channel=0 note=54 velocity=62 time=2
note_on channel=0 note=50 velocity=0 time=87
note_on channel=0 note=51 velocity=0 time=1
note_on channel=0 note=40 velocity=0 time=2
note_on channel=0 note=52 velocity=0 time=11
note_on channel=0 note=48 velocity=0 time=19
note_on channel=0 note=54 velocity=0 time=11
note_on channel=0 note=44 velocity=0 time=3
note_on channel=0 note=48 velocity=65 time=235
note_on channel=0 note=44 velocity=62 time=3
note_on channel=0 note=52 velocity=69 time=4
note_on channel=0 note=51 velocity=72 time=1
note_on channel=0 note=50 velocity=66 time=6
note_on channel=0 note=54 velocity=61 time=1
note_on channel=0 note=40 velocity=51 time=4
note_on channel=0 note=50 velocity=0 time=69
note_on channel=0 note=51 velocity=0 time=45
note_on channel=0 note=40 velocity=0 time=13
note_on channel=0 note=52 velocity=0 time=0
note_on channel=0 note=54 velocity=0 time=6
note_on channel=0 note=48 velocity=0 time=21
note_on channel=0 note=44 velocity=0 time=3
note_on channel=0 note=40 velocity=61 time=220
note_on channel=0 note=52 velocity=72 time=3
note_on channel=0 note=44 velocity=61 time=1
note_on channel=0 note=54 velocity=64 time=2
note_on channel=0 note=48 velocity=66 time=1
note_on channel=0 note=50 velocity=69 time=2
note_on channel=0 note=51 velocity=72 time=2
note_on channel=0 note=50 velocity=0 time=116
note_on channel=0 note=52 velocity=0 time=5
note_on channel=0 note=48 velocity=0 time=21
note_on channel=0 note=40 velocity=0 time=19
note_on channel=0 note=44 velocity=0 time=0
note_on channel=0 note=51 velocity=0 time=0
note_on channel=0 note=54 velocity=0 time=13
note_on channel=0 note=51 velocity=85 time=226
note_on channel=0 note=44 velocity=66 time=1
note_on channel=0 note=52 velocity=89 time=1
note_on channel=0 note=48 velocity=79 time=1
note_on channel=0 note=54 velocity=82 time=1
note_on channel=0 note=40 velocity=69 time=1
note_on channel=0 note=50 velocity=89 time=0
note_on channel=0 note=52 velocity=0 time=78
note_on channel=0 note=51 velocity=0 time=1
note_on channel=0 note=50 velocity=0 time=15
note_on channel=0 note=54 velocity=0 time=22
note_on channel=0 note=48 velocity=0 time=16
note_on channel=0 note=44 velocity=0 time=2
note_on channel=0 note=40 velocity=0 time=6
note_on channel=0 note=48 velocity=75 time=281
note_on channel=0 note=50 velocity=85 time=1
note_on channel=0 note=52 velocity=75 time=2
note_on channel=0 note=44 velocity=75 time=3
note_on channel=0 note=54 velocity=75 time=2
note_on channel=0 note=51 velocity=79 time=1
note_on channel=0 note=40 velocity=64 time=4
note_on channel=0 note=51 velocity=0 time=36
note_on channel=0 note=50 velocity=0 time=56
note_on channel=0 note=52 velocity=0 time=2
note_on channel=0 note=54 velocity=0 time=16
note_on channel=0 note=40 velocity=0 time=23
note_on channel=0 note=44 velocity=0 time=3
note_on channel=0 note=48 velocity=0 time=0
note_on channel=0 note=52 velocity=46 time=293
note_on channel=0 note=44 velocity=49 time=5
note_on channel=0 note=50 velocity=45 time=1
note_on channel=0 note=48 velocity=49 time=3
note_on channel=0 note=51 velocity=53 time=0
note_on channel=0 note=40 velocity=44 time=3
note_on channel=0 note=54 velocity=46 time=21
note_on channel=0 note=51 velocity=0 time=38
note_on channel=0 note=50 velocity=0 time=10
note_on channel=0 note=52 velocity=0 time=4
note_on channel=0 note=48 velocity=0 time=1
note_on channel=0 note=54 velocity=0 time=4
note_on channel=0 note=40 velocity=0 time=1
note_on channel=0 note=44 velocity=0 time=1
note_on channel=0 note=44 velocity=57 time=289
note_on channel=0 note=48 velocity=60 time=3
note_on channel=0 note=50 velocity=58 time=0
note_on channel=0 note=51 velocity=66 time=12
note_on channel=0 note=52 velocity=63 time=1
note_on channel=0 note=40 velocity=47 time=2
note_on channel=0 note=54 velocity=61 time=3
note_on channel=0 note=54 velocity=0 time=67
note_on channel=0 note=40 velocity=0 time=3
note_on channel=0 note=51 velocity=0 time=1
note_on channel=0 note=50 velocity=0 time=7
note_on channel=0 note=48 velocity=0 time=4
note_on channel=0 note=52 velocity=0 time=7
note_on channel=0 note=44 velocity=0 time=11
note_on channel=0 note=44 velocity=72 time=266
note_on channel=0 note=50 velocity=79 time=3
note_on channel=0 note=40 velocity=59 time=6
note_on channel=0 note=54 velocity=75 time=4
note_on channel=0 note=52 velocity=72 time=2
note_on channel=0 note=48 velocity=57 time=3
note_on channel=0 note=51 velocity=75 time=0
note_on channel=0 note=47 velocity=57 time=7
note_on channel=0 note=47 velocity=0 time=49
note_on channel=0 note=48 velocity=0 time=16
note_on channel=0 note=52 velocity=0 time=2
note_on channel=0 note=51 velocity=0 time=8
note_on channel=0 note=50 velocity=0 time=12
note_on channel=0 note=40 velocity=0 time=29
note_on channel=0 note=44 velocity=0 time=0
note_on channel=0 note=54 velocity=0 time=0
note_on channel=0 note=44 velocity=57 time=256
note_on channel=0 note=50 velocity=65 time=1
note_on channel=0 note=48 velocity=58 time=7
note_on channel=0 note=40 velocity=48 time=4
note_on channel=0 note=51 velocity=75 time=2
note_on channel=0 note=52 velocity=69 time=2
note_on channel=0 note=54 velocity=69 time=1
note_on channel=0 note=50 velocity=0 time=84
note_on channel=0 note=48 velocity=0 time=10
note_on channel=0 note=51 velocity=0 time=4
note_on channel=0 note=52 velocity=0 time=23
note_on channel=0 note=44 velocity=0 time=1
note_on channel=0 note=54 velocity=0 time=0
note_on channel=0 note=40 velocity=0 time=6
note_on channel=0 note=40 velocity=38 time=232
note_on channel=0 note=44 velocity=48 time=19
note_on channel=0 note=48 velocity=53 time=13
note_on channel=0 note=51 velocity=66 time=12
note_on channel=0 note=52 velocity=51 time=1
note_on channel=0 note=50 velocity=57 time=4
note_on channel=0 note=54 velocity=62 time=7
note_on channel=0 note=50 velocity=0 time=67
note_on channel=0 note=51 velocity=0 time=9
note_on channel=0 note=52 velocity=0 time=30
note_on channel=0 note=48 velocity=0 time=5
note_on channel=0 note=54 velocity=0 time=2
note_on channel=0 note=40 velocity=0 time=11
note_on channel=0 note=44 velocity=0 time=14
note_on channel=0 note=44 velocity=49 time=228
note_on channel=0 note=48 velocity=57 time=4
note_on channel=0 note=40 velocity=53 time=1
note_on channel=0 note=52 velocity=51 time=3
note_on channel=0 note=50 velocity=58 time=2
note_on channel=0 note=51 velocity=69 time=5
note_on channel=0 note=54 velocity=66 time=10
note_on channel=0 note=51 velocity=0 time=78
note_on channel=0 note=52 velocity=0 time=16
note_on channel=0 note=50 velocity=0 time=1
note_on channel=0 note=54 velocity=0 time=12
note_on channel=0 note=48 velocity=0 time=7
note_on channel=0 note=44 velocity=0 time=15
note_on channel=0 note=40 velocity=0 time=1
note_on channel=0 note=54 velocity=85 time=279
note_on channel=0 note=52 velocity=85 time=1
note_on channel=0 note=51 velocity=85 time=1
note_on channel=0 note=44 velocity=79 time=9
note_on channel=0 note=48 velocity=75 time=4
note_on channel=0 note=40 velocity=69 time=4
note_on channel=0 note=50 velocity=82 time=3
control_change channel=0 control=64 value=127 time=120
control_change channel=0 control=64 value=0 time=122
control_change channel=0 control=64 value=127 time=317
control_change channel=0 control=64 value=0 time=12
control_change channel=0 control=64 value=127 time=29
control_change channel=0 control=64 value=0 time=28
note_on channel=0 note=52 velocity=0 time=106
control_change channel=0 control=64 value=127 time=14
control_change channel=0 control=64 value=0 time=61
control_change channel=0 control=64 value=127 time=182
control_change channel=0 control=64 value=0 time=98
control_change channel=0 control=64 value=127 time=128
note_on channel=0 note=51 velocity=0 time=136
note_on channel=0 note=54 velocity=0 time=11
note_on channel=0 note=48 velocity=0 time=182
note_on channel=0 note=50 velocity=0 time=94
note_on channel=0 note=44 velocity=0 time=17
note_on channel=0 note=28 velocity=86 time=19
note_on channel=0 note=26 velocity=95 time=3
note_on channel=0 note=26 velocity=0 time=72
note_on channel=0 note=28 velocity=0 time=6
note_on channel=0 note=40 velocity=0 time=80
note_on channel=0 note=40 velocity=73 time=220
note_on channel=0 note=44 velocity=75 time=2
note_on channel=0 note=48 velocity=82 time=1
note_on channel=0 note=50 velocity=82 time=7
note_on channel=0 note=52 velocity=79 time=1
note_on channel=0 note=52 velocity=0 time=209
note_on channel=0 note=50 velocity=0 time=53
note_on channel=0 note=52 velocity=89 time=23
note_on channel=0 note=54 velocity=85 time=0
note_on channel=0 note=53 velocity=72 time=12
note_on channel=0 note=56 velocity=53 time=11
note_on channel=0 note=40 velocity=0 time=23
note_on channel=0 note=48 velocity=0 time=5
note_on channel=0 note=53 velocity=0 time=16
note_on channel=0 note=56 velocity=0 time=1
note_on channel=0 note=44 velocity=0 time=27
note_on channel=0 note=52 velocity=0 time=43
note_on channel=0 note=54 velocity=0 time=9
note_on channel=0 note=40 velocity=49 time=92
note_on channel=0 note=48 velocity=66 time=0
note_on channel=0 note=44 velocity=56 time=1
note_on channel=0 note=50 velocity=75 time=5
note_on channel=0 note=50 velocity=0 time=94
note_on channel=0 note=40 velocity=0 time=18
note_on channel=0 note=48 velocity=0 time=0
note_on channel=0 note=44 velocity=0 time=20
note_on channel=0 note=61 velocity=37 time=126
note_on channel=0 note=61 velocity=0 time=68
control_change channel=0 control=64 value=0 time=354
note_on channel=0 note=56 velocity=53 time=98
note_on channel=0 note=56 velocity=0 time=116
note_on channel=0 note=63 velocity=49 time=66
note_on channel=0 note=58 velocity=45 time=41
note_on channel=0 note=63 velocity=0 time=18
note_on channel=0 note=58 velocity=0 time=69
note_on channel=0 note=58 velocity=52 time=120
note_on channel=0 note=56 velocity=46 time=11
note_on channel=0 note=56 velocity=0 time=51
note_on channel=0 note=58 velocity=0 time=5
note_on channel=0 note=65 velocity=61 time=17
note_on channel=0 note=65 velocity=0 time=105
note_on channel=0 note=63 velocity=61 time=42
note_on channel=0 note=63 velocity=0 time=73
note_on channel=0 note=75 velocity=63 time=40
note_on channel=0 note=75 velocity=0 time=110
note_on channel=0 note=55 velocity=45 time=62
note_on channel=0 note=65 velocity=35 time=11
note_on channel=0 note=56 velocity=31 time=36
note_on channel=0 note=65 velocity=0 time=56
note_on channel=0 note=61 velocity=48 time=26
note_on channel=0 note=56 velocity=0 time=5
note_on channel=0 note=55 velocity=0 time=10
note_on channel=0 note=61 velocity=0 time=50
note_on channel=0 note=67 velocity=52 time=24
note_on channel=0 note=67 velocity=0 time=113
note_on channel=0 note=65 velocity=45 time=64
note_on channel=0 note=75 velocity=52 time=62
note_on channel=0 note=65 velocity=0 time=22
note_on channel=0 note=61 velocity=48 time=79
note_on channel=0 note=75 velocity=0 time=32
note_on channel=0 note=58 velocity=57 time=72
note_on channel=0 note=61 velocity=0 time=23
note_on channel=0 note=58 velocity=0 time=76
note_on channel=0 note=62 velocity=58 time=73
note_on channel=0 note=65 velocity=47 time=0
note_on channel=0 note=65 velocity=0 time=61
note_on channel=0 note=62 velocity=0 time=6
note_on channel=0 note=68 velocity=56 time=75
note_on channel=0 note=58 velocity=45 time=77
note_on channel=0 note=64 velocity=55 time=48
note_on channel=0 note=58 velocity=0 time=13
note_on channel=0 note=68 velocity=0 time=33
note_on channel=0 note=64 velocity=0 time=25
note_on channel=0 note=55 velocity=23 time=33
note_on channel=0 note=73 velocity=48 time=8
note_on channel=0 note=58 velocity=56 time=18
note_on channel=0 note=63 velocity=49 time=9
note_on channel=0 note=63 velocity=0 time=50
note_on channel=0 note=55 velocity=0 time=7
note_on channel=0 note=73 velocity=0 time=2
note_on channel=0 note=58 velocity=0 time=29
note_on channel=0 note=60 velocity=72 time=66
note_on channel=0 note=52 velocity=55 time=14
note_on channel=0 note=52 velocity=0 time=65
note_on channel=0 note=60 velocity=0 time=28
note_on channel=0 note=67 velocity=69 time=13
note_on channel=0 note=67 velocity=0 time=103
note_on channel=0 note=79 velocity=72 time=56
note_on channel=0 note=79 velocity=0 time=99
note_on channel=0 note=53 velocity=61 time=45
note_on channel=0 note=67 velocity=56 time=124
note_on channel=0 note=73 velocity=45 time=10
note_on channel=0 note=69 velocity=54 time=2
note_on channel=0 note=69 velocity=0 time=53
note_on channel=0 note=73 velocity=0 time=8
note_on channel=0 note=67 velocity=0 time=24
note_on channel=0 note=57 velocity=57 time=22
note_on channel=0 note=64 velocity=63 time=11
note_on channel=0 note=60 velocity=53 time=12
note_on channel=0 note=64 velocity=0 time=78
note_on channel=0 note=60 velocity=0 time=18
note_on channel=0 note=81 velocity=75 time=12
note_on channel=0 note=69 velocity=65 time=1
note_on channel=0 note=53 velocity=0 time=8
note_on channel=0 note=57 velocity=0 time=30
note_on channel=0 note=69 velocity=0 time=34
note_on channel=0 note=53 velocity=50 time=26
note_on channel=0 note=57 velocity=51 time=16
note_on channel=0 note=65 velocity=72 time=0
note_on channel=0 note=60 velocity=52 time=13
note_on channel=0 note=81 velocity=0 time=3
note_on channel=0 note=65 velocity=0 time=73
note_on channel=0 note=60 velocity=0 time=49
note_on channel=0 note=53 velocity=0 time=12
note_on channel=0 note=57 velocity=0 time=22
note_on channel=0 note=68 velocity=66 time=9
note_on channel=0 note=68 velocity=0 time=41
note_on channel=0 note=53 velocity=36 time=75
note_on channel=0 note=57 velocity=27 time=40
note_on channel=0 note=55 velocity=39 time=9
note_on channel=0 note=53 velocity=0 time=30
note_on channel=0 note=71 velocity=57 time=49
note_on channel=0 note=55 velocity=0 time=7
note_on channel=0 note=57 velocity=0 time=37
note_on channel=0 note=71 velocity=0 time=41
note_on channel=0 note=83 velocity=65 time=91
note_on channel=0 note=83 velocity=0 time=99
note_on channel=0 note=55 velocity=31 time=47
note_on channel=0 note=65 velocity=57 time=18
note_on channel=0 note=53 velocity=41 time=35
note_on channel=0 note=65 velocity=0 time=46
note_on channel=0 note=57 velocity=23 time=7
note_on channel=0 note=60 velocity=55 time=17
note_on channel=0 note=53 velocity=0 time=4
note_on channel=0 note=55 velocity=0 time=54
note_on channel=0 note=57 velocity=0 time=28
note_on channel=0 note=60 velocity=0 time=66
note_on channel=0 note=71 velocity=58 time=0
note_on channel=0 note=71 velocity=0 time=129
note_on channel=0 note=76 velocity=49 time=0
note_on channel=0 note=70 velocity=64 time=65
note_on channel=0 note=76 velocity=0 time=3
note_on channel=0 note=70 velocity=0 time=87
note_on channel=0 note=86 velocity=57 time=33
note_on channel=0 note=85 velocity=41 time=49
note_on channel=0 note=86 velocity=0 time=31
note_on channel=0 note=84 velocity=47 time=4
note_on channel=0 note=85 velocity=0 time=35
note_on channel=0 note=84 velocity=0 time=26
note_on channel=0 note=71 velocity=53 time=8
note_on channel=0 note=75 velocity=58 time=8
note_on channel=0 note=75 velocity=0 time=56
note_on channel=0 note=71 velocity=0 time=3
note_on channel=0 note=66 velocity=58 time=56
note_on channel=0 note=76 velocity=69 time=100
note_on channel=0 note=66 velocity=0 time=18
note_on channel=0 note=76 velocity=0 time=87
note_on channel=0 note=86 velocity=42 time=82
note_on channel=0 note=87 velocity=41 time=0
note_on channel=0 note=67 velocity=48 time=17
note_on channel=0 note=74 velocity=61 time=1
note_on channel=0 note=74 velocity=0 time=70
note_on channel=0 note=86 velocity=0 time=17
note_on channel=0 note=87 velocity=0 time=49
note_on channel=0 note=73 velocity=61 time=4
note_on channel=0 note=73 velocity=0 time=49
note_on channel=0 note=75 velocity=44 time=8
note_on channel=0 note=75 velocity=0 time=64
note_on channel=0 note=74 velocity=60 time=34
note_on channel=0 note=73 velocity=57 time=81
note_on channel=0 note=74 velocity=0 time=3
note_on channel=0 note=67 velocity=0 time=32
note_on channel=0 note=73 velocity=0 time=20
note_on channel=0 note=76 velocity=61 time=6
note_on channel=0 note=78 velocity=58 time=114
note_on channel=0 note=76 velocity=0 time=1
note_on channel=0 note=72 velocity=48 time=89
note_on channel=0 note=80 velocity=49 time=17
note_on channel=0 note=78 velocity=0 time=25
note_on channel=0 note=72 velocity=0 time=9
note_on channel=0 note=80 velocity=0 time=47
note_on channel=0 note=78 velocity=36 time=51
note_on channel=0 note=73 velocity=64 time=41
note_on channel=0 note=73 velocity=0 time=48
note_on channel=0 note=78 velocity=0 time=122
note_on channel=0 note=77 velocity=61 time=4
note_on channel=0 note=77 velocity=0 time=101
note_on channel=0 note=87 velocity=62 time=77
note_on channel=0 note=77 velocity=46 time=16
note_on channel=0 note=88 velocity=53 time=18
note_on channel=0 note=77 velocity=0 time=54
note_on channel=0 note=87 velocity=0 time=43
note_on channel=0 note=88 velocity=0 time=21
note_on channel=0 note=74 velocity=56 time=11
note_on channel=0 note=79 velocity=54 time=61
note_on channel=0 note=74 velocity=0 time=19
note_on channel=0 note=73 velocity=55 time=114
note_on channel=0 note=79 velocity=0 time=19
note_on channel=0 note=87 velocity=39 time=30
note_on channel=0 note=73 velocity=0 time=38
note_on channel=0 note=74 velocity=52 time=19
note_on channel=0 note=87 velocity=0 time=12
note_on channel=0 note=74 velocity=0 time=42
note_on channel=0 note=79 velocity=60 time=8
note_on channel=0 note=79 velocity=0 time=107
note_on channel=0 note=85 velocity=63 time=10
note_on channel=0 note=71 velocity=50 time=43
note_on channel=0 note=85 velocity=0 time=6
note_on channel=0 note=87 velocity=43 time=7
note_on channel=0 note=78 velocity=52 time=1
note_on channel=0 note=76 velocity=51 time=15
note_on channel=0 note=78 velocity=0 time=30
note_on channel=0 note=71 velocity=0 time=10
note_on channel=0 note=76 velocity=0 time=12
note_on channel=0 note=87 velocity=0 time=89
note_on channel=0 note=76 velocity=44 time=1
note_on channel=0 note=76 velocity=0 time=74
note_on channel=0 note=74 velocity=38 time=66
note_on channel=0 note=75 velocity=42 time=38
note_on channel=0 note=75 velocity=0 time=60
note_on channel=0 note=74 velocity=0 time=23
note_on channel=0 note=76 velocity=34 time=24
note_on channel=0 note=65 velocity=60 time=7
note_on channel=0 note=76 velocity=0 time=44
note_on channel=0 note=65 velocity=0 time=77
note_on channel=0 note=60 velocity=44 time=6
note_on channel=0 note=55 velocity=51 time=30
note_on channel=0 note=63 velocity=31 time=2
note_on channel=0 note=57 velocity=34 time=20
note_on channel=0 note=86 velocity=66 time=4
note_on channel=0 note=74 velocity=52 time=14
note_on channel=0 note=63 velocity=0 time=27
note_on channel=0 note=74 velocity=0 time=36
note_on channel=0 note=60 velocity=0 time=14
note_on channel=0 note=86 velocity=0 time=80
note_on channel=0 note=82 velocity=36 time=23
note_on channel=0 note=65 velocity=50 time=2
note_on channel=0 note=55 velocity=0 time=53
note_on channel=0 note=65 velocity=0 time=5
note_on channel=0 note=82 velocity=0 time=21
note_on channel=0 note=63 velocity=50 time=37
note_on channel=0 note=74 velocity=42 time=1
note_on channel=0 note=63 velocity=0 time=70
note_on channel=0 note=57 velocity=0 time=6
note_on channel=0 note=82 velocity=56 time=41
note_on channel=0 note=74 velocity=0 time=11
note_on channel=0 note=82 velocity=0 time=65
note_on channel=0 note=65 velocity=36 time=22
note_on channel=0 note=57 velocity=19 time=98
note_on channel=0 note=65 velocity=0 time=16
note_on channel=0 note=61 velocity=55 time=24
note_on channel=0 note=57 velocity=0 time=43
note_on channel=0 note=61 velocity=0 time=3
note_on channel=0 note=88 velocity=70 time=76
note_on channel=0 note=88 velocity=0 time=100
note_on channel=0 note=52 velocity=53 time=28
note_on channel=0 note=53 velocity=41 time=2
note_on channel=0 note=76 velocity=66 time=25
note_on channel=0 note=76 velocity=0 time=69
note_on channel=0 note=62 velocity=42 time=54
note_on channel=0 note=62 velocity=0 time=69
note_on channel=0 note=56 velocity=57 time=20
note_on channel=0 note=52 velocity=0 time=20
note_on channel=0 note=56 velocity=0 time=53
note_on channel=0 note=53 velocity=0 time=4
note_on channel=0 note=71 velocity=32 time=31
note_on channel=0 note=57 velocity=60 time=66
note_on channel=0 note=71 velocity=0 time=33
note_on channel=0 note=57 velocity=0 time=77
note_on channel=0 note=51 velocity=53 time=26
note_on channel=0 note=47 velocity=61 time=25
note_on channel=0 note=51 velocity=0 time=21
note_on channel=0 note=77 velocity=61 time=3
note_on channel=0 note=77 velocity=0 time=91
note_on channel=0 note=47 velocity=0 time=15
note_on channel=0 note=59 velocity=58 time=69
note_on channel=0 note=65 velocity=32 time=56
note_on channel=0 note=59 velocity=0 time=9
note_on channel=0 note=65 velocity=0 time=47
note_on channel=0 note=56 velocity=48 time=71
note_on channel=0 note=54 velocity=59 time=5
note_on channel=0 note=56 velocity=0 time=65
note_on channel=0 note=54 velocity=0 time=76
note_on channel=0 note=64 velocity=58 time=15
note_on channel=0 note=64 velocity=0 time=115
note_on channel=0 note=68 velocity=56 time=7
note_on channel=0 note=68 velocity=0 time=79
note_on channel=0 note=63 velocity=57 time=1
note_on channel=0 note=63 velocity=0 time=71
note_on channel=0 note=70 velocity=46 time=47
note_on channel=0 note=70 velocity=0 time=51
note_on channel=0 note=62 velocity=50 time=81
note_on channel=0 note=55 velocity=43 time=7
note_on channel=0 note=62 velocity=0 time=82
note_on channel=0 note=55 velocity=0 time=7
note_on channel=0 note=63 velocity=50 time=49
note_on channel=0 note=63 velocity=0 time=48
note_on channel=0 note=55 velocity=36 time=113
note_on channel=0 note=62 velocity=53 time=4
note_on channel=0 note=65 velocity=32 time=60
note_on channel=0 note=62 velocity=0 time=4
note_on channel=0 note=68 velocity=49 time=151
note_on channel=0 note=65 velocity=0 time=21
note_on channel=0 note=58 velocity=43 time=22
note_on channel=0 note=58 velocity=0 time=62
note_on channel=0 note=64 velocity=46 time=8
note_on channel=0 note=55 velocity=0 time=12
note_on channel=0 note=68 velocity=0 time=21
note_on channel=0 note=64 velocity=0 time=58
note_on channel=0 note=61 velocity=55 time=6
note_on channel=0 note=63 velocity=46 time=102
note_on channel=0 note=73 velocity=46 time=0
note_on channel=0 note=61 velocity=0 time=15
note_on channel=0 note=58 velocity=49 time=21
note_on channel=0 note=63 velocity=0 time=25
note_on channel=0 note=73 velocity=0 time=78
note_on channel=0 note=64 velocity=57 time=23
note_on channel=0 note=58 velocity=0 time=35
note_on channel=0 note=63 velocity=42 time=58
note_on channel=0 note=64 velocity=0 time=16
note_on channel=0 note=66 velocity=48 time=56
note_on channel=0 note=68 velocity=39 time=5
note_on channel=0 note=63 velocity=0 time=4
note_on channel=0 note=66 velocity=0 time=80
note_on channel=0 note=68 velocity=0 time=50
note_on channel=0 note=73 velocity=49 time=15
note_on channel=0 note=62 velocity=49 time=16
note_on channel=0 note=62 velocity=0 time=109
note_on channel=0 note=61 velocity=53 time=17
note_on channel=0 note=73 velocity=0 time=75
note_on channel=0 note=61 velocity=0 time=30
note_on channel=0 note=64 velocity=49 time=48
note_on channel=0 note=66 velocity=56 time=155
note_on channel=0 note=58 velocity=37 time=2
note_on channel=0 note=58 velocity=0 time=56
note_on channel=0 note=64 velocity=0 time=1
note_on channel=0 note=68 velocity=31 time=45
note_on channel=0 note=66 velocity=0 time=72
note_on channel=0 note=68 velocity=0 time=24
note_on channel=0 note=73 velocity=57 time=2
note_on channel=0 note=57 velocity=33 time=15
note_on channel=0 note=59 velocity=39 time=20
note_on channel=0 note=65 velocity=47 time=11
note_on channel=0 note=73 velocity=0 time=109
note_on channel=0 note=65 velocity=0 time=2
note_on channel=0 note=59 velocity=0 time=12
note_on channel=0 note=57 velocity=0 time=13
note_on channel=0 note=61 velocity=53 time=2
note_on channel=0 note=66 velocity=46 time=38
note_on channel=0 note=61 velocity=0 time=14
note_on channel=0 note=66 velocity=0 time=38
note_on channel=0 note=61 velocity=48 time=42
note_on channel=0 note=66 velocity=56 time=25
note_on channel=0 note=57 velocity=31 time=27
note_on channel=0 note=66 velocity=0 time=20
note_on channel=0 note=65 velocity=41 time=18
note_on channel=0 note=65 velocity=0 time=57
note_on channel=0 note=67 velocity=20 time=77
note_on channel=0 note=63 velocity=39 time=42
note_on channel=0 note=76 velocity=57 time=23
note_on channel=0 note=67 velocity=0 time=1
note_on channel=0 note=61 velocity=0 time=51
note_on channel=0 note=63 velocity=0 time=2
note_on channel=0 note=65 velocity=48 time=69
note_on channel=0 note=76 velocity=0 time=106
note_on channel=0 note=65 velocity=0 time=15
note_on channel=0 note=61 velocity=57 time=14
note_on channel=0 note=61 velocity=0 time=70
note_on channel=0 note=66 velocity=63 time=39
note_on channel=0 note=66 velocity=0 time=39
note_on channel=0 note=65 velocity=42 time=20
note_on channel=0 note=57 velocity=0 time=14
note_on channel=0 note=70 velocity=60 time=49
note_on channel=0 note=65 velocity=0 time=1
note_on channel=0 note=61 velocity=46 time=46
note_on channel=0 note=70 velocity=0 time=101
note_on channel=0 note=75 velocity=53 time=0
note_on channel=0 note=65 velocity=51 time=33
note_on channel=0 note=61 velocity=0 time=15
note_on channel=0 note=65 velocity=0 time=77
note_on channel=0 note=75 velocity=0 time=1
note_on channel=0 note=61 velocity=39 time=24
note_on channel=0 note=63 velocity=57 time=43
note_on channel=0 note=66 velocity=49 time=3
note_on channel=0 note=61 velocity=0 time=15
note_on channel=0 note=63 velocity=0 time=40
note_on channel=0 note=66 velocity=0 time=3
note_on channel=0 note=61 velocity=56 time=57
note_on channel=0 note=65 velocity=56 time=81
note_on channel=0 note=61 velocity=0 time=43
note_on channel=0 note=70 velocity=63 time=52
note_on channel=0 note=65 velocity=0 time=32
note_on channel=0 note=75 velocity=58 time=77
note_on channel=0 note=68 velocity=68 time=17
note_on channel=0 note=70 velocity=0 time=12
note_on channel=0 note=75 velocity=0 time=15
note_on channel=0 note=68 velocity=0 time=53
note_on channel=0 note=63 velocity=50 time=87
note_on channel=0 note=66 velocity=41 time=61
note_on channel=0 note=63 velocity=0 time=46
note_on channel=0 note=67 velocity=65 time=10
note_on channel=0 note=58 velocity=41 time=35
note_on channel=0 note=66 velocity=0 time=11
note_on channel=0 note=67 velocity=0 time=37
note_on channel=0 note=58 velocity=0 time=8
note_on channel=0 note=73 velocity=56 time=52
note_on channel=0 note=75 velocity=28 time=54
note_on channel=0 note=73 velocity=0 time=116
note_on channel=0 note=75 velocity=0 time=25
note_on channel=0 note=70 velocity=68 time=3
note_on channel=0 note=70 velocity=0 time=82
note_on channel=0 note=66 velocity=52 time=83
note_on channel=0 note=82 velocity=40 time=16
note_on channel=0 note=66 velocity=0 time=43
note_on channel=0 note=73 velocity=56 time=35
note_on channel=0 note=82 velocity=0 time=5
note_on channel=0 note=71 velocity=50 time=8
note_on channel=0 note=73 velocity=0 time=40
note_on channel=0 note=82 velocity=39 time=20
note_on channel=0 note=71 velocity=0 time=40
note_on channel=0 note=68 velocity=57 time=44
note_on channel=0 note=73 velocity=51 time=18
note_on channel=0 note=73 velocity=0 time=48
note_on channel=0 note=68 velocity=0 time=10
note_on channel=0 note=85 velocity=40 time=64
note_on channel=0 note=85 velocity=0 time=72
note_on channel=0 note=73 velocity=45 time=1
note_on channel=0 note=82 velocity=0 time=39
note_on channel=0 note=73 velocity=0 time=19
note_on channel=0 note=70 velocity=52 time=3
note_on channel=0 note=72 velocity=48 time=104
note_on channel=0 note=70 velocity=0 time=11
note_on channel=0 note=66 velocity=53 time=43
note_on channel=0 note=72 velocity=0 time=61
note_on channel=0 note=71 velocity=41 time=35
note_on channel=0 note=62 velocity=30 time=9
note_on channel=0 note=80 velocity=35 time=9
note_on channel=0 note=66 velocity=0 time=86
note_on channel=0 note=80 velocity=0 time=38
note_on channel=0 note=68 velocity=60 time=15
note_on channel=0 note=71 velocity=0 time=10
note_on channel=0 note=78 velocity=34 time=78
note_on channel=0 note=66 velocity=58 time=54
note_on channel=0 note=80 velocity=34 time=20
note_on channel=0 note=62 velocity=0 time=18
note_on channel=0 note=78 velocity=0 time=26
note_on channel=0 note=68 velocity=0 time=32
note_on channel=0 note=70 velocity=29 time=63
note_on channel=0 note=82 velocity=58 time=46
note_on channel=0 note=70 velocity=0 time=30
note_on channel=0 note=62 velocity=49 time=35
note_on channel=0 note=80 velocity=0 time=28
note_on channel=0 note=66 velocity=0 time=16
note_on channel=0 note=70 velocity=52 time=1
note_on channel=0 note=82 velocity=0 time=31
note_on channel=0 note=70 velocity=0 time=27
note_on channel=0 note=72 velocity=41 time=87
note_on channel=0 note=71 velocity=33 time=23
note_on channel=0 note=71 velocity=0 time=51
note_on channel=0 note=72 velocity=0 time=0
note_on channel=0 note=68 velocity=60 time=27
note_on channel=0 note=80 velocity=14 time=31
note_on channel=0 note=72 velocity=56 time=20
note_on channel=0 note=68 velocity=0 time=70
note_on channel=0 note=84 velocity=57 time=17
note_on channel=0 note=80 velocity=0 time=18
note_on channel=0 note=72 velocity=0 time=7
note_on channel=0 note=72 velocity=53 time=85
note_on channel=0 note=84 velocity=0 time=8
note_on channel=0 note=69 velocity=60 time=23
note_on channel=0 note=72 velocity=0 time=92
note_on channel=0 note=69 velocity=0 time=24
note_on channel=0 note=66 velocity=56 time=34
note_on channel=0 note=62 velocity=0 time=32
note_on channel=0 note=66 velocity=0 time=28
note_on channel=0 note=67 velocity=56 time=103
note_on channel=0 note=70 velocity=49 time=52
note_on channel=0 note=70 velocity=0 time=54
note_on channel=0 note=67 velocity=0 time=30
note_on channel=0 note=57 velocity=46 time=15
note_on channel=0 note=70 velocity=39 time=78
note_on channel=0 note=72 velocity=39 time=5
note_on channel=0 note=70 velocity=0 time=68
note_on channel=0 note=72 velocity=0 time=2
note_on channel=0 note=67 velocity=57 time=67
note_on channel=0 note=62 velocity=41 time=38
note_on channel=0 note=72 velocity=47 time=0
note_on channel=0 note=76 velocity=58 time=124
note_on channel=0 note=66 velocity=56 time=20
note_on channel=0 note=67 velocity=0 time=8
note_on channel=0 note=72 velocity=0 time=18
note_on channel=0 note=62 velocity=0 time=5
note_on channel=0 note=57 velocity=0 time=54
note_on channel=0 note=76 velocity=0 time=49
note_on channel=0 note=66 velocity=0 time=7
note_on channel=0 note=62 velocity=48 time=9
note_on channel=0 note=62 velocity=0 time=144
note_on channel=0 note=65 velocity=58 time=34
note_on channel=0 note=70 velocity=52 time=86
note_on channel=0 note=65 velocity=0 time=46
note_on channel=0 note=56 velocity=40 time=3
note_on channel=0 note=70 velocity=0 time=5
note_on channel=0 note=53 velocity=41 time=20
note_on channel=0 note=55 velocity=47 time=14
note_on channel=0 note=70 velocity=57 time=43
note_on channel=0 note=56 velocity=0 time=47
note_on channel=0 note=65 velocity=48 time=6
note_on channel=0 note=70 velocity=0 time=49
note_on channel=0 note=55 velocity=0 time=35
note_on channel=0 note=53 velocity=0 time=18
note_on channel=0 note=65 velocity=0 time=24
note_on channel=0 note=63 velocity=59 time=2
note_on channel=0 note=69 velocity=54 time=39
note_on channel=0 note=63 velocity=0 time=118
note_on channel=0 note=69 velocity=0 time=35
note_on channel=0 note=76 velocity=39 time=4
note_on channel=0 note=64 velocity=47 time=20
note_on channel=0 note=64 velocity=0 time=71
note_on channel=0 note=55 velocity=4 time=99
note_on channel=0 note=61 velocity=53 time=24
note_on channel=0 note=68 velocity=58 time=11
note_on channel=0 note=76 velocity=0 time=21
note_on channel=0 note=55 velocity=0 time=42
note_on channel=0 note=68 velocity=0 time=48
note_on channel=0 note=64 velocity=55 time=30
note_on channel=0 note=61 velocity=0 time=4
note_on channel=0 note=55 velocity=28 time=66
note_on channel=0 note=64 velocity=0 time=58
note_on channel=0 note=63 velocity=57 time=7
note_on channel=0 note=55 velocity=0 time=12
note_on channel=0 note=67 velocity=56 time=51
note_on channel=0 note=63 velocity=0 time=79
note_on channel=0 note=67 velocity=0 time=4
note_on channel=0 note=70 velocity=46 time=47
note_on channel=0 note=70 velocity=0 time=74
note_on channel=0 note=67 velocity=54 time=20
note_on channel=0 note=61 velocity=53 time=87
note_on channel=0 note=67 velocity=0 time=23
note_on channel=0 note=70 velocity=39 time=31
note_on channel=0 note=61 velocity=0 time=37
note_on channel=0 note=73 velocity=39 time=51
note_on channel=0 note=70 velocity=0 time=13
note_on channel=0 note=73 velocity=0 time=46
note_on channel=0 note=55 velocity=51 time=23
note_on channel=0 note=75 velocity=41 time=7
note_on channel=0 note=68 velocity=48 time=48
note_on channel=0 note=65 velocity=50 time=75
note_on channel=0 note=65 velocity=0 time=79
note_on channel=0 note=68 velocity=0 time=0
note_on channel=0 note=61 velocity=59 time=29
note_on channel=0 note=75 velocity=0 time=30
note_on channel=0 note=55 velocity=0 time=11
note_on channel=0 note=69 velocity=61 time=63
note_on channel=0 note=61 velocity=0 time=25
note_on channel=0 note=69 velocity=0 time=65
note_on channel=0 note=70 velocity=52 time=15
note_on channel=0 note=70 velocity=0 time=63
note_on channel=0 note=63 velocity=40 time=4
note_on channel=0 note=71 velocity=51 time=50
note_on channel=0 note=69 velocity=54 time=5
note_on channel=0 note=63 velocity=0 time=6
note_on channel=0 note=59 velocity=31 time=15
note_on channel=0 note=71 velocity=0 time=34
note_on channel=0 note=69 velocity=0 time=65
note_on channel=0 note=72 velocity=46 time=2
note_on channel=0 note=66 velocity=58 time=4
note_on channel=0 note=63 velocity=40 time=27
note_on channel=0 note=59 velocity=0 time=12
note_on channel=0 note=73 velocity=60 time=12
note_on channel=0 note=66 velocity=0 time=36
note_on channel=0 note=63 velocity=0 time=9
note_on channel=0 note=72 velocity=0 time=11
note_on channel=0 note=75 velocity=57 time=73
note_on channel=0 note=73 velocity=0 time=13
note_on channel=0 note=67 velocity=54 time=2
note_on channel=0 note=59 velocity=28 time=62
note_on channel=0 note=73 velocity=48 time=30
note_on channel=0 note=66 velocity=60 time=18
note_on channel=0 note=67 velocity=0 time=13
note_on channel=0 note=75 velocity=0 time=15
note_on channel=0 note=59 velocity=0 time=9
note_on channel=0 note=70 velocity=49 time=60
note_on channel=0 note=63 velocity=59 time=39
note_on channel=0 note=70 velocity=0 time=12
note_on channel=0 note=73 velocity=0 time=1
note_on channel=0 note=66 velocity=0 time=24
note_on channel=0 note=71 velocity=66 time=86
note_on channel=0 note=63 velocity=0 time=35
note_on channel=0 note=71 velocity=0 time=71
note_on channel=0 note=72 velocity=53 time=35
note_on channel=0 note=73 velocity=63 time=29
note_on channel=0 note=72 velocity=0 time=40
note_on channel=0 note=62 velocity=30 time=54
note_on channel=0 note=75 velocity=53 time=59
note_on channel=0 note=73 velocity=0 time=17
note_on channel=0 note=60 velocity=22 time=21
note_on channel=0 note=66 velocity=57 time=24
note_on channel=0 note=62 velocity=0 time=35
note_on channel=0 note=75 velocity=0 time=24
note_on channel=0 note=60 velocity=0 time=48
note_on channel=0 note=70 velocity=40 time=12
note_on channel=0 note=69 velocity=36 time=24
note_on channel=0 note=66 velocity=0 time=34
note_on channel=0 note=70 velocity=0 time=6
note_on channel=0 note=63 velocity=59 time=22
note_on channel=0 note=69 velocity=0 time=18
note_on channel=0 note=71 velocity=61 time=99
note_on channel=0 note=63 velocity=0 time=51
note_on channel=0 note=68 velocity=70 time=46
note_on channel=0 note=71 velocity=0 time=16
note_on channel=0 note=61 velocity=39 time=13
note_on channel=0 note=68 velocity=0 time=39
note_on channel=0 note=61 velocity=0 time=12
note_on channel=0 note=78 velocity=56 time=34
note_on channel=0 note=58 velocity=43 time=131
note_on channel=0 note=69 velocity=47 time=9
note_on channel=0 note=69 velocity=0 time=83
note_on channel=0 note=58 velocity=0 time=39
note_on channel=0 note=63 velocity=57 time=5
note_on channel=0 note=75 velocity=32 time=6
note_on channel=0 note=73 velocity=55 time=7
note_on channel=0 note=78 velocity=0 time=12
note_on channel=0 note=63 velocity=0 time=21
note_on channel=0 note=75 velocity=0 time=34
note_on channel=0 note=69 velocity=57 time=55
note_on channel=0 note=73 velocity=0 time=18
note_on channel=0 note=64 velocity=50 time=59
note_on channel=0 note=69 velocity=0 time=22
note_on channel=0 note=64 velocity=0 time=46
note_on channel=0 note=53 velocity=48 time=8
note_on channel=0 note=54 velocity=30 time=23
note_on channel=0 note=54 velocity=0 time=112
note_on channel=0 note=73 velocity=48 time=0
note_on channel=0 note=73 velocity=0 time=112
note_on channel=0 note=75 velocity=40 time=15
note_on channel=0 note=54 velocity=34 time=1
note_on channel=0 note=64 velocity=21 time=26
note_on channel=0 note=54 velocity=0 time=59
note_on channel=0 note=64 velocity=0 time=3
note_on channel=0 note=75 velocity=0 time=8
note_on channel=0 note=61 velocity=50 time=7
note_on channel=0 note=58 velocity=62 time=107
note_on channel=0 note=66 velocity=48 time=10
note_on channel=0 note=53 velocity=0 time=10
note_on channel=0 note=75 velocity=31 time=3
note_on channel=0 note=61 velocity=0 time=26
note_on channel=0 note=78 velocity=51 time=4
note_on channel=0 note=58 velocity=0 time=1
note_on channel=0 note=66 velocity=0 time=13
note_on channel=0 note=75 velocity=0 time=28
note_on channel=0 note=67 velocity=50 time=99
note_on channel=0 note=75 velocity=27 time=72
note_on channel=0 note=67 velocity=0 time=1
note_on channel=0 note=67 velocity=52 time=45
note_on channel=0 note=78 velocity=0 time=17
note_on channel=0 note=67 velocity=0 time=35
note_on channel=0 note=73 velocity=58 time=2
note_on channel=0 note=75 velocity=0 time=29
note_on channel=0 note=78 velocity=55 time=141
note_on channel=0 note=59 velocity=43 time=19
note_on channel=0 note=73 velocity=0 time=31
note_on channel=0 note=63 velocity=66 time=84
note_on channel=0 note=59 velocity=0 time=10
note_on channel=0 note=78 velocity=0 time=54
note_on channel=0 note=66 velocity=63 time=23
note_on channel=0 note=63 velocity=0 time=32
note_on channel=0 note=73 velocity=35 time=2
note_on channel=0 note=66 velocity=0 time=61
note_on channel=0 note=73 velocity=0 time=7
note_on channel=0 note=65 velocity=34 time=24
note_on channel=0 note=66 velocity=70 time=22
note_on channel=0 note=65 velocity=0 time=20
note_on channel=0 note=66 velocity=0 time=107
note_on channel=0 note=73 velocity=63 time=29
note_on channel=0 note=75 velocity=33 time=45
note_on channel=0 note=73 velocity=0 time=53
note_on channel=0 note=75 velocity=0 time=20
note_on channel=0 note=67 velocity=56 time=30
note_on channel=0 note=60 velocity=34 time=7
note_on channel=0 note=60 velocity=0 time=72
note_on channel=0 note=67 velocity=0 time=36
note_on channel=0 note=63 velocity=48 time=44
note_on channel=0 note=83 velocity=36 time=24
note_on channel=0 note=83 velocity=0 time=47
note_on channel=0 note=63 velocity=0 time=28
note_on channel=0 note=67 velocity=63 time=67
note_on channel=0 note=60 velocity=43 time=6
note_on channel=0 note=59 velocity=36 time=29
note_on channel=0 note=63 velocity=42 time=18
note_on channel=0 note=60 velocity=0 time=30
note_on channel=0 note=59 velocity=0 time=2
note_on channel=0 note=71 velocity=40 time=21
note_on channel=0 note=67 velocity=0 time=6
note_on channel=0 note=71 velocity=0 time=55
note_on channel=0 note=66 velocity=63 time=82
note_on channel=0 note=63 velocity=0 time=11
note_on channel=0 note=71 velocity=47 time=35
note_on channel=0 note=78 velocity=55 time=66
note_on channel=0 note=71 velocity=0 time=37
note_on channel=0 note=60 velocity=30 time=26
note_on channel=0 note=69 velocity=42 time=16
note_on channel=0 note=63 velocity=48 time=75
note_on channel=0 note=60 velocity=0 time=1
note_on channel=0 note=66 velocity=0 time=2
note_on channel=0 note=69 velocity=0 time=13
note_on channel=0 note=80 velocity=49 time=35
note_on channel=0 note=66 velocity=49 time=62
note_on channel=0 note=78 velocity=0 time=21
note_on channel=0 note=80 velocity=0 time=10
note_on channel=0 note=68 velocity=46 time=3
note_on channel=0 note=63 velocity=0 time=25
note_on channel=0 note=68 velocity=0 time=51
note_on channel=0 note=63 velocity=56 time=33
note_on channel=0 note=66 velocity=0 time=35
note_on channel=0 note=69 velocity=41 time=96
note_on channel=0 note=63 velocity=0 time=43
note_on channel=0 note=65 velocity=46 time=35
note_on channel=0 note=69 velocity=0 time=24
note_on channel=0 note=70 velocity=56 time=13
note_on channel=0 note=65 velocity=0 time=37
note_on channel=0 note=70 velocity=0 time=12
note_on channel=0 note=67 velocity=65 time=105
note_on channel=0 note=67 velocity=0 time=124
note_on channel=0 note=63 velocity=66 time=20
note_on channel=0 note=75 velocity=52 time=38
note_on channel=0 note=63 velocity=0 time=42
note_on channel=0 note=75 velocity=0 time=36
note_on channel=0 note=68 velocity=64 time=11
note_on channel=0 note=64 velocity=47 time=83
note_on channel=0 note=58 velocity=43 time=36
note_on channel=0 note=68 velocity=0 time=1
note_on channel=0 note=53 velocity=52 time=2
note_on channel=0 note=64 velocity=0 time=26
note_on channel=0 note=58 velocity=0 time=61
note_on channel=0 note=65 velocity=61 time=53
note_on channel=0 note=69 velocity=40 time=32
note_on channel=0 note=69 velocity=0 time=64
note_on channel=0 note=61 velocity=64 time=42
note_on channel=0 note=65 velocity=0 time=2
note_on channel=0 note=58 velocity=41 time=18
note_on channel=0 note=53 velocity=0 time=48
note_on channel=0 note=58 velocity=0 time=15
note_on channel=0 note=61 velocity=0 time=52
note_on channel=0 note=69 velocity=49 time=23
note_on channel=0 note=67 velocity=54 time=4
note_on channel=0 note=67 velocity=0 time=50
note_on channel=0 note=70 velocity=61 time=7
note_on channel=0 note=69 velocity=0 time=7
note_on channel=0 note=70 velocity=0 time=100
note_on channel=0 note=69 velocity=52 time=28
note_on channel=0 note=67 velocity=66 time=22
note_on channel=0 note=62 velocity=34 time=28
note_on channel=0 note=69 velocity=0 time=46
note_on channel=0 note=62 velocity=0 time=14
note_on channel=0 note=66 velocity=73 time=23
note_on channel=0 note=67 velocity=0 time=2
note_on channel=0 note=72 velocity=33 time=54
note_on channel=0 note=66 velocity=0 time=39
note_on channel=0 note=73 velocity=51 time=62
note_on channel=0 note=72 velocity=0 time=63
note_on channel=0 note=72 velocity=46 time=90
note_on channel=0 note=73 velocity=0 time=68
note_on channel=0 note=67 velocity=51 time=12
note_on channel=0 note=72 velocity=0 time=37
note_on channel=0 note=67 velocity=0 time=20
note_on channel=0 note=63 velocity=64 time=54
note_on channel=0 note=63 velocity=0 time=101
note_on channel=0 note=73 velocity=55 time=11
note_on channel=0 note=72 velocity=57 time=35
note_on channel=0 note=73 velocity=0 time=28
note_on channel=0 note=72 velocity=0 time=80
note_on channel=0 note=45 velocity=69 time=16
note_on channel=0 note=69 velocity=41 time=86
note_on channel=0 note=72 velocity=57 time=86
note_on channel=0 note=69 velocity=0 time=36
note_on channel=0 note=57 velocity=44 time=33
note_on channel=0 note=73 velocity=58 time=55
note_on channel=0 note=72 velocity=0 time=22
note_on channel=0 note=57 velocity=0 time=26
note_on channel=0 note=73 velocity=0 time=15
note_on channel=0 note=49 velocity=66 time=18
note_on channel=0 note=45 velocity=0 time=51
note_on channel=0 note=49 velocity=0 time=38
note_on channel=0 note=74 velocity=57 time=18
note_on channel=0 note=74 velocity=0 time=68
note_on channel=0 note=75 velocity=53 time=18
note_on channel=0 note=69 velocity=54 time=61
note_on channel=0 note=60 velocity=34 time=13
note_on channel=0 note=74 velocity=56 time=30
note_on channel=0 note=75 velocity=0 time=5
note_on channel=0 note=69 velocity=0 time=33
note_on channel=0 note=74 velocity=0 time=67
note_on channel=0 note=78 velocity=40 time=30
note_on channel=0 note=75 velocity=57 time=12
note_on channel=0 note=68 velocity=51 time=25
note_on channel=0 note=78 velocity=0 time=30
note_on channel=0 note=80 velocity=51 time=106
note_on channel=0 note=68 velocity=0 time=14
note_on channel=0 note=75 velocity=0 time=4
note_on channel=0 note=72 velocity=33 time=48
note_on channel=0 note=66 velocity=60 time=24
note_on channel=0 note=73 velocity=64 time=23
note_on channel=0 note=72 velocity=0 time=2
note_on channel=0 note=80 velocity=0 time=53
note_on channel=0 note=68 velocity=68 time=56
note_on channel=0 note=73 velocity=0 time=10
note_on channel=0 note=66 velocity=0 time=29
note_on channel=0 note=80 velocity=31 time=10
note_on channel=0 note=60 velocity=0 time=41
note_on channel=0 note=72 velocity=60 time=2
note_on channel=0 note=68 velocity=0 time=91
note_on channel=0 note=80 velocity=0 time=1
note_on channel=0 note=75 velocity=64 time=10
note_on channel=0 note=72 velocity=0 time=4
note_on channel=0 note=71 velocity=46 time=109
note_on channel=0 note=69 velocity=44 time=23
note_on channel=0 note=80 velocity=48 time=34
note_on channel=0 note=75 velocity=0 time=2
note_on channel=0 note=69 velocity=0 time=30
note_on channel=0 note=71 velocity=0 time=19
note_on channel=0 note=66 velocity=51 time=35
note_on channel=0 note=70 velocity=57 time=44
note_on channel=0 note=66 velocity=0 time=4
note_on channel=0 note=80 velocity=0 time=40
note_on channel=0 note=70 velocity=0 time=19
note_on channel=0 note=62 velocity=44 time=20
note_on channel=0 note=66 velocity=53 time=29
note_on channel=0 note=62 velocity=0 time=73
note_on channel=0 note=71 velocity=61 time=29
note_on channel=0 note=66 velocity=0 time=6
note_on channel=0 note=73 velocity=53 time=114
note_on channel=0 note=71 velocity=0 time=14
note_on channel=0 note=75 velocity=52 time=80
note_on channel=0 note=68 velocity=52 time=53
note_on channel=0 note=73 velocity=0 time=13
note_on channel=0 note=78 velocity=53 time=89
note_on channel=0 note=68 velocity=0 time=17
note_on channel=0 note=75 velocity=0 time=7
note_on channel=0 note=66 velocity=48 time=56
note_on channel=0 note=66 velocity=0 time=54
note_on channel=0 note=75 velocity=31 time=0
note_on channel=0 note=69 velocity=54 time=33
note_on channel=0 note=78 velocity=0 time=9
note_on channel=0 note=75 velocity=0 time=10
note_on channel=0 note=69 velocity=0 time=68
note_on channel=0 note=66 velocity=66 time=34
note_on channel=0 note=69 velocity=50 time=62
note_on channel=0 note=66 velocity=0 time=54
note_on channel=0 note=69 velocity=0 time=64
note_on channel=0 note=75 velocity=33 time=0
note_on channel=0 note=73 velocity=45 time=45
note_on channel=0 note=73 velocity=0 time=61
note_on channel=0 note=78 velocity=35 time=9
note_on channel=0 note=60 velocity=34 time=53
note_on channel=0 note=80 velocity=46 time=1
note_on channel=0 note=75 velocity=0 time=26
note_on channel=0 note=67 velocity=41 time=21
note_on channel=0 note=68 velocity=43 time=54
note_on channel=0 note=80 velocity=0 time=17
note_on channel=0 note=78 velocity=0 time=5
note_on channel=0 note=66 velocity=51 time=34
note_on channel=0 note=67 velocity=0 time=1
note_on channel=0 note=68 velocity=0 time=1
note_on channel=0 note=60 velocity=0 time=58
note_on channel=0 note=67 velocity=57 time=61
note_on channel=0 note=66 velocity=0 time=23
note_on channel=0 note=60 velocity=34 time=5
note_on channel=0 note=60 velocity=0 time=105
note_on channel=0 note=67 velocity=0 time=22
note_on channel=0 note=65 velocity=56 time=49
note_on channel=0 note=65 velocity=0 time=123
note_on channel=0 note=78 velocity=57 time=34
note_on channel=0 note=63 velocity=56 time=23
note_on channel=0 note=63 velocity=0 time=61
note_on channel=0 note=66 velocity=51 time=33
note_on channel=0 note=78 velocity=0 time=34
note_on channel=0 note=65 velocity=50 time=26
note_on channel=0 note=66 velocity=0 time=12
note_on channel=0 note=65 velocity=0 time=86
note_on channel=0 note=56 velocity=42 time=28
note_on channel=0 note=55 velocity=50 time=10
note_on channel=0 note=65 velocity=44 time=118
note_on channel=0 note=65 velocity=0 time=115
note_on channel=0 note=61 velocity=53 time=30
note_on channel=0 note=56 velocity=0 time=38
note_on channel=0 note=55 velocity=0 time=22
note_on channel=0 note=61 velocity=0 time=8
note_on channel=0 note=68 velocity=55 time=2
note_on channel=0 note=70 velocity=58 time=101
note_on channel=0 note=68 velocity=0 time=8
note_on channel=0 note=64 velocity=45 time=83
note_on channel=0 note=68 velocity=53 time=5
note_on channel=0 note=68 velocity=0 time=57
note_on channel=0 note=70 velocity=0 time=13
note_on channel=0 note=64 velocity=0 time=55
note_on channel=0 note=60 velocity=32 time=69
note_on channel=0 note=60 velocity=0 time=40
note_on channel=0 note=58 velocity=49 time=4
note_on channel=0 note=68 velocity=39 time=48
note_on channel=0 note=68 velocity=0 time=58
note_on channel=0 note=67 velocity=57 time=39
note_on channel=0 note=64 velocity=58 time=20
note_on channel=0 note=58 velocity=0 time=10
note_on channel=0 note=67 velocity=0 time=38
note_on channel=0 note=68 velocity=51 time=63
note_on channel=0 note=64 velocity=0 time=1
note_on channel=0 note=68 velocity=0 time=61
note_on channel=0 note=67 velocity=63 time=11
note_on channel=0 note=67 velocity=0 time=81
note_on channel=0 note=65 velocity=46 time=27
note_on channel=0 note=59 velocity=34 time=1
note_on channel=0 note=68 velocity=33 time=1
note_on channel=0 note=57 velocity=44 time=5
note_on channel=0 note=68 velocity=0 time=71
note_on channel=0 note=70 velocity=41 time=2
note_on channel=0 note=57 velocity=0 time=15
note_on channel=0 note=59 velocity=0 time=10
note_on channel=0 note=63 velocity=61 time=83
note_on channel=0 note=65 velocity=0 time=6
note_on channel=0 note=61 velocity=47 time=31
note_on channel=0 note=70 velocity=0 time=12
note_on channel=0 note=68 velocity=36 time=13
note_on channel=0 note=69 velocity=54 time=27
note_on channel=0 note=68 velocity=0 time=35
note_on channel=0 note=63 velocity=0 time=38
note_on channel=0 note=55 velocity=57 time=21
note_on channel=0 note=69 velocity=0 time=21
note_on channel=0 note=61 velocity=0 time=12
note_on channel=0 note=68 velocity=42 time=8
note_on channel=0 note=67 velocity=53 time=152
note_on channel=0 note=68 velocity=0 time=22
note_on channel=0 note=70 velocity=46 time=6
note_on channel=0 note=67 velocity=0 time=47
note_on channel=0 note=70 velocity=0 time=9
note_on channel=0 note=63 velocity=59 time=6
note_on channel=0 note=55 velocity=0 time=48
note_on channel=0 note=61 velocity=57 time=52
note_on channel=0 note=69 velocity=56 time=7
note_on channel=0 note=63 velocity=0 time=22
note_on channel=0 note=69 velocity=0 time=67
note_on channel=0 note=70 velocity=60 time=10
note_on channel=0 note=61 velocity=0 time=36
note_on channel=0 note=70 velocity=0 time=18
note_on channel=0 note=68 velocity=56 time=20
note_on channel=0 note=71 velocity=65 time=58
note_on channel=0 note=68 velocity=0 time=45
note_on channel=0 note=71 velocity=0 time=18
note_on channel=0 note=72 velocity=54 time=52
note_on channel=0 note=73 velocity=61 time=79
note_on channel=0 note=67 velocity=39 time=39
note_on channel=0 note=57 velocity=41 time=10
note_on channel=0 note=72 velocity=0 time=16
note_on channel=0 note=73 velocity=0 time=42
note_on channel=0 note=75 velocity=52 time=29
note_on channel=0 note=63 velocity=57 time=27
note_on channel=0 note=67 velocity=0 time=1
note_on channel=0 note=75 velocity=0 time=29
note_on channel=0 note=73 velocity=48 time=4
note_on channel=0 note=72 velocity=33 time=16
note_on channel=0 note=57 velocity=0 time=16
note_on channel=0 note=73 velocity=0 time=30
note_on channel=0 note=61 velocity=53 time=19
note_on channel=0 note=63 velocity=0 time=65
note_on channel=0 note=70 velocity=48 time=12
note_on channel=0 note=57 velocity=58 time=16
note_on channel=0 note=72 velocity=0 time=13
note_on channel=0 note=61 velocity=0 time=29
note_on channel=0 note=70 velocity=0 time=13
note_on channel=0 note=67 velocity=60 time=71
note_on channel=0 note=71 velocity=51 time=54
note_on channel=0 note=57 velocity=0 time=20
note_on channel=0 note=67 velocity=0 time=30
note_on channel=0 note=72 velocity=53 time=51
note_on channel=0 note=71 velocity=0 time=6
note_on channel=0 note=63 velocity=31 time=101
note_on channel=0 note=73 velocity=48 time=18
note_on channel=0 note=68 velocity=55 time=40
note_on channel=0 note=63 velocity=0 time=12
note_on channel=0 note=72 velocity=0 time=30
note_on channel=0 note=68 velocity=0 time=4
note_on channel=0 note=73 velocity=0 time=57
note_on channel=0 note=75 velocity=47 time=13
note_on channel=0 note=63 velocity=52 time=74
note_on channel=0 note=73 velocity=53 time=0
note_on channel=0 note=75 velocity=0 time=7
note_on channel=0 note=61 velocity=32 time=1
note_on channel=0 note=69 velocity=46 time=41
note_on channel=0 note=61 velocity=0 time=22
note_on channel=0 note=63 velocity=0 time=48
note_on channel=0 note=73 velocity=0 time=12
note_on channel=0 note=74 velocity=58 time=18
note_on channel=0 note=69 velocity=0 time=31
note_on channel=0 note=63 velocity=57 time=16
note_on channel=0 note=59 velocity=44 time=22
note_on channel=0 note=74 velocity=0 time=39
note_on channel=0 note=63 velocity=0 time=86
note_on channel=0 note=69 velocity=56 time=8
note_on channel=0 note=69 velocity=0 time=128
note_on channel=0 note=63 velocity=57 time=17
note_on channel=0 note=75 velocity=55 time=32
note_on channel=0 note=59 velocity=0 time=21
note_on channel=0 note=63 velocity=0 time=74
note_on channel=0 note=78 velocity=52 time=52
note_on channel=0 note=59 velocity=50 time=11
note_on channel=0 note=75 velocity=0 time=42
note_on channel=0 note=76 velocity=57 time=13
note_on channel=0 note=78 velocity=0 time=1
note_on channel=0 note=71 velocity=50 time=11
note_on channel=0 note=71 velocity=0 time=121
note_on channel=0 note=76 velocity=0 time=9
note_on channel=0 note=63 velocity=36 time=32
note_on channel=0 note=66 velocity=61 time=1
note_on channel=0 note=77 velocity=47 time=23
note_on channel=0 note=63 velocity=0 time=48
note_on channel=0 note=78 velocity=61 time=42
note_on channel=0 note=66 velocity=0 time=25
note_on channel=0 note=77 velocity=0 time=2
note_on channel=0 note=63 velocity=46 time=34
note_on channel=0 note=59 velocity=0 time=40
note_on channel=0 note=80 velocity=49 time=25
note_on channel=0 note=78 velocity=0 time=48
note_on channel=0 note=67 velocity=57 time=83
note_on channel=0 note=63 velocity=0 time=1
note_on channel=0 note=80 velocity=0 time=1
note_on channel=0 note=75 velocity=47 time=1
note_on channel=0 note=75 velocity=0 time=57
note_on channel=0 note=59 velocity=51 time=44
note_on channel=0 note=67 velocity=0 time=7
note_on channel=0 note=76 velocity=61 time=101
note_on channel=0 note=63 velocity=38 time=3
note_on channel=0 note=67 velocity=43 time=10
note_on channel=0 note=63 velocity=0 time=58
note_on channel=0 note=67 velocity=0 time=13
note_on channel=0 note=77 velocity=53 time=44
note_on channel=0 note=76 velocity=0 time=5
note_on channel=0 note=63 velocity=64 time=4
note_on channel=0 note=59 velocity=0 time=7
note_on channel=0 note=78 velocity=51 time=28
note_on channel=0 note=77 velocity=0 time=38
note_on channel=0 note=80 velocity=48 time=103
note_on channel=0 note=78 velocity=0 time=19
note_on channel=0 note=63 velocity=0 time=31
note_on channel=0 note=71 velocity=57 time=8
note_on channel=0 note=80 velocity=0 time=2
note_on channel=0 note=71 velocity=0 time=131
note_on channel=0 note=66 velocity=57 time=10
note_on channel=0 note=63 velocity=57 time=103
note_on channel=0 note=66 velocity=0 time=14
note_on channel=0 note=63 velocity=0 time=45
note_on channel=0 note=76 velocity=57 time=43
note_on channel=0 note=76 velocity=0 time=80
note_on channel=0 note=62 velocity=57 time=37
note_on channel=0 note=78 velocity=39 time=54
note_on channel=0 note=78 velocity=0 time=56
note_on channel=0 note=62 velocity=0 time=25
note_on channel=0 note=84 velocity=46 time=6
note_on channel=0 note=86 velocity=34 time=44
note_on channel=0 note=50 velocity=42 time=29
note_on channel=0 note=52 velocity=47 time=14
note_on channel=0 note=84 velocity=0 time=17
note_on channel=0 note=86 velocity=0 time=5
note_on channel=0 note=62 velocity=53 time=83
note_on channel=0 note=52 velocity=0 time=80
note_on channel=0 note=62 velocity=0 time=24
note_on channel=0 note=58 velocity=62 time=6
note_on channel=0 note=50 velocity=0 time=2
note_on channel=0 note=58 velocity=0 time=86
note_on channel=0 note=75 velocity=60 time=53
note_on channel=0 note=56 velocity=57 time=15
note_on channel=0 note=75 velocity=0 time=52
note_on channel=0 note=56 velocity=0 time=1
note_on channel=0 note=72 velocity=51 time=44
note_on channel=0 note=75 velocity=56 time=109
note_on channel=0 note=72 velocity=0 time=7
note_on channel=0 note=57 velocity=43 time=41
note_on channel=0 note=47 velocity=32 time=66
note_on channel=0 note=75 velocity=0 time=12
note_on channel=0 note=78 velocity=33 time=60
note_on channel=0 note=54 velocity=62 time=59
note_on channel=0 note=57 velocity=0 time=21
note_on channel=0 note=78 velocity=0 time=4
note_on channel=0 note=75 velocity=42 time=7
note_on channel=0 note=47 velocity=0 time=31
note_on channel=0 note=50 velocity=52 time=113
note_on channel=0 note=54 velocity=0 time=4
note_on channel=0 note=73 velocity=64 time=46
note_on channel=0 note=75 velocity=0 time=49
note_on channel=0 note=50 velocity=0 time=28
note_on channel=0 note=71 velocity=58 time=31
note_on channel=0 note=73 velocity=0 time=0
note_on channel=0 note=55 velocity=56 time=59
note_on channel=0 note=71 velocity=0 time=74
note_on channel=0 note=43 velocity=60 time=44
note_on channel=0 note=55 velocity=0 time=3
note_on channel=0 note=44 velocity=40 time=5
note_on channel=0 note=44 velocity=0 time=70
note_on channel=0 note=55 velocity=61 time=83
note_on channel=0 note=44 velocity=28 time=48
note_on channel=0 note=55 velocity=0 time=64
note_on channel=0 note=44 velocity=0 time=13
note_on channel=0 note=51 velocity=62 time=4
note_on channel=0 note=74 velocity=39 time=8
note_on channel=0 note=43 velocity=0 time=34
note_on channel=0 note=51 velocity=0 time=61
note_on channel=0 note=52 velocity=48 time=81
note_on channel=0 note=79 velocity=35 time=24
note_on channel=0 note=77 velocity=49 time=7
note_on channel=0 note=74 velocity=0 time=12
note_on channel=0 note=40 velocity=55 time=25
note_on channel=0 note=52 velocity=0 time=2
note_on channel=0 note=77 velocity=0 time=39
note_on channel=0 note=74 velocity=63 time=1
note_on channel=0 note=79 velocity=0 time=9
note_on channel=0 note=72 velocity=56 time=97
note_on channel=0 note=52 velocity=60 time=8
note_on channel=0 note=74 velocity=0 time=15
note_on channel=0 note=67 velocity=44 time=31
note_on channel=0 note=72 velocity=0 time=1
note_on channel=0 note=52 velocity=0 time=68
note_on channel=0 note=44 velocity=62 time=7
note_on channel=0 note=67 velocity=0 time=19
note_on channel=0 note=40 velocity=0 time=46
note_on channel=0 note=44 velocity=0 time=61
note_on channel=0 note=48 velocity=58 time=27
note_on channel=0 note=47 velocity=65 time=4
note_on channel=0 note=48 velocity=0 time=60
note_on channel=0 note=47 velocity=0 time=9
note_on channel=0 note=35 velocity=55 time=50
note_on channel=0 note=39 velocity=53 time=2
note_on channel=0 note=36 velocity=39 time=37
note_on channel=0 note=70 velocity=40 time=9
note_on channel=0 note=39 velocity=0 time=12
note_on channel=0 note=36 velocity=0 time=52
note_on channel=0 note=35 velocity=0 time=1
note_on channel=0 note=70 velocity=0 time=20
note_on channel=0 note=45 velocity=79 time=5
note_on channel=0 note=45 velocity=0 time=112
note_on channel=0 note=33 velocity=66 time=15
note_on channel=0 note=35 velocity=39 time=39
note_on channel=0 note=72 velocity=43 time=9
note_on channel=0 note=70 velocity=55 time=71
note_on channel=0 note=35 velocity=0 time=4
note_on channel=0 note=33 velocity=0 time=10
note_on channel=0 note=72 velocity=0 time=9
note_on channel=0 note=41 velocity=69 time=16
note_on channel=0 note=68 velocity=35 time=108
note_on channel=0 note=70 velocity=0 time=29
note_on channel=0 note=41 velocity=0 time=10
note_on channel=0 note=29 velocity=66 time=19
note_on channel=0 note=68 velocity=0 time=7
note_on channel=0 note=65 velocity=49 time=21
note_on channel=0 note=31 velocity=40 time=10
note_on channel=0 note=31 velocity=0 time=94
note_on channel=0 note=40 velocity=73 time=3
note_on channel=0 note=65 velocity=0 time=12
note_on channel=0 note=62 velocity=50 time=12
note_on channel=0 note=29 velocity=0 time=5
note_on channel=0 note=63 velocity=43 time=76
note_on channel=0 note=62 velocity=0 time=14
note_on channel=0 note=32 velocity=66 time=17
note_on channel=0 note=40 velocity=0 time=19
note_on channel=0 note=29 velocity=39 time=23
note_on channel=0 note=63 velocity=0 time=65
note_on channel=0 note=32 velocity=0 time=38
note_on channel=0 note=29 velocity=0 time=5
note_on channel=0 note=35 velocity=64 time=8
note_on channel=0 note=36 velocity=69 time=8
note_on channel=0 note=63 velocity=43 time=28
note_on channel=0 note=36 velocity=0 time=18
note_on channel=0 note=63 velocity=0 time=36
note_on channel=0 note=35 velocity=0 time=27
note_on channel=0 note=26 velocity=80 time=22
note_on channel=0 note=24 velocity=38 time=35
note_on channel=0 note=24 velocity=0 time=59
note_on channel=0 note=26 velocity=0 time=41
note_on channel=0 note=63 velocity=66 time=49
note_on channel=0 note=63 velocity=0 time=172
note_on channel=0 note=62 velocity=49 time=1
note_on channel=0 note=62 velocity=0 time=84
note_on channel=0 note=60 velocity=50 time=1
note_on channel=0 note=60 velocity=0 time=63
note_on channel=0 note=59 velocity=46 time=8
note_on channel=0 note=52 velocity=39 time=15
note_on channel=0 note=59 velocity=0 time=69
note_on channel=0 note=56 velocity=57 time=38
note_on channel=0 note=52 velocity=0 time=80
note_on channel=0 note=56 velocity=0 time=2
note_on channel=0 note=62 velocity=44 time=17
note_on channel=0 note=59 velocity=60 time=46
note_on channel=0 note=52 velocity=37 time=20
note_on channel=0 note=62 velocity=0 time=86
note_on channel=0 note=63 velocity=61 time=11
note_on channel=0 note=56 velocity=53 time=2
note_on channel=0 note=59 velocity=0 time=1
note_on channel=0 note=52 velocity=0 time=39
note_on channel=0 note=63 velocity=0 time=29
note_on channel=0 note=64 velocity=66 time=47
note_on channel=0 note=60 velocity=60 time=36
note_on channel=0 note=52 velocity=41 time=25
note_on channel=0 note=56 velocity=0 time=11
note_on channel=0 note=64 velocity=0 time=41
note_on channel=0 note=60 velocity=0 time=1
note_on channel=0 note=65 velocity=47 time=76
note_on channel=0 note=56 velocity=46 time=33
note_on channel=0 note=64 velocity=48 time=5
note_on channel=0 note=65 velocity=0 time=24
note_on channel=0 note=62 velocity=63 time=24
note_on channel=0 note=56 velocity=0 time=12
note_on channel=0 note=62 velocity=0 time=40
note_on channel=0 note=64 velocity=0 time=37
note_on channel=0 note=65 velocity=41 time=26
note_on channel=0 note=66 velocity=61 time=64
note_on channel=0 note=65 velocity=0 time=8
note_on channel=0 note=52 velocity=0 time=6
note_on channel=0 note=61 velocity=39 time=35
note_on channel=0 note=65 velocity=48 time=55
note_on channel=0 note=61 velocity=0 time=21
note_on channel=0 note=66 velocity=0 time=23
note_on channel=0 note=64 velocity=55 time=4
note_on channel=0 note=62 velocity=58 time=10
note_on channel=0 note=64 velocity=0 time=51
note_on channel=0 note=65 velocity=0 time=13
note_on channel=0 note=62 velocity=0 time=39
note_on channel=0 note=58 velocity=62 time=2
note_on channel=0 note=66 velocity=64 time=82
note_on channel=0 note=58 velocity=0 time=48
note_on channel=0 note=64 velocity=47 time=34
note_on channel=0 note=62 velocity=46 time=2
note_on channel=0 note=67 velocity=61 time=16
note_on channel=0 note=66 velocity=0 time=8
note_on channel=0 note=64 velocity=0 time=36
note_on channel=0 note=62 velocity=0 time=15
note_on channel=0 note=67 velocity=0 time=0
note_on channel=0 note=61 velocity=53 time=26
note_on channel=0 note=57 velocity=29 time=38
note_on channel=0 note=68 velocity=48 time=10
note_on channel=0 note=68 velocity=0 time=55
note_on channel=0 note=67 velocity=57 time=16
note_on channel=0 note=65 velocity=51 time=17
note_on channel=0 note=61 velocity=0 time=15
note_on channel=0 note=65 velocity=0 time=65
note_on channel=0 note=67 velocity=0 time=17
note_on channel=0 note=68 velocity=45 time=2
note_on channel=0 note=58 velocity=43 time=10
note_on channel=0 note=61 velocity=46 time=2
note_on channel=0 note=63 velocity=48 time=61
note_on channel=0 note=58 velocity=0 time=7
note_on channel=0 note=57 velocity=0 time=17
note_on channel=0 note=61 velocity=0 time=3
note_on channel=0 note=68 velocity=0 time=27
note_on channel=0 note=70 velocity=49 time=16
note_on channel=0 note=67 velocity=40 time=5
note_on channel=0 note=65 velocity=53 time=9
note_on channel=0 note=63 velocity=0 time=22
note_on channel=0 note=65 velocity=0 time=29
note_on channel=0 note=68 velocity=55 time=5
note_on channel=0 note=67 velocity=0 time=22
note_on channel=0 note=55 velocity=46 time=40
note_on channel=0 note=56 velocity=39 time=0
note_on channel=0 note=70 velocity=0 time=6
note_on channel=0 note=53 velocity=32 time=22
note_on channel=0 note=53 velocity=0 time=52
note_on channel=0 note=56 velocity=0 time=0
note_on channel=0 note=66 velocity=48 time=5
note_on channel=0 note=65 velocity=57 time=27
note_on channel=0 note=68 velocity=0 time=29
note_on channel=0 note=64 velocity=61 time=7
note_on channel=0 note=65 velocity=0 time=66
note_on channel=0 note=64 velocity=0 time=42
note_on channel=0 note=68 velocity=45 time=6
note_on channel=0 note=63 velocity=51 time=32
note_on channel=0 note=66 velocity=0 time=40
note_on channel=0 note=73 velocity=49 time=28
note_on channel=0 note=68 velocity=0 time=19
note_on channel=0 note=63 velocity=0 time=50
note_on channel=0 note=61 velocity=55 time=13
note_on channel=0 note=65 velocity=46 time=0
note_on channel=0 note=73 velocity=0 time=60
note_on channel=0 note=65 velocity=0 time=18
note_on channel=0 note=63 velocity=57 time=63
note_on channel=0 note=61 velocity=0 time=31
note_on channel=0 note=70 velocity=30 time=8
note_on channel=0 note=70 velocity=0 time=71
note_on channel=0 note=69 velocity=57 time=5
note_on channel=0 note=67 velocity=58 time=1
note_on channel=0 note=55 velocity=0 time=1
note_on channel=0 note=63 velocity=0 time=8
note_on channel=0 note=61 velocity=37 time=36
note_on channel=0 note=55 velocity=27 time=42
note_on channel=0 note=67 velocity=0 time=28
note_on channel=0 note=69 velocity=0 time=2
note_on channel=0 note=70 velocity=52 time=6
note_on channel=0 note=63 velocity=59 time=25
note_on channel=0 note=55 velocity=0 time=2
note_on channel=0 note=69 velocity=48 time=64
note_on channel=0 note=61 velocity=0 time=1
note_on channel=0 note=70 velocity=0 time=19
note_on channel=0 note=63 velocity=0 time=22
note_on channel=0 note=66 velocity=49 time=88
note_on channel=0 note=68 velocity=68 time=4
note_on channel=0 note=69 velocity=0 time=44
note_on channel=0 note=66 velocity=0 time=2
note_on channel=0 note=71 velocity=34 time=11
note_on channel=0 note=68 velocity=0 time=28
note_on channel=0 note=73 velocity=68 time=52
note_on channel=0 note=71 velocity=0 time=7
note_on channel=0 note=75 velocity=44 time=159
note_on channel=0 note=69 velocity=35 time=3
note_on channel=0 note=73 velocity=0 time=78
note_on channel=0 note=66 velocity=63 time=2
note_on channel=0 note=69 velocity=0 time=6
note_on channel=0 note=75 velocity=0 time=1
note_on channel=0 note=63 velocity=62 time=126
note_on channel=0 note=66 velocity=0 time=38
note_on channel=0 note=59 velocity=49 time=83
note_on channel=0 note=60 velocity=38 time=20
note_on channel=0 note=66 velocity=32 time=12
note_on channel=0 note=67 velocity=69 time=2
note_on channel=0 note=63 velocity=0 time=5
note_on channel=0 note=60 velocity=0 time=44
note_on channel=0 note=66 velocity=0 time=12
note_on channel=0 note=67 velocity=0 time=34
note_on channel=0 note=71 velocity=61 time=44
note_on channel=0 note=63 velocity=41 time=40
note_on channel=0 note=66 velocity=40 time=7
note_on channel=0 note=72 velocity=51 time=22
note_on channel=0 note=71 velocity=0 time=35
note_on channel=0 note=63 velocity=0 time=1
note_on channel=0 note=73 velocity=61 time=45
note_on channel=0 note=66 velocity=0 time=15
note_on channel=0 note=72 velocity=0 time=29
note_on channel=0 note=69 velocity=53 time=22
note_on channel=0 note=59 velocity=0 time=6
note_on channel=0 note=73 velocity=0 time=63
note_on channel=0 note=66 velocity=63 time=44
note_on channel=0 note=69 velocity=0 time=36
note_on channel=0 note=63 velocity=66 time=57
note_on channel=0 note=66 velocity=0 time=45
note_on channel=0 note=69 velocity=39 time=56
note_on channel=0 note=71 velocity=43 time=23
note_on channel=0 note=63 velocity=0 time=4
note_on channel=0 note=67 velocity=57 time=28
note_on channel=0 note=65 velocity=56 time=5
note_on channel=0 note=71 velocity=0 time=32
note_on channel=0 note=67 velocity=0 time=19
note_on channel=0 note=65 velocity=0 time=5
note_on channel=0 note=68 velocity=40 time=3
note_on channel=0 note=69 velocity=0 time=2
note_on channel=0 note=53 velocity=51 time=92
note_on channel=0 note=56 velocity=39 time=11
note_on channel=0 note=70 velocity=52 time=15
note_on channel=0 note=68 velocity=0 time=9
note_on channel=0 note=56 velocity=0 time=44
note_on channel=0 note=65 velocity=56 time=17
note_on channel=0 note=53 velocity=0 time=23
note_on channel=0 note=64 velocity=48 time=6
note_on channel=0 note=70 velocity=0 time=19
note_on channel=0 note=60 velocity=58 time=1
note_on channel=0 note=67 velocity=43 time=20
note_on channel=0 note=64 velocity=0 time=36
note_on channel=0 note=67 velocity=0 time=31
note_on channel=0 note=60 velocity=0 time=15
note_on channel=0 note=51 velocity=56 time=13
note_on channel=0 note=48 velocity=56 time=46
note_on channel=0 note=49 velocity=39 time=2
note_on channel=0 note=51 velocity=0 time=2
note_on channel=0 note=65 velocity=0 time=2
note_on channel=0 note=68 velocity=48 time=3
note_on channel=0 note=48 velocity=0 time=49
note_on channel=0 note=49 velocity=0 time=8
note_on channel=0 note=55 velocity=63 time=28
note_on channel=0 note=68 velocity=0 time=65
note_on channel=0 note=65 velocity=33 time=8
note_on channel=0 note=62 velocity=48 time=32
note_on channel=0 note=55 velocity=0 time=25
note_on channel=0 note=65 velocity=0 time=37
note_on channel=0 note=62 velocity=0 time=3
note_on channel=0 note=44 velocity=36 time=5
note_on channel=0 note=47 velocity=34 time=50
note_on channel=0 note=44 velocity=0 time=8
note_on channel=0 note=50 velocity=46 time=48
note_on channel=0 note=53 velocity=50 time=13
note_on channel=0 note=47 velocity=0 time=47
note_on channel=0 note=50 velocity=0 time=12
note_on channel=0 note=41 velocity=49 time=57
note_on channel=0 note=53 velocity=0 time=23
note_on channel=0 note=50 velocity=48 time=18
note_on channel=0 note=47 velocity=31 time=35
note_on channel=0 note=41 velocity=0 time=36
note_on channel=0 note=47 velocity=0 time=38
note_on channel=0 note=50 velocity=0 time=25
note_on channel=0 note=71 velocity=56 time=7
note_on channel=0 note=71 velocity=0 time=145
note_on channel=0 note=70 velocity=40 time=47
note_on channel=0 note=62 velocity=48 time=22
note_on channel=0 note=70 velocity=0 time=46
note_on channel=0 note=64 velocity=57 time=45
note_on channel=0 note=62 velocity=0 time=23
note_on channel=0 note=64 velocity=0 time=89
note_on channel=0 note=60 velocity=52 time=21
note_on channel=0 note=61 velocity=56 time=15
note_on channel=0 note=60 velocity=0 time=41
note_on channel=0 note=61 velocity=0 time=2
note_on channel=0 note=52 velocity=61 time=80
note_on channel=0 note=62 velocity=36 time=30
note_on channel=0 note=46 velocity=49 time=70
note_on channel=0 note=52 velocity=0 time=12
note_on channel=0 note=62 velocity=0 time=5
note_on channel=0 note=60 velocity=33 time=16
note_on channel=0 note=45 velocity=52 time=5
note_on channel=0 note=46 velocity=0 time=17
note_on channel=0 note=40 velocity=55 time=25
note_on channel=0 note=60 velocity=0 time=19
note_on channel=0 note=45 velocity=0 time=25
note_on channel=0 note=53 velocity=37 time=51
note_on channel=0 note=55 velocity=39 time=25
note_on channel=0 note=40 velocity=0 time=51
note_on channel=0 note=55 velocity=0 time=25
note_on channel=0 note=58 velocity=44 time=5
note_on channel=0 note=41 velocity=47 time=76
note_on channel=0 note=59 velocity=27 time=13
note_on channel=0 note=53 velocity=0 time=4
note_on channel=0 note=34 velocity=35 time=28
note_on channel=0 note=55 velocity=34 time=10
note_on channel=0 note=59 velocity=0 time=16
note_on channel=0 note=34 velocity=0 time=40
note_on channel=0 note=55 velocity=0 time=21
note_on channel=0 note=58 velocity=0 time=28
note_on channel=0 note=29 velocity=83 time=29
note_on channel=0 note=41 velocity=0 time=0
note_on channel=0 note=29 velocity=0 time=146
note_on channel=0 note=75 velocity=64 time=50
note_on channel=0 note=75 velocity=0 time=106
note_on channel=0 note=64 velocity=37 time=134
note_on channel=0 note=65 velocity=50 time=20
note_on channel=0 note=64 velocity=0 time=37
note_on channel=0 note=65 velocity=0 time=42
note_on channel=0 note=67 velocity=35 time=17
note_on channel=0 note=55 velocity=49 time=18
note_on channel=0 note=56 velocity=30 time=30
note_on channel=0 note=67 velocity=0 time=17
note_on channel=0 note=65 velocity=40 time=39
note_on channel=0 note=64 velocity=47 time=16
note_on channel=0 note=56 velocity=0 time=24
note_on channel=0 note=62 velocity=31 time=15
note_on channel=0 note=65 velocity=0 time=9
note_on channel=0 note=55 velocity=0 time=7
note_on channel=0 note=64 velocity=0 time=61
note_on channel=0 note=59 velocity=43 time=14
note_on channel=0 note=64 velocity=57 time=144
note_on channel=0 note=59 velocity=0 time=44
note_on channel=0 note=64 velocity=0 time=27
note_on channel=0 note=74 velocity=56 time=9
note_on channel=0 note=55 velocity=53 time=6
note_on channel=0 note=62 velocity=0 time=27
note_on channel=0 note=64 velocity=56 time=143
note_on channel=0 note=63 velocity=49 time=119
note_on channel=0 note=64 velocity=0 time=3
note_on channel=0 note=63 velocity=0 time=51
note_on channel=0 note=73 velocity=42 time=25
note_on channel=0 note=61 velocity=57 time=41
note_on channel=0 note=74 velocity=0 time=26
note_on channel=0 note=55 velocity=0 time=45
note_on channel=0 note=72 velocity=39 time=31
note_on channel=0 note=73 velocity=0 time=45
note_on channel=0 note=67 velocity=40 time=53
note_on channel=0 note=63 velocity=35 time=28
note_on channel=0 note=61 velocity=0 time=10
note_on channel=0 note=72 velocity=0 time=0
note_on channel=0 note=71 velocity=35 time=35
note_on channel=0 note=63 velocity=0 time=11
note_on channel=0 note=67 velocity=0 time=3
note_on channel=0 note=71 velocity=0 time=79
note_on channel=0 note=63 velocity=37 time=49
note_on channel=0 note=72 velocity=43 time=11
note_on channel=0 note=66 velocity=58 time=5
note_on channel=0 note=69 velocity=57 time=110
note_on channel=0 note=66 velocity=0 time=29
note_on channel=0 note=72 velocity=0 time=3
note_on channel=0 note=63 velocity=0 time=3
note_on channel=0 note=71 velocity=48 time=7
note_on channel=0 note=66 velocity=52 time=80
note_on channel=0 note=71 velocity=0 time=5
note_on channel=0 note=69 velocity=0 time=27
note_on channel=0 note=73 velocity=60 time=27
note_on channel=0 note=63 velocity=32 time=95
note_on channel=0 note=66 velocity=0 time=1
note_on channel=0 note=73 velocity=0 time=34
note_on channel=0 note=63 velocity=0 time=16
note_on channel=0 note=67 velocity=63 time=1
note_on channel=0 note=74 velocity=65 time=21
note_on channel=0 note=63 velocity=56 time=68
note_on channel=0 note=67 velocity=0 time=14
note_on channel=0 note=74 velocity=0 time=37
note_on channel=0 note=63 velocity=0 time=73
note_on channel=0 note=65 velocity=50 time=68
note_on channel=0 note=75 velocity=56 time=2
note_on channel=0 note=67 velocity=46 time=27
note_on channel=0 note=65 velocity=0 time=45
note_on channel=0 note=67 velocity=0 time=21
note_on channel=0 note=57 velocity=42 time=50
note_on channel=0 note=73 velocity=55 time=57
note_on channel=0 note=75 velocity=0 time=63
note_on channel=0 note=61 velocity=43 time=23
note_on channel=0 note=57 velocity=0 time=15
note_on channel=0 note=70 velocity=57 time=43
note_on channel=0 note=61 velocity=0 time=5
note_on channel=0 note=57 velocity=35 time=41
note_on channel=0 note=73 velocity=0 time=21
note_on channel=0 note=58 velocity=49 time=5
note_on channel=0 note=61 velocity=57 time=5
note_on channel=0 note=70 velocity=0 time=21
note_on channel=0 note=58 velocity=0 time=26
note_on channel=0 note=57 velocity=0 time=6
note_on channel=0 note=61 velocity=0 time=73
note_on channel=0 note=71 velocity=61 time=13
note_on channel=0 note=68 velocity=70 time=48
note_on channel=0 note=71 velocity=0 time=72
note_on channel=0 note=68 velocity=0 time=35
note_on channel=0 note=72 velocity=57 time=18
note_on channel=0 note=73 velocity=60 time=112
note_on channel=0 note=72 velocity=0 time=18
note_on channel=0 note=71 velocity=44 time=72
note_on channel=0 note=69 velocity=42 time=5
note_on channel=0 note=73 velocity=0 time=35
note_on channel=0 note=71 velocity=0 time=23
note_on channel=0 note=69 velocity=0 time=8
note_on channel=0 note=66 velocity=60 time=14
note_on channel=0 note=74 velocity=34 time=55
note_on channel=0 note=66 velocity=0 time=18
note_on channel=0 note=71 velocity=42 time=113
note_on channel=0 note=75 velocity=56 time=0
note_on channel=0 note=74 velocity=0 time=12
note_on channel=0 note=62 velocity=38 time=7
note_on channel=0 note=66 velocity=37 time=87
note_on channel=0 note=71 velocity=0 time=4
note_on channel=0 note=68 velocity=52 time=24
note_on channel=0 note=66 velocity=0 time=37
note_on channel=0 note=80 velocity=39 time=49
note_on channel=0 note=75 velocity=0 time=20
note_on channel=0 note=66 velocity=43 time=45
note_on channel=0 note=68 velocity=0 time=6
note_on channel=0 note=75 velocity=36 time=49
note_on channel=0 note=73 velocity=47 time=54
note_on channel=0 note=75 velocity=0 time=35
note_on channel=0 note=66 velocity=0 time=41
note_on channel=0 note=69 velocity=51 time=9
note_on channel=0 note=73 velocity=0 time=66
note_on channel=0 note=69 velocity=0 time=19
note_on channel=0 note=72 velocity=39 time=4
note_on channel=0 note=66 velocity=60 time=70
note_on channel=0 note=72 velocity=0 time=17
note_on channel=0 note=75 velocity=61 time=18
note_on channel=0 note=80 velocity=0 time=10
note_on channel=0 note=62 velocity=0 time=41
note_on channel=0 note=66 velocity=0 time=53
note_on channel=0 note=80 velocity=56 time=53
note_on channel=0 note=71 velocity=51 time=2
note_on channel=0 note=62 velocity=39 time=4
note_on channel=0 note=75 velocity=0 time=14
note_on channel=0 note=71 velocity=0 time=42
note_on channel=0 note=73 velocity=61 time=93
note_on channel=0 note=68 velocity=63 time=20
note_on channel=0 note=66 velocity=35 time=16
note_on channel=0 note=66 velocity=0 time=56
note_on channel=0 note=73 velocity=0 time=8
note_on channel=0 note=68 velocity=0 time=40
note_on channel=0 note=66 velocity=58 time=21
note_on channel=0 note=75 velocity=55 time=16
note_on channel=0 note=63 velocity=34 time=33
note_on channel=0 note=62 velocity=0 time=27
note_on channel=0 note=80 velocity=0 time=23
note_on channel=0 note=63 velocity=0 time=19
note_on channel=0 note=73 velocity=53 time=15
note_on channel=0 note=74 velocity=45 time=16
note_on channel=0 note=66 velocity=0 time=4
note_on channel=0 note=62 velocity=41 time=21
note_on channel=0 note=75 velocity=0 time=6
note_on channel=0 note=69 velocity=47 time=14
note_on channel=0 note=67 velocity=49 time=11
note_on channel=0 note=74 velocity=0 time=21
note_on channel=0 note=67 velocity=0 time=34
note_on channel=0 note=69 velocity=0 time=3
note_on channel=0 note=62 velocity=0 time=45
note_on channel=0 note=66 velocity=63 time=6
note_on channel=0 note=73 velocity=0 time=20
note_on channel=0 note=75 velocity=45 time=5
note_on channel=0 note=80 velocity=57 time=25
note_on channel=0 note=75 velocity=0 time=40
note_on channel=0 note=66 velocity=0 time=14
note_on channel=0 note=62 velocity=44 time=24
note_on channel=0 note=71 velocity=57 time=21
note_on channel=0 note=71 velocity=0 time=128
note_on channel=0 note=68 velocity=63 time=5
note_on channel=0 note=80 velocity=0 time=52
note_on channel=0 note=75 velocity=49 time=51
note_on channel=0 note=66 velocity=48 time=46
note_on channel=0 note=75 velocity=0 time=6
note_on channel=0 note=74 velocity=47 time=13
note_on channel=0 note=72 velocity=43 time=2
note_on channel=0 note=62 velocity=0 time=6
note_on channel=0 note=68 velocity=0 time=40
note_on channel=0 note=74 velocity=0 time=28
note_on channel=0 note=72 velocity=0 time=31
note_on channel=0 note=77 velocity=31 time=11
note_on channel=0 note=75 velocity=68 time=22
note_on channel=0 note=77 velocity=0 time=53
note_on channel=0 note=68 velocity=47 time=24
note_on channel=0 note=66 velocity=0 time=5
note_on channel=0 note=62 velocity=41 time=33
note_on channel=0 note=80 velocity=41 time=24
note_on channel=0 note=75 velocity=0 time=23
note_on channel=0 note=81 velocity=43 time=9
note_on channel=0 note=66 velocity=46 time=19
note_on channel=0 note=68 velocity=0 time=29
note_on channel=0 note=62 velocity=0 time=7
note_on channel=0 note=81 velocity=0 time=22
note_on channel=0 note=80 velocity=0 time=12
note_on channel=0 note=73 velocity=68 time=30
note_on channel=0 note=78 velocity=36 time=14
note_on channel=0 note=72 velocity=48 time=27
note_on channel=0 note=78 velocity=0 time=54
note_on channel=0 note=73 velocity=0 time=13
note_on channel=0 note=66 velocity=0 time=4
note_on channel=0 note=62 velocity=28 time=16
note_on channel=0 note=68 velocity=64 time=15
note_on channel=0 note=72 velocity=0 time=19
note_on channel=0 note=66 velocity=39 time=58
note_on channel=0 note=78 velocity=43 time=12
note_on channel=0 note=62 velocity=0 time=7
note_on channel=0 note=74 velocity=48 time=18
note_on channel=0 note=76 velocity=48 time=2
note_on channel=0 note=78 velocity=0 time=38
note_on channel=0 note=76 velocity=0 time=27
note_on channel=0 note=62 velocity=46 time=1
note_on channel=0 note=68 velocity=0 time=4
note_on channel=0 note=66 velocity=0 time=7
note_on channel=0 note=77 velocity=46 time=11
note_on channel=0 note=74 velocity=0 time=40
note_on channel=0 note=78 velocity=66 time=50
note_on channel=0 note=66 velocity=36 time=9
note_on channel=0 note=77 velocity=0 time=50
note_on channel=0 note=62 velocity=0 time=22
note_on channel=0 note=72 velocity=44 time=41
note_on channel=0 note=82 velocity=57 time=30
note_on channel=0 note=78 velocity=0 time=38
note_on channel=0 note=68 velocity=68 time=19
note_on channel=0 note=66 velocity=0 time=26
note_on channel=0 note=72 velocity=0 time=24
note_on channel=0 note=75 velocity=68 time=10
note_on channel=0 note=66 velocity=43 time=83
note_on channel=0 note=75 velocity=0 time=37
note_on channel=0 note=62 velocity=57 time=18
note_on channel=0 note=68 velocity=0 time=0
note_on channel=0 note=66 velocity=0 time=20
note_on channel=0 note=82 velocity=0 time=20
note_on channel=0 note=76 velocity=60 time=25
note_on channel=0 note=71 velocity=40 time=102
note_on channel=0 note=78 velocity=56 time=29
note_on channel=0 note=76 velocity=0 time=39
note_on channel=0 note=71 velocity=0 time=13
note_on channel=0 note=66 velocity=60 time=22
note_on channel=0 note=80 velocity=52 time=32
note_on channel=0 note=62 velocity=0 time=61
note_on channel=0 note=78 velocity=0 time=15
note_on channel=0 note=82 velocity=56 time=6
note_on channel=0 note=66 velocity=0 time=5
note_on channel=0 note=80 velocity=0 time=32
note_on channel=0 note=69 velocity=44 time=7
note_on channel=0 note=67 velocity=50 time=7
note_on channel=0 note=82 velocity=0 time=10
note_on channel=0 note=62 velocity=34 time=3
note_on channel=0 note=76 velocity=58 time=4
note_on channel=0 note=67 velocity=0 time=49
note_on channel=0 note=69 velocity=0 time=17
note_on channel=0 note=66 velocity=61 time=34
note_on channel=0 note=63 velocity=39 time=2
note_on channel=0 note=71 velocity=38 time=38
note_on channel=0 note=76 velocity=0 time=1
note_on channel=0 note=72 velocity=54 time=7
note_on channel=0 note=62 velocity=0 time=26
note_on channel=0 note=73 velocity=51 time=3
note_on channel=0 note=63 velocity=0 time=1
note_on channel=0 note=66 velocity=0 time=3
note_on channel=0 note=71 velocity=0 time=32
note_on channel=0 note=72 velocity=0 time=6
note_on channel=0 note=75 velocity=55 time=46
note_on channel=0 note=65 velocity=45 time=11
note_on channel=0 note=73 velocity=0 time=3
note_on channel=0 note=67 velocity=41 time=9
note_on channel=0 note=75 velocity=0 time=49
note_on channel=0 note=65 velocity=0 time=10
note_on channel=0 note=67 velocity=0 time=11
note_on channel=0 note=61 velocity=47 time=2
note_on channel=0 note=57 velocity=56 time=16
note_on channel=0 note=74 velocity=54 time=50
note_on channel=0 note=74 velocity=0 time=45
note_on channel=0 note=67 velocity=63 time=42
note_on channel=0 note=61 velocity=0 time=1
note_on channel=0 note=83 velocity=61 time=86
note_on channel=0 note=61 velocity=46 time=28
note_on channel=0 note=67 velocity=0 time=5
note_on channel=0 note=80 velocity=61 time=58
note_on channel=0 note=83 velocity=0 time=27
note_on channel=0 note=57 velocity=0 time=44
note_on channel=0 note=61 velocity=0 time=4
note_on channel=0 note=80 velocity=0 time=22
note_on channel=0 note=64 velocity=57 time=6
note_on channel=0 note=79 velocity=41 time=9
note_on channel=0 note=79 velocity=0 time=57
note_on channel=0 note=57 velocity=38 time=17
note_on channel=0 note=64 velocity=0 time=34
note_on channel=0 note=61 velocity=57 time=8
note_on channel=0 note=81 velocity=58 time=28
note_on channel=0 note=57 velocity=0 time=18
note_on channel=0 note=81 velocity=0 time=27
note_on channel=0 note=91 velocity=56 time=8
note_on channel=0 note=87 velocity=54 time=28
note_on channel=0 note=61 velocity=0 time=19
note_on channel=0 note=87 velocity=0 time=27
note_on channel=0 note=62 velocity=57 time=17
note_on channel=0 note=60 velocity=57 time=2
note_on channel=0 note=87 velocity=62 time=43
note_on channel=0 note=89 velocity=34 time=24
note_on channel=0 note=60 velocity=0 time=31
note_on channel=0 note=62 velocity=0 time=17
note_on channel=0 note=91 velocity=0 time=16
note_on channel=0 note=81 velocity=58 time=3
note_on channel=0 note=89 velocity=0 time=12
note_on channel=0 note=87 velocity=0 time=45
note_on channel=0 note=50 velocity=49 time=63
note_on channel=0 note=52 velocity=42 time=40
note_on channel=0 note=80 velocity=68 time=24
note_on channel=0 note=79 velocity=36 time=13
note_on channel=0 note=81 velocity=0 time=10
note_on channel=0 note=79 velocity=0 time=35
note_on channel=0 note=80 velocity=0 time=85
note_on channel=0 note=55 velocity=25 time=12
note_on channel=0 note=62 velocity=61 time=34
note_on channel=0 note=81 velocity=44 time=10
note_on channel=0 note=83 velocity=52 time=3
note_on channel=0 note=55 velocity=0 time=3
note_on channel=0 note=83 velocity=0 time=53
note_on channel=0 note=58 velocity=66 time=31
note_on channel=0 note=52 velocity=0 time=8
note_on channel=0 note=79 velocity=47 time=33
note_on channel=0 note=62 velocity=0 time=8
note_on channel=0 note=50 velocity=0 time=14
note_on channel=0 note=81 velocity=0 time=3
note_on channel=0 note=55 velocity=60 time=19
note_on channel=0 note=58 velocity=0 time=45
note_on channel=0 note=77 velocity=45 time=16
note_on channel=0 note=55 velocity=0 time=14
note_on channel=0 note=79 velocity=0 time=27
note_on channel=0 note=77 velocity=0 time=30
note_on channel=0 note=71 velocity=66 time=3
note_on channel=0 note=48 velocity=75 time=81
note_on channel=0 note=71 velocity=0 time=87
note_on channel=0 note=48 velocity=0 time=35
note_on channel=0 note=36 velocity=80 time=20
note_on channel=0 note=48 velocity=79 time=156
note_on channel=0 note=47 velocity=79 time=4
note_on channel=0 note=36 velocity=0 time=51
note_on channel=0 note=47 velocity=0 time=49
note_on channel=0 note=48 velocity=0 time=1
note_on channel=0 note=71 velocity=69 time=66
note_on channel=0 note=71 velocity=0 time=89
note_on channel=0 note=77 velocity=61 time=122
note_on channel=0 note=50 velocity=32 time=64
note_on channel=0 note=52 velocity=41 time=19
note_on channel=0 note=74 velocity=48 time=34
note_on channel=0 note=77 velocity=0 time=8
note_on channel=0 note=67 velocity=60 time=25
note_on channel=0 note=62 velocity=50 time=6
note_on channel=0 note=74 velocity=0 time=23
note_on channel=0 note=62 velocity=0 time=83
note_on channel=0 note=58 velocity=56 time=30
note_on channel=0 note=67 velocity=0 time=20
note_on channel=0 note=56 velocity=64 time=62
note_on channel=0 note=50 velocity=0 time=6
note_on channel=0 note=52 velocity=0 time=19
note_on channel=0 note=58 velocity=0 time=30
note_on channel=0 note=56 velocity=0 time=51
note_on channel=0 note=73 velocity=57 time=54
note_on channel=0 note=64 velocity=57 time=136
note_on channel=0 note=73 velocity=0 time=39
note_on channel=0 note=54 velocity=38 time=19
note_on channel=0 note=64 velocity=0 time=59
note_on channel=0 note=66 velocity=63 time=61
note_on channel=0 note=54 velocity=0 time=74
note_on channel=0 note=66 velocity=0 time=39
note_on channel=0 note=58 velocity=64 time=56
note_on channel=0 note=58 velocity=0 time=93
note_on channel=0 note=67 velocity=58 time=40
note_on channel=0 note=68 velocity=58 time=90
note_on channel=0 note=67 velocity=0 time=21
note_on channel=0 note=64 velocity=48 time=111
note_on channel=0 note=68 velocity=0 time=14
note_on channel=0 note=73 velocity=40 time=10
note_on channel=0 note=73 velocity=0 time=73
note_on channel=0 note=64 velocity=0 time=32
note_on channel=0 note=70 velocity=34 time=12
note_on channel=0 note=61 velocity=59 time=21
note_on channel=0 note=70 velocity=0 time=50
note_on channel=0 note=63 velocity=48 time=22
note_on channel=0 note=61 velocity=0 time=31
note_on channel=0 note=58 velocity=59 time=14
note_on channel=0 note=63 velocity=0 time=12
note_on channel=0 note=58 velocity=0 time=73
note_on channel=0 note=62 velocity=34 time=66
note_on channel=0 note=63 velocity=24 time=20
note_on channel=0 note=60 velocity=56 time=28
note_on channel=0 note=63 velocity=0 time=28
note_on channel=0 note=62 velocity=0 time=10
note_on channel=0 note=50 velocity=50 time=50
note_on channel=0 note=51 velocity=27 time=30
note_on channel=0 note=60 velocity=0 time=6
note_on channel=0 note=63 velocity=38 time=25
note_on channel=0 note=54 velocity=57 time=18
note_on channel=0 note=51 velocity=0 time=50
note_on channel=0 note=54 velocity=0 time=6
note_on channel=0 note=50 velocity=0 time=8
note_on channel=0 note=63 velocity=0 time=52
note_on channel=0 note=66 velocity=52 time=12
note_on channel=0 note=57 velocity=57 time=37
note_on channel=0 note=66 velocity=0 time=24
note_on channel=0 note=51 velocity=56 time=29
note_on channel=0 note=57 velocity=0 time=52
note_on channel=0 note=68 velocity=66 time=2
note_on channel=0 note=47 velocity=56 time=2
note_on channel=0 note=51 velocity=0 time=53
note_on channel=0 note=68 velocity=0 time=48
note_on channel=0 note=57 velocity=69 time=43
note_on channel=0 note=66 velocity=51 time=45
note_on channel=0 note=57 velocity=0 time=1
note_on channel=0 note=51 velocity=57 time=19
note_on channel=0 note=63 velocity=50 time=47
note_on channel=0 note=66 velocity=0 time=11
note_on channel=0 note=47 velocity=0 time=12
note_on channel=0 note=51 velocity=0 time=77
note_on channel=0 note=63 velocity=0 time=13
note_on channel=0 note=61 velocity=53 time=1
note_on channel=0 note=59 velocity=30 time=41
note_on channel=0 note=54 velocity=35 time=10
note_on channel=0 note=54 velocity=0 time=44
note_on channel=0 note=59 velocity=0 time=5
note_on channel=0 note=63 velocity=53 time=78
note_on channel=0 note=61 velocity=0 time=16
note_on channel=0 note=48 velocity=43 time=11
note_on channel=0 note=57 velocity=61 time=25
note_on channel=0 note=63 velocity=0 time=28
note_on channel=0 note=48 velocity=0 time=30
note_on channel=0 note=63 velocity=32 time=15
note_on channel=0 note=51 velocity=69 time=28
note_on channel=0 note=57 velocity=0 time=20
note_on channel=0 note=66 velocity=40 time=2
note_on channel=0 note=63 velocity=0 time=18
note_on channel=0 note=66 velocity=0 time=62
note_on channel=0 note=59 velocity=56 time=9
note_on channel=0 note=51 velocity=0 time=16
note_on channel=0 note=57 velocity=41 time=26
note_on channel=0 note=57 velocity=0 time=59
note_on channel=0 note=53 velocity=65 time=27
note_on channel=0 note=50 velocity=57 time=8
note_on channel=0 note=59 velocity=0 time=3
note_on channel=0 note=52 velocity=52 time=10
note_on channel=0 note=44 velocity=37 time=39
note_on channel=0 note=53 velocity=0 time=4
note_on channel=0 note=52 velocity=0 time=12
note_on channel=0 note=40 velocity=49 time=18
note_on channel=0 note=50 velocity=0 time=11
note_on channel=0 note=44 velocity=0 time=21
note_on channel=0 note=54 velocity=56 time=12
note_on channel=0 note=41 velocity=33 time=1
note_on channel=0 note=41 velocity=0 time=47
note_on channel=0 note=40 velocity=0 time=7
note_on channel=0 note=45 velocity=65 time=69
note_on channel=0 note=52 velocity=52 time=3
note_on channel=0 note=50 velocity=57 time=4
note_on channel=0 note=54 velocity=0 time=42
note_on channel=0 note=52 velocity=0 time=8
note_on channel=0 note=45 velocity=0 time=39
note_on channel=0 note=38 velocity=46 time=27
note_on channel=0 note=35 velocity=61 time=1
note_on channel=0 note=56 velocity=38 time=49
note_on channel=0 note=50 velocity=0 time=28
note_on channel=0 note=56 velocity=0 time=20
note_on channel=0 note=51 velocity=51 time=35
note_on channel=0 note=45 velocity=48 time=73
note_on channel=0 note=35 velocity=0 time=4
note_on channel=0 note=43 velocity=65 time=2
note_on channel=0 note=38 velocity=0 time=7
note_on channel=0 note=51 velocity=0 time=0
note_on channel=0 note=45 velocity=0 time=107
note_on channel=0 note=43 velocity=0 time=19
note_on channel=0 note=31 velocity=57 time=27
note_on channel=0 note=50 velocity=47 time=8
note_on channel=0 note=49 velocity=40 time=3
note_on channel=0 note=32 velocity=44 time=8
note_on channel=0 note=50 velocity=0 time=48
note_on channel=0 note=49 velocity=0 time=5
note_on channel=0 note=32 velocity=0 time=9
note_on channel=0 note=43 velocity=35 time=61
note_on channel=0 note=41 velocity=46 time=8
note_on channel=0 note=29 velocity=44 time=7
note_on channel=0 note=31 velocity=0 time=1
note_on channel=0 note=36 velocity=64 time=11
note_on channel=0 note=38 velocity=49 time=31
note_on channel=0 note=29 velocity=0 time=28
note_on channel=0 note=38 velocity=0 time=31
note_on channel=0 note=36 velocity=0 time=10
note_on channel=0 note=50 velocity=35 time=7
note_on channel=0 note=41 velocity=0 time=20
note_on channel=0 note=43 velocity=0 time=2
note_on channel=0 note=28 velocity=80 time=4
note_on channel=0 note=29 velocity=49 time=3
note_on channel=0 note=29 velocity=0 time=46
note_on channel=0 note=50 velocity=0 time=4
note_on channel=0 note=26 velocity=56 time=6
note_on channel=0 note=26 velocity=0 time=51
note_on channel=0 note=28 velocity=0 time=33
note_on channel=0 note=58 velocity=59 time=80
note_on channel=0 note=58 velocity=0 time=39
note_on channel=0 note=57 velocity=43 time=13
note_on channel=0 note=43 velocity=53 time=78
note_on channel=0 note=57 velocity=0 time=1
note_on channel=0 note=52 velocity=57 time=32
note_on channel=0 note=52 velocity=0 time=92
note_on channel=0 note=55 velocity=49 time=35
note_on channel=0 note=48 velocity=36 time=21
note_on channel=0 note=61 velocity=40 time=10
note_on channel=0 note=43 velocity=0 time=9
note_on channel=0 note=47 velocity=34 time=25
note_on channel=0 note=56 velocity=53 time=44
note_on channel=0 note=61 velocity=0 time=1
note_on channel=0 note=48 velocity=0 time=1
note_on channel=0 note=47 velocity=0 time=1
note_on channel=0 note=58 velocity=51 time=86
note_on channel=0 note=53 velocity=30 time=15
note_on channel=0 note=56 velocity=0 time=39
note_on channel=0 note=55 velocity=0 time=12
note_on channel=0 note=61 velocity=37 time=11
note_on channel=0 note=56 velocity=51 time=78
note_on channel=0 note=59 velocity=48 time=14
note_on channel=0 note=61 velocity=0 time=33
note_on channel=0 note=58 velocity=0 time=20
note_on channel=0 note=59 velocity=0 time=22
note_on channel=0 note=65 velocity=54 time=69
note_on channel=0 note=66 velocity=39 time=5
note_on channel=0 note=76 velocity=50 time=18
note_on channel=0 note=53 velocity=0 time=10
note_on channel=0 note=61 velocity=32 time=1
note_on channel=0 note=68 velocity=38 time=18
note_on channel=0 note=56 velocity=0 time=10
note_on channel=0 note=62 velocity=46 time=10
note_on channel=0 note=76 velocity=0 time=7
note_on channel=0 note=67 velocity=46 time=9
note_on channel=0 note=71 velocity=46 time=13
note_on channel=0 note=61 velocity=0 time=10
note_on channel=0 note=68 velocity=0 time=38
note_on channel=0 note=73 velocity=63 time=1
note_on channel=0 note=67 velocity=0 time=12
note_on channel=0 note=62 velocity=0 time=31
note_on channel=0 note=71 velocity=0 time=17
note_on channel=0 note=74 velocity=48 time=60
note_on channel=0 note=73 velocity=0 time=5
note_on channel=0 note=76 velocity=48 time=12
note_on channel=0 note=77 velocity=46 time=1
note_on channel=0 note=74 velocity=0 time=46
note_on channel=0 note=71 velocity=42 time=3
note_on channel=0 note=72 velocity=42 time=7
note_on channel=0 note=76 velocity=0 time=19
note_on channel=0 note=77 velocity=0 time=1
note_on channel=0 note=66 velocity=0 time=14
note_on channel=0 note=74 velocity=63 time=19
note_on channel=0 note=72 velocity=0 time=44
note_on channel=0 note=65 velocity=0 time=16
note_on channel=0 note=71 velocity=0 time=86
note_on channel=0 note=93 velocity=48 time=1
note_on channel=0 note=92 velocity=43 time=6
note_on channel=0 note=74 velocity=0 time=26
note_on channel=0 note=92 velocity=0 time=32
note_on channel=0 note=77 velocity=57 time=62
note_on channel=0 note=93 velocity=0 time=12
note_on channel=0 note=81 velocity=47 time=35
note_on channel=0 note=75 velocity=66 time=38
note_on channel=0 note=77 velocity=0 time=27
note_on channel=0 note=81 velocity=0 time=6
note_on channel=0 note=82 velocity=32 time=100
note_on channel=0 note=75 velocity=0 time=49
note_on channel=0 note=82 velocity=0 time=71
note_on channel=0 note=88 velocity=35 time=45
note_on channel=0 note=89 velocity=42 time=14
note_on channel=0 note=88 velocity=0 time=76
note_on channel=0 note=89 velocity=0 time=6
note_on channel=0 note=75 velocity=64 time=9
note_on channel=0 note=86 velocity=37 time=19
note_on channel=0 note=75 velocity=0 time=70
note_on channel=0 note=86 velocity=0 time=66
note_on channel=0 note=78 velocity=49 time=9
note_on channel=0 note=90 velocity=49 time=8
note_on channel=0 note=78 velocity=0 time=48
note_on channel=0 note=76 velocity=58 time=13
note_on channel=0 note=90 velocity=0 time=59
note_on channel=0 note=76 velocity=0 time=63
note_on channel=0 note=75 velocity=64 time=17
note_on channel=0 note=75 velocity=0 time=95
note_on channel=0 note=77 velocity=60 time=50
note_on channel=0 note=69 velocity=15 time=3
note_on channel=0 note=79 velocity=57 time=13
note_on channel=0 note=69 velocity=0 time=68
note_on channel=0 note=77 velocity=0 time=6
note_on channel=0 note=79 velocity=0 time=24
note_on channel=0 note=75 velocity=64 time=6
note_on channel=0 note=74 velocity=46 time=6
note_on channel=0 note=75 velocity=0 time=102
note_on channel=0 note=71 velocity=43 time=9
note_on channel=0 note=72 velocity=20 time=2
note_on channel=0 note=78 velocity=49 time=14
note_on channel=0 note=78 velocity=0 time=48
note_on channel=0 note=76 velocity=31 time=70
note_on channel=0 note=73 velocity=44 time=13
note_on channel=0 note=74 velocity=0 time=17
note_on channel=0 note=72 velocity=0 time=34
note_on channel=0 note=73 velocity=0 time=0
note_on channel=0 note=71 velocity=0 time=18
note_on channel=0 note=75 velocity=63 time=45
note_on channel=0 note=73 velocity=46 time=13
note_on channel=0 note=74 velocity=47 time=58
note_on channel=0 note=68 velocity=37 time=2
note_on channel=0 note=79 velocity=52 time=33
note_on channel=0 note=75 velocity=0 time=32
note_on channel=0 note=73 velocity=0 time=6
note_on channel=0 note=66 velocity=52 time=22
note_on channel=0 note=79 velocity=0 time=30
note_on channel=0 note=74 velocity=0 time=2
note_on channel=0 note=77 velocity=48 time=6
note_on channel=0 note=68 velocity=0 time=26
note_on channel=0 note=66 velocity=0 time=21
note_on channel=0 note=77 velocity=0 time=13
note_on channel=0 note=60 velocity=44 time=12
note_on channel=0 note=65 velocity=39 time=7
note_on channel=0 note=76 velocity=0 time=14
note_on channel=0 note=69 velocity=53 time=23
note_on channel=0 note=65 velocity=0 time=25
note_on channel=0 note=60 velocity=0 time=27
note_on channel=0 note=67 velocity=46 time=53
note_on channel=0 note=69 velocity=0 time=39
note_on channel=0 note=53 velocity=72 time=10
note_on channel=0 note=67 velocity=0 time=19
note_on channel=0 note=65 velocity=26 time=18
note_on channel=0 note=65 velocity=0 time=66
note_on channel=0 note=53 velocity=0 time=17
note_on channel=0 note=42 velocity=48 time=13
note_on channel=0 note=41 velocity=56 time=5
note_on channel=0 note=58 velocity=46 time=156
note_on channel=0 note=55 velocity=42 time=6
note_on channel=0 note=42 velocity=0 time=10
note_on channel=0 note=53 velocity=34 time=8
note_on channel=0 note=41 velocity=0 time=10
note_on channel=0 note=54 velocity=53 time=8
note_on channel=0 note=53 velocity=0 time=29
note_on channel=0 note=58 velocity=0 time=3
note_on channel=0 note=51 velocity=57 time=16
note_on channel=0 note=54 velocity=0 time=2
note_on channel=0 note=41 velocity=52 time=5
note_on channel=0 note=55 velocity=0 time=0
note_on channel=0 note=30 velocity=45 time=81
note_on channel=0 note=51 velocity=0 time=4
note_on channel=0 note=56 velocity=64 time=15
note_on channel=0 note=41 velocity=0 time=24
note_on channel=0 note=30 velocity=0 time=4
note_on channel=0 note=54 velocity=49 time=22
note_on channel=0 note=31 velocity=43 time=10
note_on channel=0 note=28 velocity=39 time=10
note_on channel=0 note=54 velocity=0 time=42
note_on channel=0 note=31 velocity=0 time=10
note_on channel=0 note=28 velocity=0 time=9
note_on channel=0 note=35 velocity=76 time=19
note_on channel=0 note=56 velocity=0 time=2
note_on channel=0 note=23 velocity=90 time=92
note_on channel=0 note=35 velocity=0 time=2
note_on channel=0 note=23 velocity=0 time=116
note_on channel=0 note=83 velocity=54 time=36
note_on channel=0 note=83 velocity=0 time=47
note_on channel=0 note=70 velocity=63 time=25
note_on channel=0 note=70 velocity=0 time=99
note_on channel=0 note=56 velocity=37 time=101
note_on channel=0 note=62 velocity=61 time=10
note_on channel=0 note=62 velocity=0 time=60
note_on channel=0 note=56 velocity=0 time=97
note_on channel=0 note=64 velocity=35 time=145
note_on channel=0 note=68 velocity=58 time=20
note_on channel=0 note=64 velocity=0 time=62
note_on channel=0 note=60 velocity=51 time=70
note_on channel=0 note=68 velocity=0 time=8
note_on channel=0 note=52 velocity=31 time=5
note_on channel=0 note=51 velocity=36 time=8
note_on channel=0 note=70 velocity=40 time=66
note_on channel=0 note=60 velocity=0 time=67
note_on channel=0 note=52 velocity=0 time=1
note_on channel=0 note=54 velocity=59 time=10
note_on channel=0 note=58 velocity=40 time=1
note_on channel=0 note=70 velocity=0 time=2
note_on channel=0 note=51 velocity=0 time=3
note_on channel=0 note=68 velocity=47 time=5
note_on channel=0 note=58 velocity=0 time=44
note_on channel=0 note=68 velocity=0 time=6
note_on channel=0 note=64 velocity=49 time=43
note_on channel=0 note=54 velocity=0 time=10
note_on channel=0 note=57 velocity=60 time=55
note_on channel=0 note=64 velocity=0 time=2
note_on channel=0 note=59 velocity=61 time=18
note_on channel=0 note=57 velocity=0 time=51
note_on channel=0 note=59 velocity=0 time=51
note_on channel=0 note=61 velocity=50 time=20
note_on channel=0 note=53 velocity=61 time=73
note_on channel=0 note=55 velocity=63 time=6
note_on channel=0 note=61 velocity=0 time=31
note_on channel=0 note=55 velocity=0 time=12
note_on channel=0 note=58 velocity=44 time=12
note_on channel=0 note=53 velocity=0 time=43
note_on channel=0 note=58 velocity=0 time=10
note_on channel=0 note=49 velocity=62 time=6
note_on channel=0 note=49 velocity=0 time=124
note_on channel=0 note=51 velocity=64 time=12
note_on channel=0 note=50 velocity=61 time=4
note_on channel=0 note=51 velocity=0 time=42
note_on channel=0 note=44 velocity=51 time=74
note_on channel=0 note=50 velocity=0 time=13
note_on channel=0 note=44 velocity=0 time=47
note_on channel=0 note=41 velocity=42 time=47
note_on channel=0 note=47 velocity=57 time=22
note_on channel=0 note=46 velocity=62 time=77
note_on channel=0 note=41 velocity=0 time=16
note_on channel=0 note=47 velocity=0 time=25
note_on channel=0 note=45 velocity=53 time=112
note_on channel=0 note=46 velocity=0 time=10
note_on channel=0 note=39 velocity=63 time=58
note_on channel=0 note=87 velocity=39 time=22
note_on channel=0 note=45 velocity=0 time=25
note_on channel=0 note=38 velocity=53 time=19
note_on channel=0 note=42 velocity=56 time=3
note_on channel=0 note=87 velocity=0 time=11
note_on channel=0 note=42 velocity=0 time=32
note_on channel=0 note=85 velocity=34 time=0
note_on channel=0 note=84 velocity=35 time=36
note_on channel=0 note=38 velocity=0 time=23
note_on channel=0 note=85 velocity=0 time=4
note_on channel=0 note=39 velocity=0 time=3
note_on channel=0 note=75 velocity=64 time=13
note_on channel=0 note=43 velocity=72 time=29
note_on channel=0 note=84 velocity=0 time=16
note_on channel=0 note=75 velocity=0 time=73
note_on channel=0 note=37 velocity=48 time=8
note_on channel=0 note=33 velocity=57 time=22
note_on channel=0 note=43 velocity=0 time=9
note_on channel=0 note=34 velocity=45 time=20
note_on channel=0 note=69 velocity=34 time=51
note_on channel=0 note=34 velocity=0 time=15
note_on channel=0 note=37 velocity=0 time=35
note_on channel=0 note=69 velocity=0 time=2
note_on channel=0 note=43 velocity=52 time=43
note_on channel=0 note=43 velocity=0 time=59
note_on channel=0 note=37 velocity=51 time=18
note_on channel=0 note=34 velocity=42 time=1
note_on channel=0 note=70 velocity=48 time=45
note_on channel=0 note=34 velocity=0 time=52
note_on channel=0 note=37 velocity=0 time=15
note_on channel=0 note=39 velocity=45 time=27
note_on channel=0 note=39 velocity=0 time=72
note_on channel=0 note=70 velocity=0 time=29
note_on channel=0 note=37 velocity=71 time=27
note_on channel=0 note=33 velocity=0 time=85
note_on channel=0 note=39 velocity=71 time=13
note_on channel=0 note=34 velocity=51 time=104
note_on channel=0 note=39 velocity=0 time=36
note_on channel=0 note=55 velocity=50 time=105
note_on channel=0 note=53 velocity=57 time=25
note_on channel=0 note=39 velocity=59 time=6
note_on channel=0 note=37 velocity=0 time=18
note_on channel=0 note=34 velocity=0 time=3
note_on channel=0 note=45 velocity=53 time=48
note_on channel=0 note=53 velocity=0 time=33
note_on channel=0 note=55 velocity=0 time=17
note_on channel=0 note=37 velocity=53 time=23
note_on channel=0 note=34 velocity=44 time=9
note_on channel=0 note=45 velocity=0 time=4
note_on channel=0 note=39 velocity=0 time=4
note_on channel=0 note=35 velocity=37 time=47
note_on channel=0 note=54 velocity=41 time=1
note_on channel=0 note=34 velocity=0 time=3
note_on channel=0 note=54 velocity=0 time=58
note_on channel=0 note=39 velocity=46 time=1
note_on channel=0 note=35 velocity=0 time=1
note_on channel=0 note=37 velocity=0 time=20
note_on channel=0 note=48 velocity=42 time=24
note_on channel=0 note=45 velocity=38 time=24
note_on channel=0 note=40 velocity=44 time=7
note_on channel=0 note=43 velocity=43 time=4
note_on channel=0 note=44 velocity=47 time=5
note_on channel=0 note=48 velocity=0 time=22
note_on channel=0 note=39 velocity=0 time=4
note_on channel=0 note=38 velocity=40 time=5
note_on channel=0 note=44 velocity=0 time=15
note_on channel=0 note=45 velocity=0 time=1
note_on channel=0 note=35 velocity=48 time=32
note_on channel=0 note=40 velocity=0 time=15
note_on channel=0 note=49 velocity=44 time=17
note_on channel=0 note=38 velocity=0 time=1
note_on channel=0 note=46 velocity=55 time=10
note_on channel=0 note=31 velocity=45 time=2
note_on channel=0 note=35 velocity=0 time=2
note_on channel=0 note=29 velocity=43 time=2
note_on channel=0 note=43 velocity=0 time=15
note_on channel=0 note=49 velocity=0 time=27
note_on channel=0 note=31 velocity=0 time=18
note_on channel=0 note=43 velocity=49 time=34
note_on channel=0 note=29 velocity=0 time=7
note_on channel=0 note=35 velocity=59 time=12
note_on channel=0 note=46 velocity=0 time=4
note_on channel=0 note=33 velocity=45 time=1
note_on channel=0 note=40 velocity=61 time=21
note_on channel=0 note=43 velocity=0 time=112
note_on channel=0 note=40 velocity=0 time=10
note_on channel=0 note=24 velocity=83 time=28
note_on channel=0 note=25 velocity=47 time=5
note_on channel=0 note=35 velocity=0 time=10
note_on channel=0 note=23 velocity=64 time=12
note_on channel=0 note=33 velocity=0 time=4
note_on channel=0 note=25 velocity=0 time=20
note_on channel=0 note=24 velocity=0 time=48
note_on channel=0 note=23 velocity=0 time=86
note_on channel=0 note=74 velocity=75 time=28
note_on channel=0 note=75 velocity=64 time=15
note_on channel=0 note=75 velocity=0 time=44
note_on channel=0 note=73 velocity=41 time=78
note_on channel=0 note=38 velocity=57 time=14
note_on channel=0 note=64 velocity=44 time=17
note_on channel=0 note=73 velocity=0 time=40
note_on channel=0 note=48 velocity=60 time=4
note_on channel=0 note=74 velocity=0 time=15
note_on channel=0 note=64 velocity=0 time=29
note_on channel=0 note=74 velocity=32 time=32
note_on channel=0 note=48 velocity=0 time=52
note_on channel=0 note=44 velocity=56 time=54
note_on channel=0 note=42 velocity=48 time=29
note_on channel=0 note=38 velocity=0 time=32
note_on channel=0 note=70 velocity=37 time=15
note_on channel=0 note=42 velocity=0 time=5
note_on channel=0 note=50 velocity=65 time=12
note_on channel=0 note=74 velocity=0 time=5
note_on channel=0 note=44 velocity=0 time=23
note_on channel=0 note=70 velocity=0 time=29
note_on channel=0 note=52 velocity=48 time=17
note_on channel=0 note=64 velocity=44 time=4
note_on channel=0 note=50 velocity=0 time=54
note_on channel=0 note=52 velocity=0 time=9
note_on channel=0 note=49 velocity=48 time=5
note_on channel=0 note=54 velocity=46 time=9
note_on channel=0 note=64 velocity=0 time=23
note_on channel=0 note=68 velocity=44 time=9
note_on channel=0 note=70 velocity=38 time=23
note_on channel=0 note=56 velocity=25 time=16
note_on channel=0 note=49 velocity=0 time=2
note_on channel=0 note=68 velocity=0 time=35
note_on channel=0 note=54 velocity=0 time=9
note_on channel=0 note=56 velocity=0 time=50
note_on channel=0 note=64 velocity=31 time=0
note_on channel=0 note=54 velocity=43 time=45
note_on channel=0 note=73 velocity=58 time=1
note_on channel=0 note=70 velocity=0 time=14
note_on channel=0 note=64 velocity=0 time=36
note_on channel=0 note=54 velocity=0 time=21
note_on channel=0 note=62 velocity=55 time=63
note_on channel=0 note=73 velocity=0 time=18
note_on channel=0 note=72 velocity=44 time=55
note_on channel=0 note=72 velocity=0 time=66
note_on channel=0 note=88 velocity=59 time=62
note_on channel=0 note=88 velocity=0 time=62
note_on channel=0 note=90 velocity=66 time=28
note_on channel=0 note=62 velocity=0 time=78
note_on channel=0 note=90 velocity=0 time=11
note_on channel=0 note=65 velocity=37 time=2
note_on channel=0 note=65 velocity=0 time=59
note_on channel=0 note=61 velocity=53 time=21
note_on channel=0 note=96 velocity=48 time=19
note_on channel=0 note=94 velocity=40 time=18
note_on channel=0 note=61 velocity=0 time=9
note_on channel=0 note=92 velocity=57 time=45
note_on channel=0 note=96 velocity=0 time=1
note_on channel=0 note=94 velocity=0 time=33
note_on channel=0 note=84 velocity=60 time=43
note_on channel=0 note=92 velocity=0 time=3
note_on channel=0 note=71 velocity=50 time=25
note_on channel=0 note=84 velocity=0 time=98
note_on channel=0 note=70 velocity=53 time=35
note_on channel=0 note=70 velocity=0 time=67
note_on channel=0 note=78 velocity=43 time=18
note_on channel=0 note=71 velocity=0 time=16
note_on channel=0 note=80 velocity=53 time=36
note_on channel=0 note=78 velocity=0 time=8
note_on channel=0 note=78 velocity=43 time=88
note_on channel=0 note=72 velocity=49 time=1
note_on channel=0 note=70 velocity=60 time=5
note_on channel=0 note=80 velocity=0 time=18
note_on channel=0 note=72 velocity=0 time=33
note_on channel=0 note=68 velocity=51 time=83
note_on channel=0 note=78 velocity=0 time=38
note_on channel=0 note=68 velocity=0 time=9
note_on channel=0 note=80 velocity=48 time=5
note_on channel=0 note=69 velocity=56 time=24
note_on channel=0 note=70 velocity=0 time=23
note_on channel=0 note=80 velocity=0 time=23
note_on channel=0 note=68 velocity=45 time=35
note_on channel=0 note=78 velocity=40 time=19
note_on channel=0 note=69 velocity=0 time=17
note_on channel=0 note=70 velocity=52 time=9
note_on channel=0 note=75 velocity=39 time=25
note_on channel=0 note=78 velocity=0 time=12
note_on channel=0 note=68 velocity=0 time=16
note_on channel=0 note=75 velocity=0 time=65
note_on channel=0 note=68 velocity=56 time=14
note_on channel=0 note=70 velocity=0 time=35
note_on channel=0 note=70 velocity=56 time=76
note_on channel=0 note=68 velocity=0 time=50
note_on channel=0 note=66 velocity=36 time=22
note_on channel=0 note=70 velocity=0 time=67
note_on channel=0 note=75 velocity=49 time=33
note_on channel=0 note=66 velocity=0 time=27
note_on channel=0 note=68 velocity=57 time=21
note_on channel=0 note=65 velocity=46 time=54
note_on channel=0 note=75 velocity=0 time=71
note_on channel=0 note=68 velocity=0 time=18
note_on channel=0 note=65 velocity=0 time=61
note_on channel=0 note=78 velocity=34 time=27
note_on channel=0 note=66 velocity=66 time=45
note_on channel=0 note=75 velocity=49 time=15
note_on channel=0 note=78 velocity=0 time=22
note_on channel=0 note=75 velocity=0 time=55
note_on channel=0 note=66 velocity=0 time=63
note_on channel=0 note=65 velocity=50 time=4
note_on channel=0 note=71 velocity=39 time=9
note_on channel=0 note=78 velocity=56 time=33
note_on channel=0 note=71 velocity=0 time=23
note_on channel=0 note=65 velocity=0 time=65
note_on channel=0 note=61 velocity=43 time=27
note_on channel=0 note=57 velocity=49 time=39
note_on channel=0 note=70 velocity=58 time=17
note_on channel=0 note=61 velocity=0 time=9
note_on channel=0 note=80 velocity=44 time=10
note_on channel=0 note=78 velocity=0 time=23
note_on channel=0 note=70 velocity=0 time=19
note_on channel=0 note=80 velocity=0 time=29
note_on channel=0 note=61 velocity=55 time=89
note_on channel=0 note=63 velocity=61 time=49
note_on channel=0 note=57 velocity=0 time=38
note_on channel=0 note=61 velocity=0 time=38
note_on channel=0 note=71 velocity=48 time=41
note_on channel=0 note=63 velocity=0 time=28
note_on channel=0 note=71 velocity=0 time=30
note_on channel=0 note=63 velocity=72 time=24
note_on channel=0 note=63 velocity=0 time=96
note_on channel=0 note=80 velocity=58 time=39
note_on channel=0 note=64 velocity=57 time=157
note_on channel=0 note=80 velocity=0 time=11
note_on channel=0 note=69 velocity=35 time=23
note_on channel=0 note=69 velocity=0 time=72
note_on channel=0 note=64 velocity=0 time=20
note_on channel=0 note=61 velocity=55 time=2
note_on channel=0 note=61 velocity=0 time=95
note_on channel=0 note=73 velocity=57 time=5
note_on channel=0 note=75 velocity=52 time=58
note_on channel=0 note=73 velocity=0 time=51
note_on channel=0 note=78 velocity=45 time=12
note_on channel=0 note=75 velocity=0 time=30
note_on channel=0 note=68 velocity=68 time=10
note_on channel=0 note=78 velocity=0 time=13
note_on channel=0 note=68 velocity=0 time=82
note_on channel=0 note=74 velocity=37 time=70
note_on channel=0 note=76 velocity=41 time=8
note_on channel=0 note=74 velocity=0 time=87
note_on channel=0 note=64 velocity=47 time=9
note_on channel=0 note=78 velocity=51 time=113
note_on channel=0 note=76 velocity=0 time=40
note_on channel=0 note=68 velocity=57 time=28
note_on channel=0 note=78 velocity=0 time=17
note_on channel=0 note=77 velocity=56 time=81
note_on channel=0 note=89 velocity=65 time=15
note_on channel=0 note=68 velocity=0 time=32
note_on channel=0 note=77 velocity=0 time=1
note_on channel=0 note=68 velocity=63 time=65
note_on channel=0 note=71 velocity=66 time=8
note_on channel=0 note=64 velocity=0 time=67
note_on channel=0 note=89 velocity=0 time=16
note_on channel=0 note=79 velocity=66 time=15
note_on channel=0 note=68 velocity=0 time=42
note_on channel=0 note=71 velocity=0 time=0
note_on channel=0 note=76 velocity=58 time=52
note_on channel=0 note=79 velocity=0 time=8
note_on channel=0 note=72 velocity=58 time=19
note_on channel=0 note=66 velocity=39 time=26
note_on channel=0 note=77 velocity=42 time=44
note_on channel=0 note=76 velocity=0 time=2
note_on channel=0 note=66 velocity=0 time=19
note_on channel=0 note=72 velocity=0 time=1
note_on channel=0 note=79 velocity=37 time=27
note_on channel=0 note=77 velocity=0 time=25
note_on channel=0 note=79 velocity=0 time=48
note_on channel=0 note=70 velocity=45 time=56
note_on channel=0 note=66 velocity=47 time=14
note_on channel=0 note=73 velocity=37 time=8
note_on channel=0 note=74 velocity=34 time=11
note_on channel=0 note=65 velocity=57 time=14
note_on channel=0 note=91 velocity=65 time=51
note_on channel=0 note=74 velocity=0 time=53
note_on channel=0 note=70 velocity=0 time=52
note_on channel=0 note=91 velocity=0 time=5
note_on channel=0 note=73 velocity=0 time=24
note_on channel=0 note=79 velocity=60 time=3
note_on channel=0 note=81 velocity=53 time=9
note_on channel=0 note=66 velocity=0 time=4
note_on channel=0 note=65 velocity=0 time=15
note_on channel=0 note=81 velocity=0 time=33
note_on channel=0 note=73 velocity=38 time=31
note_on channel=0 note=79 velocity=0 time=4
note_on channel=0 note=76 velocity=61 time=11
note_on channel=0 note=65 velocity=42 time=5
note_on channel=0 note=66 velocity=35 time=12
note_on channel=0 note=69 velocity=48 time=65
note_on channel=0 note=76 velocity=0 time=20
note_on channel=0 note=69 velocity=0 time=92
note_on channel=0 note=66 velocity=0 time=35
note_on channel=0 note=73 velocity=0 time=5
note_on channel=0 note=86 velocity=65 time=0
note_on channel=0 note=65 velocity=0 time=21
note_on channel=0 note=72 velocity=72 time=38
note_on channel=0 note=66 velocity=48 time=22
note_on channel=0 note=65 velocity=49 time=1
note_on channel=0 note=69 velocity=47 time=30
note_on channel=0 note=86 velocity=0 time=7
note_on channel=0 note=77 velocity=65 time=13
note_on channel=0 note=72 velocity=0 time=15
note_on channel=0 note=66 velocity=0 time=4
note_on channel=0 note=65 velocity=0 time=12
note_on channel=0 note=69 velocity=0 time=6
note_on channel=0 note=72 velocity=60 time=66
note_on channel=0 note=77 velocity=0 time=11
note_on channel=0 note=74 velocity=57 time=79
note_on channel=0 note=72 velocity=0 time=12
note_on channel=0 note=74 velocity=0 time=91
note_on channel=0 note=81 velocity=43 time=12
note_on channel=0 note=79 velocity=43 time=1
note_on channel=0 note=79 velocity=0 time=66
note_on channel=0 note=81 velocity=0 time=0
note_on channel=0 note=62 velocity=63 time=31
note_on channel=0 note=55 velocity=57 time=2
note_on channel=0 note=65 velocity=65 time=6
note_on channel=0 note=59 velocity=58 time=5
note_on channel=0 note=57 velocity=33 time=44
note_on channel=0 note=65 velocity=0 time=10
note_on channel=0 note=57 velocity=0 time=37
note_on channel=0 note=55 velocity=0 time=56
note_on channel=0 note=69 velocity=61 time=5
note_on channel=0 note=62 velocity=0 time=2
note_on channel=0 note=59 velocity=0 time=4
note_on channel=0 note=55 velocity=48 time=74
note_on channel=0 note=62 velocity=53 time=0
note_on channel=0 note=59 velocity=56 time=1
note_on channel=0 note=65 velocity=58 time=12
note_on channel=0 note=67 velocity=57 time=8
note_on channel=0 note=69 velocity=0 time=5
note_on channel=0 note=67 velocity=0 time=39
note_on channel=0 note=65 velocity=0 time=25
note_on channel=0 note=71 velocity=32 time=7
note_on channel=0 note=72 velocity=34 time=10
note_on channel=0 note=62 velocity=0 time=35
note_on channel=0 note=55 velocity=0 time=7
note_on channel=0 note=76 velocity=54 time=4
note_on channel=0 note=59 velocity=0 time=22
note_on channel=0 note=71 velocity=0 time=3
note_on channel=0 note=81 velocity=65 time=26
note_on channel=0 note=76 velocity=0 time=3
note_on channel=0 note=72 velocity=0 time=2
note_on channel=0 note=62 velocity=39 time=37
note_on channel=0 note=55 velocity=53 time=1
note_on channel=0 note=65 velocity=56 time=3
note_on channel=0 note=67 velocity=56 time=5
note_on channel=0 note=59 velocity=51 time=3
note_on channel=0 note=81 velocity=0 time=0
note_on channel=0 note=67 velocity=0 time=41
note_on channel=0 note=55 velocity=0 time=34
note_on channel=0 note=65 velocity=0 time=3
note_on channel=0 note=59 velocity=0 time=23
note_on channel=0 note=62 velocity=0 time=21
note_on channel=0 note=89 velocity=39 time=35
note_on channel=0 note=79 velocity=61 time=7
note_on channel=0 note=67 velocity=61 time=41
note_on channel=0 note=89 velocity=0 time=10
note_on channel=0 note=62 velocity=44 time=10
note_on channel=0 note=55 velocity=49 time=4
note_on channel=0 note=59 velocity=38 time=17
note_on channel=0 note=57 velocity=47 time=5
note_on channel=0 note=79 velocity=0 time=18
note_on channel=0 note=67 velocity=0 time=22
note_on channel=0 note=59 velocity=0 time=27
note_on channel=0 note=55 velocity=0 time=8
note_on channel=0 note=57 velocity=0 time=5
note_on channel=0 note=62 velocity=0 time=4
note_on channel=0 note=72 velocity=57 time=1
note_on channel=0 note=74 velocity=51 time=74
note_on channel=0 note=79 velocity=66 time=69
note_on channel=0 note=72 velocity=0 time=13
note_on channel=0 note=74 velocity=0 time=9
note_on channel=0 note=69 velocity=57 time=123
note_on channel=0 note=67 velocity=72 time=3
note_on channel=0 note=79 velocity=0 time=7
note_on channel=0 note=67 velocity=0 time=98
note_on channel=0 note=71 velocity=58 time=10
note_on channel=0 note=69 velocity=0 time=7
note_on channel=0 note=72 velocity=54 time=23
note_on channel=0 note=71 velocity=0 time=23
note_on channel=0 note=74 velocity=53 time=0
note_on channel=0 note=67 velocity=50 time=101
note_on channel=0 note=79 velocity=66 time=57
note_on channel=0 note=67 velocity=0 time=1
note_on channel=0 note=47 velocity=57 time=20
note_on channel=0 note=72 velocity=0 time=3
note_on channel=0 note=74 velocity=0 time=0
note_on channel=0 note=55 velocity=57 time=1
note_on channel=0 note=50 velocity=61 time=4
note_on channel=0 note=43 velocity=61 time=5
note_on channel=0 note=79 velocity=0 time=61
note_on channel=0 note=69 velocity=78 time=25
note_on channel=0 note=55 velocity=0 time=3
note_on channel=0 note=43 velocity=0 time=16
note_on channel=0 note=50 velocity=0 time=32
note_on channel=0 note=47 velocity=0 time=8
note_on channel=0 note=69 velocity=0 time=38
note_on channel=0 note=62 velocity=66 time=19
note_on channel=0 note=62 velocity=0 time=59
note_on channel=0 note=64 velocity=61 time=7
note_on channel=0 note=69 velocity=57 time=83
note_on channel=0 note=64 velocity=0 time=23
note_on channel=0 note=69 velocity=0 time=49
note_on channel=0 note=52 velocity=75 time=4
note_on channel=0 note=47 velocity=53 time=18
note_on channel=0 note=50 velocity=57 time=2
note_on channel=0 note=43 velocity=60 time=1
note_on channel=0 note=45 velocity=43 time=25
note_on channel=0 note=43 velocity=0 time=72
note_on channel=0 note=52 velocity=0 time=0
note_on channel=0 note=65 velocity=69 time=9
note_on channel=0 note=45 velocity=0 time=6
note_on channel=0 note=50 velocity=0 time=5
note_on channel=0 note=47 velocity=0 time=2
note_on channel=0 note=62 velocity=63 time=109
note_on channel=0 note=65 velocity=0 time=35
note_on channel=0 note=64 velocity=48 time=6
note_on channel=0 note=62 velocity=0 time=93
note_on channel=0 note=69 velocity=57 time=47
note_on channel=0 note=48 velocity=56 time=15
note_on channel=0 note=64 velocity=0 time=1
note_on channel=0 note=57 velocity=72 time=7
note_on channel=0 note=52 velocity=47 time=6
note_on channel=0 note=55 velocity=69 time=6
note_on channel=0 note=50 velocity=47 time=26
note_on channel=0 note=69 velocity=0 time=38
note_on channel=0 note=57 velocity=0 time=36
note_on channel=0 note=50 velocity=0 time=2
note_on channel=0 note=62 velocity=63 time=23
note_on channel=0 note=55 velocity=0 time=14
note_on channel=0 note=48 velocity=0 time=3
note_on channel=0 note=52 velocity=0 time=6
note_on channel=0 note=64 velocity=52 time=0
note_on channel=0 note=65 velocity=57 time=27
note_on channel=0 note=64 velocity=0 time=28
note_on channel=0 note=48 velocity=51 time=15
note_on channel=0 note=62 velocity=0 time=25
note_on channel=0 note=52 velocity=32 time=7
note_on channel=0 note=59 velocity=50 time=9
note_on channel=0 note=55 velocity=35 time=10
note_on channel=0 note=65 velocity=0 time=13
note_on channel=0 note=50 velocity=43 time=18
note_on channel=0 note=69 velocity=48 time=37
note_on channel=0 note=50 velocity=0 time=31
note_on channel=0 note=59 velocity=0 time=1
note_on channel=0 note=48 velocity=0 time=21
note_on channel=0 note=77 velocity=72 time=14
note_on channel=0 note=69 velocity=0 time=7
note_on channel=0 note=55 velocity=0 time=7
note_on channel=0 note=79 velocity=51 time=48
note_on channel=0 note=48 velocity=57 time=1
note_on channel=0 note=60 velocity=60 time=25
note_on channel=0 note=50 velocity=47 time=4
note_on channel=0 note=55 velocity=55 time=0
note_on channel=0 note=77 velocity=0 time=16
note_on channel=0 note=79 velocity=0 time=77
note_on channel=0 note=81 velocity=42 time=24
note_on channel=0 note=50 velocity=0 time=1
note_on channel=0 note=60 velocity=0 time=0
note_on channel=0 note=55 velocity=0 time=10
note_on channel=0 note=48 velocity=0 time=31
note_on channel=0 note=81 velocity=0 time=9
note_on channel=0 note=91 velocity=59 time=47
note_on channel=0 note=60 velocity=57 time=1
note_on channel=0 note=55 velocity=47 time=8
note_on channel=0 note=48 velocity=55 time=3
note_on channel=0 note=50 velocity=39 time=22
note_on channel=0 note=93 velocity=58 time=36
note_on channel=0 note=91 velocity=0 time=5
note_on channel=0 note=60 velocity=0 time=33
note_on channel=0 note=50 velocity=0 time=3
note_on channel=0 note=55 velocity=0 time=51
note_on channel=0 note=48 velocity=0 time=2
note_on channel=0 note=93 velocity=0 time=62
note_on channel=0 note=101 velocity=57 time=20
note_on channel=0 note=103 velocity=70 time=12
note_on channel=0 note=102 velocity=75 time=85
note_on channel=0 note=52 velocity=0 time=12
note_on channel=0 note=101 velocity=0 time=25
note_on channel=0 note=103 velocity=0 time=15
note_on channel=0 note=101 velocity=50 time=58
note_on channel=0 note=103 velocity=35 time=9
note_on channel=0 note=107 velocity=81 time=22
note_on channel=0 note=52 velocity=39 time=12
note_on channel=0 note=64 velocity=72 time=3
note_on channel=0 note=104 velocity=55 time=2
note_on channel=0 note=101 velocity=0 time=1
note_on channel=0 note=108 velocity=58 time=0
note_on channel=0 note=55 velocity=52 time=3
note_on channel=0 note=48 velocity=65 time=3
note_on channel=0 note=103 velocity=0 time=6
note_on channel=0 note=62 velocity=60 time=1
note_on channel=0 note=50 velocity=63 time=9
note_on channel=0 note=102 velocity=0 time=7
note_on channel=0 note=104 velocity=0 time=12
note_on channel=0 note=56 velocity=44 time=2
note_on channel=0 note=108 velocity=0 time=4
note_on channel=0 note=62 velocity=0 time=11
note_on channel=0 note=107 velocity=0 time=21
note_on channel=0 note=56 velocity=0 time=24
note_on channel=0 note=64 velocity=0 time=1
note_on channel=0 note=50 velocity=0 time=6
note_on channel=0 note=48 velocity=0 time=27
note_on channel=0 note=55 velocity=0 time=10
note_on channel=0 note=52 velocity=0 time=10
note_on channel=0 note=77 velocity=75 time=82
note_on channel=0 note=51 velocity=47 time=16
note_on channel=0 note=79 velocity=44 time=57
note_on channel=0 note=77 velocity=0 time=23
note_on channel=0 note=51 velocity=0 time=24
note_on channel=0 note=79 velocity=0 time=54
note_on channel=0 note=84 velocity=60 time=2
note_on channel=0 note=83 velocity=60 time=62
note_on channel=0 note=80 velocity=64 time=35
note_on channel=0 note=83 velocity=0 time=41
note_on channel=0 note=84 velocity=0 time=7
note_on channel=0 note=71 velocity=65 time=80
note_on channel=0 note=80 velocity=0 time=4
note_on channel=0 note=77 velocity=35 time=1
note_on channel=0 note=72 velocity=63 time=2
note_on channel=0 note=77 velocity=0 time=43
note_on channel=0 note=72 velocity=0 time=3
note_on channel=0 note=71 velocity=0 time=29
note_on channel=0 note=69 velocity=57 time=33
note_on channel=0 note=48 velocity=29 time=7
note_on channel=0 note=55 velocity=63 time=15
note_on channel=0 note=59 velocity=66 time=3
note_on channel=0 note=67 velocity=63 time=2
note_on channel=0 note=52 velocity=61 time=2
note_on channel=0 note=67 velocity=0 time=40
note_on channel=0 note=59 velocity=0 time=43
note_on channel=0 note=69 velocity=0 time=11
note_on channel=0 note=74 velocity=48 time=20
note_on channel=0 note=72 velocity=58 time=6
note_on channel=0 note=55 velocity=0 time=11
note_on channel=0 note=52 velocity=0 time=13
note_on channel=0 note=71 velocity=57 time=24
note_on channel=0 note=69 velocity=44 time=13
note_on channel=0 note=64 velocity=55 time=5
note_on channel=0 note=71 velocity=0 time=31
note_on channel=0 note=55 velocity=50 time=3
note_on channel=0 note=72 velocity=0 time=4
note_on channel=0 note=57 velocity=66 time=1
note_on channel=0 note=64 velocity=0 time=7
note_on channel=0 note=52 velocity=36 time=11
note_on channel=0 note=74 velocity=0 time=1
note_on channel=0 note=69 velocity=0 time=11
note_on channel=0 note=53 velocity=39 time=12
note_on channel=0 note=50 velocity=34 time=41
note_on channel=0 note=57 velocity=0 time=4
note_on channel=0 note=53 velocity=0 time=22
note_on channel=0 note=55 velocity=0 time=4
note_on channel=0 note=52 velocity=0 time=9
note_on channel=0 note=83 velocity=66 time=15
note_on channel=0 note=81 velocity=69 time=1
note_on channel=0 note=48 velocity=0 time=2
note_on channel=0 note=74 velocity=44 time=10
note_on channel=0 note=50 velocity=0 time=8
note_on channel=0 note=80 velocity=61 time=30
note_on channel=0 note=74 velocity=0 time=29
note_on channel=0 note=83 velocity=0 time=21
note_on channel=0 note=81 velocity=0 time=13
note_on channel=0 note=74 velocity=49 time=55
note_on channel=0 note=72 velocity=50 time=4
note_on channel=0 note=80 velocity=0 time=3
note_on channel=0 note=72 velocity=0 time=49
note_on channel=0 note=74 velocity=0 time=19
note_on channel=0 note=69 velocity=66 time=6
note_on channel=0 note=49 velocity=66 time=39
note_on channel=0 note=69 velocity=0 time=8
note_on channel=0 note=46 velocity=61 time=1
note_on channel=0 note=52 velocity=58 time=5
note_on channel=0 note=41 velocity=47 time=7
note_on channel=0 note=52 velocity=0 time=39
note_on channel=0 note=46 velocity=0 time=59
note_on channel=0 note=49 velocity=0 time=1
note_on channel=0 note=41 velocity=0 time=26
note_on channel=0 note=71 velocity=47 time=1
note_on channel=0 note=72 velocity=48 time=24
note_on channel=0 note=69 velocity=50 time=48
note_on channel=0 note=62 velocity=60 time=12
note_on channel=0 note=72 velocity=0 time=3
note_on channel=0 note=71 velocity=0 time=4
note_on channel=0 note=69 velocity=0 time=31
note_on channel=0 note=37 velocity=71 time=18
note_on channel=0 note=62 velocity=0 time=51
note_on channel=0 note=37 velocity=0 time=35
note_on channel=0 note=59 velocity=45 time=51
note_on channel=0 note=57 velocity=57 time=50
note_on channel=0 note=61 velocity=49 time=12
note_on channel=0 note=59 velocity=0 time=2
note_on channel=0 note=57 velocity=0 time=36
note_on channel=0 note=44 velocity=69 time=34
note_on channel=0 note=32 velocity=68 time=4
note_on channel=0 note=44 velocity=0 time=37
note_on channel=0 note=59 velocity=49 time=3
note_on channel=0 note=61 velocity=0 time=21
note_on channel=0 note=55 velocity=45 time=1
note_on channel=0 note=32 velocity=0 time=28
note_on channel=0 note=58 velocity=59 time=8
note_on channel=0 note=59 velocity=0 time=16
note_on channel=0 note=55 velocity=0 time=15
note_on channel=0 note=58 velocity=0 time=6
note_on channel=0 note=67 velocity=52 time=101
note_on channel=0 note=68 velocity=48 time=8
note_on channel=0 note=67 velocity=0 time=42
note_on channel=0 note=69 velocity=52 time=21
note_on channel=0 note=68 velocity=0 time=45
note_on channel=0 note=69 velocity=0 time=10
note_on channel=0 note=70 velocity=66 time=17
note_on channel=0 note=70 velocity=0 time=77
note_on channel=0 note=81 velocity=61 time=42
note_on channel=0 note=56 velocity=50 time=17
note_on channel=0 note=44 velocity=57 time=10
note_on channel=0 note=81 velocity=0 time=24
note_on channel=0 note=46 velocity=49 time=6
note_on channel=0 note=84 velocity=72 time=21
note_on channel=0 note=46 velocity=0 time=32
note_on channel=0 note=84 velocity=0 time=13
note_on channel=0 note=56 velocity=0 time=10
note_on channel=0 note=44 velocity=0 time=16
note_on channel=0 note=83 velocity=25 time=12
note_on channel=0 note=83 velocity=0 time=64
note_on channel=0 note=89 velocity=57 time=29
note_on channel=0 note=91 velocity=30 time=42
note_on channel=0 note=89 velocity=0 time=37
note_on channel=0 note=92 velocity=47 time=13
note_on channel=0 note=93 velocity=48 time=2
note_on channel=0 note=92 velocity=0 time=51
note_on channel=0 note=91 velocity=0 time=15
note_on channel=0 note=93 velocity=0 time=3
note_on channel=0 note=56 velocity=72 time=27
note_on channel=0 note=93 velocity=38 time=1
note_on channel=0 note=68 velocity=79 time=1
note_on channel=0 note=91 velocity=41 time=57
note_on channel=0 note=101 velocity=65 time=5
note_on channel=0 note=93 velocity=0 time=2
note_on channel=0 note=68 velocity=0 time=10
note_on channel=0 note=56 velocity=0 time=12
note_on channel=0 note=91 velocity=0 time=33
note_on channel=0 note=101 velocity=0 time=26
note_on channel=0 note=102 velocity=78 time=2
note_on channel=0 note=102 velocity=0 time=88
note_on channel=0 note=101 velocity=41 time=2
note_on channel=0 note=104 velocity=56 time=62
note_on channel=0 note=101 velocity=0 time=4
note_on channel=0 note=102 velocity=38 time=3
note_on channel=0 note=107 velocity=61 time=12
note_on channel=0 note=104 velocity=0 time=39
note_on channel=0 note=102 velocity=0 time=14
note_on channel=0 note=80 velocity=79 time=30
note_on channel=0 note=104 velocity=71 time=15
note_on channel=0 note=68 velocity=68 time=1
note_on channel=0 note=103 velocity=84 time=19
note_on channel=0 note=80 velocity=0 time=6
note_on channel=0 note=104 velocity=0 time=3
note_on channel=0 note=70 velocity=33 time=6
note_on channel=0 note=107 velocity=0 time=4
note_on channel=0 note=70 velocity=0 time=36
note_on channel=0 note=68 velocity=0 time=20
note_on channel=0 note=103 velocity=0 time=16
note_on channel=0 note=96 velocity=30 time=6
note_on channel=0 note=95 velocity=48 time=10
note_on channel=0 note=97 velocity=56 time=49
note_on channel=0 note=96 velocity=0 time=11
note_on channel=0 note=95 velocity=0 time=2
note_on channel=0 note=97 velocity=0 time=34
note_on channel=0 note=97 velocity=57 time=44
note_on channel=0 note=68 velocity=75 time=36
note_on channel=0 note=98 velocity=49 time=2
note_on channel=0 note=56 velocity=69 time=7
note_on channel=0 note=96 velocity=70 time=5
note_on channel=0 note=97 velocity=0 time=4
note_on channel=0 note=94 velocity=71 time=30
note_on channel=0 note=68 velocity=0 time=1
note_on channel=0 note=95 velocity=53 time=0
note_on channel=0 note=96 velocity=0 time=4
note_on channel=0 note=56 velocity=0 time=13
note_on channel=0 note=98 velocity=0 time=0
note_on channel=0 note=94 velocity=0 time=22
note_on channel=0 note=95 velocity=0 time=11
note_on channel=0 note=88 velocity=47 time=8
note_on channel=0 note=86 velocity=48 time=18
note_on channel=0 note=89 velocity=59 time=3
note_on channel=0 note=92 velocity=36 time=4
note_on channel=0 note=89 velocity=0 time=37
note_on channel=0 note=92 velocity=0 time=8
note_on channel=0 note=86 velocity=0 time=21
note_on channel=0 note=96 velocity=74 time=21
note_on channel=0 note=88 velocity=0 time=2
note_on channel=0 note=80 velocity=85 time=31
note_on channel=0 note=95 velocity=53 time=1
note_on channel=0 note=68 velocity=60 time=21
note_on channel=0 note=80 velocity=0 time=22
note_on channel=0 note=97 velocity=78 time=2
note_on channel=0 note=95 velocity=0 time=3
note_on channel=0 note=96 velocity=0 time=0
note_on channel=0 note=68 velocity=0 time=17
note_on channel=0 note=97 velocity=0 time=7
note_on channel=0 note=98 velocity=63 time=8
note_on channel=0 note=97 velocity=64 time=40
note_on channel=0 note=95 velocity=51 time=10
note_on channel=0 note=93 velocity=54 time=2
note_on channel=0 note=98 velocity=0 time=11
note_on channel=0 note=97 velocity=0 time=15
note_on channel=0 note=93 velocity=0 time=29
note_on channel=0 note=95 velocity=0 time=3
note_on channel=0 note=90 velocity=66 time=80
note_on channel=0 note=91 velocity=45 time=18
note_on channel=0 note=68 velocity=61 time=16
note_on channel=0 note=90 velocity=0 time=1
note_on channel=0 note=89 velocity=54 time=6
note_on channel=0 note=58 velocity=47 time=8
note_on channel=0 note=56 velocity=62 time=7
note_on channel=0 note=88 velocity=59 time=7
note_on channel=0 note=70 velocity=41 time=3
note_on channel=0 note=89 velocity=0 time=16
note_on channel=0 note=91 velocity=0 time=0
note_on channel=0 note=68 velocity=0 time=5
note_on channel=0 note=56 velocity=0 time=12
note_on channel=0 note=88 velocity=0 time=5
note_on channel=0 note=58 velocity=0 time=9
note_on channel=0 note=85 velocity=63 time=0
note_on channel=0 note=70 velocity=0 time=9
note_on channel=0 note=86 velocity=56 time=10
note_on channel=0 note=85 velocity=0 time=25
note_on channel=0 note=86 velocity=0 time=25
note_on channel=0 note=63 velocity=72 time=112
note_on channel=0 note=74 velocity=46 time=4
note_on channel=0 note=72 velocity=72 time=9
note_on channel=0 note=77 velocity=58 time=25
note_on channel=0 note=76 velocity=35 time=7
note_on channel=0 note=72 velocity=0 time=4
note_on channel=0 note=74 velocity=0 time=22
note_on channel=0 note=63 velocity=0 time=27
note_on channel=0 note=76 velocity=0 time=5
note_on channel=0 note=75 velocity=66 time=9
note_on channel=0 note=77 velocity=0 time=12
note_on channel=0 note=75 velocity=0 time=73
note_on channel=0 note=70 velocity=64 time=18
note_on channel=0 note=70 velocity=0 time=51
note_on channel=0 note=44 velocity=66 time=18
note_on channel=0 note=54 velocity=47 time=15
note_on channel=0 note=56 velocity=57 time=8
note_on channel=0 note=70 velocity=63 time=23
note_on channel=0 note=71 velocity=43 time=11
note_on channel=0 note=44 velocity=0 time=6
note_on channel=0 note=56 velocity=0 time=1
note_on channel=0 note=54 velocity=0 time=15
note_on channel=0 note=70 velocity=0 time=8
note_on channel=0 note=71 velocity=0 time=34
note_on channel=0 note=59 velocity=57 time=70
note_on channel=0 note=61 velocity=41 time=44
note_on channel=0 note=60 velocity=51 time=13
note_on channel=0 note=59 velocity=0 time=14
note_on channel=0 note=60 velocity=0 time=31
note_on channel=0 note=51 velocity=69 time=8
note_on channel=0 note=68 velocity=56 time=2
note_on channel=0 note=63 velocity=59 time=10
note_on channel=0 note=68 velocity=0 time=33
note_on channel=0 note=63 velocity=0 time=7
note_on channel=0 note=61 velocity=0 time=8
note_on channel=0 note=51 velocity=0 time=1
note_on channel=0 note=72 velocity=65 time=29
note_on channel=0 note=73 velocity=73 time=37
note_on channel=0 note=72 velocity=0 time=21
note_on channel=0 note=73 velocity=0 time=96
note_on channel=0 note=67 velocity=51 time=6
note_on channel=0 note=51 velocity=82 time=41
note_on channel=0 note=65 velocity=43 time=6
note_on channel=0 note=42 velocity=71 time=5
note_on channel=0 note=67 velocity=0 time=4
note_on channel=0 note=64 velocity=47 time=49
note_on channel=0 note=67 velocity=54 time=17
note_on channel=0 note=51 velocity=0 time=8
note_on channel=0 note=42 velocity=0 time=8
note_on channel=0 note=66 velocity=33 time=0
note_on channel=0 note=67 velocity=0 time=32
note_on channel=0 note=66 velocity=0 time=9
note_on channel=0 note=64 velocity=0 time=20
note_on channel=0 note=65 velocity=0 time=13
note_on channel=0 note=58 velocity=69 time=20
note_on channel=0 note=59 velocity=41 time=35
note_on channel=0 note=58 velocity=0 time=56
note_on channel=0 note=59 velocity=0 time=6
note_on channel=0 note=44 velocity=79 time=5
note_on channel=0 note=34 velocity=75 time=2
note_on channel=0 note=55 velocity=44 time=13
note_on channel=0 note=52 velocity=55 time=4
note_on channel=0 note=46 velocity=59 time=5
note_on channel=0 note=32 velocity=57 time=6
note_on channel=0 note=34 velocity=0 time=21
note_on channel=0 note=44 velocity=0 time=9
note_on channel=0 note=46 velocity=0 time=5
note_on channel=0 note=32 velocity=0 time=15
note_on channel=0 note=55 velocity=0 time=0
note_on channel=0 note=52 velocity=0 time=9
note_on channel=0 note=54 velocity=43 time=47
note_on channel=0 note=49 velocity=64 time=66
note_on channel=0 note=54 velocity=0 time=0
note_on channel=0 note=49 velocity=0 time=30
note_on channel=0 note=48 velocity=57 time=13
note_on channel=0 note=41 velocity=51 time=39
note_on channel=0 note=44 velocity=64 time=1
note_on channel=0 note=48 velocity=0 time=6
note_on channel=0 note=44 velocity=0 time=80
note_on channel=0 note=44 velocity=52 time=17
note_on channel=0 note=32 velocity=82 time=5
note_on channel=0 note=34 velocity=84 time=2
note_on channel=0 note=41 velocity=0 time=9
note_on channel=0 note=34 velocity=0 time=24
note_on channel=0 note=50 velocity=50 time=14
note_on channel=0 note=44 velocity=0 time=17
note_on channel=0 note=52 velocity=51 time=10
note_on channel=0 note=32 velocity=0 time=20
note_on channel=0 note=50 velocity=0 time=11
note_on channel=0 note=53 velocity=41 time=21
note_on channel=0 note=52 velocity=0 time=66
note_on channel=0 note=53 velocity=0 time=8
note_on channel=0 note=61 velocity=50 time=115
note_on channel=0 note=60 velocity=65 time=17
note_on channel=0 note=61 velocity=0 time=20
note_on channel=0 note=62 velocity=61 time=8
note_on channel=0 note=60 velocity=0 time=9
note_on channel=0 note=62 velocity=0 time=34
note_on channel=0 note=65 velocity=63 time=12
note_on channel=0 note=65 velocity=0 time=39
note_on channel=0 note=69 velocity=58 time=45
note_on channel=0 note=69 velocity=0 time=40
note_on channel=0 note=81 velocity=56 time=99
note_on channel=0 note=83 velocity=75 time=10
note_on channel=0 note=81 velocity=0 time=41
note_on channel=0 note=83 velocity=0 time=0
note_on channel=0 note=85 velocity=48 time=35
note_on channel=0 note=86 velocity=72 time=4
note_on channel=0 note=86 velocity=0 time=37
note_on channel=0 note=85 velocity=0 time=24
note_on channel=0 note=90 velocity=48 time=34
note_on channel=0 note=91 velocity=58 time=14
note_on channel=0 note=91 velocity=0 time=34
note_on channel=0 note=90 velocity=0 time=6
note_on channel=0 note=101 velocity=70 time=74
note_on channel=0 note=103 velocity=70 time=14
note_on channel=0 note=103 velocity=0 time=55
note_on channel=0 note=104 velocity=78 time=9
note_on channel=0 note=101 velocity=0 time=4
note_on channel=0 note=104 velocity=0 time=23
note_on channel=0 note=103 velocity=58 time=23
note_on channel=0 note=105 velocity=47 time=4
note_on channel=0 note=104 velocity=57 time=31
note_on channel=0 note=105 velocity=0 time=26
note_on channel=0 note=102 velocity=40 time=19
note_on channel=0 note=103 velocity=0 time=7
note_on channel=0 note=104 velocity=0 time=33
note_on channel=0 note=102 velocity=0 time=25
note_on channel=0 note=107 velocity=63 time=15
note_on channel=0 note=106 velocity=41 time=10
note_on channel=0 note=106 velocity=0 time=56
note_on channel=0 note=105 velocity=51 time=23
note_on channel=0 note=93 velocity=81 time=5
note_on channel=0 note=85 velocity=75 time=1
note_on channel=0 note=95 velocity=87 time=1
note_on channel=0 note=89 velocity=81 time=3
note_on channel=0 note=92 velocity=81 time=1
note_on channel=0 note=106 velocity=64 time=0
note_on channel=0 note=87 velocity=62 time=6
note_on channel=0 note=91 velocity=63 time=3
note_on channel=0 note=107 velocity=0 time=2
note_on channel=0 note=88 velocity=48 time=8
note_on channel=0 note=89 velocity=0 time=10
note_on channel=0 note=106 velocity=0 time=1
note_on channel=0 note=85 velocity=0 time=7
note_on channel=0 note=93 velocity=0 time=3
note_on channel=0 note=87 velocity=0 time=4
note_on channel=0 note=91 velocity=0 time=3
note_on channel=0 note=92 velocity=0 time=12
note_on channel=0 note=104 velocity=52 time=5
note_on channel=0 note=88 velocity=0 time=14
note_on channel=0 note=95 velocity=0 time=3
note_on channel=0 note=105 velocity=0 time=24
note_on channel=0 note=104 velocity=0 time=2
note_on channel=0 note=83 velocity=91 time=226
note_on channel=0 note=91 velocity=97 time=1
note_on channel=0 note=73 velocity=87 time=20
note_on channel=0 note=76 velocity=78 time=1
note_on channel=0 note=68 velocity=70 time=7
note_on channel=0 note=89 velocity=47 time=2
note_on channel=0 note=87 velocity=49 time=1
note_on channel=0 note=74 velocity=78 time=1
note_on channel=0 note=71 velocity=57 time=7
note_on channel=0 note=73 velocity=0 time=8
note_on channel=0 note=67 velocity=49 time=2
note_on channel=0 note=91 velocity=0 time=5
note_on channel=0 note=74 velocity=0 time=5
note_on channel=0 note=76 velocity=0 time=1
note_on channel=0 note=68 velocity=0 time=6
note_on channel=0 note=71 velocity=0 time=13
note_on channel=0 note=83 velocity=0 time=6
note_on channel=0 note=87 velocity=0 time=4
note_on channel=0 note=67 velocity=0 time=12
note_on channel=0 note=89 velocity=0 time=1
note_on channel=0 note=73 velocity=117 time=226
note_on channel=0 note=69 velocity=97 time=7
note_on channel=0 note=61 velocity=89 time=13
note_on channel=0 note=54 velocity=85 time=4
note_on channel=0 note=64 velocity=82 time=0
note_on channel=0 note=62 velocity=89 time=4
note_on channel=0 note=56 velocity=69 time=5
note_on channel=0 note=54 velocity=0 time=19
note_on channel=0 note=59 velocity=57 time=2
note_on channel=0 note=61 velocity=0 time=0
note_on channel=0 note=62 velocity=0 time=4
note_on channel=0 note=64 velocity=0 time=3
note_on channel=0 note=56 velocity=0 time=11
note_on channel=0 note=55 velocity=57 time=3
note_on channel=0 note=69 velocity=0 time=0
note_on channel=0 note=73 velocity=0 time=12
note_on channel=0 note=59 velocity=0 time=13
note_on channel=0 note=55 velocity=0 time=22
note_on channel=0 note=58 velocity=107 time=213
note_on channel=0 note=57 velocity=107 time=1
note_on channel=0 note=50 velocity=79 time=18
note_on channel=0 note=44 velocity=82 time=6
note_on channel=0 note=46 velocity=72 time=0
note_on channel=0 note=48 velocity=93 time=0
note_on channel=0 note=47 velocity=72 time=3
note_on channel=0 note=40 velocity=76 time=1
note_on channel=0 note=41 velocity=53 time=4
note_on channel=0 note=39 velocity=37 time=21
note_on channel=0 note=48 velocity=0 time=1
note_on channel=0 note=46 velocity=0 time=3
note_on channel=0 note=43 velocity=48 time=7
note_on channel=0 note=47 velocity=0 time=13
note_on channel=0 note=50 velocity=0 time=7
note_on channel=0 note=41 velocity=0 time=3
note_on channel=0 note=57 velocity=0 time=9
note_on channel=0 note=39 velocity=0 time=8
note_on channel=0 note=43 velocity=0 time=11
note_on channel=0 note=58 velocity=0 time=1
note_on channel=0 note=44 velocity=0 time=1
note_on channel=0 note=40 velocity=0 time=29
note_on channel=0 note=41 velocity=83 time=211
note_on channel=0 note=48 velocity=72 time=6
note_on channel=0 note=43 velocity=85 time=2
note_on channel=0 note=49 velocity=66 time=2
note_on channel=0 note=28 velocity=127 time=4
note_on channel=0 note=47 velocity=69 time=2
note_on channel=0 note=27 velocity=84 time=1
note_on channel=0 note=46 velocity=59 time=3
note_on channel=0 note=45 velocity=61 time=5
note_on channel=0 note=43 velocity=0 time=10
note_on channel=0 note=49 velocity=0 time=11
note_on channel=0 note=27 velocity=0 time=1
note_on channel=0 note=45 velocity=0 time=20
note_on channel=0 note=46 velocity=0 time=5
note_on channel=0 note=41 velocity=0 time=11
note_on channel=0 note=47 velocity=0 time=19
note_on channel=0 note=28 velocity=0 time=3
note_on channel=0 note=48 velocity=0 time=11
note_on channel=0 note=63 velocity=57 time=359
note_on channel=0 note=55 velocity=47 time=2
note_on channel=0 note=57 velocity=51 time=17
note_on channel=0 note=57 velocity=0 time=60
note_on channel=0 note=55 velocity=0 time=43
note_on channel=0 note=63 velocity=0 time=88
note_on channel=0 note=51 velocity=59 time=161
note_on channel=0 note=53 velocity=56 time=5
note_on channel=0 note=61 velocity=61 time=3
note_on channel=0 note=55 velocity=58 time=13
note_on channel=0 note=43 velocity=36 time=1
note_on channel=0 note=53 velocity=0 time=49
note_on channel=0 note=55 velocity=0 time=13
note_on channel=0 note=43 velocity=0 time=21
note_on channel=0 note=61 velocity=0 time=18
note_on channel=0 note=51 velocity=0 time=8
note_on channel=0 note=60 velocity=56 time=231
note_on channel=0 note=68 velocity=55 time=7
note_on channel=0 note=51 velocity=48 time=13
note_on channel=0 note=59 velocity=35 time=21
note_on channel=0 note=57 velocity=35 time=3
note_on channel=0 note=68 velocity=0 time=8
note_on channel=0 note=51 velocity=0 time=52
note_on channel=0 note=57 velocity=0 time=5
note_on channel=0 note=59 velocity=0 time=7
note_on channel=0 note=60 velocity=0 time=1
note_on channel=0 note=70 velocity=56 time=241
note_on channel=0 note=62 velocity=58 time=5
note_on channel=0 note=58 velocity=51 time=18
note_on channel=0 note=64 velocity=39 time=2
note_on channel=0 note=53 velocity=43 time=13
note_on channel=0 note=54 velocity=34 time=15
note_on channel=0 note=58 velocity=0 time=19
note_on channel=0 note=64 velocity=0 time=25
note_on channel=0 note=53 velocity=0 time=13
note_on channel=0 note=62 velocity=0 time=1
note_on channel=0 note=54 velocity=0 time=14
note_on channel=0 note=70 velocity=0 time=21
note_on channel=0 note=65 velocity=57 time=205
note_on channel=0 note=69 velocity=60 time=5
note_on channel=0 note=75 velocity=61 time=0
note_on channel=0 note=61 velocity=47 time=13
note_on channel=0 note=58 velocity=37 time=1
note_on channel=0 note=64 velocity=55 time=10
note_on channel=0 note=57 velocity=49 time=2
note_on channel=0 note=72 velocity=43 time=14
note_on channel=0 note=64 velocity=0 time=33
note_on channel=0 note=57 velocity=0 time=9
note_on channel=0 note=69 velocity=0 time=7
note_on channel=0 note=58 velocity=0 time=5
note_on channel=0 note=72 velocity=0 time=21
note_on channel=0 note=65 velocity=0 time=3
note_on channel=0 note=61 velocity=0 time=8
note_on channel=0 note=75 velocity=0 time=12
note_on channel=0 note=76 velocity=63 time=195
note_on channel=0 note=68 velocity=66 time=13
note_on channel=0 note=70 velocity=66 time=1
note_on channel=0 note=81 velocity=56 time=4
note_on channel=0 note=72 velocity=57 time=2
note_on channel=0 note=71 velocity=61 time=16
note_on channel=0 note=64 velocity=53 time=1
note_on channel=0 note=79 velocity=38 time=15
note_on channel=0 note=70 velocity=0 time=9
note_on channel=0 note=71 velocity=0 time=19
note_on channel=0 note=64 velocity=0 time=14
note_on channel=0 note=76 velocity=0 time=5
note_on channel=0 note=72 velocity=0 time=9
note_on channel=0 note=79 velocity=0 time=5
note_on channel=0 note=68 velocity=0 time=16
note_on channel=0 note=81 velocity=0 time=5
note_on channel=0 note=90 velocity=91 time=197
note_on channel=0 note=87 velocity=87 time=2
note_on channel=0 note=83 velocity=72 time=2
note_on channel=0 note=84 velocity=69 time=9
note_on channel=0 note=79 velocity=91 time=2
note_on channel=0 note=78 velocity=85 time=2
note_on channel=0 note=75 velocity=75 time=4
note_on channel=0 note=73 velocity=66 time=5
note_on channel=0 note=77 velocity=63 time=2
note_on channel=0 note=91 velocity=44 time=2
note_on channel=0 note=84 velocity=0 time=19
note_on channel=0 note=87 velocity=0 time=1
note_on channel=0 note=83 velocity=0 time=2
note_on channel=0 note=78 velocity=0 time=7
note_on channel=0 note=73 velocity=0 time=1
note_on channel=0 note=79 velocity=0 time=27
note_on channel=0 note=77 velocity=0 time=1
note_on channel=0 note=90 velocity=0 time=6
note_on channel=0 note=91 velocity=0 time=1
note_on channel=0 note=75 velocity=0 time=24
note_on channel=0 note=101 velocity=97 time=217
note_on channel=0 note=100 velocity=97 time=5
note_on channel=0 note=91 velocity=87 time=21
note_on channel=0 note=92 velocity=75 time=6
note_on channel=0 note=90 velocity=66 time=2
note_on channel=0 note=85 velocity=60 time=5
note_on channel=0 note=95 velocity=38 time=8
note_on channel=0 note=89 velocity=48 time=10
note_on channel=0 note=87 velocity=40 time=4
note_on channel=0 note=101 velocity=0 time=1
note_on channel=0 note=92 velocity=0 time=1
note_on channel=0 note=91 velocity=0 time=9
note_on channel=0 note=85 velocity=0 time=15
note_on channel=0 note=100 velocity=0 time=1
note_on channel=0 note=95 velocity=0 time=6
note_on channel=0 note=99 velocity=57 time=15
note_on channel=0 note=87 velocity=0 time=12
note_on channel=0 note=90 velocity=0 time=4
note_on channel=0 note=93 velocity=59 time=1
note_on channel=0 note=89 velocity=0 time=1
note_on channel=0 note=91 velocity=74 time=11
note_on channel=0 note=99 velocity=0 time=14
note_on channel=0 note=95 velocity=61 time=18
note_on channel=0 note=95 velocity=0 time=34
note_on channel=0 note=91 velocity=0 time=18
note_on channel=0 note=93 velocity=0 time=26
note_on channel=0 note=92 velocity=75 time=35
note_on channel=0 note=91 velocity=67 time=30
note_on channel=0 note=92 velocity=0 time=1
note_on channel=0 note=82 velocity=35 time=10
note_on channel=0 note=90 velocity=57 time=11
note_on channel=0 note=91 velocity=0 time=26
note_on channel=0 note=82 velocity=0 time=12
note_on channel=0 note=90 velocity=0 time=5
note_on channel=0 note=87 velocity=71 time=19
note_on channel=0 note=83 velocity=58 time=1
note_on channel=0 note=78 velocity=68 time=28
note_on channel=0 note=81 velocity=60 time=7
note_on channel=0 note=85 velocity=68 time=6
note_on channel=0 note=87 velocity=0 time=8
note_on channel=0 note=78 velocity=0 time=15
note_on channel=0 note=77 velocity=48 time=6
note_on channel=0 note=85 velocity=0 time=3
note_on channel=0 note=81 velocity=0 time=9
note_on channel=0 note=83 velocity=0 time=27
note_on channel=0 note=77 velocity=0 time=33
note_on channel=0 note=80 velocity=66 time=33
note_on channel=0 note=79 velocity=66 time=39
note_on channel=0 note=80 velocity=0 time=1
note_on channel=0 note=77 velocity=60 time=13
note_on channel=0 note=66 velocity=75 time=9
note_on channel=0 note=73 velocity=56 time=10
note_on channel=0 note=79 velocity=0 time=6
note_on channel=0 note=77 velocity=0 time=15
note_on channel=0 note=75 velocity=64 time=1
note_on channel=0 note=66 velocity=0 time=12
note_on channel=0 note=75 velocity=0 time=20
note_on channel=0 note=56 velocity=52 time=10
note_on channel=0 note=70 velocity=47 time=3
note_on channel=0 note=73 velocity=0 time=33
note_on channel=0 note=68 velocity=64 time=8
note_on channel=0 note=70 velocity=0 time=6
note_on channel=0 note=56 velocity=0 time=1
note_on channel=0 note=68 velocity=0 time=30
note_on channel=0 note=66 velocity=35 time=33
note_on channel=0 note=64 velocity=45 time=7
note_on channel=0 note=62 velocity=34 time=41
note_on channel=0 note=54 velocity=36 time=15
note_on channel=0 note=66 velocity=0 time=10
note_on channel=0 note=64 velocity=0 time=14
note_on channel=0 note=46 velocity=50 time=1
note_on channel=0 note=44 velocity=59 time=4
note_on channel=0 note=42 velocity=71 time=1
note_on channel=0 note=62 velocity=0 time=12
note_on channel=0 note=54 velocity=0 time=3
note_on channel=0 note=42 velocity=0 time=12
note_on channel=0 note=61 velocity=51 time=2
note_on channel=0 note=46 velocity=0 time=14
note_on channel=0 note=44 velocity=0 time=3
note_on channel=0 note=43 velocity=33 time=20
note_on channel=0 note=61 velocity=0 time=14
note_on channel=0 note=59 velocity=41 time=11
note_on channel=0 note=54 velocity=40 time=9
note_on channel=0 note=43 velocity=0 time=5
note_on channel=0 note=59 velocity=0 time=44
note_on channel=0 note=54 velocity=0 time=11
note_on channel=0 note=40 velocity=52 time=35
note_on channel=0 note=49 velocity=61 time=65
note_on channel=0 note=30 velocity=51 time=5
note_on channel=0 note=28 velocity=69 time=10
note_on channel=0 note=27 velocity=46 time=1
note_on channel=0 note=49 velocity=0 time=17
note_on channel=0 note=40 velocity=0 time=13
note_on channel=0 note=44 velocity=61 time=20
note_on channel=0 note=27 velocity=0 time=12
note_on channel=0 note=44 velocity=0 time=25
note_on channel=0 note=42 velocity=33 time=18
note_on channel=0 note=30 velocity=0 time=2
note_on channel=0 note=28 velocity=0 time=6
note_on channel=0 note=42 velocity=0 time=30
note_on channel=0 note=39 velocity=48 time=6
note_on channel=0 note=35 velocity=76 time=9
note_on channel=0 note=36 velocity=40 time=14
note_on channel=0 note=30 velocity=39 time=11
note_on channel=0 note=39 velocity=0 time=17
note_on channel=0 note=30 velocity=0 time=44
note_on channel=0 note=42 velocity=48 time=15
note_on channel=0 note=27 velocity=59 time=19
note_on channel=0 note=43 velocity=37 time=25
note_on channel=0 note=25 velocity=49 time=1
note_on channel=0 note=36 velocity=0 time=7
note_on channel=0 note=30 velocity=46 time=22
note_on channel=0 note=42 velocity=0 time=4
note_on channel=0 note=35 velocity=0 time=5
note_on channel=0 note=41 velocity=39 time=1
note_on channel=0 note=43 velocity=0 time=7
note_on channel=0 note=25 velocity=0 time=5
note_on channel=0 note=26 velocity=49 time=2
note_on channel=0 note=30 velocity=0 time=24
note_on channel=0 note=26 velocity=0 time=28
note_on channel=0 note=41 velocity=0 time=25
note_on channel=0 note=27 velocity=0 time=9
note_on channel=0 note=36 velocity=29 time=15
note_on channel=0 note=33 velocity=117 time=12
note_on channel=0 note=23 velocity=95 time=1
note_on channel=0 note=25 velocity=78 time=1
note_on channel=0 note=38 velocity=83 time=1
note_on channel=0 note=31 velocity=104 time=2
note_on channel=0 note=44 velocity=79 time=7
note_on channel=0 note=29 velocity=73 time=5
note_on channel=0 note=39 velocity=71 time=0
note_on channel=0 note=28 velocity=55 time=12
note_on channel=0 note=44 velocity=0 time=7
note_on channel=0 note=29 velocity=0 time=17
note_on channel=0 note=39 velocity=0 time=1
note_on channel=0 note=36 velocity=0 time=9
note_on channel=0 note=28 velocity=0 time=11
note_on channel=0 note=38 velocity=0 time=7
note_on channel=0 note=31 velocity=0 time=15
note_on channel=0 note=33 velocity=0 time=7
note_on channel=0 note=23 velocity=0 time=6
note_on channel=0 note=25 velocity=0 time=17
note_on channel=0 note=54 velocity=93 time=237
note_on channel=0 note=37 velocity=91 time=1
note_on channel=0 note=36 velocity=83 time=5
note_on channel=0 note=47 velocity=85 time=1
note_on channel=0 note=39 velocity=87 time=1
note_on channel=0 note=49 velocity=85 time=1
note_on channel=0 note=43 velocity=107 time=3
note_on channel=0 note=53 velocity=65 time=5
note_on channel=0 note=51 velocity=62 time=3
note_on channel=0 note=41 velocity=66 time=7
note_on channel=0 note=48 velocity=56 time=8
note_on channel=0 note=42 velocity=46 time=5
note_on channel=0 note=49 velocity=0 time=9
note_on channel=0 note=43 velocity=0 time=3
note_on channel=0 note=51 velocity=0 time=2
note_on channel=0 note=41 velocity=0 time=12
note_on channel=0 note=53 velocity=0 time=4
note_on channel=0 note=36 velocity=0 time=11
note_on channel=0 note=47 velocity=0 time=11
note_on channel=0 note=42 velocity=0 time=5
note_on channel=0 note=48 velocity=0 time=0
note_on channel=0 note=54 velocity=0 time=3
note_on channel=0 note=37 velocity=0 time=3
note_on channel=0 note=39 velocity=0 time=1
note_on channel=0 note=63 velocity=89 time=271
note_on channel=0 note=57 velocity=69 time=4
note_on channel=0 note=49 velocity=72 time=2
note_on channel=0 note=61 velocity=82 time=0
note_on channel=0 note=59 velocity=79 time=7
note_on channel=0 note=55 velocity=93 time=1
note_on channel=0 note=56 velocity=89 time=1
note_on channel=0 note=48 velocity=72 time=3
note_on channel=0 note=50 velocity=44 time=23
note_on channel=0 note=61 velocity=0 time=4
note_on channel=0 note=55 velocity=0 time=13
note_on channel=0 note=49 velocity=0 time=10
note_on channel=0 note=57 velocity=0 time=0
note_on channel=0 note=59 velocity=0 time=0
note_on channel=0 note=56 velocity=0 time=6
note_on channel=0 note=63 velocity=0 time=2
note_on channel=0 note=48 velocity=0 time=14
note_on channel=0 note=50 velocity=0 time=25
note_on channel=0 note=65 velocity=72 time=230
note_on channel=0 note=68 velocity=70 time=6
note_on channel=0 note=70 velocity=73 time=0
note_on channel=0 note=64 velocity=82 time=6
note_on channel=0 note=63 velocity=75 time=2
note_on channel=0 note=57 velocity=60 time=3
note_on channel=0 note=55 velocity=58 time=11
note_on channel=0 note=60 velocity=43 time=23
note_on channel=0 note=68 velocity=0 time=11
note_on channel=0 note=55 velocity=0 time=12
note_on channel=0 note=64 velocity=0 time=31
note_on channel=0 note=65 velocity=0 time=1
note_on channel=0 note=60 velocity=0 time=7
note_on channel=0 note=70 velocity=0 time=5
note_on channel=0 note=57 velocity=0 time=26
note_on channel=0 note=63 velocity=0 time=7
note_on channel=0 note=69 velocity=63 time=206
note_on channel=0 note=67 velocity=75 time=3
note_on channel=0 note=66 velocity=66 time=5
note_on channel=0 note=76 velocity=49 time=15
note_on channel=0 note=63 velocity=43 time=2
note_on channel=0 note=59 velocity=50 time=4
note_on channel=0 note=75 velocity=39 time=1
note_on channel=0 note=60 velocity=48 time=1
note_on channel=0 note=61 velocity=41 time=7
note_on channel=0 note=69 velocity=0 time=6
note_on channel=0 note=75 velocity=0 time=25
note_on channel=0 note=66 velocity=0 time=3
note_on channel=0 note=76 velocity=0 time=11
note_on channel=0 note=63 velocity=0 time=1
note_on channel=0 note=60 velocity=0 time=3
note_on channel=0 note=59 velocity=0 time=10
note_on channel=0 note=61 velocity=0 time=1
note_on channel=0 note=67 velocity=0 time=0
note_on channel=0 note=68 velocity=61 time=243
note_on channel=0 note=70 velocity=57 time=3
note_on channel=0 note=72 velocity=60 time=0
note_on channel=0 note=74 velocity=65 time=1
note_on channel=0 note=78 velocity=52 time=3
note_on channel=0 note=71 velocity=75 time=2
note_on channel=0 note=66 velocity=48 time=13
note_on channel=0 note=79 velocity=57 time=0
note_on channel=0 note=77 velocity=44 time=8
note_on channel=0 note=76 velocity=46 time=18
note_on channel=0 note=70 velocity=0 time=3
note_on channel=0 note=66 velocity=0 time=29
note_on channel=0 note=71 velocity=0 time=4
note_on channel=0 note=74 velocity=0 time=10
note_on channel=0 note=79 velocity=0 time=4
note_on channel=0 note=78 velocity=0 time=2
note_on channel=0 note=77 velocity=0 time=12
note_on channel=0 note=68 velocity=0 time=5
note_on channel=0 note=72 velocity=0 time=3
note_on channel=0 note=76 velocity=0 time=1
note_on channel=0 note=82 velocity=75 time=222
note_on channel=0 note=77 velocity=72 time=1
note_on channel=0 note=75 velocity=73 time=4
note_on channel=0 note=73 velocity=68 time=4
note_on channel=0 note=76 velocity=61 time=0
note_on channel=0 note=74 velocity=75 time=2
note_on channel=0 note=84 velocity=57 time=5
note_on channel=0 note=70 velocity=49 time=14
note_on channel=0 note=74 velocity=0 time=17
note_on channel=0 note=83 velocity=44 time=6
note_on channel=0 note=70 velocity=0 time=31
note_on channel=0 note=76 velocity=0 time=4
note_on channel=0 note=77 velocity=0 time=12
note_on channel=0 note=83 velocity=0 time=10
note_on channel=0 note=84 velocity=0 time=4
note_on channel=0 note=82 velocity=0 time=5
note_on channel=0 note=75 velocity=0 time=8
note_on channel=0 note=73 velocity=0 time=4
note_on channel=0 note=87 velocity=91 time=200
note_on channel=0 note=83 velocity=84 time=2
note_on channel=0 note=89 velocity=81 time=1
note_on channel=0 note=90 velocity=68 time=10
note_on channel=0 note=80 velocity=91 time=2
note_on channel=0 note=79 velocity=87 time=2
note_on channel=0 note=81 velocity=91 time=1
note_on channel=0 note=88 velocity=63 time=7
note_on channel=0 note=75 velocity=63 time=10
note_on channel=0 note=83 velocity=0 time=3
note_on channel=0 note=77 velocity=50 time=4
note_on channel=0 note=90 velocity=0 time=1
note_on channel=0 note=74 velocity=37 time=15
note_on channel=0 note=88 velocity=0 time=4
note_on channel=0 note=87 velocity=0 time=9
note_on channel=0 note=75 velocity=0 time=3
note_on channel=0 note=89 velocity=0 time=12
note_on channel=0 note=80 velocity=0 time=2
note_on channel=0 note=81 velocity=0 time=7
note_on channel=0 note=77 velocity=0 time=2
note_on channel=0 note=74 velocity=0 time=9
note_on channel=0 note=79 velocity=0 time=13
note_on channel=0 note=101 velocity=97 time=228
note_on channel=0 note=93 velocity=77 time=7
note_on channel=0 note=89 velocity=91 time=14
note_on channel=0 note=91 velocity=77 time=2
note_on channel=0 note=90 velocity=78 time=7
note_on channel=0 note=100 velocity=51 time=0
note_on channel=0 note=82 velocity=82 time=1
note_on channel=0 note=91 velocity=0 time=22
note_on channel=0 note=93 velocity=0 time=1
note_on channel=0 note=82 velocity=0 time=7
note_on channel=0 note=90 velocity=0 time=1
note_on channel=0 note=101 velocity=0 time=14
note_on channel=0 note=91 velocity=61 time=27
note_on channel=0 note=97 velocity=62 time=27
note_on channel=0 note=94 velocity=75 time=17
note_on channel=0 note=89 velocity=0 time=3
note_on channel=0 note=100 velocity=0 time=14
note_on channel=0 note=97 velocity=0 time=2
note_on channel=0 note=91 velocity=0 time=14
note_on channel=0 note=90 velocity=59 time=46
note_on channel=0 note=88 velocity=55 time=27
note_on channel=0 note=94 velocity=0 time=7
note_on channel=0 note=95 velocity=70 time=21
note_on channel=0 note=87 velocity=64 time=13
note_on channel=0 note=88 velocity=0 time=5
note_on channel=0 note=90 velocity=0 time=16
note_on channel=0 note=95 velocity=0 time=38
note_on channel=0 note=92 velocity=57 time=19
note_on channel=0 note=88 velocity=37 time=5
note_on channel=0 note=87 velocity=0 time=11
note_on channel=0 note=92 velocity=0 time=20
note_on channel=0 note=90 velocity=55 time=2
note_on channel=0 note=88 velocity=0 time=14
note_on channel=0 note=87 velocity=71 time=19
note_on channel=0 note=84 velocity=65 time=6
note_on channel=0 note=90 velocity=0 time=0
note_on channel=0 note=86 velocity=39 time=3
note_on channel=0 note=85 velocity=39 time=2
note_on channel=0 note=78 velocity=43 time=20
note_on channel=0 note=84 velocity=0 time=20
note_on channel=0 note=85 velocity=0 time=14
note_on channel=0 note=87 velocity=0 time=12
note_on channel=0 note=86 velocity=0 time=8
note_on channel=0 note=80 velocity=52 time=11
note_on channel=0 note=78 velocity=0 time=6
note_on channel=0 note=88 velocity=50 time=30
note_on channel=0 note=80 velocity=0 time=13
note_on channel=0 note=87 velocity=37 time=13
note_on channel=0 note=86 velocity=40 time=29
note_on channel=0 note=88 velocity=0 time=11
note_on channel=0 note=81 velocity=51 time=6
note_on channel=0 note=87 velocity=0 time=3
note_on channel=0 note=79 velocity=63 time=3
note_on channel=0 note=85 velocity=63 time=6
note_on channel=0 note=81 velocity=0 time=35
note_on channel=0 note=85 velocity=0 time=7
note_on channel=0 note=86 velocity=0 time=11
note_on channel=0 note=75 velocity=61 time=13
note_on channel=0 note=78 velocity=70 time=9
note_on channel=0 note=80 velocity=41 time=31
note_on channel=0 note=75 velocity=0 time=4
note_on channel=0 note=78 velocity=0 time=7
note_on channel=0 note=81 velocity=22 time=30
note_on channel=0 note=80 velocity=0 time=31
note_on channel=0 note=76 velocity=60 time=13
note_on channel=0 note=79 velocity=0 time=17
note_on channel=0 note=81 velocity=0 time=13
note_on channel=0 note=82 velocity=70 time=22
note_on channel=0 note=70 velocity=47 time=10
note_on channel=0 note=73 velocity=66 time=2
note_on channel=0 note=75 velocity=70 time=12
note_on channel=0 note=76 velocity=0 time=12
note_on channel=0 note=82 velocity=0 time=3
note_on channel=0 note=73 velocity=0 time=16
note_on channel=0 note=75 velocity=0 time=9
note_on channel=0 note=81 velocity=36 time=7
note_on channel=0 note=70 velocity=0 time=1
note_on channel=0 note=74 velocity=65 time=14
note_on channel=0 note=77 velocity=45 time=8
note_on channel=0 note=76 velocity=27 time=6
note_on channel=0 note=81 velocity=0 time=17
note_on channel=0 note=74 velocity=0 time=17
note_on channel=0 note=77 velocity=0 time=11
note_on channel=0 note=72 velocity=54 time=2
note_on channel=0 note=76 velocity=0 time=27
note_on channel=0 note=73 velocity=73 time=23
note_on channel=0 note=72 velocity=0 time=8
note_on channel=0 note=70 velocity=57 time=5
note_on channel=0 note=78 velocity=61 time=10
note_on channel=0 note=70 velocity=0 time=39
note_on channel=0 note=77 velocity=44 time=1
note_on channel=0 note=78 velocity=0 time=20
note_on channel=0 note=76 velocity=50 time=3
note_on channel=0 note=73 velocity=0 time=9
note_on channel=0 note=77 velocity=0 time=41
note_on channel=0 note=76 velocity=0 time=12
note_on channel=0 note=69 velocity=54 time=1
note_on channel=0 note=73 velocity=63 time=1
note_on channel=0 note=63 velocity=52 time=22
note_on channel=0 note=67 velocity=65 time=10
note_on channel=0 note=63 velocity=0 time=41
note_on channel=0 note=66 velocity=58 time=0
note_on channel=0 note=73 velocity=0 time=2
note_on channel=0 note=66 velocity=0 time=38
note_on channel=0 note=69 velocity=0 time=12
note_on channel=0 note=67 velocity=0 time=22
note_on channel=0 note=73 velocity=57 time=17
note_on channel=0 note=68 velocity=57 time=9
note_on channel=0 note=73 velocity=0 time=23
note_on channel=0 note=72 velocity=57 time=8
note_on channel=0 note=68 velocity=0 time=7
note_on channel=0 note=71 velocity=56 time=3
note_on channel=0 note=58 velocity=57 time=11
note_on channel=0 note=70 velocity=58 time=17
note_on channel=0 note=66 velocity=23 time=2
note_on channel=0 note=63 velocity=59 time=6
note_on channel=0 note=72 velocity=0 time=2
note_on channel=0 note=71 velocity=0 time=2
note_on channel=0 note=58 velocity=0 time=12
note_on channel=0 note=68 velocity=51 time=17
note_on channel=0 note=70 velocity=0 time=26
note_on channel=0 note=63 velocity=0 time=9
note_on channel=0 note=68 velocity=0 time=24
note_on channel=0 note=62 velocity=63 time=9
note_on channel=0 note=60 velocity=49 time=16
note_on channel=0 note=64 velocity=44 time=6
note_on channel=0 note=66 velocity=0 time=32
note_on channel=0 note=64 velocity=0 time=37
note_on channel=0 note=56 velocity=46 time=3
note_on channel=0 note=58 velocity=53 time=13
note_on channel=0 note=66 velocity=61 time=11
note_on channel=0 note=60 velocity=0 time=10
note_on channel=0 note=62 velocity=0 time=13
note_on channel=0 note=56 velocity=0 time=7
note_on channel=0 note=58 velocity=0 time=6
note_on channel=0 note=65 velocity=56 time=9
note_on channel=0 note=66 velocity=0 time=13
note_on channel=0 note=63 velocity=64 time=20
note_on channel=0 note=64 velocity=43 time=3
note_on channel=0 note=65 velocity=0 time=18
note_on channel=0 note=57 velocity=47 time=33
note_on channel=0 note=64 velocity=0 time=12
note_on channel=0 note=63 velocity=0 time=16
note_on channel=0 note=50 velocity=48 time=25
note_on channel=0 note=54 velocity=61 time=7
note_on channel=0 note=55 velocity=43 time=0
note_on channel=0 note=61 velocity=34 time=2
note_on channel=0 note=58 velocity=62 time=8
note_on channel=0 note=51 velocity=49 time=4
note_on channel=0 note=61 velocity=0 time=28
note_on channel=0 note=58 velocity=0 time=3
note_on channel=0 note=57 velocity=0 time=11
note_on channel=0 note=50 velocity=0 time=1
note_on channel=0 note=51 velocity=0 time=1
note_on channel=0 note=54 velocity=0 time=9
note_on channel=0 note=55 velocity=0 time=0
note_on channel=0 note=56 velocity=56 time=14
note_on channel=0 note=61 velocity=57 time=26
note_on channel=0 note=56 velocity=0 time=24
note_on channel=0 note=62 velocity=41 time=11
note_on channel=0 note=53 velocity=58 time=5
note_on channel=0 note=61 velocity=0 time=53
note_on channel=0 note=58 velocity=69 time=5
note_on channel=0 note=62 velocity=0 time=0
note_on channel=0 note=51 velocity=59 time=20
note_on channel=0 note=48 velocity=50 time=30
note_on channel=0 note=53 velocity=0 time=1
note_on channel=0 note=51 velocity=0 time=15
note_on channel=0 note=58 velocity=0 time=33
note_on channel=0 note=48 velocity=0 time=11
note_on channel=0 note=47 velocity=58 time=47
note_on channel=0 note=50 velocity=56 time=6
note_on channel=0 note=50 velocity=0 time=50
note_on channel=0 note=54 velocity=72 time=18
note_on channel=0 note=42 velocity=54 time=6
note_on channel=0 note=39 velocity=59 time=9
note_on channel=0 note=38 velocity=61 time=6
note_on channel=0 note=47 velocity=0 time=15
note_on channel=0 note=42 velocity=0 time=8
note_on channel=0 note=54 velocity=0 time=0
note_on channel=0 note=52 velocity=45 time=12
note_on channel=0 note=38 velocity=0 time=5
note_on channel=0 note=39 velocity=0 time=1
note_on channel=0 note=49 velocity=66 time=3
note_on channel=0 note=52 velocity=0 time=60
note_on channel=0 note=39 velocity=127 time=9
note_on channel=0 note=41 velocity=73 time=5
note_on channel=0 note=40 velocity=56 time=26
note_on channel=0 note=49 velocity=0 time=4
note_on channel=0 note=39 velocity=0 time=25
note_on channel=0 note=44 velocity=59 time=0
note_on channel=0 note=44 velocity=0 time=36
note_on channel=0 note=30 velocity=66 time=16
note_on channel=0 note=32 velocity=57 time=23
note_on channel=0 note=29 velocity=61 time=1
note_on channel=0 note=40 velocity=0 time=13
note_on channel=0 note=46 velocity=64 time=16
note_on channel=0 note=41 velocity=0 time=11
note_on channel=0 note=32 velocity=0 time=4
note_on channel=0 note=46 velocity=0 time=20
note_on channel=0 note=45 velocity=49 time=3
note_on channel=0 note=30 velocity=0 time=1
note_on channel=0 note=31 velocity=41 time=21
note_on channel=0 note=43 velocity=43 time=7
note_on channel=0 note=42 velocity=68 time=6
note_on channel=0 note=29 velocity=0 time=15
note_on channel=0 note=35 velocity=73 time=7
note_on channel=0 note=45 velocity=0 time=7
note_on channel=0 note=31 velocity=0 time=13
note_on channel=0 note=43 velocity=0 time=17
note_on channel=0 note=36 velocity=48 time=14
note_on channel=0 note=37 velocity=43 time=55
note_on channel=0 note=24 velocity=104 time=1
note_on channel=0 note=38 velocity=47 time=9
note_on channel=0 note=42 velocity=0 time=16
note_on channel=0 note=26 velocity=51 time=2
note_on channel=0 note=25 velocity=56 time=3
note_on channel=0 note=23 velocity=49 time=15
note_on channel=0 note=37 velocity=0 time=10
note_on channel=0 note=44 velocity=75 time=5
note_on channel=0 note=36 velocity=0 time=7
note_on channel=0 note=25 velocity=0 time=1
note_on channel=0 note=26 velocity=0 time=9
note_on channel=0 note=35 velocity=0 time=4
note_on channel=0 note=42 velocity=57 time=0
note_on channel=0 note=23 velocity=0 time=15
note_on channel=0 note=38 velocity=0 time=2
note_on channel=0 note=44 velocity=0 time=1
note_on channel=0 note=24 velocity=0 time=16
note_on channel=0 note=42 velocity=0 time=4
note_on channel=0 note=62 velocity=42 time=662
note_on channel=0 note=68 velocity=44 time=59
note_on channel=0 note=62 velocity=0 time=40
note_on channel=0 note=66 velocity=46 time=31
note_on channel=0 note=62 velocity=47 time=56
note_on channel=0 note=68 velocity=0 time=16
note_on channel=0 note=63 velocity=56 time=15
note_on channel=0 note=63 velocity=0 time=75
note_on channel=0 note=68 velocity=47 time=14
note_on channel=0 note=62 velocity=0 time=13
note_on channel=0 note=69 velocity=56 time=51
note_on channel=0 note=71 velocity=60 time=10
note_on channel=0 note=74 velocity=51 time=4
note_on channel=0 note=67 velocity=39 time=5
note_on channel=0 note=65 velocity=48 time=5
note_on channel=0 note=72 velocity=31 time=3
note_on channel=0 note=76 velocity=58 time=10
note_on channel=0 note=71 velocity=0 time=11
note_on channel=0 note=69 velocity=0 time=3
note_on channel=0 note=67 velocity=0 time=19
note_on channel=0 note=77 velocity=45 time=6
note_on channel=0 note=72 velocity=0 time=10
note_on channel=0 note=74 velocity=0 time=2
note_on channel=0 note=76 velocity=0 time=2
note_on channel=0 note=75 velocity=70 time=14
note_on channel=0 note=71 velocity=46 time=17
note_on channel=0 note=75 velocity=0 time=21
note_on channel=0 note=77 velocity=0 time=4
note_on channel=0 note=74 velocity=61 time=3
note_on channel=0 note=65 velocity=0 time=7
note_on channel=0 note=72 velocity=33 time=21
note_on channel=0 note=66 velocity=0 time=24
note_on channel=0 note=72 velocity=0 time=14
note_on channel=0 note=77 velocity=57 time=4
note_on channel=0 note=68 velocity=0 time=17
note_on channel=0 note=71 velocity=0 time=7
note_on channel=0 note=74 velocity=0 time=2
note_on channel=0 note=77 velocity=0 time=97
note_on channel=0 note=97 velocity=48 time=9
note_on channel=0 note=97 velocity=0 time=57
note_on channel=0 note=96 velocity=42 time=31
note_on channel=0 note=95 velocity=49 time=79
note_on channel=0 note=96 velocity=0 time=1
note_on channel=0 note=105 velocity=61 time=62
note_on channel=0 note=85 velocity=48 time=4
note_on channel=0 note=93 velocity=61 time=0
note_on channel=0 note=103 velocity=55 time=21
note_on channel=0 note=84 velocity=40 time=1
note_on channel=0 note=87 velocity=78 time=4
note_on channel=0 note=86 velocity=54 time=8
note_on channel=0 note=94 velocity=78 time=4
note_on channel=0 note=92 velocity=71 time=4
note_on channel=0 note=95 velocity=0 time=6
note_on channel=0 note=85 velocity=0 time=1
note_on channel=0 note=87 velocity=0 time=8
note_on channel=0 note=93 velocity=0 time=8
note_on channel=0 note=94 velocity=0 time=5
note_on channel=0 note=84 velocity=0 time=5
note_on channel=0 note=86 velocity=0 time=12
note_on channel=0 note=105 velocity=0 time=8
note_on channel=0 note=92 velocity=0 time=7
note_on channel=0 note=103 velocity=0 time=6
note_on channel=0 note=93 velocity=43 time=291
note_on channel=0 note=91 velocity=47 time=10
note_on channel=0 note=66 velocity=31 time=65
note_on channel=0 note=91 velocity=0 time=29
note_on channel=0 note=93 velocity=0 time=1
note_on channel=0 note=66 velocity=0 time=55
note_on channel=0 note=76 velocity=43 time=49
note_on channel=0 note=68 velocity=46 time=21
note_on channel=0 note=74 velocity=52 time=6
note_on channel=0 note=67 velocity=32 time=6
note_on channel=0 note=71 velocity=44 time=20
note_on channel=0 note=76 velocity=0 time=17
note_on channel=0 note=68 velocity=0 time=13
note_on channel=0 note=74 velocity=0 time=1
note_on channel=0 note=67 velocity=0 time=8
note_on channel=0 note=71 velocity=0 time=18
note_on channel=0 note=81 velocity=43 time=23
note_on channel=0 note=87 velocity=57 time=31
note_on channel=0 note=85 velocity=52 time=7
note_on channel=0 note=85 velocity=0 time=51
note_on channel=0 note=81 velocity=0 time=27
note_on channel=0 note=87 velocity=0 time=3
note_on channel=0 note=67 velocity=39 time=31
note_on channel=0 note=67 velocity=0 time=73
note_on channel=0 note=74 velocity=56 time=204
note_on channel=0 note=71 velocity=50 time=9
note_on channel=0 note=67 velocity=46 time=30
note_on channel=0 note=68 velocity=34 time=25
note_on channel=0 note=74 velocity=0 time=38
note_on channel=0 note=71 velocity=0 time=23
note_on channel=0 note=68 velocity=0 time=13
note_on channel=0 note=67 velocity=0 time=15
note_on channel=0 note=76 velocity=45 time=186
note_on channel=0 note=78 velocity=56 time=15
note_on channel=0 note=80 velocity=38 time=21
note_on channel=0 note=78 velocity=0 time=39
note_on channel=0 note=76 velocity=0 time=21
note_on channel=0 note=80 velocity=0 time=2
note_on channel=0 note=73 velocity=49 time=253
note_on channel=0 note=61 velocity=48 time=8
note_on channel=0 note=71 velocity=48 time=8
note_on channel=0 note=67 velocity=43 time=4
note_on channel=0 note=75 velocity=45 time=7
note_on channel=0 note=73 velocity=0 time=32
note_on channel=0 note=61 velocity=0 time=22
note_on channel=0 note=75 velocity=0 time=5
note_on channel=0 note=67 velocity=0 time=1
note_on channel=0 note=71 velocity=0 time=4
note_on channel=0 note=68 velocity=55 time=257
note_on channel=0 note=64 velocity=48 time=10
note_on channel=0 note=63 velocity=51 time=5
note_on channel=0 note=61 velocity=43 time=6
note_on channel=0 note=67 velocity=35 time=4
note_on channel=0 note=64 velocity=0 time=56
note_on channel=0 note=63 velocity=0 time=6
note_on channel=0 note=61 velocity=0 time=1
note_on channel=0 note=67 velocity=0 time=14
note_on channel=0 note=68 velocity=0 time=11
note_on channel=0 note=66 velocity=56 time=226
note_on channel=0 note=70 velocity=52 time=2
note_on channel=0 note=62 velocity=51 time=9
note_on channel=0 note=61 velocity=51 time=8
note_on channel=0 note=64 velocity=41 time=4
note_on channel=0 note=61 velocity=0 time=57
note_on channel=0 note=70 velocity=0 time=2
note_on channel=0 note=62 velocity=0 time=1
note_on channel=0 note=66 velocity=0 time=2
note_on channel=0 note=64 velocity=0 time=17
note_on channel=0 note=62 velocity=61 time=232
note_on channel=0 note=63 velocity=62 time=5
note_on channel=0 note=59 velocity=60 time=3
note_on channel=0 note=56 velocity=61 time=9
note_on channel=0 note=54 velocity=55 time=12
note_on channel=0 note=51 velocity=51 time=11
note_on channel=0 note=63 velocity=0 time=16
note_on channel=0 note=56 velocity=0 time=11
note_on channel=0 note=59 velocity=0 time=13
note_on channel=0 note=54 velocity=0 time=1
note_on channel=0 note=51 velocity=0 time=19
note_on channel=0 note=62 velocity=0 time=2
note_on channel=0 note=48 velocity=69 time=246
note_on channel=0 note=44 velocity=79 time=3
note_on channel=0 note=61 velocity=69 time=4
note_on channel=0 note=47 velocity=72 time=3
note_on channel=0 note=36 velocity=53 time=2
note_on channel=0 note=55 velocity=58 time=0
note_on channel=0 note=56 velocity=48 time=4
note_on channel=0 note=38 velocity=59 time=10
note_on channel=0 note=58 velocity=48 time=1
note_on channel=0 note=44 velocity=0 time=13
note_on channel=0 note=47 velocity=0 time=10
note_on channel=0 note=55 velocity=0 time=8
note_on channel=0 note=36 velocity=0 time=1
note_on channel=0 note=48 velocity=0 time=1
note_on channel=0 note=38 velocity=0 time=6
note_on channel=0 note=56 velocity=0 time=4
note_on channel=0 note=61 velocity=0 time=3
note_on channel=0 note=58 velocity=0 time=9
note_on channel=0 note=96 velocity=87 time=732
note_on channel=0 note=84 velocity=91 time=7
note_on channel=0 note=86 velocity=69 time=3
note_on channel=0 note=82 velocity=82 time=8
note_on channel=0 note=76 velocity=53 time=7
note_on channel=0 note=95 velocity=58 time=3
note_on channel=0 note=77 velocity=42 time=15
note_on channel=0 note=86 velocity=0 time=5
note_on channel=0 note=96 velocity=0 time=36
note_on channel=0 note=77 velocity=0 time=24
note_on channel=0 note=76 velocity=0 time=2
note_on channel=0 note=92 velocity=78 time=27
note_on channel=0 note=95 velocity=0 time=28
note_on channel=0 note=84 velocity=0 time=16
note_on channel=0 note=86 velocity=31 time=11
note_on channel=0 note=92 velocity=0 time=53
note_on channel=0 note=86 velocity=0 time=107
note_on channel=0 note=87 velocity=59 time=22
note_on channel=0 note=89 velocity=37 time=12
note_on channel=0 note=82 velocity=0 time=9
note_on channel=0 note=88 velocity=57 time=13
note_on channel=0 note=87 velocity=0 time=2
note_on channel=0 note=79 velocity=48 time=26
note_on channel=0 note=89 velocity=0 time=8
note_on channel=0 note=85 velocity=66 time=1
note_on channel=0 note=88 velocity=0 time=7
note_on channel=0 note=81 velocity=57 time=35
note_on channel=0 note=85 velocity=0 time=21
note_on channel=0 note=75 velocity=48 time=34
note_on channel=0 note=81 velocity=0 time=28
note_on channel=0 note=75 velocity=0 time=20
note_on channel=0 note=80 velocity=61 time=70
note_on channel=0 note=72 velocity=66 time=9
note_on channel=0 note=83 velocity=60 time=5
note_on channel=0 note=80 velocity=0 time=21
note_on channel=0 note=79 velocity=0 time=10
note_on channel=0 note=83 velocity=0 time=11
note_on channel=0 note=66 velocity=56 time=6
note_on channel=0 note=81 velocity=43 time=2
note_on channel=0 note=68 velocity=43 time=4
note_on channel=0 note=78 velocity=75 time=4
note_on channel=0 note=72 velocity=0 time=13
note_on channel=0 note=69 velocity=49 time=10
note_on channel=0 note=78 velocity=0 time=5
note_on channel=0 note=77 velocity=51 time=12
note_on channel=0 note=81 velocity=0 time=12
note_on channel=0 note=76 velocity=58 time=5
note_on channel=0 note=68 velocity=0 time=3
note_on channel=0 note=69 velocity=0 time=16
note_on channel=0 note=66 velocity=0 time=8
note_on channel=0 note=73 velocity=57 time=1
note_on channel=0 note=76 velocity=0 time=15
note_on channel=0 note=77 velocity=0 time=5
note_on channel=0 note=72 velocity=57 time=15
note_on channel=0 note=73 velocity=0 time=3
note_on channel=0 note=67 velocity=78 time=9
note_on channel=0 note=71 velocity=58 time=18
note_on channel=0 note=71 velocity=0 time=44
note_on channel=0 note=72 velocity=0 time=5
note_on channel=0 note=73 velocity=47 time=8
note_on channel=0 note=75 velocity=48 time=1
note_on channel=0 note=63 velocity=64 time=15
note_on channel=0 note=67 velocity=0 time=3
note_on channel=0 note=74 velocity=54 time=4
note_on channel=0 note=73 velocity=0 time=21
note_on channel=0 note=60 velocity=52 time=8
note_on channel=0 note=75 velocity=0 time=8
note_on channel=0 note=74 velocity=0 time=14
note_on channel=0 note=68 velocity=73 time=4
note_on channel=0 note=72 velocity=34 time=5
note_on channel=0 note=60 velocity=0 time=18
note_on channel=0 note=63 velocity=0 time=11
note_on channel=0 note=72 velocity=0 time=11
note_on channel=0 note=62 velocity=69 time=26
note_on channel=0 note=68 velocity=0 time=2
note_on channel=0 note=64 velocity=39 time=20
note_on channel=0 note=54 velocity=66 time=57
note_on channel=0 note=58 velocity=69 time=1
note_on channel=0 note=64 velocity=0 time=38
note_on channel=0 note=62 velocity=0 time=6
note_on channel=0 note=66 velocity=58 time=8
note_on channel=0 note=54 velocity=0 time=4
note_on channel=0 note=55 velocity=39 time=12
note_on channel=0 note=66 velocity=0 time=29
note_on channel=0 note=64 velocity=61 time=2
note_on channel=0 note=58 velocity=0 time=10
note_on channel=0 note=61 velocity=66 time=17
note_on channel=0 note=55 velocity=0 time=1
note_on channel=0 note=64 velocity=0 time=9
note_on channel=0 note=55 velocity=56 time=17
note_on channel=0 note=61 velocity=0 time=39
note_on channel=0 note=53 velocity=57 time=18
note_on channel=0 note=49 velocity=75 time=28
note_on channel=0 note=44 velocity=62 time=7
note_on channel=0 note=49 velocity=0 time=26
note_on channel=0 note=46 velocity=59 time=2
note_on channel=0 note=55 velocity=0 time=1
note_on channel=0 note=48 velocity=63 time=4
note_on channel=0 note=53 velocity=0 time=1
note_on channel=0 note=46 velocity=0 time=28
note_on channel=0 note=44 velocity=0 time=8
note_on channel=0 note=48 velocity=0 time=0
note_on channel=0 note=54 velocity=57 time=52
note_on channel=0 note=42 velocity=61 time=8
note_on channel=0 note=43 velocity=66 time=22
note_on channel=0 note=45 velocity=60 time=3
note_on channel=0 note=42 velocity=0 time=2
note_on channel=0 note=54 velocity=0 time=5
note_on channel=0 note=49 velocity=62 time=19
note_on channel=0 note=45 velocity=0 time=14
note_on channel=0 note=49 velocity=0 time=20
note_on channel=0 note=47 velocity=57 time=36
note_on channel=0 note=34 velocity=78 time=4
note_on channel=0 note=37 velocity=68 time=10
note_on channel=0 note=31 velocity=55 time=6
note_on channel=0 note=43 velocity=0 time=9
note_on channel=0 note=33 velocity=59 time=1
note_on channel=0 note=37 velocity=0 time=20
note_on channel=0 note=47 velocity=0 time=0
note_on channel=0 note=36 velocity=48 time=4
note_on channel=0 note=31 velocity=0 time=21
note_on channel=0 note=36 velocity=0 time=39
note_on channel=0 note=34 velocity=0 time=14
note_on channel=0 note=42 velocity=50 time=51
note_on channel=0 note=44 velocity=39 time=15
note_on channel=0 note=26 velocity=41 time=26
note_on channel=0 note=23 velocity=66 time=13
note_on channel=0 note=37 velocity=37 time=10
note_on channel=0 note=44 velocity=0 time=0
note_on channel=0 note=42 velocity=0 time=1
note_on channel=0 note=24 velocity=39 time=23
note_on channel=0 note=25 velocity=75 time=3
note_on channel=0 note=26 velocity=0 time=10
note_on channel=0 note=33 velocity=0 time=19
note_on channel=0 note=27 velocity=47 time=8
note_on channel=0 note=23 velocity=0 time=21
note_on channel=0 note=33 velocity=46 time=35
note_on channel=0 note=24 velocity=0 time=14
note_on channel=0 note=37 velocity=0 time=8
note_on channel=0 note=31 velocity=47 time=21
note_on channel=0 note=25 velocity=0 time=17
note_on channel=0 note=33 velocity=0 time=5
note_on channel=0 note=28 velocity=57 time=7
note_on channel=0 note=29 velocity=61 time=17
note_on channel=0 note=27 velocity=0 time=9
note_on channel=0 note=31 velocity=0 time=2
note_on channel=0 note=32 velocity=54 time=13
note_on channel=0 note=32 velocity=0 time=37
note_on channel=0 note=22 velocity=50 time=4
note_on channel=0 note=35 velocity=48 time=4
note_on channel=0 note=21 velocity=48 time=17
note_on channel=0 note=23 velocity=73 time=1
note_on channel=0 note=34 velocity=47 time=1
note_on channel=0 note=28 velocity=0 time=2
note_on channel=0 note=29 velocity=0 time=0
note_on channel=0 note=32 velocity=61 time=32
note_on channel=0 note=34 velocity=0 time=22
note_on channel=0 note=28 velocity=47 time=13
note_on channel=0 note=35 velocity=0 time=16
note_on channel=0 note=21 velocity=0 time=18
note_on channel=0 note=22 velocity=0 time=4
note_on channel=0 note=23 velocity=0 time=6
note_on channel=0 note=21 velocity=117 time=52
note_on channel=0 note=23 velocity=83 time=11
note_on channel=0 note=22 velocity=44 time=17
note_on channel=0 note=28 velocity=0 time=19
note_on channel=0 note=32 velocity=0 time=21
note_on channel=0 note=23 velocity=0 time=7
note_on channel=0 note=22 velocity=0 time=10
note_on channel=0 note=21 velocity=0 time=20
note_on channel=0 note=37 velocity=36 time=258
note_on channel=0 note=48 velocity=89 time=8
note_on channel=0 note=36 velocity=73 time=2
note_on channel=0 note=39 velocity=71 time=2
note_on channel=0 note=45 velocity=79 time=1
note_on channel=0 note=42 velocity=75 time=1
note_on channel=0 note=58 velocity=59 time=2
note_on channel=0 note=51 velocity=82 time=1
note_on channel=0 note=47 velocity=72 time=3
note_on channel=0 note=53 velocity=66 time=3
note_on channel=0 note=57 velocity=60 time=16
note_on channel=0 note=48 velocity=0 time=2
note_on channel=0 note=51 velocity=0 time=7
note_on channel=0 note=45 velocity=0 time=4
note_on channel=0 note=42 velocity=0 time=1
note_on channel=0 note=47 velocity=0 time=3
note_on channel=0 note=58 velocity=0 time=0
note_on channel=0 note=53 velocity=0 time=5
note_on channel=0 note=36 velocity=0 time=15
note_on channel=0 note=37 velocity=0 time=4
note_on channel=0 note=57 velocity=0 time=0
note_on channel=0 note=39 velocity=0 time=11
note_on channel=0 note=53 velocity=63 time=266
note_on channel=0 note=58 velocity=69 time=21
note_on channel=0 note=51 velocity=56 time=14
note_on channel=0 note=47 velocity=52 time=11
note_on channel=0 note=47 velocity=0 time=50
note_on channel=0 note=51 velocity=0 time=5
note_on channel=0 note=53 velocity=0 time=1
note_on channel=0 note=58 velocity=0 time=20
note_on channel=0 note=57 velocity=57 time=247
note_on channel=0 note=48 velocity=57 time=6
note_on channel=0 note=55 velocity=58 time=5
note_on channel=0 note=59 velocity=61 time=8
note_on channel=0 note=61 velocity=57 time=7
note_on channel=0 note=63 velocity=57 time=4
note_on channel=0 note=52 velocity=44 time=12
note_on channel=0 note=59 velocity=0 time=23
note_on channel=0 note=61 velocity=0 time=3
note_on channel=0 note=55 velocity=0 time=3
note_on channel=0 note=63 velocity=0 time=3
note_on channel=0 note=57 velocity=0 time=16
note_on channel=0 note=48 velocity=0 time=11
note_on channel=0 note=52 velocity=0 time=9
note_on channel=0 note=60 velocity=75 time=255
note_on channel=0 note=59 velocity=79 time=8
note_on channel=0 note=66 velocity=48 time=13
note_on channel=0 note=54 velocity=52 time=4
note_on channel=0 note=65 velocity=60 time=6
note_on channel=0 note=53 velocity=44 time=25
note_on channel=0 note=57 velocity=37 time=6
note_on channel=0 note=59 velocity=0 time=4
note_on channel=0 note=65 velocity=0 time=11
note_on channel=0 note=66 velocity=0 time=0
note_on channel=0 note=60 velocity=0 time=12
note_on channel=0 note=54 velocity=0 time=16
note_on channel=0 note=57 velocity=0 time=12
note_on channel=0 note=53 velocity=0 time=4
note_on channel=0 note=63 velocity=66 time=238
note_on channel=0 note=62 velocity=65 time=3
note_on channel=0 note=65 velocity=65 time=0
note_on channel=0 note=64 velocity=66 time=2
note_on channel=0 note=58 velocity=55 time=8
note_on channel=0 note=57 velocity=49 time=14
note_on channel=0 note=71 velocity=49 time=6
note_on channel=0 note=69 velocity=41 time=7
note_on channel=0 note=64 velocity=0 time=7
note_on channel=0 note=65 velocity=0 time=0
note_on channel=0 note=62 velocity=0 time=19
note_on channel=0 note=57 velocity=0 time=16
note_on channel=0 note=71 velocity=0 time=4
note_on channel=0 note=58 velocity=0 time=8
note_on channel=0 note=63 velocity=0 time=5
note_on channel=0 note=69 velocity=0 time=3
note_on channel=0 note=72 velocity=69 time=274
note_on channel=0 note=78 velocity=68 time=2
note_on channel=0 note=69 velocity=60 time=11
note_on channel=0 note=67 velocity=48 time=14
note_on channel=0 note=64 velocity=39 time=12
note_on channel=0 note=69 velocity=0 time=26
note_on channel=0 note=72 velocity=0 time=3
note_on channel=0 note=78 velocity=0 time=3
note_on channel=0 note=67 velocity=0 time=8
note_on channel=0 note=64 velocity=0 time=28
note_on channel=0 note=85 velocity=49 time=341
note_on channel=0 note=77 velocity=39 time=3
note_on channel=0 note=78 velocity=49 time=29
note_on channel=0 note=73 velocity=45 time=13
note_on channel=0 note=85 velocity=0 time=4
note_on channel=0 note=75 velocity=39 time=18
note_on channel=0 note=77 velocity=0 time=17
note_on channel=0 note=78 velocity=0 time=4
note_on channel=0 note=73 velocity=0 time=14
note_on channel=0 note=75 velocity=0 time=22
note_on channel=0 note=93 velocity=74 time=662
note_on channel=0 note=83 velocity=87 time=6
note_on channel=0 note=84 velocity=78 time=4
note_on channel=0 note=87 velocity=68 time=8
note_on channel=0 note=76 velocity=53 time=2
note_on channel=0 note=82 velocity=73 time=5
note_on channel=0 note=77 velocity=52 time=3
note_on channel=0 note=78 velocity=68 time=8
note_on channel=0 note=89 velocity=46 time=0
note_on channel=0 note=91 velocity=53 time=2
note_on channel=0 note=87 velocity=0 time=12
note_on channel=0 note=84 velocity=0 time=4
note_on channel=0 note=80 velocity=45 time=2
note_on channel=0 note=76 velocity=0 time=22
note_on channel=0 note=91 velocity=0 time=6
note_on channel=0 note=83 velocity=0 time=7
note_on channel=0 note=77 velocity=0 time=3
note_on channel=0 note=89 velocity=0 time=14
note_on channel=0 note=80 velocity=0 time=9
note_on channel=0 note=78 velocity=0 time=21
note_on channel=0 note=82 velocity=0 time=7
note_on channel=0 note=91 velocity=44 time=26
note_on channel=0 note=89 velocity=47 time=30
note_on channel=0 note=83 velocity=42 time=22
note_on channel=0 note=82 velocity=51 time=2
note_on channel=0 note=91 velocity=0 time=13
note_on channel=0 note=93 velocity=0 time=23
note_on channel=0 note=83 velocity=0 time=28
note_on channel=0 note=87 velocity=52 time=7
note_on channel=0 note=89 velocity=0 time=38
note_on channel=0 note=87 velocity=0 time=19
note_on channel=0 note=82 velocity=0 time=7
note_on channel=0 note=84 velocity=63 time=3
note_on channel=0 note=79 velocity=54 time=76
note_on channel=0 note=84 velocity=0 time=19
note_on channel=0 note=80 velocity=63 time=18
note_on channel=0 note=78 velocity=61 time=11
note_on channel=0 note=79 velocity=0 time=2
note_on channel=0 note=85 velocity=53 time=15
note_on channel=0 note=86 velocity=61 time=26
note_on channel=0 note=85 velocity=0 time=19
note_on channel=0 note=78 velocity=0 time=2
note_on channel=0 note=84 velocity=48 time=2
note_on channel=0 note=80 velocity=0 time=4
note_on channel=0 note=77 velocity=40 time=8
note_on channel=0 note=86 velocity=0 time=18
note_on channel=0 note=82 velocity=43 time=14
note_on channel=0 note=83 velocity=53 time=2
note_on channel=0 note=84 velocity=0 time=2
note_on channel=0 note=77 velocity=0 time=19
note_on channel=0 note=79 velocity=56 time=9
note_on channel=0 note=71 velocity=51 time=17
note_on channel=0 note=76 velocity=43 time=2
note_on channel=0 note=82 velocity=0 time=13
note_on channel=0 note=83 velocity=0 time=3
note_on channel=0 note=77 velocity=33 time=13
note_on channel=0 note=71 velocity=0 time=25
note_on channel=0 note=73 velocity=82 time=51
note_on channel=0 note=80 velocity=57 time=7
note_on channel=0 note=79 velocity=0 time=11
note_on channel=0 note=83 velocity=50 time=2
note_on channel=0 note=70 velocity=61 time=7
note_on channel=0 note=76 velocity=0 time=4
note_on channel=0 note=77 velocity=0 time=23
note_on channel=0 note=70 velocity=0 time=7
note_on channel=0 note=81 velocity=43 time=0
note_on channel=0 note=83 velocity=0 time=15
note_on channel=0 note=73 velocity=0 time=8
note_on channel=0 note=80 velocity=0 time=1
note_on channel=0 note=78 velocity=58 time=16
note_on channel=0 note=81 velocity=0 time=14
note_on channel=0 note=78 velocity=0 time=24
note_on channel=0 note=70 velocity=43 time=2
note_on channel=0 note=71 velocity=66 time=21
note_on channel=0 note=72 velocity=43 time=7
note_on channel=0 note=76 velocity=42 time=2
note_on channel=0 note=74 velocity=48 time=12
note_on channel=0 note=73 velocity=34 time=18
note_on channel=0 note=70 velocity=0 time=4
note_on channel=0 note=76 velocity=0 time=29
note_on channel=0 note=73 velocity=0 time=8
note_on channel=0 note=74 velocity=0 time=9
note_on channel=0 note=70 velocity=56 time=15
note_on channel=0 note=68 velocity=41 time=8
note_on channel=0 note=71 velocity=0 time=6
note_on channel=0 note=66 velocity=53 time=3
note_on channel=0 note=72 velocity=0 time=10
note_on channel=0 note=76 velocity=56 time=8
note_on channel=0 note=70 velocity=0 time=7
note_on channel=0 note=74 velocity=60 time=7
note_on channel=0 note=66 velocity=0 time=10
note_on channel=0 note=68 velocity=0 time=11
note_on channel=0 note=76 velocity=0 time=14
note_on channel=0 note=74 velocity=0 time=10
note_on channel=0 note=72 velocity=35 time=20
note_on channel=0 note=71 velocity=39 time=13
note_on channel=0 note=67 velocity=46 time=10
note_on channel=0 note=70 velocity=33 time=8
note_on channel=0 note=65 velocity=56 time=4
note_on channel=0 note=72 velocity=0 time=11
note_on channel=0 note=66 velocity=48 time=6
note_on channel=0 note=68 velocity=39 time=16
note_on channel=0 note=71 velocity=0 time=12
note_on channel=0 note=67 velocity=0 time=5
note_on channel=0 note=70 velocity=0 time=0
note_on channel=0 note=65 velocity=0 time=7
note_on channel=0 note=66 velocity=0 time=6
note_on channel=0 note=68 velocity=0 time=14
note_on channel=0 note=68 velocity=49 time=76
note_on channel=0 note=57 velocity=41 time=37
note_on channel=0 note=68 velocity=0 time=3
note_on channel=0 note=67 velocity=49 time=15
note_on channel=0 note=62 velocity=33 time=11
note_on channel=0 note=65 velocity=40 time=28
note_on channel=0 note=57 velocity=0 time=5
note_on channel=0 note=64 velocity=55 time=0
note_on channel=0 note=67 velocity=0 time=18
note_on channel=0 note=61 velocity=31 time=19
note_on channel=0 note=64 velocity=0 time=31
note_on channel=0 note=65 velocity=0 time=10
note_on channel=0 note=62 velocity=0 time=27
note_on channel=0 note=53 velocity=38 time=7
note_on channel=0 note=59 velocity=34 time=11
note_on channel=0 note=61 velocity=0 time=25
note_on channel=0 note=58 velocity=64 time=13
note_on channel=0 note=53 velocity=0 time=9
note_on channel=0 note=59 velocity=0 time=9
note_on channel=0 note=63 velocity=56 time=5
note_on channel=0 note=58 velocity=0 time=20
note_on channel=0 note=62 velocity=37 time=61
note_on channel=0 note=63 velocity=0 time=16
note_on channel=0 note=59 velocity=51 time=40
note_on channel=0 note=53 velocity=52 time=8
note_on channel=0 note=62 velocity=0 time=0
note_on channel=0 note=51 velocity=57 time=13
note_on channel=0 note=54 velocity=57 time=17
note_on channel=0 note=59 velocity=0 time=13
note_on channel=0 note=53 velocity=0 time=11
note_on channel=0 note=51 velocity=0 time=6
note_on channel=0 note=54 velocity=0 time=9
note_on channel=0 note=50 velocity=63 time=83
note_on channel=0 note=52 velocity=41 time=29
note_on channel=0 note=46 velocity=64 time=15
note_on channel=0 note=50 velocity=0 time=1
note_on channel=0 note=42 velocity=45 time=36
note_on channel=0 note=52 velocity=0 time=6
note_on channel=0 note=46 velocity=0 time=23
note_on channel=0 note=42 velocity=0 time=18
note_on channel=0 note=47 velocity=57 time=61
note_on channel=0 note=45 velocity=61 time=10
note_on channel=0 note=43 velocity=65 time=26
note_on channel=0 note=47 velocity=0 time=49
note_on channel=0 note=46 velocity=35 time=11
note_on channel=0 note=37 velocity=59 time=17
note_on channel=0 note=34 velocity=59 time=7
note_on channel=0 note=43 velocity=0 time=23
note_on channel=0 note=37 velocity=0 time=6
note_on channel=0 note=33 velocity=43 time=2
note_on channel=0 note=46 velocity=0 time=9
note_on channel=0 note=34 velocity=0 time=10
note_on channel=0 note=36 velocity=33 time=0
note_on channel=0 note=45 velocity=0 time=0
note_on channel=0 note=36 velocity=0 time=44
note_on channel=0 note=33 velocity=0 time=3
note_on channel=0 note=48 velocity=47 time=2
note_on channel=0 note=36 velocity=66 time=57
note_on channel=0 note=44 velocity=64 time=3
note_on channel=0 note=38 velocity=64 time=1
note_on channel=0 note=48 velocity=0 time=6
note_on channel=0 note=42 velocity=53 time=45
note_on channel=0 note=38 velocity=0 time=24
note_on channel=0 note=28 velocity=57 time=9
note_on channel=0 note=44 velocity=0 time=10
note_on channel=0 note=26 velocity=66 time=2
note_on channel=0 note=42 velocity=0 time=2
note_on channel=0 note=29 velocity=61 time=2
note_on channel=0 note=36 velocity=0 time=37
note_on channel=0 note=29 velocity=0 time=13
note_on channel=0 note=26 velocity=0 time=41
note_on channel=0 note=33 velocity=80 time=36
note_on channel=0 note=26 velocity=43 time=12
note_on channel=0 note=31 velocity=59 time=4
note_on channel=0 note=24 velocity=48 time=8
note_on channel=0 note=28 velocity=0 time=16
note_on channel=0 note=39 velocity=61 time=4
note_on channel=0 note=31 velocity=0 time=12
note_on channel=0 note=26 velocity=0 time=10
note_on channel=0 note=24 velocity=0 time=10
note_on channel=0 note=23 velocity=95 time=64
note_on channel=0 note=21 velocity=104 time=1
note_on channel=0 note=33 velocity=0 time=2
note_on channel=0 note=39 velocity=0 time=60
note_on channel=0 note=21 velocity=0 time=32
note_on channel=0 note=23 velocity=0 time=4
note_on channel=0 note=58 velocity=57 time=231
note_on channel=0 note=57 velocity=75 time=2
note_on channel=0 note=55 velocity=93 time=7
note_on channel=0 note=49 velocity=66 time=2
note_on channel=0 note=54 velocity=82 time=2
note_on channel=0 note=51 velocity=51 time=9
note_on channel=0 note=68 velocity=40 time=8
note_on channel=0 note=48 velocity=61 time=2
note_on channel=0 note=52 velocity=61 time=5
note_on channel=0 note=58 velocity=0 time=2
note_on channel=0 note=61 velocity=39 time=1
note_on channel=0 note=54 velocity=0 time=7
note_on channel=0 note=57 velocity=0 time=15
note_on channel=0 note=51 velocity=0 time=8
note_on channel=0 note=48 velocity=0 time=5
note_on channel=0 note=52 velocity=0 time=2
note_on channel=0 note=55 velocity=0 time=3
note_on channel=0 note=49 velocity=0 time=7
note_on channel=0 note=68 velocity=0 time=3
note_on channel=0 note=61 velocity=0 time=3
note_on channel=0 note=62 velocity=75 time=255
note_on channel=0 note=64 velocity=65 time=12
note_on channel=0 note=66 velocity=63 time=3
note_on channel=0 note=58 velocity=82 time=1
note_on channel=0 note=52 velocity=66 time=4
note_on channel=0 note=60 velocity=57 time=2
note_on channel=0 note=56 velocity=55 time=1
note_on channel=0 note=59 velocity=40 time=7
note_on channel=0 note=55 velocity=75 time=3
note_on channel=0 note=63 velocity=52 time=0
note_on channel=0 note=57 velocity=65 time=4
note_on channel=0 note=53 velocity=58 time=1
note_on channel=0 note=64 velocity=0 time=22
note_on channel=0 note=60 velocity=0 time=4
note_on channel=0 note=57 velocity=0 time=9
note_on channel=0 note=56 velocity=0 time=1
note_on channel=0 note=66 velocity=0 time=7
note_on channel=0 note=63 velocity=0 time=2
note_on channel=0 note=53 velocity=0 time=4
note_on channel=0 note=55 velocity=0 time=4
note_on channel=0 note=62 velocity=0 time=2
note_on channel=0 note=59 velocity=0 time=2
note_on channel=0 note=58 velocity=0 time=10
note_on channel=0 note=52 velocity=0 time=14
note_on channel=0 note=65 velocity=60 time=230
note_on channel=0 note=58 velocity=61 time=4
note_on channel=0 note=64 velocity=79 time=1
note_on channel=0 note=70 velocity=75 time=1
note_on channel=0 note=61 velocity=69 time=2
note_on channel=0 note=63 velocity=75 time=0
note_on channel=0 note=59 velocity=51 time=26
note_on channel=0 note=65 velocity=0 time=17
note_on channel=0 note=70 velocity=0 time=31
note_on channel=0 note=59 velocity=0 time=7
note_on channel=0 note=64 velocity=0 time=7
note_on channel=0 note=58 velocity=0 time=5
note_on channel=0 note=63 velocity=0 time=3
note_on channel=0 note=61 velocity=0 time=4
note_on channel=0 note=69 velocity=78 time=227
note_on channel=0 note=68 velocity=79 time=4
note_on channel=0 note=62 velocity=57 time=4
note_on channel=0 note=67 velocity=84 time=3
note_on channel=0 note=76 velocity=69 time=2
note_on channel=0 note=66 velocity=61 time=2
note_on channel=0 note=72 velocity=66 time=3
note_on channel=0 note=63 velocity=57 time=3
note_on channel=0 note=74 velocity=72 time=0
note_on channel=0 note=75 velocity=48 time=2
note_on channel=0 note=64 velocity=52 time=8
note_on channel=0 note=71 velocity=39 time=13
note_on channel=0 note=72 velocity=0 time=11
note_on channel=0 note=66 velocity=0 time=6
note_on channel=0 note=63 velocity=0 time=6
note_on channel=0 note=74 velocity=0 time=1
note_on channel=0 note=75 velocity=0 time=9
note_on channel=0 note=64 velocity=0 time=2
note_on channel=0 note=67 velocity=0 time=4
note_on channel=0 note=68 velocity=0 time=7
note_on channel=0 note=71 velocity=0 time=5
note_on channel=0 note=62 velocity=0 time=1
note_on channel=0 note=69 velocity=0 time=13
note_on channel=0 note=76 velocity=0 time=4
note_on channel=0 note=76 velocity=84 time=235
note_on channel=0 note=66 velocity=73 time=3
note_on channel=0 note=73 velocity=75 time=5
note_on channel=0 note=70 velocity=68 time=1
note_on channel=0 note=82 velocity=82 time=0
note_on channel=0 note=74 velocity=69 time=2
note_on channel=0 note=83 velocity=63 time=6
note_on channel=0 note=72 velocity=72 time=6
note_on channel=0 note=79 velocity=58 time=2
note_on channel=0 note=84 velocity=46 time=12
note_on channel=0 note=67 velocity=52 time=13
note_on channel=0 note=72 velocity=0 time=10
note_on channel=0 note=79 velocity=0 time=10
note_on channel=0 note=83 velocity=0 time=6
note_on channel=0 note=76 velocity=0 time=4
note_on channel=0 note=74 velocity=0 time=9
note_on channel=0 note=67 velocity=0 time=16
note_on channel=0 note=84 velocity=0 time=1
note_on channel=0 note=66 velocity=0 time=4
note_on channel=0 note=73 velocity=0 time=17
note_on channel=0 note=70 velocity=0 time=10
note_on channel=0 note=82 velocity=0 time=36
note_on channel=0 note=79 velocity=75 time=211
note_on channel=0 note=77 velocity=57 time=3
note_on channel=0 note=85 velocity=73 time=0
note_on channel=0 note=73 velocity=63 time=2
note_on channel=0 note=82 velocity=66 time=1
note_on channel=0 note=76 velocity=69 time=4
note_on channel=0 note=87 velocity=59 time=5
note_on channel=0 note=89 velocity=48 time=6
note_on channel=0 note=75 velocity=46 time=3
note_on channel=0 note=88 velocity=56 time=2
note_on channel=0 note=69 velocity=56 time=1
note_on channel=0 note=70 velocity=49 time=0
note_on channel=0 note=87 velocity=0 time=24
note_on channel=0 note=73 velocity=0 time=20
note_on channel=0 note=88 velocity=0 time=5
note_on channel=0 note=70 velocity=0 time=5
note_on channel=0 note=75 velocity=0 time=2
note_on channel=0 note=76 velocity=0 time=4
note_on channel=0 note=82 velocity=0 time=4
note_on channel=0 note=89 velocity=0 time=1
note_on channel=0 note=69 velocity=0 time=4
note_on channel=0 note=79 velocity=0 time=39
note_on channel=0 note=77 velocity=0 time=6
note_on channel=0 note=85 velocity=0 time=30
note_on channel=0 note=83 velocity=87 time=216
note_on channel=0 note=81 velocity=84 time=4
note_on channel=0 note=93 velocity=84 time=1
note_on channel=0 note=87 velocity=84 time=2
note_on channel=0 note=89 velocity=74 time=4
note_on channel=0 note=78 velocity=70 time=3
note_on channel=0 note=91 velocity=67 time=5
note_on channel=0 note=73 velocity=61 time=3
note_on channel=0 note=72 velocity=58 time=11
note_on channel=0 note=79 velocity=61 time=9
note_on channel=0 note=76 velocity=45 time=9
note_on channel=0 note=77 velocity=49 time=25
note_on channel=0 note=93 velocity=0 time=195
note_on channel=0 note=78 velocity=0 time=18
note_on channel=0 note=79 velocity=0 time=3
note_on channel=0 note=77 velocity=0 time=1
note_on channel=0 note=89 velocity=0 time=2
note_on channel=0 note=87 velocity=0 time=4
note_on channel=0 note=83 velocity=0 time=8
note_on channel=0 note=91 velocity=0 time=6
note_on channel=0 note=81 velocity=0 time=1
note_on channel=0 note=76 velocity=0 time=7
note_on channel=0 note=72 velocity=0 time=21
note_on channel=0 note=73 velocity=0 time=2
note_on channel=0 note=96 velocity=87 time=1019
note_on channel=0 note=86 velocity=97 time=2
note_on channel=0 note=85 velocity=85 time=3
note_on channel=0 note=88 velocity=84 time=1
note_on channel=0 note=90 velocity=62 time=11
note_on channel=0 note=79 velocity=60 time=4
note_on channel=0 note=92 velocity=55 time=5
note_on channel=0 note=88 velocity=0 time=13
note_on channel=0 note=77 velocity=39 time=7
note_on channel=0 note=90 velocity=0 time=7
note_on channel=0 note=79 velocity=0 time=15
note_on channel=0 note=92 velocity=0 time=2
note_on channel=0 note=77 velocity=0 time=28
note_on channel=0 note=85 velocity=0 time=6
note_on channel=0 note=86 velocity=0 time=10
note_on channel=0 note=92 velocity=44 time=64
note_on channel=0 note=80 velocity=47 time=4
note_on channel=0 note=85 velocity=48 time=11
note_on channel=0 note=96 velocity=0 time=6
note_on channel=0 note=81 velocity=36 time=28
note_on channel=0 note=90 velocity=57 time=0
note_on channel=0 note=92 velocity=0 time=22
note_on channel=0 note=80 velocity=0 time=6
note_on channel=0 note=90 velocity=0 time=7
note_on channel=0 note=88 velocity=47 time=9
note_on channel=0 note=81 velocity=0 time=4
note_on channel=0 note=85 velocity=0 time=82
note_on channel=0 note=78 velocity=52 time=31
note_on channel=0 note=80 velocity=53 time=15
note_on channel=0 note=81 velocity=44 time=21
note_on channel=0 note=79 velocity=42 time=6
note_on channel=0 note=86 velocity=46 time=3
note_on channel=0 note=78 velocity=0 time=7
note_on channel=0 note=88 velocity=0 time=1
note_on channel=0 note=80 velocity=0 time=14
note_on channel=0 note=83 velocity=65 time=32
note_on channel=0 note=84 velocity=43 time=0
note_on channel=0 note=86 velocity=0 time=20
note_on channel=0 note=81 velocity=0 time=3
note_on channel=0 note=80 velocity=58 time=9
note_on channel=0 note=83 velocity=0 time=16
note_on channel=0 note=84 velocity=0 time=11
note_on channel=0 note=77 velocity=52 time=2
note_on channel=0 note=80 velocity=0 time=12
note_on channel=0 note=75 velocity=40 time=73
note_on channel=0 note=74 velocity=56 time=4
note_on channel=0 note=79 velocity=0 time=5
note_on channel=0 note=80 velocity=39 time=0
note_on channel=0 note=74 velocity=0 time=38
note_on channel=0 note=77 velocity=0 time=3
note_on channel=0 note=75 velocity=0 time=13
note_on channel=0 note=80 velocity=0 time=26
note_on channel=0 note=81 velocity=36 time=6
note_on channel=0 note=76 velocity=56 time=43
note_on channel=0 note=81 velocity=0 time=1
note_on channel=0 note=72 velocity=53 time=12
note_on channel=0 note=76 velocity=0 time=33
note_on channel=0 note=73 velocity=63 time=3
note_on channel=0 note=68 velocity=55 time=15
note_on channel=0 note=71 velocity=33 time=6
note_on channel=0 note=73 velocity=0 time=15
note_on channel=0 note=68 velocity=0 time=20
note_on channel=0 note=72 velocity=0 time=18
note_on channel=0 note=71 velocity=0 time=14
note_on channel=0 note=75 velocity=56 time=10
note_on channel=0 note=73 velocity=51 time=3
note_on channel=0 note=60 velocity=69 time=28
note_on channel=0 note=65 velocity=72 time=6
note_on channel=0 note=75 velocity=0 time=1
note_on channel=0 note=59 velocity=57 time=13
note_on channel=0 note=60 velocity=0 time=17
note_on channel=0 note=65 velocity=0 time=20
note_on channel=0 note=73 velocity=0 time=1
note_on channel=0 note=59 velocity=0 time=11
note_on channel=0 note=70 velocity=53 time=7
note_on channel=0 note=63 velocity=46 time=4
note_on channel=0 note=68 velocity=58 time=16
note_on channel=0 note=60 velocity=46 time=11
note_on channel=0 note=62 velocity=39 time=10
note_on channel=0 note=65 velocity=53 time=2
note_on channel=0 note=70 velocity=0 time=7
note_on channel=0 note=63 velocity=0 time=17
note_on channel=0 note=68 velocity=0 time=16
note_on channel=0 note=60 velocity=0 time=15
note_on channel=0 note=62 velocity=0 time=6
note_on channel=0 note=60 velocity=58 time=50
note_on channel=0 note=65 velocity=0 time=11
note_on channel=0 note=53 velocity=35 time=22
note_on channel=0 note=60 velocity=0 time=7
note_on channel=0 note=56 velocity=64 time=19
note_on channel=0 note=65 velocity=53 time=14
note_on channel=0 note=56 velocity=0 time=21
note_on channel=0 note=64 velocity=43 time=30
note_on channel=0 note=65 velocity=0 time=2
note_on channel=0 note=53 velocity=0 time=1
note_on channel=0 note=61 velocity=56 time=11
note_on channel=0 note=56 velocity=42 time=39
note_on channel=0 note=64 velocity=0 time=13
note_on channel=0 note=61 velocity=0 time=1
note_on channel=0 note=55 velocity=26 time=3
note_on channel=0 note=57 velocity=53 time=12
note_on channel=0 note=56 velocity=0 time=25
note_on channel=0 note=58 velocity=46 time=15
note_on channel=0 note=46 velocity=64 time=38
note_on channel=0 note=49 velocity=64 time=12
note_on channel=0 note=57 velocity=0 time=13
note_on channel=0 note=46 velocity=0 time=7
note_on channel=0 note=55 velocity=0 time=5
note_on channel=0 note=49 velocity=0 time=10
note_on channel=0 note=50 velocity=63 time=1
note_on channel=0 note=48 velocity=51 time=14
note_on channel=0 note=59 velocity=44 time=20
note_on channel=0 note=50 velocity=0 time=32
note_on channel=0 note=48 velocity=0 time=7
note_on channel=0 note=58 velocity=0 time=9
note_on channel=0 note=54 velocity=61 time=22
note_on channel=0 note=59 velocity=0 time=2
note_on channel=0 note=48 velocity=57 time=35
note_on channel=0 note=54 velocity=0 time=6
note_on channel=0 note=43 velocity=41 time=13
note_on channel=0 note=41 velocity=45 time=13
note_on channel=0 note=50 velocity=33 time=25
note_on channel=0 note=42 velocity=66 time=9
note_on channel=0 note=43 velocity=0 time=11
note_on channel=0 note=48 velocity=0 time=25
note_on channel=0 note=42 velocity=0 time=5
note_on channel=0 note=50 velocity=0 time=4
note_on channel=0 note=43 velocity=48 time=8
note_on channel=0 note=43 velocity=0 time=48
note_on channel=0 note=41 velocity=0 time=3
note_on channel=0 note=52 velocity=42 time=3
note_on channel=0 note=50 velocity=36 time=34
note_on channel=0 note=52 velocity=0 time=23
note_on channel=0 note=43 velocity=57 time=10
note_on channel=0 note=50 velocity=0 time=20
note_on channel=0 note=47 velocity=43 time=22
note_on channel=0 note=45 velocity=44 time=18
note_on channel=0 note=42 velocity=66 time=23
note_on channel=0 note=34 velocity=49 time=10
note_on channel=0 note=36 velocity=55 time=17
note_on channel=0 note=47 velocity=0 time=0
note_on channel=0 note=43 velocity=0 time=4
note_on channel=0 note=33 velocity=36 time=8
note_on channel=0 note=45 velocity=0 time=6
note_on channel=0 note=34 velocity=0 time=11
note_on channel=0 note=35 velocity=39 time=3
note_on channel=0 note=36 velocity=0 time=18
note_on channel=0 note=42 velocity=0 time=28
note_on channel=0 note=33 velocity=0 time=1
note_on channel=0 note=35 velocity=0 time=16
note_on channel=0 note=44 velocity=59 time=6
note_on channel=0 note=36 velocity=49 time=27
note_on channel=0 note=44 velocity=0 time=11
note_on channel=0 note=26 velocity=59 time=39
note_on channel=0 note=27 velocity=49 time=11
note_on channel=0 note=37 velocity=57 time=8
note_on channel=0 note=36 velocity=0 time=14
note_on channel=0 note=28 velocity=57 time=3
note_on channel=0 note=27 velocity=0 time=37
note_on channel=0 note=37 velocity=0 time=48
note_on channel=0 note=33 velocity=51 time=8
note_on channel=0 note=28 velocity=0 time=5
note_on channel=0 note=32 velocity=53 time=0
note_on channel=0 note=26 velocity=0 time=4
note_on channel=0 note=31 velocity=61 time=14
note_on channel=0 note=29 velocity=53 time=19
note_on channel=0 note=32 velocity=0 time=4
note_on channel=0 note=33 velocity=0 time=51
note_on channel=0 note=21 velocity=76 time=26
note_on channel=0 note=35 velocity=48 time=21
note_on channel=0 note=31 velocity=0 time=13
note_on channel=0 note=23 velocity=49 time=3
note_on channel=0 note=24 velocity=56 time=1
note_on channel=0 note=29 velocity=0 time=7
note_on channel=0 note=30 velocity=53 time=7
note_on channel=0 note=35 velocity=0 time=12
note_on channel=0 note=21 velocity=0 time=23
note_on channel=0 note=26 velocity=44 time=20
note_on channel=0 note=28 velocity=76 time=31
note_on channel=0 note=31 velocity=45 time=6
note_on channel=0 note=30 velocity=0 time=38
note_on channel=0 note=29 velocity=61 time=9
note_on channel=0 note=24 velocity=0 time=7
note_on channel=0 note=31 velocity=0 time=2
note_on channel=0 note=23 velocity=0 time=5
note_on channel=0 note=26 velocity=0 time=3
note_on channel=0 note=27 velocity=44 time=2
note_on channel=0 note=27 velocity=0 time=54
note_on channel=0 note=34 velocity=75 time=2
note_on channel=0 note=30 velocity=43 time=4
note_on channel=0 note=29 velocity=0 time=15
note_on channel=0 note=34 velocity=0 time=9
note_on channel=0 note=28 velocity=0 time=4
note_on channel=0 note=30 velocity=0 time=34
note_on channel=0 note=64 velocity=79 time=329
note_on channel=0 note=52 velocity=82 time=5
note_on channel=0 note=70 velocity=66 time=3
note_on channel=0 note=58 velocity=82 time=3
note_on channel=0 note=60 velocity=75 time=1
note_on channel=0 note=74 velocity=57 time=1
note_on channel=0 note=68 velocity=55 time=3
note_on channel=0 note=73 velocity=56 time=2
note_on channel=0 note=59 velocity=75 time=6
note_on channel=0 note=55 velocity=60 time=5
note_on channel=0 note=64 velocity=0 time=4
note_on channel=0 note=70 velocity=0 time=12
note_on channel=0 note=58 velocity=0 time=4
note_on channel=0 note=73 velocity=0 time=9
note_on channel=0 note=74 velocity=0 time=1
note_on channel=0 note=59 velocity=0 time=2
note_on channel=0 note=68 velocity=0 time=1
note_on channel=0 note=60 velocity=0 time=2
note_on channel=0 note=55 velocity=0 time=5
note_on channel=0 note=52 velocity=0 time=25
note_on channel=0 note=65 velocity=63 time=285
note_on channel=0 note=63 velocity=59 time=8
note_on channel=0 note=73 velocity=63 time=1
note_on channel=0 note=58 velocity=57 time=2
note_on channel=0 note=62 velocity=60 time=3
note_on channel=0 note=64 velocity=57 time=1
note_on channel=0 note=57 velocity=53 time=6
note_on channel=0 note=63 velocity=0 time=35
note_on channel=0 note=64 velocity=0 time=3
note_on channel=0 note=62 velocity=0 time=4
note_on channel=0 note=57 velocity=0 time=13
note_on channel=0 note=65 velocity=0 time=1
note_on channel=0 note=73 velocity=0 time=10
note_on channel=0 note=58 velocity=0 time=23
note_on channel=0 note=70 velocity=70 time=258
note_on channel=0 note=63 velocity=62 time=2
note_on channel=0 note=61 velocity=59 time=5
note_on channel=0 note=64 velocity=57 time=1
note_on channel=0 note=65 velocity=39 time=32
note_on channel=0 note=64 velocity=0 time=40
note_on channel=0 note=65 velocity=0 time=14
note_on channel=0 note=63 velocity=0 time=2
note_on channel=0 note=61 velocity=0 time=37
note_on channel=0 note=70 velocity=0 time=12
note_on channel=0 note=65 velocity=72 time=152
note_on channel=0 note=67 velocity=69 time=2
note_on channel=0 note=73 velocity=70 time=4
note_on channel=0 note=63 velocity=72 time=4
note_on channel=0 note=61 velocity=69 time=1
note_on channel=0 note=70 velocity=55 time=6
note_on channel=0 note=58 velocity=47 time=14
note_on channel=0 note=70 velocity=0 time=29
note_on channel=0 note=58 velocity=0 time=24
note_on channel=0 note=65 velocity=0 time=16
note_on channel=0 note=67 velocity=0 time=11
note_on channel=0 note=73 velocity=0 time=4
note_on channel=0 note=63 velocity=0 time=5
note_on channel=0 note=61 velocity=0 time=11
note_on channel=0 note=69 velocity=69 time=199
note_on channel=0 note=77 velocity=65 time=3
note_on channel=0 note=67 velocity=63 time=6
note_on channel=0 note=63 velocity=56 time=1
note_on channel=0 note=65 velocity=66 time=5
note_on channel=0 note=59 velocity=57 time=5
note_on channel=0 note=74 velocity=56 time=15
note_on channel=0 note=64 velocity=47 time=10
note_on channel=0 note=65 velocity=0 time=30
note_on channel=0 note=74 velocity=0 time=9
note_on channel=0 note=67 velocity=0 time=6
note_on channel=0 note=64 velocity=0 time=12
note_on channel=0 note=69 velocity=0 time=3
note_on channel=0 note=59 velocity=0 time=9
note_on channel=0 note=77 velocity=0 time=3
note_on channel=0 note=63 velocity=0 time=38
note_on channel=0 note=71 velocity=60 time=195
note_on channel=0 note=69 velocity=66 time=6
note_on channel=0 note=75 velocity=64 time=4
note_on channel=0 note=60 velocity=61 time=4
note_on channel=0 note=68 velocity=66 time=1
note_on channel=0 note=64 velocity=35 time=50
note_on channel=0 note=69 velocity=0 time=29
note_on channel=0 note=71 velocity=0 time=6
note_on channel=0 note=64 velocity=0 time=15
note_on channel=0 note=68 velocity=0 time=13
note_on channel=0 note=75 velocity=0 time=11
note_on channel=0 note=60 velocity=0 time=17
note_on channel=0 note=73 velocity=63 time=176
note_on channel=0 note=60 velocity=37 time=15
note_on channel=0 note=68 velocity=68 time=1
note_on channel=0 note=75 velocity=58 time=1
note_on channel=0 note=64 velocity=56 time=22
note_on channel=0 note=73 velocity=0 time=123
note_on channel=0 note=60 velocity=0 time=7
note_on channel=0 note=75 velocity=0 time=1
note_on channel=0 note=64 velocity=0 time=2
note_on channel=0 note=68 velocity=0 time=31
note_on channel=0 note=78 velocity=64 time=126
note_on channel=0 note=71 velocity=72 time=3
note_on channel=0 note=68 velocity=60 time=1
note_on channel=0 note=60 velocity=53 time=6
note_on channel=0 note=74 velocity=56 time=1
note_on channel=0 note=72 velocity=63 time=1
note_on channel=0 note=66 velocity=61 time=3
note_on channel=0 note=66 velocity=0 time=46
note_on channel=0 note=72 velocity=0 time=36
note_on channel=0 note=74 velocity=0 time=16
note_on channel=0 note=71 velocity=0 time=23
note_on channel=0 note=60 velocity=0 time=8
note_on channel=0 note=78 velocity=0 time=30
note_on channel=0 note=68 velocity=0 time=8
note_on channel=0 note=72 velocity=61 time=137
note_on channel=0 note=83 velocity=66 time=6
note_on channel=0 note=66 velocity=61 time=14
note_on channel=0 note=74 velocity=60 time=2
note_on channel=0 note=68 velocity=64 time=8
note_on channel=0 note=80 velocity=44 time=14
note_on channel=0 note=74 velocity=0 time=29
note_on channel=0 note=80 velocity=0 time=54
note_on channel=0 note=72 velocity=0 time=39
note_on channel=0 note=68 velocity=0 time=1
note_on channel=0 note=83 velocity=0 time=17
note_on channel=0 note=66 velocity=0 time=6
note_on channel=0 note=74 velocity=63 time=163
note_on channel=0 note=80 velocity=64 time=10
note_on channel=0 note=68 velocity=58 time=6
note_on channel=0 note=71 velocity=66 time=1
note_on channel=0 note=63 velocity=57 time=10
note_on channel=0 note=67 velocity=57 time=11
note_on channel=0 note=78 velocity=32 time=20
note_on channel=0 note=67 velocity=0 time=28
note_on channel=0 note=78 velocity=0 time=8
note_on channel=0 note=74 velocity=0 time=28
note_on channel=0 note=71 velocity=0 time=13
note_on channel=0 note=80 velocity=0 time=6
note_on channel=0 note=68 velocity=0 time=2
note_on channel=0 note=63 velocity=0 time=61
note_on channel=0 note=75 velocity=63 time=126
note_on channel=0 note=78 velocity=66 time=1
note_on channel=0 note=68 velocity=55 time=4
note_on channel=0 note=63 velocity=46 time=1
note_on channel=0 note=72 velocity=66 time=6
note_on channel=0 note=70 velocity=66 time=1
note_on channel=0 note=75 velocity=0 time=154
note_on channel=0 note=72 velocity=0 time=4
note_on channel=0 note=63 velocity=0 time=3
note_on channel=0 note=78 velocity=0 time=3
note_on channel=0 note=70 velocity=0 time=9
note_on channel=0 note=68 velocity=0 time=5
note_on channel=0 note=76 velocity=66 time=151
note_on channel=0 note=82 velocity=68 time=5
note_on channel=0 note=74 velocity=72 time=6
note_on channel=0 note=70 velocity=64 time=10
note_on channel=0 note=68 velocity=63 time=7
note_on channel=0 note=64 velocity=50 time=4
note_on channel=0 note=80 velocity=45 time=3
note_on channel=0 note=64 velocity=0 time=48
note_on channel=0 note=76 velocity=0 time=13
note_on channel=0 note=80 velocity=0 time=5
note_on channel=0 note=74 velocity=0 time=8
note_on channel=0 note=82 velocity=0 time=43
note_on channel=0 note=68 velocity=0 time=11
note_on channel=0 note=70 velocity=0 time=14
note_on channel=0 note=77 velocity=72 time=188
note_on channel=0 note=78 velocity=68 time=8
note_on channel=0 note=84 velocity=61 time=4
note_on channel=0 note=66 velocity=49 time=7
note_on channel=0 note=70 velocity=63 time=2
note_on channel=0 note=74 velocity=69 time=0
note_on channel=0 note=72 velocity=65 time=5
note_on channel=0 note=76 velocity=56 time=3
note_on channel=0 note=65 velocity=61 time=8
note_on channel=0 note=83 velocity=39 time=21
note_on channel=0 note=76 velocity=0 time=27
note_on channel=0 note=77 velocity=0 time=22
note_on channel=0 note=65 velocity=0 time=15
note_on channel=0 note=66 velocity=0 time=9
note_on channel=0 note=83 velocity=0 time=0
note_on channel=0 note=74 velocity=0 time=4
note_on channel=0 note=78 velocity=0 time=15
note_on channel=0 note=84 velocity=0 time=7
note_on channel=0 note=70 velocity=0 time=2
note_on channel=0 note=72 velocity=0 time=9
note_on channel=0 note=74 velocity=72 time=223
note_on channel=0 note=79 velocity=60 time=3
note_on channel=0 note=65 velocity=57 time=4
note_on channel=0 note=80 velocity=63 time=0
note_on channel=0 note=82 velocity=63 time=2
note_on channel=0 note=73 velocity=68 time=2
note_on channel=0 note=78 velocity=60 time=1
note_on channel=0 note=70 velocity=60 time=7
note_on channel=0 note=68 velocity=44 time=31
note_on channel=0 note=68 velocity=0 time=63
note_on channel=0 note=78 velocity=0 time=42
note_on channel=0 note=79 velocity=0 time=33
note_on channel=0 note=80 velocity=0 time=10
note_on channel=0 note=74 velocity=0 time=6
note_on channel=0 note=65 velocity=0 time=9
note_on channel=0 note=82 velocity=0 time=8
note_on channel=0 note=70 velocity=0 time=9
note_on channel=0 note=73 velocity=0 time=10
note_on channel=0 note=79 velocity=65 time=147
note_on channel=0 note=85 velocity=70 time=1
note_on channel=0 note=73 velocity=70 time=11
note_on channel=0 note=76 velocity=72 time=1
note_on channel=0 note=65 velocity=57 time=1
note_on channel=0 note=70 velocity=64 time=1
note_on channel=0 note=78 velocity=53 time=8
note_on channel=0 note=78 velocity=0 time=48
note_on channel=0 note=76 velocity=0 time=58
note_on channel=0 note=85 velocity=0 time=37
note_on channel=0 note=65 velocity=0 time=1
note_on channel=0 note=79 velocity=0 time=9
note_on channel=0 note=70 velocity=0 time=58
note_on channel=0 note=73 velocity=0 time=0
note_on channel=0 note=75 velocity=82 time=203
note_on channel=0 note=81 velocity=69 time=2
note_on channel=0 note=66 velocity=55 time=9
note_on channel=0 note=85 velocity=64 time=1
note_on channel=0 note=83 velocity=40 time=30
note_on channel=0 note=70 velocity=38 time=35
note_on channel=0 note=83 velocity=0 time=12
note_on channel=0 note=70 velocity=0 time=64
note_on channel=0 note=75 velocity=0 time=113
note_on channel=0 note=81 velocity=0 time=24
note_on channel=0 note=85 velocity=0 time=3
note_on channel=0 note=66 velocity=0 time=5
note_on channel=0 note=88 velocity=53 time=1410
note_on channel=0 note=77 velocity=50 time=10
note_on channel=0 note=53 velocity=48 time=19
note_on channel=0 note=82 velocity=47 time=10
note_on channel=0 note=60 velocity=53 time=7
note_on channel=0 note=64 velocity=46 time=6
note_on channel=0 note=85 velocity=30 time=21
note_on channel=0 note=57 velocity=34 time=3
note_on channel=0 note=77 velocity=0 time=26
note_on channel=0 note=82 velocity=0 time=6
note_on channel=0 note=64 velocity=0 time=5
note_on channel=0 note=88 velocity=0 time=10
note_on channel=0 note=85 velocity=0 time=6
note_on channel=0 note=60 velocity=0 time=8
note_on channel=0 note=57 velocity=0 time=16
note_on channel=0 note=53 velocity=0 time=22
note_on channel=0 note=54 velocity=36 time=1624
note_on channel=0 note=76 velocity=33 time=0
note_on channel=0 note=61 velocity=32 time=20
note_on channel=0 note=70 velocity=28 time=1
note_on channel=0 note=58 velocity=38 time=39
note_on channel=0 note=67 velocity=22 time=4
note_on channel=0 note=73 velocity=31 time=41
note_on channel=0 note=58 velocity=0 time=45
note_on channel=0 note=61 velocity=0 time=24
note_on channel=0 note=73 velocity=0 time=9
note_on channel=0 note=67 velocity=0 time=3
note_on channel=0 note=76 velocity=0 time=3
note_on channel=0 note=70 velocity=0 time=8
note_on channel=0 note=54 velocity=0 time=4
note_on channel=0 note=42 velocity=40 time=1923
note_on channel=0 note=54 velocity=36 time=7
note_on channel=0 note=61 velocity=39 time=6
note_on channel=0 note=55 velocity=36 time=3
note_on channel=0 note=63 velocity=35 time=48
note_on channel=0 note=61 velocity=0 time=22
note_on channel=0 note=54 velocity=0 time=21
note_on channel=0 note=42 velocity=0 time=1
note_on channel=0 note=55 velocity=0 time=12
note_on channel=0 note=63 velocity=0 time=3