note_on channel=5 note=63 velocity=56 time=254827
note_on channel=5 note=63 velocity=0 time=1439
note_on channel=5 note=63 velocity=62 time=861
note_on channel=5 note=63 velocity=0 time=1361
note_on channel=5 note=63 velocity=61 time=805
note_on channel=5 note=63 velocity=0 time=420
note_on channel=5 note=63 velocity=62 time=398
note_on channel=5 note=63 velocity=0 time=967
note_on channel=4 note=63 velocity=59 time=821
note_on channel=4 note=63 velocity=0 time=4431
note_on channel=5 note=65 velocity=43 time=642
note_on channel=5 note=61 velocity=33 time=9
note_on channel=5 note=60 velocity=45 time=628
note_on channel=5 note=63 velocity=42 time=1
note_on channel=5 note=56 velocity=39 time=5
note_on channel=5 note=51 velocity=39 time=10
note_on channel=4 note=65 velocity=0 time=13
note_on channel=4 note=61 velocity=0 time=22
note_on channel=5 note=63 velocity=0 time=385
note_on channel=5 note=61 velocity=41 time=48
note_on channel=5 note=65 velocity=46 time=19
note_on channel=5 note=60 velocity=0 time=30
note_on channel=5 note=51 velocity=0 time=470
note_on channel=4 note=50 velocity=41 time=32
note_on channel=1 note=65 velocity=0 time=25
note_on channel=5 note=66 velocity=53 time=6
note_on channel=5 note=62 velocity=47 time=4
note_on channel=5 note=60 velocity=43 time=13
note_on channel=4 note=61 velocity=0 time=33
note_on channel=5 note=56 velocity=0 time=54
control_change channel=4 control=64 value=127 time=217
note_on channel=5 note=66 velocity=0 time=226
note_on channel=4 note=62 velocity=0 time=168
note_on channel=4 note=60 velocity=0 time=38
note_on channel=1 note=50 velocity=0 time=32
note_on channel=1 note=63 velocity=51 time=256
note_on channel=4 note=58 velocity=48 time=3
note_on channel=4 note=68 velocity=55 time=2
note_on channel=4 note=54 velocity=42 time=9
note_on channel=5 note=50 velocity=41 time=21
control_change channel=5 control=64 value=0 time=118
control_change channel=5 control=64 value=127 time=250
note_on channel=1 note=58 velocity=0 time=346
note_on channel=4 note=54 velocity=0 time=29
note_on channel=1 note=50 velocity=0 time=11
note_on channel=4 note=68 velocity=0 time=606
note_on channel=5 note=63 velocity=0 time=108
note_on channel=4 note=34 velocity=48 time=652
control_change channel=5 control=64 value=0 time=343
note_on channel=4 note=41 velocity=41 time=20
control_change channel=5 control=64 value=127 time=213
note_on channel=5 note=48 velocity=39 time=203
note_on channel=5 note=34 velocity=0 time=111
note_on channel=4 note=41 velocity=0 time=150
note_on channel=4 note=55 velocity=50 time=67
note_on channel=5 note=48 velocity=0 time=95
note_on channel=4 note=55 velocity=0 time=195
note_on channel=5 note=62 velocity=53 time=106
note_on channel=4 note=62 velocity=0 time=248
note_on channel=4 note=69 velocity=45 time=182
note_on channel=4 note=76 velocity=47 time=458
note_on channel=4 note=81 velocity=60 time=434
note_on channel=4 note=76 velocity=0 time=89
note_on channel=4 note=81 velocity=0 time=455
note_on channel=4 note=88 velocity=61 time=3
note_on channel=4 note=69 velocity=0 time=538
note_on channel=1 note=69 velocity=45 time=830
note_on channel=4 note=81 velocity=46 time=6
note_on channel=1 note=88 velocity=0 time=13
note_on channel=5 note=69 velocity=0 time=858
note_on channel=4 note=81 velocity=0 time=256
note_on channel=4 note=59 velocity=44 time=939
control_change channel=4 control=64 value=0 time=237
note_on channel=5 note=66 velocity=43 time=171
control_change channel=4 control=64 value=127 time=84
note_on channel=4 note=73 velocity=56 time=298
note_on channel=4 note=80 velocity=49 time=488
note_on channel=4 note=87 velocity=59 time=446
note_on channel=5 note=80 velocity=0 time=73
note_on channel=5 note=73 velocity=0 time=295
note_on channel=4 note=66 velocity=0 time=5
note_on channel=4 note=80 velocity=49 time=12
note_on channel=4 note=87 velocity=0 time=35
note_on channel=4 note=59 velocity=0 time=94
note_on channel=4 note=73 velocity=40 time=207
note_on channel=4 note=73 velocity=0 time=391
note_on channel=4 note=66 velocity=43 time=11
note_on channel=5 note=66 velocity=0 time=242
note_on channel=1 note=66 velocity=24 time=143
note_on channel=4 note=66 velocity=0 time=145
note_on channel=5 note=59 velocity=50 time=39
note_on channel=1 note=59 velocity=0 time=179
note_on channel=4 note=80 velocity=0 time=1210
note_on channel=4 note=32 velocity=53 time=112
control_change channel=4 control=64 value=0 time=259
note_on channel=4 note=39 velocity=48 time=171
note_on channel=5 note=32 velocity=0 time=217
control_change channel=4 control=64 value=127 time=158
note_on channel=5 note=47 velocity=52 time=48
note_on channel=5 note=39 velocity=0 time=66
note_on channel=5 note=47 velocity=0 time=116
note_on channel=4 note=51 velocity=48 time=169
note_on channel=4 note=56 velocity=56 time=359
note_on channel=5 note=51 velocity=0 time=13
note_on channel=4 note=56 velocity=0 time=260
note_on channel=5 note=63 velocity=47 time=108
note_on channel=4 note=68 velocity=48 time=382
note_on channel=4 note=73 velocity=60 time=407
note_on channel=4 note=78 velocity=63 time=402
note_on channel=4 note=68 velocity=0 time=67
note_on channel=5 note=73 velocity=0 time=29
note_on channel=4 note=63 velocity=0 time=47
note_on channel=4 note=82 velocity=57 time=247
note_on channel=4 note=78 velocity=0 time=50
note_on channel=4 note=82 velocity=0 time=295
note_on channel=4 note=90 velocity=62 time=70
note_on channel=5 note=71 velocity=58 time=9
note_on channel=4 note=78 velocity=53 time=5
note_on channel=4 note=68 velocity=53 time=6
note_on channel=5 note=64 velocity=46 time=2
note_on channel=5 note=68 velocity=0 time=67
note_on channel=5 note=64 velocity=0 time=4
note_on channel=5 note=71 velocity=0 time=17
note_on channel=5 note=78 velocity=0 time=208
note_on channel=5 note=90 velocity=0 time=732
note_on channel=5 note=90 velocity=68 time=616
note_on channel=5 note=80 velocity=61 time=2
note_on channel=5 note=85 velocity=68 time=1
note_on channel=5 note=90 velocity=0 time=95
note_on channel=4 note=80 velocity=0 time=0
note_on channel=4 note=85 velocity=0 time=43
note_on channel=1 note=65 velocity=49 time=2289
note_on channel=1 note=70 velocity=57 time=4
note_on channel=5 note=77 velocity=50 time=1
note_on channel=5 note=64 velocity=39 time=20
note_on channel=5 note=55 velocity=48 time=2
note_on channel=4 note=48 velocity=44 time=1
control_change channel=5 control=64 value=0 time=604
control_change channel=4 control=64 value=127 time=446
note_on channel=5 note=64 velocity=0 time=1061
note_on channel=5 note=65 velocity=0 time=42
note_on channel=5 note=77 velocity=0 time=19
note_on channel=5 note=48 velocity=0 time=109
note_on channel=4 note=70 velocity=0 time=66
note_on channel=4 note=55 velocity=0 time=36
note_on channel=1 note=68 velocity=51 time=1204
note_on channel=1 note=74 velocity=50 time=5
note_on channel=4 note=64 velocity=46 time=7
note_on channel=5 note=54 velocity=46 time=19
note_on channel=4 note=51 velocity=43 time=12
note_on channel=5 note=46 velocity=38 time=24
control_change channel=5 control=64 value=0 time=140
control_change channel=5 control=64 value=127 time=211
note_on channel=5 note=51 velocity=0 time=697
note_on channel=1 note=54 velocity=0 time=366
note_on channel=5 note=46 velocity=0 time=186
note_on channel=4 note=64 velocity=0 time=319
note_on channel=4 note=74 velocity=0 time=74
note_on channel=1 note=68 velocity=0 time=6
note_on channel=5 note=35 velocity=55 time=672
control_change channel=5 control=64 value=0 time=72
note_on channel=4 note=38 velocity=47 time=21
note_on channel=4 note=41 velocity=49 time=34
note_on channel=4 note=47 velocity=66 time=52
control_change channel=4 control=64 value=127 time=5
note_on channel=4 note=35 velocity=0 time=37
note_on channel=4 note=38 velocity=0 time=24
note_on channel=4 note=41 velocity=0 time=20
note_on channel=4 note=47 velocity=0 time=6
note_on channel=4 note=50 velocity=57 time=17
note_on channel=4 note=53 velocity=48 time=90
note_on channel=4 note=55 velocity=47 time=56
note_on channel=4 note=50 velocity=0 time=51
note_on channel=4 note=60 velocity=49 time=20
note_on channel=4 note=55 velocity=0 time=19
note_on channel=4 note=68 velocity=64 time=14
note_on channel=4 note=65 velocity=52 time=10
note_on channel=4 note=53 velocity=0 time=5
note_on channel=4 note=72 velocity=61 time=0
note_on channel=4 note=60 velocity=0 time=3
note_on channel=4 note=74 velocity=37 time=54
note_on channel=4 note=68 velocity=0 time=108
note_on channel=4 note=65 velocity=0 time=1
note_on channel=4 note=79 velocity=63 time=62
note_on channel=4 note=72 velocity=0 time=72
note_on channel=4 note=74 velocity=0 time=1
note_on channel=4 note=89 velocity=48 time=41
note_on channel=4 note=79 velocity=0 time=21
note_on channel=4 note=91 velocity=49 time=11
note_on channel=4 note=94 velocity=71 time=25
note_on channel=5 note=91 velocity=0 time=37
note_on channel=4 note=95 velocity=63 time=14
note_on channel=5 note=89 velocity=0 time=3
note_on channel=5 note=97 velocity=62 time=6
note_on channel=5 note=94 velocity=0 time=37
note_on channel=4 note=95 velocity=0 time=53
note_on channel=4 note=103 velocity=61 time=30
note_on channel=4 note=97 velocity=0 time=13
note_on channel=4 note=95 velocity=77 time=15
note_on channel=4 note=103 velocity=0 time=19
note_on channel=4 note=95 velocity=0 time=61
note_on channel=4 note=108 velocity=53 time=183
note_on channel=4 note=108 velocity=0 time=341
note_on channel=4 note=96 velocity=40 time=44
note_on channel=4 note=96 velocity=0 time=117
note_on channel=4 note=58 velocity=47 time=204
note_on channel=4 note=65 velocity=57 time=4
note_on channel=4 note=96 velocity=58 time=2
note_on channel=4 note=61 velocity=57 time=3
note_on channel=4 note=55 velocity=39 time=8
note_on channel=5 note=96 velocity=0 time=217
note_on channel=4 note=65 velocity=0 time=257
note_on channel=5 note=61 velocity=0 time=4
note_on channel=5 note=58 velocity=0 time=83
note_on channel=5 note=55 velocity=0 time=67
note_on channel=4 note=77 velocity=52 time=629
note_on channel=1 note=62 velocity=47 time=7
note_on channel=1 note=65 velocity=46 time=1
note_on channel=4 note=54 velocity=48 time=1
note_on channel=4 note=50 velocity=43 time=0
note_on channel=5 note=70 velocity=53 time=2
note_on channel=4 note=57 velocity=51 time=2
control_change channel=5 control=64 value=0 time=256
control_change channel=5 control=64 value=127 time=225
note_on channel=5 note=65 velocity=0 time=389
note_on channel=4 note=77 velocity=0 time=84
note_on channel=5 note=62 velocity=0 time=34
note_on channel=5 note=57 velocity=0 time=54
note_on channel=5 note=50 velocity=0 time=66
note_on channel=4 note=70 velocity=0 time=19
note_on channel=4 note=54 velocity=0 time=34
note_on channel=4 note=75 velocity=37 time=620
note_on channel=5 note=54 velocity=36 time=4
note_on channel=4 note=56 velocity=35 time=0
note_on channel=5 note=70 velocity=36 time=3
note_on channel=4 note=51 velocity=37 time=16
note_on channel=5 note=63 velocity=27 time=10
note_on channel=4 note=63 velocity=0 time=652
note_on channel=5 note=70 velocity=0 time=73
note_on channel=4 note=75 velocity=0 time=160
note_on channel=5 note=56 velocity=0 time=47
note_on channel=5 note=51 velocity=0 time=28
note_on channel=4 note=54 velocity=0 time=2
note_on channel=5 note=96 velocity=38 time=1024
note_on channel=4 note=92 velocity=68 time=62
note_on channel=4 note=96 velocity=0 time=93
note_on channel=4 note=89 velocity=53 time=3
note_on channel=4 note=89 velocity=0 time=73
note_on channel=4 note=83 velocity=50 time=5
note_on channel=4 note=92 velocity=0 time=3
note_on channel=4 note=80 velocity=57 time=69
note_on channel=4 note=78 velocity=53 time=54
note_on channel=4 note=73 velocity=66 time=32
note_on channel=4 note=83 velocity=0 time=13
note_on channel=4 note=78 velocity=0 time=42
note_on channel=4 note=80 velocity=0 time=16
note_on channel=4 note=73 velocity=0 time=20
note_on channel=4 note=70 velocity=61 time=57
note_on channel=4 note=66 velocity=60 time=72
note_on channel=4 note=70 velocity=0 time=5
note_on channel=4 note=63 velocity=48 time=47
note_on channel=4 note=63 velocity=0 time=50
note_on channel=4 note=59 velocity=57 time=7
note_on channel=4 note=66 velocity=0 time=20
note_on channel=4 note=41 velocity=61 time=61
note_on channel=4 note=59 velocity=0 time=12
note_on channel=4 note=34 velocity=40 time=40
note_on channel=4 note=32 velocity=44 time=65
note_on channel=4 note=34 velocity=0 time=29
note_on channel=4 note=29 velocity=44 time=3
note_on channel=4 note=41 velocity=0 time=4
note_on channel=4 note=31 velocity=44 time=1
note_on channel=4 note=32 velocity=0 time=24
note_on channel=4 note=29 velocity=0 time=29
note_on channel=4 note=31 velocity=0 time=10
note_on channel=4 note=43 velocity=57 time=52
note_on channel=4 note=42 velocity=40 time=40
note_on channel=4 note=40 velocity=43 time=9
note_on channel=4 note=37 velocity=56 time=13
note_on channel=4 note=41 velocity=39 time=12
note_on channel=4 note=33 velocity=39 time=31
note_on channel=4 note=35 velocity=48 time=1
note_on channel=4 note=42 velocity=0 time=10
note_on channel=4 note=31 velocity=66 time=31
note_on channel=4 note=41 velocity=0 time=16
note_on channel=4 note=33 velocity=0 time=6
note_on channel=4 note=43 velocity=0 time=1
note_on channel=5 note=29 velocity=48 time=5
note_on channel=4 note=35 velocity=0 time=0
note_on channel=5 note=40 velocity=0 time=2
note_on channel=4 note=37 velocity=0 time=10
note_on channel=4 note=29 velocity=0 time=58
note_on channel=4 note=23 velocity=86 time=41
note_on channel=4 note=24 velocity=48 time=19
note_on channel=4 note=31 velocity=0 time=20
note_on channel=4 note=24 velocity=0 time=31
note_on channel=4 note=23 velocity=0 time=222
note_on channel=4 note=88 velocity=59 time=967
note_on channel=4 note=76 velocity=49 time=12
note_on channel=4 note=81 velocity=56 time=0
note_on channel=4 note=74 velocity=57 time=4
note_on channel=4 note=72 velocity=54 time=10
note_on channel=4 note=69 velocity=47 time=5
note_on channel=4 note=77 velocity=40 time=19
note_on channel=4 note=64 velocity=37 time=9
note_on channel=4 note=65 velocity=39 time=1
note_on channel=4 note=77 velocity=0 time=46
note_on channel=4 note=64 velocity=0 time=57
note_on channel=4 note=65 velocity=0 time=3
note_on channel=1 note=76 velocity=0 time=129
note_on channel=4 note=81 velocity=0 time=101
note_on channel=1 note=88 velocity=0 time=168
note_on channel=4 note=74 velocity=0 time=132
note_on channel=4 note=69 velocity=0 time=9
note_on channel=4 note=72 velocity=0 time=47
control_change channel=4 control=64 value=0 time=764
note_on channel=4 note=98 velocity=67 time=88
control_change channel=4 control=64 value=127 time=75
note_on channel=4 note=93 velocity=48 time=32
note_on channel=4 note=90 velocity=60 time=49
note_on channel=5 note=98 velocity=0 time=2
note_on channel=5 note=86 velocity=58 time=39
note_on channel=5 note=93 velocity=0 time=32
note_on channel=4 note=83 velocity=48 time=24
note_on channel=5 note=90 velocity=0 time=3
note_on channel=5 note=86 velocity=0 time=62
note_on channel=5 note=80 velocity=55 time=2
note_on channel=4 note=78 velocity=52 time=59
note_on channel=4 note=73 velocity=63 time=44
note_on channel=4 note=83 velocity=0 time=2
note_on channel=4 note=80 velocity=0 time=60
note_on channel=4 note=78 velocity=0 time=31
note_on channel=5 note=73 velocity=0 time=30
note_on channel=5 note=76 velocity=46 time=79
note_on channel=5 note=73 velocity=48 time=9
note_on channel=4 note=75 velocity=48 time=2
note_on channel=5 note=76 velocity=0 time=57
note_on channel=5 note=75 velocity=0 time=12
note_on channel=5 note=69 velocity=51 time=41
note_on channel=5 note=64 velocity=60 time=30
note_on channel=5 note=69 velocity=0 time=25
note_on channel=5 note=73 velocity=0 time=14
note_on channel=5 note=52 velocity=58 time=42
note_on channel=5 note=64 velocity=0 time=61
note_on channel=5 note=44 velocity=55 time=10
note_on channel=5 note=48 velocity=39 time=29
note_on channel=5 note=52 velocity=0 time=6
note_on channel=5 note=40 velocity=40 time=57
note_on channel=5 note=48 velocity=0 time=2
note_on channel=5 note=44 velocity=0 time=24
note_on channel=5 note=40 velocity=0 time=46
note_on channel=5 note=54 velocity=47 time=40
note_on channel=1 note=52 velocity=47 time=47
note_on channel=5 note=50 velocity=51 time=15
note_on channel=5 note=54 velocity=0 time=26
note_on channel=5 note=43 velocity=58 time=16
note_on channel=5 note=35 velocity=64 time=45
note_on channel=1 note=47 velocity=39 time=3
control_change channel=5 control=64 value=0 time=53
note_on channel=5 note=47 velocity=0 time=34
note_on channel=5 note=43 velocity=0 time=7
note_on channel=5 note=50 velocity=0 time=4
note_on channel=5 note=52 velocity=0 time=32
control_change channel=4 control=64 value=127 time=24
note_on channel=4 note=23 velocity=83 time=10
note_on channel=4 note=24 velocity=61 time=7
note_on channel=4 note=35 velocity=0 time=2
note_on channel=4 note=24 velocity=0 time=34
note_on channel=4 note=23 velocity=0 time=323
note_on channel=4 note=93 velocity=63 time=980
note_on channel=4 note=64 velocity=57 time=1
note_on channel=4 note=76 velocity=60 time=1
note_on channel=4 note=88 velocity=57 time=0
note_on channel=4 note=81 velocity=57 time=5
note_on channel=4 note=73 velocity=63 time=2
note_on channel=4 note=85 velocity=60 time=1
note_on channel=4 note=70 velocity=60 time=2
note_on channel=4 note=81 velocity=0 time=537
note_on channel=4 note=93 velocity=0 time=81
note_on channel=4 note=85 velocity=0 time=101
note_on channel=4 note=88 velocity=0 time=40
note_on channel=4 note=70 velocity=0 time=16
note_on channel=4 note=73 velocity=0 time=44
note_on channel=4 note=64 velocity=0 time=12
note_on channel=4 note=76 velocity=0 time=3
note_on channel=4 note=96 velocity=77 time=455
note_on channel=4 note=91 velocity=55 time=11
note_on channel=4 note=96 velocity=0 time=133
note_on channel=4 note=89 velocity=56 time=6
note_on channel=4 note=84 velocity=50 time=35
note_on channel=4 note=79 velocity=33 time=33
note_on channel=4 note=74 velocity=57 time=16
note_on channel=4 note=91 velocity=0 time=10
note_on channel=4 note=89 velocity=0 time=43
note_on channel=4 note=79 velocity=0 time=1
note_on channel=4 note=84 velocity=0 time=29
note_on channel=4 note=71 velocity=53 time=9
note_on channel=4 note=65 velocity=61 time=77
note_on channel=4 note=74 velocity=0 time=26
note_on channel=4 note=71 velocity=0 time=42
note_on channel=4 note=65 velocity=0 time=64
note_on channel=4 note=74 velocity=66 time=45
note_on channel=4 note=72 velocity=57 time=32
note_on channel=4 note=68 velocity=61 time=56
note_on channel=4 note=74 velocity=0 time=7
note_on channel=4 note=68 velocity=0 time=34
note_on channel=4 note=64 velocity=57 time=11
note_on channel=4 note=72 velocity=0 time=13
note_on channel=4 note=52 velocity=45 time=10
note_on channel=4 note=53 velocity=51 time=6
note_on channel=4 note=46 velocity=39 time=14
note_on channel=4 note=49 velocity=46 time=11
note_on channel=4 note=64 velocity=0 time=32
note_on channel=4 note=41 velocity=49 time=29
note_on channel=4 note=53 velocity=0 time=5
note_on channel=4 note=49 velocity=0 time=1
note_on channel=4 note=52 velocity=0 time=31
note_on channel=4 note=42 velocity=35 time=4
note_on channel=4 note=46 velocity=0 time=2
note_on channel=4 note=42 velocity=0 time=50
note_on channel=4 note=41 velocity=0 time=44
note_on channel=4 note=52 velocity=41 time=69
note_on channel=4 note=53 velocity=34 time=1
note_on channel=4 note=50 velocity=50 time=31
note_on channel=4 note=49 velocity=55 time=25
note_on channel=4 note=53 velocity=0 time=19
note_on channel=4 note=45 velocity=47 time=29
note_on channel=4 note=52 velocity=0 time=2
note_on channel=4 note=35 velocity=59 time=2
note_on channel=1 note=49 velocity=0 time=11
note_on channel=1 note=45 velocity=0 time=43
note_on channel=4 note=50 velocity=0 time=39
note_on channel=4 note=35 velocity=0 time=77
note_on channel=4 note=24 velocity=66 time=1
note_on channel=4 note=23 velocity=90 time=1
control_change channel=4 control=64 value=0 time=48
control_change channel=4 control=64 value=127 time=57
note_on channel=4 note=24 velocity=0 time=76
note_on channel=4 note=23 velocity=0 time=41
note_on channel=4 note=71 velocity=72 time=1146
note_on channel=4 note=86 velocity=69 time=2
note_on channel=4 note=64 velocity=50 time=2
note_on channel=4 note=80 velocity=68 time=3
note_on channel=4 note=76 velocity=66 time=1
note_on channel=4 note=59 velocity=57 time=0
note_on channel=4 note=67 velocity=63 time=6
note_on channel=4 note=82 velocity=66 time=3
note_on channel=4 note=71 velocity=0 time=68
note_on channel=4 note=67 velocity=0 time=426
note_on channel=4 note=76 velocity=0 time=5
note_on channel=4 note=80 velocity=0 time=51
note_on channel=5 note=59 velocity=0 time=58
note_on channel=5 note=82 velocity=0 time=14
note_on channel=5 note=86 velocity=0 time=27
note_on channel=5 note=64 velocity=0 time=42
note_on channel=5 note=70 velocity=35 time=499
note_on channel=5 note=70 velocity=0 time=114
note_on channel=5 note=98 velocity=74 time=68
note_on channel=5 note=92 velocity=78 time=105
note_on channel=5 note=98 velocity=0 time=70
note_on channel=5 note=90 velocity=60 time=26
note_on channel=5 note=86 velocity=57 time=38
note_on channel=5 note=81 velocity=50 time=51
note_on channel=4 note=92 velocity=0 time=17
note_on channel=5 note=86 velocity=0 time=13
note_on channel=5 note=90 velocity=0 time=12
note_on channel=4 note=77 velocity=54 time=11
note_on channel=4 note=74 velocity=53 time=73
note_on channel=4 note=81 velocity=0 time=24
note_on channel=4 note=68 velocity=66 time=57
note_on channel=4 note=77 velocity=0 time=72
note_on channel=4 note=74 velocity=0 time=17
note_on channel=4 note=69 velocity=69 time=15
note_on channel=4 note=68 velocity=0 time=5
note_on channel=4 note=69 velocity=0 time=59
note_on channel=4 note=67 velocity=51 time=61
note_on channel=4 note=64 velocity=44 time=49
note_on channel=4 note=67 velocity=0 time=25
note_on channel=4 note=61 velocity=57 time=4
note_on channel=4 note=65 velocity=34 time=21
note_on channel=4 note=55 velocity=60 time=82
note_on channel=4 note=65 velocity=0 time=0
note_on channel=4 note=64 velocity=0 time=8
note_on channel=4 note=35 velocity=64 time=124
note_on channel=4 note=61 velocity=0 time=41
note_on channel=4 note=55 velocity=0 time=5
note_on channel=4 note=23 velocity=83 time=136
note_on channel=4 note=35 velocity=0 time=25
note_on channel=4 note=23 velocity=0 time=81
note_on channel=4 note=89 velocity=74 time=1203
note_on channel=4 note=85 velocity=66 time=3
note_on channel=4 note=77 velocity=75 time=1
note_on channel=4 note=64 velocity=61 time=2
note_on channel=4 note=82 velocity=75 time=4
note_on channel=4 note=73 velocity=70 time=5
note_on channel=4 note=70 velocity=68 time=3
note_on channel=4 note=76 velocity=57 time=1
note_on channel=4 note=74 velocity=63 time=4
note_on channel=4 note=84 velocity=75 time=1
note_on channel=4 note=85 velocity=0 time=37
note_on channel=4 note=74 velocity=0 time=3
note_on channel=4 note=76 velocity=0 time=21
note_on channel=4 note=64 velocity=0 time=9
note_on channel=1 note=89 velocity=0 time=1
note_on channel=4 note=77 velocity=0 time=1
note_on channel=4 note=84 velocity=0 time=13
note_on channel=1 note=82 velocity=0 time=2
note_on channel=4 note=73 velocity=0 time=13
note_on channel=4 note=70 velocity=0 time=11
control_change channel=4 control=64 value=0 time=1396
note_on channel=4 note=98 velocity=65 time=17
note_on channel=4 note=96 velocity=67 time=16
control_change channel=4 control=64 value=127 time=25
note_on channel=4 note=92 velocity=75 time=88
note_on channel=4 note=96 velocity=0 time=27
note_on channel=4 note=98 velocity=0 time=25
note_on channel=4 note=90 velocity=57 time=29
note_on channel=4 note=86 velocity=60 time=64
note_on channel=4 note=92 velocity=0 time=36
note_on channel=4 note=81 velocity=48 time=16
note_on channel=4 note=90 velocity=0 time=11
note_on channel=4 note=78 velocity=63 time=39
note_on channel=4 note=86 velocity=0 time=21
note_on channel=4 note=81 velocity=0 time=51
note_on channel=4 note=75 velocity=56 time=1
note_on channel=4 note=75 velocity=0 time=41
note_on channel=4 note=71 velocity=63 time=11
note_on channel=5 note=78 velocity=0 time=50
note_on channel=4 note=71 velocity=0 time=41
note_on channel=4 note=76 velocity=69 time=47
note_on channel=5 note=74 velocity=58 time=38
note_on channel=5 note=76 velocity=0 time=58
note_on channel=5 note=72 velocity=57 time=24
note_on channel=5 note=68 velocity=56 time=17
note_on channel=5 note=74 velocity=0 time=19
note_on channel=5 note=72 velocity=0 time=30
note_on channel=5 note=62 velocity=47 time=52
note_on channel=5 note=68 velocity=0 time=5
note_on channel=5 note=64 velocity=48 time=13
note_on channel=5 note=64 velocity=0 time=57
note_on channel=5 note=66 velocity=52 time=37
note_on channel=5 note=36 velocity=55 time=26
note_on channel=5 note=58 velocity=57 time=34
note_on channel=5 note=61 velocity=57 time=1
note_on channel=5 note=62 velocity=0 time=61
note_on channel=5 note=66 velocity=0 time=1
note_on channel=5 note=58 velocity=0 time=65
note_on channel=4 note=36 velocity=0 time=35
note_on channel=4 note=26 velocity=69 time=7
note_on channel=4 note=24 velocity=90 time=6
note_on channel=4 note=61 velocity=0 time=5
note_on channel=4 note=24 velocity=0 time=113
note_on channel=4 note=26 velocity=0 time=4
note_on channel=4 note=93 velocity=70 time=1360
note_on channel=4 note=65 velocity=50 time=9
note_on channel=1 note=81 velocity=66 time=1
note_on channel=1 note=86 velocity=65 time=1
note_on channel=4 note=76 velocity=66 time=5
note_on channel=4 note=89 velocity=59 time=0
note_on channel=4 note=73 velocity=68 time=1
note_on channel=4 note=70 velocity=66 time=2
control_change channel=4 control=64 value=0 time=166
control_change channel=4 control=64 value=127 time=322
note_on channel=4 note=93 velocity=0 time=296
note_on channel=4 note=65 velocity=0 time=7
note_on channel=4 note=76 velocity=0 time=9
note_on channel=4 note=81 velocity=0 time=14
note_on channel=4 note=86 velocity=0 time=2
note_on channel=4 note=70 velocity=0 time=1
note_on channel=4 note=73 velocity=0 time=1
note_on channel=4 note=89 velocity=0 time=5
note_on channel=4 note=85 velocity=70 time=526
note_on channel=4 note=93 velocity=65 time=0
note_on channel=1 note=81 velocity=65 time=6
note_on channel=1 note=87 velocity=68 time=1
note_on channel=4 note=70 velocity=68 time=6
note_on channel=4 note=63 velocity=62 time=5
note_on channel=4 note=68 velocity=63 time=0
note_on channel=4 note=74 velocity=66 time=2
control_change channel=4 control=64 value=0 time=62
control_change channel=4 control=64 value=127 time=56
note_on channel=4 note=74 velocity=0 time=572
note_on channel=4 note=68 velocity=0 time=36
note_on channel=4 note=93 velocity=0 time=7
note_on channel=4 note=87 velocity=0 time=33
note_on channel=4 note=70 velocity=0 time=6
note_on channel=4 note=63 velocity=0 time=25
note_on channel=4 note=81 velocity=0 time=27
note_on channel=4 note=85 velocity=0 time=3
note_on channel=4 note=89 velocity=63 time=459
note_on channel=4 note=85 velocity=66 time=1
note_on channel=4 note=83 velocity=65 time=2
note_on channel=4 note=62 velocity=55 time=7
note_on channel=4 note=79 velocity=60 time=2
note_on channel=4 note=68 velocity=66 time=1
note_on channel=4 note=66 velocity=66 time=2
note_on channel=4 note=72 velocity=66 time=1
note_on channel=4 note=87 velocity=34 time=43
note_on channel=4 note=87 velocity=0 time=42
note_on channel=4 note=72 velocity=0 time=180
note_on channel=4 note=68 velocity=0 time=2
note_on channel=5 note=83 velocity=0 time=0
note_on channel=4 note=79 velocity=0 time=8
note_on channel=5 note=66 velocity=0 time=8
note_on channel=5 note=85 velocity=0 time=2
note_on channel=5 note=62 velocity=0 time=1
note_on channel=4 note=89 velocity=0 time=10
note_on channel=1 note=84 velocity=66 time=355
note_on channel=4 note=68 velocity=70 time=2
note_on channel=4 note=89 velocity=65 time=1
note_on channel=1 note=79 velocity=65 time=4
note_on channel=5 note=86 velocity=63 time=1
note_on channel=4 note=71 velocity=69 time=1
control_change channel=5 control=64 value=0 time=1
note_on channel=4 note=62 velocity=60 time=1
note_on channel=4 note=66 velocity=64 time=1
control_change channel=5 control=64 value=127 time=142
note_on channel=4 note=89 velocity=0 time=416
note_on channel=5 note=71 velocity=0 time=33
note_on channel=4 note=79 velocity=0 time=1
note_on channel=4 note=68 velocity=0 time=7
note_on channel=4 note=62 velocity=0 time=6
note_on channel=4 note=86 velocity=0 time=13
note_on channel=4 note=66 velocity=0 time=1
note_on channel=4 note=84 velocity=0 time=8
note_on channel=4 note=86 velocity=69 time=567
note_on channel=4 note=76 velocity=69 time=1
note_on channel=1 note=81 velocity=61 time=7
note_on channel=1 note=59 velocity=58 time=2
note_on channel=4 note=79 velocity=63 time=0
note_on channel=4 note=66 velocity=70 time=1
note_on channel=4 note=63 velocity=64 time=2
note_on channel=4 note=69 velocity=72 time=2
control_change channel=4 control=64 value=0 time=102
control_change channel=4 control=64 value=127 time=207
note_on channel=4 note=86 velocity=0 time=252
note_on channel=4 note=79 velocity=0 time=20
note_on channel=5 note=69 velocity=0 time=23
note_on channel=4 note=81 velocity=0 time=14
note_on channel=4 note=76 velocity=0 time=5
note_on channel=4 note=66 velocity=0 time=12
note_on channel=4 note=63 velocity=0 time=18
note_on channel=4 note=59 velocity=0 time=14
note_on channel=4 note=84 velocity=66 time=522
note_on channel=4 note=80 velocity=66 time=3
note_on channel=1 note=78 velocity=68 time=5
note_on channel=1 note=72 velocity=63 time=1
note_on channel=5 note=57 velocity=34 time=4
note_on channel=4 note=63 velocity=66 time=6
note_on channel=4 note=67 velocity=69 time=4
note_on channel=4 note=60 velocity=60 time=6
control_change channel=4 control=64 value=0 time=63
control_change channel=4 control=64 value=127 time=28
note_on channel=4 note=84 velocity=0 time=532
note_on channel=4 note=67 velocity=0 time=3
note_on channel=5 note=78 velocity=0 time=2
note_on channel=4 note=80 velocity=0 time=2
note_on channel=4 note=63 velocity=0 time=11
note_on channel=5 note=72 velocity=0 time=44
note_on channel=4 note=60 velocity=0 time=10
note_on channel=5 note=57 velocity=0 time=6
note_on channel=4 note=81 velocity=65 time=525
note_on channel=5 note=74 velocity=63 time=5
note_on channel=5 note=71 velocity=63 time=2
note_on channel=5 note=65 velocity=66 time=1
note_on channel=4 note=75 velocity=66 time=0
note_on channel=5 note=61 velocity=64 time=1
note_on channel=4 note=55 velocity=60 time=2
note_on channel=5 note=58 velocity=61 time=9
note_on channel=4 note=61 velocity=0 time=217
note_on channel=4 note=58 velocity=0 time=2
note_on channel=4 note=74 velocity=0 time=1
note_on channel=5 note=81 velocity=0 time=4
note_on channel=5 note=75 velocity=0 time=12
note_on channel=4 note=65 velocity=0 time=37
note_on channel=4 note=55 velocity=0 time=5
note_on channel=4 note=71 velocity=0 time=36
note_on channel=4 note=75 velocity=73 time=282
note_on channel=4 note=69 velocity=63 time=1
note_on channel=4 note=81 velocity=66 time=1
note_on channel=4 note=77 velocity=69 time=4
note_on channel=4 note=62 velocity=60 time=2
note_on channel=1 note=67 velocity=63 time=4
note_on channel=1 note=55 velocity=58 time=6
note_on channel=4 note=59 velocity=56 time=1
note_on channel=5 note=78 velocity=51 time=2
note_on channel=4 note=71 velocity=51 time=5
note_on channel=4 note=71 velocity=0 time=55
control_change channel=4 control=64 value=0 time=3
control_change channel=4 control=64 value=127 time=26
note_on channel=5 note=78 velocity=0 time=377
note_on channel=4 note=69 velocity=0 time=427
note_on channel=4 note=62 velocity=0 time=33
note_on channel=5 note=77 velocity=0 time=0
note_on channel=4 note=75 velocity=0 time=29
note_on channel=4 note=59 velocity=0 time=1
note_on channel=4 note=81 velocity=0 time=6
note_on channel=4 note=55 velocity=0 time=16
note_on channel=4 note=67 velocity=0 time=6
note_on channel=5 note=75 velocity=68 time=502
note_on channel=5 note=78 velocity=66 time=0
note_on channel=4 note=83 velocity=65 time=4
note_on channel=5 note=57 velocity=63 time=4
note_on channel=4 note=72 velocity=65 time=3
note_on channel=5 note=69 velocity=69 time=9
note_on channel=4 note=63 velocity=62 time=1
note_on channel=4 note=61 velocity=57 time=5
note_on channel=5 note=69 velocity=0 time=404
note_on channel=4 note=63 velocity=0 time=61
note_on channel=5 note=72 velocity=0 time=12
note_on channel=5 note=61 velocity=0 time=29
note_on channel=5 note=57 velocity=0 time=11
note_on channel=5 note=83 velocity=0 time=2
note_on channel=4 note=75 velocity=0 time=85
note_on channel=4 note=78 velocity=0 time=21
note_on channel=4 note=75 velocity=70 time=1757
note_on channel=5 note=69 velocity=63 time=2
note_on channel=4 note=83 velocity=57 time=3
note_on channel=5 note=77 velocity=60 time=1
note_on channel=5 note=48 velocity=57 time=18
note_on channel=4 note=55 velocity=61 time=1
note_on channel=4 note=60 velocity=61 time=0
note_on channel=5 note=81 velocity=57 time=4
note_on channel=4 note=52 velocity=57 time=3
note_on channel=4 note=81 velocity=0 time=56
note_on channel=5 note=83 velocity=0 time=1321
note_on channel=5 note=55 velocity=0 time=21
note_on channel=5 note=60 velocity=0 time=8
note_on channel=5 note=69 velocity=0 time=24
note_on channel=5 note=52 velocity=0 time=13
note_on channel=4 note=48 velocity=0 time=41
note_on channel=4 note=77 velocity=0 time=42
note_on channel=4 note=75 velocity=0 time=52
note_on channel=1 note=53 velocity=66 time=12989
note_on channel=1 note=60 velocity=65 time=7
note_on channel=5 note=67 velocity=65 time=0
note_on channel=4 note=46 velocity=64 time=11
note_on channel=4 note=39 velocity=57 time=10
note_on channel=4 note=32 velocity=56 time=1
control_change channel=5 control=64 value=0 time=699
control_change channel=5 control=64 value=127 time=349
note_on channel=1 note=53 velocity=0 time=1021
note_on channel=4 note=46 velocity=0 time=30
note_on channel=4 note=32 velocity=0 time=6
note_on channel=4 note=39 velocity=0 time=12
note_on channel=4 note=60 velocity=0 time=8